<svg viewBox="0 0 123 123" fill="none" xmlns="http://www.w3.org/2000/svg">
<circle cx="61.5" cy="61.5" r="61.5" fill="#E5D9B6"/>
<path d="M63.7591 27.1961L60.957 26.4453C60.24 29.1213 60.1324 31.7651 60.5704 34.1651C61.4809 33.7936 62.4106 33.5172 63.3358 33.3146C63.0755 31.428 63.1884 29.3259 63.7591 27.1961Z" fill="#4D6B36"/>
<path d="M81.972 32.0705L79.1699 31.3197C78.5992 33.4494 77.646 35.3258 76.4773 36.8296C77.1773 37.4676 77.8442 38.1719 78.447 38.9489C80.0262 37.0899 81.2549 34.7465 81.972 32.0705Z" fill="#4D6B36"/>
<path d="M68.467 40.439C71.2411 41.1824 74.2708 39.6815 76.4755 36.8339C74.6975 35.2311 72.6377 34.0637 70.3402 33.4481C68.0428 32.8325 65.6752 32.8141 63.3339 33.3131C63.8195 36.8817 65.6929 39.6957 68.467 40.439Z" fill="#4D6B36"/>
<path d="M44.0532 53.5513C39.8896 53.166 32.9115 54.3507 29.8362 61.3376L32.4909 62.5064C34.9912 56.8257 40.4871 56.2982 43.1897 56.4103C41.1176 64.3327 41.5761 72.0754 43.9772 78.1218C42.6499 78.8577 40.6015 80.6846 39.7051 85.1214C39.1943 87.6518 38.4921 87.9674 38.4859 87.97C38.4643 87.9795 38.4334 87.975 38.4034 87.967C38.3526 87.9534 38.3073 87.9314 38.3222 87.9409L36.5243 90.2173C36.8063 90.4393 37.195 90.6475 37.6452 90.7681C38.1925 90.9148 38.8313 90.9334 39.4802 90.695C40.9766 90.1455 41.9806 88.5104 42.5487 85.6948C43.1893 82.5255 44.4531 81.2726 45.1969 80.7856C47.2808 84.6175 50.2724 87.5007 53.9779 88.9103L65.1911 47.0621L49.6399 42.8952C47.355 45.924 45.4281 49.5232 44.0534 53.5501L44.0532 53.5513ZM56.1731 70.1288C55.5537 72.4406 53.1735 73.8147 50.8476 73.1914C48.5358 72.572 47.1474 70.188 47.7668 67.8764C48.39 65.5504 50.7845 64.18 53.0962 64.7994C55.4216 65.4225 56.7962 67.8034 56.1731 70.1288ZM55.7082 49.4477C58.0341 50.0709 59.4045 52.4653 58.7851 54.777C58.1656 57.0888 55.7816 58.4772 53.4557 57.854C51.1439 57.2345 49.7593 54.8363 50.3788 52.5246C50.9982 50.2128 53.3964 48.8282 55.7082 49.4477Z" fill="#4D6B36"/>
<path d="M48.8597 34.8375L49.6005 35.2479L52.3588 39.7663C52.1369 39.9906 51.9131 40.2122 51.6956 40.4464L82.9946 48.8329C82.9234 48.5214 82.8403 48.2175 82.7605 47.9118L87.4079 45.3778L88.2546 45.3928C91.7317 45.4519 94.9317 43.744 96.8154 40.8239L94.3773 39.2512C93.0421 41.3232 90.7715 42.5345 88.3047 42.4922L86.6934 42.4646L81.8681 45.0954C80.9943 42.7785 79.8489 40.6949 78.4508 38.9511C75.5417 42.4662 71.5048 44.2521 67.722 43.2385C63.9392 42.2249 61.3357 38.6592 60.5743 34.1611C58.4909 34.9721 56.4577 36.2039 54.542 37.774L51.6782 33.0823L50.269 32.3006C48.1098 31.1038 46.749 28.9196 46.6287 26.4576L43.731 26.6005C43.9023 30.0712 45.8195 33.1503 48.8603 34.8377L48.8597 34.8375Z" fill="#4D6B36"/>
<path d="M83.0534 64.0123C83.8772 59.836 84.0086 55.7542 83.5435 51.9873L67.9922 47.8203L56.779 89.6685C60.6929 90.3006 64.7259 89.2995 68.4459 87.0228C68.8464 87.817 69.314 89.5338 68.2842 92.5982C67.3685 95.3207 67.4205 97.2387 68.4415 98.4628C68.8842 98.9937 69.4468 99.297 69.9941 99.4436C70.4444 99.5643 70.885 99.5783 71.2403 99.527L70.8672 96.6509C70.8476 96.6528 70.7067 96.6542 70.6653 96.5995C70.6608 96.594 70.2109 95.9696 71.0337 93.523C72.4763 89.2331 71.6154 86.626 70.8343 85.3253C75.9357 81.2897 80.2035 74.8162 82.3707 66.9214C84.7737 68.1857 89.2361 71.3912 88.5629 77.5381L91.4463 77.8532C92.2755 70.2823 86.8499 65.7704 83.0529 64.0133L83.0534 64.0123ZM64.5779 72.3874C65.2012 70.0615 67.5814 68.6872 69.9073 69.3104C72.2191 69.9299 73.6075 72.3139 72.9843 74.6398C72.3648 76.9516 69.9704 78.3219 67.6587 77.7025C65.3328 77.0792 63.9585 74.699 64.5779 72.3874ZM73.0689 63.1152C70.7435 62.4922 69.3725 60.0976 69.992 57.7859C70.6114 55.4741 72.9954 54.0857 75.3214 54.7089C77.6331 55.3284 79.0177 57.7266 78.3983 60.0383C77.7788 62.3501 75.3806 63.7347 73.0689 63.1152Z" fill="#4D6B36"/>
</svg>
