<svg viewBox="0 0 32 32" fill="none" xmlns="http://www.w3.org/2000/svg">
<g clip-path="url(#clip0_2324_10037)">
<path d="M4.83959 31.9998C4.50106 31.9998 4.15773 31.9547 3.81536 31.8598C1.77363 31.2959 0.574869 29.1822 1.13973 27.1404C2.95513 20.571 9.35077 15.8286 14.9945 11.6444C17.4237 9.84331 19.7177 8.14199 21.2828 6.56055C22.9457 4.88128 23.0052 4.11214 23.0004 3.975C22.9236 1.85842 24.5779 0.0794125 26.6945 0.00269002C28.8139 -0.0759506 30.59 1.57934 30.6676 3.69688C30.8758 9.42038 25.3816 13.4943 19.5642 17.8081C14.9159 21.2548 9.64614 25.1619 8.53465 29.1851C8.06474 30.8854 6.52169 32.0008 4.83959 32.0008V31.9998Z" fill="currentColor"/>
</g>
</svg>
