<svg viewBox="0 0 32 32" fill="none" xmlns="http://www.w3.org/2000/svg">
<g clip-path="url(#clip0_2324_10040)">
<path d="M6.45134 32.0003C5.97118 32.0003 5.48264 31.9369 4.99745 31.8035C2.09806 31.0061 0.396972 28.0203 1.19808 25.1346C2.97626 18.7301 8.87308 14.3781 14.0752 10.5382C15.7847 9.27635 17.3995 8.08453 18.6254 6.98861C19.6855 6.04116 20.086 5.48569 20.2235 5.25967C20.3064 2.42731 22.5857 0.108713 25.4708 0.00362525C28.4767 -0.104798 31.0023 2.23215 31.1121 5.22381C31.1766 6.97944 30.74 8.72256 29.8149 10.4031C29.1605 11.5933 28.263 12.7543 27.0714 13.9519C25.2312 15.8018 22.9645 17.4749 20.5645 19.2455C16.9621 21.9044 12.4781 25.2138 11.6987 28.0203C11.0317 30.4231 8.8404 31.9986 6.45134 31.9986V32.0003Z" fill="currentColor"/>
</g>
</svg>
