<svg viewBox="0 0 32 32" fill="none" xmlns="http://www.w3.org/2000/svg">
<g clip-path="url(#clip0_2324_10029)">
<path d="M3.16153 32.0004C2.97148 32.0004 2.7771 31.9753 2.58489 31.9208C1.43486 31.6005 0.761042 30.3996 1.07851 29.2402C2.92396 22.4993 9.80903 17.3483 15.8831 12.8032C20.7975 9.12548 25.8803 5.32244 25.7691 2.25931C25.7259 1.05628 26.6578 0.0450455 27.8488 0.00145764C29.041 -0.0421302 30.042 0.897187 30.0852 2.10021C30.2061 5.47064 27.972 8.15238 26.2809 9.87628C24.1698 12.0273 21.3946 14.1054 18.4553 16.3044C12.9406 20.4311 6.69045 25.107 5.2413 30.4018C4.97674 31.3673 4.10747 32.0015 3.16045 32.0015L3.16153 32.0004Z" fill="currentColor"/>
</g>
</svg>
