<svg viewBox="0 0 291 398" fill="none" xmlns="http://www.w3.org/2000/svg">
    <g clip-path="url(#clip0_3407_10664)">
        <path d="M291 0H0V398H291V0Z" fill="#FEFBE9"/>
        <path d="M0.152344 15H290.998" stroke="#E5D9B6"/>
        <path d="M0.152344 34.4766H290.998" stroke="#E5D9B6"/>
        <path d="M0.152344 72.7734H290.998" stroke="#E5D9B6"/>
        <path d="M0.152344 92.25H290.998" stroke="#E5D9B6"/>
        <path d="M0.152344 111.711H290.998" stroke="#E5D9B6"/>
        <path d="M0.152344 131.188H290.998" stroke="#E5D9B6"/>
        <path d="M0.152344 150.656H290.998" stroke="#E5D9B6"/>
        <path d="M0.152344 169.5H290.998" stroke="#E5D9B6"/>
        <path d="M0.152344 188.961H290.998" stroke="#E5D9B6"/>
        <path d="M0.152344 208.438H290.998" stroke="#E5D9B6"/>
        <path d="M0 227.891H290.846" stroke="#E5D9B6"/>
        <path d="M0.152344 247.375H290.998" stroke="#E5D9B6"/>
        <path d="M0.152344 266.211H290.998" stroke="#E5D9B6"/>
        <path d="M0.152344 285.688H290.998" stroke="#E5D9B6"/>
        <path d="M0.152344 305.148H290.998" stroke="#E5D9B6"/>
        <path d="M0.152344 324.625H290.998" stroke="#E5D9B6"/>
        <path d="M0.152344 344.086H290.998" stroke="#E5D9B6"/>
        <path d="M0.152344 362.938H290.998" stroke="#E5D9B6"/>
        <path d="M0.152344 382.398H290.998" stroke="#E5D9B6"/>
        <path d="M0.152344 53.3125H290.998" stroke="#E5D9B6"/>
        <path d="M127.012 15H34.3477C28.8248 15 24.3477 19.4772 24.3477 25V179.055C24.3477 184.578 28.8248 189.055 34.3477 189.055H127.012C132.535 189.055 137.012 184.578 137.012 179.055V25C137.012 19.4772 132.535 15 127.012 15Z"
              fill="#E5D9B6" fill-opacity="0.5"/>
        <mask id="mask0_3407_10664" style="mask-type:luminance" maskUnits="userSpaceOnUse" x="63" y="83" width="35"
              height="38">
            <path d="M97.8867 83.1484H63.4805V120.928H97.8867V83.1484Z" fill="white"/>
        </mask>
        <g mask="url(#mask0_3407_10664)">
            <path d="M91.4615 120.908C91.4032 120.846 91.3554 120.795 91.3261 120.764C91.176 120.772 91.0475 120.779 90.9065 120.787C90.8828 120.717 90.515 120.709 90.296 120.744C90.0657 120.779 89.8252 120.746 89.5893 120.746C89.3586 120.746 89.1275 120.751 88.8968 120.75C88.6675 120.75 88.4385 120.742 88.2091 120.742C87.9582 120.741 87.7077 120.746 87.4567 120.747C87.2243 120.747 86.9919 120.747 86.7569 120.747C86.7543 120.767 86.7509 120.798 86.747 120.832C86.6582 120.753 86.5909 120.697 86.4491 120.731C86.2826 120.77 86.0972 120.725 85.9205 120.729C85.6053 120.737 85.2853 120.797 84.9766 120.759C84.6231 120.716 84.2734 120.785 83.9177 120.725C83.621 120.674 83.3058 120.729 82.9993 120.743C82.9544 120.745 82.9113 120.778 82.8932 120.786C82.8221 120.767 82.7595 120.737 82.697 120.737C82.4793 120.737 82.2559 120.719 82.0455 120.761C81.7096 120.828 81.3893 120.706 81.0577 120.728C80.6748 120.753 80.2894 120.739 79.9052 120.737C79.631 120.735 79.3572 120.717 79.0834 120.721C78.7522 120.725 78.4198 120.733 78.0904 120.764C77.8787 120.784 77.6782 120.737 77.4725 120.72C77.4449 120.718 77.4173 120.707 77.3906 120.709C77.1513 120.73 76.9124 120.754 76.6731 120.772C76.6533 120.773 76.6304 120.739 76.605 120.718C76.5856 120.767 76.567 120.815 76.5632 120.825C76.5157 120.806 76.4808 120.781 76.4442 120.779C76.2113 120.767 75.9781 120.754 75.7448 120.753C75.568 120.752 75.3917 120.771 75.2149 120.775C75.098 120.777 74.9808 120.764 74.8635 120.766C74.7906 120.768 74.7182 120.794 74.6457 120.793C74.5371 120.792 74.428 120.779 74.3198 120.767C74.2939 120.765 74.2693 120.736 74.2447 120.737C73.8739 120.749 73.4893 120.709 73.1384 120.799C72.9374 120.85 72.8258 120.726 72.6563 120.732C71.7263 120.766 70.7945 120.765 69.8636 120.762C69.4415 120.761 69.0185 120.743 68.5977 120.707C68.3256 120.684 68.0561 120.622 67.7884 120.565C67.5668 120.518 67.3507 120.42 67.1287 120.406C66.9765 120.396 66.8381 120.432 66.7868 120.332C66.0542 120.174 65.4523 119.826 64.818 119.542C64.8555 119.493 64.8797 119.462 64.8668 119.479C64.7318 119.355 64.6024 119.248 64.4869 119.128C64.4019 119.039 64.3446 118.923 64.2571 118.837C64.1014 118.684 64.0674 118.493 64.0303 118.291C63.9988 118.12 63.9143 117.959 63.8763 117.789C63.835 117.601 63.8177 117.409 63.7936 117.218C63.7668 117.007 63.7341 116.796 63.7229 116.584C63.7121 116.381 63.5711 116.194 63.6547 115.978C63.6681 115.943 63.6353 115.883 63.6125 115.841C63.4672 115.582 63.4771 115.295 63.4836 115.015C63.4861 114.898 63.5944 114.777 63.5788 114.668C63.4827 113.994 63.6405 113.32 63.5478 112.641C63.4939 112.244 63.5827 111.823 63.5642 111.407C63.54 110.868 63.5758 110.326 63.5754 109.785C63.575 109.334 63.5547 108.883 63.5512 108.432C63.55 108.245 63.6146 108.046 63.5681 107.874C63.5025 107.636 63.6207 107.416 63.5633 107.175C63.5086 106.944 63.5706 106.684 63.5836 106.437C63.5849 106.416 63.6056 106.396 63.6276 106.357C63.5706 106.368 63.5448 106.373 63.5172 106.378C63.515 106.375 63.5111 106.37 63.5068 106.365C63.6543 106.264 63.5224 106.133 63.5452 106.032C63.6366 105.619 63.5512 105.209 63.5737 104.798C63.6 104.31 63.5926 103.819 63.5926 103.33C63.5926 102.968 63.5758 102.607 63.5745 102.246C63.5715 101.49 63.5732 100.734 63.5745 99.9776C63.575 99.7296 63.6069 99.4782 63.5763 99.2341C63.55 99.0263 63.6358 98.8149 63.5741 98.6248C63.4469 98.2332 63.6202 97.858 63.5931 97.4733C63.5694 97.133 63.6215 96.7829 63.5633 96.4504C63.4973 96.0747 63.6271 95.7172 63.584 95.3481C63.5474 95.0333 63.5482 94.7141 63.5392 94.3967C63.5362 94.2928 63.5642 94.1884 63.5625 94.0845C63.559 93.8999 63.5396 93.7153 63.5336 93.5303C63.5305 93.4346 63.5443 93.3384 63.5474 93.2422C63.5556 92.9688 63.6064 92.6859 63.5521 92.4254C63.5189 92.2676 63.5862 92.146 63.5788 92.0028C63.553 91.4918 63.5862 90.9781 63.5754 90.4662C63.5689 90.1579 63.5004 89.8508 63.4999 89.5429C63.4999 89.2471 63.5374 88.9486 63.5857 88.6558C63.6284 88.3971 63.7121 88.1452 63.7716 87.889C63.8419 87.5854 63.8919 87.2758 63.9772 86.9765C64.0359 86.7712 64.1851 86.5849 64.2109 86.3796C64.2355 86.1864 64.3192 86.0346 64.3791 85.863C64.4951 85.5309 64.7154 85.2696 64.8853 84.975C65.0862 84.6275 65.3902 84.4123 65.7545 84.2605C65.9624 84.1738 66.1521 84.0435 66.3595 83.9551C66.488 83.9004 66.6514 83.9159 66.7682 83.8473C66.9454 83.7434 67.1239 83.7162 67.3223 83.7046C67.5413 83.6916 67.7591 83.6028 67.9755 83.6093C68.2847 83.6187 68.5671 83.5329 68.8555 83.4557C68.9034 83.4428 68.9504 83.4182 68.9978 83.4169C69.5088 83.4044 70.0201 83.3897 70.5311 83.3876C70.8044 83.3863 71.0778 83.4104 71.3516 83.4178C71.4426 83.4204 71.5344 83.4035 71.6258 83.4018C72.0703 83.3923 72.5153 83.3824 72.9599 83.3781C73.2168 83.3755 73.4738 83.3841 73.7312 83.3846C74.1624 83.3846 74.5936 83.3807 75.0247 83.382C75.3386 83.3828 75.6521 83.3949 75.966 83.3923C76.1898 83.3902 76.4131 83.3686 76.6369 83.3617C77.0293 83.3501 77.4216 83.338 77.8144 83.3363C78.3417 83.3341 78.8691 83.3406 79.3964 83.3453C80.0177 83.3505 80.639 83.366 81.2604 83.3587C81.4734 83.3561 81.7109 83.2246 81.8929 83.2854C82.1464 83.3699 82.3797 83.3173 82.6207 83.3212C82.8803 83.3251 83.1403 83.297 83.3998 83.2957C83.7879 83.294 84.1759 83.3078 84.564 83.3078C84.8947 83.3078 85.2254 83.2966 85.5561 83.2927C85.6549 83.2914 85.7536 83.3009 85.8528 83.3018C86.2425 83.3044 86.6328 83.3065 87.0225 83.3069C87.4852 83.3074 87.9478 83.3138 88.4105 83.3044C88.9779 83.2923 89.5449 83.2612 90.1119 83.2474C90.5008 83.2379 90.891 83.2539 91.2795 83.2375C91.5369 83.2267 91.7922 83.1676 92.0496 83.1508C92.2177 83.14 92.3885 83.1689 92.5584 83.1741C92.7623 83.1802 92.968 83.1655 93.1706 83.1849C93.5789 83.2237 93.998 83.2358 94.39 83.3419C94.7207 83.4316 95.0273 83.6252 95.3291 83.7994C95.4692 83.8805 95.5701 84.028 95.6943 84.1388C95.7706 84.207 95.8792 84.2479 95.9366 84.3273C96.357 84.9104 96.6541 85.5478 96.7757 86.2636C96.8352 86.616 96.8817 86.9795 97.0102 87.3081C97.1189 87.5859 97.0512 87.8554 97.1003 88.1206C97.1503 88.3906 97.2702 88.6468 97.3539 88.9107C97.3983 89.0509 97.4556 89.1932 97.4638 89.3372C97.4858 89.7193 97.4836 90.1031 97.4918 90.4861C97.5048 91.07 97.5268 91.6535 97.5298 92.2374C97.5332 92.8752 97.5143 93.5131 97.516 94.1509C97.5168 94.4364 97.55 94.7219 97.5569 95.0078C97.5669 95.4283 97.5681 95.8492 97.5703 96.2701C97.5716 96.484 97.5634 96.6979 97.566 96.9118C97.5725 97.441 97.5876 97.9697 97.5897 98.4988C97.5914 98.9711 97.5742 99.4437 97.5768 99.9159C97.5785 100.226 97.607 100.535 97.6108 100.845C97.6126 100.994 97.5716 101.142 97.5729 101.291C97.5746 101.469 97.6151 101.647 97.6139 101.825C97.6113 102.243 97.5811 102.663 97.5863 103.081C97.5897 103.384 97.6746 103.691 97.6462 103.989C97.5979 104.493 97.7354 104.992 97.6251 105.5C97.5681 105.762 97.6686 106.055 97.6721 106.335C97.6768 106.714 97.6471 107.095 97.6501 107.474C97.6527 107.784 97.6884 108.094 97.6975 108.404C97.7074 108.742 97.7074 109.081 97.7057 109.418C97.704 109.744 97.6876 110.071 97.6884 110.397C97.6897 110.891 97.6975 111.384 97.7078 111.878C97.7182 112.37 97.7436 112.863 97.7471 113.355C97.7501 113.761 97.7251 114.168 97.7251 114.574C97.7251 114.724 97.735 114.883 97.7872 115.019C97.8902 115.289 97.9014 115.562 97.8713 115.839C97.8527 116.011 97.7937 116.179 97.7669 116.35C97.751 116.453 97.7803 116.564 97.7574 116.664C97.6988 116.918 97.5863 117.165 97.5608 117.421C97.5242 117.795 97.2836 118.085 97.2012 118.434C97.1215 118.772 96.9477 119.069 96.7368 119.327C96.5696 119.531 96.3087 119.655 96.1004 119.828C95.8284 120.055 95.5188 120.22 95.2213 120.405C94.9121 120.599 94.5767 120.715 94.2214 120.769C93.8635 120.825 93.5 120.847 93.1422 120.904C92.7765 120.96 92.4122 120.9 92.047 120.916C91.8814 120.922 91.7141 120.863 91.546 120.845C91.5171 120.842 91.4817 120.893 91.4602 120.911L91.4615 120.908ZM74.8419 99.3859C74.694 99.4454 74.5496 99.4705 74.4508 99.5507C74.2577 99.7076 74.0891 99.8957 73.9119 100.072C73.8683 100.115 73.836 100.17 73.7894 100.209C73.6308 100.342 73.46 100.46 73.31 100.601C73.1638 100.738 73.0465 100.906 72.9008 101.044C72.4813 101.439 72.0522 101.824 71.631 102.218C71.5241 102.318 71.4395 102.443 71.3326 102.543C71.2425 102.628 71.1222 102.681 71.0373 102.77C70.9359 102.875 70.8803 103.061 70.7648 103.105C70.6332 103.154 70.5155 103.223 70.4323 103.31C70.0538 103.704 69.567 103.988 69.2677 104.461C69.2574 104.477 69.2337 104.487 69.2143 104.495C68.8995 104.627 68.705 104.902 68.4739 105.132C68.301 105.303 68.1588 105.506 67.9811 105.672C67.8393 105.805 67.6551 105.877 67.5159 106.033C67.3149 106.258 67.0627 106.441 66.8178 106.623C66.4203 106.918 66.6436 107.341 66.5759 107.703C66.5587 107.796 66.5496 107.892 66.5526 107.986C66.5565 108.122 66.5858 108.257 66.5845 108.393C66.5811 108.77 66.5544 109.147 66.5608 109.523C66.5682 109.942 66.6173 110.359 66.6208 110.777C66.6233 111.098 66.5733 111.419 66.5651 111.74C66.5552 112.128 66.5643 112.517 66.5669 112.905C66.5677 113.008 66.5751 113.111 66.5789 113.215C66.5923 113.577 66.6285 113.94 66.6108 114.301C66.5966 114.589 66.5285 114.872 66.6475 115.153C66.6604 115.184 66.6591 115.222 66.6578 115.257C66.6376 115.866 66.6841 116.469 66.8269 117.063C66.8359 117.1 66.8622 117.149 66.8937 117.164C67.1015 117.256 67.3063 117.375 67.5254 117.42C67.9285 117.503 68.3411 117.541 68.749 117.6C68.903 117.622 69.0569 117.644 69.2082 117.679C69.3384 117.709 69.4643 117.79 69.5928 117.792C70.0007 117.797 70.4086 117.773 70.8165 117.764C71.2287 117.755 71.6409 117.745 72.0531 117.745C72.7141 117.744 73.3746 117.754 74.0356 117.755C74.5522 117.756 75.0692 117.749 75.5861 117.75C76.2109 117.751 76.8352 117.758 77.46 117.757C77.9399 117.756 78.4198 117.741 78.8997 117.744C79.2394 117.746 79.5788 117.777 79.9185 117.777C80.213 117.777 80.5071 117.743 80.802 117.737C80.9542 117.734 81.1073 117.773 81.2586 117.768C81.4488 117.762 81.6381 117.712 81.8282 117.711C82.1727 117.708 82.5172 117.73 82.8617 117.736C83.1127 117.741 83.3636 117.738 83.6146 117.738C83.9241 117.738 84.2341 117.738 84.5437 117.738C84.9279 117.739 85.3121 117.741 85.6967 117.742C85.9532 117.743 86.2093 117.75 86.4659 117.745C86.7052 117.739 86.9445 117.709 87.1834 117.71C87.8038 117.714 88.4243 117.732 89.0447 117.738C89.4983 117.743 89.9519 117.74 90.4055 117.737C90.9117 117.733 91.4179 117.721 91.9245 117.721C92.031 117.721 92.1393 117.752 92.244 117.779C92.4044 117.821 92.5601 117.891 92.7226 117.914C92.9688 117.95 93.2077 117.909 93.4569 117.859C93.782 117.794 94.0226 117.604 94.2977 117.465C94.3555 117.435 94.4128 117.365 94.4309 117.303C94.5392 116.928 94.7681 116.59 94.7703 116.183C94.7707 116.073 94.7716 115.963 94.7772 115.854C94.7957 115.49 94.7155 115.128 94.7832 114.762C94.8099 114.616 94.7638 114.458 94.7591 114.306C94.7513 114.066 94.7539 113.826 94.7457 113.586C94.7414 113.467 94.6948 113.344 94.7151 113.231C94.7595 112.984 94.7655 112.74 94.7276 112.494C94.7099 112.381 94.6241 112.196 94.6608 112.169C94.8246 112.051 94.7198 111.916 94.7194 111.794C94.7172 111.264 94.7306 110.733 94.6896 110.206C94.6655 109.891 94.6651 109.584 94.6905 109.271C94.7004 109.148 94.6776 109.006 94.6207 108.899C94.5551 108.776 94.4279 108.686 94.3404 108.572C94.0036 108.13 93.6742 107.683 93.3358 107.243C93.2961 107.191 93.2172 107.17 93.178 107.147C93.1685 107.072 93.184 106.985 93.1469 106.939C92.9844 106.74 92.8058 106.554 92.6347 106.362C92.3906 106.089 92.2436 105.744 91.9448 105.504C91.7352 105.335 91.5882 105.085 91.4252 104.863C91.2489 104.623 91.0786 104.378 90.9195 104.127C90.7306 103.829 90.6108 103.834 90.3947 104.109C90.1554 104.412 89.8834 104.69 89.6182 104.973C89.4449 105.158 89.2224 105.307 89.0874 105.515C88.8947 105.812 88.5627 105.995 88.4363 106.34C88.4333 106.348 88.3876 106.335 88.3768 106.346C88.2199 106.512 88.0655 106.68 87.9108 106.848C87.9263 106.861 87.9418 106.875 87.9569 106.889C87.9082 106.868 87.859 106.847 87.8008 106.822C87.8073 106.876 87.828 106.926 87.8124 106.942C87.6038 107.163 87.3869 107.375 87.1803 107.597C87.1178 107.664 87.0941 107.769 87.0294 107.832C86.7811 108.074 86.5202 108.304 86.2693 108.545C85.9653 108.836 85.6669 109.134 85.366 109.428C85.162 109.627 84.9326 109.75 84.6545 109.665C84.7158 109.564 84.7822 109.456 84.874 109.305C84.523 109.388 84.7507 109.083 84.611 109.037C84.2807 109.375 84.2001 109.397 83.8582 109.28C83.7206 109.233 83.5822 109.19 83.4533 109.147C83.411 109.079 83.3757 109.004 83.3235 108.943C83.2843 108.896 83.1791 108.865 83.1812 108.832C83.1929 108.653 83.0441 108.599 82.9557 108.496C82.7733 108.284 82.6056 108.059 82.4198 107.849C82.2926 107.706 82.1192 107.613 82.0399 107.414C82.0041 107.324 81.8571 107.278 81.729 107.191C81.7226 107.173 81.7174 107.086 81.6717 107.034C81.3875 106.711 81.0931 106.397 80.805 106.078C80.4894 105.728 80.1811 105.371 79.8595 105.027C79.7655 104.926 79.5883 104.881 79.5344 104.77C79.4322 104.558 79.2921 104.401 79.1265 104.236C78.8385 103.949 78.6039 103.608 78.3413 103.295C78.3236 103.274 78.2585 103.292 78.2077 103.292C78.0516 103.065 77.9028 102.782 77.6902 102.559C77.4966 102.356 77.2785 102.177 77.0987 101.955C76.8641 101.665 76.5627 101.43 76.3618 101.108C76.3519 101.092 76.3234 101.089 76.3075 101.076C76.2092 100.991 76.1009 100.914 76.0164 100.816C75.8323 100.603 75.6706 100.369 75.4809 100.161C75.2671 99.9263 74.9458 99.7874 74.8411 99.3851L74.8419 99.3859ZM90.4547 100.14C90.6672 100.199 90.844 100.258 91.0251 100.295C91.1407 100.32 91.2752 100.284 91.3787 100.328C91.5658 100.408 91.7646 100.498 91.9073 100.637C92.1944 100.917 92.4575 101.224 92.711 101.537C92.8679 101.73 92.9736 101.965 93.1288 102.16C93.466 102.585 93.8217 102.995 94.1658 103.413C94.3046 103.583 94.4335 103.761 94.5672 103.934C94.5853 103.931 94.6038 103.926 94.6219 103.922C94.6314 103.851 94.6495 103.78 94.6487 103.709C94.6422 103.275 94.6271 102.839 94.6237 102.405C94.6211 102.11 94.6396 101.816 94.634 101.522C94.6319 101.413 94.565 101.305 94.5672 101.197C94.5711 100.995 94.6202 100.793 94.6207 100.591C94.6215 100.242 94.5956 99.8922 94.5896 99.5429C94.5836 99.1832 94.5896 98.8231 94.5853 98.4635C94.5849 98.4139 94.5271 98.3488 94.5443 98.3181C94.6448 98.1387 94.612 97.9645 94.5586 97.7829C94.5305 97.6876 94.4805 97.5268 94.5189 97.4966C94.6319 97.4086 94.5793 97.3133 94.5806 97.2223C94.5857 96.8596 94.6215 96.4922 94.5711 96.1368C94.543 95.9372 94.6409 95.7474 94.5758 95.571C94.5008 95.3666 94.553 95.1553 94.534 94.9556C94.5029 94.6257 94.5262 94.2781 94.534 93.9396C94.5465 93.3721 94.4896 92.8041 94.5396 92.2374C94.5499 92.1218 94.5318 92.0037 94.5323 91.8868C94.5336 91.5306 94.5435 91.1739 94.5387 90.8177C94.5353 90.59 94.5728 90.3334 94.4818 90.1424C94.3632 89.8931 94.4232 89.5761 94.1843 89.3799C94.1783 89.3752 94.1852 89.3553 94.1852 89.3424C94.1822 89.1375 94.1847 88.9327 94.1735 88.7283C94.1584 88.4449 94.1347 88.1625 94.111 87.8796C94.1045 87.7998 94.092 87.7191 94.0705 87.6424C94.0036 87.4069 93.8816 87.1753 93.8726 86.9386C93.8601 86.6099 93.6203 86.4681 93.4535 86.2576C93.3526 86.1304 93.2685 86.2498 93.1818 86.2382C93.0413 86.2188 92.9085 86.142 92.7679 86.1231C92.6873 86.1118 92.598 86.1666 92.5122 86.1912C92.4682 86.1601 92.4122 86.1519 92.3566 86.1537C92.3242 86.1545 92.2923 86.1795 92.2596 86.1808C92.0418 86.189 91.8236 86.1882 91.6063 86.2007C91.2623 86.2205 90.9177 86.2749 90.575 86.2641C90.321 86.2559 90.0761 86.3145 89.8088 86.2753C89.5462 86.2369 89.2452 86.2317 88.9529 86.2848C88.6187 86.3456 88.2635 86.2891 87.9172 86.2835C87.624 86.2787 87.3313 86.2688 87.0381 86.2714C86.9307 86.2723 86.8216 86.3236 86.7168 86.3141C86.2749 86.2731 85.8351 86.2507 85.3983 86.3577C85.3755 86.3633 85.3492 86.3555 85.325 86.3525C85.165 86.3318 85.0055 86.302 84.8447 86.2921C84.6843 86.2822 84.5226 86.2843 84.3626 86.2964C84.298 86.3012 84.2363 86.3469 84.2242 86.352C83.991 86.3352 83.7944 86.3163 83.5977 86.3094C83.4533 86.3042 83.308 86.3244 83.164 86.3163C83.0389 86.3089 82.9139 86.252 82.7919 86.2611C82.5651 86.2779 82.3417 86.3482 82.1154 86.3572C81.7204 86.3732 81.3246 86.3611 80.9292 86.3572C80.6843 86.3551 80.439 86.346 80.1941 86.3421C79.9828 86.3387 79.7715 86.3313 79.5602 86.3382C79.3744 86.3443 79.189 86.3831 79.004 86.3809C78.6914 86.3771 78.3793 86.3408 78.0667 86.3395C77.6303 86.3378 77.1935 86.3486 76.7576 86.3676C76.5912 86.3749 76.4066 86.283 76.2687 86.4435C76.2687 86.4154 76.2687 86.3749 76.2687 86.3749C76.0768 86.3663 75.8815 86.3361 75.6943 86.3628C75.5659 86.3814 75.4408 86.3663 75.3244 86.3771C74.9833 86.4085 74.6298 86.2787 74.2969 86.4508C74.2435 86.4784 74.1512 86.4344 74.0783 86.4185C74.0305 86.4081 73.9843 86.374 73.9378 86.3745C73.476 86.3805 73.0142 86.3883 72.5524 86.4021C72.2652 86.4107 71.9785 86.4392 71.6913 86.4443C71.4753 86.4482 71.2593 86.4241 71.0433 86.4254C70.979 86.4254 70.8928 86.509 70.8549 86.487C70.6143 86.3512 70.3638 86.4176 70.1184 86.434C70.0193 86.4409 69.9266 86.5241 69.8265 86.5358C69.6079 86.5612 69.3867 86.5729 69.1664 86.5711C69.0491 86.5703 68.9318 86.5306 68.8292 86.5112C68.7732 86.5504 68.715 86.6259 68.6662 86.6203C68.2773 86.5763 67.9074 86.6306 67.5405 86.7643C67.2973 86.8527 67.1304 86.9847 67.0718 87.2486C67.0248 87.4599 66.8484 87.6406 66.9221 87.8817C66.9256 87.8938 66.92 87.9115 66.9131 87.9231C66.644 88.3725 66.6384 88.8784 66.6074 89.3773C66.5958 89.5645 66.6139 89.7529 66.6083 89.9405C66.5988 90.2437 66.5738 90.546 66.5686 90.8492C66.5656 91.0321 66.5992 91.2158 66.597 91.3991C66.5927 91.7859 66.5673 92.1727 66.566 92.5596C66.5651 92.8369 66.6018 93.1146 66.6001 93.3919C66.5979 93.7705 66.5647 94.1487 66.5634 94.527C66.5621 94.9785 66.5884 95.4296 66.5876 95.8811C66.5867 96.2761 66.5544 96.6707 66.5552 97.0658C66.5561 97.5647 66.5811 98.0641 66.5876 98.5631C66.5945 99.0715 66.5966 99.58 66.5914 100.088C66.5867 100.529 66.5673 100.97 66.5557 101.412C66.5522 101.547 66.519 101.694 66.5604 101.815C66.6371 102.04 66.6113 102.249 66.563 102.469C66.5401 102.572 66.5591 102.685 66.5591 102.85C66.6402 102.774 66.679 102.739 66.7169 102.703C67.0045 102.428 67.2912 102.153 67.5797 101.879C67.6426 101.82 67.7159 101.77 67.778 101.71C68.0531 101.438 68.3183 101.156 68.6011 100.893C68.9107 100.606 69.2436 100.343 69.5523 100.055C69.7778 99.8448 69.9714 99.5998 70.196 99.3881C70.666 98.9448 71.1507 98.5169 71.6219 98.0749C72.0863 97.6393 72.5352 97.1865 73.0043 96.7557C73.2211 96.5565 73.4855 96.4085 73.6985 96.2063C73.8791 96.0351 74.124 96.0709 74.315 95.9514C74.4728 95.8526 74.5966 95.9436 74.7018 96.054C74.7725 96.1282 74.829 96.2166 74.8868 96.2925C74.9596 96.274 75.0174 96.2528 75.0765 96.2464C75.133 96.2403 75.2071 96.2744 75.2459 96.249C75.4193 96.1343 75.4848 96.1373 75.6413 96.258C75.6853 96.2917 75.7681 96.2748 75.8772 96.2852C75.9625 96.3395 76.1216 96.4034 76.2299 96.5163C76.4756 96.7734 76.6921 97.058 76.9292 97.3241C77.1707 97.5949 77.4251 97.8545 77.6687 98.1232C78.0882 98.5864 78.5052 99.0521 78.9212 99.5183C79.2451 99.881 79.5641 100.248 79.8897 100.609C80.0802 100.82 80.2816 101.022 80.4748 101.231C80.5748 101.34 80.664 101.459 80.7654 101.566C80.9706 101.784 81.1909 101.989 81.3863 102.216C81.6398 102.51 81.8679 102.826 82.1192 103.122C82.3555 103.4 82.603 103.67 82.8557 103.934C83.1183 104.207 83.3964 104.466 83.6607 104.739C83.8172 104.9 83.9867 105.059 84.1022 105.248C84.2609 105.508 84.4605 105.714 84.6752 105.89C84.7572 105.797 84.8162 105.721 84.8844 105.654C85.0521 105.489 85.2327 105.335 85.3923 105.162C85.5997 104.937 85.7855 104.691 85.9916 104.465C86.3887 104.03 86.7919 103.601 87.1963 103.172C87.4119 102.943 87.6408 102.727 87.8538 102.496C88.16 102.165 88.4562 101.826 88.7584 101.491C88.921 101.312 89.084 101.133 89.253 100.96C89.4513 100.756 89.6354 100.529 89.8657 100.37C90.052 100.242 90.2973 100.198 90.4542 100.141L90.4547 100.14Z"
                  fill="#B8AE91"/>
            <path d="M89.5489 92.6846C89.5226 92.7687 89.4829 92.829 89.4903 92.8834C89.5131 93.0628 89.5838 93.2405 89.5795 93.4177C89.5718 93.739 89.5278 94.0598 89.4885 94.3794C89.4769 94.4764 89.4157 94.5674 89.4045 94.6645C89.345 95.1708 89.0681 95.5852 88.8689 96.0354C88.7814 96.2329 88.6102 96.3576 88.5408 96.578C88.4727 96.7931 88.2067 96.9467 88.0238 97.1235C87.9536 97.1912 87.8268 97.2067 87.8449 97.3525C87.8479 97.3771 87.7617 97.4241 87.7104 97.4422C87.5543 97.4961 87.4077 97.5487 87.3586 97.7376C87.3486 97.7764 87.2615 97.8006 87.2063 97.8208C87.096 97.8614 86.9727 97.8765 86.8735 97.9343C86.6626 98.0576 86.435 98.1223 86.2095 98.2025C86.0111 98.2732 85.8085 98.3733 85.5994 98.4375C85.4398 98.4863 85.2769 98.529 85.1126 98.5561C84.6685 98.629 84.2257 98.6135 83.7768 98.5669C83.3396 98.5216 82.9343 98.3819 82.5152 98.2767C82.0168 98.1516 81.6718 97.7704 81.2122 97.5914C81.1389 97.5629 81.0828 97.4823 81.0264 97.4189C80.6435 96.9885 80.2546 96.5629 79.8863 96.1204C79.7669 95.9768 79.7065 95.7875 79.6621 95.5981C79.6044 95.3532 79.5578 95.0966 79.4461 94.8753C79.3288 94.6425 79.3275 94.4023 79.2926 94.1616C79.2918 94.1547 79.2935 94.1474 79.2926 94.1405C79.2253 93.5251 79.2154 92.961 79.431 92.3628C79.4703 92.2542 79.4086 92.1088 79.447 91.9997C79.4966 91.8591 79.6 91.738 79.6845 91.6017H79.4914C79.5397 91.5711 79.5539 91.562 79.5686 91.5534C79.6199 91.5232 79.6923 91.5059 79.7195 91.4611C79.8428 91.258 79.9454 91.0423 80.0704 90.8405C80.3938 90.3183 80.8272 89.9051 81.3122 89.5295C81.5317 89.3596 81.799 89.2677 81.99 89.0866C82.1659 88.9197 82.3708 88.8925 82.5674 88.8071C82.8515 88.6838 83.1693 88.6665 83.4383 88.5449C83.6638 88.4431 83.8842 88.4828 84.1019 88.4328C84.3304 88.3806 84.5831 88.4186 84.8237 88.4354C85.0802 88.4531 85.342 88.4669 85.5899 88.5285C85.8288 88.5881 86.0543 88.7032 86.2836 88.7994C86.5419 88.9076 86.8131 88.9965 87.0503 89.1409C87.3568 89.3277 87.6479 89.545 87.9221 89.777C88.3179 90.1121 88.6223 90.524 88.8922 90.9712C89.2014 91.4839 89.3924 92.0282 89.4885 92.613C89.4946 92.6496 89.545 92.6794 89.5506 92.6854L89.5489 92.6846ZM82.2444 93.61C82.2259 93.6148 82.2073 93.62 82.1888 93.6247C82.2582 93.8589 82.319 94.0965 82.3988 94.3272C82.6178 94.9581 83.1042 95.3088 83.7095 95.4946C84.2765 95.6689 84.8396 95.618 85.3717 95.3325C86.0918 94.9456 86.5126 94.3574 86.5622 93.5328C86.6087 92.7566 86.0702 91.8803 85.3665 91.6383C84.7353 91.4214 84.089 91.4193 83.4707 91.7104C83.2697 91.8052 83.0611 91.9169 82.9063 92.0713C82.4867 92.4909 82.2336 92.9968 82.2444 93.61Z"
                  fill="#B8AE91"/>
        </g>
        <path d="M255.664 208H163C157.477 208 153 212.477 153 218V372.055C153 377.578 157.477 382.055 163 382.055H255.664C261.187 382.055 265.664 377.578 265.664 372.055V218C265.664 212.477 261.187 208 255.664 208Z"
              fill="#E5D9B6" fill-opacity="0.5"/>
        <mask id="mask1_3407_10664" style="mask-type:luminance" maskUnits="userSpaceOnUse" x="192" y="276" width="35"
              height="38">
            <path d="M226.539 276.148H192.133V313.928H226.539V276.148Z" fill="white"/>
        </mask>
        <g mask="url(#mask1_3407_10664)">
            <path d="M220.114 313.908C220.056 313.846 220.008 313.795 219.978 313.764C219.828 313.772 219.7 313.779 219.559 313.787C219.535 313.717 219.167 313.709 218.948 313.744C218.718 313.779 218.478 313.746 218.242 313.746C218.011 313.746 217.78 313.751 217.549 313.75C217.32 313.75 217.091 313.742 216.861 313.742C216.611 313.741 216.36 313.746 216.109 313.747C215.877 313.747 215.644 313.747 215.409 313.747C215.407 313.767 215.403 313.798 215.399 313.832C215.311 313.753 215.243 313.697 215.101 313.731C214.935 313.77 214.75 313.725 214.573 313.729C214.258 313.737 213.938 313.797 213.629 313.759C213.275 313.716 212.926 313.785 212.57 313.725C212.273 313.674 211.958 313.729 211.652 313.743C211.607 313.745 211.564 313.778 211.546 313.786C211.474 313.767 211.412 313.737 211.349 313.737C211.132 313.737 210.908 313.719 210.698 313.761C210.362 313.828 210.042 313.706 209.71 313.728C209.327 313.753 208.942 313.739 208.558 313.737C208.283 313.735 208.01 313.717 207.736 313.721C207.405 313.725 207.072 313.733 206.743 313.764C206.531 313.784 206.331 313.737 206.125 313.72C206.097 313.718 206.07 313.707 206.043 313.709C205.804 313.73 205.565 313.754 205.325 313.772C205.306 313.773 205.283 313.739 205.257 313.718C205.238 313.767 205.219 313.815 205.216 313.825C205.168 313.806 205.133 313.781 205.097 313.779C204.864 313.767 204.63 313.754 204.397 313.753C204.22 313.752 204.044 313.771 203.867 313.775C203.75 313.777 203.633 313.764 203.516 313.766C203.443 313.768 203.371 313.794 203.298 313.793C203.189 313.792 203.08 313.779 202.972 313.767C202.946 313.765 202.922 313.736 202.897 313.737C202.526 313.749 202.142 313.709 201.791 313.799C201.59 313.85 201.478 313.726 201.309 313.732C200.379 313.766 199.447 313.765 198.516 313.762C198.094 313.761 197.671 313.743 197.25 313.707C196.978 313.684 196.708 313.622 196.441 313.565C196.219 313.518 196.003 313.42 195.781 313.406C195.629 313.396 195.49 313.432 195.439 313.332C194.707 313.174 194.105 312.826 193.47 312.542C193.508 312.493 193.532 312.462 193.519 312.479C193.384 312.355 193.255 312.248 193.139 312.128C193.054 312.039 192.997 311.923 192.909 311.837C192.754 311.684 192.72 311.493 192.683 311.291C192.651 311.12 192.567 310.959 192.529 310.789C192.487 310.601 192.47 310.409 192.446 310.218C192.419 310.007 192.386 309.796 192.375 309.584C192.364 309.381 192.223 309.194 192.307 308.978C192.32 308.943 192.288 308.883 192.265 308.841C192.12 308.582 192.129 308.295 192.136 308.015C192.138 307.898 192.247 307.777 192.231 307.668C192.135 306.994 192.293 306.32 192.2 305.641C192.146 305.244 192.235 304.823 192.217 304.407C192.192 303.868 192.228 303.326 192.228 302.785C192.227 302.334 192.207 301.883 192.204 301.432C192.202 301.245 192.267 301.046 192.22 300.874C192.155 300.636 192.273 300.416 192.216 300.175C192.161 299.944 192.223 299.684 192.236 299.437C192.237 299.416 192.258 299.396 192.28 299.357C192.223 299.368 192.197 299.373 192.17 299.378C192.167 299.375 192.163 299.37 192.159 299.365C192.307 299.264 192.175 299.133 192.198 299.032C192.289 298.619 192.204 298.209 192.226 297.798C192.252 297.31 192.245 296.819 192.245 296.33C192.245 295.968 192.228 295.607 192.227 295.246C192.224 294.49 192.226 293.734 192.227 292.978C192.227 292.73 192.259 292.478 192.229 292.234C192.202 292.026 192.288 291.815 192.226 291.625C192.099 291.233 192.273 290.858 192.245 290.473C192.222 290.133 192.274 289.783 192.216 289.45C192.15 289.075 192.279 288.717 192.236 288.348C192.2 288.033 192.201 287.714 192.192 287.397C192.189 287.293 192.217 287.188 192.215 287.085C192.211 286.9 192.192 286.715 192.186 286.53C192.183 286.435 192.197 286.338 192.2 286.242C192.208 285.969 192.259 285.686 192.204 285.425C192.171 285.268 192.239 285.146 192.231 285.003C192.205 284.492 192.239 283.978 192.228 283.466C192.221 283.158 192.153 282.851 192.152 282.543C192.152 282.247 192.19 281.949 192.238 281.656C192.281 281.397 192.364 281.145 192.424 280.889C192.494 280.585 192.544 280.276 192.63 279.977C192.688 279.771 192.837 279.585 192.863 279.38C192.888 279.186 192.972 279.035 193.031 278.863C193.147 278.531 193.368 278.27 193.538 277.975C193.739 277.628 194.043 277.412 194.407 277.261C194.615 277.174 194.804 277.044 195.012 276.955C195.14 276.9 195.304 276.916 195.421 276.847C195.598 276.743 195.776 276.716 195.975 276.705C196.194 276.692 196.411 276.603 196.628 276.609C196.937 276.619 197.219 276.533 197.508 276.456C197.556 276.443 197.603 276.418 197.65 276.417C198.161 276.404 198.672 276.39 199.183 276.388C199.457 276.386 199.73 276.41 200.004 276.418C200.095 276.42 200.187 276.404 200.278 276.402C200.723 276.392 201.168 276.382 201.612 276.378C201.869 276.376 202.126 276.384 202.384 276.385C202.815 276.385 203.246 276.381 203.677 276.382C203.991 276.383 204.304 276.395 204.618 276.392C204.842 276.39 205.065 276.369 205.289 276.362C205.682 276.35 206.074 276.338 206.467 276.336C206.994 276.334 207.521 276.341 208.049 276.345C208.67 276.351 209.291 276.366 209.913 276.359C210.126 276.356 210.363 276.225 210.545 276.285C210.799 276.37 211.032 276.317 211.273 276.321C211.533 276.325 211.793 276.297 212.052 276.296C212.44 276.294 212.828 276.308 213.216 276.308C213.547 276.308 213.878 276.297 214.208 276.293C214.307 276.291 214.406 276.301 214.505 276.302C214.895 276.304 215.285 276.307 215.675 276.307C216.138 276.307 216.6 276.314 217.063 276.304C217.63 276.292 218.197 276.261 218.764 276.247C219.153 276.238 219.543 276.254 219.932 276.238C220.189 276.227 220.445 276.168 220.702 276.151C220.87 276.14 221.041 276.169 221.211 276.174C221.415 276.18 221.62 276.166 221.823 276.185C222.231 276.224 222.65 276.236 223.042 276.342C223.373 276.432 223.68 276.625 223.981 276.799C224.122 276.881 224.222 277.028 224.347 277.139C224.423 277.207 224.532 277.248 224.589 277.327C225.009 277.91 225.306 278.548 225.428 279.264C225.488 279.616 225.534 279.98 225.663 280.308C225.771 280.586 225.704 280.855 225.753 281.121C225.803 281.391 225.923 281.647 226.006 281.911C226.051 282.051 226.108 282.193 226.116 282.337C226.138 282.719 226.136 283.103 226.144 283.486C226.157 284.07 226.179 284.654 226.182 285.237C226.186 285.875 226.167 286.513 226.168 287.151C226.169 287.436 226.202 287.722 226.209 288.008C226.219 288.428 226.22 288.849 226.223 289.27C226.224 289.484 226.216 289.698 226.218 289.912C226.225 290.441 226.24 290.97 226.242 291.499C226.244 291.971 226.227 292.444 226.229 292.916C226.231 293.226 226.259 293.535 226.263 293.845C226.265 293.994 226.224 294.142 226.225 294.291C226.227 294.469 226.267 294.647 226.266 294.825C226.264 295.243 226.233 295.663 226.239 296.081C226.242 296.384 226.327 296.691 226.299 296.989C226.25 297.493 226.388 297.992 226.277 298.5C226.22 298.762 226.321 299.055 226.324 299.335C226.329 299.714 226.299 300.095 226.302 300.474C226.305 300.784 226.341 301.094 226.35 301.404C226.36 301.742 226.36 302.081 226.358 302.418C226.356 302.744 226.34 303.071 226.341 303.397C226.342 303.891 226.35 304.384 226.36 304.878C226.371 305.37 226.396 305.863 226.399 306.355C226.402 306.761 226.377 307.168 226.377 307.574C226.377 307.724 226.387 307.883 226.44 308.019C226.543 308.289 226.554 308.562 226.524 308.839C226.505 309.011 226.446 309.179 226.419 309.35C226.403 309.453 226.433 309.564 226.41 309.664C226.351 309.918 226.239 310.165 226.213 310.421C226.177 310.795 225.936 311.085 225.854 311.434C225.774 311.772 225.6 312.069 225.389 312.327C225.222 312.531 224.961 312.655 224.753 312.828C224.481 313.055 224.171 313.22 223.874 313.405C223.564 313.599 223.229 313.715 222.874 313.769C222.516 313.825 222.152 313.847 221.795 313.904C221.429 313.96 221.065 313.9 220.699 313.916C220.534 313.922 220.366 313.863 220.198 313.845C220.169 313.842 220.134 313.893 220.113 313.911L220.114 313.908ZM203.494 292.386C203.346 292.445 203.202 292.471 203.103 292.551C202.91 292.708 202.741 292.896 202.564 293.072C202.521 293.115 202.488 293.17 202.442 293.209C202.283 293.342 202.112 293.46 201.962 293.601C201.816 293.738 201.699 293.906 201.553 294.044C201.134 294.439 200.705 294.824 200.283 295.218C200.176 295.318 200.092 295.443 199.985 295.543C199.895 295.628 199.775 295.681 199.69 295.77C199.588 295.875 199.533 296.061 199.417 296.105C199.286 296.154 199.168 296.223 199.085 296.31C198.706 296.704 198.219 296.988 197.92 297.461C197.91 297.477 197.886 297.487 197.867 297.495C197.552 297.627 197.357 297.902 197.126 298.132C196.953 298.303 196.811 298.506 196.633 298.672C196.492 298.805 196.307 298.877 196.168 299.033C195.967 299.258 195.715 299.441 195.47 299.623C195.073 299.918 195.296 300.341 195.228 300.703C195.211 300.796 195.202 300.892 195.205 300.986C195.209 301.122 195.238 301.257 195.237 301.393C195.233 301.77 195.207 302.147 195.213 302.523C195.221 302.942 195.27 303.359 195.273 303.777C195.276 304.098 195.226 304.419 195.217 304.74C195.208 305.128 195.217 305.517 195.219 305.905C195.22 306.008 195.227 306.111 195.231 306.215C195.245 306.577 195.281 306.94 195.263 307.301C195.249 307.589 195.181 307.872 195.3 308.153C195.313 308.184 195.311 308.222 195.31 308.257C195.29 308.866 195.336 309.469 195.479 310.063C195.488 310.1 195.515 310.149 195.546 310.164C195.754 310.256 195.959 310.375 196.178 310.42C196.581 310.503 196.993 310.541 197.401 310.6C197.555 310.622 197.709 310.644 197.861 310.679C197.991 310.709 198.117 310.79 198.245 310.792C198.653 310.797 199.061 310.773 199.469 310.764C199.881 310.755 200.293 310.745 200.705 310.745C201.366 310.744 202.027 310.754 202.688 310.755C203.205 310.756 203.722 310.749 204.238 310.75C204.863 310.751 205.488 310.758 206.112 310.757C206.592 310.756 207.072 310.741 207.552 310.744C207.892 310.746 208.231 310.777 208.571 310.777C208.865 310.777 209.159 310.743 209.454 310.737C209.607 310.734 209.76 310.773 209.911 310.768C210.101 310.762 210.29 310.712 210.481 310.711C210.825 310.708 211.17 310.73 211.514 310.736C211.765 310.741 212.016 310.738 212.267 310.738C212.576 310.738 212.886 310.738 213.196 310.738C213.58 310.739 213.964 310.741 214.349 310.742C214.606 310.743 214.862 310.75 215.118 310.745C215.358 310.739 215.597 310.709 215.836 310.71C216.456 310.714 217.077 310.732 217.697 310.738C218.151 310.743 218.604 310.74 219.058 310.737C219.564 310.733 220.07 310.721 220.577 310.721C220.683 310.721 220.792 310.752 220.896 310.779C221.057 310.821 221.212 310.891 221.375 310.914C221.621 310.95 221.86 310.909 222.109 310.859C222.434 310.794 222.675 310.604 222.95 310.465C223.008 310.435 223.065 310.365 223.083 310.303C223.192 309.928 223.42 309.59 223.423 309.183C223.423 309.073 223.424 308.963 223.43 308.854C223.448 308.49 223.368 308.128 223.436 307.762C223.462 307.616 223.416 307.458 223.411 307.306C223.404 307.066 223.406 306.826 223.398 306.586C223.394 306.467 223.347 306.344 223.367 306.231C223.412 305.984 223.418 305.74 223.38 305.494C223.362 305.381 223.276 305.196 223.313 305.169C223.477 305.051 223.372 304.916 223.372 304.794C223.37 304.264 223.383 303.733 223.342 303.206C223.318 302.891 223.317 302.584 223.343 302.271C223.353 302.148 223.33 302.006 223.273 301.899C223.207 301.776 223.08 301.686 222.993 301.572C222.656 301.13 222.327 300.683 221.988 300.243C221.948 300.191 221.87 300.17 221.83 300.147C221.821 300.072 221.836 299.985 221.799 299.939C221.637 299.74 221.458 299.554 221.287 299.362C221.043 299.089 220.896 298.744 220.597 298.504C220.388 298.335 220.241 298.085 220.078 297.863C219.901 297.623 219.731 297.378 219.572 297.127C219.383 296.829 219.263 296.834 219.047 297.109C218.808 297.412 218.536 297.69 218.271 297.973C218.097 298.158 217.875 298.307 217.74 298.515C217.547 298.812 217.215 298.995 217.089 299.34C217.086 299.348 217.04 299.335 217.029 299.346C216.872 299.512 216.718 299.68 216.563 299.848C216.579 299.861 216.594 299.875 216.609 299.889C216.561 299.868 216.511 299.847 216.453 299.822C216.46 299.876 216.48 299.926 216.465 299.942C216.256 300.163 216.039 300.375 215.833 300.597C215.77 300.664 215.746 300.769 215.682 300.832C215.433 301.074 215.173 301.304 214.922 301.545C214.618 301.836 214.319 302.134 214.018 302.428C213.814 302.627 213.585 302.75 213.307 302.665C213.368 302.564 213.435 302.456 213.526 302.305C213.175 302.388 213.403 302.083 213.263 302.037C212.933 302.375 212.852 302.397 212.511 302.28C212.373 302.233 212.235 302.19 212.106 302.147C212.063 302.079 212.028 302.004 211.976 301.943C211.937 301.896 211.831 301.865 211.834 301.832C211.845 301.653 211.696 301.599 211.608 301.496C211.426 301.284 211.258 301.059 211.072 300.849C210.945 300.706 210.772 300.613 210.692 300.414C210.656 300.324 210.509 300.278 210.381 300.191C210.375 300.173 210.37 300.086 210.324 300.034C210.04 299.711 209.745 299.397 209.457 299.078C209.142 298.728 208.833 298.371 208.512 298.027C208.418 297.926 208.241 297.881 208.187 297.77C208.085 297.558 207.944 297.401 207.779 297.236C207.491 296.949 207.256 296.608 206.994 296.295C206.976 296.274 206.911 296.292 206.86 296.292C206.704 296.065 206.555 295.782 206.343 295.559C206.149 295.356 205.931 295.177 205.751 294.955C205.516 294.665 205.215 294.43 205.014 294.108C205.004 294.092 204.976 294.089 204.96 294.076C204.862 293.991 204.753 293.914 204.669 293.816C204.485 293.603 204.323 293.369 204.133 293.161C203.919 292.926 203.598 292.787 203.493 292.385L203.494 292.386ZM219.107 293.14C219.32 293.199 219.496 293.258 219.677 293.295C219.793 293.32 219.928 293.284 220.031 293.328C220.218 293.408 220.417 293.498 220.56 293.637C220.847 293.917 221.11 294.224 221.363 294.537C221.52 294.73 221.626 294.965 221.781 295.16C222.118 295.585 222.474 295.995 222.818 296.413C222.957 296.583 223.086 296.761 223.22 296.934C223.238 296.931 223.256 296.926 223.274 296.922C223.284 296.851 223.302 296.78 223.301 296.709C223.295 296.275 223.279 295.839 223.276 295.405C223.273 295.11 223.292 294.816 223.286 294.522C223.284 294.413 223.217 294.305 223.22 294.197C223.223 293.995 223.273 293.793 223.273 293.591C223.274 293.242 223.248 292.892 223.242 292.543C223.236 292.183 223.242 291.823 223.238 291.464C223.237 291.414 223.179 291.349 223.197 291.318C223.297 291.139 223.264 290.965 223.211 290.783C223.183 290.688 223.133 290.527 223.171 290.497C223.284 290.409 223.232 290.313 223.233 290.222C223.238 289.86 223.274 289.492 223.223 289.137C223.195 288.937 223.293 288.747 223.228 288.571C223.153 288.367 223.205 288.155 223.186 287.956C223.155 287.626 223.179 287.278 223.186 286.94C223.199 286.372 223.142 285.804 223.192 285.237C223.202 285.122 223.184 285.004 223.185 284.887C223.186 284.531 223.196 284.174 223.191 283.818C223.188 283.59 223.225 283.333 223.134 283.142C223.016 282.893 223.076 282.576 222.837 282.38C222.831 282.375 222.838 282.355 222.838 282.342C222.835 282.138 222.837 281.933 222.826 281.728C222.811 281.445 222.787 281.163 222.763 280.88C222.757 280.8 222.744 280.719 222.723 280.642C222.656 280.407 222.534 280.175 222.525 279.939C222.512 279.61 222.273 279.468 222.106 279.258C222.005 279.13 221.921 279.25 221.834 279.238C221.694 279.219 221.561 279.142 221.42 279.123C221.34 279.112 221.25 279.167 221.165 279.191C221.121 279.16 221.065 279.152 221.009 279.154C220.977 279.155 220.945 279.18 220.912 279.181C220.694 279.189 220.476 279.188 220.259 279.201C219.915 279.221 219.57 279.275 219.227 279.264C218.973 279.256 218.728 279.315 218.461 279.275C218.199 279.237 217.898 279.232 217.605 279.285C217.271 279.346 216.916 279.289 216.57 279.284C216.276 279.279 215.984 279.269 215.69 279.271C215.583 279.272 215.474 279.324 215.369 279.314C214.927 279.273 214.487 279.251 214.051 279.358C214.028 279.363 214.002 279.356 213.977 279.353C213.817 279.332 213.658 279.302 213.497 279.292C213.337 279.282 213.175 279.284 213.015 279.296C212.95 279.301 212.889 279.347 212.877 279.352C212.643 279.335 212.447 279.316 212.25 279.309C212.106 279.304 211.96 279.324 211.816 279.316C211.691 279.309 211.566 279.252 211.444 279.261C211.217 279.278 210.994 279.348 210.768 279.357C210.373 279.373 209.977 279.361 209.582 279.357C209.337 279.355 209.091 279.346 208.846 279.342C208.635 279.339 208.424 279.331 208.213 279.338C208.027 279.344 207.841 279.383 207.656 279.381C207.344 279.377 207.032 279.341 206.719 279.34C206.283 279.338 205.846 279.349 205.41 279.368C205.244 279.375 205.059 279.283 204.921 279.444C204.921 279.415 204.921 279.375 204.921 279.375C204.729 279.366 204.534 279.336 204.347 279.363C204.218 279.381 204.093 279.366 203.977 279.377C203.636 279.409 203.282 279.279 202.949 279.451C202.896 279.478 202.804 279.434 202.731 279.419C202.683 279.408 202.637 279.374 202.59 279.375C202.128 279.381 201.667 279.388 201.205 279.402C200.918 279.411 200.631 279.439 200.344 279.444C200.128 279.448 199.912 279.424 199.696 279.425C199.631 279.425 199.545 279.509 199.507 279.487C199.267 279.351 199.016 279.418 198.771 279.434C198.672 279.441 198.579 279.524 198.479 279.536C198.26 279.561 198.039 279.573 197.819 279.571C197.701 279.57 197.584 279.531 197.482 279.511C197.426 279.55 197.367 279.626 197.319 279.62C196.93 279.576 196.56 279.631 196.193 279.764C195.95 279.853 195.783 279.985 195.724 280.249C195.677 280.46 195.501 280.641 195.574 280.882C195.578 280.894 195.572 280.912 195.565 280.923C195.296 281.373 195.291 281.878 195.26 282.377C195.248 282.565 195.266 282.753 195.261 282.941C195.251 283.244 195.226 283.546 195.221 283.849C195.218 284.032 195.252 284.216 195.249 284.399C195.245 284.786 195.22 285.173 195.218 285.56C195.217 285.837 195.254 286.115 195.252 286.392C195.25 286.771 195.217 287.149 195.216 287.527C195.214 287.979 195.241 288.43 195.24 288.881C195.239 289.276 195.207 289.671 195.208 290.066C195.208 290.565 195.233 291.064 195.24 291.563C195.247 292.072 195.249 292.58 195.244 293.088C195.239 293.529 195.22 293.97 195.208 294.412C195.205 294.547 195.171 294.694 195.213 294.815C195.289 295.04 195.264 295.249 195.215 295.469C195.192 295.572 195.211 295.685 195.211 295.85C195.293 295.774 195.331 295.739 195.369 295.703C195.657 295.428 195.944 295.153 196.232 294.879C196.295 294.82 196.368 294.77 196.43 294.71C196.705 294.438 196.971 294.156 197.253 293.893C197.563 293.606 197.896 293.343 198.205 293.055C198.43 292.845 198.624 292.6 198.848 292.388C199.318 291.945 199.803 291.517 200.274 291.075C200.739 290.639 201.188 290.187 201.657 289.756C201.873 289.557 202.138 289.409 202.351 289.206C202.531 289.035 202.776 289.071 202.967 288.951C203.125 288.853 203.249 288.944 203.354 289.054C203.425 289.128 203.481 289.217 203.539 289.293C203.612 289.274 203.67 289.253 203.729 289.246C203.785 289.24 203.859 289.274 203.898 289.249C204.072 289.134 204.137 289.137 204.294 289.258C204.338 289.292 204.42 289.275 204.53 289.285C204.615 289.34 204.774 289.403 204.882 289.516C205.128 289.773 205.344 290.058 205.582 290.324C205.823 290.595 206.077 290.855 206.321 291.123C206.741 291.586 207.158 292.052 207.574 292.518C207.897 292.881 208.216 293.248 208.542 293.609C208.733 293.82 208.934 294.022 209.127 294.231C209.227 294.34 209.316 294.459 209.418 294.566C209.623 294.784 209.843 294.989 210.039 295.216C210.292 295.51 210.52 295.826 210.772 296.122C211.008 296.4 211.255 296.67 211.508 296.934C211.771 297.207 212.049 297.466 212.313 297.739C212.47 297.9 212.639 298.059 212.755 298.248C212.913 298.508 213.113 298.714 213.328 298.89C213.41 298.797 213.469 298.721 213.537 298.654C213.704 298.489 213.885 298.335 214.045 298.162C214.252 297.937 214.438 297.691 214.644 297.465C215.041 297.03 215.444 296.601 215.849 296.172C216.064 295.943 216.293 295.727 216.506 295.496C216.812 295.165 217.109 294.826 217.411 294.491C217.573 294.312 217.736 294.133 217.905 293.96C218.104 293.756 218.288 293.529 218.518 293.37C218.704 293.242 218.95 293.198 219.107 293.141L219.107 293.14Z"
                  fill="#B8AE91"/>
            <path d="M218.201 285.685C218.175 285.769 218.135 285.829 218.143 285.883C218.165 286.063 218.236 286.24 218.232 286.418C218.224 286.739 218.18 287.06 218.141 287.379C218.129 287.476 218.068 287.567 218.057 287.664C217.997 288.171 217.72 288.585 217.521 289.035C217.434 289.233 217.263 289.358 217.193 289.578C217.125 289.793 216.859 289.947 216.676 290.123C216.606 290.191 216.479 290.207 216.497 290.352C216.5 290.377 216.414 290.424 216.363 290.442C216.207 290.496 216.06 290.549 216.011 290.738C216.001 290.776 215.914 290.801 215.859 290.821C215.748 290.861 215.625 290.876 215.526 290.934C215.315 291.058 215.087 291.122 214.862 291.202C214.663 291.273 214.461 291.373 214.252 291.437C214.092 291.486 213.929 291.529 213.765 291.556C213.321 291.629 212.878 291.613 212.429 291.567C211.992 291.522 211.587 291.382 211.168 291.277C210.669 291.152 210.324 290.77 209.865 290.591C209.791 290.563 209.735 290.482 209.679 290.419C209.296 289.988 208.907 289.563 208.539 289.12C208.419 288.977 208.359 288.787 208.314 288.598C208.257 288.353 208.21 288.097 208.098 287.875C207.981 287.642 207.98 287.402 207.945 287.162C207.944 287.155 207.946 287.147 207.945 287.14C207.878 286.525 207.868 285.961 208.083 285.363C208.123 285.254 208.061 285.109 208.099 285C208.149 284.859 208.252 284.738 208.337 284.602H208.144C208.192 284.571 208.206 284.562 208.221 284.553C208.272 284.523 208.345 284.506 208.372 284.461C208.495 284.258 208.598 284.042 208.723 283.84C209.046 283.318 209.48 282.905 209.965 282.529C210.184 282.36 210.451 282.268 210.642 282.087C210.818 281.92 211.023 281.892 211.22 281.807C211.504 281.684 211.822 281.666 212.091 281.545C212.316 281.443 212.537 281.483 212.754 281.433C212.983 281.381 213.235 281.419 213.476 281.435C213.733 281.453 213.994 281.467 214.242 281.528C214.481 281.588 214.707 281.703 214.936 281.799C215.194 281.908 215.465 281.996 215.703 282.141C216.009 282.328 216.3 282.545 216.574 282.777C216.97 283.112 217.275 283.524 217.545 283.971C217.854 284.484 218.045 285.028 218.141 285.613C218.147 285.65 218.197 285.679 218.203 285.685L218.201 285.685ZM210.897 286.61C210.878 286.615 210.86 286.62 210.841 286.625C210.911 286.859 210.971 287.096 211.051 287.327C211.27 287.958 211.757 288.309 212.362 288.495C212.929 288.669 213.492 288.618 214.024 288.332C214.744 287.946 215.165 287.357 215.215 286.533C215.261 285.757 214.723 284.88 214.019 284.638C213.388 284.421 212.741 284.419 212.123 284.71C211.922 284.805 211.713 284.917 211.559 285.071C211.139 285.491 210.886 285.997 210.897 286.61Z"
                  fill="#B8AE91"/>
        </g>
        <path d="M255.172 15H162.508C156.985 15 152.508 19.4772 152.508 25V179.055C152.508 184.578 156.985 189.055 162.508 189.055H255.172C260.695 189.055 265.172 184.578 265.172 179.055V25C265.172 19.4772 260.695 15 255.172 15Z"
              fill="#E5D9B6" fill-opacity="0.5"/>
        <path d="M207.277 115.839C208.254 115.839 209.204 115.834 210.153 115.841C210.657 115.845 211.16 115.879 211.664 115.883C212.128 115.886 212.592 115.853 213.054 115.86C213.776 115.871 214.498 115.912 215.219 115.922C215.728 115.929 216.238 115.896 216.747 115.897C217.247 115.899 217.746 115.927 218.246 115.935C218.397 115.938 218.548 115.903 218.698 115.904C219.131 115.908 219.563 115.931 219.996 115.928C220.748 115.922 221.499 115.895 222.251 115.894C222.679 115.894 223.109 115.905 223.533 115.957C223.714 115.979 223.877 116.125 224.053 116.206C224.135 116.244 224.227 116.261 224.368 116.304C224.451 116.523 224.519 116.779 224.508 117.106C224.499 117.371 224.435 117.655 224.481 117.933C224.497 118.034 224.394 118.152 224.401 118.258C224.413 118.439 224.466 118.619 224.509 118.797C224.53 118.882 224.616 118.998 224.587 119.039C224.507 119.152 224.391 119.248 224.272 119.324C223.828 119.61 223.333 119.578 222.834 119.551C222.436 119.53 222.036 119.561 221.636 119.559C221.237 119.557 220.837 119.534 220.437 119.536C220.032 119.538 219.626 119.566 219.221 119.57C219.066 119.572 218.9 119.497 218.755 119.529C218.405 119.608 218.074 119.441 217.713 119.516C217.332 119.596 216.922 119.546 216.525 119.539C216.07 119.531 215.614 119.511 215.159 119.491C214.889 119.48 214.614 119.416 214.351 119.45C213.88 119.51 213.413 119.518 212.941 119.501C212.351 119.48 211.76 119.483 211.169 119.481C210.425 119.478 209.681 119.48 208.937 119.482C208.327 119.484 207.717 119.495 207.106 119.491C206.763 119.489 206.42 119.459 206.077 119.451C205.439 119.436 204.801 119.423 204.164 119.422C203.766 119.421 203.364 119.41 202.973 119.466C202.623 119.516 202.293 119.407 201.954 119.417C201.444 119.432 200.934 119.479 200.424 119.482C199.995 119.485 199.566 119.435 199.137 119.428C198.439 119.418 197.739 119.41 197.042 119.428C196.709 119.437 196.386 119.379 196.058 119.354C195.981 119.348 195.903 119.352 195.826 119.362C195.422 119.418 195.04 119.323 194.657 119.211C194.593 119.193 194.511 119.233 194.417 119.249C194.431 119.172 194.442 119.111 194.444 119.097C194.311 119.032 194.151 119.005 194.084 118.911C193.895 118.646 193.622 118.697 193.366 118.658C193.129 118.622 192.893 118.572 192.66 118.513C192.623 118.503 192.57 118.396 192.585 118.364C192.706 118.118 192.457 117.962 192.445 117.745C192.436 117.571 192.32 117.402 192.315 117.228C192.304 116.866 192.336 116.501 192.349 116.138C192.368 115.591 192.384 115.044 192.404 114.496C192.416 114.165 192.453 113.834 192.446 113.504C192.432 112.855 192.531 112.213 192.481 111.558C192.429 110.877 192.505 110.187 192.516 109.501C192.526 108.879 192.515 108.258 192.532 107.637C192.537 107.49 192.613 107.343 192.662 107.198C192.713 107.042 192.771 106.888 192.845 106.681C192.878 106.677 192.973 106.664 193.111 106.645C193.058 106.548 193.016 106.471 192.964 106.374C193.149 106.137 193.337 105.876 193.549 105.636C193.671 105.499 193.836 105.402 193.977 105.281C194.264 105.033 194.561 104.795 194.827 104.525C195.005 104.345 195.122 104.105 195.293 103.918C195.423 103.776 195.616 103.693 195.744 103.55C195.948 103.324 196.114 103.063 196.31 102.829C196.469 102.639 196.649 102.465 196.82 102.284C196.984 102.11 197.145 101.933 197.315 101.765C197.523 101.56 197.742 101.367 197.948 101.16C198.095 101.011 198.224 100.844 198.37 100.693C198.574 100.482 198.791 100.285 198.993 100.071C199.213 99.8383 199.418 99.5903 199.637 99.3552C199.771 99.2107 199.916 99.0763 200.06 98.9403C200.444 98.5766 200.838 98.2242 201.212 97.8498C201.74 97.3198 202.252 96.7722 202.775 96.2373C202.933 96.0768 203.111 95.9371 203.275 95.783C203.664 95.4183 204.055 95.0557 204.435 94.6813C204.655 94.4643 204.841 94.2115 205.068 94.0025C205.319 93.77 205.568 93.5263 205.825 93.313C206.4 92.8363 206.807 92.1911 207.454 91.781C207.812 91.5539 208.06 91.1561 208.367 90.8441C208.529 90.6804 208.713 90.5402 208.88 90.3818C209.098 90.1738 209.294 89.9376 209.53 89.751C209.881 89.4726 210.105 89.0418 210.554 88.8829C210.681 88.4995 211.146 88.5059 211.34 88.1854C211.472 87.9668 211.647 87.7652 211.836 87.593C212.127 87.3274 212.46 87.1083 212.75 86.8422C212.99 86.6225 213.186 86.3537 213.418 86.1255C213.538 86.0082 213.694 85.9261 213.838 85.8365C214.062 85.6978 214.286 85.5603 214.516 85.4344C214.634 85.3704 214.762 85.315 214.892 85.2878C215.13 85.2382 215.372 85.2051 215.614 85.1817C215.671 85.1763 215.736 85.236 215.807 85.2707C215.835 85.2339 215.878 85.1769 215.888 85.1641C216.023 85.1774 216.114 85.1827 216.204 85.1961C216.367 85.2206 216.531 85.2472 216.694 85.2771C216.837 85.3032 216.978 85.3464 217.122 85.3619C217.412 85.3928 217.642 85.5283 217.841 85.7336C217.89 85.7837 217.959 85.8274 218.025 85.8439C218.202 85.8887 218.258 85.9964 218.219 86.1921C218.311 86.1724 218.393 86.1548 218.424 86.1484C218.622 86.3121 218.811 86.4486 218.976 86.6107C219.198 86.8288 219.384 87.0864 219.617 87.2901C219.808 87.4554 220.06 87.5466 220.256 87.7065C220.495 87.9017 220.693 88.1481 220.929 88.347C221.105 88.4947 221.329 88.5843 221.507 88.7304C221.836 89.0018 222.18 89.2673 222.459 89.5868C222.85 90.0341 223.139 90.5626 223.589 90.9721C223.875 91.2313 224.073 91.588 224.315 91.8967C224.61 92.2727 224.965 92.6145 225.193 93.0277C225.384 93.3728 225.721 93.6484 225.728 94.1102C225.731 94.2595 225.957 94.4078 225.815 94.5933C226.103 94.8568 225.995 95.2007 226.036 95.5057C226.051 95.6161 226.043 95.7329 226.026 95.8438C225.984 96.1067 226.017 96.4522 225.863 96.6101C225.638 96.8415 225.695 97.154 225.475 97.3987C225.224 97.6781 224.941 97.9597 224.738 98.2924C224.717 98.326 224.677 98.3564 224.64 98.3703C224.281 98.5063 224.097 98.8219 223.873 99.1029C223.722 99.2938 223.546 99.4672 223.367 99.6335C223.134 99.8506 222.877 100.042 222.649 100.263C222.245 100.653 221.853 101.054 221.461 101.455C221.194 101.728 220.941 102.015 220.671 102.285C220.325 102.634 220.006 103.028 219.606 103.301C219.188 103.587 218.917 103.988 218.575 104.332C218.219 104.69 217.846 105.03 217.495 105.391C217.159 105.736 216.844 106.103 216.513 106.453C216.255 106.727 215.99 106.995 215.721 107.259C215.497 107.479 215.255 107.68 215.037 107.906C214.728 108.225 214.439 108.565 214.132 108.886C213.906 109.121 213.668 109.345 213.43 109.568C213.092 109.885 212.748 110.195 212.407 110.51C212.18 110.72 211.95 110.926 211.73 111.143C211.233 111.632 210.687 112.071 210.28 112.652C210.13 112.866 209.884 113.012 209.692 113.2C209.549 113.34 209.41 113.488 209.289 113.648C209.081 113.918 208.893 114.191 208.615 114.413C208.279 114.682 208.033 115.063 207.705 115.346C207.534 115.494 207.366 115.618 207.277 115.839ZM207.945 96.2245C207.887 96.3114 207.851 96.3866 207.796 96.4426C207.632 96.6101 207.459 96.769 207.291 96.9321C206.925 97.2867 206.562 97.6456 206.192 97.9959C206.041 98.1394 205.831 98.238 205.722 98.4055C205.523 98.711 205.277 98.9462 204.993 99.1696C204.705 99.3962 204.472 99.6959 204.22 99.9673C204.1 100.096 204.003 100.25 203.873 100.367C203.452 100.747 203.006 101.1 202.595 101.491C202.267 101.804 201.979 102.159 201.669 102.491C201.509 102.661 201.336 102.817 201.175 102.985C200.954 103.215 200.74 103.452 200.52 103.683C200.307 103.907 200.091 104.129 199.872 104.348C199.619 104.602 199.324 104.8 199.136 105.133C198.957 105.45 198.684 105.718 198.426 105.982C198.113 106.303 197.773 106.597 197.444 106.902C197.204 107.124 197.208 107.34 197.45 107.557C197.585 107.68 197.705 107.818 197.839 107.941C198.016 108.103 198.206 108.251 198.381 108.414C198.641 108.655 198.89 108.907 199.151 109.145C199.182 109.174 199.284 109.17 199.318 109.14C199.521 108.963 199.719 108.78 199.908 108.588C200.13 108.364 200.333 108.12 200.56 107.902C200.827 107.646 201.12 107.418 201.386 107.161C201.6 106.953 201.777 106.704 201.995 106.5C202.404 106.115 202.83 105.748 203.251 105.374C203.381 105.259 203.521 105.155 203.646 105.034C203.869 104.818 204.081 104.591 204.305 104.375C204.503 104.184 204.713 104.007 204.91 103.814C205.175 103.555 205.426 103.282 205.692 103.024C205.976 102.749 206.273 102.487 206.56 102.215C207.108 101.696 207.652 101.174 208.197 100.652C208.308 100.546 208.411 100.431 208.524 100.327C208.842 100.033 209.168 99.7471 209.482 99.449C209.845 99.1045 210.196 98.7457 210.56 98.4012C210.777 98.1948 211.015 98.0093 211.234 97.804C211.434 97.6173 211.623 97.419 211.813 97.2227C212.119 96.9087 212.426 96.5967 212.718 96.2714C212.753 96.2325 212.733 96.0795 212.686 96.039C212.234 95.647 211.767 95.2754 211.361 94.8285C211.13 94.5752 210.848 94.3646 210.569 94.1646C210.486 94.1049 210.287 94.09 210.219 94.1476C209.878 94.4318 209.561 94.7453 209.24 95.0525C209.065 95.2199 208.899 95.3969 208.727 95.567C208.559 95.7318 208.403 95.9136 208.213 96.0464C208.106 96.1216 208.055 96.1792 208.073 96.3029C208.074 96.3104 208.051 96.3221 208.035 96.3344C208.009 96.3024 207.985 96.2714 207.945 96.2229V96.2245ZM212.312 101.852C212.132 101.966 211.967 102.039 211.843 102.156C211.532 102.45 211.244 102.768 210.938 103.067C210.616 103.381 210.286 103.688 209.954 103.991C209.354 104.539 208.743 105.074 208.177 105.66C207.766 106.086 207.315 106.473 206.887 106.882C206.597 107.158 206.318 107.445 206.03 107.723C205.855 107.891 205.672 108.052 205.489 108.213C205.268 108.408 205.031 108.587 204.824 108.795C204.607 109.013 204.45 109.301 204.209 109.48C203.874 109.729 203.541 109.967 203.286 110.306C203.098 110.556 202.883 110.785 202.677 111.02C202.503 111.221 202.347 111.448 202.14 111.608C201.94 111.764 202.007 111.916 202.098 112.045C202.25 112.263 202.435 112.462 202.621 112.654C202.932 112.975 203.252 113.287 203.575 113.596C203.919 113.926 203.937 113.938 204.288 113.627C204.488 113.45 204.613 113.187 204.81 113.005C205.119 112.719 205.463 112.472 205.789 112.204C205.86 112.145 205.915 112.067 205.972 111.992C206.116 111.805 206.245 111.604 206.402 111.428C206.619 111.186 206.845 110.949 207.088 110.735C207.328 110.522 207.402 110.146 207.758 110.048C207.779 110.042 207.785 109.992 207.801 109.964C208.089 109.465 208.524 109.113 208.964 108.762C209.214 108.563 209.454 108.349 209.683 108.125C209.755 108.054 209.751 107.898 209.827 107.839C210.042 107.672 210.308 107.564 210.504 107.38C210.95 106.963 211.367 106.515 211.796 106.079C211.844 106.03 211.888 105.977 211.936 105.928C212.045 105.816 212.151 105.701 212.266 105.596C212.466 105.413 212.685 105.25 212.871 105.056C213.044 104.874 213.183 104.66 213.343 104.465C213.471 104.307 213.609 104.158 213.744 104.006C213.769 103.976 213.798 103.949 213.828 103.923C214.021 103.757 214.227 103.603 214.405 103.421C214.62 103.202 214.792 102.937 215.02 102.735C215.18 102.594 215.246 102.364 215.481 102.286C215.608 102.244 215.711 102.111 215.812 102.008C216.091 101.718 216.357 101.416 216.64 101.131C216.814 100.955 216.932 100.779 216.758 100.545C216.58 100.306 216.398 100.069 216.202 99.8442C216.126 99.7562 215.996 99.7172 215.91 99.6357C215.722 99.4565 215.554 99.2544 215.359 99.0832C215.308 99.0384 215.157 99.0326 215.109 99.0742C214.882 99.2731 214.676 99.4965 214.46 99.7076C214.219 99.9423 213.999 100.207 213.726 100.394C213.519 100.536 213.385 100.729 213.212 100.892C213.176 100.926 213.191 101.013 213.183 101.073C212.817 101.256 212.473 101.471 212.312 101.852ZM219.549 98.2039C219.973 97.9368 220.148 97.4414 220.613 97.2467C220.745 97.1913 220.848 97.0548 220.951 96.9428C221.125 96.753 221.279 96.5434 221.46 96.36C221.657 96.1579 221.874 95.9798 222.048 95.7483C222.269 95.4535 222.329 95.1335 222.156 94.9618C221.951 94.7576 221.733 94.5501 221.586 94.3049C221.373 93.9519 221.147 93.6335 220.819 93.3701C220.596 93.1915 220.462 92.9046 220.278 92.6742C220.163 92.5292 219.996 92.4172 219.912 92.2583C219.765 91.9762 219.495 91.8498 219.272 91.6621C219.17 91.5763 219.087 91.4643 218.978 91.3896C218.608 91.1347 218.222 90.9017 217.993 90.4922C217.981 90.4714 217.96 90.4522 217.938 90.4421C217.75 90.353 217.561 90.2661 217.372 90.1786C217.341 90.1643 217.302 90.1563 217.281 90.1328C216.997 89.8155 216.704 89.5057 216.44 89.173C216.296 88.9922 215.948 88.9421 215.734 89.037C215.527 89.1282 215.432 89.2967 215.287 89.4353C214.97 89.7403 214.605 89.9952 214.271 90.2832C214.181 90.3605 214.148 90.5029 214.06 90.5828C213.726 90.8857 213.379 91.1753 213.017 91.4872C213.328 91.765 213.607 92.013 213.885 92.2631C214.214 92.5601 214.553 92.8475 214.867 93.1605C215.182 93.4735 215.466 93.8169 215.772 94.139C215.943 94.3193 216.135 94.4792 216.31 94.6563C216.569 94.9191 216.824 95.1874 217.077 95.4572C217.346 95.7446 217.614 96.0331 217.874 96.3285C218.049 96.5269 218.203 96.7444 218.378 96.9423C218.554 97.1412 218.748 97.3246 218.928 97.5192C219.144 97.7523 219.355 97.9906 219.549 98.205V98.2039ZM200.075 115.79C200.058 115.767 200.041 115.738 200.018 115.717C199.765 115.487 199.504 115.265 199.258 115.028C198.968 114.747 198.684 114.459 198.41 114.162C198.217 113.953 198.048 113.722 197.867 113.502C197.662 113.251 197.467 112.992 197.248 112.753C196.963 112.441 196.659 112.147 196.365 111.842C196.29 111.764 196.225 111.676 196.155 111.593C196.127 111.607 196.1 111.621 196.071 111.636C196.071 112.149 196.075 112.663 196.07 113.176C196.068 113.463 196.047 113.749 196.049 114.036C196.05 114.156 196.078 114.326 196.064 114.391C195.999 114.68 195.948 114.971 196.044 115.242C196.114 115.438 196.056 115.566 195.924 115.789H200.074L200.075 115.79Z"
              fill="#B8AE91"/>
        <path d="M127.012 208.617H34.3477C28.8248 208.617 24.3477 213.094 24.3477 218.617V275.525C24.3477 281.048 28.8248 285.525 34.3477 285.525H127.012C132.535 285.525 137.012 281.048 137.012 275.525V218.617C137.012 213.094 132.535 208.617 127.012 208.617Z"
              fill="#E5D9B6" fill-opacity="0.5"/>
        <path d="M79.7853 260.214C80.762 260.214 81.7116 260.209 82.6613 260.216C83.165 260.22 83.6682 260.254 84.1719 260.258C84.6353 260.261 85.0993 260.228 85.5622 260.235C86.2842 260.246 87.0056 260.287 87.727 260.297C88.236 260.304 88.7455 260.271 89.2545 260.272C89.7545 260.274 90.2539 260.302 90.7534 260.31C90.9044 260.313 91.0553 260.278 91.2063 260.279C91.6385 260.283 92.0712 260.306 92.5034 260.303C93.2555 260.297 94.0071 260.27 94.7592 260.269C95.1867 260.269 95.6173 260.28 96.041 260.332C96.2216 260.354 96.3853 260.5 96.5606 260.581C96.6427 260.619 96.7348 260.636 96.8757 260.679C96.9589 260.898 97.0267 261.154 97.0156 261.481C97.0066 261.746 96.943 262.03 96.9885 262.308C97.005 262.409 96.9022 262.527 96.9091 262.633C96.9213 262.814 96.9742 262.994 97.0171 263.172C97.0378 263.257 97.1236 263.373 97.095 263.414C97.0145 263.527 96.8985 263.623 96.7799 263.699C96.3355 263.985 95.8413 263.953 95.3418 263.926C94.9441 263.905 94.5436 263.936 94.1443 263.934C93.7444 263.932 93.3445 263.909 92.9446 263.911C92.5394 263.913 92.1342 263.941 91.729 263.945C91.5733 263.947 91.4081 263.872 91.2629 263.904C90.9128 263.983 90.5818 263.816 90.2211 263.891C89.8398 263.971 89.4298 263.921 89.0331 263.914C88.5776 263.906 88.1221 263.886 87.6671 263.866C87.397 263.855 87.1216 263.791 86.8583 263.825C86.3874 263.885 85.9208 263.893 85.4489 263.876C84.8589 263.855 84.2678 263.858 83.6772 263.856C82.933 263.853 82.1889 263.855 81.4447 263.857C80.8345 263.859 80.2244 263.87 79.6142 263.866C79.271 263.864 78.9278 263.834 78.5845 263.826C77.9468 263.811 77.3091 263.798 76.6714 263.797C76.2742 263.796 75.8722 263.785 75.4807 263.841C75.1306 263.891 74.8012 263.782 74.4622 263.792C73.9516 263.807 73.4416 263.854 72.9315 263.857C72.5025 263.86 72.074 263.81 71.6444 263.803C70.9463 263.793 70.2472 263.785 69.5496 263.803C69.2165 263.812 68.8934 263.754 68.5655 263.729C68.4887 263.723 68.4103 263.727 68.3341 263.737C67.9299 263.793 67.5475 263.698 67.1651 263.586C67.1005 263.568 67.0189 263.608 66.9246 263.624C66.9384 263.547 66.9495 263.486 66.9522 263.472C66.8192 263.407 66.6593 263.38 66.592 263.286C66.4024 263.021 66.1296 263.072 65.8738 263.033C65.6365 262.997 65.4008 262.947 65.1683 262.888C65.1307 262.878 65.0777 262.771 65.0931 262.739C65.2133 262.493 64.9644 262.337 64.9533 262.12C64.9443 261.946 64.8277 261.777 64.8224 261.603C64.8118 261.241 64.8436 260.876 64.8563 260.513C64.8754 259.966 64.8918 259.419 64.912 258.871C64.9241 258.54 64.9607 258.209 64.9538 257.879C64.94 257.23 65.0391 256.588 64.9888 255.933C64.9368 255.252 65.0126 254.562 65.0237 253.876C65.0338 253.254 65.0226 252.633 65.0401 252.012C65.0444 251.865 65.1212 251.718 65.1694 251.573C65.2213 251.417 65.279 251.263 65.3526 251.056C65.3855 251.052 65.4808 251.039 65.6185 251.02C65.5661 250.923 65.5242 250.846 65.4718 250.749C65.6572 250.512 65.8447 250.251 66.0571 250.011C66.1789 249.874 66.3441 249.777 66.485 249.656C66.7721 249.408 67.0692 249.17 67.3351 248.9C67.5131 248.72 67.6302 248.48 67.8012 248.293C67.9305 248.151 68.1238 248.068 68.252 247.925C68.4559 247.699 68.6217 247.438 68.8176 247.204C68.9771 247.014 69.1566 246.84 69.3277 246.659C69.4919 246.485 69.6529 246.308 69.8229 246.14C70.0306 245.935 70.2498 245.742 70.4559 245.535C70.6031 245.386 70.7318 245.219 70.8775 245.068C71.0814 244.857 71.2991 244.66 71.5004 244.446C71.7207 244.213 71.9262 243.965 72.1444 243.73C72.279 243.586 72.4241 243.451 72.5676 243.315C72.9516 242.952 73.3462 242.599 73.7196 242.225C74.2482 241.695 74.7593 241.147 75.2832 240.612C75.4405 240.452 75.619 240.312 75.7832 240.158C76.1719 239.793 76.5628 239.431 76.9426 239.056C77.1629 238.839 77.3488 238.587 77.5755 238.378C77.8266 238.145 78.0755 237.901 78.3329 237.688C78.9082 237.211 79.3149 236.566 79.9616 236.156C80.3197 235.929 80.5681 235.531 80.8753 235.219C81.0363 235.055 81.2212 234.915 81.3875 234.757C81.6062 234.549 81.8022 234.313 82.0374 234.126C82.3891 233.848 82.6126 233.417 83.0623 233.258C83.1888 232.874 83.6539 232.881 83.8477 232.56C83.9802 232.342 84.1549 232.14 84.3435 231.968C84.6348 231.702 84.9674 231.483 85.2582 231.217C85.4982 230.997 85.6936 230.729 85.9261 230.5C86.0458 230.383 86.2015 230.301 86.3461 230.211C86.5697 230.073 86.7937 229.935 87.0241 229.809C87.1417 229.745 87.2699 229.69 87.4002 229.663C87.638 229.613 87.88 229.58 88.1215 229.557C88.1793 229.551 88.2439 229.611 88.3149 229.646C88.3429 229.609 88.3858 229.552 88.3954 229.539C88.531 229.552 88.6215 229.558 88.7116 229.571C88.8753 229.596 89.0389 229.622 89.202 229.652C89.3451 229.678 89.4854 229.721 89.6295 229.737C89.9197 229.768 90.1496 229.903 90.3493 230.109C90.398 230.159 90.4663 230.202 90.5325 230.219C90.7095 230.264 90.7656 230.371 90.7264 230.567C90.8191 230.547 90.9012 230.53 90.9319 230.523C91.1295 230.687 91.3186 230.824 91.4838 230.986C91.7057 231.204 91.8922 231.461 92.1252 231.665C92.3154 231.83 92.568 231.922 92.764 232.082C93.0029 232.277 93.2004 232.523 93.4372 232.722C93.613 232.87 93.8371 232.959 94.0145 233.105C94.344 233.377 94.6877 233.642 94.9668 233.962C95.3577 234.409 95.6464 234.938 96.0971 235.347C96.3831 235.606 96.5807 235.963 96.8233 236.272C97.1183 236.648 97.4727 236.989 97.7009 237.403C97.8916 237.748 98.2285 238.023 98.2359 238.485C98.2385 238.635 98.4652 238.783 98.3233 238.968C98.6104 239.232 98.5028 239.576 98.5441 239.881C98.559 239.991 98.551 240.108 98.5336 240.219C98.4922 240.482 98.5251 240.827 98.371 240.985C98.1453 241.216 98.2031 241.529 97.9827 241.774C97.7317 242.053 97.4488 242.335 97.2454 242.667C97.2248 242.701 97.185 242.731 97.148 242.745C96.7889 242.881 96.6045 243.197 96.381 243.478C96.2295 243.669 96.0537 243.842 95.8752 244.009C95.6422 244.226 95.3853 244.417 95.1565 244.638C94.7529 245.028 94.3604 245.429 93.9684 245.83C93.7015 246.103 93.4483 246.39 93.1792 246.66C92.8329 247.009 92.5135 247.403 92.1141 247.676C91.6962 247.962 91.4245 248.363 91.0823 248.707C90.7269 249.065 90.3541 249.405 90.0024 249.766C89.6666 250.111 89.3514 250.478 89.0209 250.828C88.7624 251.102 88.4976 251.37 88.2291 251.634C88.005 251.854 87.763 252.055 87.5448 252.281C87.236 252.6 86.9468 252.94 86.6396 253.261C86.4139 253.496 86.1761 253.72 85.9378 253.943C85.5993 254.26 85.2556 254.57 84.915 254.885C84.6878 255.095 84.4574 255.301 84.2376 255.518C83.7413 256.007 83.1952 256.446 82.7879 257.027C82.6375 257.241 82.3922 257.387 82.2 257.575C82.0564 257.715 81.9182 257.863 81.7964 258.023C81.5888 258.293 81.4007 258.566 81.1232 258.788C80.7868 259.057 80.5406 259.438 80.2132 259.721C80.0416 259.869 79.8742 259.992 79.7847 260.213L79.7853 260.214ZM80.4532 240.6C80.3949 240.686 80.3589 240.762 80.3038 240.818C80.1396 240.985 79.9669 241.144 79.7985 241.307C79.4325 241.662 79.0702 242.021 78.7 242.371C78.5485 242.514 78.3393 242.613 78.2302 242.78C78.031 243.086 77.7853 243.321 77.5009 243.545C77.2127 243.771 76.9797 244.071 76.7276 244.342C76.6073 244.471 76.5109 244.625 76.3812 244.742C75.9595 245.122 75.5136 245.475 75.1031 245.866C74.7747 246.179 74.4871 246.534 74.1767 246.866C74.0173 247.036 73.8441 247.192 73.6826 247.36C73.4617 247.59 73.2482 247.827 73.0279 248.058C72.8144 248.282 72.5989 248.504 72.3796 248.723C72.1264 248.977 71.8314 249.175 71.6434 249.508C71.4643 249.825 71.1916 250.093 70.9336 250.357C70.6211 250.678 70.2811 250.972 69.9522 251.277C69.7117 251.499 69.7159 251.715 69.9575 251.932C70.0925 252.055 70.2128 252.193 70.3473 252.316C70.5242 252.478 70.7138 252.626 70.8891 252.789C71.1487 253.03 71.3976 253.282 71.6593 253.52C71.69 253.549 71.7922 253.545 71.8261 253.515C72.029 253.338 72.2265 253.155 72.4156 252.963C72.6375 252.739 72.8404 252.495 73.0676 252.277C73.3346 252.021 73.628 251.793 73.8934 251.536C74.1079 251.328 74.2848 251.079 74.5025 250.875C74.9119 250.49 75.3383 250.123 75.7588 249.749C75.8886 249.634 76.0289 249.53 76.1534 249.409C76.3769 249.193 76.5893 248.966 76.8128 248.75C77.0104 248.559 77.2212 248.382 77.4177 248.189C77.6825 247.93 77.9341 247.657 78.2 247.399C78.4839 247.124 78.781 246.862 79.0681 246.59C79.6158 246.071 80.1603 245.549 80.7053 245.027C80.816 244.921 80.9187 244.806 81.0316 244.702C81.3499 244.408 81.6756 244.122 81.9897 243.824C82.353 243.48 82.7037 243.121 83.0676 242.776C83.2852 242.57 83.5225 242.384 83.7418 242.179C83.9415 241.992 84.1306 241.794 84.3213 241.598C84.6263 241.284 84.9335 240.972 85.2259 240.646C85.2609 240.608 85.2407 240.454 85.1941 240.414C84.7418 240.022 84.2746 239.65 83.8684 239.203C83.638 238.95 83.3562 238.74 83.0771 238.54C82.9939 238.48 82.7953 238.465 82.7265 238.523C82.3859 238.807 82.0686 239.12 81.7476 239.427C81.5729 239.595 81.4071 239.772 81.2344 239.942C81.067 240.107 80.9108 240.289 80.7212 240.421C80.6142 240.497 80.5628 240.554 80.5808 240.678C80.5819 240.685 80.5586 240.697 80.5432 240.709C80.5173 240.677 80.4924 240.646 80.4532 240.598V240.6ZM84.8197 246.227C84.6401 246.341 84.4743 246.414 84.3504 246.531C84.0395 246.825 83.7519 247.143 83.4457 247.442C83.1237 247.756 82.7943 248.063 82.4622 248.366C81.8621 248.914 81.2508 249.449 80.6846 250.035C80.2736 250.461 79.8229 250.848 79.3944 251.257C79.1052 251.533 78.8261 251.82 78.5379 252.098C78.3626 252.266 78.1793 252.427 77.9966 252.588C77.7757 252.783 77.539 252.962 77.3319 253.17C77.1153 253.388 76.958 253.676 76.717 253.855C76.3817 254.104 76.0491 254.342 75.7938 254.681C75.6057 254.931 75.3907 255.16 75.1852 255.395C75.0104 255.596 74.8547 255.823 74.6481 255.983C74.4474 256.139 74.5152 256.291 74.6057 256.42C74.7583 256.638 74.9426 256.837 75.1285 257.029C75.44 257.35 75.7599 257.662 76.083 257.971C76.4272 258.301 76.4447 258.313 76.7953 258.002C76.9956 257.825 77.1206 257.562 77.3176 257.38C77.6269 257.094 77.9712 256.847 78.2964 256.579C78.3674 256.52 78.4225 256.442 78.4797 256.367C78.6237 256.18 78.753 255.979 78.9103 255.803C79.1269 255.561 79.3531 255.324 79.5962 255.11C79.8361 254.897 79.9097 254.521 80.2657 254.423C80.2863 254.417 80.2927 254.367 80.3091 254.339C80.5967 253.84 81.0321 253.488 81.4722 253.137C81.7222 252.938 81.9616 252.724 82.1904 252.5C82.263 252.429 82.2593 252.273 82.335 252.214C82.5501 252.047 82.8154 251.939 83.0119 251.755C83.4579 251.338 83.8753 250.89 84.3038 250.454C84.352 250.405 84.3959 250.352 84.4436 250.303C84.5527 250.191 84.6592 250.076 84.7741 249.971C84.9738 249.788 85.1925 249.625 85.379 249.431C85.5522 249.249 85.6904 249.035 85.8504 248.84C85.9791 248.682 86.1168 248.533 86.2513 248.381C86.2773 248.351 86.3059 248.324 86.3355 248.298C86.5289 248.132 86.7344 247.978 86.9129 247.796C87.1279 247.577 87.3 247.312 87.5278 247.11C87.6883 246.969 87.7534 246.739 87.9891 246.661C88.1163 246.619 88.219 246.486 88.3196 246.383C88.5988 246.093 88.8647 245.791 89.1475 245.506C89.3218 245.33 89.4399 245.154 89.2656 244.92C89.0876 244.681 88.906 244.444 88.71 244.219C88.6337 244.131 88.504 244.092 88.4182 244.011C88.2296 243.831 88.0617 243.629 87.8668 243.458C87.8159 243.413 87.6645 243.408 87.6168 243.449C87.3896 243.648 87.1841 243.871 86.9674 244.083C86.727 244.317 86.5066 244.582 86.2333 244.769C86.0273 244.911 85.8927 245.104 85.7195 245.267C85.6841 245.301 85.6989 245.388 85.6909 245.448C85.3244 245.631 84.9801 245.846 84.8186 246.227H84.8197ZM92.0569 242.579C92.4812 242.312 92.6554 241.816 93.1205 241.622C93.2529 241.566 93.3562 241.43 93.4589 241.318C93.6332 241.128 93.7873 240.918 93.9674 240.735C94.1649 240.533 94.3816 240.355 94.5558 240.123C94.7772 239.828 94.8365 239.509 94.6639 239.337C94.4584 239.133 94.2412 238.925 94.0934 238.68C93.8805 238.327 93.6549 238.009 93.3265 237.745C93.104 237.566 92.97 237.28 92.7862 237.049C92.6708 236.904 92.5034 236.792 92.4202 236.633C92.2725 236.351 92.0029 236.225 91.7799 236.037C91.6777 235.951 91.595 235.839 91.4859 235.765C91.1162 235.51 90.7301 235.277 90.5008 234.867C90.4891 234.846 90.4674 234.827 90.4457 234.817C90.2577 234.728 90.0686 234.641 89.88 234.554C89.8488 234.539 89.8096 234.531 89.7884 234.508C89.505 234.191 89.2121 233.881 88.9478 233.548C88.8043 233.367 88.4563 233.317 88.2418 233.412C88.0352 233.503 87.9399 233.672 87.7953 233.81C87.4775 234.115 87.1126 234.37 86.7783 234.658C86.6888 234.735 86.656 234.878 86.5675 234.958C86.2333 235.261 85.8869 235.55 85.5246 235.862C85.8361 236.14 86.1152 236.388 86.3927 236.638C86.7222 236.935 87.0612 237.223 87.3753 237.536C87.6893 237.849 87.9738 238.192 88.2794 238.514C88.4505 238.694 88.6427 238.854 88.8175 239.031C89.0771 239.294 89.3318 239.562 89.5845 239.832C89.8535 240.12 90.1215 240.408 90.3816 240.704C90.5564 240.902 90.7105 241.119 90.8858 241.317C91.0617 241.516 91.2555 241.7 91.4361 241.894C91.6522 242.127 91.863 242.366 92.0569 242.58V242.579ZM72.5825 260.165C72.5655 260.142 72.5491 260.113 72.5258 260.092C72.2726 259.862 72.012 259.64 71.7662 259.403C71.476 259.122 71.1916 258.834 70.9177 258.537C70.7249 258.328 70.5555 258.097 70.3748 257.877C70.1699 257.626 69.9744 257.367 69.7562 257.128C69.4707 256.816 69.1667 256.522 68.8727 256.217C68.7975 256.139 68.7324 256.051 68.663 255.968C68.6349 255.982 68.6074 255.996 68.5793 256.011C68.5793 256.524 68.5825 257.038 68.5782 257.551C68.5761 257.838 68.5544 258.124 68.5565 258.411C68.5576 258.531 68.5857 258.701 68.5714 258.766C68.5067 259.055 68.4559 259.346 68.5523 259.617C68.6217 259.813 68.5639 259.941 68.4321 260.164H72.5819L72.5825 260.165Z"
              fill="#B8AE91"/>
        <path d="M97.5 373C117.658 373 134 356.658 134 336.5C134 316.342 117.658 300 97.5 300C77.3416 300 61 316.342 61 336.5C61 356.658 77.3416 373 97.5 373Z"
              fill="#E5D9B6" fill-opacity="0.5"/>
        <mask id="mask2_3407_10664" style="mask-type:luminance" maskUnits="userSpaceOnUse" x="76" y="311" width="43"
              height="54">
            <path d="M118.308 311.602H76.6914V364.817H118.308V311.602Z" fill="white"/>
        </mask>
        <g mask="url(#mask2_3407_10664)">
            <path d="M96.2826 358.753C95.6646 359.819 94.6907 360.444 93.7198 361.04C92.8431 361.579 91.8597 361.871 90.8332 361.949C89.3567 362.062 87.9774 361.717 86.7999 360.796C85.8207 360.031 85.1168 359.018 84.7249 357.793C84.2596 356.338 84.1222 354.866 84.4798 353.368C84.6373 352.708 84.7693 352.029 85.0315 351.412C85.3086 350.759 85.7224 350.167 86.0859 349.554C86.2185 349.331 86.4062 349.139 86.5163 348.906C86.5737 348.784 86.5406 348.599 86.508 348.453C86.4085 348.011 86.2268 347.58 86.1901 347.135C86.109 346.16 86.0504 345.178 86.0699 344.201C86.0912 343.121 86.5684 342.192 87.1391 341.3C87.888 340.13 88.9252 339.311 90.1323 338.743C90.8835 338.389 91.7182 338.423 92.5376 338.591C93.023 338.69 93.5369 338.678 94.0028 338.829C94.5634 339.011 95.1347 339.195 95.6184 339.584C95.9937 339.886 96.4087 340.137 96.8142 340.398C96.9101 340.46 97.0362 340.496 97.1499 340.5C98.1889 340.536 98.9016 341.144 99.5126 341.921C99.8625 342.366 99.8684 342.344 100.351 342.095C100.739 341.895 101.172 341.778 101.595 341.662C102.052 341.538 102.488 341.679 102.927 341.822C103.391 341.972 103.864 341.856 104.309 341.716C105.011 341.495 105.724 341.502 106.424 341.611C107.016 341.703 107.583 341.949 108.169 342.094C108.915 342.279 109.565 342.654 110.088 343.202C110.569 343.706 110.89 344.34 111.175 344.99C111.374 345.444 111.633 345.868 111.679 346.382C111.733 346.975 111.837 347.565 111.862 348.159C111.878 348.551 111.84 348.961 111.741 349.339C111.62 349.803 111.431 350.253 111.231 350.691C110.975 351.255 110.704 351.815 110.392 352.348C110.171 352.725 109.914 353.105 109.594 353.39C109.095 353.834 109.395 354.302 109.453 354.768C109.518 355.291 109.654 355.813 109.653 356.335C109.652 357.081 109.617 357.839 109.481 358.569C109.336 359.346 109.147 360.129 108.74 360.823C108.434 361.344 108.162 361.895 107.794 362.366C107.433 362.828 106.996 363.238 106.545 363.613C105.931 364.123 105.213 364.474 104.445 364.641C103.844 364.772 103.208 364.849 102.6 364.799C101.986 364.748 101.37 364.557 100.787 364.337C100.342 364.169 99.9282 363.888 99.538 363.603C99.1379 363.31 98.7667 362.969 98.4126 362.617C97.8757 362.083 97.4714 361.436 97.1416 360.756C96.8421 360.136 96.6224 359.476 96.3661 358.835C96.356 358.81 96.3252 358.793 96.2808 358.751L96.2826 358.753ZM99.9744 344.234C99.8317 344.159 99.7405 344.084 99.6381 344.062C99.4487 344.022 99.2462 344.038 99.0627 343.983C98.9437 343.948 98.8188 343.849 98.7501 343.742C98.6317 343.559 98.5778 343.331 98.4565 343.151C98.1261 342.66 97.7916 342.164 97.1404 342.083C96.7071 342.029 96.2802 341.962 95.9037 341.698C95.5983 341.485 95.2342 341.346 94.9666 341.094C94.5332 340.687 94.0229 340.508 93.4747 340.393C93.1024 340.315 92.7241 340.265 92.3517 340.187C91.704 340.051 91.067 340.008 90.462 340.357C90.362 340.415 90.2631 340.476 90.1702 340.546C89.7445 340.864 89.2632 341.13 88.9121 341.52C88.5238 341.951 88.2296 342.482 87.9448 342.999C87.7944 343.273 87.7169 343.603 87.6695 343.918C87.6115 344.302 87.6139 344.697 87.6003 345.088C87.5683 345.987 87.6778 346.876 87.8732 347.746C88.0573 348.565 88.1094 349.335 87.5671 350.048C87.3368 350.351 87.145 350.686 86.9508 351.017C86.5678 351.669 86.2765 352.365 86.1001 353.104C85.9095 353.904 85.8154 354.712 85.8763 355.545C85.9669 356.785 86.2884 357.908 87.0959 358.873C87.6352 359.517 88.284 359.948 89.069 360.167C89.4017 360.259 89.7528 360.335 90.0944 360.33C90.6349 360.321 91.1896 360.301 91.71 360.169C92.3446 360.008 92.9248 359.672 93.4747 359.299C93.911 359.003 94.3302 358.703 94.6416 358.243C94.9695 357.758 95.4473 357.451 96.0565 357.504C96.3578 357.53 96.6656 357.587 96.9486 357.692C97.6661 357.957 98.087 358.473 98.2279 359.268C98.2919 359.629 98.4872 359.98 98.6808 360.298C98.9147 360.681 99.216 361.02 99.4777 361.386C99.8246 361.872 100.256 362.256 100.774 362.534C101.032 362.672 101.331 362.768 101.567 362.902C101.974 363.133 102.402 363.2 102.812 363.225C103.913 363.29 104.911 362.921 105.778 362.214C106.481 361.642 106.988 360.897 107.366 360.082C107.642 359.486 107.842 358.836 107.968 358.188C108.093 357.54 108.133 356.864 108.117 356.203C108.103 355.616 107.972 355.03 107.873 354.447C107.762 353.789 107.881 353.211 108.287 352.671C108.622 352.225 108.905 351.737 109.186 351.252C109.477 350.749 109.757 350.236 110.006 349.71C110.148 349.411 110.275 349.082 110.309 348.756C110.358 348.294 110.347 347.819 110.3 347.357C110.257 346.942 110.189 346.511 110.028 346.133C109.816 345.638 109.502 345.19 109.233 344.721C109.004 344.319 108.674 344.026 108.275 343.823C108.09 343.729 107.877 343.689 107.675 343.631C107.154 343.481 106.639 343.294 106.108 343.196C105.541 343.091 104.967 343.173 104.404 343.308C103.716 343.473 103.036 343.548 102.339 343.289C101.715 343.057 101.177 343.36 100.673 343.709C100.425 343.881 100.19 344.072 99.9749 344.235L99.9744 344.234Z"
                  fill="#B8AE91"/>
            <path d="M118.176 325.687C118.15 325.723 118.091 325.843 117.999 325.919C117.89 326.009 117.757 326.104 117.624 326.122C117.032 326.203 116.431 326.221 115.845 326.332C115.353 326.426 114.861 326.574 114.4 326.775C113.704 327.078 113.021 327.422 112.357 327.796C111.984 328.006 111.64 328.284 111.32 328.576C110.787 329.061 110.265 329.563 109.774 330.093C109.424 330.471 109.089 330.879 108.824 331.322C108.467 331.918 108.146 332.543 107.883 333.186C107.689 333.662 107.597 334.185 107.486 334.693C107.392 335.118 107.346 335.553 107.26 335.98C107.229 336.134 107.156 336.235 106.939 336.228C106.657 336.218 106.372 336.312 106.086 336.356C106.026 336.365 105.945 336.373 105.904 336.34C105.642 336.131 105.426 335.901 105.404 335.519C105.369 334.92 105.319 334.319 105.236 333.725C105.153 333.135 105.062 332.539 104.896 331.97C104.761 331.508 104.532 331.068 104.303 330.644C104.054 330.186 103.647 329.79 103.505 329.307C103.255 328.457 102.583 327.955 102.142 327.269C101.778 326.703 101.403 326.141 100.838 325.742C100.469 325.482 100.174 325.102 99.7909 324.873C99.2622 324.559 98.6826 324.334 98.1214 324.08C98.0172 324.033 97.8917 324.003 97.7798 324.013C97.3559 324.054 97.0611 323.813 96.7698 323.557C96.755 323.544 96.7491 323.52 96.7337 323.509C96.5757 323.399 96.3057 323.393 96.3975 323.064C96.4519 322.869 96.4543 322.658 96.4809 322.454C96.4886 322.395 96.523 322.326 96.504 322.279C96.3691 321.94 96.5952 321.901 96.819 321.889C97.1203 321.874 97.4276 321.922 97.7242 321.881C98.3369 321.797 98.9532 321.71 99.5517 321.558C100.76 321.25 101.827 320.617 102.827 319.882C103.737 319.214 104.6 318.468 105.292 317.555C105.786 316.904 106.218 316.203 106.66 315.513C107.165 314.728 107.468 313.856 107.64 312.936C107.688 312.677 107.696 312.408 107.711 312.142C107.733 311.731 108.072 311.519 108.486 311.631C108.708 311.692 108.948 311.712 109.179 311.708C109.532 311.703 109.536 311.985 109.547 312.195C109.586 312.912 109.532 313.639 109.622 314.347C109.697 314.943 109.892 315.53 110.089 316.101C110.309 316.738 110.553 317.372 110.854 317.972C111.359 318.978 111.981 319.905 112.687 320.783C113.347 321.607 114.091 322.338 114.924 322.947C115.734 323.54 116.608 324.074 117.654 324.15C117.795 324.16 117.941 324.202 118.071 324.261C118.416 324.418 118.29 324.724 118.266 324.991C118.247 325.206 118.212 325.418 118.176 325.685V325.687ZM108.308 315.956C106.428 319.384 103.742 321.797 100.181 323.133C100.592 323.446 101.005 323.737 101.393 324.06C101.795 324.395 102.19 324.744 102.557 325.119C102.809 325.378 103.005 325.695 103.23 325.982C103.554 326.398 103.902 326.796 104.2 327.229C104.511 327.682 104.786 328.162 105.057 328.642C105.338 329.139 105.595 329.65 105.864 330.153C105.993 330.397 106.155 330.626 106.252 330.882C106.378 331.213 106.454 331.564 106.578 332C108.397 328.414 111.122 326.051 114.847 324.865C111.556 322.75 109.519 319.677 108.308 315.956Z"
                  fill="#B8AE91"/>
            <path d="M76.6916 324.906C76.6904 324.063 76.8585 323.254 77.2031 322.493C77.4825 321.878 77.9028 321.366 78.4066 320.922C78.9915 320.407 79.6191 319.956 80.3508 319.707C80.944 319.505 81.5668 319.394 82.1688 319.218C82.3458 319.166 82.5453 319.064 82.6555 318.922C83.1486 318.282 83.7607 317.781 84.3794 317.286C85.0845 316.724 85.8718 316.306 86.7154 316.016C87.1961 315.851 87.7011 315.783 88.2079 315.715C89.1894 315.581 90.0999 315.843 90.94 316.268C91.4882 316.544 91.9559 317.03 92.3922 317.49C92.9919 318.122 93.4158 318.888 93.6745 319.735C93.8538 320.323 94.0687 320.913 94.1433 321.518C94.2511 322.388 94.3393 323.27 94.2067 324.154C94.1404 324.597 94.1771 325.057 94.0936 325.495C93.9444 326.279 93.7644 327.059 93.549 327.827C93.3867 328.405 93.1618 328.966 92.941 329.524C92.5798 330.439 92.0855 331.283 91.5865 332.123C91.3568 332.51 91.1679 332.921 90.9601 333.321C90.8772 333.481 90.7855 333.581 90.57 333.553C89.8323 333.454 89.0912 333.377 88.3506 333.303C87.8971 333.257 87.4395 333.254 86.9889 333.191C86.4295 333.112 85.8748 332.996 85.3201 332.889C84.9453 332.816 84.5694 332.741 84.2 332.645C83.7927 332.538 83.3943 332.398 82.9882 332.285C82.1303 332.046 81.3448 331.64 80.5828 331.183C80.4183 331.084 80.2673 330.957 80.1229 330.828C79.7866 330.525 79.4326 330.238 79.1324 329.901C78.7435 329.463 78.3687 329.003 78.0449 328.514C77.7223 328.026 77.4642 327.492 77.1877 326.972C76.955 326.534 76.6833 325.368 76.6916 324.906ZM89.6849 331.859C89.9164 331.585 90.1058 331.372 90.2817 331.148C90.3616 331.047 90.4167 330.925 90.48 330.811C90.5783 330.633 90.6683 330.449 90.773 330.276C90.8985 330.069 91.0643 329.882 91.1638 329.662C91.3538 329.242 91.5154 328.808 91.6776 328.374C91.8499 327.915 92.0429 327.46 92.1637 326.986C92.2933 326.477 92.3561 325.949 92.4366 325.427C92.507 324.97 92.5627 324.511 92.6242 324.053C92.6521 323.846 92.6941 323.639 92.7018 323.432C92.7077 323.267 92.6686 323.099 92.6521 322.933C92.6029 322.424 92.594 321.907 92.497 321.409C92.3904 320.863 92.2531 320.317 91.9932 319.816C91.8996 319.636 91.8706 319.414 91.7564 319.253C91.5503 318.964 91.3035 318.704 91.0708 318.435C91.0004 318.354 90.9258 318.274 90.8405 318.21C90.657 318.073 90.4356 317.976 90.2835 317.81C89.9632 317.459 89.5186 317.476 89.1255 317.358C88.881 317.285 88.5992 317.321 88.3363 317.338C87.8349 317.37 87.3335 317.404 86.9001 317.726C86.7598 317.83 86.584 317.903 86.4141 317.943C86.0619 318.026 85.796 318.252 85.5208 318.463C85.3668 318.582 85.2218 318.714 85.0744 318.841C84.7233 319.144 84.322 319.406 84.0366 319.764C83.7489 320.125 83.4493 320.413 83.0107 320.527C82.8798 320.562 82.7342 320.539 82.604 320.577C82.1126 320.717 81.626 320.873 81.1364 321.021C80.6024 321.183 80.1211 321.457 79.6931 321.813C79.3177 322.125 79.0016 322.491 78.7399 322.926C78.4398 323.425 78.3001 323.949 78.2421 324.513C78.1817 325.098 78.3415 325.641 78.5416 326.176C78.866 327.044 79.3142 327.837 79.9429 328.508C80.3034 328.892 80.7012 329.24 81.0937 329.592C81.2749 329.754 81.4679 329.915 81.681 330.026C82.8319 330.628 84.0526 331.021 85.3189 331.268C85.8564 331.372 86.3952 331.468 86.9357 331.555C87.3039 331.615 87.6745 331.661 88.0451 331.701C88.6211 331.762 89.1983 331.813 89.6843 331.861L89.6849 331.859Z"
                  fill="#B8AE91"/>
            <path d="M99.3411 346.159C99.5146 345.939 99.6952 345.724 99.8603 345.498C100.066 345.215 100.263 344.925 100.459 344.634C100.595 344.434 100.746 344.364 100.948 344.542C101.074 344.652 101.22 344.742 101.33 344.866C101.501 345.056 101.439 345.26 101.303 345.441C100.908 345.967 100.506 346.488 100.11 347.014C99.9432 347.236 99.7846 347.465 99.6348 347.782C99.7413 347.761 99.8734 347.774 99.9497 347.714C100.483 347.286 100.99 346.822 101.535 346.409C102.473 345.697 103.5 345.152 104.638 344.862C105.58 344.621 106.523 344.575 107.43 345.026C108.315 345.465 108.772 346.241 108.962 347.189C109.215 348.45 108.948 349.667 108.5 350.829C108.173 351.675 107.791 352.517 107.303 353.273C107.014 353.721 106.88 354.126 106.919 354.632C106.963 355.214 106.994 355.797 107.032 356.38C107.099 357.398 107.03 358.404 106.678 359.364C106.309 360.373 105.78 361.307 104.935 361.962C104.512 362.29 103.935 362.331 103.385 362.308C102.311 362.262 101.492 361.691 100.766 360.956C100.308 360.493 99.8828 359.991 99.4684 359.485C99.2441 359.21 99.067 358.893 98.8806 358.589C98.5632 358.069 98.256 357.544 97.944 357.021C97.9387 357.012 97.9322 357.004 97.9298 356.994C97.8321 356.637 97.6297 356.608 97.2709 356.597C96.8796 356.583 96.3882 356.59 96.1041 356.19C95.428 356.667 94.7839 357.182 94.0847 357.601C92.8338 358.351 91.5154 358.924 90.0247 358.934C88.9941 358.94 88.0729 358.659 87.3962 357.828C86.9901 357.33 86.78 356.713 86.7296 356.061C86.6485 355.003 86.9084 354.014 87.3234 353.051C87.7189 352.133 88.2126 351.286 88.8425 350.518C88.9076 350.439 88.9177 350.305 88.9349 350.194C88.9834 349.877 89.0562 349.559 89.0568 349.242C89.0568 348.622 89.0029 348.002 88.9923 347.381C88.9769 346.438 88.9828 345.49 89.1918 344.568C89.4487 343.431 89.9478 342.46 91.1501 342.117C91.9961 341.876 92.8279 341.825 93.6727 342.22C94.3849 342.553 94.9887 342.987 95.4836 343.608C96.0472 344.316 96.6594 344.984 97.2099 345.701C97.5101 346.093 97.7232 346.555 97.9831 346.981C98.0346 347.065 98.1198 347.127 98.1897 347.199C98.2187 347.091 98.2903 346.972 98.269 346.875C98.1832 346.485 98.0435 346.107 97.9712 345.715C97.8943 345.301 97.8576 344.877 97.8351 344.455C97.8303 344.369 97.9523 344.219 98.0411 344.194C98.2353 344.14 98.4555 344.103 98.6449 344.148C98.7462 344.173 98.8415 344.372 98.8776 344.509C99.0179 345.041 99.1333 345.58 99.2583 346.116C99.2861 346.13 99.3133 346.145 99.3411 346.159ZM99.6389 352.533C99.485 352.747 99.4862 352.888 99.6952 353.055C100.33 353.56 100.967 354.064 101.564 354.614C102.218 355.218 102.825 355.876 103.46 356.502C103.524 356.565 103.64 356.6 103.733 356.6C104.271 356.604 104.814 356.486 105.334 356.744C105.496 356.825 105.686 356.842 105.885 356.893C105.899 356.771 105.919 356.682 105.917 356.595C105.903 355.831 105.87 355.067 105.876 354.303C105.878 354.011 105.783 353.889 105.512 353.838C104.714 353.688 103.917 353.524 103.122 353.356C102.392 353.202 101.663 353.042 100.937 352.873C100.509 352.773 100.085 352.651 99.6389 352.533ZM96.3337 352.154C96.3041 352.109 96.2745 352.065 96.2449 352.02C95.8637 351.939 95.4836 351.853 95.1012 351.779C94.2244 351.611 93.3435 351.461 92.4691 351.28C91.7131 351.123 90.9631 350.935 90.2106 350.759C90.0117 350.712 89.8844 350.775 89.7749 350.964C89.4292 351.562 89.0704 352.152 88.7046 352.738C88.5021 353.061 88.5145 353.111 88.8739 353.18C89.5381 353.306 90.168 353.523 90.6765 354C90.8382 354.152 90.956 354.153 91.1419 354.047C92.1637 353.463 93.1647 352.834 94.3535 352.638C94.9461 352.54 95.528 352.371 96.1147 352.233C96.1893 352.215 96.2609 352.181 96.3337 352.155V352.154ZM96.387 350.855C96.3971 350.837 96.4072 350.819 96.4172 350.801C96.3681 350.745 96.3249 350.682 96.2692 350.636C95.798 350.245 95.3279 349.852 94.8502 349.47C94.0847 348.857 93.4087 348.155 92.7924 347.386C92.6663 347.228 92.4105 347.04 92.2536 347.072C91.6208 347.198 91.0169 347.222 90.4249 346.921C90.3178 346.867 90.2006 346.834 90.0893 346.793C90.0893 347.062 90.0828 347.293 90.0905 347.523C90.1106 348.117 90.1603 348.711 90.1544 349.304C90.1502 349.7 90.1189 349.69 90.496 349.759C91.9251 350.02 93.3524 350.289 94.7803 350.554C95.3161 350.654 95.8513 350.755 96.3864 350.856L96.387 350.855ZM96.8198 350.099C96.9453 349.716 97.0418 349.41 97.1448 349.107C97.2318 348.851 97.3621 348.603 97.4076 348.339C97.4964 347.824 97.1075 347.467 96.8956 347.077C96.6138 346.558 96.2071 346.106 95.824 345.651C95.3475 345.086 94.8425 344.546 94.344 344.001C94.2978 343.95 94.196 343.895 94.1516 343.916C94.1001 343.94 94.0693 344.041 94.0569 344.114C94.0415 344.201 94.0681 344.296 94.0539 344.384C94.0066 344.687 94.0007 345.012 93.8834 345.284C93.7058 345.697 93.4483 346.072 93.2429 346.432C94.1646 347.91 95.6198 348.818 96.8192 350.098L96.8198 350.099ZM102.592 357.179C102.196 356.605 99.9521 354.373 99.1582 354.013C99.0274 354.308 98.9285 354.626 98.7586 354.896C98.4887 355.324 98.5763 355.726 98.7805 356.118C99.0096 356.558 99.2606 356.988 99.5288 357.404C99.9864 358.114 100.441 358.829 100.945 359.504C101.21 359.859 101.577 360.135 101.868 360.418C101.852 359.845 101.812 359.281 101.828 358.718C101.845 358.103 102.182 357.63 102.592 357.18V357.179ZM104.982 345.972C104.798 346.005 104.678 346.007 104.574 346.049C104.038 346.263 103.484 346.446 102.976 346.719C102.092 347.194 101.224 347.707 100.481 348.41C100.253 348.626 100.057 348.824 100.118 349.203C100.163 349.474 100.097 349.764 100.079 350.045C100.066 350.245 100.052 350.445 100.036 350.675C100.172 350.626 100.245 350.596 100.32 350.573C100.992 350.373 101.676 350.205 102.335 349.966C102.876 349.77 103.387 349.488 103.913 349.249C104.322 349.064 104.33 349.066 104.196 348.627C104.01 348.014 104.106 347.435 104.397 346.889C104.554 346.594 104.756 346.324 104.982 345.972ZM105.04 349.811C104.328 350.158 103.579 350.577 102.791 350.89C102.009 351.2 101.186 351.404 100.381 351.655C100.384 351.686 100.387 351.719 100.39 351.75C100.567 351.792 100.742 351.842 100.921 351.874C101.382 351.958 101.848 352.023 102.308 352.116C103.54 352.364 104.77 352.627 106.004 352.868C106.105 352.888 106.285 352.819 106.333 352.734C106.619 352.233 106.886 351.719 107.141 351.2C107.243 350.992 107.298 350.761 107.386 350.505C106.525 350.523 105.747 350.429 105.041 349.812L105.04 349.811ZM91.2324 357.559C91.3745 357.542 91.4467 357.55 91.5048 357.524C92.1341 357.244 92.7924 357.013 93.3796 356.659C94.0871 356.233 94.7383 355.707 95.4037 355.21C95.6038 355.06 95.8767 354.892 95.9306 354.682C96.0466 354.234 96.0413 353.752 96.0881 353.259C94.463 353.702 92.8676 354.162 91.4876 355.199C91.7066 355.972 91.5942 356.75 91.2313 357.559H91.2324ZM105.877 357.758C105.668 357.721 105.487 357.669 105.303 357.66C104.884 357.641 104.46 357.6 104.045 357.646C103.428 357.716 102.956 358.179 102.871 358.755C102.83 359.031 102.798 359.33 102.859 359.595C102.974 360.099 103.157 360.586 103.322 361.075C103.337 361.122 103.434 361.169 103.49 361.166C103.877 361.144 104.256 361.078 104.541 360.775C105.267 360.005 105.645 359.055 105.861 358.025C105.879 357.942 105.872 357.852 105.877 357.758ZM107.926 348.076C107.918 348.075 107.908 348.073 107.899 348.072C107.891 347.931 107.891 347.789 107.872 347.65C107.78 347.002 107.577 346.428 106.966 346.087C106.761 345.973 106.591 345.976 106.433 346.122C106.107 346.423 105.752 346.706 105.486 347.057C104.811 347.951 105.049 348.77 105.889 349.236C106.329 349.481 106.843 349.582 107.318 349.761C107.574 349.857 107.688 349.75 107.725 349.507C107.796 349.031 107.86 348.552 107.926 348.076ZM93.2802 343.976C93.2802 343.93 93.2826 343.859 93.2802 343.789C93.2589 343.225 93.208 343.139 92.6681 343.067C92.417 343.035 92.1518 343.101 91.8949 343.133C91.2307 343.217 90.6665 343.442 90.4776 344.199C90.4054 344.49 90.3284 344.78 90.2278 345.061C90.1195 345.363 90.2669 345.647 90.4178 345.803C90.7997 346.198 91.3088 346.374 91.8523 346.206C92.7302 345.935 93.3489 344.87 93.2802 343.976ZM87.8479 355.505C87.8888 356.696 88.2612 357.502 89.4262 357.712C89.5328 357.732 89.6932 357.671 89.7684 357.589C89.9324 357.41 90.0656 357.198 90.1982 356.99C90.7239 356.166 90.4948 355.304 89.8033 354.721C89.3996 354.381 88.9053 354.253 88.4169 354.112C88.1966 354.048 88.099 354.168 88.0611 354.359C87.9746 354.793 87.8989 355.229 87.8479 355.505ZM97.0661 355.379C97.1051 355.396 97.1436 355.413 97.1827 355.43C97.3017 355.252 97.4568 355.09 97.5326 354.895C97.8268 354.136 98.137 353.381 98.3649 352.6C98.7787 351.183 99.1073 349.744 99.0327 348.245C99.0297 348.183 98.9954 348.097 98.9492 348.071C98.909 348.049 98.8113 348.076 98.7746 348.115C98.6745 348.225 98.5597 348.341 98.51 348.477C98.3099 349.024 98.0926 349.57 97.9541 350.135C97.6427 351.403 97.2969 352.667 97.1774 353.977C97.1347 354.444 97.1034 354.912 97.0661 355.379Z"
                  fill="#B8AE91"/>
            <path d="M102.395 322.591C103.453 322.707 104.329 322.333 105.137 321.776C106.156 321.074 106.969 320.172 107.45 318.999C107.602 318.626 107.669 318.213 107.754 317.814C107.794 317.623 107.864 317.479 108.065 317.493C108.564 317.53 108.669 317.604 108.648 317.887C108.583 318.796 108.808 319.642 109.191 320.446C109.761 321.645 110.514 322.695 111.658 323.381C111.961 323.563 112.318 323.65 112.647 323.788C112.793 323.848 113.039 323.744 113.022 324.073C112.994 324.59 112.911 324.78 112.595 324.789C111.898 324.807 111.241 324.987 110.622 325.303C109.65 325.801 108.859 326.51 108.262 327.455C107.853 328.101 107.613 328.797 107.54 329.556C107.521 329.762 107.44 329.842 107.245 329.826C107.178 329.821 107.108 329.835 107.04 329.845C106.77 329.885 106.633 329.764 106.6 329.486C106.536 328.966 106.492 328.44 106.378 327.932C106.304 327.598 106.137 327.283 105.983 326.974C105.488 325.978 104.898 325.04 104.034 324.349C103.654 324.046 103.155 323.883 102.691 323.712C102.314 323.574 101.907 323.38 102.138 322.86C102.186 322.753 102.306 322.679 102.393 322.59L102.395 322.591ZM107.212 327.652C108.093 325.92 109.45 324.759 111.308 324.146C109.66 323.076 108.658 321.556 108.043 319.697C107.099 321.419 105.754 322.604 103.986 323.29C105.569 324.351 106.454 325.935 107.212 327.652Z"
                  fill="#B8AE91"/>
            <path d="M91.6751 323.875C91.6189 325.706 91.2104 327.217 90.4846 328.636C90.1584 329.274 89.8174 329.903 89.4622 330.524C89.403 330.627 89.2325 330.734 89.1224 330.725C88.2291 330.649 87.334 330.574 86.4471 330.445C85.0257 330.238 83.6168 329.926 82.4002 329.105C81.4844 328.486 80.7313 327.67 80.2926 326.603C80.1293 326.206 79.9203 325.816 79.8398 325.4C79.6284 324.313 79.896 323.336 80.6165 322.496C81.2428 321.766 82.0485 321.359 82.9454 321.114C83.1141 321.068 83.3048 321.085 83.4605 321.014C83.6304 320.938 83.7973 320.817 83.9216 320.676C84.7836 319.698 85.8095 318.967 87.0711 318.703C88.885 318.325 90.2981 319.222 91.0618 320.843C91.5449 321.87 91.7385 322.959 91.6757 323.874L91.6751 323.875ZM88.6405 329.577C88.6979 329.464 88.7293 329.332 88.8092 329.254C89.2017 328.867 89.4178 328.374 89.6517 327.884C90.2827 326.56 90.6048 325.156 90.6001 323.693C90.5971 322.715 90.423 321.759 89.8601 320.909C89.3249 320.101 88.6139 319.696 87.6726 319.729C87.1771 319.746 86.7266 319.932 86.2861 320.166C85.6752 320.49 85.1429 320.912 84.6972 321.443C84.4817 321.701 84.2413 321.867 83.9134 321.929C82.978 322.107 82.0734 322.359 81.4175 323.148C80.9326 323.73 80.7011 324.392 80.8604 325.156C81.0072 325.861 81.3251 326.479 81.7602 327.053C82.4766 327.996 83.4096 328.582 84.5048 328.916C85.8474 329.325 87.2292 329.496 88.6405 329.578V329.577Z"
                  fill="#B8AE91"/>
        </g>
    </g>
    <defs>
        <clipPath id="clip0_3407_10664">
            <rect width="291" height="398" fill="white"/>
        </clipPath>
    </defs>
</svg>
