<svg width="100" height="100" viewBox="0 0 100 100" fill="none" xmlns="http://www.w3.org/2000/svg">
<path d="M50.4093 73.0765C62.7896 73.0765 72.8873 62.9745 72.8873 50.5968C72.8873 38.2192 62.7887 28.1172 50.4093 28.1172C38.0284 28.1172 27.9297 38.2178 27.9297 50.5968C27.9297 62.975 38.0275 73.0765 50.4093 73.0765Z" fill="#EDBD56"/>
<path d="M13.4843 58.0754L2.00007 65.5566L15.9186 65.1926C23.5606 64.9955 27.7175 70.4347 25.1508 77.2933L20.488 89.7579L31.5239 81.6804C37.5849 77.2492 44.3072 79.3297 46.4729 86.3045L50.4043 99.0008L54.3342 86.3045C56.4978 79.3297 63.2206 77.2492 69.2819 81.6804L80.3156 89.7579L75.6522 77.2933C73.0862 70.4347 77.2424 64.9954 84.8857 65.1926L98.8036 65.5566L87.3194 58.0747C81.0144 53.9624 81.0144 47.2361 87.3221 43.1257L98.8056 35.6418L84.887 36.0064C77.243 36.2049 73.0875 30.7637 75.6556 23.9057L80.3209 11.4404L69.2851 19.5199C63.224 23.9475 56.5017 21.8671 54.3368 14.8936L50.4033 2.19531L46.4727 14.8915C44.3072 21.8657 37.5849 23.9455 31.5231 19.5178L20.488 11.439L25.1514 23.905C27.7188 30.7616 23.5612 36.2023 15.9193 36.0057L2 35.6417L13.4829 43.1257C19.7898 47.2359 19.7898 53.9629 13.4842 58.0752L13.4843 58.0754ZM50.4036 24.5323C64.7785 24.5323 76.4667 36.2252 76.4667 50.5972C76.4667 64.9682 64.7787 76.6638 50.4036 76.6638C36.0279 76.6645 24.3387 64.9723 24.3387 50.5972C24.3387 36.2221 36.0274 24.5305 50.4036 24.5305L50.4036 24.5323Z" fill="#EDBD56"/>
</svg>
