<svg width="100" height="100" viewBox="0 0 100 100" fill="none" xmlns="http://www.w3.org/2000/svg">
<path d="M64.7954 68.4684C65.071 68.2004 65.5174 68.2004 65.793 68.4684C66.0686 68.7365 66.0686 69.1706 65.793 69.4386L49.9999 84.798C49.9354 84.8612 49.8582 84.9115 49.772 84.9464C49.6874 84.9813 49.5954 85 49.5009 85C49.4064 85 49.3143 84.9813 49.2292 84.9469C49.1436 84.9119 49.0663 84.8617 49.0013 84.7985L33.2082 69.4391C32.9326 69.171 32.9326 68.7369 33.2082 68.4689C33.4838 68.2009 33.9302 68.2009 34.2058 68.4689L48.7957 82.6581L48.7947 18.3431L34.2048 32.5324C34.067 32.6665 33.8864 32.7335 33.7057 32.7335C33.5251 32.7335 33.3445 32.6665 33.2067 32.5324C32.9311 32.2644 32.9311 31.8303 33.2067 31.5622L49.0011 16.2015C49.1291 16.0771 49.3053 16 49.5006 16C49.696 16 49.8722 16.0771 50.0002 16.2015L65.7933 31.5622C66.0689 31.8303 66.0689 32.2644 65.7933 32.5324C65.5177 32.8005 65.0713 32.8005 64.7957 32.5324L50.207 18.3431L50.2081 82.6581L64.7954 68.4684Z" fill="#9B85FF"/>
<path fill-rule="evenodd" clip-rule="evenodd" d="M64.0982 67.7516L51.208 80.2903L51.2071 20.7108L64.0985 33.2493C64.7622 33.8948 65.8267 33.8949 66.4905 33.2493C67.1698 32.5886 67.1698 31.5061 66.4905 30.8454L50.6974 15.4847C50.3882 15.184 49.9639 15 49.5006 15C49.0373 15 48.6131 15.184 48.3039 15.4846L32.5095 30.8453C31.8302 31.506 31.8302 32.5886 32.5095 33.2493C32.8443 33.5749 33.2794 33.7335 33.7057 33.7335C34.1321 33.7335 34.5672 33.5749 34.902 33.2493L47.7947 20.7106L47.7957 80.2906L34.903 67.752C34.2392 67.1065 33.1748 67.1065 32.511 67.752C31.8317 68.4127 31.8317 69.4953 32.511 70.156L48.3041 85.5154L49.0013 84.7985L33.2082 69.4391C32.9326 69.171 32.9326 68.7369 33.2082 68.4689C33.4838 68.2009 33.9302 68.2009 34.2058 68.4689L48.7957 82.6581L48.7947 18.3431L34.2048 32.5324C34.067 32.6665 33.8864 32.7335 33.7057 32.7335C33.5251 32.7335 33.3445 32.6665 33.2067 32.5324C32.9311 32.2644 32.9311 31.8303 33.2067 31.5622L49.0011 16.2015C49.0604 16.1439 49.13 16.0964 49.207 16.0621C49.2277 16.0528 49.2489 16.0446 49.2706 16.0373C49.3426 16.0131 49.42 16 49.5006 16C49.5814 16 49.659 16.0132 49.7312 16.0374C49.7528 16.0447 49.774 16.053 49.7947 16.0622C49.8716 16.0966 49.941 16.144 50.0002 16.2015L65.7933 31.5622C66.0689 31.8303 66.0689 32.2644 65.7933 32.5324C65.5177 32.8005 65.0713 32.8005 64.7957 32.5324L50.207 18.3431L50.2081 82.6581L64.7954 68.4684C65.071 68.2004 65.5174 68.2004 65.793 68.4684C66.0686 68.7365 66.0686 69.1706 65.793 69.4386L49.9999 84.798C49.9414 84.8553 49.8724 84.902 49.7957 84.9363C49.7879 84.9398 49.78 84.9432 49.772 84.9464C49.7584 84.952 49.7445 84.9573 49.7304 84.9621C49.6576 84.9869 49.5801 85 49.5009 85C49.4223 85 49.3454 84.9871 49.2728 84.9629C49.2581 84.958 49.2435 84.9527 49.2292 84.9469C49.2221 84.944 49.2151 84.941 49.2081 84.9379C49.1309 84.9035 49.0609 84.8564 49.0013 84.7985L48.3041 85.5154C48.4635 85.6703 48.6499 85.7905 48.8514 85.8728L48.854 85.8738C49.0551 85.9552 49.2743 86 49.5009 86C49.7272 86 49.9488 85.9553 50.1536 85.8707C50.3533 85.7889 50.5388 85.6694 50.6975 85.5145L50.6998 85.5122L66.4902 70.1555C67.1696 69.4948 67.1696 68.4122 66.4902 67.7515C65.8265 67.106 64.7619 67.1061 64.0982 67.7516Z" fill="#9B85FF"/>
</svg>
