<svg width="291" height="398" viewBox="0 0 291 398" fill="none" xmlns="http://www.w3.org/2000/svg">
<rect width="291" height="398" fill="#FEFBE9"/>
<path d="M0.152344 15H290.998" stroke="#E5D9B6"/>
<path d="M0.152344 34.4766H290.998" stroke="#E5D9B6"/>
<path d="M0.152344 72.7734H290.998" stroke="#E5D9B6"/>
<path d="M0.152344 92.25H290.998" stroke="#E5D9B6"/>
<path d="M0.152344 111.711H290.998" stroke="#E5D9B6"/>
<path d="M0.152344 131.188H290.998" stroke="#E5D9B6"/>
<path d="M0.152344 150.656H290.998" stroke="#E5D9B6"/>
<path d="M0.152344 169.5H290.998" stroke="#E5D9B6"/>
<path d="M0.152344 188.961H290.998" stroke="#E5D9B6"/>
<path d="M0.152344 208.438H290.998" stroke="#E5D9B6"/>
<path d="M0 227.891H290.846" stroke="#E5D9B6"/>
<path d="M0.152344 247.375H290.998" stroke="#E5D9B6"/>
<path d="M0.152344 266.211H290.998" stroke="#E5D9B6"/>
<path d="M0.152344 285.688H290.998" stroke="#E5D9B6"/>
<path d="M0.152344 305.148H290.998" stroke="#E5D9B6"/>
<path d="M0.152344 324.625H290.998" stroke="#E5D9B6"/>
<path d="M0.152344 344.086H290.998" stroke="#E5D9B6"/>
<path d="M0.152344 362.938H290.998" stroke="#E5D9B6"/>
<path d="M0.152344 382.398H290.998" stroke="#E5D9B6"/>
<path d="M0.152344 53.3125H290.998" stroke="#E5D9B6"/>
<rect x="26" y="15" width="207" height="136" rx="10" fill="#E5D9B6" fill-opacity="0.5"/>
<g clip-path="url(#clip0_873_2810)">
<path d="M140.981 101.76C140.923 101.698 140.875 101.647 140.846 101.616C140.696 101.624 140.567 101.631 140.426 101.638C140.402 101.568 140.035 101.561 139.816 101.595C139.585 101.631 139.345 101.598 139.109 101.598C138.878 101.598 138.647 101.603 138.416 101.602C138.187 101.601 137.958 101.594 137.729 101.593C137.478 101.592 137.227 101.597 136.976 101.598C136.744 101.599 136.511 101.598 136.276 101.598C136.274 101.619 136.27 101.649 136.267 101.683C136.178 101.605 136.11 101.548 135.969 101.582C135.802 101.622 135.617 101.576 135.44 101.581C135.125 101.589 134.805 101.649 134.496 101.611C134.143 101.568 133.793 101.637 133.437 101.576C133.141 101.525 132.825 101.58 132.519 101.594C132.474 101.596 132.431 101.63 132.413 101.637C132.342 101.619 132.279 101.589 132.217 101.589C131.999 101.589 131.775 101.57 131.565 101.612C131.229 101.679 130.909 101.557 130.577 101.579C130.194 101.604 129.809 101.59 129.425 101.588C129.15 101.586 128.877 101.568 128.603 101.572C128.272 101.577 127.939 101.584 127.61 101.615C127.398 101.635 127.198 101.589 126.992 101.571C126.964 101.569 126.937 101.559 126.91 101.561C126.671 101.582 126.432 101.605 126.193 101.624C126.173 101.625 126.15 101.591 126.125 101.57C126.105 101.619 126.087 101.666 126.083 101.677C126.035 101.658 126 101.633 125.964 101.631C125.731 101.619 125.498 101.605 125.264 101.604C125.088 101.603 124.911 101.622 124.734 101.626C124.618 101.629 124.5 101.615 124.383 101.618C124.31 101.619 124.238 101.645 124.165 101.644C124.057 101.643 123.948 101.63 123.839 101.619C123.813 101.616 123.789 101.588 123.764 101.589C123.393 101.6 123.009 101.56 122.658 101.65C122.457 101.702 122.345 101.577 122.176 101.584C121.246 101.618 120.314 101.616 119.383 101.614C118.961 101.612 118.538 101.594 118.117 101.558C117.845 101.536 117.576 101.474 117.308 101.417C117.086 101.37 116.87 101.272 116.648 101.257C116.496 101.248 116.358 101.283 116.306 101.184C115.574 101.025 114.972 100.677 114.338 100.394C114.375 100.344 114.399 100.313 114.386 100.33C114.251 100.207 114.122 100.099 114.006 99.9796C113.921 99.8907 113.864 99.7747 113.777 99.6889C113.621 99.5358 113.587 99.3443 113.55 99.1429C113.518 98.9717 113.434 98.8104 113.396 98.6401C113.354 98.4529 113.337 98.2602 113.313 98.0695C113.286 97.8587 113.254 97.6478 113.242 97.436C113.232 97.2325 113.091 97.0457 113.174 96.8292C113.188 96.7943 113.155 96.7348 113.132 96.693C112.987 96.4334 112.997 96.147 113.003 95.8667C113.006 95.7498 113.114 95.6282 113.098 95.5195C113.002 94.8455 113.16 94.1718 113.067 93.4922C113.013 93.0954 113.102 92.6741 113.084 92.2588C113.06 91.7193 113.095 91.1776 113.095 90.6364C113.094 90.1853 113.074 89.7342 113.071 89.2831C113.069 89.0964 113.134 88.8971 113.088 88.7259C113.022 88.4874 113.14 88.2679 113.083 88.0269C113.028 87.7953 113.09 87.5357 113.103 87.289C113.104 87.2674 113.125 87.2471 113.147 87.2088C113.09 87.2191 113.064 87.2243 113.037 87.2295C113.035 87.2269 113.031 87.2213 113.026 87.2161C113.174 87.116 113.042 86.9845 113.065 86.8832C113.156 86.4709 113.071 86.0603 113.093 85.6498C113.119 85.1616 113.112 84.6708 113.112 84.1813C113.112 83.8199 113.095 83.459 113.094 83.0976C113.091 82.3416 113.093 81.5852 113.094 80.8292C113.094 80.5812 113.126 80.3298 113.096 80.0857C113.069 79.8778 113.155 79.6665 113.094 79.4763C112.966 79.0847 113.14 78.7096 113.113 78.3249C113.089 77.9846 113.141 77.6344 113.083 77.3019C113.017 76.9263 113.147 76.5688 113.104 76.1996C113.067 75.8848 113.068 75.5657 113.059 75.2483C113.056 75.1443 113.084 75.04 113.082 74.936C113.079 74.7515 113.059 74.5669 113.053 74.3819C113.05 74.2861 113.064 74.19 113.067 74.0938C113.075 73.8204 113.126 73.5375 113.072 73.277C113.038 73.1192 113.106 72.9975 113.098 72.8544C113.073 72.3433 113.106 71.8297 113.095 71.3178C113.088 71.0095 113.02 70.7024 113.019 70.3945C113.019 70.0986 113.057 69.8002 113.105 69.5074C113.148 69.2486 113.232 68.9968 113.291 68.7406C113.361 68.437 113.411 68.1274 113.497 67.8281C113.555 67.6228 113.705 67.4365 113.73 67.2312C113.755 67.038 113.839 66.8862 113.899 66.7146C114.015 66.3825 114.235 66.1212 114.405 65.8266C114.606 65.479 114.91 65.2638 115.274 65.112C115.482 65.0253 115.672 64.8951 115.879 64.8067C116.007 64.7519 116.171 64.7674 116.288 64.6989C116.465 64.5949 116.643 64.5678 116.842 64.5561C117.061 64.5432 117.279 64.4543 117.495 64.4608C117.804 64.4703 118.087 64.3845 118.375 64.3073C118.423 64.2944 118.47 64.2698 118.517 64.2685C119.028 64.256 119.54 64.2413 120.051 64.2391C120.324 64.2379 120.597 64.262 120.871 64.2693C120.962 64.2719 121.054 64.2551 121.145 64.2534C121.59 64.2439 122.035 64.234 122.479 64.2297C122.736 64.2271 122.993 64.2357 123.251 64.2361C123.682 64.2361 124.113 64.2322 124.544 64.2335C124.858 64.2344 125.172 64.2465 125.486 64.2439C125.709 64.2417 125.933 64.2202 126.156 64.2133C126.549 64.2016 126.941 64.1896 127.334 64.1878C127.861 64.1857 128.389 64.1921 128.916 64.1969C129.537 64.2021 130.159 64.2176 130.78 64.2103C130.993 64.2077 131.23 64.0761 131.412 64.1369C131.666 64.2215 131.899 64.1689 132.14 64.1727C132.4 64.1766 132.66 64.1486 132.919 64.1473C133.307 64.1456 133.695 64.1594 134.084 64.1594C134.414 64.1594 134.745 64.1482 135.076 64.1443C135.174 64.143 135.273 64.1525 135.372 64.1533C135.762 64.1559 136.152 64.1581 136.542 64.1585C137.005 64.1589 137.467 64.1654 137.93 64.1559C138.497 64.1438 139.064 64.1128 139.631 64.099C140.02 64.0895 140.411 64.1055 140.799 64.0891C141.056 64.0783 141.312 64.0192 141.569 64.0024C141.737 63.9916 141.908 64.0205 142.078 64.0257C142.282 64.0317 142.488 64.0171 142.69 64.0365C143.098 64.0753 143.518 64.0873 143.91 64.1934C144.24 64.2831 144.547 64.4768 144.849 64.651C144.989 64.7321 145.09 64.8796 145.214 64.9904C145.29 65.0585 145.399 65.0995 145.456 65.1789C145.877 65.7619 146.174 66.3993 146.295 67.1152C146.355 67.4675 146.401 67.8311 146.53 68.1597C146.638 68.4374 146.571 68.707 146.62 68.9722C146.67 69.2422 146.79 69.4983 146.873 69.7623C146.918 69.9024 146.975 70.0447 146.983 70.1888C147.005 70.5709 147.003 70.9547 147.011 71.3376C147.024 71.9216 147.046 72.5051 147.049 73.089C147.053 73.7268 147.034 74.3646 147.036 75.0025C147.036 75.288 147.07 75.5734 147.076 75.8594C147.086 76.2798 147.088 76.7008 147.09 77.1217C147.091 77.3356 147.083 77.5495 147.086 77.7634C147.092 78.2925 147.107 78.8212 147.109 79.3504C147.111 79.8226 147.094 80.2953 147.096 80.7675C147.098 81.0772 147.126 81.3868 147.13 81.6969C147.132 81.8452 147.091 81.994 147.092 82.1424C147.094 82.3205 147.135 82.4986 147.133 82.6763C147.131 83.095 147.101 83.5142 147.106 83.9325C147.109 84.2357 147.194 84.5427 147.166 84.8407C147.117 85.3444 147.255 85.8434 147.145 86.3514C147.088 86.6136 147.188 86.9069 147.192 87.1863C147.196 87.5658 147.167 87.9462 147.17 88.3257C147.172 88.6358 147.208 88.9454 147.217 89.2559C147.227 89.5936 147.227 89.9322 147.225 90.2698C147.223 90.5959 147.207 90.9223 147.208 91.2483C147.209 91.7421 147.217 92.2355 147.227 92.7293C147.238 93.2218 147.263 93.7143 147.267 94.2068C147.27 94.613 147.245 95.0197 147.245 95.4259C147.245 95.5752 147.255 95.7343 147.307 95.871C147.41 96.1405 147.421 96.4135 147.391 96.6904C147.372 96.8625 147.313 97.0302 147.286 97.2019C147.27 97.3045 147.3 97.4158 147.277 97.5154C147.218 97.7698 147.106 98.0165 147.08 98.2727C147.044 98.647 146.803 98.9364 146.721 99.2853C146.641 99.6238 146.467 99.9209 146.256 100.178C146.089 100.382 145.828 100.507 145.62 100.68C145.348 100.906 145.038 101.071 144.741 101.257C144.432 101.45 144.096 101.566 143.741 101.621C143.383 101.676 143.02 101.699 142.662 101.755C142.296 101.812 141.932 101.752 141.567 101.767C141.401 101.774 141.234 101.715 141.065 101.697C141.037 101.694 141.001 101.745 140.98 101.762L140.981 101.76ZM124.361 80.2375C124.214 80.297 124.069 80.322 123.97 80.4022C123.777 80.5592 123.609 80.7472 123.431 80.9236C123.388 80.9667 123.356 81.022 123.309 81.0608C123.15 81.1932 122.98 81.3118 122.829 81.4528C122.683 81.5899 122.566 81.7577 122.42 81.8952C122.001 82.2907 121.572 82.6758 121.151 83.0696C121.044 83.1696 120.959 83.2942 120.852 83.3947C120.762 83.4793 120.642 83.5327 120.557 83.6211C120.455 83.7264 120.4 83.9127 120.284 83.9562C120.153 84.0058 120.035 84.0748 119.952 84.1615C119.573 84.5552 119.086 84.8394 118.787 85.313C118.777 85.3289 118.753 85.3388 118.734 85.3466C118.419 85.479 118.225 85.7537 117.993 85.9831C117.821 86.1548 117.678 86.3579 117.501 86.5239C117.359 86.6568 117.175 86.7288 117.035 86.8849C116.834 87.11 116.582 87.2929 116.337 87.4744C115.94 87.7694 116.163 88.1925 116.095 88.5547C116.078 88.6474 116.069 88.7436 116.072 88.8376C116.076 88.9735 116.105 89.1089 116.104 89.2443C116.101 89.6212 116.074 89.9986 116.08 90.3751C116.088 90.7934 116.137 91.2108 116.14 91.6287C116.143 91.9496 116.093 92.2704 116.085 92.5917C116.075 92.9798 116.084 93.3684 116.086 93.7565C116.087 93.8596 116.095 93.9627 116.098 94.0662C116.112 94.4284 116.148 94.792 116.13 95.1525C116.116 95.4402 116.048 95.7239 116.167 96.0043C116.18 96.0353 116.179 96.0737 116.177 96.1086C116.157 96.7176 116.204 97.3204 116.346 97.9143C116.355 97.9518 116.382 98.001 116.413 98.0152C116.621 98.1079 116.826 98.2265 117.045 98.2718C117.448 98.355 117.861 98.3921 118.269 98.4512C118.422 98.4732 118.576 98.4956 118.728 98.5306C118.858 98.5607 118.984 98.6414 119.112 98.6431C119.52 98.6483 119.928 98.625 120.336 98.6159C120.748 98.6069 121.16 98.5961 121.573 98.5961C122.234 98.5957 122.894 98.6052 123.555 98.6065C124.072 98.6073 124.589 98.6004 125.106 98.6013C125.73 98.6021 126.355 98.6099 126.98 98.6086C127.459 98.6077 127.939 98.5922 128.419 98.5952C128.759 98.5974 129.098 98.6289 129.438 98.6285C129.733 98.6285 130.027 98.5944 130.322 98.5888C130.474 98.5858 130.627 98.625 130.778 98.6198C130.968 98.6134 131.158 98.5638 131.348 98.5625C131.692 98.5599 132.037 98.5814 132.381 98.5879C132.632 98.5927 132.883 98.5892 133.134 98.5892C133.444 98.5892 133.754 98.5892 134.063 98.5896C134.447 98.5905 134.832 98.5922 135.216 98.594C135.473 98.5948 135.729 98.6017 135.985 98.5961C136.225 98.5909 136.464 98.5607 136.703 98.562C137.323 98.5655 137.944 98.5832 138.564 98.5896C139.018 98.5944 139.471 98.5918 139.925 98.5883C140.431 98.5845 140.937 98.5724 141.444 98.5724C141.551 98.5724 141.659 98.6034 141.764 98.6306C141.924 98.6724 142.08 98.7427 142.242 98.766C142.488 98.8014 142.727 98.7608 142.976 98.7108C143.302 98.6453 143.542 98.4551 143.817 98.3162C143.875 98.2869 143.932 98.217 143.95 98.1545C144.059 97.7797 144.288 97.4412 144.29 97.0345C144.29 96.925 144.291 96.815 144.297 96.7055C144.315 96.3419 144.235 95.9792 144.303 95.6131C144.329 95.4678 144.283 95.3099 144.279 95.1577C144.271 94.9179 144.273 94.6777 144.265 94.4379C144.261 94.3189 144.214 94.1951 144.235 94.0821C144.279 93.8355 144.285 93.5918 144.247 93.346C144.229 93.2321 144.144 93.0471 144.18 93.0208C144.344 92.9022 144.239 92.7677 144.239 92.6452C144.237 92.1156 144.25 91.5847 144.209 91.0577C144.185 90.7429 144.185 90.4354 144.21 90.1223C144.22 89.9999 144.197 89.858 144.14 89.751C144.075 89.6273 143.947 89.538 143.86 89.4233C143.523 88.9817 143.194 88.5344 142.855 88.0946C142.816 88.0428 142.737 88.0213 142.697 87.9984C142.688 87.9238 142.704 87.8362 142.666 87.791C142.504 87.5917 142.325 87.4054 142.154 87.2135C141.91 86.9401 141.763 86.5959 141.464 86.3553C141.255 86.1867 141.108 85.9366 140.945 85.7145C140.768 85.4747 140.598 85.2297 140.439 84.9783C140.25 84.6803 140.13 84.6859 139.914 84.9602C139.675 85.2638 139.403 85.542 139.138 85.8249C138.964 86.0094 138.742 86.1587 138.607 86.3665C138.414 86.6637 138.082 86.8461 137.956 87.1915C137.953 87.1997 137.907 87.1868 137.896 87.198C137.739 87.3636 137.585 87.5318 137.43 87.6991C137.446 87.7129 137.461 87.7267 137.476 87.7405C137.428 87.7194 137.379 87.6982 137.32 87.6732C137.327 87.7271 137.347 87.7772 137.332 87.7935C137.123 88.0144 136.906 88.227 136.7 88.4491C136.637 88.5159 136.614 88.6203 136.549 88.6832C136.301 88.9256 136.04 89.1555 135.789 89.3961C135.485 89.6876 135.186 89.9852 134.886 90.2797C134.682 90.479 134.452 90.6015 134.174 90.5165C134.235 90.416 134.302 90.3073 134.394 90.1568C134.043 90.2396 134.27 89.9343 134.131 89.8886C133.8 90.2263 133.72 90.2483 133.378 90.1314C133.24 90.0844 133.102 90.0413 132.973 89.999C132.931 89.9304 132.895 89.8554 132.843 89.7942C132.804 89.748 132.699 89.7165 132.701 89.6833C132.712 89.5048 132.564 89.4509 132.475 89.3478C132.293 89.1356 132.125 88.9105 131.939 88.7009C131.812 88.5573 131.639 88.4642 131.559 88.2658C131.524 88.1756 131.377 88.1299 131.249 88.0428C131.242 88.0243 131.237 87.9372 131.191 87.8854C130.907 87.5624 130.613 87.2489 130.325 86.9297C130.009 86.58 129.701 86.2229 129.379 85.8783C129.285 85.7774 129.108 85.7326 129.054 85.6213C128.952 85.4091 128.812 85.2522 128.646 85.0874C128.358 84.8002 128.123 84.4599 127.861 84.1464C127.843 84.1253 127.778 84.1438 127.727 84.1438C127.571 83.9165 127.422 83.6332 127.21 83.4103C127.016 83.2071 126.798 83.029 126.618 82.8069C126.384 82.5163 126.082 82.2817 125.881 81.9599C125.871 81.944 125.843 81.941 125.827 81.9272C125.729 81.8422 125.62 81.7654 125.536 81.668C125.352 81.4545 125.19 81.2208 125 81.0129C124.787 80.7779 124.465 80.639 124.361 80.2366L124.361 80.2375ZM139.974 80.9918C140.187 81.0508 140.364 81.1091 140.545 81.147C140.66 81.1712 140.795 81.1354 140.898 81.1794C141.085 81.2591 141.284 81.3497 141.427 81.4886C141.714 81.7685 141.977 82.0759 142.231 82.3882C142.387 82.5818 142.493 82.8164 142.648 83.0118C142.986 83.4366 143.341 83.8463 143.685 84.265C143.824 84.4345 143.953 84.6122 144.087 84.786C144.105 84.7821 144.123 84.7778 144.141 84.7739C144.151 84.7027 144.169 84.6316 144.168 84.5608C144.162 84.1261 144.147 83.691 144.143 83.2563C144.141 82.9617 144.159 82.6672 144.154 82.3731C144.151 82.2644 144.085 82.1562 144.087 82.0483C144.091 81.8461 144.14 81.6447 144.14 81.4424C144.141 81.0931 144.115 80.7438 144.109 80.3945C144.103 80.0348 144.109 79.6747 144.105 79.315C144.104 79.2654 144.047 79.2003 144.064 79.1697C144.164 78.9903 144.132 78.8161 144.078 78.6345C144.05 78.5392 144 78.3783 144.038 78.3482C144.151 78.2602 144.099 78.1649 144.1 78.0739C144.105 77.7112 144.141 77.3438 144.091 76.9884C144.063 76.7887 144.16 76.599 144.095 76.4226C144.02 76.2182 144.072 76.0069 144.054 75.8072C144.022 75.4773 144.046 75.1297 144.054 74.7911C144.066 74.2236 144.009 73.6556 144.059 73.089C144.069 72.9734 144.051 72.8552 144.052 72.7384C144.053 72.3821 144.063 72.0255 144.058 71.6693C144.055 71.4416 144.092 71.185 144.001 70.9939C143.883 70.7447 143.943 70.4277 143.704 70.2315C143.698 70.2267 143.705 70.2069 143.705 70.1939C143.702 69.9891 143.704 69.7843 143.693 69.5798C143.678 69.2965 143.654 69.014 143.631 68.7311C143.624 68.6513 143.612 68.5707 143.59 68.4939C143.523 68.2585 143.401 68.0269 143.392 67.7901C143.38 67.4615 143.14 67.3196 142.973 67.1092C142.872 66.9819 142.788 67.1014 142.701 67.0898C142.561 67.0704 142.428 66.9936 142.287 66.9746C142.207 66.9634 142.118 67.0182 142.032 67.0428C141.988 67.0117 141.932 67.0035 141.876 67.0052C141.844 67.0061 141.812 67.0311 141.779 67.0324C141.561 67.0406 141.343 67.0397 141.126 67.0522C140.782 67.0721 140.437 67.1264 140.094 67.1156C139.841 67.1074 139.596 67.1661 139.328 67.1268C139.066 67.0885 138.765 67.0833 138.472 67.1363C138.138 67.1971 137.783 67.1406 137.437 67.135C137.144 67.1303 136.851 67.1204 136.558 67.123C136.45 67.1238 136.341 67.1751 136.236 67.1657C135.794 67.1247 135.355 67.1023 134.918 67.2092C134.895 67.2148 134.869 67.2071 134.845 67.204C134.685 67.1833 134.525 67.1536 134.364 67.1437C134.204 67.1337 134.042 67.1359 133.882 67.148C133.817 67.1527 133.756 67.1984 133.744 67.2036C133.51 67.1868 133.314 67.1678 133.117 67.1609C132.973 67.1557 132.828 67.176 132.684 67.1678C132.558 67.1605 132.433 67.1036 132.311 67.1126C132.085 67.1294 131.861 67.1997 131.635 67.2088C131.24 67.2247 130.844 67.2127 130.449 67.2088C130.204 67.2066 129.959 67.1976 129.714 67.1937C129.502 67.1902 129.291 67.1829 129.08 67.1898C128.894 67.1958 128.709 67.2347 128.524 67.2325C128.211 67.2286 127.899 67.1924 127.586 67.1911C127.15 67.1894 126.713 67.2002 126.277 67.2191C126.111 67.2265 125.926 67.1346 125.788 67.295C125.788 67.267 125.789 67.2265 125.788 67.2265C125.596 67.2178 125.401 67.1877 125.214 67.2144C125.085 67.2329 124.96 67.2178 124.844 67.2286C124.503 67.2601 124.149 67.1303 123.816 67.3024C123.763 67.33 123.671 67.286 123.598 67.27C123.55 67.2597 123.504 67.2256 123.457 67.226C122.995 67.2321 122.534 67.2398 122.072 67.2536C121.785 67.2623 121.498 67.2907 121.211 67.2959C120.995 67.2998 120.779 67.2756 120.563 67.2769C120.499 67.2769 120.412 67.3606 120.374 67.3386C120.134 67.2027 119.883 67.2692 119.638 67.2856C119.539 67.2925 119.446 67.3757 119.346 67.3873C119.127 67.4128 118.906 67.4244 118.686 67.4227C118.569 67.4218 118.451 67.3822 118.349 67.3627C118.293 67.402 118.234 67.4775 118.186 67.4719C117.797 67.4279 117.427 67.4822 117.06 67.6159C116.817 67.7043 116.65 67.8363 116.591 68.1002C116.544 68.3115 116.368 68.4922 116.442 68.7333C116.445 68.7454 116.44 68.763 116.433 68.7747C116.164 69.2241 116.158 69.7299 116.127 70.2289C116.115 70.416 116.133 70.6045 116.128 70.7921C116.118 71.0953 116.093 71.3976 116.088 71.7008C116.085 71.8836 116.119 72.0673 116.117 72.2506C116.112 72.6375 116.087 73.0243 116.086 73.4111C116.085 73.6884 116.121 73.9662 116.12 74.2435C116.117 74.6221 116.084 75.0003 116.083 75.3785C116.082 75.83 116.108 76.2811 116.107 76.7327C116.106 77.1277 116.074 77.5223 116.075 77.9173C116.076 78.4163 116.101 78.9157 116.107 79.4147C116.114 79.9231 116.116 80.4316 116.111 80.9396C116.106 81.3808 116.087 81.8219 116.075 82.2631C116.072 82.3985 116.039 82.5456 116.08 82.6668C116.157 82.8915 116.131 83.1006 116.083 83.321C116.06 83.4241 116.079 83.5362 116.079 83.7014C116.16 83.6259 116.198 83.5909 116.236 83.5547C116.524 83.28 116.811 83.0044 117.099 82.7306C117.162 82.6711 117.235 82.6219 117.298 82.5611C117.573 82.2894 117.838 82.0074 118.121 81.7443C118.43 81.4571 118.763 81.1949 119.072 80.9068C119.297 80.6964 119.491 80.4514 119.716 80.2397C120.186 79.7963 120.67 79.3685 121.141 78.9265C121.606 78.4909 122.055 78.0381 122.524 77.6073C122.741 77.408 123.005 77.2601 123.218 77.0578C123.399 76.8866 123.644 76.9224 123.835 76.803C123.992 76.7042 124.116 76.7952 124.221 76.9056C124.292 76.9798 124.349 77.0682 124.406 77.1441C124.479 77.1255 124.537 77.1044 124.596 77.0979C124.652 77.0919 124.727 77.126 124.765 77.1005C124.939 76.9858 125.004 76.9888 125.161 77.1096C125.205 77.1432 125.288 77.1264 125.397 77.1368C125.482 77.1911 125.641 77.2549 125.749 77.3679C125.995 77.6249 126.212 77.9096 126.449 78.1757C126.69 78.4465 126.945 78.7061 127.188 78.9748C127.608 79.4379 128.025 79.9037 128.441 80.3699C128.765 80.7326 129.084 81.0996 129.409 81.4605C129.6 81.6719 129.801 81.8737 129.994 82.0828C130.094 82.1911 130.184 82.3101 130.285 82.4175C130.49 82.6357 130.71 82.8406 130.906 83.0674C131.159 83.3615 131.387 83.6776 131.639 83.9735C131.875 84.2516 132.123 84.5212 132.375 84.7851C132.638 85.0589 132.916 85.3177 133.18 85.5903C133.337 85.7515 133.506 85.9102 133.622 86.0996C133.78 86.3596 133.98 86.5658 134.195 86.7413C134.277 86.6481 134.336 86.5727 134.404 86.5058C134.572 86.3402 134.752 86.1867 134.912 86.0138C135.119 85.7886 135.305 85.5428 135.511 85.3168C135.908 84.8817 136.311 84.4522 136.716 84.0235C136.931 83.7949 137.16 83.5784 137.373 83.3477C137.68 83.0169 137.976 82.6771 138.278 82.3429C138.441 82.1635 138.604 81.9841 138.773 81.8112C138.971 81.608 139.155 81.3808 139.385 81.2216C139.571 81.0931 139.817 81.05 139.974 80.9922L139.974 80.9918Z" fill="#B8AE91"/>
<path d="M139.068 73.5361C139.042 73.6202 139.002 73.6806 139.01 73.7349C139.033 73.9143 139.103 74.092 139.099 74.2693C139.091 74.5905 139.047 74.9114 139.008 75.231C138.996 75.328 138.935 75.419 138.924 75.516C138.864 76.0223 138.588 76.4368 138.388 76.887C138.301 77.0845 138.13 77.2091 138.06 77.4295C137.992 77.6447 137.726 77.7982 137.543 77.9751C137.473 78.0428 137.346 78.0583 137.364 78.2041C137.367 78.2286 137.281 78.2756 137.23 78.2938C137.074 78.3477 136.927 78.4003 136.878 78.5892C136.868 78.628 136.781 78.6521 136.726 78.6724C136.615 78.7129 136.492 78.728 136.393 78.7858C136.182 78.9092 135.955 78.9738 135.729 79.0541C135.531 79.1248 135.328 79.2248 135.119 79.2891C134.959 79.3378 134.796 79.3805 134.632 79.4077C134.188 79.4806 133.745 79.465 133.296 79.4185C132.859 79.3732 132.454 79.2335 132.035 79.1282C131.536 79.0032 131.191 78.6219 130.732 78.443C130.658 78.4145 130.602 78.3339 130.546 78.2705C130.163 77.8401 129.774 77.4144 129.406 76.9719C129.286 76.8283 129.226 76.639 129.182 76.4497C129.124 76.2047 129.077 75.9481 128.966 75.7269C128.848 75.494 128.847 75.2538 128.812 75.0132C128.811 75.0063 128.813 74.9989 128.812 74.992C128.745 74.3766 128.735 73.8126 128.951 73.2144C128.99 73.1057 128.928 72.9604 128.967 72.8513C129.016 72.7107 129.12 72.5895 129.204 72.4532H129.011C129.059 72.4226 129.073 72.4136 129.088 72.4049C129.139 72.3747 129.212 72.3575 129.239 72.3126C129.362 72.1095 129.465 71.8939 129.59 71.6921C129.913 71.1698 130.347 70.7567 130.832 70.381C131.051 70.2111 131.319 70.1193 131.51 69.9381C131.685 69.7713 131.89 69.7441 132.087 69.6587C132.371 69.5354 132.689 69.5181 132.958 69.3965C133.183 69.2947 133.404 69.3344 133.621 69.2844C133.85 69.2322 134.103 69.2701 134.343 69.2869C134.6 69.3046 134.861 69.3184 135.109 69.3801C135.348 69.4396 135.574 69.5548 135.803 69.6509C136.061 69.7592 136.333 69.848 136.57 69.9925C136.876 70.1792 137.167 70.3966 137.442 70.6286C137.837 70.9637 138.142 71.3755 138.412 71.8227C138.721 72.3355 138.912 72.8798 139.008 73.4645C139.014 73.5012 139.065 73.5309 139.07 73.537L139.068 73.5361ZM131.764 74.4616C131.745 74.4663 131.727 74.4715 131.708 74.4763C131.778 74.7104 131.839 74.9481 131.918 75.1788C132.137 75.8097 132.624 76.1603 133.229 76.3462C133.796 76.5204 134.359 76.4695 134.891 76.184C135.611 75.7972 136.032 75.209 136.082 74.3844C136.128 73.6081 135.59 72.7318 134.886 72.4899C134.255 72.273 133.609 72.2708 132.99 72.5619C132.789 72.6568 132.581 72.7685 132.426 72.9229C132.006 73.3425 131.752 73.8484 131.763 74.4616H131.764Z" fill="#B8AE91"/>
</g>
<circle cx="62.5" cy="271.5" r="36.5" fill="#E5D9B6" fill-opacity="0.5"/>
<g clip-path="url(#clip1_873_2810)">
<path d="M61.2826 293.753C60.6646 294.819 59.6907 295.444 58.7198 296.04C57.8431 296.579 56.8597 296.871 55.8332 296.949C54.3567 297.062 52.9774 296.717 51.7999 295.796C50.8207 295.031 50.1168 294.018 49.7249 292.793C49.2596 291.338 49.1222 289.866 49.4798 288.368C49.6373 287.708 49.7693 287.029 50.0315 286.412C50.3086 285.759 50.7224 285.167 51.0859 284.554C51.2185 284.331 51.4062 284.139 51.5163 283.906C51.5737 283.784 51.5406 283.599 51.508 283.453C51.4085 283.011 51.2268 282.58 51.1901 282.135C51.109 281.16 51.0504 280.178 51.0699 279.201C51.0912 278.121 51.5684 277.192 52.1391 276.3C52.888 275.13 53.9252 274.311 55.1323 273.743C55.8835 273.389 56.7182 273.423 57.5376 273.591C58.023 273.69 58.5369 273.678 59.0028 273.829C59.5634 274.011 60.1347 274.195 60.6184 274.584C60.9937 274.886 61.4087 275.137 61.8142 275.398C61.9101 275.46 62.0362 275.496 62.1499 275.5C63.1889 275.536 63.9016 276.144 64.5126 276.921C64.8625 277.366 64.8684 277.344 65.3509 277.095C65.7386 276.895 66.172 276.778 66.5953 276.662C67.0517 276.538 67.488 276.679 67.9273 276.822C68.3914 276.972 68.8638 276.856 69.309 276.716C70.0105 276.495 70.7239 276.502 71.4243 276.611C72.0157 276.703 72.5834 276.949 73.1689 277.094C73.9148 277.279 74.5649 277.654 75.0882 278.202C75.5689 278.706 75.8904 279.34 76.1751 279.99C76.374 280.444 76.6327 280.868 76.6795 281.382C76.7334 281.975 76.837 282.565 76.8618 283.159C76.8778 283.551 76.8399 283.961 76.7411 284.339C76.6197 284.803 76.4309 285.253 76.2313 285.691C75.975 286.255 75.7045 286.815 75.3925 287.348C75.1711 287.725 74.9141 288.105 74.5939 288.39C74.0954 288.834 74.3949 289.302 74.453 289.768C74.5181 290.291 74.6537 290.813 74.6531 291.335C74.6519 292.081 74.6169 292.839 74.4808 293.569C74.3357 294.346 74.1475 295.129 73.7396 295.823C73.4341 296.344 73.1624 296.895 72.7942 297.366C72.433 297.828 71.9955 298.238 71.545 298.613C70.9311 299.123 70.213 299.474 69.4446 299.641C68.8437 299.772 68.2085 299.849 67.6005 299.799C66.986 299.748 66.3697 299.557 65.7866 299.337C65.342 299.169 64.9282 298.888 64.538 298.603C64.1379 298.31 63.7667 297.969 63.4126 297.617C62.8757 297.083 62.4714 296.436 62.1416 295.756C61.8421 295.136 61.6224 294.476 61.3661 293.835C61.356 293.81 61.3252 293.793 61.2808 293.751L61.2826 293.753ZM64.9744 279.234C64.8317 279.159 64.7405 279.084 64.6381 279.062C64.4487 279.022 64.2462 279.038 64.0627 278.983C63.9437 278.948 63.8188 278.849 63.7501 278.742C63.6317 278.559 63.5778 278.331 63.4565 278.151C63.1261 277.66 62.7916 277.164 62.1404 277.083C61.7071 277.029 61.2802 276.962 60.9037 276.698C60.5983 276.485 60.2342 276.346 59.9666 276.094C59.5332 275.687 59.0229 275.508 58.4747 275.393C58.1024 275.315 57.7241 275.265 57.3517 275.187C56.704 275.051 56.067 275.008 55.462 275.357C55.362 275.415 55.2631 275.476 55.1702 275.546C54.7445 275.864 54.2632 276.13 53.9121 276.52C53.5238 276.951 53.2296 277.482 52.9448 277.999C52.7944 278.273 52.7169 278.603 52.6695 278.918C52.6115 279.302 52.6139 279.697 52.6003 280.088C52.5683 280.987 52.6778 281.876 52.8732 282.746C53.0573 283.565 53.1094 284.335 52.5671 285.048C52.3368 285.351 52.145 285.686 51.9508 286.017C51.5678 286.669 51.2765 287.365 51.1001 288.104C50.9095 288.904 50.8154 289.712 50.8763 290.545C50.9669 291.785 51.2884 292.908 52.0959 293.873C52.6352 294.517 53.284 294.948 54.069 295.167C54.4017 295.259 54.7528 295.335 55.0944 295.33C55.6349 295.321 56.1896 295.301 56.71 295.169C57.3446 295.008 57.9248 294.672 58.4747 294.299C58.911 294.003 59.3302 293.703 59.6416 293.243C59.9695 292.758 60.4473 292.451 61.0565 292.504C61.3578 292.53 61.6656 292.587 61.9486 292.692C62.6661 292.957 63.087 293.473 63.2279 294.268C63.2919 294.629 63.4872 294.98 63.6808 295.298C63.9147 295.681 64.216 296.02 64.4777 296.386C64.8246 296.872 65.2562 297.256 65.7736 297.534C66.0317 297.672 66.3312 297.768 66.5674 297.902C66.9736 298.133 67.4022 298.2 67.8118 298.225C68.913 298.29 69.9111 297.921 70.7784 297.214C71.4805 296.642 71.9884 295.897 72.3661 295.082C72.642 294.486 72.8421 293.836 72.9676 293.188C73.0931 292.54 73.1334 291.864 73.1174 291.203C73.1032 290.616 72.9718 290.03 72.8729 289.447C72.7616 288.789 72.8806 288.211 73.2867 287.671C73.6218 287.225 73.9048 286.737 74.186 286.252C74.4772 285.749 74.7567 285.236 75.0059 284.71C75.148 284.411 75.2747 284.082 75.309 283.756C75.3575 283.294 75.3469 282.819 75.2995 282.357C75.2569 281.942 75.1888 281.511 75.0278 281.133C74.8165 280.638 74.5015 280.19 74.2333 279.721C74.0036 279.319 73.6739 279.026 73.2749 278.823C73.0896 278.729 72.877 278.689 72.6752 278.631C72.1542 278.481 71.6386 278.294 71.1081 278.196C70.541 278.091 69.9673 278.173 69.4037 278.308C68.7158 278.473 68.0356 278.548 67.3394 278.289C66.7154 278.057 66.1767 278.36 65.6729 278.709C65.4255 278.881 65.1904 279.072 64.9749 279.235L64.9744 279.234Z" fill="#B8AE91"/>
<path d="M83.1756 260.687C83.1495 260.723 83.0909 260.843 82.9986 260.919C82.8897 261.009 82.757 261.104 82.6244 261.122C82.0324 261.203 81.431 261.221 80.8455 261.332C80.3529 261.426 79.861 261.574 79.4004 261.775C78.7036 262.078 78.021 262.422 77.3568 262.796C76.9838 263.006 76.6398 263.284 76.3202 263.576C75.7868 264.061 75.2652 264.563 74.7744 265.093C74.424 265.471 74.0889 265.879 73.8237 266.322C73.4673 266.918 73.1458 267.543 72.883 268.186C72.6888 268.662 72.597 269.185 72.4857 269.693C72.3922 270.118 72.346 270.553 72.2596 270.98C72.2288 271.134 72.156 271.235 71.9393 271.228C71.6569 271.218 71.3716 271.312 71.0862 271.356C71.0265 271.365 70.9453 271.373 70.9045 271.34C70.6422 271.131 70.4256 270.901 70.4037 270.519C70.3687 269.919 70.319 269.319 70.2355 268.725C70.1527 268.135 70.0621 267.539 69.8963 266.97C69.7613 266.508 69.5322 266.068 69.3025 265.644C69.0545 265.186 68.6466 264.79 68.5045 264.307C68.2553 263.457 67.5828 262.955 67.1417 262.269C66.7776 261.703 66.4029 261.141 65.8375 260.742C65.4687 260.482 65.1739 260.102 64.7909 259.873C64.2622 259.559 63.6826 259.334 63.1214 259.08C63.0172 259.033 62.8917 259.003 62.7798 259.013C62.3559 259.054 62.0611 258.813 61.7698 258.557C61.755 258.544 61.7491 258.52 61.7337 258.509C61.5757 258.399 61.3057 258.393 61.3975 258.064C61.4519 257.869 61.4543 257.658 61.4809 257.454C61.4886 257.395 61.523 257.326 61.504 257.279C61.3691 256.94 61.5952 256.901 61.819 256.889C62.1203 256.874 62.4276 256.922 62.7242 256.881C63.3369 256.797 63.9532 256.71 64.5517 256.558C65.76 256.25 66.8274 255.617 67.8267 254.882C68.7372 254.214 69.6003 253.468 70.2924 252.555C70.7855 251.904 71.2177 251.203 71.6605 250.513C72.1649 249.728 72.468 248.856 72.6397 247.936C72.6882 247.677 72.6965 247.408 72.7107 247.142C72.7332 246.731 73.0724 246.519 73.4856 246.631C73.7082 246.692 73.948 246.712 74.1795 246.708C74.5317 246.703 74.5359 246.985 74.5471 247.195C74.5862 247.912 74.5323 248.639 74.6217 249.347C74.6969 249.943 74.8922 250.53 75.0894 251.101C75.309 251.738 75.5529 252.372 75.8537 252.972C76.3586 253.978 76.9814 254.905 77.6865 255.783C78.3472 256.607 79.0908 257.338 79.9237 257.947C80.7342 258.54 81.608 259.074 82.654 259.15C82.7949 259.16 82.9406 259.202 83.0708 259.261C83.4159 259.418 83.2904 259.724 83.2662 259.991C83.2466 260.206 83.2117 260.418 83.1762 260.685L83.1756 260.687ZM73.308 250.956C71.4278 254.384 68.7419 256.797 65.181 258.133C65.5924 258.446 66.0051 258.737 66.3928 259.06C66.7954 259.395 67.1903 259.744 67.5567 260.119C67.8089 260.378 68.0054 260.695 68.2304 260.982C68.5542 261.398 68.9017 261.796 69.2001 262.229C69.5109 262.682 69.7862 263.162 70.0573 263.642C70.3379 264.139 70.5949 264.65 70.8636 265.153C70.9933 265.397 71.1549 265.626 71.252 265.882C71.3775 266.213 71.4539 266.564 71.5776 267C73.3974 263.414 76.1218 261.051 79.8473 259.865C76.5564 257.75 74.5205 254.677 73.3086 250.956L73.308 250.956Z" fill="#B8AE91"/>
<path d="M41.6916 259.906C41.6904 259.063 41.8585 258.254 42.2031 257.493C42.4825 256.878 42.9028 256.366 43.4066 255.922C43.9915 255.407 44.6191 254.956 45.3508 254.707C45.944 254.505 46.5668 254.394 47.1688 254.218C47.3458 254.166 47.5453 254.064 47.6555 253.922C48.1486 253.282 48.7607 252.781 49.3794 252.286C50.0845 251.724 50.8718 251.306 51.7154 251.016C52.1961 250.851 52.7011 250.783 53.2079 250.715C54.1894 250.581 55.0999 250.843 55.94 251.268C56.4882 251.544 56.9559 252.03 57.3922 252.49C57.9919 253.122 58.4158 253.888 58.6745 254.735C58.8538 255.323 59.0687 255.913 59.1433 256.518C59.2511 257.388 59.3393 258.27 59.2067 259.154C59.1404 259.597 59.1771 260.057 59.0936 260.495C58.9444 261.279 58.7644 262.059 58.549 262.827C58.3867 263.405 58.1618 263.966 57.941 264.524C57.5798 265.439 57.0855 266.283 56.5865 267.123C56.3568 267.51 56.1679 267.921 55.9601 268.321C55.8772 268.481 55.7855 268.581 55.57 268.553C54.8323 268.454 54.0912 268.377 53.3506 268.303C52.8971 268.257 52.4395 268.254 51.9889 268.191C51.4295 268.112 50.8748 267.996 50.3201 267.889C49.9453 267.816 49.5694 267.741 49.2 267.645C48.7927 267.538 48.3943 267.398 47.9882 267.285C47.1303 267.046 46.3448 266.64 45.5828 266.183C45.4183 266.084 45.2673 265.957 45.1229 265.828C44.7866 265.525 44.4326 265.238 44.1324 264.901C43.7435 264.463 43.3687 264.003 43.0449 263.514C42.7223 263.026 42.4642 262.492 42.1877 261.972C41.955 261.534 41.6833 260.368 41.6916 259.906ZM54.6849 266.859C54.9164 266.585 55.1058 266.372 55.2817 266.148C55.3616 266.047 55.4167 265.925 55.48 265.811C55.5783 265.633 55.6683 265.449 55.773 265.276C55.8985 265.069 56.0643 264.882 56.1638 264.662C56.3538 264.242 56.5154 263.808 56.6776 263.374C56.8499 262.915 57.0429 262.46 57.1637 261.986C57.2933 261.477 57.3561 260.949 57.4366 260.427C57.507 259.97 57.5627 259.511 57.6242 259.053C57.6521 258.846 57.6941 258.639 57.7018 258.432C57.7077 258.267 57.6686 258.099 57.6521 257.933C57.6029 257.424 57.594 256.907 57.497 256.409C57.3904 255.863 57.2531 255.317 56.9932 254.816C56.8996 254.636 56.8706 254.414 56.7564 254.253C56.5503 253.964 56.3035 253.704 56.0708 253.435C56.0004 253.354 55.9258 253.274 55.8405 253.21C55.657 253.073 55.4356 252.976 55.2835 252.81C54.9632 252.459 54.5186 252.476 54.1255 252.358C53.881 252.285 53.5992 252.321 53.3363 252.338C52.8349 252.37 52.3335 252.404 51.9001 252.726C51.7598 252.83 51.584 252.903 51.4141 252.943C51.0619 253.026 50.796 253.252 50.5208 253.463C50.3668 253.582 50.2218 253.714 50.0744 253.841C49.7233 254.144 49.322 254.406 49.0366 254.764C48.7489 255.125 48.4493 255.413 48.0107 255.527C47.8798 255.562 47.7342 255.539 47.604 255.577C47.1126 255.717 46.626 255.873 46.1364 256.021C45.6024 256.183 45.1211 256.457 44.6931 256.813C44.3177 257.125 44.0016 257.491 43.7399 257.926C43.4398 258.425 43.3001 258.949 43.2421 259.513C43.1817 260.098 43.3415 260.641 43.5416 261.176C43.866 262.044 44.3142 262.837 44.9429 263.508C45.3034 263.892 45.7012 264.24 46.0937 264.592C46.2749 264.754 46.4679 264.915 46.681 265.026C47.8319 265.628 49.0526 266.021 50.3189 266.268C50.8564 266.372 51.3952 266.468 51.9357 266.555C52.3039 266.615 52.6745 266.661 53.0451 266.701C53.6211 266.762 54.1983 266.813 54.6843 266.861L54.6849 266.859Z" fill="#B8AE91"/>
<path d="M64.3411 281.159C64.5146 280.939 64.6952 280.724 64.8603 280.498C65.0663 280.215 65.2629 279.925 65.4594 279.634C65.595 279.434 65.746 279.364 65.9484 279.542C66.0739 279.652 66.2196 279.742 66.3303 279.866C66.5014 280.056 66.4386 280.26 66.303 280.441C65.9082 280.967 65.5062 281.488 65.1102 282.014C64.9432 282.236 64.7846 282.465 64.6348 282.782C64.7413 282.761 64.8734 282.774 64.9497 282.714C65.4831 282.286 65.9905 281.822 66.5345 281.409C67.4728 280.697 68.5 280.152 69.6378 279.862C70.5803 279.621 71.5234 279.575 72.4303 280.026C73.3148 280.465 73.7724 281.241 73.9624 282.189C74.2152 283.45 73.9482 284.667 73.5001 285.829C73.1733 286.675 72.7908 287.517 72.303 288.273C72.0141 288.721 71.8803 289.126 71.9188 289.632C71.9632 290.214 71.994 290.797 72.0325 291.38C72.0994 292.398 72.0295 293.404 71.6785 294.364C71.309 295.373 70.7804 296.307 69.935 296.962C69.5117 297.29 68.9345 297.331 68.3845 297.308C67.3112 297.262 66.4925 296.691 65.7661 295.956C65.3079 295.493 64.8828 294.991 64.4684 294.485C64.2441 294.21 64.067 293.893 63.8806 293.589C63.5632 293.069 63.256 292.544 62.944 292.021C62.9387 292.012 62.9322 292.004 62.9298 291.994C62.8321 291.637 62.6297 291.608 62.2709 291.597C61.8796 291.583 61.3882 291.59 61.1041 291.19C60.428 291.667 59.7839 292.182 59.0847 292.601C57.8338 293.351 56.5154 293.924 55.0247 293.934C53.9941 293.94 53.0729 293.659 52.3962 292.828C51.9901 292.33 51.78 291.713 51.7296 291.061C51.6485 290.003 51.9084 289.014 52.3234 288.051C52.7189 287.133 53.2126 286.286 53.8425 285.518C53.9076 285.439 53.9177 285.305 53.9349 285.194C53.9834 284.877 54.0562 284.559 54.0568 284.242C54.0568 283.622 54.0029 283.002 53.9923 282.381C53.9769 281.438 53.9828 280.49 54.1918 279.568C54.4487 278.431 54.9478 277.46 56.1501 277.117C56.9961 276.876 57.8279 276.825 58.6727 277.22C59.3849 277.553 59.9887 277.987 60.4836 278.608C61.0472 279.316 61.6594 279.984 62.2099 280.701C62.5101 281.093 62.7232 281.555 62.9831 281.981C63.0346 282.065 63.1198 282.127 63.1897 282.199C63.2187 282.091 63.2903 281.972 63.269 281.875C63.1832 281.485 63.0435 281.107 62.9712 280.715C62.8943 280.301 62.8576 279.877 62.8351 279.455C62.8303 279.369 62.9523 279.219 63.0411 279.194C63.2353 279.14 63.4555 279.103 63.6449 279.148C63.7462 279.173 63.8415 279.372 63.8776 279.509C64.0179 280.041 64.1333 280.58 64.2583 281.116C64.2861 281.13 64.3139 281.145 64.3417 281.159L64.3411 281.159ZM64.6389 287.533C64.485 287.747 64.4862 287.888 64.6952 288.055C65.3298 288.56 65.9674 289.064 66.5641 289.614C67.2183 290.218 67.8251 290.876 68.4597 291.502C68.5237 291.565 68.6403 291.6 68.7332 291.6C69.2708 291.604 69.8136 291.486 70.334 291.744C70.4956 291.825 70.6863 291.842 70.8846 291.893C70.8988 291.771 70.9189 291.682 70.9171 291.595C70.9029 290.831 70.8698 290.067 70.8757 289.303C70.8781 289.011 70.7833 288.889 70.5122 288.838C69.7136 288.688 68.9173 288.524 68.1223 288.356C67.3923 288.202 66.663 288.042 65.9366 287.873C65.5086 287.773 65.0853 287.651 64.6389 287.533ZM61.3337 287.154C61.3041 287.109 61.2745 287.065 61.2449 287.02C60.8637 286.939 60.4836 286.853 60.1012 286.779C59.2244 286.611 58.3435 286.461 57.4691 286.28C56.7131 286.123 55.9631 285.935 55.2106 285.759C55.0117 285.712 54.8844 285.775 54.7749 285.964C54.4292 286.562 54.0704 287.152 53.7046 287.738C53.5021 288.061 53.5145 288.111 53.8739 288.18C54.5381 288.306 55.168 288.523 55.6765 289C55.8382 289.152 55.956 289.153 56.1419 289.047C57.1637 288.463 58.1647 287.834 59.3535 287.638C59.9461 287.54 60.528 287.371 61.1147 287.233C61.1893 287.215 61.2609 287.181 61.3337 287.155V287.154ZM61.387 285.855C61.3971 285.837 61.4072 285.819 61.4172 285.801C61.3681 285.745 61.3249 285.682 61.2692 285.636C60.798 285.245 60.3279 284.852 59.8502 284.47C59.0847 283.857 58.4087 283.155 57.7924 282.386C57.6663 282.228 57.4105 282.04 57.2536 282.072C56.6208 282.198 56.0169 282.222 55.4249 281.921C55.3178 281.867 55.2006 281.834 55.0893 281.793C55.0893 282.062 55.0828 282.293 55.0905 282.523C55.1106 283.117 55.1603 283.711 55.1544 284.304C55.1503 284.7 55.1189 284.69 55.496 284.759C56.9251 285.02 58.3524 285.289 59.7803 285.554C60.3161 285.654 60.8513 285.755 61.3864 285.856L61.387 285.855ZM61.8198 285.099C61.9453 284.716 62.0418 284.41 62.1448 284.107C62.2318 283.851 62.3621 283.603 62.4076 283.339C62.4964 282.824 62.1075 282.467 61.8956 282.077C61.6138 281.558 61.2071 281.106 60.824 280.651C60.3475 280.086 59.8425 279.546 59.344 279.001C59.2978 278.95 59.196 278.895 59.1516 278.916C59.1001 278.94 59.0693 279.041 59.0569 279.114C59.0415 279.201 59.0681 279.296 59.0539 279.384C59.0066 279.687 59.0007 280.012 58.8834 280.284C58.7058 280.697 58.4483 281.072 58.2429 281.432C59.1646 282.91 60.6198 283.818 61.8192 285.098L61.8198 285.099ZM67.5924 292.179C67.1964 291.605 64.9521 289.373 64.1582 289.013C64.0274 289.308 63.9285 289.626 63.7586 289.896C63.4887 290.324 63.5763 290.726 63.7805 291.118C64.0096 291.558 64.2606 291.988 64.5288 292.404C64.9864 293.114 65.4411 293.829 65.9449 294.504C66.2101 294.859 66.5771 295.135 66.8684 295.418C66.8524 294.845 66.8122 294.281 66.8276 293.718C66.8447 293.103 67.1816 292.63 67.5924 292.18V292.179ZM69.9818 280.972C69.7982 281.005 69.6781 281.007 69.5739 281.049C69.0375 281.263 68.484 281.446 67.9761 281.719C67.0916 282.194 66.2237 282.707 65.4813 283.41C65.2528 283.626 65.0569 283.824 65.1184 284.203C65.1628 284.474 65.0971 284.764 65.0788 285.045C65.0663 285.245 65.0515 285.445 65.0356 285.675C65.1717 285.626 65.2445 285.596 65.3197 285.573C65.9922 285.373 66.676 285.205 67.3349 284.966C67.876 284.77 68.3869 284.488 68.9132 284.249C69.3217 284.064 69.33 284.066 69.1962 283.627C69.0097 283.014 69.1062 282.435 69.3975 281.889C69.5543 281.594 69.755 281.324 69.9812 280.972H69.9818ZM70.0404 284.811C69.3276 285.158 68.5793 285.577 67.7913 285.89C67.0087 286.2 66.1864 286.404 65.3813 286.655C65.3843 286.686 65.3866 286.719 65.3896 286.75C65.5666 286.792 65.7424 286.842 65.9206 286.874C66.3824 286.958 66.8477 287.023 67.3077 287.116C68.5402 287.364 69.7698 287.627 71.0036 287.868C71.1048 287.888 71.2848 287.819 71.3333 287.734C71.6193 287.233 71.8863 286.719 72.1408 286.2C72.2426 285.992 72.2977 285.761 72.3865 285.505C71.5245 285.523 70.7466 285.429 70.041 284.812L70.0404 284.811ZM56.2324 292.559C56.3745 292.542 56.4467 292.55 56.5048 292.524C57.1341 292.244 57.7924 292.013 58.3796 291.659C59.0871 291.233 59.7383 290.707 60.4037 290.21C60.6038 290.06 60.8767 289.892 60.9306 289.682C61.0466 289.234 61.0413 288.752 61.0881 288.259C59.463 288.702 57.8676 289.162 56.4876 290.199C56.7066 290.972 56.5942 291.75 56.2313 292.559H56.2324ZM70.8775 292.758C70.6679 292.721 70.4868 292.669 70.3032 292.66C69.8841 292.641 69.4596 292.6 69.0452 292.646C68.4278 292.716 67.9559 293.179 67.8713 293.755C67.8304 294.031 67.7979 294.33 67.8588 294.595C67.9743 295.099 68.1566 295.586 68.3218 296.075C68.3372 296.122 68.4337 296.169 68.4899 296.166C68.8771 296.144 69.256 296.078 69.5413 295.775C70.2671 295.005 70.6454 294.055 70.8609 293.025C70.8787 292.942 70.8716 292.852 70.8769 292.758H70.8775ZM72.9264 283.076C72.9175 283.075 72.9081 283.073 72.8992 283.072C72.8909 282.931 72.8915 282.789 72.8719 282.65C72.7802 282.002 72.5771 281.428 71.9662 281.087C71.7607 280.973 71.5908 280.976 71.4328 281.122C71.1072 281.423 70.752 281.706 70.4862 282.057C69.8107 282.951 70.0487 283.77 70.8887 284.236C71.3286 284.481 71.843 284.582 72.3184 284.761C72.5742 284.857 72.6884 284.75 72.7245 284.507C72.7956 284.031 72.8595 283.552 72.9264 283.076V283.076ZM58.2802 278.976C58.2802 278.93 58.2826 278.859 58.2802 278.789C58.2589 278.225 58.208 278.139 57.6681 278.067C57.417 278.035 57.1518 278.101 56.8949 278.133C56.2307 278.217 55.6665 278.442 55.4776 279.199C55.4054 279.49 55.3284 279.78 55.2278 280.061C55.1195 280.363 55.2669 280.647 55.4178 280.803C55.7997 281.198 56.3088 281.374 56.8523 281.206C57.7302 280.935 58.3495 279.87 58.2808 278.976H58.2802ZM52.8479 290.505C52.8888 291.696 53.2612 292.502 54.4262 292.712C54.5328 292.732 54.6932 292.671 54.7684 292.589C54.9324 292.41 55.0656 292.198 55.1982 291.99C55.7239 291.166 55.4948 290.304 54.8033 289.721C54.3996 289.381 53.9053 289.253 53.4169 289.112C53.1966 289.048 53.099 289.168 53.0611 289.359C52.9746 289.793 52.8989 290.229 52.8479 290.505ZM62.0661 290.379C62.1051 290.396 62.1436 290.413 62.1827 290.43C62.3017 290.252 62.4568 290.09 62.5326 289.895C62.8268 289.136 63.137 288.381 63.3649 287.6C63.7787 286.183 64.1073 284.744 64.0327 283.245C64.0297 283.183 63.9954 283.097 63.9492 283.071C63.909 283.049 63.8113 283.076 63.7746 283.115C63.6745 283.225 63.5597 283.341 63.51 283.477C63.3099 284.024 63.0926 284.57 62.9541 285.135C62.6427 286.403 62.2969 287.667 62.1774 288.977C62.1347 289.444 62.1028 289.912 62.0655 290.379H62.0661Z" fill="#B8AE91"/>
<path d="M67.3945 257.591C68.4531 257.707 69.3292 257.333 70.1367 256.776C71.1556 256.074 71.969 255.172 72.4497 253.999C72.6024 253.626 72.6693 253.213 72.754 252.814C72.7942 252.623 72.8641 252.479 73.0648 252.493C73.5644 252.53 73.6686 252.604 73.6479 252.887C73.5828 253.796 73.8077 254.642 74.1908 255.446C74.7615 256.645 75.5145 257.695 76.6577 258.381C76.9614 258.563 77.3177 258.65 77.6475 258.788C77.7925 258.848 78.0394 258.744 78.0216 259.073C77.9938 259.59 77.9109 259.78 77.5954 259.789C76.898 259.807 76.2409 259.987 75.6222 260.303C74.6496 260.801 73.8593 261.51 73.2619 262.455C72.8528 263.101 72.6131 263.797 72.5403 264.556C72.5207 264.762 72.4396 264.842 72.2454 264.826C72.178 264.821 72.1081 264.835 72.04 264.845C71.7701 264.885 71.6333 264.764 71.5996 264.486C71.5362 263.966 71.4918 263.44 71.3782 262.932C71.3036 262.598 71.1372 262.283 70.9833 261.973C70.4884 260.978 69.8975 260.04 69.0338 259.349C68.6537 259.046 68.1553 258.883 67.6911 258.712C67.314 258.574 66.9067 258.38 67.1376 257.86C67.1856 257.753 67.3063 257.679 67.3934 257.59L67.3945 257.591ZM72.2117 262.652C73.0932 260.92 74.4501 259.759 76.3078 259.146C74.6602 258.076 73.658 256.556 73.0429 254.697C72.0986 256.419 70.7542 257.604 68.9864 258.29C70.5689 259.351 71.4527 260.935 72.2111 262.652H72.2117Z" fill="#B8AE91"/>
<path d="M56.6751 258.875C56.6189 260.706 56.2104 262.217 55.4846 263.636C55.1584 264.274 54.8174 264.903 54.4622 265.524C54.403 265.627 54.2325 265.734 54.1224 265.725C53.2291 265.649 52.334 265.574 51.4471 265.445C50.0257 265.238 48.6168 264.926 47.4002 264.105C46.4844 263.486 45.7313 262.67 45.2926 261.603C45.1293 261.206 44.9203 260.816 44.8398 260.4C44.6284 259.313 44.896 258.336 45.6165 257.496C46.2428 256.766 47.0485 256.359 47.9454 256.114C48.1141 256.068 48.3048 256.085 48.4605 256.014C48.6304 255.938 48.7973 255.817 48.9216 255.676C49.7836 254.698 50.8095 253.967 52.0711 253.703C53.885 253.325 55.2981 254.222 56.0618 255.843C56.5449 256.87 56.7385 257.959 56.6757 258.874L56.6751 258.875ZM53.6405 264.577C53.6979 264.464 53.7293 264.332 53.8092 264.254C54.2017 263.867 54.4178 263.374 54.6517 262.884C55.2827 261.56 55.6048 260.156 55.6001 258.693C55.5971 257.715 55.423 256.759 54.8601 255.909C54.3249 255.101 53.6139 254.696 52.6726 254.729C52.1771 254.746 51.7266 254.932 51.2861 255.166C50.6752 255.49 50.1429 255.912 49.6972 256.443C49.4817 256.701 49.2413 256.867 48.9134 256.929C47.978 257.107 47.0734 257.359 46.4175 258.148C45.9326 258.73 45.7011 259.392 45.8604 260.156C46.0072 260.861 46.3251 261.479 46.7602 262.053C47.4766 262.996 48.4096 263.582 49.5048 263.916C50.8474 264.325 52.2292 264.496 53.6405 264.578V264.577Z" fill="#B8AE91"/>
</g>
<circle cx="233.5" cy="82.5" r="33.5" fill="#E5D9B6" fill-opacity="0.5"/>
<g clip-path="url(#clip2_873_2810)">
<path d="M232.386 102.921C231.818 103.901 230.925 104.474 230.034 105.021C229.229 105.515 228.326 105.783 227.384 105.855C226.029 105.959 224.763 105.642 223.682 104.797C222.784 104.094 222.138 103.165 221.778 102.041C221.351 100.705 221.225 99.3543 221.553 97.9798C221.698 97.374 221.819 96.7504 222.059 96.1837C222.314 95.5847 222.693 95.0414 223.027 94.4792C223.149 94.2743 223.321 94.0979 223.422 93.8841C223.475 93.7719 223.444 93.6027 223.415 93.4682C223.323 93.0628 223.156 92.667 223.123 92.2589C223.048 91.3639 222.994 90.4628 223.012 89.5662C223.032 88.5747 223.47 87.7221 223.994 86.9037C224.681 85.8295 225.633 85.0775 226.741 84.556C227.43 84.2317 228.197 84.2629 228.949 84.4165C229.394 84.5075 229.866 84.4963 230.293 84.6353C230.808 84.8022 231.332 84.9714 231.776 85.3282C232.121 85.6056 232.501 85.8362 232.874 86.0757C232.962 86.1321 233.077 86.1656 233.182 86.169C234.135 86.2019 234.789 86.7596 235.35 87.4731C235.671 87.8818 235.677 87.8617 236.12 87.6328C236.475 87.4491 236.873 87.3419 237.262 87.2359C237.681 87.1214 238.081 87.2515 238.484 87.3821C238.91 87.52 239.344 87.414 239.752 87.285C240.396 87.0818 241.051 87.089 241.694 87.1884C242.237 87.2727 242.758 87.4988 243.295 87.6317C243.98 87.8014 244.576 88.1459 245.057 88.6489C245.498 89.1112 245.793 89.6935 246.054 90.2898C246.237 90.7068 246.474 91.0954 246.517 91.5672C246.567 92.1121 246.662 92.6536 246.684 93.1985C246.699 93.5586 246.664 93.9343 246.574 94.281C246.462 94.7076 246.289 95.1207 246.106 95.5221C245.871 96.0397 245.622 96.5544 245.336 97.043C245.133 97.3891 244.897 97.738 244.603 97.9999C244.145 98.4074 244.42 98.8362 244.474 99.2644C244.533 99.7446 244.658 100.224 244.657 100.703C244.656 101.387 244.624 102.083 244.499 102.753C244.366 103.466 244.193 104.185 243.819 104.822C243.538 105.3 243.289 105.805 242.951 106.238C242.62 106.662 242.218 107.038 241.805 107.382C241.241 107.851 240.582 108.173 239.877 108.326C239.325 108.446 238.742 108.517 238.184 108.471C237.62 108.424 237.055 108.249 236.52 108.047C236.111 107.893 235.732 107.635 235.374 107.373C235.006 107.105 234.666 106.791 234.341 106.468C233.848 105.978 233.477 105.384 233.174 104.76C232.899 104.191 232.698 103.586 232.462 102.997C232.453 102.974 232.425 102.959 232.384 102.92L232.386 102.921ZM235.774 89.5964C235.643 89.5271 235.559 89.4585 235.465 89.4384C235.292 89.4015 235.106 89.416 234.937 89.3658C234.828 89.3334 234.713 89.243 234.65 89.1447C234.542 88.9766 234.492 88.7673 234.381 88.602C234.078 88.1515 233.771 87.6959 233.173 87.6217C232.775 87.572 232.384 87.5106 232.038 87.2688C231.758 87.0728 231.423 86.945 231.178 86.7144C230.78 86.3409 230.312 86.1762 229.809 86.0707C229.467 85.9992 229.12 85.9535 228.778 85.882C228.183 85.7569 227.599 85.7179 227.044 86.0378C226.952 86.0908 226.861 86.1472 226.776 86.2108C226.385 86.5028 225.943 86.7474 225.621 87.1052C225.265 87.5011 224.995 87.9879 224.733 88.4625C224.595 88.7137 224.524 89.0168 224.481 89.306C224.427 89.6589 224.429 90.0212 224.417 90.3802C224.388 91.2054 224.488 92.0205 224.667 92.8194C224.836 93.5714 224.884 94.2783 224.387 94.9326C224.175 95.2106 223.999 95.5182 223.821 95.8214C223.469 96.4199 223.202 97.0591 223.04 97.7375C222.865 98.4716 222.779 99.2125 222.835 99.9774C222.918 101.116 223.213 102.146 223.954 103.032C224.449 103.623 225.045 104.019 225.765 104.219C226.07 104.304 226.393 104.374 226.706 104.369C227.202 104.361 227.711 104.343 228.189 104.222C228.771 104.074 229.304 103.765 229.809 103.423C230.209 103.151 230.594 102.876 230.88 102.453C231.181 102.008 231.619 101.727 232.178 101.775C232.455 101.799 232.737 101.852 232.997 101.948C233.656 102.191 234.042 102.664 234.171 103.395C234.23 103.726 234.409 104.048 234.587 104.34C234.801 104.692 235.078 105.003 235.318 105.339C235.637 105.784 236.033 106.137 236.508 106.392C236.744 106.519 237.019 106.607 237.236 106.73C237.609 106.942 238.002 107.004 238.378 107.026C239.389 107.086 240.305 106.747 241.101 106.098C241.745 105.573 242.212 104.889 242.558 104.142C242.811 103.595 242.995 102.998 243.11 102.403C243.226 101.809 243.262 101.188 243.248 100.581C243.235 100.042 243.114 99.5045 243.023 98.9696C242.921 98.3661 243.03 97.8352 243.403 97.3394C243.711 96.9307 243.97 96.4824 244.229 96.0375C244.496 95.5757 244.752 95.1051 244.981 94.6222C245.111 94.3475 245.228 94.046 245.259 93.7462C245.304 93.3224 245.294 92.8864 245.251 92.4621C245.211 92.0813 245.149 91.6855 245.001 91.3394C244.807 90.8849 244.518 90.4734 244.272 90.043C244.061 89.6745 243.759 89.4054 243.392 89.2189C243.222 89.1324 243.027 89.0956 242.842 89.0425C242.364 88.9046 241.891 88.7338 241.404 88.6433C240.883 88.5468 240.357 88.6221 239.839 88.7461C239.208 88.8974 238.584 88.9666 237.945 88.7288C237.372 88.5155 236.878 88.7935 236.415 89.1145C236.188 89.2725 235.972 89.4473 235.775 89.5969L235.774 89.5964Z" fill="#B8AE91"/>
<path d="M252.478 72.5765C252.454 72.6095 252.4 72.7195 252.315 72.7892C252.215 72.8719 252.094 72.959 251.972 72.9757C251.429 73.05 250.877 73.0662 250.339 73.1683C249.887 73.2543 249.436 73.3905 249.013 73.5748C248.373 73.8528 247.747 74.1688 247.137 74.5116C246.795 74.7042 246.479 74.9599 246.186 75.2273C245.696 75.6729 245.218 76.1334 244.767 76.6197C244.446 76.967 244.138 77.3416 243.895 77.7481C243.567 78.2946 243.272 78.8686 243.031 79.4592C242.853 79.8958 242.769 80.3754 242.667 80.8416C242.581 81.2318 242.538 81.6316 242.459 82.0235C242.431 82.1642 242.364 82.2574 242.165 82.2507C241.906 82.2418 241.644 82.3283 241.382 82.3685C241.327 82.3769 241.253 82.3836 241.215 82.354C240.975 82.162 240.776 81.9504 240.756 81.6003C240.724 81.0498 240.678 80.4988 240.601 79.9533C240.525 79.4118 240.442 78.8646 240.29 78.3426C240.166 77.9183 239.956 77.5152 239.745 77.1255C239.517 76.7051 239.143 76.3423 239.013 75.8984C238.784 75.1185 238.167 74.6573 237.762 74.0281C237.428 73.5083 237.084 72.993 236.565 72.6268C236.226 72.3878 235.956 72.0389 235.604 71.8295C235.119 71.5409 234.587 71.3343 234.072 71.1009C233.976 71.058 233.861 71.0306 233.758 71.0401C233.369 71.0769 233.099 70.8558 232.831 70.6208C232.818 70.6091 232.812 70.5873 232.798 70.5773C232.653 70.4762 232.405 70.4706 232.49 70.1691C232.54 69.9894 232.542 69.7962 232.566 69.6086C232.573 69.5545 232.605 69.4914 232.588 69.4484C232.464 69.1368 232.671 69.1011 232.877 69.0905C233.153 69.0765 233.435 69.1207 233.707 69.0832C234.27 69.0062 234.835 68.9264 235.385 68.7862C236.494 68.5043 237.473 67.9225 238.39 67.2487C239.226 66.6351 240.018 65.9506 240.653 65.1126C241.106 64.5152 241.503 63.8715 241.909 63.2384C242.372 62.5176 242.65 61.7176 242.808 60.8735C242.852 60.6351 242.86 60.3883 242.873 60.1449C242.894 59.7675 243.205 59.5726 243.584 59.6759C243.789 59.7317 244.009 59.7496 244.221 59.7463C244.544 59.7412 244.548 60.0003 244.559 60.1935C244.594 60.8511 244.545 61.5183 244.627 62.1682C244.696 62.7153 244.875 63.254 245.056 63.7783C245.258 64.3628 245.482 64.9446 245.758 65.4951C246.221 66.4185 246.793 67.2693 247.44 68.0755C248.046 68.8315 248.729 69.5025 249.493 70.0614C250.237 70.6057 251.039 71.0959 251.999 71.1651C252.128 71.1746 252.262 71.2132 252.382 71.2673C252.698 71.4114 252.583 71.6927 252.561 71.9378C252.543 72.1344 252.511 72.3292 252.478 72.5743L252.478 72.5765ZM243.421 63.6454C241.696 66.7914 239.23 69.0056 235.962 70.2322C236.34 70.5192 236.719 70.7861 237.074 71.0825C237.444 71.3901 237.806 71.7106 238.143 72.0551C238.374 72.2929 238.555 72.5832 238.761 72.8473C239.058 73.2286 239.377 73.5937 239.651 73.9918C239.936 74.4072 240.189 74.8477 240.438 75.2882C240.695 75.7443 240.931 76.2133 241.178 76.6756C241.297 76.8989 241.445 77.1094 241.534 77.3444C241.649 77.6481 241.72 77.9703 241.833 78.37C243.503 75.0794 246.004 72.9098 249.423 71.8217C246.403 69.8805 244.534 67.06 243.422 63.6449L243.421 63.6454Z" fill="#B8AE91"/>
<path d="M214.403 71.8586C214.401 71.0853 214.556 70.3422 214.872 69.6444C215.128 69.0794 215.514 68.6098 215.977 68.2023C216.513 67.7294 217.089 67.3151 217.761 67.0868C218.305 66.9014 218.877 66.7998 219.43 66.6379C219.592 66.5905 219.775 66.4972 219.876 66.366C220.329 65.7793 220.891 65.3192 221.458 64.8653C222.106 64.3489 222.828 63.9653 223.602 63.699C224.044 63.5477 224.507 63.4858 224.972 63.4227C225.873 63.3004 226.709 63.5405 227.48 63.9302C227.983 64.1842 228.412 64.6297 228.813 65.0518C229.363 65.6319 229.752 66.3353 229.99 67.1125C230.154 67.6523 230.351 68.1939 230.42 68.7494C230.519 69.5478 230.6 70.3568 230.478 71.1685C230.417 71.575 230.451 71.9976 230.374 72.3996C230.237 73.1192 230.072 73.835 229.874 74.5395C229.725 75.0699 229.519 75.5847 229.316 76.0972C228.985 76.9369 228.531 77.7112 228.073 78.4828C227.862 78.8373 227.689 79.2153 227.498 79.5821C227.422 79.7284 227.338 79.821 227.14 79.7948C226.463 79.7038 225.783 79.6334 225.103 79.5653C224.687 79.5235 224.267 79.5207 223.854 79.4626C223.34 79.3906 222.831 79.284 222.322 79.1851C221.978 79.1181 221.633 79.05 221.294 78.9613C220.92 78.8636 220.554 78.7346 220.182 78.6307C219.394 78.4113 218.673 78.0389 217.974 77.6197C217.823 77.5292 217.684 77.4125 217.552 77.2936C217.243 77.0161 216.918 76.7521 216.643 76.4428C216.286 76.0408 215.942 75.6193 215.645 75.1698C215.348 74.7221 215.112 74.2319 214.858 73.7551C214.644 73.3531 214.395 72.2829 214.403 71.8586ZM226.328 78.2405C226.54 77.9887 226.714 77.7933 226.876 77.5878C226.949 77.4946 226.999 77.3829 227.058 77.278C227.148 77.115 227.23 76.9464 227.327 76.7872C227.442 76.5969 227.594 76.4255 227.685 76.2239C227.86 75.8381 228.008 75.4395 228.157 75.042C228.315 74.6205 228.492 74.2023 228.603 73.7674C228.722 73.3001 228.779 72.8155 228.853 72.3365C228.918 71.9172 228.969 71.4957 229.026 71.0753C229.051 70.8855 229.09 70.6962 229.097 70.5058C229.102 70.354 229.066 70.2004 229.051 70.0475C229.006 69.5807 228.998 69.1062 228.909 68.6489C228.811 68.1476 228.685 67.6468 228.446 67.1867C228.361 67.0215 228.334 66.8177 228.229 66.6703C228.04 66.4046 227.813 66.1662 227.6 65.9194C227.535 65.8451 227.467 65.7714 227.389 65.7134C227.22 65.5872 227.017 65.4979 226.877 65.3455C226.583 65.0239 226.175 65.039 225.814 64.9312C225.59 64.8642 225.331 64.8971 225.09 64.9128C224.63 64.9424 224.17 64.9731 223.772 65.269C223.643 65.3644 223.482 65.4309 223.326 65.4677C223.003 65.5442 222.759 65.7513 222.506 65.9456C222.365 66.0545 222.232 66.1751 222.096 66.2923C221.774 66.5704 221.406 66.8104 221.144 67.1393C220.88 67.4709 220.605 67.735 220.202 67.8399C220.082 67.8712 219.948 67.8505 219.829 67.8852C219.378 68.0141 218.931 68.1571 218.482 68.2933C217.992 68.4418 217.55 68.693 217.157 69.0196C216.813 69.306 216.523 69.6421 216.282 70.0413C216.007 70.4991 215.879 70.9798 215.826 71.4979C215.77 72.0344 215.917 72.533 216.1 73.0243C216.398 73.8204 216.81 74.549 217.387 75.1643C217.717 75.5171 218.083 75.8365 218.443 76.1592C218.609 76.3082 218.786 76.4562 218.982 76.5578C220.038 77.1099 221.158 77.4712 222.321 77.6973C222.814 77.7933 223.309 77.8809 223.805 77.9613C224.143 78.0161 224.483 78.0585 224.823 78.0948C225.352 78.1512 225.881 78.1981 226.327 78.2416L226.328 78.2405Z" fill="#B8AE91"/>
<path d="M235.19 91.3665C235.349 91.1644 235.515 90.9673 235.667 90.759C235.856 90.5 236.036 90.2331 236.216 89.9668C236.341 89.7831 236.479 89.7189 236.665 89.8819C236.78 89.983 236.914 90.0656 237.016 90.179C237.173 90.3537 237.115 90.5407 236.991 90.7071C236.628 91.19 236.259 91.6679 235.896 92.1509C235.743 92.3547 235.597 92.5646 235.46 92.856C235.557 92.8365 235.679 92.8487 235.749 92.7929C236.238 92.4004 236.704 91.975 237.203 91.5959C238.064 90.9422 239.007 90.4419 240.051 90.1756C240.916 89.9545 241.782 89.9121 242.614 90.3258C243.426 90.7289 243.846 91.4413 244.021 92.3111C244.253 93.469 244.008 94.5856 243.596 95.652C243.296 96.4291 242.945 97.2018 242.498 97.8952C242.232 98.3061 242.11 98.6779 242.145 99.1424C242.186 99.6767 242.214 100.212 242.249 100.747C242.311 101.681 242.247 102.604 241.924 103.485C241.585 104.412 241.1 105.269 240.324 105.87C239.936 106.171 239.406 106.209 238.901 106.188C237.916 106.146 237.165 105.622 236.498 104.947C236.077 104.522 235.687 104.062 235.307 103.597C235.101 103.345 234.939 103.054 234.767 102.774C234.476 102.297 234.194 101.815 233.908 101.335C233.903 101.327 233.897 101.319 233.895 101.31C233.805 100.983 233.619 100.956 233.29 100.946C232.931 100.933 232.48 100.94 232.219 100.572C231.599 101.01 231.007 101.483 230.366 101.868C229.218 102.556 228.008 103.082 226.639 103.091C225.693 103.097 224.848 102.838 224.227 102.076C223.854 101.619 223.661 101.052 223.615 100.454C223.541 99.483 223.779 98.5752 224.16 97.6914C224.523 96.849 224.976 96.0712 225.554 95.3672C225.614 95.2947 225.623 95.1713 225.639 95.0691C225.684 94.7788 225.751 94.4868 225.751 94.1954C225.751 93.6265 225.702 93.0575 225.692 92.4881C225.678 91.6222 225.683 90.7523 225.875 89.9054C226.111 88.8625 226.569 87.9714 227.672 87.6566C228.449 87.4349 229.212 87.3886 229.988 87.7509C230.641 88.0569 231.195 88.4549 231.65 89.025C232.167 89.6748 232.729 90.2873 233.234 90.9461C233.51 91.3056 233.705 91.7294 233.944 92.1202C233.991 92.1972 234.069 92.2547 234.133 92.3206C234.16 92.2212 234.226 92.1124 234.206 92.0236C234.127 91.6657 233.999 91.3179 233.933 90.9583C233.862 90.5781 233.828 90.189 233.808 89.8021C233.803 89.7228 233.915 89.5855 233.997 89.5626C234.175 89.5129 234.377 89.4794 234.551 89.5207C234.644 89.5431 234.731 89.7256 234.765 89.8512C234.893 90.3397 234.999 90.8344 235.114 91.3268C235.14 91.3397 235.165 91.3531 235.191 91.3659L235.19 91.3665ZM235.463 97.2158C235.322 97.4123 235.323 97.5424 235.515 97.6953C236.097 98.1587 236.683 98.621 237.23 99.1263C237.831 99.6801 238.388 100.284 238.97 100.859C239.029 100.917 239.136 100.949 239.221 100.949C239.715 100.952 240.213 100.845 240.69 101.081C240.839 101.155 241.014 101.171 241.196 101.218C241.209 101.106 241.227 101.024 241.226 100.944C241.213 100.243 241.182 99.5416 241.188 98.8404C241.19 98.573 241.103 98.4608 240.854 98.4139C240.121 98.276 239.39 98.1258 238.66 97.9717C237.99 97.8304 237.321 97.6836 236.654 97.5284C236.262 97.4368 235.873 97.3241 235.463 97.2158ZM232.43 96.8685C232.403 96.8272 232.376 96.7864 232.348 96.7451C231.998 96.6714 231.65 96.5921 231.299 96.5246C230.494 96.3699 229.685 96.2326 228.883 96.0662C228.189 95.9222 227.501 95.7491 226.81 95.5878C226.627 95.5448 226.511 95.6023 226.41 95.7759C226.093 96.3247 225.764 96.8668 225.428 97.4039C225.242 97.7009 225.253 97.7467 225.583 97.8098C226.193 97.9259 226.771 98.1247 227.238 98.5629C227.386 98.702 227.494 98.7031 227.665 98.6059C228.603 98.0694 229.521 97.4927 230.612 97.3123C231.156 97.2225 231.69 97.0678 232.229 96.9405C232.297 96.9243 232.363 96.8931 232.43 96.8691V96.8685ZM232.479 95.6765C232.488 95.6598 232.497 95.643 232.506 95.6263C232.461 95.5755 232.422 95.5174 232.371 95.475C231.938 95.1166 231.507 94.7559 231.068 94.4047C230.366 93.8425 229.745 93.1982 229.18 92.492C229.064 92.3474 228.829 92.1749 228.685 92.2039C228.104 92.32 227.55 92.3413 227.007 92.0655C226.908 92.0158 226.801 91.9856 226.699 91.9476C226.699 92.195 226.693 92.4066 226.7 92.6176C226.718 93.1631 226.764 93.708 226.758 94.2529C226.755 94.6163 226.726 94.6068 227.072 94.6705C228.384 94.91 229.694 95.1562 231.004 95.4002C231.496 95.4917 231.987 95.5844 232.478 95.6771L232.479 95.6765ZM232.876 94.982C232.991 94.6303 233.08 94.35 233.174 94.072C233.254 93.8364 233.374 93.6092 233.416 93.3668C233.497 92.8945 233.14 92.5668 232.946 92.2089C232.687 91.7327 232.314 91.3173 231.962 90.9003C231.525 90.3816 231.061 89.8859 230.604 89.3851C230.561 89.3387 230.468 89.2885 230.427 89.3075C230.38 89.3292 230.352 89.4225 230.34 89.4889C230.326 89.5693 230.35 89.6564 230.337 89.7373C230.294 90.0154 230.289 90.313 230.181 90.5631C230.018 90.9416 229.782 91.2866 229.593 91.6166C230.439 92.9732 231.775 93.8068 232.875 94.9814L232.876 94.982ZM238.174 101.481C237.811 100.954 235.751 98.9046 235.022 98.5741C234.902 98.8454 234.811 99.1369 234.655 99.3853C234.408 99.7778 234.488 100.147 234.676 100.507C234.886 100.911 235.116 101.305 235.362 101.687C235.782 102.339 236.2 102.995 236.662 103.614C236.905 103.94 237.242 104.193 237.51 104.453C237.495 103.927 237.458 103.41 237.472 102.893C237.488 102.329 237.797 101.894 238.174 101.481V101.481ZM240.367 91.1945C240.199 91.2247 240.088 91.2269 239.993 91.2649C239.5 91.4619 238.992 91.6294 238.526 91.8801C237.714 92.3161 236.918 92.7868 236.237 93.4316C236.027 93.6304 235.847 93.8124 235.903 94.1596C235.944 94.4086 235.884 94.6744 235.867 94.9329C235.856 95.1166 235.842 95.3002 235.827 95.5113C235.952 95.4661 236.019 95.4381 236.088 95.4175C236.705 95.2338 237.333 95.0797 237.938 94.8603C238.434 94.6805 238.903 94.4215 239.386 94.2021C239.761 94.0323 239.769 94.034 239.646 93.6309C239.475 93.0687 239.563 92.5372 239.831 92.0359C239.975 91.7656 240.159 91.5178 240.367 91.1945H240.367ZM240.421 94.7179C239.767 95.0362 239.08 95.4208 238.357 95.7078C237.638 95.9931 236.884 96.1801 236.145 96.4101C236.147 96.4392 236.15 96.4688 236.152 96.4978C236.315 96.5363 236.476 96.5821 236.64 96.6117C237.064 96.6887 237.491 96.7479 237.913 96.8333C239.044 97.0611 240.173 97.3029 241.305 97.5239C241.398 97.5424 241.563 97.4787 241.608 97.4006C241.87 96.9405 242.115 96.4688 242.349 95.9925C242.442 95.8021 242.493 95.5894 242.574 95.355C241.783 95.3717 241.069 95.2852 240.421 94.7185L240.421 94.7179ZM227.748 101.829C227.878 101.814 227.945 101.821 227.998 101.797C228.575 101.54 229.18 101.328 229.719 101.003C230.368 100.612 230.966 100.129 231.576 99.6728C231.76 99.5355 232.01 99.3814 232.06 99.1888C232.166 98.7773 232.161 98.3351 232.204 97.8829C230.713 98.2894 229.249 98.7109 227.982 99.6633C228.183 100.372 228.08 101.086 227.747 101.829H227.748ZM241.189 102.012C240.997 101.978 240.831 101.93 240.662 101.922C240.277 101.904 239.888 101.867 239.508 101.909C238.941 101.973 238.508 102.398 238.43 102.927C238.393 103.18 238.363 103.455 238.419 103.698C238.525 104.16 238.692 104.607 238.844 105.057C238.858 105.099 238.946 105.142 238.998 105.14C239.353 105.12 239.701 105.059 239.963 104.781C240.629 104.074 240.976 103.202 241.174 102.257C241.19 102.18 241.184 102.098 241.189 102.012H241.189ZM243.07 93.1257C243.062 93.1245 243.053 93.1229 243.045 93.1218C243.037 92.9928 243.038 92.8621 243.02 92.7343C242.936 92.1397 242.749 91.6127 242.188 91.3C242 91.1951 241.844 91.1979 241.699 91.3324C241.4 91.6088 241.074 91.8678 240.83 92.1905C240.21 93.0107 240.428 93.7621 241.2 94.1903C241.603 94.4148 242.075 94.5075 242.512 94.6722C242.746 94.7604 242.851 94.6615 242.884 94.4388C242.95 94.0016 243.008 93.5628 243.07 93.1251V93.1257ZM229.627 89.3627C229.627 89.3203 229.629 89.2555 229.627 89.1908C229.608 88.6732 229.561 88.5939 229.065 88.5286C228.835 88.4985 228.592 88.5593 228.356 88.5889C227.746 88.666 227.228 88.8725 227.055 89.5676C226.989 89.8339 226.918 90.1008 226.826 90.3587C226.726 90.6356 226.862 90.8958 227 91.0393C227.351 91.4022 227.818 91.5635 228.317 91.4095C229.123 91.1605 229.691 90.1829 229.628 89.3627H229.627ZM224.642 99.9442C224.679 101.037 225.021 101.777 226.09 101.97C226.188 101.988 226.335 101.932 226.404 101.857C226.555 101.692 226.677 101.498 226.799 101.307C227.281 100.55 227.071 99.7594 226.436 99.2245C226.066 98.9124 225.612 98.7946 225.164 98.6651C224.962 98.607 224.872 98.717 224.837 98.8923C224.758 99.2904 224.688 99.6901 224.642 99.9442ZM233.102 99.828C233.138 99.8437 233.173 99.8593 233.209 99.8749C233.318 99.7119 233.461 99.5628 233.53 99.3836C233.8 98.6874 234.085 97.994 234.294 97.2777C234.674 95.9775 234.975 94.6565 234.907 93.2809C234.904 93.2239 234.873 93.1446 234.83 93.1212C234.793 93.1005 234.704 93.1251 234.67 93.1614C234.578 93.2624 234.473 93.3685 234.427 93.4936C234.244 93.996 234.044 94.4963 233.917 95.0149C233.631 96.179 233.314 97.3391 233.204 98.5412C233.165 98.9699 233.136 99.3993 233.101 99.828H233.102Z" fill="#B8AE91"/>
<path d="M237.993 69.7342C238.964 69.8408 239.769 69.4974 240.51 68.9866C241.445 68.3423 242.191 67.5144 242.633 66.4374C242.773 66.0952 242.834 65.7166 242.912 65.3504C242.949 65.1745 243.013 65.0422 243.197 65.0556C243.656 65.0897 243.751 65.1572 243.732 65.4168C243.673 66.2515 243.879 67.0275 244.231 67.7662C244.754 68.866 245.445 69.8296 246.495 70.4594C246.773 70.6263 247.1 70.7067 247.403 70.8329C247.536 70.8882 247.763 70.7927 247.747 71.0942C247.721 71.5693 247.645 71.7435 247.355 71.7513C246.715 71.7686 246.112 71.9333 245.544 72.2236C244.652 72.6803 243.926 73.3313 243.378 74.1983C243.003 74.7918 242.783 75.4299 242.716 76.1267C242.698 76.316 242.623 76.3891 242.445 76.3751C242.383 76.3701 242.319 76.383 242.257 76.3919C242.009 76.4287 241.883 76.3182 241.852 76.063C241.794 75.5857 241.753 75.1028 241.649 74.636C241.581 74.3301 241.428 74.0403 241.287 73.7567C240.832 72.8428 240.29 71.9819 239.497 71.3482C239.149 71.0696 238.691 70.92 238.265 70.7637C237.919 70.6364 237.545 70.4583 237.757 69.9815C237.801 69.8827 237.912 69.8151 237.992 69.7336L237.993 69.7342ZM242.414 74.3792C243.223 72.7897 244.469 71.7239 246.174 71.1612C244.661 70.1797 243.742 68.7845 243.177 67.0783C242.31 68.6583 241.076 69.7465 239.454 70.3762C240.906 71.3499 241.718 72.8031 242.414 74.3792H242.414Z" fill="#B8AE91"/>
<path d="M228.154 70.9112C228.102 72.5923 227.727 73.9785 227.061 75.2816C226.762 75.8667 226.449 76.4445 226.123 77.014C226.068 77.1089 225.912 77.2072 225.811 77.1988C224.991 77.129 224.169 77.0598 223.355 76.9414C222.051 76.7516 220.758 76.4652 219.641 75.7115C218.8 75.1437 218.109 74.3945 217.707 73.4152C217.557 73.0512 217.365 72.6928 217.291 72.3115C217.097 71.3138 217.343 70.4166 218.004 69.6461C218.579 68.9762 219.318 68.6021 220.141 68.3777C220.296 68.3353 220.471 68.3509 220.614 68.2861C220.77 68.2158 220.923 68.1052 221.037 67.9751C221.829 67.078 222.77 66.4069 223.928 66.1651C225.593 65.8173 226.89 66.6408 227.591 68.1292C228.034 69.0711 228.212 70.071 228.154 70.9107L228.154 70.9112ZM225.368 76.1453C225.421 76.0409 225.45 75.9203 225.523 75.8483C225.884 75.4932 226.082 75.0404 226.296 74.591C226.876 73.3761 227.171 72.0876 227.167 70.7443C227.164 69.8466 227.004 68.9695 226.488 68.1895C225.997 67.4481 225.344 67.0763 224.48 67.1064C224.025 67.1221 223.612 67.2929 223.208 67.5073C222.647 67.8049 222.158 68.1918 221.749 68.6797C221.551 68.9159 221.331 69.0683 221.03 69.1258C220.171 69.2888 219.341 69.52 218.739 70.2441C218.294 70.7789 218.082 71.3858 218.228 72.087C218.363 72.7341 218.654 73.3019 219.054 73.8284C219.711 74.6943 220.567 75.2314 221.573 75.5379C222.805 75.9136 224.073 76.0705 225.368 76.1459V76.1453Z" fill="#B8AE91"/>
</g>
<rect x="127" y="169.367" width="138.168" height="212.629" rx="10" fill="#E5D9B6" fill-opacity="0.5"/>
<g clip-path="url(#clip3_873_2810)">
<path d="M209.307 298.401C209.236 298.325 209.177 298.263 209.141 298.225C208.957 298.235 208.8 298.243 208.627 298.252C208.598 298.167 208.147 298.158 207.878 298.199C207.596 298.243 207.301 298.202 207.011 298.202C206.728 298.202 206.445 298.209 206.162 298.208C205.881 298.207 205.6 298.198 205.319 298.197C205.011 298.196 204.704 298.202 204.396 298.203C204.111 298.204 203.826 298.203 203.538 298.203C203.535 298.228 203.53 298.266 203.526 298.308C203.417 298.211 203.334 298.142 203.16 298.183C202.956 298.232 202.729 298.176 202.512 298.182C202.125 298.192 201.733 298.265 201.354 298.219C200.921 298.166 200.492 298.251 200.056 298.176C199.692 298.114 199.305 298.181 198.93 298.198C198.875 298.201 198.822 298.242 198.799 298.251C198.712 298.228 198.636 298.192 198.559 298.192C198.292 298.192 198.018 298.169 197.76 298.22C197.348 298.302 196.955 298.153 196.548 298.18C196.079 298.21 195.606 298.193 195.135 298.191C194.799 298.189 194.463 298.167 194.127 298.171C193.721 298.177 193.313 298.186 192.909 298.224C192.65 298.248 192.404 298.191 192.152 298.17C192.118 298.168 192.084 298.155 192.051 298.158C191.758 298.183 191.465 298.212 191.171 298.234C191.147 298.236 191.119 298.194 191.088 298.168C191.064 298.228 191.041 298.287 191.036 298.299C190.978 298.276 190.935 298.246 190.89 298.243C190.605 298.228 190.319 298.212 190.033 298.21C189.816 298.209 189.6 298.233 189.383 298.237C189.24 298.241 189.096 298.224 188.952 298.227C188.863 298.229 188.774 298.261 188.685 298.26C188.552 298.259 188.418 298.243 188.285 298.228C188.253 298.225 188.223 298.19 188.193 298.191C187.738 298.206 187.267 298.156 186.836 298.267C186.59 298.33 186.453 298.178 186.245 298.186C185.105 298.227 183.962 298.225 182.82 298.222C182.303 298.22 181.784 298.198 181.268 298.154C180.934 298.126 180.604 298.051 180.275 297.981C180.003 297.923 179.739 297.803 179.466 297.785C179.28 297.774 179.11 297.817 179.047 297.695C178.149 297.501 177.41 297.074 176.633 296.726C176.679 296.666 176.708 296.627 176.692 296.648C176.527 296.497 176.368 296.365 176.226 296.218C176.122 296.109 176.052 295.967 175.945 295.862C175.754 295.674 175.712 295.439 175.666 295.192C175.628 294.982 175.524 294.784 175.478 294.575C175.427 294.346 175.406 294.109 175.376 293.876C175.343 293.617 175.303 293.358 175.289 293.099C175.276 292.849 175.103 292.62 175.206 292.355C175.222 292.312 175.182 292.239 175.154 292.187C174.976 291.869 174.988 291.518 174.996 291.174C174.999 291.031 175.132 290.882 175.113 290.748C174.995 289.922 175.188 289.096 175.075 288.262C175.009 287.776 175.118 287.259 175.095 286.75C175.065 286.088 175.109 285.424 175.109 284.76C175.108 284.207 175.083 283.653 175.079 283.1C175.077 282.871 175.157 282.627 175.1 282.417C175.019 282.124 175.164 281.855 175.094 281.56C175.027 281.276 175.103 280.957 175.119 280.655C175.12 280.628 175.146 280.603 175.173 280.556C175.103 280.569 175.071 280.575 175.037 280.582C175.035 280.579 175.03 280.572 175.025 280.565C175.205 280.443 175.044 280.281 175.072 280.157C175.184 279.651 175.079 279.148 175.106 278.644C175.139 278.046 175.13 277.444 175.13 276.844C175.13 276.4 175.109 275.958 175.108 275.515C175.104 274.587 175.106 273.66 175.108 272.733C175.108 272.428 175.147 272.12 175.11 271.821C175.077 271.566 175.183 271.307 175.107 271.073C174.951 270.593 175.164 270.133 175.13 269.661C175.101 269.244 175.165 268.815 175.094 268.407C175.013 267.946 175.172 267.508 175.119 267.055C175.074 266.669 175.075 266.278 175.064 265.888C175.06 265.761 175.095 265.633 175.093 265.505C175.089 265.279 175.065 265.053 175.057 264.826C175.054 264.708 175.071 264.59 175.074 264.473C175.084 264.137 175.147 263.79 175.08 263.471C175.039 263.277 175.122 263.128 175.113 262.953C175.081 262.326 175.122 261.696 175.109 261.068C175.101 260.69 175.017 260.313 175.016 259.936C175.016 259.573 175.062 259.207 175.121 258.848C175.174 258.531 175.276 258.222 175.349 257.908C175.435 257.535 175.497 257.155 175.601 256.788C175.673 256.537 175.856 256.308 175.888 256.056C175.918 255.819 176.021 255.633 176.094 255.423C176.236 255.016 176.507 254.695 176.715 254.334C176.961 253.908 177.334 253.644 177.781 253.457C178.036 253.351 178.269 253.191 178.523 253.083C178.68 253.016 178.881 253.035 179.024 252.951C179.242 252.823 179.46 252.79 179.704 252.776C179.972 252.76 180.239 252.651 180.505 252.659C180.884 252.671 181.23 252.565 181.584 252.471C181.643 252.455 181.7 252.425 181.759 252.423C182.385 252.408 183.012 252.39 183.639 252.387C183.974 252.385 184.309 252.415 184.645 252.424C184.757 252.427 184.869 252.407 184.981 252.404C185.527 252.393 186.072 252.381 186.617 252.375C186.933 252.372 187.248 252.383 187.563 252.383C188.092 252.383 188.621 252.379 189.15 252.38C189.535 252.381 189.919 252.396 190.304 252.393C190.579 252.39 190.852 252.364 191.127 252.355C191.608 252.341 192.089 252.326 192.571 252.324C193.218 252.321 193.864 252.329 194.511 252.335C195.273 252.342 196.035 252.361 196.797 252.352C197.058 252.348 197.35 252.187 197.573 252.262C197.884 252.365 198.17 252.301 198.465 252.306C198.784 252.31 199.102 252.276 199.421 252.274C199.897 252.272 200.373 252.289 200.848 252.289C201.254 252.289 201.66 252.275 202.065 252.271C202.186 252.269 202.307 252.281 202.429 252.282C202.907 252.285 203.386 252.288 203.864 252.288C204.431 252.289 204.998 252.297 205.566 252.285C206.262 252.27 206.957 252.232 207.652 252.215C208.129 252.204 208.608 252.223 209.084 252.203C209.4 252.19 209.713 252.117 210.029 252.097C210.235 252.083 210.444 252.119 210.653 252.125C210.903 252.133 211.155 252.115 211.403 252.138C211.904 252.186 212.418 252.201 212.899 252.331C213.304 252.441 213.68 252.678 214.05 252.892C214.222 252.992 214.346 253.172 214.498 253.308C214.592 253.392 214.725 253.442 214.795 253.539C215.311 254.255 215.675 255.036 215.824 255.914C215.897 256.346 215.955 256.792 216.112 257.195C216.245 257.536 216.162 257.866 216.223 258.192C216.284 258.523 216.431 258.837 216.534 259.16C216.588 259.332 216.658 259.507 216.668 259.683C216.695 260.152 216.693 260.623 216.703 261.092C216.719 261.809 216.746 262.524 216.749 263.24C216.754 264.022 216.73 264.805 216.732 265.587C216.733 265.937 216.774 266.287 216.783 266.638C216.795 267.153 216.796 267.67 216.799 268.186C216.801 268.448 216.791 268.71 216.794 268.973C216.802 269.622 216.82 270.27 216.823 270.919C216.825 271.498 216.804 272.078 216.807 272.657C216.809 273.037 216.844 273.416 216.849 273.797C216.851 273.979 216.801 274.161 216.802 274.343C216.804 274.561 216.854 274.78 216.852 274.998C216.849 275.511 216.812 276.025 216.819 276.538C216.823 276.91 216.927 277.287 216.892 277.652C216.833 278.27 217.002 278.882 216.866 279.505C216.796 279.826 216.92 280.186 216.924 280.529C216.93 280.994 216.893 281.461 216.897 281.926C216.9 282.306 216.944 282.686 216.955 283.067C216.967 283.481 216.967 283.896 216.965 284.31C216.963 284.71 216.943 285.111 216.944 285.51C216.945 286.116 216.955 286.721 216.968 287.327C216.98 287.931 217.012 288.535 217.016 289.138C217.02 289.637 216.989 290.135 216.989 290.634C216.989 290.817 217.001 291.012 217.065 291.179C217.191 291.51 217.205 291.845 217.168 292.184C217.145 292.395 217.073 292.601 217.04 292.812C217.021 292.937 217.057 293.074 217.029 293.196C216.957 293.508 216.819 293.811 216.787 294.125C216.742 294.584 216.447 294.939 216.346 295.367C216.249 295.782 216.035 296.146 215.777 296.462C215.572 296.712 215.252 296.865 214.996 297.077C214.663 297.355 214.283 297.557 213.918 297.785C213.539 298.022 213.128 298.164 212.692 298.231C212.253 298.299 211.807 298.327 211.368 298.396C210.92 298.465 210.473 298.392 210.025 298.41C209.822 298.419 209.617 298.346 209.411 298.324C209.376 298.32 209.332 298.383 209.306 298.404L209.307 298.401ZM188.926 272.007C188.744 272.08 188.567 272.111 188.446 272.209C188.209 272.402 188.002 272.632 187.785 272.848C187.732 272.901 187.692 272.969 187.635 273.017C187.44 273.179 187.231 273.324 187.047 273.497C186.868 273.666 186.724 273.871 186.545 274.04C186.03 274.525 185.504 274.997 184.988 275.48C184.857 275.603 184.753 275.756 184.622 275.879C184.511 275.983 184.364 276.048 184.26 276.157C184.135 276.286 184.067 276.514 183.925 276.568C183.764 276.628 183.62 276.713 183.518 276.819C183.053 277.302 182.456 277.651 182.09 278.231C182.077 278.251 182.048 278.263 182.024 278.273C181.638 278.435 181.399 278.772 181.116 279.053C180.904 279.264 180.73 279.513 180.512 279.716C180.338 279.879 180.112 279.968 179.941 280.159C179.695 280.435 179.385 280.659 179.085 280.882C178.597 281.244 178.871 281.763 178.788 282.207C178.767 282.321 178.756 282.439 178.76 282.554C178.765 282.721 178.801 282.887 178.799 283.053C178.795 283.515 178.762 283.978 178.77 284.439C178.779 284.952 178.839 285.464 178.843 285.977C178.847 286.37 178.785 286.764 178.775 287.158C178.763 287.634 178.774 288.11 178.777 288.586C178.778 288.713 178.787 288.839 178.792 288.966C178.808 289.41 178.853 289.856 178.831 290.298C178.814 290.651 178.73 290.999 178.876 291.343C178.892 291.381 178.89 291.428 178.889 291.471C178.864 292.218 178.921 292.957 179.096 293.685C179.107 293.731 179.139 293.792 179.178 293.809C179.433 293.923 179.684 294.068 179.953 294.124C180.447 294.226 180.953 294.271 181.453 294.344C181.642 294.371 181.831 294.398 182.017 294.441C182.176 294.478 182.331 294.577 182.488 294.579C182.988 294.585 183.489 294.557 183.989 294.546C184.494 294.535 185 294.521 185.505 294.521C186.316 294.521 187.126 294.533 187.937 294.534C188.57 294.535 189.204 294.527 189.838 294.528C190.604 294.529 191.37 294.538 192.136 294.537C192.725 294.536 193.313 294.517 193.902 294.52C194.319 294.523 194.735 294.562 195.151 294.561C195.513 294.561 195.873 294.519 196.235 294.512C196.422 294.509 196.609 294.557 196.795 294.551C197.028 294.543 197.26 294.482 197.493 294.48C197.916 294.477 198.338 294.503 198.761 294.511C199.069 294.517 199.376 294.513 199.684 294.513C200.064 294.513 200.444 294.513 200.824 294.514C201.295 294.515 201.766 294.517 202.238 294.519C202.552 294.52 202.866 294.528 203.181 294.521C203.474 294.515 203.768 294.478 204.061 294.48C204.822 294.484 205.583 294.506 206.343 294.514C206.9 294.519 207.456 294.516 208.012 294.512C208.633 294.507 209.254 294.492 209.875 294.492C210.006 294.492 210.139 294.53 210.267 294.564C210.464 294.615 210.655 294.701 210.854 294.73C211.156 294.773 211.449 294.723 211.754 294.662C212.153 294.582 212.448 294.349 212.786 294.178C212.856 294.142 212.927 294.057 212.949 293.98C213.082 293.52 213.362 293.105 213.365 292.606C213.366 292.472 213.367 292.337 213.374 292.203C213.396 291.757 213.298 291.312 213.381 290.863C213.414 290.685 213.357 290.491 213.351 290.305C213.342 290.011 213.345 289.716 213.335 289.422C213.33 289.276 213.273 289.124 213.297 288.986C213.352 288.683 213.359 288.384 213.313 288.083C213.291 287.943 213.186 287.716 213.231 287.684C213.432 287.539 213.303 287.374 213.303 287.223C213.3 286.574 213.316 285.923 213.266 285.277C213.237 284.891 213.236 284.513 213.267 284.129C213.279 283.979 213.251 283.805 213.182 283.674C213.101 283.522 212.945 283.413 212.838 283.272C212.425 282.731 212.021 282.182 211.606 281.643C211.557 281.579 211.46 281.553 211.412 281.525C211.401 281.433 211.42 281.326 211.374 281.27C211.175 281.026 210.956 280.798 210.746 280.562C210.447 280.227 210.266 279.805 209.9 279.51C209.643 279.303 209.463 278.996 209.263 278.724C209.047 278.43 208.838 278.129 208.643 277.821C208.411 277.455 208.264 277.462 207.999 277.799C207.706 278.171 207.372 278.512 207.047 278.859C206.834 279.086 206.561 279.269 206.396 279.523C206.159 279.888 205.752 280.112 205.597 280.535C205.594 280.545 205.538 280.529 205.524 280.543C205.332 280.746 205.143 280.952 204.953 281.158C204.972 281.175 204.991 281.192 205.009 281.208C204.95 281.183 204.889 281.157 204.818 281.126C204.826 281.192 204.851 281.253 204.832 281.273C204.576 281.544 204.31 281.805 204.057 282.077C203.98 282.159 203.951 282.287 203.872 282.365C203.567 282.662 203.248 282.944 202.94 283.239C202.567 283.596 202.201 283.961 201.832 284.322C201.582 284.567 201.301 284.717 200.959 284.613C201.035 284.49 201.116 284.356 201.229 284.172C200.798 284.273 201.077 283.899 200.906 283.843C200.501 284.257 200.402 284.284 199.983 284.141C199.814 284.083 199.644 284.03 199.486 283.978C199.434 283.894 199.391 283.802 199.327 283.727C199.279 283.67 199.15 283.632 199.153 283.591C199.167 283.372 198.984 283.306 198.876 283.18C198.652 282.919 198.447 282.643 198.219 282.386C198.063 282.21 197.85 282.096 197.753 281.853C197.709 281.742 197.529 281.686 197.372 281.579C197.364 281.556 197.357 281.45 197.301 281.386C196.953 280.99 196.592 280.606 196.239 280.214C195.851 279.785 195.473 279.347 195.079 278.925C194.964 278.801 194.746 278.746 194.68 278.61C194.555 278.349 194.383 278.157 194.18 277.955C193.827 277.603 193.539 277.185 193.217 276.801C193.195 276.775 193.116 276.798 193.053 276.798C192.862 276.519 192.679 276.171 192.419 275.898C192.181 275.649 191.914 275.43 191.693 275.158C191.406 274.802 191.036 274.514 190.789 274.119C190.777 274.1 190.742 274.096 190.723 274.079C190.602 273.975 190.47 273.881 190.366 273.761C190.14 273.499 189.942 273.213 189.709 272.958C189.447 272.67 189.053 272.499 188.925 272.006L188.926 272.007ZM208.073 272.932C208.333 273.004 208.55 273.076 208.772 273.122C208.914 273.152 209.079 273.108 209.206 273.162C209.435 273.26 209.679 273.371 209.854 273.541C210.206 273.884 210.529 274.262 210.84 274.644C211.032 274.882 211.162 275.17 211.352 275.409C211.766 275.93 212.202 276.433 212.624 276.946C212.794 277.154 212.952 277.372 213.116 277.585C213.138 277.58 213.161 277.575 213.183 277.57C213.195 277.483 213.217 277.396 213.216 277.309C213.208 276.776 213.19 276.242 213.185 275.709C213.182 275.348 213.205 274.987 213.198 274.626C213.195 274.493 213.113 274.36 213.116 274.228C213.121 273.98 213.181 273.733 213.182 273.485C213.183 273.056 213.151 272.628 213.144 272.199C213.136 271.758 213.144 271.317 213.138 270.876C213.138 270.815 213.067 270.735 213.088 270.697C213.211 270.477 213.171 270.264 213.106 270.041C213.071 269.924 213.01 269.727 213.057 269.69C213.195 269.582 213.131 269.465 213.132 269.354C213.139 268.909 213.183 268.458 213.121 268.022C213.086 267.777 213.206 267.545 213.127 267.328C213.035 267.078 213.099 266.819 213.075 266.574C213.037 266.169 213.066 265.743 213.075 265.328C213.091 264.632 213.021 263.935 213.082 263.24C213.095 263.098 213.073 262.954 213.073 262.81C213.075 262.373 213.087 261.936 213.081 261.499C213.077 261.22 213.123 260.905 213.011 260.671C212.866 260.365 212.939 259.976 212.647 259.736C212.639 259.73 212.648 259.706 212.648 259.69C212.644 259.439 212.647 259.187 212.633 258.937C212.615 258.589 212.586 258.243 212.557 257.896C212.549 257.798 212.533 257.699 212.507 257.605C212.425 257.316 212.275 257.032 212.264 256.742C212.249 256.339 211.955 256.165 211.75 255.907C211.627 255.751 211.523 255.897 211.417 255.883C211.245 255.859 211.082 255.765 210.909 255.742C210.811 255.728 210.701 255.795 210.596 255.825C210.542 255.787 210.473 255.777 210.405 255.779C210.365 255.78 210.326 255.811 210.286 255.813C210.019 255.823 209.751 255.822 209.485 255.837C209.063 255.861 208.641 255.928 208.22 255.915C207.909 255.905 207.608 255.977 207.28 255.928C206.958 255.881 206.589 255.875 206.231 255.94C205.821 256.015 205.385 255.945 204.961 255.938C204.601 255.933 204.242 255.92 203.883 255.924C203.751 255.925 203.617 255.988 203.489 255.976C202.947 255.926 202.407 255.898 201.872 256.029C201.844 256.036 201.811 256.027 201.782 256.023C201.586 255.998 201.39 255.961 201.193 255.949C200.996 255.937 200.798 255.94 200.601 255.954C200.522 255.96 200.447 256.016 200.432 256.023C200.146 256.002 199.905 255.979 199.663 255.97C199.486 255.964 199.308 255.989 199.131 255.979C198.978 255.97 198.825 255.9 198.675 255.911C198.397 255.932 198.123 256.018 197.846 256.029C197.361 256.048 196.876 256.034 196.391 256.029C196.09 256.026 195.79 256.015 195.489 256.01C195.23 256.006 194.971 255.997 194.712 256.006C194.484 256.013 194.257 256.061 194.03 256.058C193.646 256.053 193.264 256.009 192.88 256.007C192.345 256.005 191.81 256.018 191.275 256.042C191.071 256.051 190.844 255.938 190.675 256.135C190.675 256.1 190.676 256.051 190.675 256.051C190.44 256.04 190.2 256.003 189.971 256.036C189.813 256.059 189.66 256.04 189.517 256.053C189.099 256.092 188.665 255.933 188.257 256.144C188.192 256.178 188.078 256.124 187.989 256.104C187.93 256.091 187.874 256.05 187.817 256.05C187.25 256.057 186.684 256.067 186.118 256.084C185.766 256.094 185.414 256.129 185.062 256.136C184.797 256.141 184.532 256.111 184.267 256.112C184.188 256.112 184.082 256.215 184.036 256.188C183.741 256.022 183.434 256.103 183.133 256.123C183.011 256.132 182.897 256.234 182.775 256.248C182.507 256.279 182.235 256.293 181.965 256.291C181.821 256.29 181.678 256.242 181.552 256.218C181.483 256.266 181.412 256.358 181.352 256.352C180.875 256.298 180.421 256.364 179.971 256.528C179.673 256.637 179.468 256.798 179.396 257.122C179.339 257.381 179.123 257.603 179.213 257.899C179.217 257.913 179.21 257.935 179.202 257.949C178.872 258.5 178.865 259.121 178.827 259.733C178.813 259.962 178.835 260.193 178.828 260.423C178.816 260.795 178.786 261.166 178.779 261.538C178.776 261.762 178.817 261.987 178.814 262.212C178.809 262.686 178.778 263.161 178.776 263.635C178.775 263.975 178.82 264.316 178.818 264.656C178.815 265.12 178.775 265.584 178.773 266.048C178.771 266.602 178.804 267.155 178.803 267.709C178.802 268.193 178.762 268.677 178.763 269.162C178.764 269.773 178.795 270.386 178.803 270.998C178.811 271.621 178.814 272.245 178.807 272.868C178.802 273.409 178.778 273.95 178.764 274.491C178.759 274.657 178.719 274.838 178.769 274.986C178.863 275.262 178.832 275.518 178.772 275.788C178.744 275.915 178.768 276.052 178.768 276.255C178.867 276.162 178.915 276.12 178.961 276.075C179.314 275.738 179.666 275.4 180.019 275.064C180.097 274.991 180.186 274.931 180.263 274.857C180.6 274.523 180.925 274.177 181.272 273.855C181.652 273.503 182.06 273.181 182.439 272.828C182.715 272.57 182.952 272.269 183.228 272.01C183.804 271.466 184.399 270.941 184.977 270.399C185.546 269.865 186.097 269.31 186.672 268.781C186.938 268.537 187.262 268.356 187.523 268.108C187.745 267.898 188.045 267.941 188.279 267.795C188.473 267.674 188.625 267.785 188.754 267.921C188.84 268.012 188.91 268.12 188.981 268.213C189.07 268.191 189.141 268.165 189.213 268.157C189.282 268.149 189.373 268.191 189.421 268.16C189.634 268.019 189.714 268.023 189.906 268.171C189.96 268.212 190.061 268.192 190.195 268.204C190.3 268.271 190.495 268.349 190.628 268.488C190.929 268.803 191.195 269.152 191.485 269.478C191.781 269.811 192.093 270.129 192.392 270.458C192.907 271.026 193.418 271.598 193.928 272.169C194.325 272.614 194.717 273.064 195.116 273.507C195.35 273.766 195.597 274.014 195.834 274.27C195.956 274.403 196.066 274.549 196.19 274.68C196.442 274.948 196.712 275.199 196.951 275.477C197.262 275.838 197.542 276.226 197.85 276.589C198.14 276.93 198.444 277.26 198.753 277.584C199.075 277.92 199.417 278.237 199.741 278.571C199.933 278.769 200.14 278.964 200.282 279.196C200.477 279.515 200.722 279.768 200.985 279.983C201.085 279.869 201.158 279.776 201.241 279.694C201.447 279.491 201.669 279.303 201.864 279.091C202.119 278.815 202.346 278.513 202.599 278.236C203.086 277.702 203.581 277.176 204.077 276.65C204.341 276.37 204.622 276.104 204.883 275.821C205.258 275.416 205.622 274.999 205.992 274.589C206.192 274.369 206.392 274.149 206.599 273.937C206.842 273.688 207.068 273.409 207.35 273.214C207.579 273.056 207.88 273.003 208.072 272.933L208.073 272.932Z" fill="#B8AE91"/>
<path d="M206.958 263.786C206.926 263.889 206.878 263.963 206.887 264.03C206.915 264.25 207.001 264.468 206.996 264.685C206.986 265.079 206.933 265.472 206.884 265.864C206.87 265.983 206.795 266.095 206.781 266.214C206.708 266.835 206.369 267.343 206.125 267.895C206.017 268.138 205.807 268.29 205.722 268.561C205.639 268.825 205.312 269.013 205.088 269.23C205.002 269.313 204.846 269.332 204.869 269.51C204.872 269.541 204.767 269.598 204.704 269.62C204.512 269.687 204.333 269.751 204.272 269.983C204.26 270.03 204.153 270.06 204.086 270.085C203.95 270.135 203.799 270.153 203.677 270.224C203.419 270.375 203.14 270.455 202.863 270.553C202.62 270.64 202.371 270.762 202.115 270.841C201.919 270.901 201.719 270.953 201.518 270.987C200.973 271.076 200.43 271.057 199.88 271C199.343 270.944 198.846 270.773 198.332 270.644C197.721 270.49 197.298 270.023 196.735 269.803C196.645 269.769 196.576 269.67 196.507 269.592C196.037 269.064 195.56 268.542 195.109 267.999C194.962 267.823 194.888 267.591 194.834 267.359C194.763 267.059 194.706 266.744 194.569 266.473C194.425 266.187 194.423 265.892 194.38 265.597C194.379 265.589 194.381 265.58 194.38 265.571C194.298 264.817 194.286 264.125 194.55 263.391C194.598 263.258 194.523 263.08 194.57 262.946C194.63 262.774 194.757 262.625 194.861 262.458H194.624C194.683 262.42 194.701 262.409 194.719 262.399C194.782 262.362 194.871 262.34 194.904 262.285C195.055 262.036 195.181 261.772 195.334 261.524C195.731 260.884 196.262 260.377 196.857 259.917C197.126 259.708 197.454 259.596 197.688 259.373C197.904 259.169 198.155 259.135 198.396 259.031C198.745 258.879 199.135 258.858 199.465 258.709C199.741 258.584 200.011 258.633 200.278 258.572C200.559 258.508 200.868 258.554 201.164 258.575C201.478 258.596 201.799 258.613 202.103 258.689C202.396 258.762 202.673 258.903 202.954 259.021C203.271 259.154 203.603 259.263 203.894 259.44C204.27 259.669 204.627 259.936 204.963 260.22C205.449 260.631 205.822 261.136 206.153 261.685C206.532 262.313 206.766 262.981 206.884 263.698C206.892 263.743 206.954 263.78 206.961 263.787L206.958 263.786ZM198 264.921C197.978 264.927 197.955 264.933 197.932 264.939C198.017 265.226 198.092 265.517 198.19 265.8C198.458 266.574 199.055 267.004 199.797 267.232C200.493 267.446 201.183 267.383 201.836 267.033C202.719 266.559 203.235 265.837 203.296 264.826C203.353 263.874 202.692 262.8 201.829 262.503C201.055 262.237 200.263 262.234 199.504 262.591C199.258 262.707 199.002 262.844 198.812 263.034C198.298 263.548 197.986 264.169 197.999 264.921H198Z" fill="#B8AE91"/>
</g>
<defs>
<clipPath id="clip0_873_2810">
<rect width="34.4062" height="37.7794" fill="white" transform="translate(113 64)"/>
</clipPath>
<clipPath id="clip1_873_2810">
<rect width="41.6168" height="53.215" fill="white" transform="translate(41.6914 246.602)"/>
</clipPath>
<clipPath id="clip2_873_2810">
<rect width="38.1963" height="48.8411" fill="white" transform="translate(214.402 59.6484)"/>
</clipPath>
<clipPath id="clip3_873_2810">
<rect width="42.1949" height="46.3316" fill="white" transform="translate(174.992 252.094)"/>
</clipPath>
</defs>
</svg>
