<svg width="291" height="398" viewBox="0 0 291 398" fill="none" xmlns="http://www.w3.org/2000/svg">
<rect width="291" height="398" fill="#FEFBE9"/>
<path d="M0.152344 15H290.998" stroke="#E5D9B6"/>
<path d="M0.152344 34.4766H290.998" stroke="#E5D9B6"/>
<path d="M0.152344 72.7734H290.998" stroke="#E5D9B6"/>
<path d="M0.152344 92.25H290.998" stroke="#E5D9B6"/>
<path d="M0.152344 111.711H290.998" stroke="#E5D9B6"/>
<path d="M0.152344 131.188H290.998" stroke="#E5D9B6"/>
<path d="M0.152344 150.656H290.998" stroke="#E5D9B6"/>
<path d="M0.152344 169.5H290.998" stroke="#E5D9B6"/>
<path d="M0.152344 188.961H290.998" stroke="#E5D9B6"/>
<path d="M0.152344 208.438H290.998" stroke="#E5D9B6"/>
<path d="M0 227.891H290.846" stroke="#E5D9B6"/>
<path d="M0.152344 247.375H290.998" stroke="#E5D9B6"/>
<path d="M0.152344 266.211H290.998" stroke="#E5D9B6"/>
<path d="M0.152344 285.688H290.998" stroke="#E5D9B6"/>
<path d="M0.152344 305.148H290.998" stroke="#E5D9B6"/>
<path d="M0.152344 324.625H290.998" stroke="#E5D9B6"/>
<path d="M0.152344 344.086H290.998" stroke="#E5D9B6"/>
<path d="M0.152344 362.938H290.998" stroke="#E5D9B6"/>
<path d="M0.152344 382.398H290.998" stroke="#E5D9B6"/>
<path d="M0.152344 53.3125H290.998" stroke="#E5D9B6"/>
<rect x="26" y="15" width="207" height="136" rx="10" fill="#E5D9B6" fill-opacity="0.5"/>
<g clip-path="url(#clip0_873_3168)">
<path d="M140.981 101.76C140.923 101.698 140.875 101.647 140.846 101.616C140.696 101.624 140.567 101.631 140.426 101.638C140.402 101.568 140.035 101.561 139.816 101.595C139.585 101.631 139.345 101.598 139.109 101.598C138.878 101.598 138.647 101.603 138.416 101.602C138.187 101.601 137.958 101.594 137.729 101.593C137.478 101.592 137.227 101.597 136.976 101.598C136.744 101.599 136.511 101.598 136.276 101.598C136.274 101.619 136.27 101.649 136.267 101.683C136.178 101.605 136.11 101.548 135.969 101.582C135.802 101.622 135.617 101.576 135.44 101.581C135.125 101.589 134.805 101.649 134.496 101.611C134.143 101.568 133.793 101.637 133.437 101.576C133.141 101.525 132.825 101.58 132.519 101.594C132.474 101.596 132.431 101.63 132.413 101.637C132.342 101.619 132.279 101.589 132.217 101.589C131.999 101.589 131.775 101.57 131.565 101.612C131.229 101.679 130.909 101.557 130.577 101.579C130.194 101.604 129.809 101.59 129.425 101.588C129.15 101.586 128.877 101.568 128.603 101.572C128.272 101.577 127.939 101.584 127.61 101.615C127.398 101.635 127.198 101.589 126.992 101.571C126.964 101.569 126.937 101.559 126.91 101.561C126.671 101.582 126.432 101.605 126.193 101.624C126.173 101.625 126.15 101.591 126.125 101.57C126.105 101.619 126.087 101.666 126.083 101.677C126.035 101.658 126 101.633 125.964 101.631C125.731 101.619 125.498 101.605 125.264 101.604C125.088 101.603 124.911 101.622 124.734 101.626C124.618 101.629 124.5 101.615 124.383 101.618C124.31 101.619 124.238 101.645 124.165 101.644C124.057 101.643 123.948 101.63 123.839 101.619C123.813 101.616 123.789 101.588 123.764 101.589C123.393 101.6 123.009 101.56 122.658 101.65C122.457 101.702 122.345 101.577 122.176 101.584C121.246 101.618 120.314 101.616 119.383 101.614C118.961 101.612 118.538 101.594 118.117 101.558C117.845 101.536 117.576 101.474 117.308 101.417C117.086 101.37 116.87 101.272 116.648 101.257C116.496 101.248 116.358 101.283 116.306 101.184C115.574 101.025 114.972 100.677 114.338 100.394C114.375 100.344 114.399 100.313 114.386 100.33C114.251 100.207 114.122 100.099 114.006 99.9796C113.921 99.8907 113.864 99.7747 113.777 99.6889C113.621 99.5358 113.587 99.3443 113.55 99.1429C113.518 98.9717 113.434 98.8104 113.396 98.6401C113.354 98.4529 113.337 98.2602 113.313 98.0695C113.286 97.8587 113.254 97.6478 113.242 97.436C113.232 97.2325 113.091 97.0457 113.174 96.8292C113.188 96.7943 113.155 96.7348 113.132 96.693C112.987 96.4334 112.997 96.147 113.003 95.8667C113.006 95.7498 113.114 95.6282 113.098 95.5195C113.002 94.8455 113.16 94.1718 113.067 93.4922C113.013 93.0954 113.102 92.6741 113.084 92.2588C113.06 91.7193 113.095 91.1776 113.095 90.6364C113.094 90.1853 113.074 89.7342 113.071 89.2831C113.069 89.0964 113.134 88.8971 113.088 88.7259C113.022 88.4874 113.14 88.2679 113.083 88.0269C113.028 87.7953 113.09 87.5357 113.103 87.289C113.104 87.2674 113.125 87.2471 113.147 87.2088C113.09 87.2191 113.064 87.2243 113.037 87.2295C113.035 87.2269 113.031 87.2213 113.026 87.2161C113.174 87.116 113.042 86.9845 113.065 86.8832C113.156 86.4709 113.071 86.0603 113.093 85.6498C113.119 85.1616 113.112 84.6708 113.112 84.1813C113.112 83.8199 113.095 83.459 113.094 83.0976C113.091 82.3416 113.093 81.5852 113.094 80.8292C113.094 80.5812 113.126 80.3298 113.096 80.0857C113.069 79.8778 113.155 79.6665 113.094 79.4763C112.966 79.0847 113.14 78.7096 113.113 78.3249C113.089 77.9846 113.141 77.6344 113.083 77.3019C113.017 76.9263 113.147 76.5688 113.104 76.1996C113.067 75.8848 113.068 75.5657 113.059 75.2483C113.056 75.1443 113.084 75.04 113.082 74.936C113.079 74.7515 113.059 74.5669 113.053 74.3819C113.05 74.2861 113.064 74.19 113.067 74.0938C113.075 73.8204 113.126 73.5375 113.072 73.277C113.038 73.1192 113.106 72.9975 113.098 72.8544C113.073 72.3433 113.106 71.8297 113.095 71.3178C113.088 71.0095 113.02 70.7024 113.019 70.3945C113.019 70.0986 113.057 69.8002 113.105 69.5074C113.148 69.2486 113.232 68.9968 113.291 68.7406C113.361 68.437 113.411 68.1274 113.497 67.8281C113.555 67.6228 113.705 67.4365 113.73 67.2312C113.755 67.038 113.839 66.8862 113.899 66.7146C114.015 66.3825 114.235 66.1212 114.405 65.8266C114.606 65.479 114.91 65.2638 115.274 65.112C115.482 65.0253 115.672 64.8951 115.879 64.8067C116.007 64.7519 116.171 64.7674 116.288 64.6989C116.465 64.5949 116.643 64.5678 116.842 64.5561C117.061 64.5432 117.279 64.4543 117.495 64.4608C117.804 64.4703 118.087 64.3845 118.375 64.3073C118.423 64.2944 118.47 64.2698 118.517 64.2685C119.028 64.256 119.54 64.2413 120.051 64.2391C120.324 64.2379 120.597 64.262 120.871 64.2693C120.962 64.2719 121.054 64.2551 121.145 64.2534C121.59 64.2439 122.035 64.234 122.479 64.2297C122.736 64.2271 122.993 64.2357 123.251 64.2361C123.682 64.2361 124.113 64.2322 124.544 64.2335C124.858 64.2344 125.172 64.2465 125.486 64.2439C125.709 64.2417 125.933 64.2202 126.156 64.2133C126.549 64.2016 126.941 64.1896 127.334 64.1878C127.861 64.1857 128.389 64.1921 128.916 64.1969C129.537 64.2021 130.159 64.2176 130.78 64.2103C130.993 64.2077 131.23 64.0761 131.412 64.1369C131.666 64.2215 131.899 64.1689 132.14 64.1727C132.4 64.1766 132.66 64.1486 132.919 64.1473C133.307 64.1456 133.695 64.1594 134.084 64.1594C134.414 64.1594 134.745 64.1482 135.076 64.1443C135.174 64.143 135.273 64.1525 135.372 64.1533C135.762 64.1559 136.152 64.1581 136.542 64.1585C137.005 64.1589 137.467 64.1654 137.93 64.1559C138.497 64.1438 139.064 64.1128 139.631 64.099C140.02 64.0895 140.411 64.1055 140.799 64.0891C141.056 64.0783 141.312 64.0192 141.569 64.0024C141.737 63.9916 141.908 64.0205 142.078 64.0257C142.282 64.0317 142.488 64.0171 142.69 64.0365C143.098 64.0753 143.518 64.0873 143.91 64.1934C144.24 64.2831 144.547 64.4768 144.849 64.651C144.989 64.7321 145.09 64.8796 145.214 64.9904C145.29 65.0585 145.399 65.0995 145.456 65.1789C145.877 65.7619 146.174 66.3993 146.295 67.1152C146.355 67.4675 146.401 67.8311 146.53 68.1597C146.638 68.4374 146.571 68.707 146.62 68.9722C146.67 69.2422 146.79 69.4983 146.873 69.7623C146.918 69.9024 146.975 70.0447 146.983 70.1888C147.005 70.5709 147.003 70.9547 147.011 71.3376C147.024 71.9216 147.046 72.5051 147.049 73.089C147.053 73.7268 147.034 74.3646 147.036 75.0025C147.036 75.288 147.07 75.5734 147.076 75.8594C147.086 76.2798 147.088 76.7008 147.09 77.1217C147.091 77.3356 147.083 77.5495 147.086 77.7634C147.092 78.2925 147.107 78.8212 147.109 79.3504C147.111 79.8226 147.094 80.2953 147.096 80.7675C147.098 81.0772 147.126 81.3868 147.13 81.6969C147.132 81.8452 147.091 81.994 147.092 82.1424C147.094 82.3205 147.135 82.4986 147.133 82.6763C147.131 83.095 147.101 83.5142 147.106 83.9325C147.109 84.2357 147.194 84.5427 147.166 84.8407C147.117 85.3444 147.255 85.8434 147.145 86.3514C147.088 86.6136 147.188 86.9069 147.192 87.1863C147.196 87.5658 147.167 87.9462 147.17 88.3257C147.172 88.6358 147.208 88.9454 147.217 89.2559C147.227 89.5936 147.227 89.9322 147.225 90.2698C147.223 90.5959 147.207 90.9223 147.208 91.2483C147.209 91.7421 147.217 92.2355 147.227 92.7293C147.238 93.2218 147.263 93.7143 147.267 94.2068C147.27 94.613 147.245 95.0197 147.245 95.4259C147.245 95.5752 147.255 95.7343 147.307 95.871C147.41 96.1405 147.421 96.4135 147.391 96.6904C147.372 96.8625 147.313 97.0302 147.286 97.2019C147.27 97.3045 147.3 97.4158 147.277 97.5154C147.218 97.7698 147.106 98.0165 147.08 98.2727C147.044 98.647 146.803 98.9364 146.721 99.2853C146.641 99.6238 146.467 99.9209 146.256 100.178C146.089 100.382 145.828 100.507 145.62 100.68C145.348 100.906 145.038 101.071 144.741 101.257C144.432 101.45 144.096 101.566 143.741 101.621C143.383 101.676 143.02 101.699 142.662 101.755C142.296 101.812 141.932 101.752 141.567 101.767C141.401 101.774 141.234 101.715 141.065 101.697C141.037 101.694 141.001 101.745 140.98 101.762L140.981 101.76ZM124.361 80.2375C124.214 80.297 124.069 80.322 123.97 80.4022C123.777 80.5592 123.609 80.7472 123.431 80.9236C123.388 80.9667 123.356 81.022 123.309 81.0608C123.15 81.1932 122.98 81.3118 122.829 81.4528C122.683 81.5899 122.566 81.7577 122.42 81.8952C122.001 82.2907 121.572 82.6758 121.151 83.0696C121.044 83.1696 120.959 83.2942 120.852 83.3947C120.762 83.4793 120.642 83.5327 120.557 83.6211C120.455 83.7264 120.4 83.9127 120.284 83.9562C120.153 84.0058 120.035 84.0748 119.952 84.1615C119.573 84.5552 119.086 84.8394 118.787 85.313C118.777 85.3289 118.753 85.3388 118.734 85.3466C118.419 85.479 118.225 85.7537 117.993 85.9831C117.821 86.1548 117.678 86.3579 117.501 86.5239C117.359 86.6568 117.175 86.7288 117.035 86.8849C116.834 87.11 116.582 87.2929 116.337 87.4744C115.94 87.7694 116.163 88.1925 116.095 88.5547C116.078 88.6474 116.069 88.7436 116.072 88.8376C116.076 88.9735 116.105 89.1089 116.104 89.2443C116.101 89.6212 116.074 89.9986 116.08 90.3751C116.088 90.7934 116.137 91.2108 116.14 91.6287C116.143 91.9496 116.093 92.2704 116.085 92.5917C116.075 92.9798 116.084 93.3684 116.086 93.7565C116.087 93.8596 116.095 93.9627 116.098 94.0662C116.112 94.4284 116.148 94.792 116.13 95.1525C116.116 95.4402 116.048 95.7239 116.167 96.0043C116.18 96.0353 116.179 96.0737 116.177 96.1086C116.157 96.7176 116.204 97.3204 116.346 97.9143C116.355 97.9518 116.382 98.001 116.413 98.0152C116.621 98.1079 116.826 98.2265 117.045 98.2718C117.448 98.355 117.861 98.3921 118.269 98.4512C118.422 98.4732 118.576 98.4956 118.728 98.5306C118.858 98.5607 118.984 98.6414 119.112 98.6431C119.52 98.6483 119.928 98.625 120.336 98.6159C120.748 98.6069 121.16 98.5961 121.573 98.5961C122.234 98.5957 122.894 98.6052 123.555 98.6065C124.072 98.6073 124.589 98.6004 125.106 98.6013C125.73 98.6021 126.355 98.6099 126.98 98.6086C127.459 98.6077 127.939 98.5922 128.419 98.5952C128.759 98.5974 129.098 98.6289 129.438 98.6285C129.733 98.6285 130.027 98.5944 130.322 98.5888C130.474 98.5858 130.627 98.625 130.778 98.6198C130.968 98.6134 131.158 98.5638 131.348 98.5625C131.692 98.5599 132.037 98.5814 132.381 98.5879C132.632 98.5927 132.883 98.5892 133.134 98.5892C133.444 98.5892 133.754 98.5892 134.063 98.5896C134.447 98.5905 134.832 98.5922 135.216 98.594C135.473 98.5948 135.729 98.6017 135.985 98.5961C136.225 98.5909 136.464 98.5607 136.703 98.562C137.323 98.5655 137.944 98.5832 138.564 98.5896C139.018 98.5944 139.471 98.5918 139.925 98.5883C140.431 98.5845 140.937 98.5724 141.444 98.5724C141.551 98.5724 141.659 98.6034 141.764 98.6306C141.924 98.6724 142.08 98.7427 142.242 98.766C142.488 98.8014 142.727 98.7608 142.976 98.7108C143.302 98.6453 143.542 98.4551 143.817 98.3162C143.875 98.2869 143.932 98.217 143.95 98.1545C144.059 97.7797 144.288 97.4412 144.29 97.0345C144.29 96.925 144.291 96.815 144.297 96.7055C144.315 96.3419 144.235 95.9792 144.303 95.6131C144.329 95.4678 144.283 95.3099 144.279 95.1577C144.271 94.9179 144.273 94.6777 144.265 94.4379C144.261 94.3189 144.214 94.1951 144.235 94.0821C144.279 93.8355 144.285 93.5918 144.247 93.346C144.229 93.2321 144.144 93.0471 144.18 93.0208C144.344 92.9022 144.239 92.7677 144.239 92.6452C144.237 92.1156 144.25 91.5847 144.209 91.0577C144.185 90.7429 144.185 90.4354 144.21 90.1223C144.22 89.9999 144.197 89.858 144.14 89.751C144.075 89.6273 143.947 89.538 143.86 89.4233C143.523 88.9817 143.194 88.5344 142.855 88.0946C142.816 88.0428 142.737 88.0213 142.697 87.9984C142.688 87.9238 142.704 87.8362 142.666 87.791C142.504 87.5917 142.325 87.4054 142.154 87.2135C141.91 86.9401 141.763 86.5959 141.464 86.3553C141.255 86.1867 141.108 85.9366 140.945 85.7145C140.768 85.4747 140.598 85.2297 140.439 84.9783C140.25 84.6803 140.13 84.6859 139.914 84.9602C139.675 85.2638 139.403 85.542 139.138 85.8249C138.964 86.0094 138.742 86.1587 138.607 86.3665C138.414 86.6637 138.082 86.8461 137.956 87.1915C137.953 87.1997 137.907 87.1868 137.896 87.198C137.739 87.3636 137.585 87.5318 137.43 87.6991C137.446 87.7129 137.461 87.7267 137.476 87.7405C137.428 87.7194 137.379 87.6982 137.32 87.6732C137.327 87.7271 137.347 87.7772 137.332 87.7935C137.123 88.0144 136.906 88.227 136.7 88.4491C136.637 88.5159 136.614 88.6203 136.549 88.6832C136.301 88.9256 136.04 89.1555 135.789 89.3961C135.485 89.6876 135.186 89.9852 134.886 90.2797C134.682 90.479 134.452 90.6015 134.174 90.5165C134.235 90.416 134.302 90.3073 134.394 90.1568C134.043 90.2396 134.27 89.9343 134.131 89.8886C133.8 90.2263 133.72 90.2483 133.378 90.1314C133.24 90.0844 133.102 90.0413 132.973 89.999C132.931 89.9304 132.895 89.8554 132.843 89.7942C132.804 89.748 132.699 89.7165 132.701 89.6833C132.712 89.5048 132.564 89.4509 132.475 89.3478C132.293 89.1356 132.125 88.9105 131.939 88.7009C131.812 88.5573 131.639 88.4642 131.559 88.2658C131.524 88.1756 131.377 88.1299 131.249 88.0428C131.242 88.0243 131.237 87.9372 131.191 87.8854C130.907 87.5624 130.613 87.2489 130.325 86.9297C130.009 86.58 129.701 86.2229 129.379 85.8783C129.285 85.7774 129.108 85.7326 129.054 85.6213C128.952 85.4091 128.812 85.2522 128.646 85.0874C128.358 84.8002 128.123 84.4599 127.861 84.1464C127.843 84.1253 127.778 84.1438 127.727 84.1438C127.571 83.9165 127.422 83.6332 127.21 83.4103C127.016 83.2071 126.798 83.029 126.618 82.8069C126.384 82.5163 126.082 82.2817 125.881 81.9599C125.871 81.944 125.843 81.941 125.827 81.9272C125.729 81.8422 125.62 81.7654 125.536 81.668C125.352 81.4545 125.19 81.2208 125 81.0129C124.787 80.7779 124.465 80.639 124.361 80.2366L124.361 80.2375ZM139.974 80.9918C140.187 81.0508 140.364 81.1091 140.545 81.147C140.66 81.1712 140.795 81.1354 140.898 81.1794C141.085 81.2591 141.284 81.3497 141.427 81.4886C141.714 81.7685 141.977 82.0759 142.231 82.3882C142.387 82.5818 142.493 82.8164 142.648 83.0118C142.986 83.4366 143.341 83.8463 143.685 84.265C143.824 84.4345 143.953 84.6122 144.087 84.786C144.105 84.7821 144.123 84.7778 144.141 84.7739C144.151 84.7027 144.169 84.6316 144.168 84.5608C144.162 84.1261 144.147 83.691 144.143 83.2563C144.141 82.9617 144.159 82.6672 144.154 82.3731C144.151 82.2644 144.085 82.1562 144.087 82.0483C144.091 81.8461 144.14 81.6447 144.14 81.4424C144.141 81.0931 144.115 80.7438 144.109 80.3945C144.103 80.0348 144.109 79.6747 144.105 79.315C144.104 79.2654 144.047 79.2003 144.064 79.1697C144.164 78.9903 144.132 78.8161 144.078 78.6345C144.05 78.5392 144 78.3783 144.038 78.3482C144.151 78.2602 144.099 78.1649 144.1 78.0739C144.105 77.7112 144.141 77.3438 144.091 76.9884C144.063 76.7887 144.16 76.599 144.095 76.4226C144.02 76.2182 144.072 76.0069 144.054 75.8072C144.022 75.4773 144.046 75.1297 144.054 74.7911C144.066 74.2236 144.009 73.6556 144.059 73.089C144.069 72.9734 144.051 72.8552 144.052 72.7384C144.053 72.3821 144.063 72.0255 144.058 71.6693C144.055 71.4416 144.092 71.185 144.001 70.9939C143.883 70.7447 143.943 70.4277 143.704 70.2315C143.698 70.2267 143.705 70.2069 143.705 70.1939C143.702 69.9891 143.704 69.7843 143.693 69.5798C143.678 69.2965 143.654 69.014 143.631 68.7311C143.624 68.6513 143.612 68.5707 143.59 68.4939C143.523 68.2585 143.401 68.0269 143.392 67.7901C143.38 67.4615 143.14 67.3196 142.973 67.1092C142.872 66.9819 142.788 67.1014 142.701 67.0898C142.561 67.0704 142.428 66.9936 142.287 66.9746C142.207 66.9634 142.118 67.0182 142.032 67.0428C141.988 67.0117 141.932 67.0035 141.876 67.0052C141.844 67.0061 141.812 67.0311 141.779 67.0324C141.561 67.0406 141.343 67.0397 141.126 67.0522C140.782 67.0721 140.437 67.1264 140.094 67.1156C139.841 67.1074 139.596 67.1661 139.328 67.1268C139.066 67.0885 138.765 67.0833 138.472 67.1363C138.138 67.1971 137.783 67.1406 137.437 67.135C137.144 67.1303 136.851 67.1204 136.558 67.123C136.45 67.1238 136.341 67.1751 136.236 67.1657C135.794 67.1247 135.355 67.1023 134.918 67.2092C134.895 67.2148 134.869 67.2071 134.845 67.204C134.685 67.1833 134.525 67.1536 134.364 67.1437C134.204 67.1337 134.042 67.1359 133.882 67.148C133.817 67.1527 133.756 67.1984 133.744 67.2036C133.51 67.1868 133.314 67.1678 133.117 67.1609C132.973 67.1557 132.828 67.176 132.684 67.1678C132.558 67.1605 132.433 67.1036 132.311 67.1126C132.085 67.1294 131.861 67.1997 131.635 67.2088C131.24 67.2247 130.844 67.2127 130.449 67.2088C130.204 67.2066 129.959 67.1976 129.714 67.1937C129.502 67.1902 129.291 67.1829 129.08 67.1898C128.894 67.1958 128.709 67.2347 128.524 67.2325C128.211 67.2286 127.899 67.1924 127.586 67.1911C127.15 67.1894 126.713 67.2002 126.277 67.2191C126.111 67.2265 125.926 67.1346 125.788 67.295C125.788 67.267 125.789 67.2265 125.788 67.2265C125.596 67.2178 125.401 67.1877 125.214 67.2144C125.085 67.2329 124.96 67.2178 124.844 67.2286C124.503 67.2601 124.149 67.1303 123.816 67.3024C123.763 67.33 123.671 67.286 123.598 67.27C123.55 67.2597 123.504 67.2256 123.457 67.226C122.995 67.2321 122.534 67.2398 122.072 67.2536C121.785 67.2623 121.498 67.2907 121.211 67.2959C120.995 67.2998 120.779 67.2756 120.563 67.2769C120.499 67.2769 120.412 67.3606 120.374 67.3386C120.134 67.2027 119.883 67.2692 119.638 67.2856C119.539 67.2925 119.446 67.3757 119.346 67.3873C119.127 67.4128 118.906 67.4244 118.686 67.4227C118.569 67.4218 118.451 67.3822 118.349 67.3627C118.293 67.402 118.234 67.4775 118.186 67.4719C117.797 67.4279 117.427 67.4822 117.06 67.6159C116.817 67.7043 116.65 67.8363 116.591 68.1002C116.544 68.3115 116.368 68.4922 116.442 68.7333C116.445 68.7454 116.44 68.763 116.433 68.7747C116.164 69.2241 116.158 69.7299 116.127 70.2289C116.115 70.416 116.133 70.6045 116.128 70.7921C116.118 71.0953 116.093 71.3976 116.088 71.7008C116.085 71.8836 116.119 72.0673 116.117 72.2506C116.112 72.6375 116.087 73.0243 116.086 73.4111C116.085 73.6884 116.121 73.9662 116.12 74.2435C116.117 74.6221 116.084 75.0003 116.083 75.3785C116.082 75.83 116.108 76.2811 116.107 76.7327C116.106 77.1277 116.074 77.5223 116.075 77.9173C116.076 78.4163 116.101 78.9157 116.107 79.4147C116.114 79.9231 116.116 80.4316 116.111 80.9396C116.106 81.3808 116.087 81.8219 116.075 82.2631C116.072 82.3985 116.039 82.5456 116.08 82.6668C116.157 82.8915 116.131 83.1006 116.083 83.321C116.06 83.4241 116.079 83.5362 116.079 83.7014C116.16 83.6259 116.198 83.5909 116.236 83.5547C116.524 83.28 116.811 83.0044 117.099 82.7306C117.162 82.6711 117.235 82.6219 117.298 82.5611C117.573 82.2894 117.838 82.0074 118.121 81.7443C118.43 81.4571 118.763 81.1949 119.072 80.9068C119.297 80.6964 119.491 80.4514 119.716 80.2397C120.186 79.7963 120.67 79.3685 121.141 78.9265C121.606 78.4909 122.055 78.0381 122.524 77.6073C122.741 77.408 123.005 77.2601 123.218 77.0578C123.399 76.8866 123.644 76.9224 123.835 76.803C123.992 76.7042 124.116 76.7952 124.221 76.9056C124.292 76.9798 124.349 77.0682 124.406 77.1441C124.479 77.1255 124.537 77.1044 124.596 77.0979C124.652 77.0919 124.727 77.126 124.765 77.1005C124.939 76.9858 125.004 76.9888 125.161 77.1096C125.205 77.1432 125.288 77.1264 125.397 77.1368C125.482 77.1911 125.641 77.2549 125.749 77.3679C125.995 77.6249 126.212 77.9096 126.449 78.1757C126.69 78.4465 126.945 78.7061 127.188 78.9748C127.608 79.4379 128.025 79.9037 128.441 80.3699C128.765 80.7326 129.084 81.0996 129.409 81.4605C129.6 81.6719 129.801 81.8737 129.994 82.0828C130.094 82.1911 130.184 82.3101 130.285 82.4175C130.49 82.6357 130.71 82.8406 130.906 83.0674C131.159 83.3615 131.387 83.6776 131.639 83.9735C131.875 84.2516 132.123 84.5212 132.375 84.7851C132.638 85.0589 132.916 85.3177 133.18 85.5903C133.337 85.7515 133.506 85.9102 133.622 86.0996C133.78 86.3596 133.98 86.5658 134.195 86.7413C134.277 86.6481 134.336 86.5727 134.404 86.5058C134.572 86.3402 134.752 86.1867 134.912 86.0138C135.119 85.7886 135.305 85.5428 135.511 85.3168C135.908 84.8817 136.311 84.4522 136.716 84.0235C136.931 83.7949 137.16 83.5784 137.373 83.3477C137.68 83.0169 137.976 82.6771 138.278 82.3429C138.441 82.1635 138.604 81.9841 138.773 81.8112C138.971 81.608 139.155 81.3808 139.385 81.2216C139.571 81.0931 139.817 81.05 139.974 80.9922L139.974 80.9918Z" fill="#B8AE91"/>
<path d="M139.068 73.5361C139.042 73.6202 139.002 73.6806 139.01 73.7349C139.033 73.9143 139.103 74.092 139.099 74.2693C139.091 74.5905 139.047 74.9114 139.008 75.231C138.996 75.328 138.935 75.419 138.924 75.516C138.864 76.0223 138.588 76.4368 138.388 76.887C138.301 77.0845 138.13 77.2091 138.06 77.4295C137.992 77.6447 137.726 77.7982 137.543 77.9751C137.473 78.0428 137.346 78.0583 137.364 78.2041C137.367 78.2286 137.281 78.2756 137.23 78.2938C137.074 78.3477 136.927 78.4003 136.878 78.5892C136.868 78.628 136.781 78.6521 136.726 78.6724C136.615 78.7129 136.492 78.728 136.393 78.7858C136.182 78.9092 135.955 78.9738 135.729 79.0541C135.531 79.1248 135.328 79.2248 135.119 79.2891C134.959 79.3378 134.796 79.3805 134.632 79.4077C134.188 79.4806 133.745 79.465 133.296 79.4185C132.859 79.3732 132.454 79.2335 132.035 79.1282C131.536 79.0032 131.191 78.6219 130.732 78.443C130.658 78.4145 130.602 78.3339 130.546 78.2705C130.163 77.8401 129.774 77.4144 129.406 76.9719C129.286 76.8283 129.226 76.639 129.182 76.4497C129.124 76.2047 129.077 75.9481 128.966 75.7269C128.848 75.494 128.847 75.2538 128.812 75.0132C128.811 75.0063 128.813 74.9989 128.812 74.992C128.745 74.3766 128.735 73.8126 128.951 73.2144C128.99 73.1057 128.928 72.9604 128.967 72.8513C129.016 72.7107 129.12 72.5895 129.204 72.4532H129.011C129.059 72.4226 129.073 72.4136 129.088 72.4049C129.139 72.3747 129.212 72.3575 129.239 72.3126C129.362 72.1095 129.465 71.8939 129.59 71.6921C129.913 71.1698 130.347 70.7567 130.832 70.381C131.051 70.2111 131.319 70.1193 131.51 69.9381C131.685 69.7713 131.89 69.7441 132.087 69.6587C132.371 69.5354 132.689 69.5181 132.958 69.3965C133.183 69.2947 133.404 69.3344 133.621 69.2844C133.85 69.2322 134.103 69.2701 134.343 69.2869C134.6 69.3046 134.861 69.3184 135.109 69.3801C135.348 69.4396 135.574 69.5548 135.803 69.6509C136.061 69.7592 136.333 69.848 136.57 69.9925C136.876 70.1792 137.167 70.3966 137.442 70.6286C137.837 70.9637 138.142 71.3755 138.412 71.8227C138.721 72.3355 138.912 72.8798 139.008 73.4645C139.014 73.5012 139.065 73.5309 139.07 73.537L139.068 73.5361ZM131.764 74.4616C131.745 74.4663 131.727 74.4715 131.708 74.4763C131.778 74.7104 131.839 74.9481 131.918 75.1788C132.137 75.8097 132.624 76.1603 133.229 76.3462C133.796 76.5204 134.359 76.4695 134.891 76.184C135.611 75.7972 136.032 75.209 136.082 74.3844C136.128 73.6081 135.59 72.7318 134.886 72.4899C134.255 72.273 133.609 72.2708 132.99 72.5619C132.789 72.6568 132.581 72.7685 132.426 72.9229C132.006 73.3425 131.752 73.8484 131.763 74.4616H131.764Z" fill="#B8AE91"/>
</g>
<rect x="26" y="170" width="112.664" height="174.055" rx="10" fill="#E5D9B6" fill-opacity="0.5"/>
<path d="M80.7696 270.839C81.7463 270.839 82.696 270.834 83.6457 270.841C84.1494 270.845 84.6526 270.879 85.1563 270.883C85.6197 270.886 86.0837 270.853 86.5466 270.86C87.2685 270.871 87.9899 270.912 88.7113 270.922C89.2203 270.929 89.7299 270.896 90.2389 270.897C90.7389 270.899 91.2383 270.927 91.7378 270.935C91.8887 270.938 92.0397 270.903 92.1906 270.904C92.6228 270.908 93.0556 270.931 93.4878 270.928C94.2399 270.922 94.9915 270.895 95.7436 270.894C96.171 270.894 96.6016 270.905 97.0254 270.957C97.206 270.979 97.3696 271.125 97.545 271.206C97.6271 271.244 97.7192 271.261 97.8601 271.304C97.9433 271.523 98.0111 271.779 97.9999 272.106C97.9909 272.371 97.9274 272.655 97.9729 272.933C97.9893 273.034 97.8866 273.152 97.8935 273.258C97.9057 273.439 97.9586 273.619 98.0015 273.797C98.0222 273.882 98.108 273.998 98.0794 274.039C97.9989 274.152 97.8829 274.248 97.7642 274.324C97.3199 274.61 96.8257 274.578 96.3262 274.551C95.9284 274.53 95.528 274.561 95.1287 274.559C94.7288 274.557 94.3289 274.534 93.929 274.536C93.5238 274.538 93.1186 274.566 92.7134 274.57C92.5577 274.572 92.3924 274.497 92.2473 274.529C91.8972 274.608 91.5662 274.441 91.2055 274.516C90.8241 274.596 90.4142 274.546 90.0175 274.539C89.562 274.531 89.1065 274.511 88.6515 274.491C88.3814 274.48 88.1059 274.416 87.8427 274.45C87.3718 274.51 86.9052 274.518 86.4333 274.501C85.8432 274.48 85.2521 274.483 84.6616 274.481C83.9174 274.478 83.1732 274.48 82.4291 274.482C81.8189 274.484 81.2087 274.495 80.5986 274.491C80.2553 274.489 79.9121 274.459 79.5689 274.451C78.9312 274.436 78.2935 274.423 77.6558 274.422C77.2585 274.421 76.8565 274.41 76.4651 274.466C76.115 274.516 75.7856 274.407 75.4466 274.417C74.936 274.432 74.4259 274.479 73.9159 274.482C73.4868 274.485 73.0584 274.435 72.6288 274.428C71.9307 274.418 71.2316 274.41 70.534 274.428C70.2009 274.437 69.8778 274.379 69.5499 274.354C69.4731 274.348 69.3947 274.352 69.3184 274.362C68.9143 274.418 68.5319 274.323 68.1495 274.211C68.0849 274.193 68.0033 274.233 67.909 274.249C67.9228 274.172 67.9339 274.111 67.9366 274.097C67.8036 274.032 67.6437 274.005 67.5764 273.911C67.3868 273.646 67.114 273.697 66.8582 273.658C66.6209 273.622 66.3852 273.572 66.1527 273.513C66.1151 273.503 66.0621 273.396 66.0775 273.364C66.1977 273.118 65.9488 272.962 65.9376 272.745C65.9286 272.571 65.8121 272.402 65.8068 272.228C65.7962 271.866 65.828 271.501 65.8407 271.138C65.8598 270.591 65.8762 270.044 65.8963 269.496C65.9085 269.165 65.9451 268.834 65.9382 268.504C65.9244 267.855 66.0234 267.213 65.9731 266.558C65.9212 265.877 65.997 265.187 66.0081 264.501C66.0181 263.879 66.007 263.258 66.0245 262.637C66.0287 262.49 66.1055 262.343 66.1537 262.198C66.2056 262.042 66.2634 261.888 66.337 261.681C66.3698 261.677 66.4652 261.664 66.6029 261.645C66.5505 261.548 66.5086 261.471 66.4562 261.374C66.6416 261.137 66.8291 260.876 67.0414 260.636C67.1633 260.499 67.3285 260.402 67.4694 260.281C67.7565 260.033 68.0536 259.795 68.3195 259.525C68.4975 259.345 68.6145 259.105 68.7856 258.918C68.9148 258.776 69.1082 258.693 69.2363 258.55C69.4403 258.324 69.606 258.063 69.802 257.829C69.9614 257.639 70.141 257.465 70.3121 257.284C70.4763 257.11 70.6373 256.933 70.8073 256.765C71.0149 256.56 71.2342 256.367 71.4403 256.16C71.5875 256.011 71.7162 255.844 71.8619 255.693C72.0658 255.482 72.2835 255.285 72.4847 255.071C72.7051 254.838 72.9106 254.59 73.1288 254.355C73.2633 254.211 73.4085 254.076 73.552 253.94C73.936 253.577 74.3306 253.224 74.704 252.85C75.2326 252.32 75.7437 251.772 76.2676 251.237C76.4249 251.077 76.6034 250.937 76.7675 250.783C77.1563 250.418 77.5472 250.056 77.927 249.681C78.1473 249.464 78.3332 249.212 78.5599 249.003C78.811 248.77 79.0599 248.526 79.3173 248.313C79.8925 247.836 80.2993 247.191 80.946 246.781C81.3041 246.554 81.5525 246.156 81.8597 245.844C82.0207 245.68 82.2055 245.54 82.3719 245.382C82.5906 245.174 82.7866 244.938 83.0217 244.751C83.3734 244.473 83.597 244.042 84.0466 243.883C84.1732 243.499 84.6383 243.506 84.8321 243.185C84.9645 242.967 85.1393 242.765 85.3279 242.593C85.6192 242.327 85.9518 242.108 86.2426 241.842C86.4825 241.622 86.678 241.354 86.9105 241.125C87.0302 241.008 87.1859 240.926 87.3305 240.836C87.554 240.698 87.7781 240.56 88.0085 240.434C88.1261 240.37 88.2542 240.315 88.3845 240.288C88.6223 240.238 88.8644 240.205 89.1059 240.182C89.1637 240.176 89.2283 240.236 89.2992 240.271C89.3273 240.234 89.3702 240.177 89.3798 240.164C89.5153 240.177 89.6059 240.183 89.696 240.196C89.8596 240.221 90.0233 240.247 90.1864 240.277C90.3294 240.303 90.4698 240.346 90.6139 240.362C90.9041 240.393 91.134 240.528 91.3337 240.734C91.3824 240.784 91.4507 240.827 91.5169 240.844C91.6938 240.889 91.75 240.996 91.7108 241.192C91.8035 241.172 91.8856 241.155 91.9163 241.148C92.1138 241.312 92.3029 241.449 92.4682 241.611C92.6901 241.829 92.8766 242.086 93.1096 242.29C93.2998 242.455 93.5524 242.547 93.7484 242.707C93.9872 242.902 94.1848 243.148 94.4216 243.347C94.5974 243.495 94.8215 243.584 94.9989 243.73C95.3283 244.002 95.6721 244.267 95.9512 244.587C96.3421 245.034 96.6308 245.563 97.0815 245.972C97.3675 246.231 97.5651 246.588 97.8077 246.897C98.1027 247.273 98.457 247.614 98.6853 248.028C98.876 248.373 99.2128 248.648 99.2203 249.11C99.2229 249.26 99.4496 249.408 99.3077 249.593C99.5947 249.857 99.4872 250.201 99.5285 250.506C99.5434 250.616 99.5354 250.733 99.5179 250.844C99.4766 251.107 99.5095 251.452 99.3553 251.61C99.1297 251.841 99.1874 252.154 98.9671 252.399C98.716 252.678 98.4332 252.96 98.2298 253.292C98.2091 253.326 98.1694 253.356 98.1323 253.37C97.7732 253.506 97.5889 253.822 97.3654 254.103C97.2139 254.294 97.0381 254.467 96.8596 254.634C96.6265 254.851 96.3696 255.042 96.1408 255.263C95.7372 255.653 95.3448 256.054 94.9528 256.455C94.6859 256.728 94.4327 257.015 94.1636 257.285C93.8172 257.634 93.4978 258.028 93.0985 258.301C92.6806 258.587 92.4089 258.988 92.0667 259.332C91.7113 259.69 91.3384 260.03 90.9867 260.391C90.6509 260.736 90.3358 261.103 90.0053 261.453C89.7468 261.727 89.482 261.995 89.2134 262.259C88.9894 262.479 88.7473 262.68 88.5291 262.906C88.2203 263.225 87.9311 263.565 87.6239 263.886C87.3983 264.121 87.1605 264.345 86.9221 264.568C86.5837 264.885 86.2399 265.195 85.8994 265.51C85.6722 265.72 85.4418 265.926 85.2219 266.143C84.7257 266.632 84.1796 267.071 83.7723 267.652C83.6218 267.866 83.3766 268.012 83.1844 268.2C83.0408 268.34 82.9026 268.488 82.7808 268.648C82.5731 268.918 82.3851 269.191 82.1076 269.413C81.7712 269.682 81.5249 270.063 81.1976 270.346C81.026 270.494 80.8586 270.617 80.7691 270.838L80.7696 270.839ZM81.4375 251.225C81.3793 251.311 81.3433 251.387 81.2882 251.443C81.124 251.61 80.9513 251.769 80.7829 251.932C80.4169 252.287 80.0546 252.646 79.6844 252.996C79.5329 253.139 79.3237 253.238 79.2146 253.405C79.0154 253.711 78.7697 253.946 78.4852 254.17C78.1971 254.396 77.964 254.696 77.7119 254.967C77.5917 255.096 77.4953 255.25 77.3655 255.367C76.9439 255.747 76.498 256.1 76.0875 256.491C75.7591 256.804 75.4715 257.159 75.1611 257.491C75.0017 257.661 74.8285 257.817 74.6669 257.985C74.4461 258.215 74.2326 258.452 74.0123 258.683C73.7988 258.907 73.5832 259.129 73.364 259.348C73.1108 259.602 72.8158 259.8 72.6277 260.133C72.4487 260.45 72.1759 260.718 71.918 260.982C71.6055 261.303 71.2655 261.597 70.9365 261.902C70.6961 262.124 70.7003 262.34 70.9418 262.557C71.0769 262.68 71.1971 262.818 71.3317 262.941C71.5086 263.103 71.6982 263.251 71.8735 263.414C72.133 263.655 72.382 263.907 72.6436 264.145C72.6744 264.174 72.7766 264.17 72.8105 264.14C73.0133 263.963 73.2109 263.78 73.4 263.588C73.6219 263.364 73.8248 263.12 74.052 262.902C74.3189 262.646 74.6124 262.418 74.8777 262.161C75.0922 261.953 75.2691 261.704 75.4868 261.5C75.8963 261.115 76.3226 260.748 76.7432 260.374C76.8729 260.259 77.0133 260.155 77.1378 260.034C77.3613 259.818 77.5737 259.591 77.7972 259.375C77.9948 259.184 78.2056 259.007 78.4021 258.814C78.6669 258.555 78.9185 258.282 79.1844 258.024C79.4683 257.749 79.7654 257.487 80.0525 257.215C80.6002 256.696 81.1446 256.174 81.6897 255.652C81.8004 255.546 81.9031 255.431 82.0159 255.327C82.3343 255.033 82.66 254.747 82.9741 254.449C83.3374 254.105 83.6881 253.746 84.0519 253.401C84.2696 253.195 84.5069 253.009 84.7262 252.804C84.9259 252.617 85.115 252.419 85.3056 252.223C85.6107 251.909 85.9179 251.597 86.2103 251.271C86.2452 251.233 86.2251 251.079 86.1785 251.039C85.7262 250.647 85.259 250.275 84.8528 249.828C84.6224 249.575 84.3406 249.365 84.0615 249.165C83.9783 249.105 83.7797 249.09 83.7108 249.148C83.3703 249.432 83.053 249.745 82.732 250.052C82.5572 250.22 82.3915 250.397 82.2188 250.567C82.0514 250.732 81.8952 250.914 81.7055 251.046C81.5986 251.122 81.5472 251.179 81.5652 251.303C81.5662 251.31 81.5429 251.322 81.5276 251.334C81.5016 251.302 81.4767 251.271 81.4375 251.223V251.225ZM85.804 256.852C85.6245 256.966 85.4587 257.039 85.3348 257.156C85.0239 257.45 84.7362 257.768 84.4301 258.067C84.1081 258.381 83.7786 258.688 83.4465 258.991C82.8464 259.539 82.2352 260.074 81.669 260.66C81.258 261.086 80.8072 261.473 80.3788 261.882C80.0896 262.158 79.8104 262.445 79.5223 262.723C79.347 262.891 79.1637 263.052 78.981 263.213C78.7601 263.408 78.5234 263.587 78.3163 263.795C78.0996 264.013 77.9423 264.301 77.7013 264.48C77.3661 264.729 77.0334 264.967 76.7781 265.306C76.5901 265.556 76.3751 265.785 76.1696 266.02C75.9948 266.221 75.8391 266.448 75.6325 266.608C75.4318 266.764 75.4995 266.916 75.5901 267.045C75.7427 267.263 75.927 267.462 76.1129 267.654C76.4243 267.975 76.7442 268.287 77.0673 268.596C77.4116 268.926 77.4291 268.938 77.7797 268.627C77.9799 268.45 78.1049 268.187 78.302 268.005C78.6113 267.719 78.9556 267.472 79.2808 267.204C79.3517 267.145 79.4068 267.067 79.464 266.992C79.6081 266.805 79.7373 266.604 79.8946 266.428C80.1113 266.186 80.3374 265.949 80.5806 265.735C80.8205 265.522 80.8941 265.146 81.25 265.048C81.2707 265.042 81.2771 264.992 81.2935 264.964C81.5811 264.465 82.0165 264.113 82.4566 263.762C82.7066 263.563 82.946 263.349 83.1748 263.125C83.2474 263.054 83.2437 262.898 83.3194 262.839C83.5345 262.672 83.7998 262.564 83.9963 262.38C84.4423 261.963 84.8597 261.515 85.2882 261.079C85.3363 261.03 85.3803 260.977 85.428 260.928C85.5371 260.816 85.6436 260.701 85.7585 260.596C85.9582 260.413 86.1769 260.25 86.3634 260.056C86.5366 259.874 86.6748 259.66 86.8348 259.465C86.9635 259.307 87.1012 259.158 87.2357 259.006C87.2617 258.976 87.2903 258.949 87.3199 258.923C87.5132 258.757 87.7188 258.603 87.8972 258.421C88.1123 258.202 88.2844 257.937 88.5122 257.735C88.6727 257.594 88.7378 257.364 88.9735 257.286C89.1006 257.244 89.2034 257.111 89.304 257.008C89.5831 256.718 89.849 256.416 90.1319 256.131C90.3061 255.955 90.4242 255.779 90.25 255.545C90.072 255.306 89.8903 255.069 89.6944 254.844C89.6181 254.756 89.4883 254.717 89.4025 254.636C89.214 254.456 89.0461 254.254 88.8512 254.083C88.8003 254.038 88.6488 254.033 88.6012 254.074C88.3739 254.273 88.1684 254.496 87.9518 254.708C87.7113 254.942 87.491 255.207 87.2177 255.394C87.0117 255.536 86.8771 255.729 86.7039 255.892C86.6684 255.926 86.6833 256.013 86.6753 256.073C86.3088 256.256 85.9645 256.471 85.803 256.852L85.804 256.852ZM93.0413 253.204C93.4655 252.937 93.6398 252.441 94.1048 252.247C94.2372 252.191 94.3405 252.055 94.4433 251.943C94.6175 251.753 94.7717 251.543 94.9518 251.36C95.1493 251.158 95.3659 250.98 95.5402 250.748C95.7616 250.453 95.8209 250.134 95.6483 249.962C95.4427 249.758 95.2256 249.55 95.0778 249.305C94.8649 248.952 94.6393 248.634 94.3109 248.37C94.0884 248.191 93.9544 247.905 93.7706 247.674C93.6552 247.529 93.4878 247.417 93.4046 247.258C93.2568 246.976 92.9873 246.85 92.7643 246.662C92.662 246.576 92.5794 246.464 92.4703 246.39C92.1006 246.135 91.7145 245.902 91.4851 245.492C91.4735 245.471 91.4518 245.452 91.4301 245.442C91.242 245.353 91.0529 245.266 90.8644 245.179C90.8331 245.164 90.7939 245.156 90.7728 245.133C90.4894 244.816 90.1965 244.506 89.9322 244.173C89.7887 243.992 89.4407 243.942 89.2262 244.037C89.0196 244.128 88.9242 244.297 88.7797 244.435C88.4619 244.74 88.0969 244.995 87.7627 245.283C87.6732 245.36 87.6404 245.503 87.5519 245.583C87.2177 245.886 86.8713 246.175 86.509 246.487C86.8204 246.765 87.0996 247.013 87.3771 247.263C87.7066 247.56 88.0455 247.848 88.3596 248.161C88.6737 248.474 88.9581 248.817 89.2638 249.139C89.4348 249.319 89.6271 249.479 89.8019 249.656C90.0614 249.919 90.3162 250.187 90.5688 250.457C90.8379 250.745 91.1059 251.033 91.366 251.329C91.5408 251.527 91.6949 251.744 91.8702 251.942C92.0461 252.141 92.2399 252.325 92.4205 252.519C92.6366 252.752 92.8474 252.991 93.0413 253.205V253.204ZM73.5668 270.79C73.5499 270.767 73.5335 270.738 73.5102 270.717C73.257 270.487 72.9964 270.265 72.7506 270.028C72.4604 269.747 72.1759 269.459 71.9021 269.162C71.7093 268.953 71.5398 268.722 71.3592 268.502C71.1542 268.251 70.9588 267.992 70.7406 267.753C70.4551 267.441 70.1511 267.147 69.8571 266.842C69.7819 266.764 69.7167 266.676 69.6474 266.593C69.6193 266.607 69.5917 266.621 69.5637 266.636C69.5637 267.149 69.5669 267.663 69.5626 268.176C69.5605 268.463 69.5388 268.749 69.5409 269.036C69.542 269.156 69.57 269.326 69.5557 269.391C69.4911 269.68 69.4403 269.971 69.5367 270.242C69.606 270.438 69.5483 270.566 69.4164 270.789H73.5663L73.5668 270.79Z" fill="#B8AE91"/>
<rect x="154" y="209" width="112.664" height="174.055" rx="10" fill="#E5D9B6" fill-opacity="0.5"/>
<path d="M208.77 309.839C209.746 309.839 210.696 309.834 211.646 309.841C212.149 309.845 212.653 309.879 213.156 309.883C213.62 309.886 214.084 309.853 214.547 309.86C215.269 309.871 215.99 309.912 216.711 309.922C217.22 309.929 217.73 309.896 218.239 309.897C218.739 309.899 219.238 309.927 219.738 309.935C219.889 309.938 220.04 309.903 220.191 309.904C220.623 309.908 221.056 309.931 221.488 309.928C222.24 309.922 222.991 309.895 223.744 309.894C224.171 309.894 224.602 309.905 225.025 309.957C225.206 309.979 225.37 310.125 225.545 310.206C225.627 310.244 225.719 310.261 225.86 310.304C225.943 310.523 226.011 310.779 226 311.106C225.991 311.371 225.927 311.655 225.973 311.933C225.989 312.034 225.887 312.152 225.893 312.258C225.906 312.439 225.959 312.619 226.002 312.797C226.022 312.882 226.108 312.998 226.079 313.039C225.999 313.152 225.883 313.248 225.764 313.324C225.32 313.61 224.826 313.578 224.326 313.551C223.928 313.53 223.528 313.561 223.129 313.559C222.729 313.557 222.329 313.534 221.929 313.536C221.524 313.538 221.119 313.566 220.713 313.57C220.558 313.572 220.392 313.497 220.247 313.529C219.897 313.608 219.566 313.441 219.205 313.516C218.824 313.596 218.414 313.546 218.017 313.539C217.562 313.531 217.106 313.511 216.651 313.491C216.381 313.48 216.106 313.416 215.843 313.45C215.372 313.51 214.905 313.518 214.433 313.501C213.843 313.48 213.252 313.483 212.662 313.481C211.917 313.478 211.173 313.48 210.429 313.482C209.819 313.484 209.209 313.495 208.599 313.491C208.255 313.489 207.912 313.459 207.569 313.451C206.931 313.436 206.293 313.423 205.656 313.422C205.259 313.421 204.857 313.41 204.465 313.466C204.115 313.516 203.786 313.407 203.447 313.417C202.936 313.432 202.426 313.479 201.916 313.482C201.487 313.485 201.058 313.435 200.629 313.428C199.931 313.418 199.232 313.41 198.534 313.428C198.201 313.437 197.878 313.379 197.55 313.354C197.473 313.348 197.395 313.352 197.318 313.362C196.914 313.418 196.532 313.323 196.149 313.211C196.085 313.193 196.003 313.233 195.909 313.249C195.923 313.172 195.934 313.111 195.937 313.097C195.804 313.032 195.644 313.005 195.576 312.911C195.387 312.646 195.114 312.697 194.858 312.658C194.621 312.622 194.385 312.572 194.153 312.513C194.115 312.503 194.062 312.396 194.077 312.364C194.198 312.118 193.949 311.962 193.938 311.745C193.929 311.571 193.812 311.402 193.807 311.228C193.796 310.866 193.828 310.501 193.841 310.138C193.86 309.591 193.876 309.044 193.896 308.496C193.909 308.165 193.945 307.834 193.938 307.504C193.924 306.855 194.023 306.213 193.973 305.558C193.921 304.877 193.997 304.187 194.008 303.501C194.018 302.879 194.007 302.258 194.025 301.637C194.029 301.49 194.106 301.343 194.154 301.198C194.206 301.042 194.263 300.888 194.337 300.681C194.37 300.677 194.465 300.664 194.603 300.645C194.55 300.548 194.509 300.471 194.456 300.374C194.642 300.137 194.829 299.876 195.041 299.636C195.163 299.499 195.329 299.402 195.469 299.281C195.756 299.033 196.054 298.795 196.32 298.525C196.497 298.345 196.615 298.105 196.786 297.918C196.915 297.776 197.108 297.693 197.236 297.55C197.44 297.324 197.606 297.063 197.802 296.829C197.961 296.639 198.141 296.465 198.312 296.284C198.476 296.11 198.637 295.933 198.807 295.765C199.015 295.56 199.234 295.367 199.44 295.16C199.587 295.011 199.716 294.844 199.862 294.693C200.066 294.482 200.283 294.285 200.485 294.071C200.705 293.838 200.911 293.59 201.129 293.355C201.263 293.211 201.408 293.076 201.552 292.94C201.936 292.577 202.331 292.224 202.704 291.85C203.233 291.32 203.744 290.772 204.268 290.237C204.425 290.077 204.603 289.937 204.768 289.783C205.156 289.418 205.547 289.056 205.927 288.681C206.147 288.464 206.333 288.212 206.56 288.003C206.811 287.77 207.06 287.526 207.317 287.313C207.893 286.836 208.299 286.191 208.946 285.781C209.304 285.554 209.552 285.156 209.86 284.844C210.021 284.68 210.206 284.54 210.372 284.382C210.591 284.174 210.787 283.938 211.022 283.751C211.373 283.473 211.597 283.042 212.047 282.883C212.173 282.499 212.638 282.506 212.832 282.185C212.965 281.967 213.139 281.765 213.328 281.593C213.619 281.327 213.952 281.108 214.243 280.842C214.483 280.622 214.678 280.354 214.91 280.125C215.03 280.008 215.186 279.926 215.331 279.836C215.554 279.698 215.778 279.56 216.008 279.434C216.126 279.37 216.254 279.315 216.385 279.288C216.622 279.238 216.864 279.205 217.106 279.182C217.164 279.176 217.228 279.236 217.299 279.271C217.327 279.234 217.37 279.177 217.38 279.164C217.515 279.177 217.606 279.183 217.696 279.196C217.86 279.221 218.023 279.247 218.186 279.277C218.329 279.303 218.47 279.346 218.614 279.362C218.904 279.393 219.134 279.528 219.334 279.734C219.382 279.784 219.451 279.827 219.517 279.844C219.694 279.889 219.75 279.996 219.711 280.192C219.803 280.172 219.886 280.155 219.916 280.148C220.114 280.312 220.303 280.449 220.468 280.611C220.69 280.829 220.877 281.086 221.11 281.29C221.3 281.455 221.552 281.547 221.748 281.707C221.987 281.902 222.185 282.148 222.422 282.347C222.597 282.495 222.821 282.584 222.999 282.73C223.328 283.002 223.672 283.267 223.951 283.587C224.342 284.034 224.631 284.563 225.082 284.972C225.368 285.231 225.565 285.588 225.808 285.897C226.103 286.273 226.457 286.614 226.685 287.028C226.876 287.373 227.213 287.648 227.22 288.11C227.223 288.26 227.45 288.408 227.308 288.593C227.595 288.857 227.487 289.201 227.529 289.506C227.543 289.616 227.535 289.733 227.518 289.844C227.477 290.107 227.509 290.452 227.355 290.61C227.13 290.841 227.187 291.154 226.967 291.399C226.716 291.678 226.433 291.96 226.23 292.292C226.209 292.326 226.169 292.356 226.132 292.37C225.773 292.506 225.589 292.822 225.365 293.103C225.214 293.294 225.038 293.467 224.86 293.634C224.627 293.851 224.37 294.042 224.141 294.263C223.737 294.653 223.345 295.054 222.953 295.455C222.686 295.728 222.433 296.015 222.164 296.285C221.817 296.634 221.498 297.028 221.098 297.301C220.681 297.587 220.409 297.988 220.067 298.332C219.711 298.69 219.338 299.03 218.987 299.391C218.651 299.736 218.336 300.103 218.005 300.453C217.747 300.727 217.482 300.995 217.213 301.259C216.989 301.479 216.747 301.68 216.529 301.906C216.22 302.225 215.931 302.565 215.624 302.886C215.398 303.121 215.16 303.345 214.922 303.568C214.584 303.885 214.24 304.195 213.899 304.51C213.672 304.72 213.442 304.926 213.222 305.143C212.726 305.632 212.18 306.071 211.772 306.652C211.622 306.866 211.377 307.012 211.184 307.2C211.041 307.34 210.903 307.488 210.781 307.648C210.573 307.918 210.385 308.191 210.108 308.413C209.771 308.682 209.525 309.063 209.198 309.346C209.026 309.494 208.859 309.617 208.769 309.838L208.77 309.839ZM209.438 290.225C209.379 290.311 209.343 290.387 209.288 290.443C209.124 290.61 208.951 290.769 208.783 290.932C208.417 291.287 208.055 291.646 207.684 291.996C207.533 292.139 207.324 292.238 207.215 292.405C207.015 292.711 206.77 292.946 206.485 293.17C206.197 293.396 205.964 293.696 205.712 293.967C205.592 294.096 205.495 294.25 205.366 294.367C204.944 294.747 204.498 295.1 204.087 295.491C203.759 295.804 203.471 296.159 203.161 296.491C203.002 296.661 202.828 296.817 202.667 296.985C202.446 297.215 202.233 297.452 202.012 297.683C201.799 297.907 201.583 298.129 201.364 298.348C201.111 298.602 200.816 298.8 200.628 299.133C200.449 299.45 200.176 299.718 199.918 299.982C199.606 300.303 199.265 300.597 198.937 300.902C198.696 301.124 198.7 301.34 198.942 301.557C199.077 301.68 199.197 301.818 199.332 301.941C199.509 302.103 199.698 302.251 199.874 302.414C200.133 302.655 200.382 302.907 200.644 303.145C200.674 303.174 200.777 303.17 200.81 303.14C201.013 302.963 201.211 302.78 201.4 302.588C201.622 302.364 201.825 302.12 202.052 301.902C202.319 301.646 202.612 301.418 202.878 301.161C203.092 300.953 203.269 300.704 203.487 300.5C203.896 300.115 204.323 299.748 204.743 299.374C204.873 299.259 205.013 299.155 205.138 299.034C205.361 298.818 205.574 298.591 205.797 298.375C205.995 298.184 206.206 298.007 206.402 297.814C206.667 297.555 206.918 297.282 207.184 297.024C207.468 296.749 207.765 296.487 208.052 296.215C208.6 295.696 209.145 295.174 209.69 294.652C209.8 294.546 209.903 294.431 210.016 294.327C210.334 294.033 210.66 293.747 210.974 293.449C211.337 293.105 211.688 292.746 212.052 292.401C212.27 292.195 212.507 292.009 212.726 291.804C212.926 291.617 213.115 291.419 213.306 291.223C213.611 290.909 213.918 290.597 214.21 290.271C214.245 290.233 214.225 290.079 214.179 290.039C213.726 289.647 213.259 289.275 212.853 288.828C212.622 288.575 212.341 288.365 212.061 288.165C211.978 288.105 211.78 288.09 211.711 288.148C211.37 288.432 211.053 288.745 210.732 289.052C210.557 289.22 210.391 289.397 210.219 289.567C210.051 289.732 209.895 289.914 209.706 290.046C209.599 290.122 209.547 290.179 209.565 290.303C209.566 290.31 209.543 290.322 209.528 290.334C209.502 290.302 209.477 290.271 209.438 290.223V290.225ZM213.804 295.852C213.624 295.966 213.459 296.039 213.335 296.156C213.024 296.45 212.736 296.768 212.43 297.067C212.108 297.381 211.779 297.688 211.447 297.991C210.846 298.539 210.235 299.074 209.669 299.66C209.258 300.086 208.807 300.473 208.379 300.882C208.09 301.158 207.81 301.445 207.522 301.723C207.347 301.891 207.164 302.052 206.981 302.213C206.76 302.408 206.523 302.587 206.316 302.795C206.1 303.013 205.942 303.301 205.701 303.48C205.366 303.729 205.033 303.967 204.778 304.306C204.59 304.556 204.375 304.785 204.17 305.02C203.995 305.221 203.839 305.448 203.632 305.608C203.432 305.764 203.5 305.916 203.59 306.045C203.743 306.263 203.927 306.462 204.113 306.654C204.424 306.975 204.744 307.287 205.067 307.596C205.412 307.926 205.429 307.938 205.78 307.627C205.98 307.45 206.105 307.187 206.302 307.005C206.611 306.719 206.956 306.472 207.281 306.204C207.352 306.145 207.407 306.067 207.464 305.992C207.608 305.805 207.737 305.604 207.895 305.428C208.111 305.186 208.337 304.949 208.581 304.735C208.82 304.522 208.894 304.146 209.25 304.048C209.271 304.042 209.277 303.992 209.293 303.964C209.581 303.465 210.016 303.113 210.457 302.762C210.707 302.563 210.946 302.349 211.175 302.125C211.247 302.054 211.244 301.898 211.319 301.839C211.534 301.672 211.8 301.564 211.996 301.38C212.442 300.963 212.86 300.515 213.288 300.079C213.336 300.03 213.38 299.977 213.428 299.928C213.537 299.816 213.644 299.701 213.758 299.596C213.958 299.413 214.177 299.25 214.363 299.056C214.537 298.874 214.675 298.66 214.835 298.465C214.963 298.307 215.101 298.158 215.236 298.006C215.262 297.976 215.29 297.949 215.32 297.923C215.513 297.757 215.719 297.603 215.897 297.421C216.112 297.202 216.284 296.937 216.512 296.735C216.673 296.594 216.738 296.364 216.974 296.286C217.101 296.244 217.203 296.111 217.304 296.008C217.583 295.718 217.849 295.416 218.132 295.131C218.306 294.955 218.424 294.779 218.25 294.545C218.072 294.306 217.89 294.069 217.694 293.844C217.618 293.756 217.488 293.717 217.403 293.636C217.214 293.456 217.046 293.254 216.851 293.083C216.8 293.038 216.649 293.033 216.601 293.074C216.374 293.273 216.168 293.496 215.952 293.708C215.711 293.942 215.491 294.207 215.218 294.394C215.012 294.536 214.877 294.729 214.704 294.892C214.668 294.926 214.683 295.013 214.675 295.073C214.309 295.256 213.965 295.471 213.803 295.852L213.804 295.852ZM221.041 292.204C221.466 291.937 221.64 291.441 222.105 291.247C222.237 291.191 222.341 291.055 222.443 290.943C222.618 290.753 222.772 290.543 222.952 290.36C223.149 290.158 223.366 289.98 223.54 289.748C223.762 289.453 223.821 289.134 223.648 288.962C223.443 288.758 223.226 288.55 223.078 288.305C222.865 287.952 222.639 287.634 222.311 287.37C222.088 287.191 221.954 286.905 221.771 286.674C221.655 286.529 221.488 286.417 221.405 286.258C221.257 285.976 220.987 285.85 220.764 285.662C220.662 285.576 220.579 285.464 220.47 285.39C220.101 285.135 219.714 284.902 219.485 284.492C219.473 284.471 219.452 284.452 219.43 284.442C219.242 284.353 219.053 284.266 218.864 284.179C218.833 284.164 218.794 284.156 218.773 284.133C218.489 283.816 218.196 283.506 217.932 283.173C217.789 282.992 217.441 282.942 217.226 283.037C217.02 283.128 216.924 283.297 216.78 283.435C216.462 283.74 216.097 283.995 215.763 284.283C215.673 284.36 215.64 284.503 215.552 284.583C215.218 284.886 214.871 285.175 214.509 285.487C214.82 285.765 215.1 286.013 215.377 286.263C215.707 286.56 216.046 286.848 216.36 287.161C216.674 287.474 216.958 287.817 217.264 288.139C217.435 288.319 217.627 288.479 217.802 288.656C218.061 288.919 218.316 289.187 218.569 289.457C218.838 289.745 219.106 290.033 219.366 290.329C219.541 290.527 219.695 290.744 219.87 290.942C220.046 291.141 220.24 291.325 220.421 291.519C220.637 291.752 220.847 291.991 221.041 292.205V292.204ZM201.567 309.79C201.55 309.767 201.533 309.738 201.51 309.717C201.257 309.487 200.996 309.265 200.751 309.028C200.46 308.747 200.176 308.459 199.902 308.162C199.709 307.953 199.54 307.722 199.359 307.502C199.154 307.251 198.959 306.992 198.741 306.753C198.455 306.441 198.151 306.147 197.857 305.842C197.782 305.764 197.717 305.676 197.647 305.593C197.619 305.607 197.592 305.621 197.564 305.636C197.564 306.149 197.567 306.663 197.563 307.176C197.56 307.463 197.539 307.749 197.541 308.036C197.542 308.156 197.57 308.326 197.556 308.391C197.491 308.68 197.44 308.971 197.537 309.242C197.606 309.438 197.548 309.566 197.416 309.789H201.566L201.567 309.79Z" fill="#B8AE91"/>
<circle cx="99.5" cy="345.5" r="26.5" fill="#E5D9B6" fill-opacity="0.5"/>
<g clip-path="url(#clip1_873_3168)">
<path d="M98.6146 361.656C98.1659 362.431 97.4588 362.884 96.7539 363.317C96.1174 363.708 95.4035 363.92 94.6582 363.977C93.5862 364.059 92.5848 363.808 91.7299 363.14C91.0189 362.584 90.5079 361.849 90.2234 360.96C89.8855 359.903 89.7858 358.835 90.0454 357.747C90.1598 357.268 90.2556 356.775 90.446 356.327C90.6472 355.853 90.9476 355.423 91.2115 354.978C91.3078 354.816 91.444 354.677 91.524 354.507C91.5657 354.419 91.5416 354.285 91.518 354.178C91.4457 353.858 91.3138 353.545 91.2871 353.222C91.2283 352.514 91.1857 351.801 91.1999 351.092C91.2154 350.307 91.5618 349.633 91.9761 348.986C92.5198 348.136 93.2729 347.541 94.1493 347.129C94.6947 346.872 95.3007 346.897 95.8956 347.018C96.248 347.09 96.6211 347.081 96.9594 347.191C97.3664 347.323 97.7812 347.457 98.1323 347.739C98.4048 347.959 98.7061 348.141 99.0006 348.331C99.0702 348.375 99.1617 348.402 99.2443 348.404C99.9986 348.43 100.516 348.872 100.96 349.436C101.214 349.759 101.218 349.743 101.568 349.562C101.85 349.417 102.164 349.332 102.472 349.248C102.803 349.158 103.12 349.261 103.439 349.364C103.776 349.473 104.119 349.389 104.442 349.287C104.951 349.126 105.469 349.132 105.978 349.211C106.407 349.278 106.819 349.456 107.244 349.562C107.786 349.696 108.258 349.968 108.638 350.366C108.987 350.732 109.22 351.192 109.427 351.664C109.571 351.994 109.759 352.301 109.793 352.675C109.832 353.106 109.907 353.534 109.926 353.965C109.937 354.25 109.91 354.547 109.838 354.821C109.75 355.159 109.613 355.486 109.468 355.803C109.282 356.213 109.085 356.62 108.859 357.006C108.698 357.28 108.511 357.556 108.279 357.763C107.917 358.086 108.135 358.425 108.177 358.764C108.224 359.143 108.322 359.522 108.322 359.901C108.321 360.443 108.296 360.993 108.197 361.523C108.092 362.087 107.955 362.656 107.659 363.16C107.437 363.538 107.24 363.938 106.972 364.28C106.71 364.615 106.392 364.913 106.065 365.185C105.62 365.555 105.098 365.81 104.54 365.931C104.104 366.026 103.643 366.083 103.202 366.046C102.755 366.009 102.308 365.871 101.885 365.711C101.562 365.589 101.261 365.385 100.978 365.178C100.688 364.965 100.418 364.717 100.161 364.462C99.7712 364.074 99.4777 363.605 99.2382 363.111C99.0208 362.661 98.8613 362.182 98.6752 361.716C98.6679 361.698 98.6455 361.686 98.6133 361.655L98.6146 361.656ZM101.295 351.116C101.191 351.061 101.125 351.007 101.051 350.991C100.913 350.962 100.766 350.973 100.633 350.933C100.547 350.908 100.456 350.836 100.406 350.758C100.32 350.625 100.281 350.46 100.193 350.329C99.953 349.973 99.7102 349.612 99.2374 349.554C98.9228 349.514 98.6129 349.466 98.3395 349.274C98.1177 349.119 97.8534 349.018 97.6591 348.836C97.3445 348.54 96.974 348.41 96.576 348.327C96.3056 348.27 96.031 348.234 95.7606 348.177C95.2904 348.078 94.8279 348.048 94.3887 348.301C94.316 348.343 94.2443 348.387 94.1768 348.438C93.8677 348.669 93.5183 348.862 93.2634 349.145C92.9815 349.458 92.7679 349.843 92.5611 350.219C92.4519 350.417 92.3956 350.657 92.3612 350.886C92.3191 351.165 92.3208 351.452 92.311 351.736C92.2878 352.388 92.3673 353.033 92.5091 353.665C92.6428 354.26 92.6806 354.819 92.2869 355.337C92.1197 355.557 91.9804 355.8 91.8395 356.04C91.5614 356.513 91.3499 357.019 91.2218 357.556C91.0834 358.136 91.0151 358.722 91.0593 359.327C91.1251 360.228 91.3585 361.043 91.9448 361.744C92.3363 362.211 92.8074 362.525 93.3773 362.683C93.6189 362.75 93.8738 362.805 94.1218 362.801C94.5142 362.795 94.9169 362.781 95.2947 362.685C95.7555 362.568 96.1767 362.324 96.576 362.053C96.8928 361.838 97.1971 361.62 97.4231 361.286C97.6613 360.934 98.0081 360.712 98.4504 360.75C98.6692 360.769 98.8927 360.81 99.0981 360.886C99.6191 361.079 99.9247 361.453 100.027 362.031C100.073 362.293 100.215 362.547 100.356 362.778C100.526 363.057 100.744 363.303 100.934 363.569C101.186 363.921 101.499 364.2 101.875 364.401C102.063 364.502 102.28 364.572 102.452 364.669C102.746 364.836 103.058 364.886 103.355 364.903C104.154 364.95 104.879 364.682 105.509 364.169C106.019 363.754 106.387 363.213 106.662 362.622C106.862 362.189 107.007 361.717 107.098 361.246C107.189 360.776 107.219 360.285 107.207 359.805C107.197 359.379 107.101 358.953 107.029 358.53C106.949 358.053 107.035 357.633 107.33 357.241C107.573 356.917 107.779 356.563 107.983 356.211C108.194 355.846 108.397 355.473 108.578 355.091C108.681 354.874 108.773 354.636 108.798 354.398C108.833 354.063 108.826 353.718 108.791 353.383C108.76 353.081 108.711 352.768 108.594 352.494C108.441 352.135 108.212 351.809 108.017 351.469C107.85 351.177 107.611 350.965 107.321 350.817C107.187 350.749 107.032 350.719 106.886 350.678C106.508 350.568 106.133 350.433 105.748 350.362C105.336 350.285 104.92 350.345 104.511 350.443C104.011 350.563 103.517 350.617 103.012 350.429C102.559 350.261 102.168 350.481 101.802 350.735C101.622 350.859 101.452 350.998 101.295 351.116L101.295 351.116Z" fill="#B8AE91"/>
<path d="M114.509 337.649C114.49 337.675 114.447 337.762 114.38 337.817C114.301 337.882 114.205 337.951 114.108 337.964C113.679 338.023 113.242 338.036 112.817 338.117C112.459 338.185 112.102 338.292 111.768 338.438C111.262 338.658 110.766 338.908 110.284 339.179C110.013 339.332 109.763 339.534 109.531 339.745C109.144 340.098 108.765 340.462 108.409 340.847C108.155 341.122 107.911 341.418 107.719 341.739C107.46 342.172 107.227 342.626 107.036 343.093C106.895 343.438 106.828 343.818 106.747 344.187C106.68 344.495 106.646 344.812 106.583 345.122C106.561 345.233 106.508 345.307 106.351 345.301C106.146 345.294 105.939 345.363 105.731 345.394C105.688 345.401 105.629 345.406 105.599 345.383C105.409 345.231 105.252 345.064 105.236 344.787C105.21 344.351 105.174 343.915 105.114 343.484C105.054 343.056 104.988 342.623 104.867 342.21C104.769 341.874 104.603 341.555 104.436 341.247C104.256 340.914 103.96 340.627 103.857 340.276C103.676 339.659 103.188 339.295 102.868 338.797C102.603 338.386 102.331 337.978 101.921 337.688C101.653 337.499 101.439 337.223 101.161 337.058C100.777 336.829 100.356 336.666 99.9487 336.481C99.873 336.447 99.7819 336.426 99.7007 336.433C99.3929 336.462 99.1789 336.287 98.9674 336.102C98.9567 336.092 98.9524 336.075 98.9412 336.067C98.8264 335.987 98.6305 335.983 98.6971 335.744C98.7366 335.602 98.7383 335.449 98.7577 335.301C98.7633 335.258 98.7882 335.208 98.7744 335.174C98.6764 334.928 98.8406 334.899 99.0031 334.891C99.2219 334.88 99.445 334.915 99.6603 334.885C100.105 334.824 100.553 334.761 100.987 334.65C101.864 334.427 102.639 333.967 103.365 333.434C104.026 332.949 104.653 332.407 105.155 331.744C105.513 331.272 105.827 330.763 106.148 330.262C106.515 329.692 106.735 329.059 106.859 328.391C106.894 328.202 106.9 328.007 106.911 327.815C106.927 327.516 107.173 327.362 107.473 327.444C107.635 327.488 107.809 327.502 107.977 327.499C108.233 327.495 108.236 327.7 108.244 327.853C108.272 328.373 108.233 328.901 108.298 329.415C108.353 329.848 108.495 330.274 108.638 330.689C108.797 331.151 108.974 331.611 109.193 332.047C109.559 332.777 110.011 333.45 110.523 334.088C111.003 334.686 111.543 335.217 112.148 335.659C112.736 336.09 113.37 336.477 114.13 336.532C114.232 336.54 114.338 336.57 114.433 336.613C114.683 336.727 114.592 336.949 114.574 337.143C114.56 337.299 114.535 337.453 114.509 337.647L114.509 337.649ZM107.344 330.584C105.979 333.072 104.029 334.824 101.444 335.794C101.743 336.021 102.042 336.232 102.324 336.467C102.616 336.71 102.903 336.964 103.169 337.236C103.352 337.424 103.495 337.654 103.658 337.863C103.893 338.164 104.145 338.453 104.362 338.768C104.588 339.097 104.788 339.445 104.984 339.794C105.188 340.154 105.375 340.525 105.57 340.891C105.664 341.068 105.781 341.234 105.852 341.42C105.943 341.66 105.998 341.915 106.088 342.231C107.409 339.628 109.387 337.912 112.092 337.051C109.703 335.516 108.225 333.285 107.345 330.583L107.344 330.584Z" fill="#B8AE91"/>
<path d="M84.3908 337.081C84.3899 336.47 84.512 335.882 84.7621 335.33C84.965 334.883 85.2702 334.511 85.6359 334.189C86.0606 333.815 86.5162 333.487 87.0474 333.307C87.4781 333.16 87.9303 333.08 88.3674 332.952C88.4959 332.914 88.6407 332.84 88.7207 332.736C89.0787 332.272 89.5231 331.908 89.9723 331.549C90.4842 331.141 91.0559 330.837 91.6683 330.627C92.0174 330.507 92.384 330.458 92.7519 330.408C93.4645 330.311 94.1256 330.501 94.7355 330.81C95.1335 331.011 95.473 331.363 95.7898 331.697C96.2252 332.156 96.533 332.712 96.7208 333.327C96.851 333.754 97.007 334.182 97.0612 334.622C97.1394 335.253 97.2035 335.893 97.1072 336.535C97.059 336.857 97.0857 337.191 97.0251 337.509C96.9168 338.079 96.7861 338.645 96.6297 339.202C96.5119 339.622 96.3486 340.029 96.1883 340.434C95.9261 341.098 95.5672 341.711 95.2048 342.321C95.0381 342.602 94.901 342.901 94.7501 343.191C94.6899 343.307 94.6233 343.38 94.4669 343.359C93.9313 343.287 93.3932 343.232 92.8555 343.178C92.5262 343.145 92.194 343.142 91.8669 343.096C91.4607 343.039 91.058 342.955 90.6553 342.877C90.3832 342.824 90.1103 342.77 89.8421 342.7C89.5464 342.623 89.2571 342.521 88.9622 342.438C88.3394 342.265 87.7691 341.97 87.2159 341.639C87.0964 341.567 86.9868 341.475 86.882 341.381C86.6378 341.161 86.3808 340.952 86.1629 340.708C85.8805 340.39 85.6084 340.056 85.3733 339.701C85.1391 339.347 84.9517 338.959 84.7509 338.582C84.582 338.264 84.3847 337.417 84.3908 337.081ZM93.8243 342.13C93.9923 341.931 94.1299 341.776 94.2575 341.613C94.3156 341.54 94.3555 341.451 94.4015 341.368C94.4729 341.239 94.5382 341.106 94.6143 340.98C94.7054 340.83 94.8257 340.694 94.898 340.535C95.0359 340.229 95.1533 339.914 95.271 339.6C95.3961 339.266 95.5362 338.935 95.6239 338.591C95.718 338.222 95.7636 337.838 95.822 337.459C95.8732 337.128 95.9136 336.794 95.9583 336.462C95.9785 336.312 96.009 336.162 96.0146 336.011C96.0189 335.891 95.9905 335.77 95.9785 335.649C95.9428 335.279 95.9364 334.904 95.8659 334.542C95.7885 334.146 95.6888 333.75 95.5001 333.386C95.4322 333.255 95.4111 333.094 95.3282 332.977C95.1786 332.767 94.9994 332.578 94.8305 332.383C94.7793 332.324 94.7252 332.266 94.6633 332.22C94.53 332.12 94.3693 332.05 94.2588 331.929C94.0263 331.675 93.7035 331.687 93.4181 331.601C93.2406 331.548 93.036 331.575 92.8452 331.587C92.4811 331.61 92.1171 331.635 91.8024 331.869C91.7006 331.944 91.5729 331.997 91.4496 332.026C91.1938 332.086 91.0008 332.25 90.801 332.404C90.6892 332.49 90.5839 332.585 90.4769 332.678C90.222 332.898 89.9306 333.088 89.7234 333.348C89.5146 333.61 89.2971 333.819 88.9786 333.902C88.8836 333.927 88.7779 333.911 88.6833 333.938C88.3266 334.04 87.9732 334.153 87.6178 334.261C87.2301 334.379 86.8807 334.577 86.5699 334.836C86.2974 335.062 86.0679 335.328 85.8779 335.644C85.66 336.006 85.5586 336.386 85.5164 336.796C85.4726 337.22 85.5886 337.615 85.7339 338.003C85.9695 338.633 86.2948 339.21 86.7513 339.696C87.013 339.975 87.3019 340.228 87.5868 340.483C87.7184 340.601 87.8585 340.718 88.0132 340.799C88.8488 341.235 89.735 341.521 90.6544 341.7C91.0447 341.776 91.4358 341.845 91.8282 341.909C92.0956 341.952 92.3646 341.986 92.6337 342.014C93.0519 342.059 93.471 342.096 93.8239 342.131L93.8243 342.13Z" fill="#B8AE91"/>
<path d="M100.835 352.508C100.961 352.349 101.092 352.193 101.212 352.028C101.362 351.823 101.504 351.612 101.647 351.401C101.745 351.256 101.855 351.205 102.002 351.334C102.093 351.414 102.199 351.479 102.279 351.569C102.403 351.707 102.358 351.855 102.259 351.987C101.973 352.369 101.681 352.747 101.393 353.129C101.272 353.29 101.157 353.456 101.048 353.687C101.126 353.671 101.221 353.681 101.277 353.637C101.664 353.326 102.032 352.99 102.427 352.69C103.109 352.173 103.854 351.777 104.681 351.566C105.365 351.391 106.049 351.358 106.708 351.685C107.35 352.004 107.682 352.568 107.82 353.256C108.004 354.172 107.81 355.055 107.485 355.898C107.247 356.513 106.97 357.124 106.616 357.673C106.406 357.998 106.309 358.292 106.337 358.66C106.369 359.082 106.391 359.506 106.419 359.929C106.468 360.668 106.417 361.398 106.162 362.095C105.894 362.828 105.51 363.506 104.896 363.981C104.589 364.219 104.17 364.249 103.771 364.233C102.991 364.199 102.397 363.785 101.87 363.251C101.537 362.915 101.228 362.551 100.927 362.183C100.765 361.984 100.636 361.754 100.501 361.532C100.27 361.155 100.047 360.774 99.8206 360.394C99.8168 360.388 99.8121 360.382 99.8103 360.374C99.7394 360.116 99.5924 360.094 99.332 360.086C99.0478 360.076 98.6911 360.082 98.4848 359.791C97.9939 360.137 97.5263 360.511 97.0187 360.816C96.1105 361.36 95.1533 361.776 94.071 361.783C93.3227 361.788 92.654 361.583 92.1627 360.98C91.8678 360.618 91.7152 360.17 91.6787 359.697C91.6198 358.929 91.8085 358.211 92.1098 357.512C92.3969 356.845 92.7554 356.23 93.2127 355.673C93.26 355.616 93.2673 355.518 93.2798 355.437C93.315 355.208 93.3679 354.977 93.3683 354.746C93.3683 354.296 93.3292 353.846 93.3215 353.396C93.3103 352.711 93.3146 352.023 93.4663 351.353C93.6528 350.528 94.0152 349.823 94.8881 349.574C95.5023 349.398 96.1062 349.362 96.7196 349.648C97.2366 349.89 97.675 350.205 98.0343 350.656C98.4435 351.17 98.888 351.655 99.2877 352.176C99.5056 352.46 99.6603 352.795 99.849 353.105C99.8864 353.166 99.9483 353.211 99.999 353.263C100.02 353.185 100.072 353.098 100.057 353.028C99.9943 352.745 99.8929 352.47 99.8404 352.186C99.7845 351.885 99.7579 351.577 99.7416 351.271C99.7381 351.208 99.8267 351.1 99.8911 351.081C100.032 351.042 100.192 351.016 100.33 351.048C100.403 351.066 100.472 351.21 100.498 351.31C100.6 351.696 100.684 352.088 100.775 352.477C100.795 352.487 100.815 352.498 100.835 352.508L100.835 352.508ZM101.051 357.135C100.939 357.291 100.94 357.394 101.092 357.515C101.553 357.881 102.016 358.247 102.449 358.647C102.924 359.085 103.364 359.563 103.825 360.017C103.872 360.063 103.956 360.088 104.024 360.089C104.414 360.091 104.808 360.006 105.186 360.193C105.303 360.252 105.442 360.264 105.586 360.302C105.596 360.213 105.611 360.148 105.609 360.085C105.599 359.53 105.575 358.975 105.579 358.421C105.581 358.209 105.512 358.12 105.315 358.083C104.736 357.974 104.157 357.855 103.58 357.733C103.05 357.622 102.521 357.506 101.993 357.383C101.683 357.31 101.375 357.221 101.051 357.135ZM98.6516 356.861C98.6301 356.828 98.6086 356.796 98.5871 356.763C98.3103 356.705 98.0343 356.642 97.7567 356.589C97.1201 356.466 96.4806 356.358 95.8457 356.226C95.2969 356.112 94.7523 355.975 94.206 355.848C94.0616 355.814 93.9692 355.859 93.8897 355.996C93.6387 356.431 93.3782 356.859 93.1126 357.284C92.9656 357.519 92.9746 357.555 93.2355 357.605C93.7177 357.697 94.1751 357.854 94.5443 358.201C94.6616 358.311 94.7471 358.312 94.8821 358.235C95.624 357.811 96.3508 357.355 97.2138 357.212C97.6441 357.141 98.0666 357.018 98.4925 356.918C98.5467 356.905 98.5987 356.88 98.6516 356.861V356.861ZM98.6902 355.918C98.6975 355.905 98.7049 355.891 98.7122 355.878C98.6765 355.838 98.6451 355.792 98.6047 355.758C98.2626 355.475 97.9213 355.19 97.5744 354.912C97.0187 354.467 96.5279 353.957 96.0804 353.399C95.9889 353.284 95.8032 353.148 95.6893 353.171C95.2298 353.263 94.7914 353.28 94.3616 353.061C94.2838 353.022 94.1987 352.998 94.1179 352.968C94.1179 353.164 94.1132 353.331 94.1188 353.498C94.1334 353.93 94.1695 354.361 94.1652 354.792C94.1622 355.079 94.1394 355.072 94.4132 355.122C95.4507 355.311 96.487 355.506 97.5237 355.699C97.9127 355.772 98.3013 355.845 98.6898 355.918L98.6902 355.918ZM99.0044 355.368C99.0956 355.09 99.1656 354.869 99.2404 354.649C99.3036 354.462 99.3981 354.282 99.4312 354.091C99.4957 353.717 99.2133 353.458 99.0595 353.175C98.8549 352.798 98.5596 352.47 98.2815 352.14C97.9355 351.729 97.5689 351.337 97.207 350.941C97.1734 350.904 97.0995 350.865 97.0673 350.88C97.0299 350.897 97.0075 350.971 96.9985 351.023C96.9873 351.087 97.0067 351.156 96.9964 351.22C96.962 351.44 96.9577 351.675 96.8726 351.873C96.7436 352.172 96.5567 352.445 96.4075 352.706C97.0767 353.779 98.1332 354.439 99.004 355.368L99.0044 355.368ZM103.196 360.509C102.908 360.092 101.279 358.471 100.702 358.21C100.607 358.425 100.535 358.655 100.412 358.852C100.216 359.162 100.28 359.454 100.428 359.739C100.594 360.058 100.777 360.37 100.971 360.673C101.303 361.188 101.634 361.707 101.999 362.197C102.192 362.455 102.458 362.655 102.67 362.86C102.658 362.444 102.629 362.035 102.64 361.626C102.653 361.18 102.897 360.836 103.196 360.51V360.509ZM104.93 352.372C104.797 352.396 104.71 352.398 104.634 352.428C104.245 352.584 103.843 352.716 103.474 352.915C102.832 353.26 102.202 353.632 101.663 354.142C101.497 354.299 101.355 354.443 101.399 354.718C101.432 354.915 101.384 355.125 101.371 355.33C101.362 355.475 101.351 355.62 101.339 355.787C101.438 355.751 101.491 355.729 101.545 355.713C102.034 355.568 102.53 355.446 103.009 355.272C103.401 355.13 103.772 354.925 104.154 354.751C104.451 354.617 104.457 354.619 104.36 354.3C104.225 353.855 104.295 353.435 104.506 353.038C104.62 352.824 104.766 352.628 104.93 352.372H104.93ZM104.973 355.16C104.455 355.411 103.912 355.716 103.34 355.943C102.772 356.168 102.175 356.316 101.59 356.498C101.592 356.521 101.594 356.545 101.596 356.568C101.725 356.598 101.852 356.634 101.982 356.658C102.317 356.719 102.655 356.765 102.989 356.833C103.884 357.013 104.776 357.204 105.672 357.379C105.746 357.394 105.876 357.343 105.912 357.282C106.119 356.918 106.313 356.545 106.498 356.168C106.572 356.017 106.612 355.849 106.676 355.663C106.05 355.677 105.486 355.608 104.973 355.16L104.973 355.16ZM94.9479 360.785C95.051 360.773 95.1035 360.779 95.1456 360.76C95.6025 360.556 96.0804 360.389 96.5068 360.132C97.0204 359.822 97.4932 359.44 97.9763 359.079C98.1216 358.97 98.3197 358.849 98.3589 358.696C98.4431 358.371 98.4392 358.021 98.4732 357.663C97.2934 357.985 96.135 358.318 95.1331 359.072C95.2921 359.632 95.2105 360.197 94.947 360.785H94.9479ZM105.581 360.93C105.428 360.903 105.297 360.865 105.164 360.858C104.859 360.844 104.551 360.815 104.25 360.848C103.802 360.899 103.459 361.235 103.398 361.653C103.368 361.853 103.345 362.071 103.389 362.263C103.473 362.629 103.605 362.982 103.725 363.338C103.736 363.371 103.806 363.406 103.847 363.404C104.128 363.388 104.403 363.34 104.61 363.12C105.137 362.561 105.412 361.871 105.569 361.123C105.581 361.063 105.576 360.998 105.58 360.93H105.581ZM107.068 353.9C107.062 353.899 107.055 353.898 107.048 353.897C107.042 353.795 107.043 353.692 107.029 353.59C106.962 353.12 106.815 352.703 106.371 352.456C106.222 352.373 106.098 352.375 105.984 352.481C105.747 352.7 105.489 352.905 105.296 353.16C104.806 353.809 104.979 354.403 105.589 354.742C105.908 354.92 106.282 354.993 106.627 355.123C106.812 355.193 106.895 355.115 106.922 354.939C106.973 354.593 107.02 354.246 107.068 353.9V353.9ZM96.4346 350.923C96.4346 350.89 96.4363 350.839 96.4346 350.787C96.4191 350.378 96.3821 350.315 95.9902 350.264C95.8079 350.24 95.6154 350.288 95.4288 350.311C94.9466 350.372 94.537 350.536 94.3999 351.085C94.3474 351.296 94.2915 351.507 94.2185 351.711C94.1398 351.93 94.2468 352.136 94.3564 352.25C94.6337 352.537 95.0033 352.664 95.3979 352.542C96.0353 352.345 96.4849 351.572 96.435 350.923H96.4346ZM92.4906 359.294C92.5203 360.158 92.7906 360.743 93.6365 360.896C93.7139 360.91 93.8304 360.866 93.8849 360.807C94.004 360.677 94.1007 360.523 94.197 360.372C94.5787 359.773 94.4123 359.148 93.9103 358.724C93.6172 358.478 93.2583 358.384 92.9037 358.282C92.7438 358.236 92.6729 358.323 92.6454 358.462C92.5826 358.777 92.5276 359.093 92.4906 359.294ZM99.1832 359.202C99.2116 359.214 99.2395 359.227 99.2679 359.239C99.3543 359.11 99.4669 358.992 99.5219 358.85C99.7355 358.3 99.9608 357.751 100.126 357.184C100.427 356.156 100.665 355.111 100.611 354.023C100.609 353.978 100.584 353.915 100.55 353.896C100.521 353.88 100.45 353.9 100.424 353.928C100.351 354.008 100.268 354.092 100.232 354.191C100.086 354.589 99.9285 354.984 99.828 355.395C99.6019 356.315 99.3509 357.233 99.264 358.184C99.2331 358.523 99.2099 358.863 99.1828 359.202H99.1832Z" fill="#B8AE91"/>
<path d="M103.052 335.405C103.82 335.489 104.456 335.218 105.043 334.813C105.782 334.304 106.373 333.649 106.722 332.797C106.833 332.526 106.881 332.227 106.943 331.937C106.972 331.798 107.023 331.693 107.169 331.704C107.531 331.731 107.607 331.784 107.592 331.99C107.545 332.65 107.708 333.264 107.986 333.848C108.4 334.718 108.947 335.48 109.777 335.978C109.998 336.111 110.256 336.174 110.496 336.274C110.601 336.318 110.78 336.242 110.767 336.481C110.747 336.856 110.687 336.994 110.458 337C109.952 337.014 109.474 337.144 109.025 337.374C108.319 337.735 107.745 338.25 107.312 338.936C107.015 339.406 106.841 339.91 106.788 340.462C106.774 340.611 106.715 340.669 106.574 340.658C106.525 340.654 106.474 340.664 106.425 340.671C106.229 340.701 106.129 340.613 106.105 340.411C106.059 340.034 106.027 339.652 105.944 339.282C105.89 339.04 105.769 338.811 105.657 338.587C105.298 337.864 104.869 337.183 104.242 336.682C103.966 336.461 103.604 336.343 103.267 336.219C102.993 336.118 102.698 335.978 102.865 335.6C102.9 335.522 102.988 335.469 103.051 335.404L103.052 335.405ZM106.549 339.079C107.189 337.822 108.174 336.979 109.523 336.534C108.327 335.757 107.599 334.654 107.153 333.304C106.467 334.554 105.491 335.415 104.208 335.913C105.356 336.683 105.998 337.832 106.549 339.079H106.549Z" fill="#B8AE91"/>
<path d="M95.2688 336.333C95.228 337.662 94.9314 338.759 94.4044 339.79C94.1676 340.253 93.92 340.71 93.6622 341.16C93.6192 341.235 93.4954 341.313 93.4154 341.306C92.7669 341.251 92.117 341.196 91.4731 341.103C90.4411 340.953 89.4182 340.726 88.5349 340.13C87.87 339.681 87.3233 339.088 87.0048 338.313C86.8862 338.025 86.7344 337.742 86.676 337.44C86.5225 336.651 86.7168 335.941 87.2399 335.332C87.6946 334.802 88.2796 334.506 88.9308 334.328C89.0533 334.295 89.1917 334.307 89.3047 334.256C89.4281 334.2 89.5493 334.113 89.6395 334.01C90.2654 333.3 91.0102 332.77 91.9261 332.578C93.2431 332.303 94.2691 332.955 94.8235 334.132C95.1742 334.877 95.3148 335.668 95.2692 336.332L95.2688 336.333ZM93.0656 340.473C93.1073 340.39 93.1301 340.295 93.1881 340.238C93.473 339.957 93.6299 339.599 93.7997 339.244C94.2579 338.282 94.4917 337.263 94.4883 336.201C94.4861 335.49 94.3597 334.797 93.951 334.18C93.5624 333.593 93.0462 333.299 92.3628 333.323C92.0031 333.335 91.676 333.47 91.3562 333.64C90.9127 333.875 90.5262 334.181 90.2026 334.567C90.0461 334.754 89.8716 334.875 89.6335 334.92C88.9544 335.049 88.2977 335.232 87.8214 335.805C87.4694 336.228 87.3014 336.708 87.417 337.263C87.5236 337.775 87.7544 338.224 88.0703 338.64C88.5904 339.325 89.2678 339.75 90.0629 339.993C91.0377 340.29 92.0409 340.414 93.0656 340.473V340.473Z" fill="#B8AE91"/>
</g>
<circle cx="228.5" cy="151.5" r="34.5" fill="#E5D9B6" fill-opacity="0.5"/>
<g clip-path="url(#clip2_873_3168)">
<path d="M227.347 172.532C226.763 173.54 225.843 174.131 224.925 174.694C224.096 175.203 223.167 175.479 222.197 175.553C220.801 175.66 219.497 175.333 218.384 174.464C217.459 173.74 216.793 172.782 216.423 171.625C215.983 170.249 215.853 168.858 216.191 167.443C216.34 166.819 216.465 166.177 216.713 165.593C216.975 164.976 217.366 164.417 217.709 163.838C217.835 163.627 218.012 163.445 218.116 163.225C218.171 163.109 218.139 162.935 218.108 162.796C218.014 162.379 217.843 161.971 217.808 161.551C217.731 160.629 217.676 159.701 217.694 158.778C217.714 157.757 218.166 156.879 218.705 156.036C219.413 154.93 220.393 154.155 221.534 153.618C222.244 153.284 223.033 153.316 223.808 153.474C224.266 153.568 224.752 153.557 225.193 153.7C225.722 153.872 226.262 154.046 226.72 154.413C227.074 154.699 227.467 154.937 227.85 155.183C227.941 155.241 228.06 155.276 228.167 155.279C229.149 155.313 229.823 155.888 230.4 156.622C230.731 157.043 230.737 157.023 231.193 156.787C231.559 156.598 231.969 156.487 232.369 156.378C232.8 156.26 233.213 156.394 233.628 156.529C234.067 156.671 234.513 156.561 234.934 156.429C235.597 156.219 236.271 156.227 236.933 156.329C237.492 156.416 238.029 156.649 238.582 156.786C239.287 156.96 239.902 157.315 240.397 157.833C240.851 158.309 241.155 158.909 241.424 159.523C241.612 159.953 241.856 160.353 241.901 160.839C241.952 161.4 242.05 161.958 242.073 162.519C242.088 162.89 242.052 163.276 241.959 163.634C241.844 164.073 241.666 164.498 241.477 164.912C241.235 165.445 240.979 165.975 240.684 166.478C240.475 166.834 240.232 167.194 239.929 167.463C239.458 167.883 239.741 168.325 239.796 168.766C239.858 169.26 239.986 169.753 239.985 170.247C239.984 170.952 239.951 171.669 239.822 172.359C239.685 173.092 239.507 173.833 239.122 174.489C238.833 174.981 238.576 175.502 238.228 175.947C237.887 176.384 237.473 176.771 237.048 177.126C236.467 177.608 235.789 177.94 235.062 178.097C234.494 178.221 233.894 178.295 233.319 178.247C232.738 178.199 232.156 178.019 231.605 177.81C231.184 177.652 230.793 177.386 230.425 177.116C230.046 176.84 229.695 176.517 229.361 176.184C228.853 175.68 228.471 175.068 228.159 174.425C227.876 173.84 227.669 173.216 227.426 172.609C227.417 172.586 227.388 172.57 227.346 172.53L227.347 172.532ZM230.837 158.809C230.702 158.738 230.616 158.667 230.519 158.646C230.34 158.608 230.149 158.623 229.975 158.572C229.863 158.538 229.745 158.445 229.68 158.344C229.568 158.171 229.517 157.955 229.402 157.785C229.09 157.321 228.774 156.852 228.158 156.775C227.749 156.724 227.345 156.661 226.989 156.412C226.701 156.21 226.356 156.078 226.104 155.841C225.694 155.456 225.212 155.287 224.693 155.178C224.341 155.105 223.984 155.057 223.632 154.984C223.02 154.855 222.418 154.815 221.846 155.144C221.751 155.199 221.658 155.257 221.57 155.322C221.168 155.623 220.713 155.875 220.381 156.244C220.014 156.651 219.736 157.153 219.467 157.641C219.324 157.9 219.251 158.212 219.206 158.51C219.151 158.873 219.154 159.247 219.141 159.616C219.111 160.466 219.214 161.306 219.399 162.128C219.573 162.903 219.622 163.631 219.109 164.305C218.892 164.591 218.711 164.908 218.527 165.22C218.165 165.836 217.89 166.495 217.723 167.193C217.543 167.949 217.454 168.712 217.511 169.5C217.597 170.672 217.901 171.734 218.664 172.646C219.174 173.254 219.787 173.662 220.529 173.868C220.844 173.956 221.175 174.028 221.498 174.023C222.009 174.015 222.533 173.996 223.025 173.871C223.625 173.718 224.174 173.4 224.693 173.048C225.106 172.769 225.502 172.485 225.796 172.05C226.106 171.592 226.558 171.302 227.134 171.351C227.419 171.376 227.709 171.43 227.977 171.529C228.655 171.78 229.053 172.267 229.186 173.019C229.247 173.36 229.431 173.692 229.614 173.993C229.835 174.355 230.12 174.675 230.367 175.021C230.695 175.48 231.103 175.843 231.592 176.106C231.836 176.237 232.119 176.327 232.343 176.454C232.727 176.672 233.132 176.736 233.519 176.759C234.56 176.82 235.503 176.471 236.323 175.803C236.987 175.263 237.467 174.558 237.824 173.789C238.084 173.225 238.274 172.611 238.392 171.998C238.511 171.386 238.549 170.746 238.534 170.121C238.52 169.567 238.396 169.013 238.303 168.462C238.197 167.841 238.31 167.294 238.694 166.783C239.011 166.362 239.278 165.901 239.544 165.442C239.819 164.967 240.083 164.482 240.319 163.985C240.453 163.702 240.573 163.391 240.605 163.083C240.651 162.646 240.641 162.197 240.596 161.76C240.556 161.368 240.492 160.961 240.339 160.604C240.14 160.136 239.842 159.712 239.589 159.269C239.371 158.89 239.06 158.612 238.683 158.42C238.507 158.331 238.307 158.293 238.116 158.239C237.623 158.097 237.136 157.921 236.635 157.828C236.099 157.728 235.556 157.806 235.024 157.933C234.373 158.089 233.73 158.16 233.072 157.916C232.483 157.696 231.973 157.982 231.497 158.313C231.263 158.476 231.041 158.655 230.837 158.81L230.837 158.809Z" fill="#B8AE91"/>
<path d="M248.04 141.275C248.015 141.309 247.96 141.422 247.873 141.494C247.77 141.579 247.644 141.669 247.519 141.686C246.959 141.763 246.391 141.779 245.837 141.884C245.372 141.973 244.907 142.113 244.471 142.303C243.813 142.589 243.168 142.915 242.54 143.268C242.187 143.466 241.862 143.729 241.56 144.005C241.056 144.464 240.563 144.938 240.099 145.439C239.768 145.796 239.451 146.182 239.2 146.601C238.864 147.164 238.56 147.755 238.311 148.363C238.128 148.813 238.041 149.307 237.936 149.787C237.847 150.189 237.804 150.6 237.722 151.004C237.693 151.149 237.624 151.245 237.419 151.238C237.152 151.229 236.883 151.318 236.613 151.359C236.556 151.368 236.48 151.375 236.441 151.344C236.193 151.147 235.988 150.929 235.968 150.568C235.935 150.001 235.888 149.434 235.809 148.872C235.73 148.314 235.645 147.751 235.488 147.213C235.361 146.776 235.144 146.361 234.927 145.96C234.692 145.527 234.307 145.153 234.173 144.696C233.937 143.893 233.301 143.418 232.885 142.77C232.54 142.235 232.186 141.704 231.652 141.327C231.303 141.081 231.025 140.721 230.662 140.506C230.163 140.208 229.615 139.996 229.085 139.755C228.986 139.711 228.867 139.683 228.762 139.693C228.361 139.731 228.082 139.503 227.807 139.261C227.793 139.249 227.787 139.226 227.773 139.216C227.623 139.112 227.368 139.106 227.455 138.796C227.507 138.611 227.509 138.412 227.534 138.218C227.541 138.163 227.574 138.098 227.556 138.053C227.428 137.733 227.642 137.696 227.853 137.685C228.138 137.67 228.429 137.716 228.709 137.677C229.288 137.598 229.871 137.516 230.436 137.372C231.579 137.081 232.587 136.482 233.532 135.788C234.393 135.156 235.208 134.451 235.863 133.588C236.329 132.973 236.737 132.31 237.156 131.658C237.632 130.916 237.919 130.092 238.081 129.223C238.127 128.977 238.135 128.723 238.148 128.472C238.17 128.084 238.49 127.883 238.881 127.989C239.091 128.047 239.318 128.065 239.537 128.062C239.87 128.056 239.874 128.323 239.884 128.522C239.921 129.2 239.87 129.887 239.955 130.556C240.026 131.119 240.21 131.674 240.397 132.214C240.604 132.816 240.835 133.415 241.119 133.982C241.596 134.933 242.185 135.809 242.852 136.64C243.476 137.418 244.179 138.109 244.966 138.685C245.732 139.245 246.558 139.75 247.547 139.821C247.68 139.831 247.818 139.871 247.941 139.927C248.267 140.075 248.148 140.365 248.125 140.617C248.107 140.82 248.074 141.02 248.04 141.273L248.04 141.275ZM238.713 132.077C236.936 135.317 234.397 137.597 231.031 138.861C231.42 139.156 231.81 139.431 232.177 139.736C232.557 140.053 232.93 140.383 233.277 140.738C233.515 140.983 233.701 141.282 233.914 141.554C234.22 141.946 234.548 142.323 234.83 142.732C235.124 143.16 235.384 143.614 235.64 144.068C235.906 144.537 236.148 145.02 236.403 145.496C236.525 145.726 236.678 145.943 236.77 146.185C236.888 146.498 236.96 146.83 237.077 147.241C238.797 143.853 241.373 141.618 244.894 140.498C241.783 138.498 239.859 135.594 238.714 132.077L238.713 132.077Z" fill="#B8AE91"/>
<path d="M208.828 140.533C208.827 139.737 208.986 138.972 209.312 138.253C209.576 137.671 209.973 137.188 210.449 136.768C211.002 136.281 211.595 135.854 212.287 135.619C212.848 135.428 213.436 135.323 214.005 135.157C214.173 135.108 214.361 135.012 214.465 134.877C214.931 134.272 215.51 133.799 216.095 133.331C216.761 132.799 217.506 132.404 218.303 132.13C218.757 131.974 219.235 131.91 219.714 131.846C220.641 131.72 221.502 131.967 222.296 132.368C222.814 132.63 223.256 133.089 223.669 133.523C224.235 134.121 224.636 134.845 224.881 135.645C225.05 136.201 225.253 136.759 225.324 137.331C225.426 138.153 225.509 138.987 225.384 139.823C225.321 140.241 225.356 140.676 225.277 141.09C225.136 141.831 224.966 142.569 224.762 143.294C224.609 143.84 224.396 144.371 224.187 144.898C223.846 145.763 223.379 146.561 222.907 147.355C222.69 147.72 222.511 148.11 222.315 148.487C222.237 148.638 222.15 148.733 221.946 148.706C221.249 148.613 220.548 148.54 219.848 148.47C219.42 148.427 218.987 148.424 218.561 148.364C218.033 148.29 217.508 148.18 216.984 148.078C216.63 148.009 216.274 147.939 215.925 147.848C215.54 147.747 215.164 147.614 214.78 147.508C213.969 147.282 213.226 146.898 212.506 146.466C212.351 146.373 212.208 146.253 212.072 146.131C211.754 145.845 211.419 145.573 211.135 145.254C210.768 144.84 210.414 144.406 210.107 143.943C209.803 143.482 209.559 142.977 209.297 142.486C209.077 142.072 208.82 140.97 208.828 140.533ZM221.11 147.106C221.328 146.846 221.508 146.645 221.674 146.434C221.749 146.337 221.801 146.222 221.861 146.114C221.954 145.947 222.039 145.773 222.138 145.609C222.257 145.413 222.413 145.236 222.507 145.029C222.687 144.632 222.84 144.221 222.993 143.812C223.156 143.378 223.338 142.947 223.453 142.499C223.575 142.018 223.634 141.519 223.711 141.025C223.777 140.594 223.83 140.159 223.888 139.727C223.914 139.531 223.954 139.336 223.961 139.14C223.967 138.984 223.93 138.826 223.914 138.668C223.868 138.187 223.859 137.699 223.768 137.228C223.667 136.711 223.537 136.196 223.291 135.722C223.203 135.552 223.176 135.342 223.068 135.19C222.873 134.916 222.64 134.671 222.42 134.417C222.353 134.34 222.283 134.264 222.202 134.205C222.028 134.075 221.819 133.983 221.675 133.826C221.373 133.495 220.952 133.51 220.581 133.399C220.35 133.33 220.083 133.364 219.835 133.38C219.361 133.411 218.887 133.442 218.477 133.747C218.345 133.845 218.179 133.914 218.018 133.952C217.685 134.03 217.434 134.244 217.174 134.444C217.028 134.556 216.891 134.68 216.752 134.801C216.42 135.087 216.041 135.334 215.771 135.673C215.499 136.015 215.216 136.287 214.801 136.395C214.677 136.427 214.54 136.406 214.417 136.441C213.952 136.574 213.492 136.721 213.03 136.861C212.525 137.014 212.07 137.273 211.665 137.61C211.311 137.904 211.012 138.251 210.764 138.662C210.481 139.133 210.349 139.628 210.294 140.162C210.237 140.714 210.388 141.228 210.577 141.734C210.884 142.554 211.307 143.304 211.901 143.938C212.242 144.301 212.618 144.63 212.989 144.962C213.16 145.116 213.343 145.268 213.544 145.373C214.632 145.941 215.786 146.313 216.983 146.546C217.491 146.645 218 146.735 218.511 146.818C218.859 146.875 219.209 146.918 219.56 146.956C220.104 147.014 220.65 147.062 221.109 147.107L221.11 147.106Z" fill="#B8AE91"/>
<path d="M230.235 160.623C230.399 160.415 230.57 160.212 230.726 159.997C230.921 159.731 231.106 159.456 231.292 159.182C231.42 158.992 231.563 158.926 231.754 159.094C231.873 159.198 232.011 159.283 232.115 159.4C232.277 159.58 232.218 159.773 232.09 159.944C231.716 160.441 231.336 160.933 230.962 161.431C230.804 161.641 230.654 161.857 230.513 162.157C230.613 162.137 230.738 162.15 230.81 162.092C231.315 161.688 231.794 161.25 232.308 160.859C233.195 160.186 234.166 159.671 235.242 159.397C236.133 159.169 237.024 159.125 237.881 159.551C238.717 159.966 239.15 160.7 239.329 161.596C239.568 162.788 239.316 163.938 238.892 165.036C238.583 165.837 238.222 166.633 237.761 167.347C237.488 167.77 237.361 168.153 237.398 168.631C237.44 169.181 237.469 169.733 237.505 170.284C237.568 171.245 237.502 172.196 237.171 173.104C236.821 174.058 236.322 174.94 235.523 175.559C235.122 175.869 234.577 175.908 234.057 175.887C233.043 175.843 232.269 175.304 231.582 174.609C231.149 174.171 230.747 173.697 230.356 173.218C230.143 172.959 229.976 172.659 229.8 172.371C229.5 171.88 229.21 171.383 228.915 170.889C228.91 170.881 228.903 170.873 228.901 170.864C228.809 170.527 228.618 170.499 228.278 170.488C227.909 170.476 227.444 170.482 227.176 170.104C226.536 170.554 225.928 171.042 225.267 171.438C224.084 172.147 222.838 172.688 221.429 172.697C220.455 172.704 219.584 172.437 218.945 171.653C218.561 171.181 218.362 170.598 218.315 169.982C218.238 168.982 218.484 168.047 218.876 167.137C219.25 166.269 219.716 165.468 220.312 164.743C220.373 164.668 220.383 164.541 220.399 164.436C220.445 164.137 220.514 163.836 220.514 163.536C220.514 162.95 220.464 162.365 220.453 161.778C220.439 160.886 220.444 159.991 220.642 159.118C220.885 158.044 221.357 157.127 222.493 156.802C223.293 156.574 224.079 156.526 224.877 156.899C225.551 157.215 226.121 157.625 226.589 158.212C227.122 158.881 227.7 159.512 228.221 160.19C228.504 160.56 228.706 160.997 228.952 161.399C229 161.479 229.081 161.538 229.147 161.606C229.174 161.503 229.242 161.391 229.222 161.3C229.141 160.931 229.009 160.573 228.94 160.203C228.868 159.811 228.833 159.41 228.812 159.012C228.807 158.93 228.922 158.789 229.006 158.765C229.19 158.714 229.398 158.68 229.577 158.722C229.673 158.745 229.763 158.933 229.797 159.063C229.93 159.566 230.039 160.075 230.157 160.582C230.183 160.595 230.209 160.609 230.236 160.622L230.235 160.623ZM230.517 166.647C230.371 166.849 230.372 166.983 230.57 167.141C231.17 167.618 231.772 168.094 232.336 168.614C232.955 169.185 233.528 169.807 234.128 170.399C234.189 170.458 234.299 170.491 234.387 170.492C234.895 170.495 235.408 170.384 235.9 170.628C236.052 170.704 236.233 170.72 236.42 170.769C236.434 170.653 236.453 170.569 236.451 170.486C236.437 169.764 236.406 169.042 236.412 168.32C236.414 168.045 236.324 167.929 236.068 167.881C235.313 167.739 234.561 167.584 233.809 167.425C233.119 167.28 232.43 167.129 231.743 166.969C231.339 166.875 230.939 166.758 230.517 166.647ZM227.393 166.289C227.365 166.247 227.337 166.205 227.309 166.162C226.948 166.086 226.589 166.005 226.228 165.935C225.399 165.776 224.566 165.634 223.74 165.463C223.025 165.315 222.316 165.136 221.605 164.97C221.417 164.926 221.297 164.985 221.193 165.164C220.866 165.729 220.527 166.288 220.181 166.841C219.99 167.147 220.002 167.194 220.342 167.259C220.969 167.378 221.565 167.583 222.045 168.034C222.198 168.177 222.31 168.179 222.485 168.079C223.451 167.526 224.397 166.932 225.521 166.746C226.081 166.654 226.631 166.495 227.186 166.363C227.256 166.347 227.324 166.315 227.393 166.29V166.289ZM227.443 165.062C227.452 165.044 227.462 165.027 227.472 165.01C227.425 164.958 227.384 164.898 227.332 164.854C226.886 164.485 226.442 164.114 225.99 163.752C225.267 163.173 224.628 162.509 224.045 161.782C223.926 161.633 223.684 161.456 223.536 161.485C222.938 161.605 222.367 161.627 221.808 161.343C221.706 161.292 221.596 161.261 221.49 161.222C221.49 161.476 221.484 161.694 221.491 161.911C221.51 162.473 221.557 163.034 221.552 163.596C221.548 163.97 221.518 163.96 221.875 164.026C223.226 164.272 224.575 164.526 225.924 164.777C226.431 164.871 226.937 164.967 227.442 165.062L227.443 165.062ZM227.852 164.346C227.971 163.984 228.062 163.696 228.159 163.409C228.241 163.167 228.365 162.933 228.408 162.683C228.492 162.197 228.124 161.859 227.924 161.491C227.657 161 227.273 160.572 226.911 160.143C226.46 159.609 225.983 159.098 225.512 158.582C225.468 158.535 225.372 158.483 225.33 158.502C225.281 158.525 225.252 158.621 225.241 158.689C225.226 158.772 225.251 158.862 225.238 158.945C225.193 159.232 225.187 159.538 225.077 159.796C224.909 160.185 224.665 160.541 224.471 160.881C225.342 162.278 226.718 163.136 227.851 164.346L227.852 164.346ZM233.308 171.039C232.934 170.496 230.813 168.386 230.062 168.046C229.939 168.325 229.845 168.625 229.685 168.881C229.429 169.285 229.512 169.665 229.705 170.036C229.922 170.452 230.159 170.858 230.413 171.252C230.845 171.923 231.275 172.598 231.751 173.236C232.002 173.572 232.349 173.833 232.624 174.1C232.609 173.559 232.571 173.026 232.585 172.494C232.602 171.912 232.92 171.465 233.308 171.04V171.039ZM235.567 160.446C235.393 160.477 235.28 160.479 235.181 160.518C234.674 160.721 234.151 160.894 233.671 161.152C232.835 161.601 232.015 162.086 231.313 162.75C231.097 162.954 230.912 163.142 230.97 163.5C231.012 163.756 230.95 164.03 230.932 164.296C230.921 164.485 230.907 164.674 230.892 164.892C231.02 164.845 231.089 164.816 231.16 164.795C231.796 164.606 232.442 164.447 233.065 164.221C233.576 164.036 234.059 163.769 234.557 163.543C234.943 163.368 234.951 163.37 234.824 162.955C234.648 162.376 234.739 161.829 235.014 161.312C235.163 161.034 235.352 160.779 235.566 160.446H235.567ZM235.622 164.074C234.948 164.402 234.241 164.798 233.496 165.094C232.757 165.388 231.979 165.58 231.218 165.817C231.221 165.847 231.223 165.878 231.226 165.907C231.394 165.947 231.56 165.994 231.728 166.025C232.165 166.104 232.604 166.165 233.039 166.253C234.204 166.488 235.366 166.737 236.533 166.964C236.628 166.983 236.798 166.918 236.844 166.837C237.115 166.363 237.367 165.878 237.608 165.387C237.704 165.191 237.756 164.972 237.84 164.731C237.025 164.748 236.29 164.659 235.623 164.075L235.622 164.074ZM222.571 171.398C222.705 171.382 222.773 171.39 222.828 171.365C223.423 171.1 224.045 170.882 224.6 170.547C225.269 170.144 225.885 169.647 226.514 169.177C226.703 169.036 226.961 168.877 227.012 168.679C227.121 168.255 227.116 167.8 227.16 167.334C225.624 167.753 224.116 168.187 222.812 169.168C223.019 169.898 222.913 170.633 222.57 171.398H222.571ZM236.413 171.586C236.215 171.551 236.044 171.502 235.871 171.494C235.474 171.475 235.073 171.437 234.682 171.481C234.098 171.546 233.652 171.984 233.572 172.528C233.533 172.789 233.503 173.072 233.56 173.323C233.669 173.798 233.842 174.259 233.998 174.722C234.012 174.765 234.104 174.81 234.157 174.807C234.523 174.787 234.881 174.724 235.15 174.438C235.836 173.71 236.194 172.812 236.398 171.839C236.415 171.759 236.408 171.675 236.413 171.586H236.413ZM238.35 162.435C238.342 162.434 238.333 162.432 238.324 162.431C238.316 162.298 238.317 162.163 238.299 162.032C238.212 161.419 238.02 160.877 237.442 160.555C237.248 160.446 237.088 160.449 236.938 160.588C236.631 160.873 236.295 161.139 236.044 161.472C235.405 162.316 235.63 163.09 236.424 163.531C236.84 163.762 237.326 163.858 237.775 164.027C238.017 164.118 238.125 164.016 238.159 163.787C238.226 163.337 238.287 162.885 238.35 162.434V162.435ZM224.506 158.559C224.506 158.516 224.509 158.449 224.506 158.382C224.486 157.849 224.438 157.768 223.928 157.7C223.691 157.669 223.44 157.732 223.197 157.763C222.569 157.842 222.036 158.055 221.857 158.77C221.789 159.045 221.716 159.32 221.621 159.585C221.519 159.87 221.658 160.138 221.801 160.286C222.162 160.66 222.643 160.826 223.157 160.667C223.987 160.411 224.572 159.404 224.507 158.559H224.506ZM219.372 169.457C219.41 170.582 219.762 171.344 220.864 171.543C220.964 171.561 221.116 171.504 221.187 171.427C221.342 171.257 221.468 171.057 221.593 170.86C222.09 170.081 221.874 169.266 221.22 168.716C220.838 168.394 220.371 168.273 219.91 168.139C219.701 168.08 219.609 168.193 219.573 168.373C219.492 168.783 219.42 169.195 219.372 169.457ZM228.085 169.337C228.122 169.353 228.158 169.369 228.195 169.385C228.308 169.218 228.454 169.064 228.526 168.879C228.804 168.162 229.097 167.448 229.312 166.711C229.704 165.372 230.014 164.011 229.944 162.595C229.941 162.536 229.908 162.454 229.865 162.43C229.827 162.409 229.734 162.434 229.7 162.471C229.605 162.576 229.497 162.685 229.45 162.814C229.26 163.331 229.055 163.846 228.924 164.38C228.63 165.579 228.303 166.774 228.19 168.012C228.15 168.453 228.12 168.896 228.084 169.337H228.085Z" fill="#B8AE91"/>
<path d="M233.123 138.35C234.123 138.46 234.952 138.107 235.715 137.581C236.678 136.917 237.447 136.064 237.901 134.955C238.045 134.603 238.109 134.213 238.189 133.836C238.227 133.655 238.293 133.518 238.482 133.532C238.955 133.567 239.053 133.637 239.034 133.904C238.972 134.764 239.185 135.563 239.547 136.324C240.086 137.456 240.798 138.449 241.878 139.097C242.165 139.269 242.502 139.352 242.814 139.482C242.951 139.539 243.184 139.441 243.168 139.751C243.141 140.24 243.063 140.42 242.765 140.428C242.106 140.446 241.484 140.615 240.9 140.914C239.98 141.385 239.233 142.055 238.669 142.948C238.282 143.559 238.055 144.216 237.987 144.934C237.968 145.129 237.892 145.204 237.708 145.19C237.644 145.184 237.578 145.198 237.514 145.207C237.259 145.245 237.129 145.131 237.097 144.868C237.038 144.377 236.996 143.879 236.888 143.399C236.818 143.084 236.66 142.785 236.515 142.493C236.047 141.552 235.489 140.665 234.672 140.013C234.313 139.726 233.842 139.572 233.403 139.411C233.047 139.28 232.662 139.096 232.88 138.605C232.925 138.503 233.039 138.434 233.122 138.35L233.123 138.35ZM237.676 143.134C238.509 141.497 239.792 140.4 241.548 139.82C239.99 138.809 239.043 137.372 238.462 135.615C237.569 137.242 236.298 138.363 234.628 139.012C236.123 140.014 236.959 141.511 237.676 143.134H237.676Z" fill="#B8AE91"/>
<path d="M222.992 139.563C222.938 141.294 222.552 142.722 221.866 144.064C221.558 144.666 221.236 145.262 220.9 145.848C220.844 145.946 220.683 146.047 220.579 146.038C219.734 145.966 218.888 145.895 218.05 145.773C216.706 145.578 215.375 145.283 214.225 144.507C213.359 143.922 212.647 143.15 212.233 142.142C212.078 141.767 211.881 141.398 211.805 141.005C211.605 139.978 211.858 139.054 212.539 138.26C213.131 137.57 213.892 137.185 214.74 136.954C214.9 136.91 215.08 136.926 215.227 136.86C215.388 136.787 215.545 136.673 215.663 136.539C216.478 135.615 217.447 134.924 218.64 134.675C220.354 134.317 221.69 135.165 222.412 136.698C222.868 137.668 223.051 138.698 222.992 139.563L222.992 139.563ZM220.123 144.953C220.177 144.846 220.207 144.722 220.283 144.648C220.654 144.282 220.858 143.816 221.079 143.353C221.675 142.102 221.98 140.775 221.975 139.391C221.973 138.467 221.808 137.563 221.276 136.76C220.77 135.997 220.098 135.614 219.208 135.645C218.74 135.661 218.314 135.837 217.898 136.058C217.32 136.364 216.817 136.762 216.396 137.265C216.192 137.508 215.965 137.665 215.655 137.724C214.771 137.892 213.916 138.13 213.296 138.876C212.838 139.427 212.619 140.052 212.769 140.774C212.908 141.44 213.209 142.025 213.62 142.567C214.297 143.459 215.179 144.012 216.214 144.328C217.483 144.715 218.789 144.876 220.123 144.954V144.953Z" fill="#B8AE91"/>
</g>
<defs>
<clipPath id="clip0_873_3168">
<rect width="34.4062" height="37.7794" fill="white" transform="translate(113 64)"/>
</clipPath>
<clipPath id="clip1_873_3168">
<rect width="30.215" height="38.6355" fill="white" transform="translate(84.3906 327.422)"/>
</clipPath>
<clipPath id="clip2_873_3168">
<rect width="39.3364" height="50.2991" fill="white" transform="translate(208.828 127.961)"/>
</clipPath>
</defs>
</svg>
