<svg viewBox="0 0 30 30" fill="none" xmlns="http://www.w3.org/2000/svg">
<path d="M20.9256 15.6543C20.8057 15.6791 20.6865 15.7126 20.5652 15.7272C20.0691 15.7859 19.6613 15.9818 19.2923 16.345C19.092 16.5419 18.9026 16.8001 18.5835 16.8807C18.4166 16.923 18.2783 17.0711 18.1196 17.1579C18.0443 17.1991 17.9523 17.2097 17.8676 17.233C17.8487 17.2381 17.819 17.233 17.8107 17.2443C17.6999 17.3968 17.5264 17.4044 17.3664 17.4456C17.2324 17.4803 17.1024 17.531 16.9676 17.5612C16.8503 17.5875 16.7264 17.5846 16.6098 17.6134C16.4556 17.6517 16.3085 17.721 16.1535 17.7527C16.0123 17.7815 15.8645 17.7793 15.7193 17.7877C15.5469 17.7976 15.3745 17.8059 15.2022 17.811C15.0443 17.8158 14.8849 17.8293 14.7285 17.8143C14.5257 17.795 14.3254 17.7512 14.124 17.7173C13.9078 17.6809 13.6895 17.6528 13.4765 17.6024C13.3885 17.5817 13.3172 17.4945 13.2292 17.4682C13.1332 17.4394 13.0267 17.4456 12.9413 17.438C12.9413 17.6586 12.9351 17.8493 12.9431 18.0393C12.9503 18.2082 13.0144 18.3862 12.9796 18.5433C12.9163 18.8303 13.009 19.1064 12.9822 19.3898C12.9557 19.6695 12.9264 19.9554 13.0126 20.2369C13.0289 20.2905 12.9518 20.3668 12.9503 20.4331C12.9441 20.7249 12.9481 21.017 12.9539 21.3091C12.9547 21.347 12.9869 21.3842 13.0046 21.4218C13.0191 21.4178 13.034 21.4138 13.0484 21.4094C13.0336 21.4663 13.0097 21.5225 13.0054 21.5804C12.9945 21.7201 12.9927 21.8602 12.9865 22.0002C12.9804 22.1439 12.9699 22.2879 12.9681 22.4316C12.9666 22.5538 12.9764 22.676 12.9782 22.7985C12.9811 23.0115 12.9764 23.2248 12.9836 23.4374C12.9905 23.6409 13.0159 23.8437 13.018 24.0472C13.0198 24.2215 13.0003 24.3962 13.0213 24.5694C13.0235 24.6241 13.0278 24.6788 13.0278 24.7339C13.0278 24.906 12.9883 25.0752 13.0398 25.2536C13.0517 25.2951 12.9843 25.4239 13.0061 25.5212C13.0419 25.681 13.0271 25.8407 13.2603 25.9089C13.5641 25.9979 13.8604 26.1416 14.1316 26.3086C14.6017 26.5974 15.0298 26.9548 15.3593 27.3986C15.745 27.9183 15.9558 28.5179 15.9533 29.1776C15.9511 29.7199 15.493 30.0532 15.0258 29.993C14.5919 29.9372 14.1447 29.989 13.7036 29.9861C13.4504 29.9846 13.1977 29.966 12.9445 29.9606C12.549 29.9522 12.1536 29.9493 11.7581 29.9423C11.1294 29.9307 10.5007 29.9164 9.87203 29.9051C9.44144 29.8975 9.01084 29.8971 8.58025 29.8854C8.16377 29.8741 7.7473 29.8519 7.33083 29.8366C7.27832 29.8347 7.22472 29.8413 7.17293 29.8515C6.55764 29.9755 6.1437 29.7341 6.02383 29.1342C5.96118 28.8209 6.03035 28.4952 6.13501 28.1951C6.22229 27.9457 6.35302 27.7108 6.47688 27.476C6.74378 26.9705 7.20516 26.6736 7.64807 26.3462C8.02543 26.0675 8.45893 25.9355 8.8725 25.7492C8.87793 25.7466 8.88373 25.7448 8.88952 25.743C9.18178 25.6496 9.17272 25.6496 9.172 25.3287C9.17091 24.9111 9.18902 24.4939 9.19373 24.0763C9.20061 23.4921 9.20966 22.9075 9.20459 22.3233C9.20169 21.9874 9.16005 21.6523 9.1586 21.3164C9.15679 20.8879 9.18286 20.4594 9.18829 20.0309C9.193 19.6487 9.18105 19.2665 9.18467 18.8847C9.18793 18.5317 9.20713 18.1786 9.21002 17.8253C9.21256 17.524 9.19771 17.2228 9.19807 16.9216C9.19916 16.3778 9.20568 15.8341 9.21002 15.2903C9.21437 14.7448 9.21727 14.1996 9.22379 13.654C9.22777 13.3152 9.26688 12.9742 9.23827 12.6387C9.19119 12.0902 9.25819 11.5425 9.2093 10.9943C9.18069 10.6723 9.2169 10.3445 9.22523 10.0192C9.23646 9.58957 9.25819 9.16033 9.25819 8.73073C9.25819 8.17094 9.2361 7.61151 9.2332 7.05172C9.23103 6.6068 9.24805 6.16188 9.24805 5.71696C9.24805 5.52915 9.26543 5.32602 9.20206 5.15827C9.15027 5.02187 9.05104 4.87345 8.86091 4.82494C8.77762 4.80379 8.7175 4.67469 8.6563 4.58753C8.56685 4.46062 8.48391 4.32824 8.40171 4.19622C8.38143 4.16377 8.37418 4.12292 8.36259 4.08536C8.33833 4.00695 8.32855 3.91979 8.28799 3.85087C8.21484 3.72541 8.20759 3.58902 8.18623 3.45263C8.14204 3.17182 8.06454 2.89174 8.10474 2.60619C8.12864 2.43552 8.20035 2.27214 8.24164 2.10329C8.26083 2.02379 8.24055 1.93079 8.27097 1.85786C8.31008 1.76413 8.38613 1.68718 8.43792 1.59784C8.47196 1.53949 8.48355 1.46801 8.51868 1.41039C8.56938 1.32687 8.62624 1.24446 8.69143 1.17225C8.8323 1.0158 8.96521 0.84549 9.13108 0.720767C9.2361 0.64163 9.29404 0.500132 9.47041 0.487368C9.58992 0.478615 9.69386 0.338211 9.81771 0.28752C10.1715 0.140916 10.5228 -0.0177221 10.9241 0.00160622C11.1493 0.0125468 11.3648 0.0450038 11.5785 0.118306C11.706 0.162068 11.8468 0.164986 11.9787 0.198172C12.0406 0.213489 12.0967 0.255063 12.1539 0.287155C12.4187 0.434853 12.691 0.569787 12.8858 0.818867C12.9264 0.870653 13.0086 0.888522 13.0716 0.922438C13.0818 0.927909 13.0973 0.932649 13.1002 0.941037C13.1712 1.15474 13.4251 1.25503 13.4417 1.50667C13.445 1.5548 13.52 1.59419 13.5428 1.64634C13.5852 1.74298 13.6225 1.84363 13.6449 1.94611C13.6775 2.0949 13.6518 2.27542 13.7278 2.39103C13.8553 2.58395 13.6945 2.78598 13.8035 2.98036C13.8492 3.06205 13.7184 3.22725 13.7289 3.34906C13.7492 3.5872 13.5413 3.7462 13.5504 3.97924C13.5536 4.06311 13.4689 4.15064 13.4157 4.25348C13.3954 4.27281 13.3472 4.30672 13.3139 4.35195C13.2034 4.5011 13.1147 4.67068 12.9869 4.80233C12.7815 5.01385 12.7464 5.19072 12.9608 5.39714C13.1006 5.5317 13.2788 5.65059 13.4613 5.70967C13.7706 5.80959 14.0936 5.88217 14.4163 5.92082C15.0906 6.00142 15.7704 5.96276 16.4324 5.83731C16.9209 5.74468 17.4105 5.62178 17.8741 5.41355C18.0925 5.31545 18.2786 5.20604 18.4553 5.03828C18.7672 4.74216 19.1029 4.46536 19.5331 4.34246C19.7196 4.28922 19.8992 4.21191 20.0821 4.14553C20.1147 4.1335 20.1462 4.11417 20.1799 4.10979C20.4725 4.07296 20.7651 4.02227 21.0588 4.00878C21.3004 3.99783 21.5441 4.02737 21.786 4.04634C22.3459 4.0901 22.8797 4.24035 23.3907 4.4712C23.6493 4.5879 23.922 4.68928 24.1516 4.85047C24.4529 5.06199 24.7115 5.33368 25.0001 5.56453C25.4083 5.89092 25.2732 6.34422 25.2931 6.7607C25.3058 7.02327 25.3021 7.28694 25.3014 7.55024C25.3003 7.96088 25.2942 8.37188 25.2927 8.78251C25.292 8.96595 25.2967 9.14939 25.3014 9.33283C25.3112 9.71319 25.3264 10.0932 25.3322 10.4736C25.3355 10.6844 25.3228 10.8955 25.3199 11.1067C25.3159 11.3568 25.3116 11.6074 25.3126 11.8579C25.3145 12.251 25.3203 12.6445 25.3257 13.0377C25.3344 13.6474 25.3485 14.2572 25.3521 14.8669C25.3543 15.2608 25.3583 15.6561 25.3286 16.0485C25.3123 16.2677 25.1989 16.4274 24.9766 16.5543C24.7437 16.6867 24.5391 16.6794 24.3149 16.6233C24.2255 16.601 24.1487 16.5266 24.0661 16.4763C23.8836 16.3662 23.7047 16.2491 23.5171 16.1481C23.3266 16.0456 23.1336 15.9417 22.9304 15.8706C22.711 15.7936 22.4803 15.7451 22.2514 15.701C22.0446 15.6609 21.8342 15.6382 21.6242 15.6189C21.5572 15.6127 21.4876 15.6463 21.4188 15.6528C21.2892 15.6649 21.1592 15.6762 21.0291 15.6758C20.9926 15.6758 20.9556 15.635 20.919 15.6127C20.9212 15.6266 20.9234 15.6408 20.9259 15.6547L20.9256 15.6543ZM24.1339 14.8939C24.1339 14.4753 24.136 14.0657 24.1331 13.6565C24.1299 13.2054 24.1176 12.7539 24.1179 12.3028C24.1179 11.8488 24.1353 11.3951 24.1335 10.9411C24.1313 10.4097 24.1085 9.87876 24.1085 9.34741C24.1085 8.81096 24.131 8.27487 24.1317 7.73842C24.1324 7.39817 24.1161 7.05755 24.0969 6.71766C24.0926 6.64035 24.1114 6.54298 23.9904 6.49958C23.8945 6.4653 23.7905 6.40367 23.7326 6.32307C23.6171 6.16261 23.4776 6.04154 23.3034 5.95656C23.1894 5.90113 23.0767 5.84169 22.9594 5.79391C22.7957 5.72718 22.6288 5.66956 22.4629 5.60902C22.33 5.56051 22.2069 5.50071 22.054 5.49451C21.8469 5.48612 21.643 5.39677 21.4358 5.38765C21.2001 5.37708 20.9621 5.41391 20.726 5.43689C20.6789 5.44163 20.6322 5.49925 20.5899 5.49414C20.3784 5.46898 20.2013 5.56817 20.0354 5.66445C19.8206 5.78881 19.6345 5.96276 19.4241 6.09587C19.0906 6.30666 18.757 6.52183 18.4043 6.69542C18.1508 6.82014 17.8676 6.88615 17.5949 6.9682C17.3175 7.05172 17.0375 7.12611 16.7569 7.19722C16.6602 7.22166 16.558 7.22421 16.4584 7.23661C16.2415 7.26396 16.0253 7.3008 15.8077 7.31575C15.6556 7.32632 15.4995 7.2873 15.3492 7.30517C15.0837 7.3369 14.8219 7.33544 14.5568 7.30481C14.4319 7.29022 14.304 7.30225 14.1776 7.30225C14.119 7.27818 14.0599 7.27089 14.0005 7.26579C13.9335 7.25995 13.864 7.26579 13.7995 7.24974C13.6963 7.22348 13.5967 7.18227 13.495 7.14945C13.3537 7.1035 13.1904 7.14216 13.0651 7.01889C13.0332 6.98717 12.9065 6.99446 12.8815 7.02765C12.8402 7.08308 12.8301 7.17534 12.8355 7.24974C12.846 7.39744 12.8938 7.54368 12.8934 7.69065C12.8931 7.92259 12.8398 8.15635 12.8561 8.38574C12.8782 8.69244 12.7761 9.00133 12.8978 9.30949C12.9413 9.41999 12.8934 9.56659 12.888 9.69678C12.88 9.89955 12.8638 10.1027 12.8674 10.3054C12.871 10.4987 12.9076 10.6916 12.9076 10.8846C12.9076 11.1559 12.8898 11.4272 12.8732 11.6978C12.8688 11.7689 12.9829 11.8182 12.8891 11.9144C12.8471 11.9578 12.8819 12.0775 12.8819 12.1624C12.8909 12.1624 12.8996 12.1624 12.9087 12.1624C12.917 12.1343 12.9253 12.1066 12.934 12.0785C12.9318 12.1675 12.8934 12.2507 12.8916 12.3346C12.8862 12.5957 12.8924 12.8568 12.8978 13.1179C12.9029 13.3553 12.9119 13.5927 12.9206 13.8298C12.9268 13.9946 12.9833 14.1777 12.9311 14.3203C12.8558 14.5263 12.9101 14.7247 12.9054 14.9205C12.9003 15.1171 12.9061 15.3126 12.8873 15.511C12.8786 15.6032 12.9391 15.7258 13.0064 15.798C13.2987 16.1112 13.7065 16.1999 14.0943 16.3107C14.3058 16.3713 14.5336 16.3837 14.7553 16.3972C15.0175 16.4132 15.2818 16.4194 15.544 16.4063C15.766 16.3953 15.9887 16.3625 16.2068 16.3177C16.4317 16.2717 16.6555 16.2119 16.8717 16.1353C17.1386 16.0405 17.4174 15.9548 17.655 15.8067C18.0526 15.5587 18.4206 15.2619 18.8041 14.9902C18.9385 14.895 19.0782 14.8068 19.222 14.7269C19.6034 14.515 20.0213 14.4155 20.4468 14.3469C20.7152 14.3039 20.986 14.2404 21.2551 14.2433C21.6256 14.2473 21.995 14.3188 22.3658 14.3363C23.0029 14.3662 23.5609 14.6357 24.1335 14.8917L24.1339 14.8939ZM11.6687 25.4767C11.6687 24.9833 11.6712 24.495 11.6679 24.0063C11.665 23.6158 11.6513 23.2252 11.6491 22.8346C11.6458 22.2329 11.6513 21.6311 11.6466 21.0298C11.6444 20.7362 11.6194 20.4426 11.6194 20.149C11.6194 19.8033 11.6415 19.4576 11.6411 19.1122C11.6404 18.7793 11.6172 18.4467 11.6147 18.1141C11.6114 17.7173 11.6252 17.3205 11.6205 16.9241C11.6161 16.5401 11.5904 16.1568 11.5872 15.7728C11.5839 15.4267 11.6082 15.0803 11.6024 14.7342C11.5919 14.1055 11.5625 13.4771 11.5528 12.8488C11.5477 12.5286 11.5749 12.208 11.5745 11.8875C11.5741 11.401 11.564 10.9148 11.5546 10.4283C11.5455 9.96227 11.5285 9.4962 11.5216 9.03014C11.5202 8.93204 11.5604 8.83284 11.5589 8.73474C11.5524 8.31462 11.531 7.89487 11.5274 7.47475C11.5227 6.92225 11.5307 6.36939 11.5318 5.81689C11.5318 5.72608 11.5354 5.64585 11.3905 5.6608C11.2 5.6805 11.0063 5.66372 10.814 5.66445C10.7039 5.66481 10.5558 5.68852 10.5605 5.80121C10.5717 6.08274 10.5587 6.361 10.55 6.64144C10.5388 6.993 10.5967 7.34602 10.605 7.69867C10.6137 8.0608 10.6043 8.42403 10.5923 8.78616C10.5847 9.01847 10.5525 9.24968 10.5406 9.48198C10.5304 9.68511 10.5319 9.88861 10.5308 10.0921C10.5293 10.3437 10.529 10.5954 10.533 10.847C10.5333 10.8733 10.584 10.9002 10.5826 10.9247C10.5699 11.1216 10.5482 11.3182 10.5344 11.5155C10.5326 11.5432 10.559 11.5727 10.5703 11.6019C10.5786 11.6231 10.5927 11.6621 10.5884 11.6643C10.4899 11.7182 10.5413 11.7744 10.5706 11.8451C10.5898 11.8915 10.5623 11.9564 10.5598 12.0133C10.5511 12.2018 10.5416 12.3907 10.5395 12.5793C10.5391 12.6103 10.5967 12.6606 10.5895 12.6697C10.4631 12.8207 10.5923 12.9917 10.5474 13.1547C10.5083 13.2973 10.5435 13.4611 10.5485 13.6153C10.555 13.8046 10.5637 13.9935 10.5724 14.1824C10.5753 14.2419 10.5916 14.302 10.5855 14.36C10.5684 14.5252 10.4906 14.7061 10.5348 14.8502C10.584 15.0114 10.5156 15.1408 10.521 15.2845C10.5272 15.4534 10.4931 15.6233 10.4996 15.7921C10.5091 16.0449 10.5503 16.2969 10.5561 16.5492C10.5616 16.787 10.5344 17.0255 10.5297 17.2637C10.5279 17.349 10.5616 17.4354 10.5569 17.5204C10.5514 17.6181 10.5094 17.714 10.5065 17.8114C10.5036 17.9022 10.5442 17.9941 10.5424 18.0849C10.5398 18.2231 10.5062 18.3614 10.5069 18.4992C10.5076 18.6247 10.5489 18.7497 10.5489 18.8748C10.5489 18.9715 10.4957 19.0681 10.4967 19.1644C10.5004 19.4769 10.5246 19.7895 10.529 20.102C10.5326 20.3708 10.517 20.6399 10.5138 20.9091C10.5101 21.2179 10.4794 21.525 10.5522 21.8357C10.5851 21.9769 10.4732 22.1519 10.5047 22.2945C10.5565 22.5301 10.5333 22.7555 10.5163 22.9863C10.513 23.029 10.5373 23.0731 10.5431 23.1172C10.5478 23.1522 10.5489 23.1894 10.5431 23.2244C10.5304 23.301 10.5033 23.3762 10.5 23.4527C10.4975 23.5085 10.5377 23.5662 10.5348 23.6216C10.5282 23.7441 10.4975 23.8656 10.4946 23.9881C10.492 24.0935 10.5177 24.1989 10.5254 24.3046C10.5388 24.4895 10.5916 24.6865 10.546 24.856C10.5043 25.0107 10.538 25.1445 10.5388 25.2875C10.5391 25.4078 10.5931 25.4771 10.7213 25.4767C11.0269 25.4753 11.3329 25.4764 11.6694 25.4764L11.6687 25.4767ZM9.60622 27.0008C9.44506 26.8636 9.24733 27.0197 9.05249 27.0784C8.86019 27.1364 8.67911 27.24 8.50202 27.3392C8.06165 27.5854 7.6593 27.8764 7.44853 28.3625C7.40181 28.4701 7.43404 28.5492 7.56586 28.5587C7.68356 28.5671 7.8009 28.5828 7.9186 28.5842C8.35354 28.5901 8.78848 28.5871 9.22342 28.5955C9.70726 28.605 10.1904 28.6258 10.6742 28.6371C11.1193 28.6473 11.5644 28.6502 12.0091 28.659C12.3129 28.6652 12.6168 28.6758 12.9206 28.6849C13.1202 28.6911 13.3197 28.7024 13.5192 28.7042C13.86 28.7075 14.2004 28.7049 14.5879 28.7049C14.4985 28.5033 14.4561 28.2921 14.333 28.1535C14.0516 27.837 13.7213 27.5671 13.3425 27.3698C13.1263 27.2571 12.9101 27.1182 12.678 27.0726C12.5045 27.0383 12.3433 26.8443 12.1398 26.9858C12.1239 26.9968 12.084 26.9749 12.0562 26.9665C11.8831 26.9132 11.7136 26.8301 11.5368 26.8108C10.9885 26.7499 10.4392 26.7809 9.89449 26.8658C9.80829 26.8793 9.72971 26.9413 9.60658 27.0004L9.60622 27.0008ZM11.1696 1.4443C10.663 1.46035 10.3254 1.50594 10.0441 1.75392C9.73333 2.0278 9.51169 2.33377 9.48815 2.77577C9.46425 3.22871 9.61817 3.60689 9.91223 3.91724C10.1752 4.19477 10.5297 4.28083 10.9147 4.28958C11.2142 4.29651 11.4637 4.19331 11.7223 4.07187C12.0804 3.90375 12.2173 3.56459 12.3473 3.23892C12.414 3.07153 12.3567 2.85746 12.3792 2.6671C12.415 2.36222 12.2325 2.12627 12.0793 1.93079C11.8255 1.60659 11.4557 1.41878 11.1696 1.44394V1.4443Z" fill="currentColor"/>
</svg>
