<svg viewBox="0 0 32 32" fill="none" xmlns="http://www.w3.org/2000/svg">
    <path d="M5.13717 26.3022C4.91165 26.3022 4.70378 26.2987 4.49591 26.303C3.84837 26.3158 3.23025 26.2084 2.63605 25.9353C2.2509 25.7582 1.89556 25.5462 1.57905 25.2715C1.43942 25.1502 1.33195 24.991 1.18684 24.8774C0.896602 24.65 0.741287 24.3272 0.559301 24.0292C0.405947 23.7782 0.304365 23.4926 0.207097 23.2132C0.126302 22.9807 0.0584495 22.737 0.0341325 22.4937C-0.0015586 22.1376 1.02444e-05 21.7776 1.02444e-05 21.4192C1.02444e-05 21.227 0.0105999 21.0309 0.0517819 20.8441C0.118458 20.5411 0.21651 20.2447 0.296913 19.9444C0.466348 19.3124 0.822866 18.7793 1.24606 18.2972C1.53198 17.9717 1.8532 17.6528 2.21874 17.425C2.68312 17.1359 3.17103 16.8577 3.73698 16.7775C4.03428 16.7353 4.32804 16.6473 4.62612 16.6334C5.1713 16.6082 5.71019 16.6524 6.23301 16.8465C6.60678 16.9852 6.94761 17.1724 7.2806 17.3828C7.50808 17.5265 7.52024 17.506 7.69085 17.3057C7.89951 17.0604 8.1313 16.8337 8.35722 16.6035C8.56273 16.3943 8.77296 16.1893 8.98357 15.9851C9.24047 15.7356 9.49972 15.4891 9.7578 15.2408C10.0202 14.9885 10.2826 14.7367 10.5438 14.4832C10.8579 14.1787 11.1701 13.8726 11.4843 13.568C11.8463 13.217 12.2075 12.8655 12.5719 12.5175C12.9472 12.1591 13.3277 11.8061 13.7022 11.4469C13.9082 11.2493 14.105 11.0432 14.3078 10.8425C14.6361 10.5181 14.9648 10.1934 15.2962 9.87221C15.5221 9.65328 15.7551 9.44133 15.9822 9.22318C16.3116 8.90661 16.6321 8.58073 16.9694 8.27307C17.0843 8.16807 17.0717 8.11343 16.989 7.99486C16.7125 7.59963 16.4258 7.20789 16.3787 6.70145C16.3505 6.39611 16.2453 6.09233 16.2532 5.7897C16.2681 5.20732 16.3983 4.6447 16.6756 4.11694C16.8741 3.73876 17.109 3.39545 17.3843 3.06571C17.6651 2.72937 17.9711 2.41513 18.3276 2.18031C18.7837 1.87963 19.2877 1.6421 19.7901 1.41852C20.362 1.16395 20.9801 1.04383 21.6021 1.0074C22.0453 0.981443 22.4964 1.02833 22.94 1.07715C23.5561 1.14457 24.1205 1.37512 24.6578 1.6762C25.1128 1.93116 25.4764 2.27912 25.7874 2.6914C26.1235 3.13662 26.364 3.62872 26.4487 4.17158C26.5052 4.53426 26.4651 4.91245 26.4608 5.28365C26.4597 5.37936 26.4302 5.47468 26.4189 5.53939C26.8746 5.52699 27.3288 5.48243 27.7783 5.51149C28.1924 5.53823 28.618 5.5948 29.0086 5.72577C29.9244 6.03227 30.6689 6.579 31.2062 7.39427C31.4905 7.82553 31.6709 8.28586 31.8286 8.77409C31.9804 9.24488 31.9945 9.71761 32 10.1899C32.0059 10.703 31.8745 11.2048 31.72 11.6992C31.538 12.2816 31.2572 12.8124 30.9105 13.3072C30.7179 13.582 30.4849 13.8334 30.2441 14.0694C29.995 14.3135 29.7287 14.5468 29.4428 14.7467C29.1541 14.9482 28.8412 15.1218 28.5223 15.2729C28.2085 15.4213 27.8818 15.5601 27.5457 15.6426C26.9695 15.7844 26.3796 15.8712 25.7823 15.7786C25.4662 15.7294 25.1493 15.6755 24.8406 15.5949C24.2417 15.4388 23.7185 15.1323 23.2557 14.732C23.1502 14.6406 23.1094 14.6762 23.0372 14.7463C22.8129 14.9637 22.5823 15.1749 22.3603 15.3946C22.1151 15.6372 21.8794 15.8894 21.6351 16.1324C21.3888 16.3773 21.1366 16.6163 20.8867 16.8577C20.6616 17.0751 20.409 17.2723 20.2243 17.5196C20.1561 17.611 20.058 17.6602 19.9949 17.7551C19.9129 17.8784 19.7674 17.9586 19.6599 18.0678C19.4222 18.31 19.1951 18.5623 18.9559 18.8025C18.821 18.9377 18.6645 19.052 18.5292 19.1869C18.3844 19.3306 18.257 19.4911 18.1142 19.6368C18.0201 19.7328 17.9083 19.8111 17.8118 19.9049C17.5945 20.1172 17.3941 20.3489 17.1627 20.5446C17.0133 20.6709 16.8933 20.8143 16.7627 20.9542C16.4516 21.2878 16.0853 21.5703 15.7578 21.89C15.4899 22.1515 15.2499 22.441 14.9895 22.7099C14.8593 22.8443 14.7083 22.9586 14.5698 23.0857C14.3521 23.2857 14.1266 23.479 13.9266 23.6952C13.8544 23.7731 13.8093 23.8696 13.7101 23.9328C13.6697 23.9587 13.645 24.0878 13.674 24.1292C14.0823 24.7201 14.247 25.3878 14.3353 26.0833C14.4153 26.7141 14.3219 27.3267 14.1278 27.9242C14.0384 28.1993 13.9254 28.4737 13.7768 28.7213C13.6132 28.9937 13.4101 29.2467 13.199 29.4869C13.0037 29.7093 12.7853 29.9143 12.5586 30.1057C12.4146 30.227 12.2413 30.3169 12.0738 30.408C11.8812 30.5122 11.689 30.6292 11.482 30.692C11.1039 30.8071 10.7191 30.9183 10.3292 30.9706C9.97704 31.0179 9.61307 30.9973 9.25498 30.9842C8.83061 30.9687 8.43683 30.8195 8.03835 30.6862C7.64888 30.5556 7.31355 30.3371 6.9837 30.1108C6.77857 29.9701 6.59894 29.7895 6.42048 29.6148C6.25183 29.4497 6.07965 29.2823 5.94513 29.0913C5.79922 28.884 5.67685 28.6554 5.57606 28.4229C5.43564 28.0986 5.29406 27.7692 5.2113 27.4282C5.14698 27.164 5.17247 26.8784 5.15718 26.6025C5.15169 26.5022 5.14423 26.4018 5.13757 26.3022H5.13717ZM18.639 8.21224C18.841 8.32965 18.8053 8.5075 18.7072 8.62878C18.5029 8.88065 18.2695 9.11158 18.033 9.33555C17.7581 9.59632 17.4647 9.83811 17.1843 10.0931C17.1062 10.164 17.0415 10.25 16.9764 10.3333C16.8737 10.4643 16.727 10.5457 16.6093 10.658C16.301 10.9525 16.0045 11.259 15.6982 11.5558C15.2727 11.9677 14.8408 12.373 14.4149 12.7845C14.0623 13.1251 13.7168 13.4735 13.3638 13.8133C13.2124 13.959 13.0457 14.0892 12.8923 14.2329C12.7327 14.3825 12.5766 14.5359 12.4272 14.6956C12.3691 14.7576 12.3464 14.8541 12.2848 14.9102C11.9734 15.1939 11.6502 15.4647 11.3388 15.7488C11.0992 15.9673 10.8713 16.1986 10.6375 16.4238C10.2532 16.7938 9.87036 17.165 9.48325 17.532C9.27263 17.7315 9.05731 17.9268 8.83924 18.1182C8.68589 18.2531 8.5243 18.379 8.32584 18.5421C8.30701 18.4894 8.28701 18.434 8.2674 18.3782C8.15876 18.6239 7.74145 18.4301 7.78577 18.7669C7.64614 18.8641 7.51593 18.9637 7.37551 19.0474C7.32061 19.0803 7.22765 19.1071 7.17862 19.083C7.02998 19.0106 6.89114 18.9164 6.75425 18.8219C6.59659 18.7126 6.45774 18.5696 6.2887 18.4844C5.76392 18.2205 5.22424 18.0446 4.60965 18.1116C4.17391 18.1589 3.76365 18.2589 3.38713 18.4607C2.87138 18.7378 2.44975 19.1226 2.11167 19.6085C1.84457 19.9925 1.67082 20.4075 1.56022 20.8492C1.47982 21.1692 1.45589 21.4963 1.47237 21.8349C1.49394 22.286 1.56453 22.718 1.75907 23.121C2.02656 23.6743 2.40543 24.1381 2.9561 24.4504C3.4797 24.7472 4.04173 24.8678 4.63828 24.8178C5.10462 24.7786 5.52899 24.5957 5.95611 24.4171C6.2687 24.2865 6.43147 24.3691 6.5103 24.5086C6.63698 24.7337 6.76171 24.9619 6.91388 25.17C7.00841 25.2994 6.97075 25.3827 6.89741 25.4904C6.82564 25.5954 6.74013 25.7039 6.71111 25.8229C6.56952 26.4068 6.61816 26.9853 6.82642 27.546C6.99939 28.0118 7.26844 28.4252 7.65281 28.7464C7.88146 28.9375 8.13287 29.1169 8.40193 29.2436C8.82591 29.4439 9.2793 29.5768 9.76054 29.5292C10.0457 29.5009 10.33 29.4559 10.6128 29.4083C11.1101 29.3246 11.5161 29.0471 11.8753 28.7306C12.1824 28.4601 12.4327 28.1327 12.6045 27.7386C12.828 27.2256 12.9163 26.7056 12.8574 26.1623C12.7919 25.559 12.5131 25.0363 12.1562 24.5516C12.0361 24.3888 11.995 24.2098 12.0538 24.0079C11.9671 23.9289 11.8777 23.8433 11.973 23.7154C12.135 23.4984 12.2836 23.2682 12.4688 23.0718C12.8229 22.6959 13.1959 22.3379 13.5662 21.9768C13.8933 21.6579 14.2294 21.3486 14.5561 21.0294C14.682 20.9061 14.7851 20.7604 14.911 20.6372C15.0977 20.4543 15.3001 20.2866 15.4872 20.1044C15.9394 19.6639 16.3857 19.2179 16.8364 18.7758C17.0694 18.5472 17.3082 18.3247 17.5404 18.0953C17.7581 17.8799 17.9671 17.6563 18.1852 17.4413C18.4672 17.1638 18.7555 16.8926 19.0387 16.6163C19.2461 16.4141 19.4493 16.2072 19.6568 16.0049C20.0106 15.6596 20.369 15.3194 20.7197 14.9715C20.9801 14.713 21.2268 14.441 21.4876 14.1833C21.8983 13.7773 22.3136 13.3766 22.7317 12.9779C22.7921 12.9205 22.8733 12.8802 22.9513 12.8469C23.0219 12.8167 23.1012 12.807 23.1674 12.7903C23.2055 12.8085 23.2467 12.8283 23.2882 12.8473C23.4236 12.9097 23.6016 12.9372 23.6871 13.0399C23.9734 13.3836 24.2719 13.6982 24.6692 13.9264C25.1873 14.224 25.7443 14.3604 26.3294 14.3438C26.6703 14.3341 27.0107 14.2407 27.3468 14.1655C27.8685 14.0485 28.3172 13.7784 28.7325 13.4587C29.1067 13.1705 29.4585 12.857 29.7083 12.4474C29.8276 12.2517 29.9907 12.0785 30.0848 11.8728C30.2104 11.5988 30.301 11.3074 30.3833 11.0172C30.5045 10.5906 30.5351 10.1566 30.5014 9.71063C30.4771 9.38941 30.4296 9.0802 30.2864 8.79462C30.1417 8.50595 29.9962 8.21069 29.8029 7.95379C29.5573 7.62792 29.2161 7.41325 28.8392 7.23114C28.4921 7.06336 28.1332 6.97307 27.7641 6.94014C27.3292 6.90139 26.8887 6.94014 26.4679 7.07421C26.1016 7.19045 25.7176 7.25477 25.416 7.54035C25.2195 7.72672 25.0461 7.69146 24.8963 7.55391C24.7143 7.3869 24.5186 7.23424 24.3253 7.07963C24.2064 6.9847 24.1539 6.89906 24.2084 6.72702C24.2582 6.56932 24.3649 6.4771 24.4511 6.3562C24.5939 6.15626 24.7151 5.93927 24.8261 5.72034C24.9849 5.40687 25.0273 5.06511 25.0202 4.71832C25.0132 4.36493 24.9183 4.03364 24.732 3.7314C24.5206 3.38887 24.2343 3.11995 23.8785 2.92776C23.7879 2.87894 23.6557 2.88902 23.584 2.82586C23.3141 2.5891 22.9729 2.54416 22.6493 2.49882C21.8763 2.39033 21.1107 2.46705 20.3839 2.7596C20.0266 2.90335 19.6858 3.09128 19.3485 3.27921C19.185 3.37027 19.0598 3.53069 18.8947 3.61593C18.7316 3.7004 18.6453 3.85423 18.5409 3.9728C18.2299 4.32696 17.9734 4.72413 17.8314 5.18562C17.7244 5.5328 17.6946 5.89161 17.7624 6.2326C17.8644 6.74601 18.1456 7.17766 18.548 7.5326C18.8728 7.81856 18.8637 7.82863 18.6402 8.21146L18.639 8.21224Z"
          fill="currentColor"/>
    <path d="M9.57659 19.2767C9.60601 19.2415 9.62601 19.2178 9.6566 19.181C9.60718 19.176 9.56796 19.1833 9.54521 19.1678C9.33656 19.0253 9.28871 18.8579 9.38676 18.5952C9.41304 18.525 9.44991 18.4491 9.50442 18.4002C9.99586 17.9612 10.4936 17.5296 10.9862 17.0925C11.3215 16.7945 11.6518 16.4907 11.9844 16.1901C12.1966 15.9982 12.3974 15.7917 12.6252 15.6208C12.7806 15.5046 12.9688 15.4248 13.1524 15.3546C13.2943 15.3004 13.3477 15.4631 13.4379 15.5275C13.505 15.5751 13.5469 15.6662 13.583 15.7456C13.6313 15.8502 13.6626 15.9626 13.7042 16.0792C13.7807 16.1033 13.8756 16.1335 13.9803 16.1664C13.8842 16.3675 13.8419 16.6481 13.7003 16.7108C13.4469 16.8236 13.3049 17.041 13.0884 17.1777C13.0131 17.2254 12.9853 17.3405 12.9174 17.4067C12.8617 17.461 12.7696 17.478 12.71 17.53C12.4507 17.7559 12.1989 17.9903 11.9412 18.2177C11.5463 18.5657 11.1501 18.9121 10.7517 19.2558C10.6234 19.3662 10.4908 19.4736 10.35 19.5673C10.2645 19.6243 10.1606 19.6569 10.061 19.689C10.0394 19.696 9.98253 19.6603 9.97468 19.6344C9.91977 19.4577 9.7774 19.3221 9.5762 19.2767H9.57659Z"
          fill="currentColor"/>
    <path d="M15.7787 14.679C15.7116 14.8019 15.6445 14.9247 15.5751 15.0514C15.5669 15.0258 15.5586 14.9999 15.55 14.9739C15.539 14.9762 15.5221 14.9751 15.5182 14.9817C15.3633 15.239 14.9985 15.3025 14.7056 15.2091C14.3969 15.1111 14.2965 14.8581 14.1965 14.6302C14.1298 14.4783 14.2247 14.2726 14.2957 14.0893C14.391 13.8432 14.5918 13.7595 14.7911 13.7026C15.0825 13.6197 15.3574 13.7088 15.5849 13.92C15.7253 14.0505 15.8049 14.3838 15.7379 14.5713C15.7261 14.6043 15.7363 14.6446 15.7363 14.6818C15.7504 14.6806 15.7645 14.6798 15.7787 14.6787V14.679Z"
          fill="currentColor"/>
</svg>
