<svg viewBox="0 0 32 32" fill="none" xmlns="http://www.w3.org/2000/svg">
    <path d="M18.616 3.02943C18.6709 2.97039 18.7318 2.91563 18.779 2.85131C18.8086 2.81106 18.818 2.75697 18.843 2.69198C18.9363 2.72827 19.0312 2.71573 19.1023 2.57719C19.14 2.50363 19.2468 2.46405 19.3064 2.406C19.365 2.3331 19.4166 2.25327 19.4839 2.18928C19.6008 2.07779 19.7308 1.97949 19.849 1.86964C20.1202 1.61763 20.3883 1.36232 20.6567 1.10767C20.7433 1.02553 20.8244 0.937791 20.9137 0.858624C20.9814 0.79826 21.0629 0.75208 21.1293 0.690396C21.2478 0.580553 21.3563 0.460154 21.4758 0.35163C21.5223 0.309408 21.5893 0.25729 21.6436 0.260919C21.7655 0.268836 21.8649 0.285658 21.8911 0.124027C21.8942 0.104565 22.0316 0.0996176 22.1067 0.100277C22.1461 0.100607 22.1852 0.128315 22.2172 0.14085C22.2313 0.102256 22.2431 0.0313367 22.2606 0.0300172C22.3849 0.0204513 22.5102 0.0247395 22.6355 0.0247395C22.6395 0.0392533 22.6432 0.0534372 22.6473 0.0679511C22.6624 0.0438713 22.6779 0.0197916 22.6904 0C22.754 0.0237499 22.8191 0.0659719 22.8861 0.0692705C23.0043 0.0748781 23.0339 0.177464 23.0309 0.2342C23.0259 0.335797 23.044 0.387585 23.1353 0.442012C23.1922 0.475987 23.2155 0.56472 23.2596 0.638278C23.3034 0.63366 23.365 0.627393 23.3775 0.626073C23.4425 0.841802 23.5024 1.04137 23.5637 1.24489C23.6149 1.22444 23.6597 1.20663 23.7167 1.18387C23.7264 1.22906 23.7335 1.26336 23.7429 1.3069C23.7887 1.27953 23.8335 1.25281 23.8612 1.23664C24.0387 1.41972 24.2104 1.59619 24.3913 1.78256C24.3418 1.7974 24.3155 1.80565 24.2866 1.81423C24.2963 1.83303 24.3007 1.85051 24.3058 1.85051C24.6456 1.86206 24.7914 2.11671 24.9582 2.34629C24.9966 2.3994 25.0326 2.48285 25.0831 2.49407C25.3202 2.54718 25.328 2.78204 25.4577 2.91761C25.4836 2.94499 25.5041 2.97731 25.527 3.00733C25.5193 3.01327 25.5115 3.0192 25.5045 3.0258C25.5045 3.0258 25.5095 3.0324 25.5122 3.0357C25.5173 3.02811 25.5223 3.02085 25.5274 3.01327C25.5388 3.01986 25.5506 3.02646 25.5621 3.03273C25.6897 3.10959 25.6655 3.20788 25.6005 3.30915C25.7726 3.46089 25.7776 3.49387 25.6655 3.71224C25.6557 3.73137 25.6453 3.75347 25.6453 3.77392C25.6459 3.88344 25.6473 3.88344 25.5456 3.87882C25.5136 3.99889 25.5978 4.14567 25.4523 4.23804C25.4438 4.24331 25.4334 4.2608 25.4354 4.26376C25.5614 4.43067 25.3499 4.52897 25.3462 4.67147C25.3452 4.70545 25.2791 4.73579 25.2478 4.77175C25.1916 4.83541 25.1367 4.90006 25.0855 4.96735C25.0147 5.06005 24.9925 5.17055 24.8618 5.24048C24.7221 5.31503 24.6331 5.47963 24.5179 5.60101C24.4843 5.63664 24.4368 5.66039 24.3873 5.67062C24.3381 5.7323 24.2967 5.8019 24.2381 5.85336C24.173 5.91075 24.0882 5.94605 24.0201 6.0008C23.9662 6.04435 23.9272 6.10471 23.8767 6.1532C23.7345 6.29009 23.5931 6.42764 23.4455 6.55893C23.3755 6.62127 23.2374 6.66118 23.2263 6.72683C23.1976 6.89736 23.0329 6.87592 22.9565 6.96432C22.9272 6.9983 22.9342 7.06229 22.9285 7.09231C22.849 7.15168 22.7823 7.20149 22.7005 7.26285C22.6688 7.31529 22.6402 7.42877 22.5728 7.45845C22.4428 7.51552 22.365 7.58941 22.3017 7.71508C22.2667 7.78402 22.1454 7.81008 22.0656 7.8589C22.0158 7.88958 21.9292 7.92784 21.9299 7.96116C21.9336 8.11586 21.7992 8.13038 21.7167 8.20097C21.6513 8.25704 21.6109 8.3405 21.5499 8.40284C21.4573 8.49751 21.3532 8.58097 21.2603 8.67564C21.1848 8.75216 21.1242 8.84287 21.0471 8.91775C21.0036 8.95965 20.9403 8.98175 20.8861 9.01275C20.8773 9.00121 20.8686 8.98966 20.8601 8.97812C20.85 9.02166 20.8403 9.06553 20.8292 9.11369C20.7914 9.09687 20.7642 9.08466 20.7642 9.08466C20.686 9.19187 20.6149 9.28918 20.5398 9.39209C20.521 9.35647 20.5072 9.33041 20.5109 9.33766C20.3337 9.49633 20.1471 9.65334 19.973 9.82289C19.8534 9.93933 19.7537 10.0752 19.6405 10.1986C19.5722 10.2728 19.4937 10.3381 19.4226 10.41C19.2141 10.6211 19.0087 10.8352 18.7975 11.0437C18.7783 11.0628 18.7264 11.05 18.6853 11.0523C18.6789 11.0988 18.6702 11.1615 18.6594 11.237C18.6193 11.2202 18.5887 11.2073 18.5422 11.1878C18.5493 11.2357 18.554 11.27 18.553 11.2607C18.4395 11.366 18.3468 11.4567 18.2492 11.5415C18.1229 11.6506 17.9915 11.7539 17.8642 11.8617C17.7999 11.9162 17.7338 11.9699 17.6803 12.0336C17.6628 12.0544 17.6816 12.1049 17.6843 12.153C17.4725 12.1685 17.3856 12.3483 17.2525 12.4726C17.0949 12.6201 16.9278 12.7576 16.7706 12.9054C16.7035 12.9684 16.6513 13.0463 16.5897 13.1099C16.395 13.3108 16.2044 13.5157 16.0043 13.7109C15.9255 13.7878 15.8255 13.8435 15.7409 13.9046C15.6661 13.9745 15.5914 14.0421 15.519 14.1124C15.487 14.1434 15.46 14.1793 15.4297 14.212C15.3819 14.2638 15.3256 14.3096 15.2859 14.367C15.2337 14.4429 15.1444 14.4822 15.0925 14.5425C14.9659 14.6896 14.7372 14.7513 14.7045 14.9763C14.3913 15.1 14.2764 15.4275 14.0242 15.6126C13.9036 15.701 13.748 15.7541 13.6506 15.8603C13.5577 15.9616 13.427 15.9675 13.3307 16.0694C13.3384 16.0876 13.3543 16.1255 13.3711 16.1658C13.3253 16.1806 13.2798 16.1951 13.2357 16.2096C13.2276 16.3683 13.2835 16.4676 13.4539 16.4979C13.494 16.5049 13.5122 16.5956 13.556 16.6259C13.7055 16.7301 13.8709 16.8136 14.0137 16.9254C14.2364 17.0993 14.4479 17.2873 14.6601 17.4736C14.7547 17.5564 14.8386 17.6511 14.9309 17.7369C14.9619 17.7656 15.0016 17.7953 15.0414 17.8032C15.0983 17.8141 15.1842 17.7827 15.1192 17.8919C15.1181 17.8936 15.1252 17.9008 15.1296 17.9041C15.2074 17.9638 15.2781 18.0367 15.3644 18.0799C15.5594 18.1779 15.7204 18.3023 15.8433 18.486C15.8921 18.5589 16.0124 18.5826 16.0925 18.639C16.1377 18.6707 16.1673 18.7235 16.2293 18.7443C16.2751 18.8277 16.3212 18.9108 16.3731 19.0049C16.4085 18.9986 16.4573 18.9897 16.5058 18.9808C16.5105 18.9887 16.5149 18.9966 16.5196 19.0045C16.491 19.023 16.4627 19.0415 16.4054 19.0787H16.5267C16.5658 19.1325 16.5877 19.1965 16.6197 19.2018C16.8443 19.2384 16.9417 19.4485 17.1212 19.5435C17.1619 19.565 17.2084 19.5795 17.2424 19.6085C17.2741 19.6355 17.2923 19.6774 17.3145 19.7098C17.3475 19.7081 17.4058 19.6906 17.4203 19.7081C17.4476 19.7411 17.4499 19.7942 17.4674 19.8556C17.6978 19.8325 17.7749 20.0617 17.9211 20.1858C18.039 20.286 18.265 20.2926 18.2566 20.5156C18.3148 20.5126 18.3889 20.3979 18.4189 20.5621C18.4327 20.6377 18.5378 20.7254 18.621 20.7551C18.8302 20.83 18.9464 21.0005 19.0956 21.1387C19.1215 21.1625 19.1535 21.1799 19.1815 21.2014C19.2488 21.2532 19.3145 21.3069 19.3825 21.3581C19.4742 21.4267 19.5708 21.4894 19.6584 21.5626C19.7318 21.6243 19.7948 21.6978 19.8632 21.7655C19.9292 21.8308 19.972 21.9106 20.0888 21.931C20.1613 21.9436 20.2263 22.0409 20.2781 22.1115C20.3394 22.1949 20.394 22.2678 20.4971 22.2236C20.5513 22.2672 20.6021 22.3025 20.6459 22.3447C20.7557 22.4499 20.8615 22.5591 20.9703 22.6656C21.0181 22.7125 21.0632 22.7639 21.1185 22.8006C21.2266 22.8728 21.3455 22.9302 21.4513 23.0051C21.519 23.0529 21.5728 23.1202 21.6298 23.1815C21.6776 23.2333 21.7119 23.3006 21.7672 23.3415C21.8608 23.4105 21.972 23.4573 22.0659 23.5262C22.1508 23.5886 22.2327 23.6605 22.2973 23.7426C22.393 23.8637 22.5092 23.9495 22.649 24.0141C22.6887 24.0326 22.713 24.083 22.715 24.0854C22.8127 24.1427 22.8787 24.1787 22.9413 24.2196C22.9652 24.2351 22.9794 24.2641 23.0009 24.2839C23.1181 24.3901 23.2354 24.4964 23.3553 24.5996C23.3866 24.6267 23.4243 24.6517 23.4637 24.6636C23.592 24.7032 23.5927 24.7009 23.5466 24.8364C23.655 24.8968 23.7638 24.9572 23.9006 25.033C23.9113 25.1073 24.0427 25.2155 24.1643 25.2217C24.2054 25.2237 24.2532 25.2577 24.2825 25.2903C24.3566 25.3731 24.4051 25.5028 24.4957 25.54C24.5897 25.5786 24.6426 25.6426 24.7126 25.6974C24.8255 25.7854 24.9521 25.8577 25.0572 25.9533C25.2535 26.1315 25.4391 26.3211 25.6281 26.5072C25.6688 26.5474 25.8073 26.6187 25.9248 26.6728C25.9521 26.6853 25.944 26.7595 25.9713 26.7882C26.0531 26.8753 26.135 26.967 26.234 27.0323C26.3825 27.1303 26.5018 27.2497 26.5981 27.3948C26.6123 27.4159 26.6331 27.4324 26.6517 27.4519C26.4903 27.5782 26.4977 27.6488 26.6062 27.8002C26.7153 27.9526 26.7877 28.1298 26.882 28.293C26.9012 28.3264 26.9447 28.3465 26.9999 28.391C26.9939 28.4012 26.9625 28.4402 26.9467 28.4847C26.91 28.5876 26.8972 28.7024 26.8443 28.7961C26.7355 28.9881 26.6378 29.2071 26.3199 29.1645C26.3553 29.2496 26.3788 29.3064 26.4024 29.3634C26.2306 29.3951 26.1939 29.4522 26.1545 29.7454C26.1114 29.7375 26.0686 29.7296 26.0255 29.7213C26.0356 29.7444 26.0461 29.7675 26.0592 29.7965C26.01 29.8068 25.9625 29.8167 25.9164 29.8266C25.9225 29.8681 25.9289 29.9097 25.9332 29.9387C25.7894 29.9542 25.6618 29.9677 25.5055 29.9846C25.5503 30.0888 25.5786 30.1548 25.6183 30.2475C25.4344 30.2405 25.4034 30.3972 25.3169 30.5097C25.2104 30.6482 25.0589 30.738 24.8608 30.6862C24.8393 30.7719 24.7743 30.8452 24.9356 30.9237C24.7877 30.9402 24.6981 30.9501 24.5981 30.9613C24.5324 31.0972 24.458 31.2512 24.3889 31.3934C24.3266 31.4369 24.2647 31.4805 24.1865 31.5352C24.1855 31.5346 24.1586 31.5118 24.1565 31.5105C24.0979 31.5712 24.037 31.6345 23.9801 31.6932C24.0431 31.7038 24.0424 31.7799 23.9777 31.9215C23.9555 31.8773 23.9353 31.8371 23.9134 31.7932C23.8962 31.7991 23.8726 31.8001 23.8686 31.8093C23.8251 31.9123 23.7254 31.9156 23.6591 31.8786C23.5193 31.8011 23.4263 31.8338 23.3317 31.9997V31.8189C23.2936 31.8403 23.2643 31.8568 23.2411 31.87C23.1966 31.8235 23.1616 31.7622 23.1084 31.7374C23.0518 31.7107 22.9777 31.7084 22.913 31.7134C22.8271 31.72 22.7867 31.7077 22.7908 31.6081C22.7924 31.5679 22.7423 31.5112 22.7005 31.4867C22.5823 31.4175 22.4546 31.3637 22.3354 31.2954C22.3239 31.2888 22.3472 31.2235 22.3546 31.1856C22.3371 31.1714 22.3199 31.1569 22.3024 31.1427L22.2832 31.2545C22.269 31.2532 22.2546 31.2519 22.2404 31.2506C22.203 31.1773 22.1656 31.1044 22.1245 31.0243C22.003 31.1239 21.9423 30.9764 21.8575 30.9184C21.7116 30.8184 21.5772 30.7027 21.4348 30.5981C21.4061 30.5773 21.36 30.5628 21.3263 30.5687C21.1734 30.5961 21.1407 30.5005 21.1202 30.388C20.9602 30.4605 20.875 30.4322 20.6752 30.2204C20.7315 30.2019 20.7898 30.1831 20.848 30.164C20.8332 30.1462 20.8187 30.1284 20.8039 30.1106C20.6409 30.005 20.4681 29.9117 20.3189 29.7896C20.2269 29.7144 20.1717 29.5963 20.1313 29.5402C20.0481 29.4753 20.0019 29.438 19.9545 29.4024C19.8022 29.2882 19.6584 29.1599 19.4934 29.0679C19.4182 29.026 19.3014 29.0563 19.2034 29.054C19.1993 29.0448 19.1939 29.0362 19.1879 29.028C19.1027 28.9511 19.0171 28.8746 18.9214 28.7885C18.9871 28.7298 19.1003 28.6892 18.9167 28.5955C18.7446 28.5081 18.6244 28.3264 18.4718 28.1967C18.4156 28.1489 18.3303 28.1344 18.2613 28.0991C18.2397 28.0879 18.2279 28.0579 18.2118 28.0367C18.2158 28.0278 18.2158 28.0189 18.2121 28.01C18.0899 27.9193 17.9625 27.8342 17.847 27.7359C17.7052 27.6155 17.5742 27.4829 17.4361 27.3579C17.4014 27.3266 17.3593 27.3028 17.3189 27.2784C17.2343 27.2276 17.1488 27.1788 17.0622 27.1283C17.0481 27.1699 17.0292 27.225 17.0023 27.3041C16.9518 27.22 16.9194 27.1653 16.8686 27.0808C16.8649 27.1336 16.8635 27.1554 16.8618 27.1768C16.8527 27.1804 16.8436 27.1841 16.8349 27.1877C16.8184 27.1342 16.7739 27.0703 16.7904 27.0297C16.8376 26.9132 16.786 26.8789 16.6971 26.8057C16.4273 26.584 16.1832 26.332 15.9238 26.0978C15.8612 26.0411 15.7783 26.0061 15.7042 25.9619C15.6806 25.9481 15.652 25.9411 15.6315 25.9243C15.487 25.8046 15.3438 25.6832 15.1946 25.5578C15.1623 25.6093 15.1458 25.635 15.1293 25.6614C15.0703 25.6238 15.0174 25.5898 14.9511 25.5476C14.9373 25.4886 14.9444 25.3467 14.8874 25.3154C14.7884 25.2606 14.7402 25.1696 14.6294 25.0617C14.6426 25.1554 14.649 25.2009 14.6574 25.259C14.6331 25.2405 14.6038 25.2286 14.6042 25.2171C14.6079 25.0353 14.4314 24.9813 14.3394 24.8711C14.267 24.7843 14.1215 24.7556 14.0491 24.6689C13.9831 24.5897 13.9508 24.499 13.8214 24.527C13.7887 24.534 13.7527 24.5251 13.6847 24.5218C13.7305 24.4743 13.752 24.4522 13.7985 24.404C13.7338 24.4225 13.6965 24.4462 13.6746 24.4363C13.6341 24.4179 13.5823 24.3855 13.5722 24.3492C13.556 24.2905 13.5371 24.2503 13.4785 24.2638C13.3377 24.2955 13.3071 24.1902 13.2502 24.1065C13.2199 24.0619 13.1646 24.0339 13.1091 23.989C13.1114 23.9676 13.1185 23.9079 13.1252 23.8482C13.1087 23.8459 13.0922 23.8436 13.0757 23.8409C13.0629 23.8772 13.0498 23.9132 13.0376 23.9481C13.0154 23.9445 13.005 23.9425 12.9945 23.9409C13.0198 23.8535 12.9073 23.8759 12.8905 23.8172C12.8854 23.799 12.844 23.7905 12.8191 23.7776C12.848 23.7631 12.877 23.7482 12.9191 23.7271C12.7652 23.5833 12.6156 23.4441 12.4432 23.2831C12.4297 23.2907 12.3724 23.3224 12.3367 23.3422C12.3216 23.2934 12.3223 23.2043 12.2812 23.1776C12.07 23.04 11.8861 22.8725 11.6961 22.7108C11.4479 22.4997 11.1939 22.2955 10.9444 22.0864C10.8588 22.0148 10.7783 21.938 10.7214 21.8868C10.6382 21.9353 10.5833 21.9677 10.528 21.9997C10.5193 21.9861 10.5102 21.9723 10.5014 21.9587C10.5486 21.9215 10.5957 21.8839 10.6432 21.8466L10.6368 21.7935C10.5597 21.7852 10.4822 21.777 10.4065 21.7691C10.4152 21.7559 10.4425 21.716 10.4667 21.6803C10.172 21.4471 9.88305 21.2182 9.59608 20.9909C9.60046 20.99 9.62943 20.982 9.67625 20.9692C9.44991 20.8267 9.1946 20.7383 9.02047 20.5222C9.02047 20.5222 9.00834 20.5394 8.98477 20.5717C8.95816 20.5077 8.93425 20.451 8.91842 20.4127C8.85644 20.3698 8.80087 20.3312 8.74462 20.2926C8.72576 20.2798 8.70353 20.2547 8.68837 20.2583C8.66884 20.2629 8.652 20.2887 8.6392 20.3088C8.6301 20.323 8.62943 20.3424 8.62471 20.3596C8.60248 20.3441 8.57419 20.3325 8.55937 20.3121C8.48561 20.2115 8.41589 20.1082 8.34314 20.007C8.33101 19.9901 8.30339 19.9647 8.29262 19.9687C8.06964 20.0522 8.12353 19.8424 8.05415 19.7606C7.98241 19.6758 7.89282 19.6055 7.78268 19.5524C7.79952 19.6115 7.81636 19.6702 7.8332 19.7292C7.8103 19.7329 7.78739 19.7365 7.76483 19.7401C7.76011 19.6405 7.7554 19.5409 7.75136 19.4482C7.68062 19.4634 7.6072 19.4792 7.53411 19.495C7.52973 19.4855 7.52535 19.4759 7.52098 19.466C7.5496 19.4399 7.5779 19.4139 7.6109 19.3839C7.46136 19.2651 7.32495 19.1427 7.17271 19.0435C7.11377 19.0052 7.01845 19.0204 6.91168 19.0078C6.87631 18.9745 6.80794 18.9108 6.73249 18.8403C6.74462 18.8053 6.76382 18.7512 6.78706 18.6846C6.70723 18.6694 6.63482 18.6555 6.55095 18.6397C6.57385 18.6265 6.59406 18.6146 6.65132 18.5813C6.4462 18.4296 6.25388 18.2868 6.03293 18.1231C5.93694 18.0324 5.80962 17.913 5.68399 17.7923C5.64088 17.7507 5.60383 17.7032 5.56038 17.6623C5.49976 17.6056 5.43542 17.5522 5.37244 17.4977C5.34954 17.4779 5.30407 17.4545 5.30676 17.4397C5.34314 17.2434 5.21885 17.2338 5.06863 17.2276C5.08884 17.22 5.10939 17.2124 5.14139 17.2005C5.10602 17.1481 5.05651 17.0999 5.03798 17.0425C4.98477 16.8769 4.97702 16.7232 5.08345 16.5556C5.13061 16.4811 5.05449 16.332 5.02855 16.1846C5.0656 16.176 5.15082 16.172 5.21784 16.1354C5.25557 16.1146 5.26298 16.0407 5.28588 15.9857C5.298 15.9906 5.33169 16.0038 5.39063 16.0269C5.29026 15.8253 5.51626 15.8108 5.56409 15.6835C5.61394 15.5516 5.76685 15.4569 5.88238 15.3385C5.89922 15.3477 5.93121 15.3652 5.94435 15.3728C5.98713 15.284 6.02822 15.1996 6.05078 15.1531C6.19393 14.9743 6.31619 14.8176 6.44317 14.6649C6.47551 14.6263 6.52535 14.6022 6.56341 14.5679C6.65368 14.4864 6.63448 14.3608 6.6813 14.2697C6.7335 14.1675 6.85813 14.1008 6.94805 14.0157C6.96523 13.9992 6.96793 13.9686 6.97837 13.9448C6.98915 13.9204 6.99555 13.8818 7.01373 13.8752C7.15823 13.8218 7.22896 13.74 7.1653 13.5813C7.1552 13.5562 7.18214 13.5044 7.2074 13.4807C7.24715 13.4428 7.29969 13.418 7.38389 13.3643C7.56173 13.4121 7.62269 13.1442 7.83051 13.0994C7.97567 13.068 8.07739 12.8454 8.19864 12.7082C8.18854 12.6993 8.17844 12.6907 8.16799 12.6818C8.21986 12.6854 8.27207 12.6887 8.32966 12.6927C8.29295 12.7385 8.26163 12.7774 8.2303 12.8167C8.43004 12.7497 8.459 12.6943 8.51289 12.2995C8.57992 12.3476 8.62977 12.3836 8.69713 12.4317C8.7069 12.403 8.72508 12.3483 8.74327 12.2939L8.75843 12.2932L8.77291 12.2965C8.7975 12.3034 8.82242 12.3104 8.84701 12.3173C8.80154 12.1791 9.09659 12.2721 8.99992 12.1009C8.98948 12.0824 8.96523 12.0719 8.94974 12.0419C9.05078 12.089 9.14509 12.1134 9.21077 12.0036C9.23873 11.9567 9.25557 11.9036 9.27746 11.8532L9.27274 11.8584C9.31215 11.8298 9.34752 11.7872 9.3913 11.7753C9.50818 11.744 9.55297 11.682 9.56005 11.5603C9.5651 11.4732 9.62 11.3871 9.66109 11.3046C9.6813 11.2647 9.72104 11.234 9.75742 11.2103C9.8039 11.175 9.84768 11.1354 9.89787 11.106C9.92448 11.0905 9.9622 11.0928 9.99656 11.1027C10.106 11.0206 10.1225 10.7963 10.3825 10.893C10.36 10.821 10.3448 10.7729 10.3276 10.7175C10.3866 10.6907 10.4341 10.606 10.5014 10.7079C10.5035 10.7109 10.5496 10.695 10.5648 10.6789C10.6722 10.5624 10.7759 10.4427 10.8834 10.3259C10.9039 10.3038 10.9342 10.2906 10.9602 10.2731L10.9531 10.2774C10.9676 10.2362 10.9824 10.1946 10.9969 10.1534C11.0151 10.1518 11.0336 10.1498 11.0518 10.1481C11.0454 10.1366 11.039 10.1254 11.0326 10.1138C11.067 10.1297 11.1016 10.1455 11.1225 10.1551C11.205 10.064 11.2822 9.98221 11.3553 9.89744C11.4233 9.8186 11.5432 9.77539 11.5291 9.63619C11.5264 9.60947 11.5964 9.56593 11.6405 9.54646C11.717 9.51249 11.7995 9.49138 11.9097 9.45509C11.7015 9.29544 11.9622 9.22452 11.9252 9.08169C12.1232 9.15228 12.2724 9.10907 12.3984 8.94381C12.4934 8.81913 12.6274 8.72313 12.7402 8.61098C12.7642 8.58723 12.7729 8.54897 12.7887 8.5173C12.8652 8.44012 12.9417 8.36326 13.0178 8.28607C13.0511 8.18513 13.0319 8.05385 13.229 8.09013C13.295 8.10234 13.4327 7.98689 13.4587 7.90541C13.4984 7.78172 13.5853 7.75038 13.6756 7.69628C13.7682 7.64054 13.88 7.59007 13.8255 7.43866C13.8137 7.40568 13.8713 7.34861 13.9022 7.29286C13.9373 7.34498 13.9696 7.39281 14.0147 7.45977C14.0835 7.38391 14.1542 7.312 14.2178 7.23415C14.3148 7.1154 14.4065 6.99269 14.5001 6.8713C14.5062 6.86339 14.5092 6.84788 14.5156 6.84689C14.7813 6.8017 14.8524 6.6117 14.8682 6.40686C14.9541 6.37487 15.0275 6.34782 15.1104 6.31714C15.1117 6.32011 15.1272 6.35243 15.1384 6.37552C15.1966 6.29867 15.2556 6.22148 15.3307 6.12252C15.329 6.11659 15.3118 6.08129 15.3108 6.04567C15.3101 6.02587 15.3371 5.98794 15.3499 5.98827C15.3859 5.98992 15.4223 6.01895 15.4566 6.01631C15.5035 6.01268 15.5483 5.98959 15.5803 5.97936C15.586 5.93681 15.5752 5.87579 15.6008 5.85237C15.6874 5.7732 15.7901 5.71119 15.879 5.634C15.9019 5.61421 15.8955 5.56209 15.9039 5.51657C16.0097 5.56011 16.1037 5.58452 16.0973 5.41497C16.0959 5.38331 16.1586 5.32888 16.1997 5.31964C16.3802 5.27841 16.4284 5.11909 16.5223 4.99935C16.5419 4.97428 16.5877 4.97065 16.617 4.95086C16.7261 4.8773 16.7389 4.75229 16.783 4.64409C16.7918 4.63881 16.8002 4.63354 16.809 4.62826C16.8005 4.62265 16.7921 4.61704 16.784 4.61144C16.8066 4.55371 16.8295 4.49599 16.8537 4.4343C16.8982 4.46069 16.9528 4.49335 17.0407 4.54546C17.1057 4.45904 17.1774 4.36371 17.2498 4.26871C17.2522 4.26541 17.2606 4.26376 17.265 4.26508C17.2694 4.2664 17.2717 4.27267 17.2751 4.27696C17.2771 4.2697 17.2808 4.26343 17.2866 4.25783C17.295 4.18526 17.3031 4.11269 17.3115 4.04177C17.332 4.07442 17.3573 4.11467 17.3994 4.18163C17.4603 4.10609 17.5085 4.04672 17.5493 3.99625C17.5493 3.99757 17.555 4.02066 17.5634 4.05661C17.6422 3.97778 17.714 3.9029 17.7898 3.83132C17.8827 3.74391 18.0046 3.67431 18.0666 3.56974C18.1353 3.45396 18.2246 3.37545 18.33 3.30288C18.3391 3.29662 18.3371 3.27188 18.3361 3.25571C18.3209 3.03504 18.325 3.02976 18.5378 3.01459C18.5472 3.02118 18.5577 3.02448 18.5691 3.02481L18.5732 3.02811C18.5873 3.03669 18.6015 3.04493 18.6156 3.05351C18.616 3.04559 18.6163 3.03801 18.6166 3.03009L18.616 3.02943Z"
          fill="currentColor"/>
</svg>
