<svg viewBox="0 0 32 32" fill="none" xmlns="http://www.w3.org/2000/svg">
    <path d="M4.72379 31.9999H20.8366C23.3665 31.9999 25.4205 29.997 25.5383 27.4959C28.0381 27.3722 30.039 25.3226 30.039 22.7988V13.3234C30.039 12.6916 29.5277 12.1803 28.8959 12.1803C28.5801 12.1803 28.2943 12.3082 28.0874 12.5151C27.8807 12.7218 27.7529 13.0075 27.7529 13.3234V22.7988C27.7529 24.1416 26.6555 25.2333 25.3061 25.2333H9.20113C7.8583 25.2333 6.7666 24.1415 6.7666 22.7988V6.6938C6.7666 5.34438 7.85836 4.247 9.20113 4.247H18.6765C18.9924 4.247 19.2781 4.11918 19.4848 3.91251C19.6915 3.70585 19.8195 3.42009 19.8195 3.10397C19.8195 2.47224 19.3082 1.96094 18.6765 1.96094H9.20113C6.67725 1.96094 4.6277 3.9615 4.50399 6.4616C2.00285 6.57922 0 8.63336 0 11.1633V27.2761C0 29.8814 2.11872 32 4.72391 32L4.72379 31.9999ZM2.28593 11.1628C2.28593 9.90212 3.25189 8.87366 4.48042 8.74969V22.7985C4.48042 25.4017 6.59783 27.5191 9.201 27.5191H23.2498C23.1258 28.7476 22.0973 29.7136 20.8367 29.7136H4.72392C3.37985 29.7136 2.28607 28.6198 2.28607 27.2757L2.28593 11.1628Z"
          fill="currentColor"/>
    <path d="M19.4251 7.2002C18.8235 7.80182 18.387 8.5542 18.1627 9.37679L17.3055 12.5224C17.1368 13.134 17.3111 13.7927 17.7599 14.2413C18.0959 14.5773 18.55 14.7592 19.0124 14.7592C19.1675 14.7592 19.3239 14.739 19.4767 14.6967L22.6244 13.8384C23.4469 13.6141 24.1993 13.1776 24.8009 12.5759L30.8902 6.48673C32.3715 5.00439 32.3715 2.59331 30.8902 1.1109C29.4078 -0.371444 26.9967 -0.369157 25.5143 1.1109L19.4251 7.2002ZM29.2735 2.72756C29.8629 3.31796 29.8629 4.28032 29.2735 4.87071L23.1843 10.9599C22.8638 11.2804 22.4619 11.5136 22.0234 11.633L19.7473 12.2538L20.368 9.97762C20.4874 9.53904 20.7209 9.1372 21.0411 8.81676L27.1303 2.72755C27.426 2.43287 27.8133 2.2854 28.2019 2.2854C28.5905 2.2854 28.9778 2.43287 29.2735 2.72756Z"
          fill="currentColor"/>
</svg>
