<svg viewBox="0 0 32 33" fill="none" xmlns="http://www.w3.org/2000/svg">
<g clip-path="url(#clip0_2322_9953)">
<path d="M9.58214 6.11824C9.46776 6.2208 9.36514 6.34075 9.2356 6.42026C9.1298 6.48536 9.03798 6.51396 8.98993 6.65903C8.94338 6.80083 8.77233 6.9031 8.66819 7.03102C8.22977 7.57024 7.77121 8.09669 7.3667 8.65858C6.85447 9.37039 6.48334 10.1556 6.18354 10.9692C6.20022 10.9853 6.2164 11.0013 6.23308 11.0173C6.337 10.9348 6.43358 10.842 6.54581 10.7728C6.68969 10.6839 6.84531 10.6121 6.9975 10.5364C7.46098 10.3062 7.9318 10.0888 8.38746 9.84493C8.75961 9.6457 9.11122 9.41168 9.47897 9.20445C9.5541 9.16217 9.66006 9.16505 9.75228 9.15566C10.1858 9.11096 10.5861 8.9803 10.9554 8.75855C11.0439 8.70556 11.4423 8.88145 11.5126 9.01306C11.5688 9.11928 11.5843 9.26092 11.7633 9.14837C11.8567 9.29322 11.9615 9.43249 12.0406 9.58429C12.1094 9.71635 12.1703 9.85916 12.1943 10.0032C12.2134 10.1195 12.2161 10.2756 12.1496 10.3601C11.9834 10.5721 11.7848 10.7661 11.5749 10.9409C11.5056 10.9987 11.3623 10.982 11.2524 10.9885C11.0615 10.9997 10.9589 11.2144 10.7462 11.1819C10.7265 11.179 10.6915 11.2674 10.6632 11.3132C10.6403 11.3506 10.6253 11.4105 10.5917 11.4216C10.175 11.5625 9.85901 11.8637 9.46427 12.0459C8.85266 12.3284 8.27424 12.6761 7.68068 12.9947C7.61742 13.0286 7.54781 13.0512 7.48308 13.0828C6.93367 13.3463 6.39108 13.6248 5.83239 13.87C5.44413 14.0405 5.03391 14.1651 4.63345 14.3102C4.47099 14.369 4.30902 14.4305 4.1451 14.4855C3.9881 14.5381 3.99108 14.532 3.92431 14.3826C3.91017 14.3512 3.84419 14.3368 3.79891 14.3234C3.36237 14.1937 3.16694 13.8477 2.99522 13.4916C2.95425 13.4061 3.03033 13.2719 2.99381 13.1817C2.8054 12.7139 2.44503 12.3334 2.24922 11.8655C2.088 11.4813 1.88628 11.1127 1.71122 10.7336C1.52886 10.3385 1.35489 9.93962 1.18141 9.54078C1.08103 9.30966 0.992504 9.0739 0.890149 8.84323C0.795106 8.62901 0.677841 8.42311 0.590698 8.20611C0.448061 7.85008 0.256504 7.51866 0.199838 7.12087C0.172695 6.93042 0.129299 6.73755 0.119466 6.53547C0.108299 6.30432 0.272648 6.16264 0.418885 6.09446C0.705428 5.96137 0.989274 5.77622 1.3386 5.80281C1.37555 5.80581 1.42196 5.79151 1.45164 5.76963C1.67773 5.60294 1.80627 5.72218 1.9859 5.87495C2.32455 6.16399 2.4709 6.56738 2.73541 6.89777C2.81721 6.99989 2.8179 7.15787 2.87791 7.28051C3.02136 7.57373 3.18308 7.85907 3.328 8.15182C3.46805 8.43471 3.59476 8.72316 3.72937 9.00836C3.81618 9.19302 3.90645 9.37675 3.99524 9.56094C4.02237 9.55592 4.04901 9.5509 4.07615 9.54541C4.12209 9.42517 4.16116 9.30162 4.21448 9.1847C4.42429 8.72543 4.62721 8.26238 4.85668 7.81212C4.93682 7.65502 5.09662 7.53723 5.20333 7.39011C5.4366 7.06783 5.64383 6.72856 5.88987 6.41572C6.11507 6.12904 6.37957 5.87114 6.62098 5.59578C6.7816 5.41237 6.91865 5.20868 7.09104 5.0361C7.28573 4.84114 7.50446 4.66692 7.71925 4.49127C7.92365 4.32448 8.12904 4.15676 8.34813 4.00832C8.63399 3.81475 8.87185 3.56 9.23021 3.45539C9.39014 3.40884 9.50098 3.22518 9.65227 3.13125C9.95981 2.94013 10.2752 2.75983 10.5954 2.58987C11.0101 2.36975 11.4242 2.14588 11.8554 1.95913C12.0945 1.8558 12.3716 1.83421 12.6259 1.75814C12.9294 1.66732 13.2267 1.5563 13.5279 1.45749C13.5837 1.43902 13.6448 1.43511 13.7035 1.42415C13.8782 1.39175 14.0528 1.35981 14.227 1.32505C14.2472 1.32093 14.2725 1.28919 14.2828 1.29439C14.5872 1.43748 14.8344 1.18606 15.1232 1.18609C15.5363 1.18582 15.9486 1.13538 16.3618 1.10838C16.5284 1.09749 16.6961 1.07911 16.8622 1.08416C17.387 1.09991 17.9139 1.10536 18.4361 1.15344C18.8589 1.19211 19.2764 1.28655 19.6959 1.35708C20.0244 1.41216 20.3614 1.44103 20.6794 1.53028C21.2228 1.68253 21.7586 1.86286 22.2895 2.05208C22.5316 2.1386 22.7502 2.28313 22.9873 2.38604C23.2224 2.48846 23.4828 2.54461 23.703 2.66899C24.1655 2.92958 24.6077 3.22195 25.0592 3.49984C25.2411 3.61184 25.4308 3.71216 25.6072 3.83117C25.9044 4.03234 26.2144 4.2228 26.4824 4.4557C26.925 4.84135 27.3558 5.24194 27.7598 5.66396C28.2212 6.14627 28.7004 6.61601 29.0381 7.19801C29.2263 7.52286 29.4984 7.80313 29.6994 8.12195C29.9082 8.45299 30.0463 8.82681 30.2724 9.14528C30.504 9.47128 30.5012 9.91658 30.8701 10.1655C30.8913 10.1796 30.9044 10.2177 30.9047 10.2449C30.9061 10.6611 31.1987 10.9949 31.2727 11.3801C31.3433 11.7485 31.5659 12.0768 31.5502 12.4667C31.5457 12.5782 31.6925 12.69 31.7072 12.8087C31.773 13.3383 31.9479 13.851 31.9575 14.3901C31.9622 14.6447 32.0575 14.8973 32.0725 15.1529C32.0866 15.3934 32.0479 15.6365 32.0359 15.8788C32.0331 15.9303 32.0536 15.9829 32.0499 16.0345C32.0377 16.2102 32.0092 16.3854 32.0063 16.5607C32.0035 16.7257 32.0411 16.8923 32.0315 17.0567C32.0094 17.4293 31.9725 17.8013 31.9352 18.1728C31.9175 18.3504 31.89 18.5274 31.8601 18.7035C31.8002 19.0506 31.7516 19.4005 31.6681 19.7423C31.5715 20.1374 31.4424 20.5258 31.3256 20.9162C31.2789 21.0721 31.2343 21.2293 31.1744 21.3804C31.0935 21.5844 31.0018 21.7846 30.9082 21.9838C30.7577 22.3023 30.6358 22.6392 30.4377 22.9288C30.2385 23.2203 30.2203 23.6154 29.8738 23.8199C29.8565 23.8301 29.8504 23.8601 29.8429 23.8816C29.7159 24.2396 29.4882 24.5342 29.2457 24.8316C28.903 25.2513 28.6148 25.7087 28.1931 26.0709C27.955 26.2754 27.7679 26.5333 27.5332 26.7421C27.204 27.0348 26.8615 27.3167 26.5058 27.5793C26.0917 27.8847 25.6741 28.1925 25.2258 28.4485C24.7706 28.7083 24.2762 28.9046 23.7999 29.1319C23.7065 29.1764 23.6254 29.2444 23.5295 29.2824C23.0011 29.493 22.476 29.7154 21.9369 29.8983C21.613 30.0083 21.2666 30.0937 20.9259 30.1098C20.7395 30.1188 20.5717 30.1737 20.3932 30.193C20.1875 30.2154 19.9898 30.3184 19.7852 30.3305C19.4317 30.3508 19.0835 30.5019 18.7233 30.3801C18.6677 30.3611 18.6131 30.3402 18.5653 30.3226C18.4638 30.3272 18.3607 30.3337 18.2572 30.3365C18.096 30.3404 17.9328 30.355 17.7737 30.3397C17.5924 30.3224 17.4152 30.2714 17.2349 30.2465C17.1088 30.229 16.9797 30.2326 16.8521 30.2235C16.5402 30.2023 16.2754 30.1189 16.1898 29.7834C16.155 29.6472 16.1676 29.5048 16.1539 29.3702C16.1243 29.0832 16.1608 28.7796 16.2347 28.4983C16.2714 28.3578 16.4504 28.2509 16.5505 28.1441C16.7396 28.1647 16.9199 28.1839 17.1184 28.2055C17.133 28.1521 17.1516 28.0833 17.1772 27.9873C17.3464 28.1673 17.4906 28.1994 17.7433 28.1247C17.9517 28.0634 18.2152 27.903 18.479 28.0712C18.5301 28.1038 18.6498 28.0317 18.7395 28.0181C19.2984 27.9323 19.8606 27.8648 20.4161 27.7626C21.2899 27.6015 22.1116 27.2892 22.9021 26.9097C23.3498 26.6949 23.8096 26.4989 24.203 26.185C24.4935 25.9535 24.8296 25.7751 25.1377 25.5625C25.3801 25.3954 25.62 25.2222 25.8427 25.0325C25.9422 24.9482 25.9883 24.8097 26.0741 24.7074C26.1445 24.6239 26.2248 24.5287 26.3236 24.4903C26.4836 24.4278 26.5909 24.3613 26.5731 24.1756C26.5703 24.1455 26.669 24.1156 26.6998 24.0721C27.0333 23.6022 27.359 23.1271 27.6946 22.6587C28.1894 21.9683 28.493 21.1969 28.8236 20.4293C29.0086 19.9999 29.034 19.5468 29.2136 19.1281C29.3896 18.7174 29.4037 18.275 29.4472 17.844C29.5043 17.2818 29.4667 16.7088 29.5479 16.1509C29.6157 15.6853 29.4578 15.2354 29.5341 14.7718C29.5646 14.5853 29.4227 14.3789 29.3985 14.1772C29.3266 13.5796 29.1678 13.0004 28.9735 12.4341C28.7709 11.8429 28.5037 11.2716 28.2774 10.6873C28.1012 10.2332 27.7986 9.84495 27.5745 9.4182C27.3059 8.90686 26.9147 8.48396 26.5675 8.0327C26.2365 7.6026 25.8377 7.21623 25.4413 6.83691C25.0886 6.49905 24.7136 6.17842 24.3193 5.88536C23.9913 5.64231 23.6226 5.44828 23.2692 5.23698C22.9754 5.06114 22.6825 4.88389 22.3802 4.7216C21.7883 4.40364 21.1601 4.16425 20.5029 4.00253C19.8669 3.84653 19.2253 3.70926 18.5842 3.57246C18.4134 3.53598 18.235 3.52478 18.0591 3.51406C17.0672 3.45191 16.0731 3.4385 15.0962 3.63096C14.3853 3.77085 13.683 3.95718 12.986 4.15245C12.6415 4.24869 12.3051 4.38904 11.9884 4.55105C11.6445 4.72746 11.3215 4.94334 11.0015 5.15784C10.5881 5.43468 10.1879 5.7294 9.77688 6.01C9.71258 6.05374 9.62086 6.06172 9.54188 6.08617C9.55612 6.09749 9.56986 6.10834 9.5841 6.11966L9.58214 6.11824Z" fill="currentColor"/>
</g>
</svg>
