<svg viewBox="0 0 13 22" fill="none" xmlns="http://www.w3.org/2000/svg">
<path d="M6.49995 16.0001C8.70491 16.0001 10.4999 14.2051 10.4999 12.0001V3.99995C10.4999 1.79499 8.70491 0 6.49995 0C4.29499 0 2.5 1.79499 2.5 3.99995V12.0001C2.5 14.2051 4.29499 16.0001 6.49995 16.0001ZM3.49994 4.00004C3.49994 2.34502 4.84493 1.00003 6.49995 1.00003C8.15497 1.00003 9.49996 2.34502 9.49996 4.00004V12.0002C9.49996 13.6552 8.15497 15.0002 6.49995 15.0002C4.84493 15.0002 3.49994 13.6552 3.49994 12.0002V4.00004Z" fill="currentColor"/>
<path d="M12.9996 12H11.9997C11.9997 15.035 9.5347 17.4999 6.49981 17.4999C3.46492 17.4999 0.999945 15.0349 0.999945 12H0C0 15.415 2.64995 18.2199 6.00001 18.4749L5.99968 20.9999H2.49961V21.9999H10.4998V20.9999H6.99971V18.4749C10.3498 18.2199 12.9997 15.4149 12.9997 12H12.9996Z" fill="currentColor"/>
</svg>
