<svg viewBox="0 0 32 33" fill="none" xmlns="http://www.w3.org/2000/svg">
<path d="M16.2667 28.3373C16.1626 28.4022 16.0238 28.4457 15.9643 28.5383C15.9086 28.6252 15.8728 28.6729 15.7673 28.7107C15.6619 28.7479 15.5603 28.8548 15.5056 28.957C15.4248 29.1074 15.3188 29.2034 15.1751 29.2965C15.0435 29.3819 14.9661 29.5457 14.8572 29.6684C14.8064 29.7257 14.7368 29.7672 14.6681 29.8221C14.7285 30.0995 14.4803 30.109 14.3473 30.2279C14.2534 30.3244 14.1605 30.4217 14.0652 30.5163C13.8891 30.6905 13.6351 30.8342 13.5523 31.0438C13.4473 31.3098 13.2388 31.3088 13.0511 31.3966C12.8691 31.4816 12.7017 31.5967 12.5179 31.6759C12.3108 31.7652 12.0955 31.8383 11.8787 31.9027C11.7224 31.949 11.5546 32.0073 11.3983 31.9934C11.2076 31.9762 11.0039 32.0622 10.8182 31.8898C10.6953 31.7757 10.4737 31.6607 10.3324 31.6941C10.1122 31.7466 10.0285 31.6688 9.93031 31.5236C9.92257 31.5122 9.84467 31.5475 9.79677 31.5618C9.7929 31.4926 9.78951 31.4301 9.7837 31.3226C9.715 31.4014 9.68113 31.4401 9.62259 31.5074C9.64097 31.2873 9.5684 31.1832 9.29986 31.2883C9.37631 31.2338 9.40341 31.2147 9.42953 31.1961C9.16778 31.0543 8.93021 30.9393 8.70765 30.8003C8.52379 30.6853 8.43428 30.4208 8.20687 30.4356C7.96544 30.2403 7.73368 30.0708 7.52466 29.878C7.31613 29.6856 7.13711 29.4631 6.93293 29.2659C6.75245 29.0916 6.54779 28.9413 6.36732 28.767C6.25313 28.6567 6.16604 28.5197 6.0625 28.398C6.0446 28.3769 6.00492 28.3736 5.97493 28.3645C5.86606 28.3306 5.74897 28.3029 5.81042 28.2089C5.63237 28.0327 5.46496 27.8809 5.31449 27.7148C5.13692 27.5181 4.95306 27.3366 4.72759 27.1867C4.57615 27.086 4.45809 26.9213 4.35794 26.7647C4.24036 26.5799 4.10586 26.4429 3.87071 26.4238C3.89539 26.3928 3.91764 26.3651 3.92587 26.3551C3.7483 26.1727 3.56976 25.9984 3.40235 25.8146C3.25672 25.6547 3.15318 25.4021 2.97658 25.3391C2.77917 25.2685 2.74579 24.9567 2.55177 25.0417C2.45355 24.9132 2.39452 24.8063 2.30743 24.7299C2.21114 24.6445 2.08099 24.5972 1.9818 24.5141C1.90826 24.4525 1.86084 24.3604 1.78198 24.2979C1.65134 24.1155 1.52216 23.9321 1.39007 23.7507C1.33443 23.6748 1.28508 23.587 1.21153 23.5325C0.830751 23.2509 0.79156 22.7539 0.481903 22.424C0.395296 22.3318 0.432552 22.1208 0.343042 22.0387C0.13112 21.8439 0.184826 21.5761 0.0996708 21.3507C0.0116121 21.1187 0.00919294 20.8494 0.000483839 20.5954C-0.00483839 20.4379 0.0522546 20.2794 0.0711243 20.1199C0.074995 20.086 0.0358041 20.0474 0 19.9796C0.235146 19.8693 -0.0933809 19.4893 0.212405 19.3837C0.226437 19.2964 0.212405 19.1937 0.251596 19.168C0.413682 19.0601 0.431584 18.8982 0.498838 18.7421C0.543351 18.638 0.65415 18.5253 0.726242 18.4031C0.838976 18.2112 0.983644 18.0336 1.1346 17.8675C1.25798 17.7319 1.36491 17.5595 1.43652 17.4215C1.54635 17.2091 1.77617 17.1275 1.86036 16.9169C1.87246 16.8864 1.95229 16.8878 1.97842 16.8563C2.25324 16.5288 2.51983 16.1941 2.79852 15.8699C2.85175 15.8083 2.95045 15.7845 3.0598 15.7262C3.15995 15.6341 3.29591 15.5095 3.43138 15.3853C3.4101 15.3791 3.37623 15.3696 3.28623 15.3433C3.48122 15.2297 3.67621 15.1662 3.79426 15.0349C3.9607 14.8506 4.18956 14.7122 4.2723 14.4529C4.2902 14.3976 4.41503 14.3828 4.47406 14.3307C4.53986 14.2729 4.75614 14.2729 4.58921 14.0968C4.58002 14.0867 4.60905 14.0414 4.62018 14.0127C4.68501 14.028 4.74356 14.0419 4.83355 14.0634C4.82339 14.0194 4.80839 13.9922 4.81613 13.9817C4.8829 13.891 4.93467 13.7674 5.0266 13.7206C5.38513 13.5363 5.61108 13.268 5.77316 12.8965C5.88493 12.6402 6.11814 12.4282 6.32087 12.2186C6.68617 11.8414 7.06937 11.4815 7.44434 11.1134C7.81448 10.75 8.18026 10.3824 8.5533 10.0225C8.80054 9.78374 9.06762 9.56318 9.30761 9.31778C9.56936 9.04995 9.79919 8.75156 10.0629 8.48563C10.3479 8.19775 10.6599 7.9366 10.9527 7.65587C11.5134 7.1183 12.0698 6.57595 12.6272 6.03503C13.1009 5.57527 13.5736 5.11456 14.0473 4.6548C14.444 4.27 14.8505 3.89474 15.2371 3.50087C15.6696 3.06021 16.0789 2.59711 16.511 2.15597C16.7365 1.92633 16.9977 1.73107 17.2285 1.5062C17.65 1.09562 18.054 0.66737 18.4783 0.259651C18.7996 -0.0492407 19.3613 -0.123718 19.7551 0.264426C19.8684 0.376142 19.9506 0.583344 20.1891 0.451575C20.2264 0.431046 20.3266 0.490246 20.3788 0.534647C20.6009 0.723228 20.8215 0.914197 21.0325 1.11519C21.2608 1.3329 21.4733 1.56731 21.7011 1.78549C21.9629 2.03614 22.2397 2.27151 22.4995 2.52454C22.7332 2.75227 22.9475 2.9991 23.1797 3.22874C23.3109 3.3586 23.4671 3.46268 23.5997 3.5911C23.7928 3.77825 23.9703 3.9802 24.1615 4.16878C24.2955 4.30103 24.4498 4.4137 24.5805 4.54929C24.8935 4.87441 25.2965 5.11265 25.5162 5.5323C25.5786 5.65118 25.733 5.74093 25.8646 5.80252C26.2526 5.98442 26.4553 6.35538 26.7597 6.6213C27.0272 6.85524 27.2982 7.08774 27.5483 7.33934C27.7811 7.5728 27.9848 7.83443 28.2102 8.07553C28.2697 8.13903 28.3738 8.16003 28.4381 8.22019C28.756 8.51762 29.0656 8.82317 29.3811 9.12251C29.6666 9.39321 29.9622 9.65389 30.2428 9.92984C30.4896 10.1728 30.7155 10.4364 30.9623 10.6794C31.0697 10.7854 31.2095 10.8589 31.3295 10.9534C31.6619 11.2155 32.0127 11.469 31.9996 11.9546C31.9977 12.0214 31.9813 12.0997 31.943 12.1522C31.8061 12.3408 31.8274 12.6268 31.5705 12.7423C31.5521 12.7504 31.5337 12.8049 31.5434 12.8206C31.6663 13.0183 31.5153 13.1219 31.4021 13.2412C31.1244 13.5348 30.8583 13.8394 30.5699 14.1216C30.1707 14.5121 29.7421 14.8731 29.3506 15.2708C28.8707 15.7587 28.4246 16.2791 27.947 16.7689C27.7215 17.0005 27.4472 17.1847 27.2101 17.4063C27.0127 17.5906 26.8443 17.8049 26.6503 17.993C26.4403 18.1964 26.182 18.3597 26.0088 18.5879C25.8955 18.7373 25.7731 18.8634 25.6415 18.9932C25.254 19.3747 24.8921 19.7819 24.504 20.1634C24.1595 20.5023 23.785 20.8112 23.4391 21.1493C23.1265 21.4543 22.8367 21.7814 22.5338 22.096C22.3267 22.3113 22.1158 22.5233 21.9034 22.7333C21.6082 23.025 21.3078 23.311 21.0146 23.6042C20.4219 24.1966 19.8296 24.7891 19.2437 25.3878C19.102 25.5325 19.0144 25.764 18.8475 25.8418C18.6283 25.944 18.6491 26.2667 18.3428 26.2825C18.2514 26.2873 18.1807 26.526 18.083 26.6434C18.0269 26.7107 18.0878 26.9246 17.8783 26.8229C17.8687 26.8769 17.8672 26.9743 17.8474 26.9781C17.6446 27.0182 17.5798 27.1934 17.4651 27.3238C17.3374 27.4684 17.1947 27.6021 17.0452 27.7243C16.8627 27.8728 16.6653 28.0026 16.4766 28.144C16.406 28.197 16.3421 28.259 16.2754 28.3168C16.2725 28.324 16.2696 28.3306 16.2667 28.3378V28.3373ZM29.4101 12.1126C29.4213 12.1031 29.4324 12.093 29.444 12.0835C29.3951 12.0071 29.3584 11.9193 29.295 11.8572C29.2239 11.7875 29.116 11.7536 29.0468 11.6825C28.7666 11.396 28.5262 11.0623 28.2136 10.8178C27.7007 10.4173 27.3364 9.86538 26.779 9.51209C26.6155 9.40849 26.5187 9.2075 26.3736 9.06904C26.0726 8.78259 25.7572 8.51141 25.4528 8.2283C25.2743 8.06216 25.1209 7.86737 24.9298 7.71889C24.7527 7.58187 24.6579 7.37754 24.4469 7.25866C24.234 7.13883 24.0845 6.91062 23.9026 6.73493C23.6109 6.4542 23.3118 6.18016 23.0206 5.89896C22.6674 5.55808 22.3185 5.21243 21.9682 4.86821C21.8816 4.78323 21.8027 4.69061 21.7132 4.60849C21.467 4.38124 21.212 4.16258 20.9701 3.93103C20.7838 3.75295 20.6362 3.5257 20.4277 3.38295C20.1591 3.19914 19.9438 2.98334 19.7421 2.73365C19.6414 2.60905 19.4508 2.54173 19.2873 2.48826C19.2345 2.47107 19.1344 2.57324 19.0642 2.63148C18.8475 2.81147 18.6288 2.99003 18.4226 3.181C18.2862 3.30751 18.1769 3.4622 18.0419 3.59063C17.8972 3.72812 17.7269 3.83984 17.5861 3.9802C17.0989 4.46669 16.6199 4.96083 16.137 5.45209C15.9256 5.66741 15.7112 5.87986 15.5003 6.09566C15.3174 6.28281 15.1553 6.49335 14.9535 6.65806C14.5834 6.96075 14.2379 7.28539 13.9176 7.63821C13.7497 7.82297 13.5872 8.01681 13.396 8.17626C13.2848 8.26888 13.1609 8.32427 13.1019 8.47847C13.0656 8.573 12.9422 8.63555 12.8575 8.71193C12.7356 8.82222 12.6093 8.92868 12.4913 9.04326C12.3306 9.19938 12.1753 9.36027 12.0195 9.52068C11.8511 9.69399 11.692 9.87589 11.5163 10.0416C11.2967 10.2492 11.0644 10.444 10.8394 10.646C10.734 10.741 10.6324 10.8408 10.5298 10.9391C10.4964 10.9711 10.4635 11.004 10.433 11.0389C10.2371 11.2623 10.0532 11.4977 9.84418 11.7082C9.51808 12.0362 9.17503 12.3475 8.83877 12.6655C8.71297 12.7843 8.58572 12.9008 8.43863 13.0379C8.58717 13.2097 8.73619 13.3916 8.89586 13.5645C9.04875 13.7301 9.21084 13.8877 9.37147 14.0457C9.72468 14.3937 10.0779 14.7423 10.435 15.086C10.6057 15.2502 10.7964 15.3954 10.9599 15.5658C11.2817 15.9 11.5826 16.2542 11.9087 16.5846C12.1124 16.7909 12.3592 16.9551 12.5638 17.1609C12.9475 17.5471 13.3041 17.9601 13.6922 18.342C13.9941 18.6394 14.3332 18.8992 14.6424 19.1894C14.8606 19.3947 15.0513 19.6287 15.2637 19.8402C15.4572 20.0326 15.6706 20.2059 15.8641 20.3987C16.1133 20.647 16.3465 20.911 16.5957 21.1593C16.9237 21.4858 17.26 21.8038 17.5933 22.1256C17.9204 22.4416 18.248 22.7572 18.6084 23.1048C22.2764 19.4554 25.9178 15.8332 29.5834 12.1861C29.4977 12.1494 29.4542 12.1308 29.4111 12.1121L29.4101 12.1126ZM17.1419 24.4439C13.8431 21.2065 10.5438 17.9691 7.2242 14.7112C7.09308 14.9218 6.77181 14.9767 6.7152 15.2836C6.70988 15.3123 6.64601 15.3295 6.61117 15.3548C6.4815 15.4484 6.34071 15.5314 6.22555 15.6403C6.0117 15.8427 5.81477 16.0628 5.60672 16.2719C5.40109 16.4786 5.19014 16.6792 4.98257 16.884C4.75952 17.1045 4.53889 17.328 4.31487 17.5481C4.06715 17.7906 3.79765 18.0145 3.57315 18.2766C3.35736 18.5292 3.22382 18.8567 2.9877 19.0849C2.6766 19.3857 2.45984 19.7232 2.31759 20.1195C2.29533 20.1806 2.25324 20.2369 2.24066 20.299C2.17824 20.6083 2.2363 20.8852 2.35968 21.1879C2.57209 21.7074 2.9069 22.139 3.23253 22.5782C3.61282 23.0905 4.19004 23.4194 4.57857 23.9298C4.65792 24.0343 4.75952 24.1327 4.87177 24.2005C5.09192 24.3332 5.16885 24.6077 5.44173 24.7018C5.57818 24.7485 5.66237 24.939 5.77607 25.0589C6.03492 25.3319 6.29039 25.6089 6.56182 25.8695C6.72681 26.0276 6.92422 26.1522 7.09695 26.303C7.25952 26.4448 7.4158 26.5947 7.5624 26.7523C7.8198 27.0301 8.05446 27.33 8.32348 27.5954C8.59056 27.8589 8.88957 28.091 9.17407 28.3368C9.56017 28.6701 9.93224 29.02 10.4175 29.2196C10.5177 29.2607 10.5917 29.3609 10.689 29.4139C10.9783 29.5719 11.2338 29.9018 11.6068 29.7347C11.8894 29.6077 12.1468 29.4034 12.3776 29.1929C12.5634 29.0229 12.6887 28.7894 12.8479 28.5899C12.9258 28.4925 13.0201 28.4075 13.1072 28.3168C13.2262 28.1936 13.3496 28.0738 13.4633 27.9458C13.5751 27.8207 13.6583 27.6642 13.787 27.5615C14.1731 27.2545 14.4915 26.8774 14.9114 26.599C15.3261 26.3245 15.6759 25.9536 16.0504 25.6203C16.1675 25.5162 16.302 25.4145 16.376 25.2833C16.5594 24.9562 16.8294 24.7142 17.141 24.4435L17.1419 24.4439Z" fill="currentColor"/>
</svg>
