<svg viewBox="0 0 1000 1000" fill="none" xmlns="http://www.w3.org/2000/svg">
<path d="M854.8 179.002H712L691.6 107.202C686.9 90.6016 666.1 77.6016 644.9 77.6016H339C317.9 77.6016 297.9 90.6016 294.3 107.202L278.5 179.002H145.2C70.5 179.002 10 239.502 10 314.102V787.202C10 861.902 70.5 922.402 145.2 922.402H652.1C675.4 922.402 694.3 903.502 694.3 880.202C694.3 856.902 675.4 838.002 652.1 838.002H145.2C117.2 838.002 94.5 815.302 94.5 787.302V314.102C94.5 286.102 117.2 263.402 145.2 263.402H278.5H346.5L361 197.002L368.7 162.002H619.4L630.7 202.002L648.1 263.402H712H854.8C882.8 263.402 905.5 286.102 905.5 314.102V787.202C905.5 815.202 882.8 837.902 854.8 837.902C831.5 837.902 812.6 856.802 812.6 880.102C812.6 903.402 831.5 922.302 854.8 922.302C929.5 922.302 990 861.802 990 787.102V314.102C990 239.502 929.5 179.002 854.8 179.002Z" fill="currentColor"/>
<path d="M829.498 297.203C806.198 297.203 787.298 316.103 787.298 339.403C787.298 362.703 806.198 381.603 829.498 381.603C852.798 381.603 871.698 362.703 871.698 339.403C871.698 316.203 852.798 297.203 829.498 297.203ZM499.998 314.103C369.398 314.103 263.398 420.003 263.398 550.703C263.398 681.403 369.298 787.303 499.998 787.303C630.598 787.303 736.598 681.403 736.598 550.703C736.498 420.103 630.598 314.103 499.998 314.103ZM499.998 719.803C406.698 719.803 330.998 644.103 330.998 550.803C330.998 457.403 406.598 381.803 499.998 381.803C593.398 381.803 668.998 457.503 668.998 550.803C668.998 644.103 593.298 719.803 499.998 719.803Z" fill="currentColor"/>
</svg>
