<svg viewBox="0 0 32 32" fill="none" xmlns="http://www.w3.org/2000/svg">
    <mask id="path-1-outside-1_2789_10158" maskUnits="userSpaceOnUse" x="-1" y="2" width="34" height="27" fill="black">
        <rect fill="white" x="-1" y="2" width="34" height="27"/>
        <path d="M2.67071 7.52934C2.70944 7.16156 2.78749 6.80962 2.76226 6.46589C2.7517 6.31631 2.73116 6.17847 2.74641 6.02068C2.76578 5.81773 2.8673 5.75966 3.02751 5.75203C3.4958 5.72974 3.96409 5.71977 4.43238 5.70218C4.96347 5.68223 5.49572 5.63296 6.02563 5.64821C6.36189 5.65818 6.69932 5.75027 7.02794 5.83709C7.09249 5.8541 7.15294 6.0154 7.15587 6.11219C7.16937 6.57206 7.16174 7.0331 7.16174 7.5399C7.56372 7.5704 8.02732 7.61732 8.49209 7.63609C8.85299 7.65076 8.89818 7.29882 9.02963 7.08472C9.31072 6.62719 9.54721 6.14269 9.79427 5.66463C10.012 5.24348 10.2015 4.80707 10.4345 4.3953C10.6487 4.01638 10.8852 3.64567 11.1528 3.30428C11.2373 3.19635 11.4544 3.15412 11.6123 3.15001C12.4215 3.12949 13.2313 3.12714 14.0406 3.12538C14.7782 3.12362 15.5159 3.1418 16.2535 3.13007C16.8615 3.1201 17.4689 3.07259 18.0762 3.05264C18.4254 3.0415 18.7751 3.05851 19.1249 3.05147C19.4154 3.04561 19.7065 3.0286 19.9963 3.00748C20.7804 2.95117 21.1659 3.20809 21.4881 3.94012C21.7979 4.64401 22.1899 5.31211 22.5473 5.99487C22.6987 6.28346 22.8712 6.56267 22.9992 6.86123C23.0743 7.03662 23.0925 7.23957 23.1142 7.43314C23.1388 7.65545 23.2198 7.72994 23.4663 7.72701C24.1846 7.71763 24.9034 7.76044 25.6223 7.76807C26.4527 7.77687 27.2836 7.76162 28.114 7.77276C28.6357 7.78039 29.1721 7.75047 29.675 7.85899C30.3117 7.99683 30.9255 8.22911 31.3656 8.78753C31.7072 9.22041 31.9043 9.67618 31.9143 10.2281C31.9208 10.5959 32.0006 10.9625 32 11.3291C32 12.2107 31.9595 13.0918 31.9589 13.9734C31.9583 14.9518 31.9982 15.9302 31.9924 16.9086C31.9877 17.6963 31.9366 18.4829 31.9161 19.2707C31.9096 19.51 31.9425 19.7505 31.9442 19.991C31.9484 20.5036 31.9407 21.0157 31.9431 21.5284C31.9466 22.3367 31.9736 23.1456 31.956 23.9538C31.9401 24.6935 31.9812 25.4566 31.811 26.164C31.5963 27.0556 30.8874 27.5718 30.0241 27.8616C29.4238 28.0633 28.8065 28.0141 28.1915 28.01C26.8723 28.0012 25.5525 27.993 24.2333 27.9795C23.3853 27.9707 22.5373 27.9466 21.6894 27.9396C20.9904 27.9337 20.2921 27.9472 19.5932 27.9454C18.6396 27.9425 17.6854 27.9325 16.7318 27.9261C15.7354 27.9196 14.7395 27.912 13.7431 27.9079C12.5195 27.9026 11.296 27.9026 10.0718 27.8968C9.11296 27.8921 8.15407 27.8844 7.19519 27.8727C6.07669 27.8586 4.95818 27.8375 3.84027 27.8217C3.43066 27.8158 3.01929 27.8393 2.61144 27.8094C0.994719 27.692 -0.0404524 26.418 0.00121269 24.7997C0.0205782 24.0524 0.00708102 23.3045 0.0147098 22.5572C0.0235123 21.6463 0.0487461 20.7359 0.0487461 19.825C0.0487461 18.233 0.0340753 16.6405 0.0276201 15.0486C0.0240991 14.2473 0.0182308 13.4461 0.0276201 12.6442C0.035249 11.9873 0.0135362 11.3244 0.0956927 10.6757C0.171394 10.078 0.275263 9.45094 0.534056 8.91833C0.861509 8.24612 1.3433 7.64254 2.24115 7.66425C2.39373 7.66777 2.54865 7.5704 2.6713 7.52992L2.67071 7.52934ZM0.795197 13.0489C0.795197 13.5581 0.791676 14.0496 0.79637 14.5412C0.803412 15.2861 0.821017 16.0316 0.825712 16.7766C0.82982 17.4787 0.819844 18.1802 0.82043 18.8824C0.82043 19.4877 0.835688 20.0936 0.829233 20.699C0.821017 21.4363 0.787568 22.1736 0.78346 22.9115C0.779352 23.6177 0.809281 24.3246 0.804586 25.0308C0.801065 25.5517 0.971833 25.9975 1.31396 26.3799C1.65901 26.7653 2.04104 26.9606 2.61438 26.9401C4.02043 26.8902 5.43 26.9465 6.83839 26.9612C7.82897 26.9717 8.81954 26.9888 9.81011 26.9934C11.1311 26.9999 12.4526 26.9923 13.7736 26.9999C14.4085 27.0034 15.0429 27.0368 15.6778 27.0427C16.8644 27.0527 18.051 27.0486 19.2376 27.058C20.2381 27.0662 21.2387 27.0949 22.2392 27.0979C23.0074 27.1002 23.7755 27.0674 24.5437 27.0656C25.2937 27.0638 26.0431 27.0873 26.793 27.0879C27.3094 27.0879 27.8323 27.0116 28.3405 27.0715C28.8522 27.1319 29.3323 27.1278 29.8264 26.9776C30.4854 26.7776 30.9654 26.2203 31.0282 25.5329C31.0388 25.4167 31.0916 25.3047 31.1256 25.1874C31.1133 24.9551 31.084 24.7035 31.0904 24.4524C31.1039 23.8858 31.1514 23.3192 31.1538 22.7526C31.1555 22.2974 31.0922 21.8416 31.0916 21.3858C31.0898 20.1218 31.1121 18.8577 31.1121 17.5937C31.1121 16.1836 31.0928 14.7735 31.0986 13.3633C31.0992 13.1844 31.064 13.1428 30.8979 13.1487C30.4637 13.1645 30.0282 13.1739 29.5934 13.1756C28.4315 13.1798 27.269 13.1792 26.107 13.1798C25.3207 13.1798 24.5343 13.1798 23.7474 13.1798C23.3225 13.1798 22.8971 13.1798 22.3983 13.1798C23.5872 14.9178 24.0044 16.7584 23.7351 18.741C23.4633 20.7418 22.515 22.3953 20.9816 23.6934C18.8872 25.4672 15.3369 26.4538 11.8934 24.4454C9.90166 23.284 8.68281 21.4985 8.26674 19.2449C7.85185 16.9966 8.35184 14.9025 9.71387 13.0495H0.795197V13.0489ZM15.831 10.8857C12.6158 10.6909 9.24558 13.7898 9.08714 17.474C8.92576 21.2216 11.8435 24.5803 15.8979 24.5897C19.345 24.5973 22.9956 21.8651 22.8413 17.2406C22.7815 15.4492 22.0156 13.9124 20.6853 12.6859C19.4136 11.5139 17.9066 10.9256 15.831 10.8857ZM2.70475 8.46433C2.49055 8.54234 2.00818 8.4567 1.6461 8.82213C1.23297 9.23918 1.08098 9.7583 1.00763 10.3067C0.96127 10.6528 0.980636 11.0077 0.960683 11.3585C0.956576 11.4306 0.893198 11.4981 0.880874 11.5714C0.862096 11.6811 0.835688 11.8037 0.867964 11.9022C0.883808 11.9509 1.02347 11.9808 1.10798 11.982C1.74058 11.9884 2.37378 11.9832 3.00638 11.9867C4.17242 11.9931 5.33786 12.006 6.5039 12.0095C7.26502 12.0119 8.02614 12.0054 8.78726 11.9984C9.26143 11.9943 9.73559 11.989 10.2092 11.9697C10.4087 11.9614 10.6417 11.9738 10.7995 11.8776C11.3347 11.552 11.8241 11.1496 12.3675 10.8405C12.7947 10.5971 13.266 10.4164 13.7354 10.2651C14.1257 10.1396 14.5494 10.1237 14.9461 10.0146C15.6262 9.82751 16.3069 9.89673 16.9853 9.97181C18.0117 10.0856 18.9964 10.3537 19.8678 10.9332C20.3379 11.2452 20.7856 11.5913 21.2457 11.9186C21.3455 11.9896 21.4511 12.0964 21.5585 12.1028C21.9018 12.1228 22.2474 12.1028 22.5925 12.0981C23.3542 12.0876 24.1165 12.0729 24.8782 12.0682C25.4938 12.0647 26.11 12.0782 26.7256 12.0776C27.6645 12.0764 28.6028 12.0688 29.5418 12.0664C30.0312 12.0653 30.52 12.0717 31.0094 12.0647C31.0505 12.0641 31.1274 11.9855 31.1256 11.9462C31.101 11.3954 31.0652 10.8452 31.0335 10.2944C30.9854 9.45915 30.5593 8.91129 29.7419 8.7711C29.1568 8.6708 28.5541 8.66493 27.9585 8.63912C27.293 8.61038 26.6264 8.59748 25.9597 8.59396C25.2215 8.58985 24.4827 8.61742 23.7444 8.60745C22.5778 8.59161 21.4118 8.54586 20.2452 8.53061C19.3731 8.51946 18.5005 8.54293 17.6285 8.54058C16.0358 8.53589 14.4432 8.5265 12.8499 8.5136C11.9362 8.50656 11.0225 8.49248 10.1094 8.47547C9.37468 8.46198 8.63997 8.42444 7.90526 8.42327C7.03733 8.42209 6.16941 8.45377 5.30148 8.46139C4.50632 8.46843 3.71058 8.46315 2.70416 8.46315L2.70475 8.46433ZM22.349 7.72525C21.9481 6.9457 21.5673 6.20428 21.1847 5.46286C20.9687 5.04405 20.7246 4.63697 20.5468 4.20232C20.4775 4.03339 20.4206 3.96417 20.2534 3.96711C19.7921 3.97532 19.3309 3.97825 18.8696 3.98764C17.7464 4.00992 16.6232 4.03632 15.5 4.05861C14.8774 4.07093 14.2542 4.07562 13.6316 4.08735C13.0383 4.0985 12.445 4.10612 11.8529 4.13662C11.7555 4.14132 11.624 4.23223 11.5747 4.32022C11.188 5.01824 10.8165 5.72446 10.4421 6.42952C10.2414 6.80727 10.0437 7.18678 9.81657 7.61908C14.0118 7.65428 18.1502 7.68947 22.3478 7.72466L22.349 7.72525ZM6.18408 7.56394C6.18408 7.42317 6.18584 7.32697 6.18408 7.23019C6.17938 7.04014 6.24276 6.78381 6.14476 6.67881C6.05321 6.58085 5.78914 6.63247 5.60194 6.63775C5.01393 6.65418 4.42651 6.68761 3.83851 6.69817C3.5938 6.70286 3.61316 6.84188 3.63312 7.0067C3.65424 7.17974 3.66657 7.35337 3.68652 7.56394H6.18466H6.18408Z"/>
    </mask>
    <path d="M2.67071 7.52934C2.70944 7.16156 2.78749 6.80962 2.76226 6.46589C2.7517 6.31631 2.73116 6.17847 2.74641 6.02068C2.76578 5.81773 2.8673 5.75966 3.02751 5.75203C3.4958 5.72974 3.96409 5.71977 4.43238 5.70218C4.96347 5.68223 5.49572 5.63296 6.02563 5.64821C6.36189 5.65818 6.69932 5.75027 7.02794 5.83709C7.09249 5.8541 7.15294 6.0154 7.15587 6.11219C7.16937 6.57206 7.16174 7.0331 7.16174 7.5399C7.56372 7.5704 8.02732 7.61732 8.49209 7.63609C8.85299 7.65076 8.89818 7.29882 9.02963 7.08472C9.31072 6.62719 9.54721 6.14269 9.79427 5.66463C10.012 5.24348 10.2015 4.80707 10.4345 4.3953C10.6487 4.01638 10.8852 3.64567 11.1528 3.30428C11.2373 3.19635 11.4544 3.15412 11.6123 3.15001C12.4215 3.12949 13.2313 3.12714 14.0406 3.12538C14.7782 3.12362 15.5159 3.1418 16.2535 3.13007C16.8615 3.1201 17.4689 3.07259 18.0762 3.05264C18.4254 3.0415 18.7751 3.05851 19.1249 3.05147C19.4154 3.04561 19.7065 3.0286 19.9963 3.00748C20.7804 2.95117 21.1659 3.20809 21.4881 3.94012C21.7979 4.64401 22.1899 5.31211 22.5473 5.99487C22.6987 6.28346 22.8712 6.56267 22.9992 6.86123C23.0743 7.03662 23.0925 7.23957 23.1142 7.43314C23.1388 7.65545 23.2198 7.72994 23.4663 7.72701C24.1846 7.71763 24.9034 7.76044 25.6223 7.76807C26.4527 7.77687 27.2836 7.76162 28.114 7.77276C28.6357 7.78039 29.1721 7.75047 29.675 7.85899C30.3117 7.99683 30.9255 8.22911 31.3656 8.78753C31.7072 9.22041 31.9043 9.67618 31.9143 10.2281C31.9208 10.5959 32.0006 10.9625 32 11.3291C32 12.2107 31.9595 13.0918 31.9589 13.9734C31.9583 14.9518 31.9982 15.9302 31.9924 16.9086C31.9877 17.6963 31.9366 18.4829 31.9161 19.2707C31.9096 19.51 31.9425 19.7505 31.9442 19.991C31.9484 20.5036 31.9407 21.0157 31.9431 21.5284C31.9466 22.3367 31.9736 23.1456 31.956 23.9538C31.9401 24.6935 31.9812 25.4566 31.811 26.164C31.5963 27.0556 30.8874 27.5718 30.0241 27.8616C29.4238 28.0633 28.8065 28.0141 28.1915 28.01C26.8723 28.0012 25.5525 27.993 24.2333 27.9795C23.3853 27.9707 22.5373 27.9466 21.6894 27.9396C20.9904 27.9337 20.2921 27.9472 19.5932 27.9454C18.6396 27.9425 17.6854 27.9325 16.7318 27.9261C15.7354 27.9196 14.7395 27.912 13.7431 27.9079C12.5195 27.9026 11.296 27.9026 10.0718 27.8968C9.11296 27.8921 8.15407 27.8844 7.19519 27.8727C6.07669 27.8586 4.95818 27.8375 3.84027 27.8217C3.43066 27.8158 3.01929 27.8393 2.61144 27.8094C0.994719 27.692 -0.0404524 26.418 0.00121269 24.7997C0.0205782 24.0524 0.00708102 23.3045 0.0147098 22.5572C0.0235123 21.6463 0.0487461 20.7359 0.0487461 19.825C0.0487461 18.233 0.0340753 16.6405 0.0276201 15.0486C0.0240991 14.2473 0.0182308 13.4461 0.0276201 12.6442C0.035249 11.9873 0.0135362 11.3244 0.0956927 10.6757C0.171394 10.078 0.275263 9.45094 0.534056 8.91833C0.861509 8.24612 1.3433 7.64254 2.24115 7.66425C2.39373 7.66777 2.54865 7.5704 2.6713 7.52992L2.67071 7.52934ZM0.795197 13.0489C0.795197 13.5581 0.791676 14.0496 0.79637 14.5412C0.803412 15.2861 0.821017 16.0316 0.825712 16.7766C0.82982 17.4787 0.819844 18.1802 0.82043 18.8824C0.82043 19.4877 0.835688 20.0936 0.829233 20.699C0.821017 21.4363 0.787568 22.1736 0.78346 22.9115C0.779352 23.6177 0.809281 24.3246 0.804586 25.0308C0.801065 25.5517 0.971833 25.9975 1.31396 26.3799C1.65901 26.7653 2.04104 26.9606 2.61438 26.9401C4.02043 26.8902 5.43 26.9465 6.83839 26.9612C7.82897 26.9717 8.81954 26.9888 9.81011 26.9934C11.1311 26.9999 12.4526 26.9923 13.7736 26.9999C14.4085 27.0034 15.0429 27.0368 15.6778 27.0427C16.8644 27.0527 18.051 27.0486 19.2376 27.058C20.2381 27.0662 21.2387 27.0949 22.2392 27.0979C23.0074 27.1002 23.7755 27.0674 24.5437 27.0656C25.2937 27.0638 26.0431 27.0873 26.793 27.0879C27.3094 27.0879 27.8323 27.0116 28.3405 27.0715C28.8522 27.1319 29.3323 27.1278 29.8264 26.9776C30.4854 26.7776 30.9654 26.2203 31.0282 25.5329C31.0388 25.4167 31.0916 25.3047 31.1256 25.1874C31.1133 24.9551 31.084 24.7035 31.0904 24.4524C31.1039 23.8858 31.1514 23.3192 31.1538 22.7526C31.1555 22.2974 31.0922 21.8416 31.0916 21.3858C31.0898 20.1218 31.1121 18.8577 31.1121 17.5937C31.1121 16.1836 31.0928 14.7735 31.0986 13.3633C31.0992 13.1844 31.064 13.1428 30.8979 13.1487C30.4637 13.1645 30.0282 13.1739 29.5934 13.1756C28.4315 13.1798 27.269 13.1792 26.107 13.1798C25.3207 13.1798 24.5343 13.1798 23.7474 13.1798C23.3225 13.1798 22.8971 13.1798 22.3983 13.1798C23.5872 14.9178 24.0044 16.7584 23.7351 18.741C23.4633 20.7418 22.515 22.3953 20.9816 23.6934C18.8872 25.4672 15.3369 26.4538 11.8934 24.4454C9.90166 23.284 8.68281 21.4985 8.26674 19.2449C7.85185 16.9966 8.35184 14.9025 9.71387 13.0495H0.795197V13.0489ZM15.831 10.8857C12.6158 10.6909 9.24558 13.7898 9.08714 17.474C8.92576 21.2216 11.8435 24.5803 15.8979 24.5897C19.345 24.5973 22.9956 21.8651 22.8413 17.2406C22.7815 15.4492 22.0156 13.9124 20.6853 12.6859C19.4136 11.5139 17.9066 10.9256 15.831 10.8857ZM2.70475 8.46433C2.49055 8.54234 2.00818 8.4567 1.6461 8.82213C1.23297 9.23918 1.08098 9.7583 1.00763 10.3067C0.96127 10.6528 0.980636 11.0077 0.960683 11.3585C0.956576 11.4306 0.893198 11.4981 0.880874 11.5714C0.862096 11.6811 0.835688 11.8037 0.867964 11.9022C0.883808 11.9509 1.02347 11.9808 1.10798 11.982C1.74058 11.9884 2.37378 11.9832 3.00638 11.9867C4.17242 11.9931 5.33786 12.006 6.5039 12.0095C7.26502 12.0119 8.02614 12.0054 8.78726 11.9984C9.26143 11.9943 9.73559 11.989 10.2092 11.9697C10.4087 11.9614 10.6417 11.9738 10.7995 11.8776C11.3347 11.552 11.8241 11.1496 12.3675 10.8405C12.7947 10.5971 13.266 10.4164 13.7354 10.2651C14.1257 10.1396 14.5494 10.1237 14.9461 10.0146C15.6262 9.82751 16.3069 9.89673 16.9853 9.97181C18.0117 10.0856 18.9964 10.3537 19.8678 10.9332C20.3379 11.2452 20.7856 11.5913 21.2457 11.9186C21.3455 11.9896 21.4511 12.0964 21.5585 12.1028C21.9018 12.1228 22.2474 12.1028 22.5925 12.0981C23.3542 12.0876 24.1165 12.0729 24.8782 12.0682C25.4938 12.0647 26.11 12.0782 26.7256 12.0776C27.6645 12.0764 28.6028 12.0688 29.5418 12.0664C30.0312 12.0653 30.52 12.0717 31.0094 12.0647C31.0505 12.0641 31.1274 11.9855 31.1256 11.9462C31.101 11.3954 31.0652 10.8452 31.0335 10.2944C30.9854 9.45915 30.5593 8.91129 29.7419 8.7711C29.1568 8.6708 28.5541 8.66493 27.9585 8.63912C27.293 8.61038 26.6264 8.59748 25.9597 8.59396C25.2215 8.58985 24.4827 8.61742 23.7444 8.60745C22.5778 8.59161 21.4118 8.54586 20.2452 8.53061C19.3731 8.51946 18.5005 8.54293 17.6285 8.54058C16.0358 8.53589 14.4432 8.5265 12.8499 8.5136C11.9362 8.50656 11.0225 8.49248 10.1094 8.47547C9.37468 8.46198 8.63997 8.42444 7.90526 8.42327C7.03733 8.42209 6.16941 8.45377 5.30148 8.46139C4.50632 8.46843 3.71058 8.46315 2.70416 8.46315L2.70475 8.46433ZM22.349 7.72525C21.9481 6.9457 21.5673 6.20428 21.1847 5.46286C20.9687 5.04405 20.7246 4.63697 20.5468 4.20232C20.4775 4.03339 20.4206 3.96417 20.2534 3.96711C19.7921 3.97532 19.3309 3.97825 18.8696 3.98764C17.7464 4.00992 16.6232 4.03632 15.5 4.05861C14.8774 4.07093 14.2542 4.07562 13.6316 4.08735C13.0383 4.0985 12.445 4.10612 11.8529 4.13662C11.7555 4.14132 11.624 4.23223 11.5747 4.32022C11.188 5.01824 10.8165 5.72446 10.4421 6.42952C10.2414 6.80727 10.0437 7.18678 9.81657 7.61908C14.0118 7.65428 18.1502 7.68947 22.3478 7.72466L22.349 7.72525ZM6.18408 7.56394C6.18408 7.42317 6.18584 7.32697 6.18408 7.23019C6.17938 7.04014 6.24276 6.78381 6.14476 6.67881C6.05321 6.58085 5.78914 6.63247 5.60194 6.63775C5.01393 6.65418 4.42651 6.68761 3.83851 6.69817C3.5938 6.70286 3.61316 6.84188 3.63312 7.0067C3.65424 7.17974 3.66657 7.35337 3.68652 7.56394H6.18466H6.18408Z"
          fill="currentColor"/>
    <path d="M2.67071 7.52934C2.70944 7.16156 2.78749 6.80962 2.76226 6.46589C2.7517 6.31631 2.73116 6.17847 2.74641 6.02068C2.76578 5.81773 2.8673 5.75966 3.02751 5.75203C3.4958 5.72974 3.96409 5.71977 4.43238 5.70218C4.96347 5.68223 5.49572 5.63296 6.02563 5.64821C6.36189 5.65818 6.69932 5.75027 7.02794 5.83709C7.09249 5.8541 7.15294 6.0154 7.15587 6.11219C7.16937 6.57206 7.16174 7.0331 7.16174 7.5399C7.56372 7.5704 8.02732 7.61732 8.49209 7.63609C8.85299 7.65076 8.89818 7.29882 9.02963 7.08472C9.31072 6.62719 9.54721 6.14269 9.79427 5.66463C10.012 5.24348 10.2015 4.80707 10.4345 4.3953C10.6487 4.01638 10.8852 3.64567 11.1528 3.30428C11.2373 3.19635 11.4544 3.15412 11.6123 3.15001C12.4215 3.12949 13.2313 3.12714 14.0406 3.12538C14.7782 3.12362 15.5159 3.1418 16.2535 3.13007C16.8615 3.1201 17.4689 3.07259 18.0762 3.05264C18.4254 3.0415 18.7751 3.05851 19.1249 3.05147C19.4154 3.04561 19.7065 3.0286 19.9963 3.00748C20.7804 2.95117 21.1659 3.20809 21.4881 3.94012C21.7979 4.64401 22.1899 5.31211 22.5473 5.99487C22.6987 6.28346 22.8712 6.56267 22.9992 6.86123C23.0743 7.03662 23.0925 7.23957 23.1142 7.43314C23.1388 7.65545 23.2198 7.72994 23.4663 7.72701C24.1846 7.71763 24.9034 7.76044 25.6223 7.76807C26.4527 7.77687 27.2836 7.76162 28.114 7.77276C28.6357 7.78039 29.1721 7.75047 29.675 7.85899C30.3117 7.99683 30.9255 8.22911 31.3656 8.78753C31.7072 9.22041 31.9043 9.67618 31.9143 10.2281C31.9208 10.5959 32.0006 10.9625 32 11.3291C32 12.2107 31.9595 13.0918 31.9589 13.9734C31.9583 14.9518 31.9982 15.9302 31.9924 16.9086C31.9877 17.6963 31.9366 18.4829 31.9161 19.2707C31.9096 19.51 31.9425 19.7505 31.9442 19.991C31.9484 20.5036 31.9407 21.0157 31.9431 21.5284C31.9466 22.3367 31.9736 23.1456 31.956 23.9538C31.9401 24.6935 31.9812 25.4566 31.811 26.164C31.5963 27.0556 30.8874 27.5718 30.0241 27.8616C29.4238 28.0633 28.8065 28.0141 28.1915 28.01C26.8723 28.0012 25.5525 27.993 24.2333 27.9795C23.3853 27.9707 22.5373 27.9466 21.6894 27.9396C20.9904 27.9337 20.2921 27.9472 19.5932 27.9454C18.6396 27.9425 17.6854 27.9325 16.7318 27.9261C15.7354 27.9196 14.7395 27.912 13.7431 27.9079C12.5195 27.9026 11.296 27.9026 10.0718 27.8968C9.11296 27.8921 8.15407 27.8844 7.19519 27.8727C6.07669 27.8586 4.95818 27.8375 3.84027 27.8217C3.43066 27.8158 3.01929 27.8393 2.61144 27.8094C0.994719 27.692 -0.0404524 26.418 0.00121269 24.7997C0.0205782 24.0524 0.00708102 23.3045 0.0147098 22.5572C0.0235123 21.6463 0.0487461 20.7359 0.0487461 19.825C0.0487461 18.233 0.0340753 16.6405 0.0276201 15.0486C0.0240991 14.2473 0.0182308 13.4461 0.0276201 12.6442C0.035249 11.9873 0.0135362 11.3244 0.0956927 10.6757C0.171394 10.078 0.275263 9.45094 0.534056 8.91833C0.861509 8.24612 1.3433 7.64254 2.24115 7.66425C2.39373 7.66777 2.54865 7.5704 2.6713 7.52992L2.67071 7.52934ZM0.795197 13.0489C0.795197 13.5581 0.791676 14.0496 0.79637 14.5412C0.803412 15.2861 0.821017 16.0316 0.825712 16.7766C0.82982 17.4787 0.819844 18.1802 0.82043 18.8824C0.82043 19.4877 0.835688 20.0936 0.829233 20.699C0.821017 21.4363 0.787568 22.1736 0.78346 22.9115C0.779352 23.6177 0.809281 24.3246 0.804586 25.0308C0.801065 25.5517 0.971833 25.9975 1.31396 26.3799C1.65901 26.7653 2.04104 26.9606 2.61438 26.9401C4.02043 26.8902 5.43 26.9465 6.83839 26.9612C7.82897 26.9717 8.81954 26.9888 9.81011 26.9934C11.1311 26.9999 12.4526 26.9923 13.7736 26.9999C14.4085 27.0034 15.0429 27.0368 15.6778 27.0427C16.8644 27.0527 18.051 27.0486 19.2376 27.058C20.2381 27.0662 21.2387 27.0949 22.2392 27.0979C23.0074 27.1002 23.7755 27.0674 24.5437 27.0656C25.2937 27.0638 26.0431 27.0873 26.793 27.0879C27.3094 27.0879 27.8323 27.0116 28.3405 27.0715C28.8522 27.1319 29.3323 27.1278 29.8264 26.9776C30.4854 26.7776 30.9654 26.2203 31.0282 25.5329C31.0388 25.4167 31.0916 25.3047 31.1256 25.1874C31.1133 24.9551 31.084 24.7035 31.0904 24.4524C31.1039 23.8858 31.1514 23.3192 31.1538 22.7526C31.1555 22.2974 31.0922 21.8416 31.0916 21.3858C31.0898 20.1218 31.1121 18.8577 31.1121 17.5937C31.1121 16.1836 31.0928 14.7735 31.0986 13.3633C31.0992 13.1844 31.064 13.1428 30.8979 13.1487C30.4637 13.1645 30.0282 13.1739 29.5934 13.1756C28.4315 13.1798 27.269 13.1792 26.107 13.1798C25.3207 13.1798 24.5343 13.1798 23.7474 13.1798C23.3225 13.1798 22.8971 13.1798 22.3983 13.1798C23.5872 14.9178 24.0044 16.7584 23.7351 18.741C23.4633 20.7418 22.515 22.3953 20.9816 23.6934C18.8872 25.4672 15.3369 26.4538 11.8934 24.4454C9.90166 23.284 8.68281 21.4985 8.26674 19.2449C7.85185 16.9966 8.35184 14.9025 9.71387 13.0495H0.795197V13.0489ZM15.831 10.8857C12.6158 10.6909 9.24558 13.7898 9.08714 17.474C8.92576 21.2216 11.8435 24.5803 15.8979 24.5897C19.345 24.5973 22.9956 21.8651 22.8413 17.2406C22.7815 15.4492 22.0156 13.9124 20.6853 12.6859C19.4136 11.5139 17.9066 10.9256 15.831 10.8857ZM2.70475 8.46433C2.49055 8.54234 2.00818 8.4567 1.6461 8.82213C1.23297 9.23918 1.08098 9.7583 1.00763 10.3067C0.96127 10.6528 0.980636 11.0077 0.960683 11.3585C0.956576 11.4306 0.893198 11.4981 0.880874 11.5714C0.862096 11.6811 0.835688 11.8037 0.867964 11.9022C0.883808 11.9509 1.02347 11.9808 1.10798 11.982C1.74058 11.9884 2.37378 11.9832 3.00638 11.9867C4.17242 11.9931 5.33786 12.006 6.5039 12.0095C7.26502 12.0119 8.02614 12.0054 8.78726 11.9984C9.26143 11.9943 9.73559 11.989 10.2092 11.9697C10.4087 11.9614 10.6417 11.9738 10.7995 11.8776C11.3347 11.552 11.8241 11.1496 12.3675 10.8405C12.7947 10.5971 13.266 10.4164 13.7354 10.2651C14.1257 10.1396 14.5494 10.1237 14.9461 10.0146C15.6262 9.82751 16.3069 9.89673 16.9853 9.97181C18.0117 10.0856 18.9964 10.3537 19.8678 10.9332C20.3379 11.2452 20.7856 11.5913 21.2457 11.9186C21.3455 11.9896 21.4511 12.0964 21.5585 12.1028C21.9018 12.1228 22.2474 12.1028 22.5925 12.0981C23.3542 12.0876 24.1165 12.0729 24.8782 12.0682C25.4938 12.0647 26.11 12.0782 26.7256 12.0776C27.6645 12.0764 28.6028 12.0688 29.5418 12.0664C30.0312 12.0653 30.52 12.0717 31.0094 12.0647C31.0505 12.0641 31.1274 11.9855 31.1256 11.9462C31.101 11.3954 31.0652 10.8452 31.0335 10.2944C30.9854 9.45915 30.5593 8.91129 29.7419 8.7711C29.1568 8.6708 28.5541 8.66493 27.9585 8.63912C27.293 8.61038 26.6264 8.59748 25.9597 8.59396C25.2215 8.58985 24.4827 8.61742 23.7444 8.60745C22.5778 8.59161 21.4118 8.54586 20.2452 8.53061C19.3731 8.51946 18.5005 8.54293 17.6285 8.54058C16.0358 8.53589 14.4432 8.5265 12.8499 8.5136C11.9362 8.50656 11.0225 8.49248 10.1094 8.47547C9.37468 8.46198 8.63997 8.42444 7.90526 8.42327C7.03733 8.42209 6.16941 8.45377 5.30148 8.46139C4.50632 8.46843 3.71058 8.46315 2.70416 8.46315L2.70475 8.46433ZM22.349 7.72525C21.9481 6.9457 21.5673 6.20428 21.1847 5.46286C20.9687 5.04405 20.7246 4.63697 20.5468 4.20232C20.4775 4.03339 20.4206 3.96417 20.2534 3.96711C19.7921 3.97532 19.3309 3.97825 18.8696 3.98764C17.7464 4.00992 16.6232 4.03632 15.5 4.05861C14.8774 4.07093 14.2542 4.07562 13.6316 4.08735C13.0383 4.0985 12.445 4.10612 11.8529 4.13662C11.7555 4.14132 11.624 4.23223 11.5747 4.32022C11.188 5.01824 10.8165 5.72446 10.4421 6.42952C10.2414 6.80727 10.0437 7.18678 9.81657 7.61908C14.0118 7.65428 18.1502 7.68947 22.3478 7.72466L22.349 7.72525ZM6.18408 7.56394C6.18408 7.42317 6.18584 7.32697 6.18408 7.23019C6.17938 7.04014 6.24276 6.78381 6.14476 6.67881C6.05321 6.58085 5.78914 6.63247 5.60194 6.63775C5.01393 6.65418 4.42651 6.68761 3.83851 6.69817C3.5938 6.70286 3.61316 6.84188 3.63312 7.0067C3.65424 7.17974 3.66657 7.35337 3.68652 7.56394H6.18466H6.18408Z"
          stroke="currentColor" mask="url(#path-1-outside-1_2789_10158)"/>
    <path d="M10.8047 17.3251L10.805 17.3251C10.8709 16.0599 11.3943 15.0893 12.2644 14.2494L12.2645 14.2494C13.0379 13.5031 13.9502 13.0353 14.9755 12.737L14.9756 12.737C15.5795 12.5615 16.1588 12.6512 16.6956 12.8027L16.6957 12.8028C16.803 12.8331 16.9029 12.9108 16.9596 12.9616C16.9919 12.9905 17.025 13.0241 17.0516 13.0584C17.0639 13.0743 17.0822 13.0997 17.0967 13.1312C17.1039 13.1469 17.1147 13.1735 17.1199 13.2076C17.1249 13.2406 17.1277 13.3022 17.0933 13.3678L17.0923 13.3697L17.0923 13.3697C17.0899 13.3741 17.0875 13.3785 17.0851 13.3831C17.0063 13.5303 16.8774 13.7708 16.6614 13.9005L16.661 13.9008C16.5417 13.9721 16.4061 13.9876 16.3058 13.9917C16.2355 13.9946 16.1545 13.992 16.0894 13.9898C16.0638 13.989 16.0406 13.9882 16.0215 13.9879L16.0256 13.738M10.8047 17.3251L12.6624 15.8855C12.8875 15.5504 13.2128 15.2609 13.558 14.9538C13.565 14.9475 13.5721 14.9412 13.5791 14.935C14.2661 14.3238 15.0643 13.974 16.0219 13.9879L16.0256 13.738M10.8047 17.3251V17.3381M10.8047 17.3251V17.3381M16.0256 13.738C14.997 13.7229 14.1398 14.1014 13.4129 14.7482C13.4022 14.7578 13.3914 14.7673 13.3806 14.7769C13.0442 15.0762 12.6979 15.3843 12.4548 15.7462C12.257 16.041 12.1563 16.3989 12.0588 16.7461C12.0476 16.7857 12.0365 16.8252 12.0253 16.8644M16.0256 13.738C16.053 13.7384 16.0814 13.7394 16.1102 13.7403C16.2616 13.7453 16.4248 13.7508 16.5327 13.6862C16.6856 13.5944 16.7859 13.4118 16.872 13.2515C16.8863 13.2242 16.728 13.0717 16.6277 13.0433C16.1092 12.8969 15.5835 12.8207 15.0454 12.9771L12.0253 16.8644M12.0253 16.8644L12.2657 16.933C12.2769 16.8939 12.2878 16.8552 12.2986 16.817C12.3985 16.4629 12.4882 16.1451 12.6623 15.8856L12.0253 16.8644ZM12.0253 16.8644L12.2657 16.933C12.2233 17.0815 12.1981 17.237 12.1708 17.4093L12.1684 17.4244C12.1426 17.5878 12.1142 17.7669 12.0657 17.9433L12.0655 17.9436C12.0306 18.0696 11.9359 18.1661 11.8632 18.2238C11.7861 18.285 11.6798 18.3453 11.5667 18.364L11.5655 18.3642C11.4733 18.3789 11.327 18.3917 11.1885 18.3377C11.1141 18.3087 11.0403 18.2598 10.9827 18.1828C10.9256 18.1064 10.8949 18.0163 10.8844 17.9209L10.8844 17.9205C10.8687 17.7762 10.8472 17.6364 10.8284 17.5147C10.8207 17.4644 10.8134 17.4172 10.8072 17.3741L10.8047 17.3565V17.3386V17.3381M12.0253 16.8644L10.8047 17.3381"
          fill="currentColor" stroke="currentColor" stroke-width="0.5"/>
</svg>
