<svg viewBox="0 0 32 32" fill="none" xmlns="http://www.w3.org/2000/svg">
    <path d="M17.1903 4.59386C17.1903 5.21964 17.19 5.84506 17.1903 6.47084C17.191 7.14759 17.1876 7.82433 17.1957 8.50072C17.2004 8.88077 17.2298 9.26046 17.2382 9.64088C17.2455 9.97215 17.2375 10.3038 17.2395 10.6351C17.2412 10.9445 17.2479 11.2539 17.2499 11.5634C17.2532 12.0705 17.2526 12.5772 17.2583 13.0843C17.2616 13.3897 17.2763 13.6952 17.2807 14.0006C17.2857 14.3453 17.2817 14.6904 17.2874 15.0356C17.2977 15.6774 17.3158 16.3192 17.3235 16.9609C17.3299 17.4706 17.3232 17.9803 17.3275 18.4895C17.3326 19.0727 17.3399 19.6563 17.354 20.2391C17.3607 20.515 17.3951 20.7903 17.3995 21.0662C17.4028 21.2712 17.3677 21.4765 17.3687 21.6818C17.3697 21.9155 17.4002 22.1492 17.4028 22.3829C17.4062 22.7095 17.3911 23.036 17.3918 23.3626C17.3928 23.8376 17.3981 24.3127 17.4062 24.7878C17.4139 25.2508 17.4329 25.7142 17.436 26.1773C17.4393 26.6385 17.4226 27.1001 17.4269 27.5614C17.4303 27.9309 17.4711 28.3011 17.4597 28.6699C17.45 28.9862 17.5584 29.2549 17.6458 29.5414C17.7037 29.731 17.6886 29.9491 17.697 30.1548C17.7017 30.2691 17.6933 30.3852 17.6806 30.4995C17.6391 30.8672 17.4835 31.1908 17.2686 31.4598C17.0253 31.7645 16.7078 31.9466 16.3182 31.991C15.9354 32.0347 15.6105 31.9265 15.3193 31.6746C14.8926 31.3051 14.7457 30.7896 14.7487 30.2268C14.7504 29.8828 14.8388 29.5512 14.9823 29.2308C15.0533 29.0721 15.0158 28.8526 15.0165 28.6604C15.0191 27.8846 15.0178 27.1085 15.0178 26.3327C15.0178 25.7692 15.0181 25.2053 15.0168 24.6418C15.0151 23.9872 15.0081 23.3327 15.0104 22.6782C15.0124 22.1219 15.0295 21.5657 15.0312 21.0094C15.0329 20.4568 15.0205 19.9038 15.0208 19.3512C15.0215 18.4917 15.0278 17.6322 15.0322 16.7727C15.0339 16.4502 15.0392 16.128 15.0375 15.8055C15.0359 15.5023 15.0215 15.1986 15.0225 14.8954C15.0238 14.4363 15.0369 13.9773 15.0385 13.5182C15.0406 12.9915 15.0332 12.4651 15.0339 11.9383C15.0345 11.3595 15.0432 10.7807 15.0419 10.2015C15.0409 9.69731 15.0248 9.19275 15.0268 8.68856C15.0288 8.14833 15.0509 7.60809 15.0529 7.06786C15.0559 6.23458 15.066 5.40057 15.0382 4.56802C15.0275 4.24621 14.9248 3.92768 14.8578 3.60914C14.8478 3.56109 14.811 3.51267 14.7748 3.47918C14.399 3.1308 14.0152 2.79224 13.6454 2.43658C13.453 2.25128 13.2565 2.05798 13.1116 1.83082C12.9162 1.52503 13.0096 1.18829 13.1465 0.883957C13.2964 0.550862 13.5333 0.305137 13.8526 0.157338C14.2341 -0.0192207 14.5637 0.115109 14.7839 0.495528C14.8455 0.602191 15.0074 0.664442 15.1346 0.697569C15.5111 0.795495 15.8952 0.831171 16.2734 0.707034C16.5726 0.609108 16.863 0.479511 17.1632 0.386681C17.5819 0.257084 18.0008 0.0954512 18.4295 0.0433938C19.0075 -0.0272295 19.5961 -0.022133 20.169 0.13768C20.673 0.278198 21.1385 0.526836 21.4828 0.946935C21.8981 1.45404 22.0524 2.08492 21.9858 2.76203C21.948 3.14645 21.7887 3.47736 21.5046 3.72454C21.3671 3.84431 21.2375 3.98155 21.0853 4.07438C20.6914 4.31465 20.2534 4.13918 20.0987 3.61387C19.9217 3.01248 19.5958 2.52759 19.0289 2.33028C18.5761 2.17265 18.1531 2.32081 17.8138 2.69068C17.4447 3.09294 17.2542 3.58912 17.199 4.1501C17.1846 4.29717 17.1763 4.44497 17.1649 4.59277C17.1733 4.59314 17.182 4.59386 17.1903 4.59423V4.59386ZM16.8118 28.7332C16.8118 28.3593 16.8172 28.0342 16.8105 27.7095C16.8001 27.1999 16.776 26.6902 16.7683 26.1802C16.7573 25.4394 16.7566 24.6986 16.7503 23.9578C16.7463 23.4761 16.7396 22.9941 16.7359 22.5125C16.7319 22.0065 16.7339 21.5005 16.7258 20.9945C16.7155 20.337 16.6937 19.6796 16.685 19.0218C16.678 18.4764 16.6833 17.9307 16.682 17.3854C16.6817 17.1732 16.6803 16.9606 16.6753 16.7484C16.6612 16.1433 16.6395 15.5387 16.6321 14.9336C16.6254 14.3832 16.6398 13.8324 16.6345 13.282C16.6288 12.678 16.608 12.0745 16.5993 11.4709C16.594 11.0857 16.6027 10.7006 16.5973 10.3154C16.587 9.56589 16.5679 8.8167 16.5582 8.06715C16.5491 7.36383 16.5471 6.66051 16.5418 5.95718C16.5411 5.86727 16.514 5.83851 16.4186 5.85161C16.1747 5.88547 15.9284 5.89712 15.6757 5.9186C15.6653 5.94845 15.6439 5.98121 15.6439 6.01361C15.6446 6.26916 15.651 6.52508 15.652 6.78064C15.6536 7.16178 15.654 7.5433 15.6516 7.92444C15.6496 8.21313 15.6386 8.50181 15.6389 8.79013C15.6396 9.4818 15.6486 10.1735 15.6459 10.8651C15.6433 11.4993 15.6269 12.1331 15.6215 12.7672C15.6182 13.1884 15.6232 13.6096 15.6252 14.0308C15.6272 14.4043 15.6325 14.7782 15.6329 15.1517C15.6329 15.7738 15.6295 16.3956 15.6289 17.0177C15.6289 17.4262 15.6342 17.8346 15.6315 18.2431C15.6285 18.6985 15.6141 19.1543 15.6138 19.6097C15.6138 20.0494 15.6309 20.4892 15.6312 20.9286C15.6319 21.4452 15.6202 21.9614 15.6192 22.4779C15.6178 23.1325 15.6228 23.7867 15.6238 24.4412C15.6248 25.1325 15.6282 25.8238 15.6228 26.5148C15.6175 27.1988 15.6044 27.8828 15.59 28.5665C15.5874 28.6924 15.6265 28.7361 15.743 28.7339C16.0873 28.7277 16.4317 28.7317 16.8112 28.7317L16.8118 28.7332ZM16.5194 5.13155C16.5194 4.85197 16.5043 4.58403 16.5224 4.31865C16.5619 3.74202 16.6924 3.19196 16.9842 2.69905C17.2265 2.28987 17.5397 1.96406 17.946 1.75364C18.1943 1.62514 18.4543 1.56543 18.7334 1.5789C19.1818 1.60075 19.5774 1.75692 19.918 2.07363C20.3216 2.44895 20.5753 2.93203 20.7567 3.49993C20.8269 3.44969 20.8932 3.41948 20.9374 3.36706C21.0675 3.21198 21.2396 3.06818 21.3008 2.88289C21.3868 2.62406 21.4136 2.32773 21.3062 2.05616C21.2131 1.82099 21.1325 1.56216 20.9812 1.37614C20.7055 1.03758 20.3216 0.861022 19.9164 0.785302C19.6025 0.726692 19.2792 0.705942 18.9603 0.707762C18.6882 0.709219 18.4081 0.731425 18.1457 0.80496C17.5568 0.96987 16.9748 1.16427 16.3942 1.3623C16.1211 1.4555 15.846 1.48061 15.5673 1.45258C15.0409 1.3998 14.5403 1.26802 14.146 0.841364C14.1223 0.815518 14.0296 0.82207 14.0028 0.850829C13.9014 0.959312 13.8037 1.07544 13.7244 1.20322C13.6434 1.33391 13.638 1.48207 13.7465 1.60512C13.8255 1.69467 13.9145 1.77366 14.0021 1.85339C14.3043 2.1286 14.6072 2.40272 14.911 2.67539C15.1908 2.92621 15.4354 3.19305 15.5332 3.60041C15.6429 4.05764 15.6898 4.51742 15.6878 4.98557C15.6871 5.12281 15.7005 5.19598 15.8614 5.17086C16.0753 5.13737 16.2941 5.1432 16.5184 5.13155H16.5194ZM17.1532 30.0892C17.1549 29.8559 17.1023 29.6462 17.0033 29.4376C16.9413 29.3073 16.8707 29.2636 16.7496 29.2654C16.4933 29.2698 16.2366 29.2654 15.9806 29.2738C15.8651 29.2774 15.7102 29.2585 15.6443 29.3288C15.5214 29.4598 15.4224 29.6378 15.3645 29.8158C15.2708 30.1045 15.3002 30.4049 15.3749 30.7019C15.5201 31.2793 16.1533 31.62 16.6418 31.2411C17.0059 30.9586 17.1532 30.5632 17.1539 30.0896L17.1532 30.0892Z"
          fill="currentColor"/>
</svg>
