<svg viewBox="0 0 32 32" fill="none" xmlns="http://www.w3.org/2000/svg">
    <path d="M3.93522 3.45438V22.6314C5.97456 22.4853 8.01364 22.6307 9.98908 23.0552C11.8399 23.453 13.6398 24.0966 15.3366 24.975V5.98779C13.5691 4.98784 11.6634 4.26774 9.69092 3.84402C7.8107 3.44054 5.87151 3.30588 3.93528 3.45419L3.93522 3.45438ZM6.47699 20.0466C6.09739 20.1296 5.72098 19.8922 5.63712 19.5168C5.55327 19.1414 5.79326 18.7691 6.17285 18.6861C7.52601 18.3905 8.93316 18.3893 10.2436 18.6534C11.5684 18.9208 12.8022 19.4594 13.7944 20.2391C14.0993 20.4792 14.1504 20.9185 13.9077 21.22C13.6649 21.5215 13.2207 21.572 12.9159 21.332C12.0982 20.6897 11.0716 20.2435 9.96221 20.0198C8.8387 19.7929 7.63377 19.7939 6.47699 20.0466ZM6.47699 11.328C6.09739 11.411 5.72098 11.1736 5.63712 10.7982C5.55326 10.4228 5.79326 10.0505 6.17285 9.96754C7.52601 9.67188 8.93316 9.67066 10.2436 9.93485C11.5684 10.2022 12.8022 10.7408 13.7944 11.5205C14.0993 11.7606 14.1504 12.1999 13.9077 12.5014C13.6649 12.8029 13.2207 12.8534 12.9159 12.6134C12.0982 11.9711 11.0716 11.5249 9.96221 11.3012C8.8387 11.0743 7.63377 11.0753 6.47699 11.328ZM6.47699 15.6871C6.09739 15.77 5.72098 15.5327 5.63712 15.1572C5.55327 14.7818 5.79326 14.4095 6.17285 14.3266C7.52601 14.0309 8.93316 14.0297 10.2436 14.2939C11.5684 14.5613 12.8022 15.0999 13.7944 15.8796C14.0993 16.1196 14.1504 16.5589 13.9077 16.8605C13.6649 17.162 13.2207 17.2125 12.9159 16.9724C12.0982 16.3301 11.0716 15.8839 9.96221 15.6602C8.8387 15.4334 7.63377 15.4344 6.47699 15.6871ZM6.47699 6.96911C6.09739 7.05205 5.72098 6.81469 5.63712 6.43926C5.55326 6.06383 5.79326 5.69155 6.17285 5.60862C7.52601 5.31296 8.93316 5.31174 10.2436 5.57593C11.5684 5.84329 12.8022 6.38191 13.7944 7.16159C14.0993 7.40163 14.1504 7.84098 13.9077 8.14248C13.6649 8.44399 13.2207 8.4945 12.9159 8.25446C12.0982 7.61216 11.0716 7.16596 9.96221 6.94227C8.8387 6.7154 7.63377 6.71638 6.47699 6.96911ZM25.8272 18.7228C26.2068 18.8057 26.4471 19.178 26.363 19.5534C26.2791 19.9288 25.9027 20.1664 25.5231 20.0832C24.3663 19.8305 23.1614 19.8295 22.0379 20.0564C20.9287 20.2804 19.9022 20.7263 19.0843 21.3686C18.7794 21.6086 18.3349 21.5582 18.0925 21.2566C17.8498 20.9551 17.9008 20.5155 18.2057 20.2757C19.198 19.4959 20.4322 18.9572 21.7565 18.6901C23.067 18.4256 24.4741 18.4269 25.8272 18.7228ZM25.8272 10.0042C26.2068 10.0871 26.4471 10.4594 26.363 10.8348C26.2791 11.2102 25.9027 11.4478 25.5231 11.3647C24.3663 11.1119 23.1614 11.1109 22.0379 11.3378C20.9287 11.5618 19.9022 12.0077 19.0843 12.65C18.7794 12.8901 18.3349 12.8396 18.0925 12.538C17.8498 12.2365 17.9008 11.7969 18.2057 11.5571C19.198 10.7773 20.4322 10.2386 21.7565 9.97148C23.067 9.70705 24.4741 9.70826 25.8272 10.0042ZM25.8272 14.3632C26.2068 14.4461 26.4471 14.8184 26.363 15.1939C26.2791 15.5693 25.9027 15.8069 25.5231 15.7237C24.3663 15.471 23.1614 15.47 22.0379 15.6969C20.9287 15.9208 19.9022 16.3668 19.0843 17.0091C18.7794 17.2491 18.3349 17.1986 18.0925 16.8971C17.8498 16.5956 17.9008 16.156 18.2057 15.9162C19.198 15.1363 20.4322 14.5977 21.7565 14.3305C23.067 14.0661 24.4741 14.0673 25.8272 14.3632ZM25.8272 5.64524C26.2068 5.72818 26.4471 6.10044 26.363 6.47588C26.2791 6.85131 25.9027 7.08891 25.5231 7.00573C24.3663 6.753 23.1614 6.75203 22.0379 6.9789C20.9287 7.20283 19.9022 7.64879 19.0843 8.29109C18.7794 8.53113 18.3349 8.48063 18.0925 8.17912C17.8498 7.8776 17.9008 7.43803 18.2057 7.19822C19.198 6.41835 20.4322 5.87972 21.7565 5.61256C23.067 5.34812 24.4741 5.34934 25.8272 5.64524ZM16.7517 24.9303C18.4227 24.0748 20.1917 23.4466 22.0105 23.0558C23.986 22.6311 26.0248 22.4857 28.0644 22.6321V3.45506C26.1282 3.30674 24.189 3.44139 22.3088 3.84488C20.3693 4.26129 18.494 4.9646 16.7517 5.93913V24.9303ZM29.4794 4.3875L29.7952 4.42092C30.4222 4.48898 30.9734 4.78489 31.3676 5.21984C31.7622 5.65602 32 6.22978 32 6.85259V24.6101C32 24.9629 31.9282 25.2983 31.7874 25.6098C31.6488 25.9172 31.4428 26.1936 31.1742 26.4314C30.9073 26.6681 30.6071 26.8403 30.2818 26.9432C29.9577 27.0474 29.6131 27.0803 29.257 27.042L28.422 26.9515C26.5534 26.749 24.6675 26.852 22.8445 27.243C21.022 27.6346 19.2641 28.3142 17.652 29.2641L16.3592 30.0237C16.1271 30.1601 15.8472 30.1489 15.6316 30.0184L14.3513 29.2641C12.7362 28.3142 10.9783 27.6345 9.15577 27.243C7.33276 26.852 5.44661 26.749 3.5782 26.9515L2.74326 27.042C2.38734 27.0803 2.0425 27.0474 1.71794 26.9442L1.67823 26.93C1.36843 26.8259 1.08231 26.659 0.825794 26.4314C0.557189 26.1936 0.351235 25.9172 0.212616 25.6098C0.0717751 25.2983 0 24.9629 0 24.6101V6.85259C0 6.2298 0.236787 5.65605 0.631938 5.21984C1.02609 4.78489 1.57782 4.48924 2.20484 4.42092L2.52055 4.3875V2.81989C2.52228 2.46764 2.79113 2.16392 3.15325 2.12589C5.45229 1.87609 7.76144 2.00026 9.98914 2.47863C12.0832 2.92846 14.1117 3.69346 15.9998 4.75704C17.8879 3.69346 19.9164 2.92845 22.0105 2.47863C24.2219 2.00367 26.5139 1.87804 28.7965 2.12052C29.1756 2.1332 29.4792 2.44179 29.4792 2.81989V4.3875H29.4794ZM2.52043 5.79137L2.35912 5.80869C2.08632 5.83845 1.84929 5.96433 1.68178 6.14899C1.51505 6.33317 1.4149 6.58028 1.4149 6.85255V24.6101C1.4149 24.7723 1.44376 24.917 1.49975 25.0414C1.55747 25.1695 1.64725 25.288 1.7654 25.3929C1.87738 25.4924 1.99725 25.5647 2.12206 25.6076L2.14869 25.6154C2.28287 25.6578 2.43309 25.6713 2.59341 25.6537L3.42836 25.5632C5.45065 25.3439 7.48828 25.4546 9.45361 25.8762C11.42 26.2987 13.3214 27.0352 15.0721 28.0665L15.9997 28.6147L16.9274 28.0665C18.6781 27.0351 20.5796 26.2986 22.5459 25.8762C24.5112 25.4544 26.549 25.3436 28.5711 25.5632L29.4061 25.6537C29.5664 25.671 29.7168 25.6578 29.8508 25.6154C29.9869 25.5737 30.1152 25.4985 30.2341 25.3927C30.3522 25.2878 30.442 25.1692 30.4997 25.0412C30.5557 24.9167 30.5846 24.7723 30.5846 24.6099V6.85231C30.5846 6.58006 30.4839 6.33319 30.3172 6.14875C30.1497 5.96408 29.9124 5.83772 29.6401 5.80845L29.4788 5.79113V23.3963L29.4729 23.4702C29.4319 23.8532 29.0837 24.1306 28.6964 24.0903C26.551 23.8578 24.3935 23.974 22.3082 24.4221C20.2255 24.8695 18.2175 25.6467 16.3673 26.7362C16.151 26.8667 15.8698 26.8769 15.6372 26.7396C13.7854 25.6486 11.7754 24.87 9.69041 24.4224C7.62222 23.9779 5.48274 23.8601 3.35462 24.0853L3.22735 24.0965C2.8369 24.0965 2.51996 23.783 2.51996 23.3969V5.79168L2.52043 5.79137Z"
          fill="currentColor"/>
</svg>
