<svg viewBox="0 0 32 32" fill="none" xmlns="http://www.w3.org/2000/svg">
    <path d="M15.9593 31.9968C15.9222 31.9708 15.8871 31.926 15.8479 31.9225C15.5995 31.897 15.459 31.7326 15.3354 31.5423C15.231 31.3825 15.227 31.1937 15.2254 31.0196C15.2163 29.5661 15.2178 28.1131 15.2224 26.6596C15.2224 26.2474 15.3883 25.9145 15.797 25.7751C15.8918 25.7449 15.992 25.7353 16.0909 25.7471C16.1897 25.7588 16.2849 25.7916 16.37 25.8433C16.5919 25.9705 16.7319 26.1486 16.7522 26.4031C16.7726 26.6576 16.795 26.9309 16.796 27.195C16.8004 28.4694 16.8004 29.7437 16.796 31.0181C16.796 31.3285 16.7304 31.6288 16.4398 31.813C16.3608 31.8523 16.2794 31.8863 16.196 31.9148C16.1481 31.9367 16.1049 31.9657 16.0596 31.9937L15.9593 31.9968Z"
          fill="currentColor"/>
    <path d="M23.5182 9.37C23.3393 9.36903 23.1648 9.31452 23.0171 9.21348C22.8694 9.11244 22.7553 8.9695 22.6895 8.80305C22.5659 8.45697 22.6895 8.18368 22.9149 7.95619C23.9831 6.87165 25.0646 5.79781 26.1425 4.72142C26.297 4.56072 26.5069 4.46499 26.7295 4.45372C27.0347 4.43846 27.4305 4.71786 27.5068 4.97283C27.6202 5.353 27.5068 5.65684 27.2341 5.92606C26.1764 6.97785 25.12 8.03236 24.065 9.08958C23.9175 9.23933 23.7258 9.33765 23.5182 9.37Z"
          fill="currentColor"/>
    <path d="M19.1641 6.23371C19.219 6.06373 19.2709 5.88051 19.3375 5.7029C19.4077 5.51459 19.4901 5.33189 19.5695 5.14664C19.6712 4.90489 19.778 4.66468 19.8747 4.42039C20.009 4.08195 20.129 3.73842 20.2689 3.40253C20.3793 3.13025 20.51 2.86663 20.6219 2.59486C20.7186 2.36024 20.7898 2.11443 20.8936 1.88235C20.9862 1.67573 21.0462 1.44518 21.2522 1.30472C21.475 1.15204 21.7029 1.07112 21.9801 1.16527C22.2065 1.24212 22.3749 1.37495 22.4715 1.58463C22.5483 1.75105 22.6053 1.92765 22.5254 2.11901C22.3932 2.43607 22.2711 2.75619 22.1444 3.07631C22.0122 3.41576 21.8901 3.75878 21.7512 4.09417C21.6408 4.36645 21.5101 4.63007 21.3982 4.90184C21.3015 5.13646 21.2227 5.37871 21.1286 5.61434C21.0594 5.78687 20.976 5.9538 20.9022 6.12327C20.8285 6.29275 20.7807 6.45968 20.6988 6.61643C20.5268 6.94622 20.2069 7.11111 19.8538 7.04291C19.5725 6.98795 19.3401 6.83934 19.251 6.53704C19.2241 6.44695 19.1981 6.35331 19.1641 6.23371Z"
          fill="currentColor"/>
    <path d="M16.821 3.14973C16.821 3.90396 16.821 4.65803 16.821 5.41192C16.821 5.68369 16.7339 5.9122 16.5212 6.09084C16.3966 6.19513 16.2412 6.25573 16.0789 6.26337C15.7201 6.29085 15.458 6.14784 15.2957 5.83943C15.2357 5.71452 15.2037 5.57798 15.202 5.43941C15.1898 5.0689 15.198 4.69789 15.198 4.32688C15.198 3.18145 15.198 2.03585 15.198 0.890073C15.198 0.607617 15.2758 0.360276 15.5064 0.181641C15.7059 0.0289622 15.9746 -0.0555203 16.2489 0.0411765C16.4622 0.115989 16.6337 0.23457 16.7212 0.439669C16.7799 0.573886 16.8123 0.718173 16.8164 0.864627C16.8255 1.62497 16.821 2.38735 16.821 3.14973Z"
          fill="currentColor"/>
    <path d="M25.7576 12.8209C25.4148 12.825 25.1569 12.655 25.0262 12.3629C24.8552 11.9832 24.9473 11.5613 25.3792 11.3256C25.6295 11.1893 25.9092 11.1068 26.1737 10.9964C26.4515 10.8808 26.7252 10.7567 27.0034 10.6427C27.2349 10.548 27.4714 10.4656 27.7028 10.3714C27.8743 10.3012 28.0401 10.2187 28.2115 10.1459C28.3829 10.0732 28.5508 10.0131 28.7202 9.94492C28.9567 9.84873 29.1902 9.7444 29.4288 9.65381C29.6206 9.57348 29.8186 9.50897 30.0209 9.46093C30.3114 9.40189 30.7102 9.68842 30.8185 9.96477C30.8674 10.0847 30.8856 10.215 30.8714 10.3437C30.8573 10.4725 30.8113 10.5957 30.7376 10.7022C30.6494 10.8274 30.5297 10.9271 30.3907 10.9913C30.1109 11.1297 29.8174 11.2417 29.526 11.3582C29.2894 11.4534 29.0468 11.5348 28.8138 11.632C28.5412 11.7445 28.2741 11.8707 27.9999 11.9857C27.8315 12.0565 27.6576 12.115 27.4882 12.1837C27.2435 12.2855 27.0019 12.3873 26.7577 12.4891C26.4952 12.5949 26.2322 12.6998 25.9667 12.797C25.8982 12.8133 25.828 12.8213 25.7576 12.8209Z"
          fill="currentColor"/>
    <path d="M28.8658 16.7992H26.593C26.3953 16.8075 26.2012 16.7439 26.0467 16.6201C25.8783 16.4776 25.769 16.3086 25.7527 16.0709C25.7267 15.6969 25.89 15.4419 26.2008 15.2724C26.3047 15.2218 26.419 15.1965 26.5345 15.1986C28.0914 15.1942 29.6485 15.1942 31.2057 15.1986C31.3732 15.2027 31.5353 15.2588 31.6695 15.3591C31.8038 15.4594 31.9035 15.5989 31.955 15.7584C32.071 16.0979 31.9515 16.362 31.7363 16.5865C31.5934 16.7356 31.3848 16.8007 31.1661 16.8002C30.398 16.7977 29.6319 16.7992 28.8658 16.7992Z"
          fill="currentColor"/>
    <path d="M25.7621 19.1641C25.9391 19.2231 26.1181 19.2765 26.2926 19.3422C26.5393 19.4348 26.784 19.5346 27.0282 19.6343C27.1859 19.6989 27.3405 19.7702 27.4982 19.8343C27.6559 19.8984 27.8034 19.9483 27.9519 20.0104C28.1173 20.0781 28.2785 20.1539 28.4433 20.2221C28.6799 20.3188 28.9179 20.4109 29.1555 20.5071C29.3249 20.5758 29.4932 20.6476 29.6642 20.7183C29.889 20.8125 30.1123 20.9097 30.3382 21.0008C30.5742 21.0955 30.7146 21.2619 30.8184 21.498C30.9832 21.8721 30.6978 22.3398 30.3667 22.4792C30.2439 22.5221 30.1124 22.5337 29.9841 22.5128C29.6194 22.4691 29.304 22.2792 28.9703 22.1423C28.7348 22.0456 28.4932 21.9627 28.2582 21.8675C28.0857 21.7978 27.9194 21.7148 27.7495 21.6436C27.516 21.5484 27.2784 21.4634 27.0445 21.3703C26.8669 21.2995 26.693 21.2207 26.5159 21.1484C26.2835 21.0542 26.0444 20.9743 25.8175 20.8675C25.5662 20.7489 25.2717 20.6939 25.1089 20.4318C25.0448 20.3375 25.0013 20.2306 24.9813 20.1182C24.9613 20.0059 24.9653 19.8906 24.9929 19.7799C25.0713 19.445 25.4279 19.1692 25.756 19.1951L25.7621 19.1641Z"
          fill="currentColor"/>
    <path d="M26.7442 27.5004C26.4898 27.5447 26.3133 27.4155 26.1505 27.2551C25.7775 26.887 25.4045 26.5179 25.0314 26.1477C24.3549 25.4698 23.686 24.7843 23.0023 24.112C22.8146 23.9272 22.69 23.7181 22.6584 23.4682C22.6437 23.3537 22.7068 23.2224 22.7551 23.1079C22.8522 22.8783 23.0303 22.748 23.2744 22.6834C23.5954 22.5984 23.8457 22.7216 24.0578 22.9318C24.9819 23.8478 25.9018 24.768 26.8174 25.6922C27.0173 25.8932 27.2244 26.0917 27.3963 26.3162C27.6542 26.6541 27.5306 27.2363 27.1186 27.4261C27.0031 27.4796 26.8718 27.4984 26.7477 27.533L26.7442 27.5004Z"
          fill="currentColor"/>
    <path d="M22.5134 30.0713C22.5358 30.4245 22.3415 30.6433 22.0505 30.7838C21.6166 30.992 21.1568 30.7054 21.0118 30.3202C20.9431 30.1385 20.8526 29.9639 20.7783 29.7848C20.7127 29.6275 20.6588 29.4652 20.5942 29.3074C20.4924 29.0529 20.3795 28.8056 20.2763 28.5532C20.1699 28.2926 20.0728 28.0285 19.9655 27.7679C19.8637 27.5195 19.7528 27.2758 19.6526 27.0269C19.5432 26.7556 19.4491 26.4778 19.3347 26.208C19.2655 26.0447 19.1979 25.8848 19.2131 25.7026C19.2187 25.5821 19.253 25.4647 19.3132 25.3601C19.3734 25.2556 19.4576 25.1669 19.559 25.1016C19.6629 25.0311 19.7824 24.9871 19.9071 24.9734C20.0318 24.9596 20.158 24.9766 20.2747 25.0227C20.3544 25.0483 20.428 25.09 20.491 25.1452C20.5539 25.2005 20.6048 25.2681 20.6405 25.3439C20.7422 25.5708 20.8378 25.8019 20.937 26.0273C21.0362 26.2528 21.1466 26.493 21.2422 26.7292C21.3536 27.0035 21.4513 27.2839 21.5632 27.5582C21.6995 27.8941 21.845 28.2259 21.9839 28.5603C22.0516 28.7221 22.1111 28.8865 22.1782 29.0484C22.28 29.2952 22.3944 29.5374 22.488 29.7878C22.5206 29.8728 22.5063 29.9761 22.5134 30.0713Z"
          fill="currentColor"/>
    <path d="M8.48536 22.625C8.66463 22.6261 8.83944 22.6811 8.98717 22.7827C9.1349 22.8843 9.24875 23.0279 9.314 23.195C9.43761 23.5406 9.314 23.8139 9.08866 24.0414C8.02042 25.1259 6.93897 26.1997 5.86107 27.2761C5.70676 27.4372 5.49676 27.5331 5.27405 27.5443C4.96884 27.5591 4.57309 27.2797 4.49678 27.0252C4.38335 26.645 4.49678 26.3412 4.76944 26.072C5.82682 25.0202 6.88318 23.9657 7.93853 22.9085C8.0855 22.7575 8.27731 22.658 8.48536 22.625Z"
          fill="currentColor"/>
    <path d="M12.8297 25.761C12.7747 25.931 12.7228 26.1142 12.6562 26.2918C12.586 26.4802 12.5036 26.6629 12.4242 26.8481C12.3225 27.0899 12.2157 27.3306 12.119 27.5744C11.9847 27.9128 11.8621 28.2563 11.7248 28.5922C11.6144 28.8645 11.4837 29.1286 11.3718 29.3999C11.2751 29.635 11.2039 29.8803 11.1001 30.1124C11.0076 30.319 10.9475 30.5496 10.7415 30.69C10.5187 30.8427 10.2908 30.9241 10.0136 30.8295C9.78724 30.7526 9.61886 30.6203 9.52221 30.4106C9.4454 30.2437 9.38843 30.0671 9.46829 29.8757C9.60055 29.5587 9.72263 29.2386 9.8493 28.9184C9.98155 28.579 10.1036 28.236 10.2425 27.9006C10.3529 27.6283 10.4836 27.3647 10.5955 27.0934C10.6922 26.8583 10.771 26.616 10.8651 26.3809C10.9343 26.2079 11.0177 26.0415 11.0915 25.872C11.1617 25.7086 11.2131 25.5356 11.295 25.3788C11.4669 25.0495 11.7869 24.8841 12.1399 24.9529C12.4212 25.0073 12.6537 25.1564 12.7427 25.4582C12.7696 25.5458 12.7956 25.6414 12.8297 25.761Z"
          fill="currentColor"/>
    <path d="M6.2435 19.1797C6.58636 19.1762 6.84426 19.3457 6.97499 19.6378C7.1459 20.018 7.05383 20.4399 6.62196 20.675C6.37169 20.8114 6.09192 20.8938 5.8274 21.0043C5.54966 21.1203 5.27599 21.244 4.99774 21.358C4.76629 21.4526 4.52975 21.5351 4.2983 21.6297C4.12688 21.6995 3.96105 21.7824 3.78962 21.8547C3.6182 21.927 3.45033 21.9875 3.28094 22.0583C3.0444 22.1544 2.81092 22.2583 2.57235 22.3489C2.38049 22.4291 2.18248 22.4938 1.98024 22.5422C1.68978 22.6008 1.29098 22.3142 1.18263 22.0379C1.13373 21.918 1.11552 21.7879 1.12964 21.6592C1.14377 21.5305 1.18978 21.4074 1.26351 21.301C1.3519 21.1758 1.47151 21.076 1.61043 21.0114C1.8902 20.873 2.18371 20.7615 2.47519 20.6444C2.71173 20.5493 2.95437 20.4678 3.18734 20.3706C3.46 20.2582 3.72705 20.132 4.00123 20.0174C4.16961 19.9462 4.34358 19.8877 4.51297 19.819C4.75764 19.7197 4.99927 19.6154 5.24343 19.5136C5.50591 19.4077 5.7689 19.3034 6.03444 19.2057C6.10288 19.189 6.17304 19.1803 6.2435 19.1797Z"
          fill="currentColor" fill-opacity="0.8"/>
    <path d="M3.13442 15.1963H5.40721C5.60497 15.188 5.79905 15.2517 5.95353 15.3755C6.12191 15.5185 6.23127 15.6875 6.24755 15.9246C6.27349 16.2987 6.11021 16.5537 5.7994 16.7231C5.69564 16.774 5.58123 16.7993 5.46571 16.7969C3.9088 16.8017 2.35173 16.8017 0.794481 16.7969C0.62696 16.793 0.464825 16.7369 0.330563 16.6366C0.196301 16.5363 0.0965668 16.3967 0.0451924 16.2371C-0.070787 15.8976 0.0487532 15.6335 0.263926 15.4091C0.406865 15.2599 0.615425 15.1948 0.834158 15.1953C1.60193 15.1977 2.36868 15.198 3.13442 15.1963Z"
          fill="currentColor" fill-opacity="0.6"/>
    <path d="M6.23597 12.8353C6.05895 12.7762 5.87989 12.7228 5.70542 12.6571C5.45871 12.5645 5.21403 12.4647 4.96986 12.365C4.81217 12.3009 4.65753 12.2291 4.49984 12.165C4.34215 12.1009 4.19463 12.051 4.0461 11.9894C3.88077 11.9217 3.71952 11.8454 3.55471 11.7777C3.31817 11.6805 3.08011 11.5884 2.84255 11.4922C2.67316 11.4235 2.50479 11.3517 2.33387 11.2815C2.10904 11.1868 1.88572 11.0896 1.65987 10.999C1.42384 10.9044 1.28344 10.7374 1.17967 10.5018C1.0174 10.1257 1.30277 9.65952 1.63393 9.52007C1.75671 9.47745 1.88813 9.46591 2.01646 9.48649C2.38118 9.53076 2.69656 9.72059 3.03026 9.85699C3.26578 9.95419 3.5074 10.0366 3.74241 10.1318C3.91486 10.2015 4.08119 10.2845 4.25109 10.3562C4.48458 10.4509 4.72213 10.5359 4.95613 10.6295C5.13366 10.7003 5.30763 10.7792 5.48465 10.8509C5.71712 10.9456 5.9562 11.0255 6.18307 11.1324C6.43436 11.2504 6.72888 11.3059 6.89166 11.5675C6.95586 11.6619 6.99939 11.7689 7.01937 11.8813C7.03936 11.9938 7.03536 12.1092 7.00764 12.22C6.9293 12.5543 6.57272 12.8307 6.24462 12.8042L6.23597 12.8353Z"
          fill="currentColor" fill-opacity="0.4"/>
    <path d="M5.26125 4.50285C5.51559 4.45857 5.6921 4.58784 5.85488 4.74764C6.22927 5.11577 6.60298 5.48475 6.97602 5.85457C7.65256 6.53196 8.32148 7.21749 9.00515 7.89029C9.19285 8.07453 9.31748 8.2842 9.34902 8.53358C9.36377 8.6486 9.29815 8.77939 9.25237 8.89441C9.15521 9.12343 8.97717 9.25372 8.733 9.31835C8.41203 9.40334 8.16176 9.28018 7.94963 9.06999C7.02519 8.15392 6.10532 7.23377 5.19004 6.30955C4.99012 6.10598 4.78309 5.91004 4.61116 5.6856C4.35325 5.34767 4.47686 4.76546 4.8889 4.57563C5.00437 4.52473 5.13561 4.50336 5.25973 4.46875L5.26125 4.50285Z"
          fill="currentColor" fill-opacity="0.2"/>
</svg>
