<svg viewBox="0 0 32 32" fill="none" xmlns="http://www.w3.org/2000/svg">
        <path d="M4.35669 19.6183C4.30243 19.5653 4.24542 19.5143 4.1946 19.4582C4.13999 19.398 4.09122 19.3329 4.04005 19.2696C4.0349 19.2751 4.02975 19.281 4.0246 19.2865C4.07302 19.4014 4.12145 19.516 4.18086 19.6571C4.18223 19.6571 4.22653 19.6596 4.27084 19.662C4.22276 19.8155 4.28389 19.8791 4.50162 19.8664C4.46899 19.9277 4.44495 19.9728 4.40958 20.0395C4.60842 20.1287 4.81894 20.2337 4.68707 20.5627C4.7506 20.5155 4.77739 20.4956 4.84848 20.4429C4.83577 20.5699 4.82719 20.656 4.81585 20.7661C4.85809 20.7217 4.89278 20.6852 4.91613 20.6604C4.99718 20.814 5.07926 20.9702 5.16615 21.1354C5.14726 21.1626 5.1215 21.1998 5.07377 21.2683C5.24651 21.2198 5.26059 21.312 5.32584 21.4094C5.43024 21.565 5.54082 21.6844 5.41341 21.8882H5.58169C5.65621 22.0103 5.72387 22.1212 5.80148 22.2482C5.72971 22.2551 5.68747 22.2589 5.64523 22.263C5.64351 22.2788 5.64145 22.295 5.63973 22.3108C5.683 22.3177 5.72662 22.3249 5.76989 22.3318C5.77779 22.3115 5.78603 22.2912 5.79393 22.2712C5.82175 22.3342 5.84922 22.3972 5.87704 22.4602C5.89146 22.4464 5.90554 22.4323 5.91997 22.4186C5.89661 22.4471 5.87292 22.4757 5.84716 22.5074C6.01681 22.5635 6.17204 22.8364 6.14457 22.9961C6.13392 23.0587 6.15349 23.1265 6.15933 23.1919C6.20432 23.1851 6.24897 23.1782 6.27988 23.1734C6.31937 23.2432 6.35405 23.3041 6.40557 23.395C6.1583 23.2828 6.24347 23.4728 6.18097 23.552H6.44232C6.47803 23.6266 6.50963 23.6927 6.54122 23.7592L6.54363 23.7512C6.5893 23.785 6.65009 23.8094 6.67825 23.8545C6.76617 23.9953 6.82592 24.156 6.92655 24.2854C7.01378 24.3973 6.98493 24.494 6.96226 24.5794C7.09002 24.6551 7.18274 24.7487 7.23425 24.8836C7.26654 24.9683 7.30054 25.0526 7.34209 25.1576C7.34243 25.1576 7.31256 25.1765 7.28508 25.1941C7.45096 25.2512 7.54437 25.3727 7.59519 25.5383C7.61168 25.5919 7.64946 25.6398 7.68105 25.688C7.75832 25.8057 7.84486 25.9179 7.91492 26.0397C8.04611 26.2683 8.17696 26.4975 8.29029 26.735C8.34558 26.8506 8.48089 26.9566 8.38507 27.1143C8.42491 27.1236 8.48364 27.1191 8.50184 27.1446C8.57293 27.2423 8.63852 27.3459 8.69278 27.4543C8.82294 27.7142 8.94554 27.9778 9.07089 28.2401C9.09425 28.2886 9.11691 28.3375 9.13992 28.386C9.14439 28.3833 9.14885 28.3802 9.15297 28.3774C9.35422 28.7309 9.55547 29.0844 9.76393 29.4506C9.76805 29.4451 9.74882 29.4702 9.7289 29.496C9.80514 29.536 9.87485 29.5721 9.95315 29.6131C10.004 29.6946 10.0661 29.7948 10.1328 29.9015C10.0902 29.9063 10.0658 29.9091 9.98578 29.9184C10.1015 30.002 10.176 30.056 10.254 30.1125C10.2361 30.1404 10.2128 30.1772 10.1956 30.2037C10.4388 30.3097 10.4408 30.5451 10.5023 30.7399C10.696 30.7764 10.7238 30.8243 10.729 31.1041C10.8131 31.1464 10.8917 31.1863 10.9913 31.2366C11.0133 31.2276 11.0683 31.2053 11.1211 31.1839C11.2018 31.3065 11.2125 31.4882 11.4161 31.4331C11.4275 31.43 11.4512 31.4452 11.4577 31.4576C11.526 31.5901 11.6579 31.6396 11.7819 31.6778C11.9591 31.7326 12.1267 31.8548 12.3352 31.7677C12.3867 31.746 12.4698 31.8 12.5374 31.819C12.5203 31.8548 12.5017 31.893 12.4983 31.8998C12.6453 31.9336 12.7874 31.9659 12.9372 32C13.0065 31.9553 13.0903 31.9012 13.1807 31.8427C13.3356 32.0396 13.4897 31.8007 13.622 31.8482C13.803 31.9133 13.9211 31.7976 14.0677 31.7629C14.0935 31.6383 14.1423 31.5825 14.2995 31.5598C14.5822 31.5195 14.7879 31.3195 14.9339 31.0728C15.0125 30.9399 15.1073 30.8408 15.2694 30.8219C15.2982 30.8184 15.3284 30.7864 15.3491 30.7606C15.3721 30.7324 15.3765 30.6797 15.4037 30.6656C15.5671 30.5816 15.6719 30.3847 15.6396 30.1972H15.8803C15.847 30.1328 15.8237 30.0877 15.8041 30.0498C15.8652 30.0213 15.9318 30.0116 15.959 29.9738C16.0428 29.8564 16.0836 29.6812 16.1928 29.6165C16.3319 29.5343 16.3141 29.3419 16.4727 29.2995C16.4659 29.284 16.4528 29.2685 16.4535 29.2534C16.4545 29.2228 16.4545 29.187 16.47 29.1629C16.5926 28.9719 16.7543 28.7967 16.8347 28.5895C16.9271 28.352 17.1088 28.1782 17.2015 27.9376C17.3279 27.6103 17.5405 27.3163 17.7166 27.0083C17.7541 26.9425 17.8255 26.8792 17.8269 26.8135C17.831 26.6448 17.9134 26.5787 18.0515 26.5729C18.0449 26.5436 18.0261 26.5106 18.035 26.491C18.0865 26.3788 18.1487 26.2717 18.1995 26.1592C18.2239 26.1051 18.2215 26.0387 18.2479 25.9867C18.2699 25.9434 18.3169 25.9127 18.353 25.8766C18.3575 25.8824 18.3619 25.8883 18.3664 25.8945C18.4584 25.719 18.5505 25.5438 18.6614 25.3324C18.6926 25.4192 18.7088 25.4643 18.7431 25.5592C18.7861 25.4591 18.8101 25.4023 18.8218 25.3755C18.7758 25.3125 18.7479 25.2739 18.7198 25.2357C18.7603 25.2178 18.8056 25.2065 18.8403 25.1806C18.8946 25.14 18.942 25.0898 18.9921 25.044C18.9839 25.0344 18.9753 25.0247 18.967 25.0151C19.0165 24.9993 19.0659 24.9834 19.0797 24.979C19.058 24.895 19.0076 24.8137 19.0282 24.7587C19.1017 24.5611 19.2129 24.3773 19.2826 24.1791C19.3448 24.0028 19.5643 23.9199 19.5333 23.6814C19.5196 23.5767 19.6206 23.457 19.6738 23.3351C19.6917 23.3492 19.7188 23.3706 19.7672 23.4088C19.8493 23.2171 19.9128 23.0243 20.0111 22.8508C20.1055 22.6839 20.2332 22.5352 20.3514 22.3828C20.4015 22.318 20.4651 22.2637 20.5224 22.2048L20.5605 22.2368C20.5245 22.2169 20.4888 22.1966 20.4554 22.178C20.5149 22.0534 20.5612 21.9357 20.6241 21.8279C20.6982 21.7013 20.7999 21.5894 20.8658 21.459C20.9253 21.3419 20.9486 21.2132 21.0564 21.1151C21.1547 21.026 21.122 20.8535 21.2474 20.7592C21.2927 20.7252 21.2745 20.6164 21.3109 20.5582C21.3909 20.4302 21.4964 20.3176 21.575 20.1889C21.6667 20.0392 21.7021 19.8612 21.8134 19.7181C21.9057 19.599 21.9761 19.463 22.0616 19.3381C22.0857 19.303 22.1331 19.2534 22.1626 19.2579C22.3189 19.282 22.346 19.1453 22.4284 19.0607C22.3879 19.0421 22.3518 19.0256 22.3055 19.0042C22.299 19.0765 22.2938 19.1323 22.288 19.1987C22.2337 19.1887 22.186 19.1798 22.1331 19.1698C22.2464 18.9812 22.4006 18.8142 22.4477 18.6208C22.4954 18.4246 22.6936 18.2976 22.6637 18.077C22.6609 18.0563 22.7104 18.0274 22.7379 18.0047C22.7595 17.9868 22.7938 17.9786 22.8065 17.9565C22.8773 17.835 22.9539 17.7153 23.0088 17.5862C23.1438 17.2682 23.4426 17.0406 23.4992 16.6806C23.5009 16.6693 23.5033 16.6507 23.5095 16.649C23.7235 16.5839 23.7097 16.3519 23.8166 16.2084C23.9934 15.9706 24.0954 15.6777 24.2427 15.4161C24.3746 15.1827 24.525 14.9597 24.6682 14.7329C24.7211 14.6492 24.8194 14.5697 24.8238 14.4844C24.8321 14.323 24.9066 14.3515 25.0203 14.3925C24.8101 14.2218 25.068 14.0917 25.013 13.9382C25.1398 13.9815 25.169 13.9285 25.1628 13.8266C25.1593 13.7664 25.1456 13.691 25.1741 13.6477C25.2524 13.5293 25.351 13.4239 25.4403 13.3148C25.3561 13.2804 25.3372 13.2487 25.4403 13.1937C25.5272 13.1472 25.637 13.0952 25.5474 12.9741C25.6353 12.8946 25.7129 12.8244 25.7524 12.7882C25.7861 12.6819 25.807 12.6144 25.8414 12.505C25.9005 12.5986 25.9238 12.6354 25.9468 12.6719C25.8695 12.4702 26.0323 12.3459 26.0996 12.1969C26.1096 12.1752 26.2085 12.1938 26.2659 12.1938C26.2477 12.1301 26.2264 12.0551 26.2047 11.9801C26.2198 11.976 26.2353 11.9715 26.2504 11.9673C26.2672 12.0086 26.2841 12.0499 26.3218 12.1425C26.3699 12.008 26.4012 11.9202 26.4324 11.8324C26.3885 11.8142 26.3503 11.7984 26.3174 11.7846C26.339 11.6256 26.5145 11.5736 26.5097 11.3915C26.5066 11.2803 26.6783 11.1723 26.6986 11.0504C26.7195 10.9251 26.792 10.89 26.8696 10.8353C26.8761 10.8308 26.8765 10.8171 26.8778 10.8123C26.85 10.7882 26.8229 10.7654 26.8129 10.7568C26.8761 10.697 26.9716 10.6484 26.9719 10.5992C26.9723 10.4571 27.077 10.4089 27.1543 10.3325C27.1698 10.3173 27.1804 10.2967 27.1907 10.277C27.2511 10.1614 27.3092 10.0451 27.3707 9.93011C27.4448 9.79106 27.5214 9.65338 27.6159 9.48095C27.6255 9.47785 27.6828 9.46029 27.7021 9.45444C27.6852 9.22246 27.8487 9.07515 27.9222 8.90684C28.0136 8.69723 28.1702 8.51585 28.2989 8.32242C28.3154 8.33205 28.3319 8.34135 28.3484 8.35098C28.3443 8.38712 28.3405 8.42361 28.3364 8.45975C28.3529 8.45871 28.3697 8.45768 28.3862 8.45665C28.3814 8.3527 28.3498 8.24016 28.3793 8.14723C28.4088 8.05429 28.4998 7.98064 28.5637 7.89872C28.5799 7.91146 28.5957 7.92454 28.6118 7.93727C28.5867 7.97961 28.5617 8.02229 28.5369 8.06462C28.5455 8.07185 28.5544 8.07908 28.563 8.0863C28.6437 8.01609 28.7244 7.94553 28.8134 7.86809C28.8093 7.83092 28.8017 7.76483 28.7942 7.69841C28.7835 7.68602 28.7729 7.67328 28.7622 7.66089C28.7114 7.73764 28.6609 7.8144 28.6101 7.89115C28.6036 7.68154 28.7031 7.59137 28.857 7.62269C28.7687 7.29915 28.9679 7.08644 29.1355 6.87202C29.164 6.91297 29.1932 6.95565 29.2224 6.99799C29.241 6.99386 29.2595 6.98973 29.2784 6.9856C29.2856 6.84104 29.2928 6.69648 29.3004 6.54883C29.3306 6.57533 29.3577 6.59942 29.3859 6.62386C29.4415 6.56156 29.4947 6.50236 29.5603 6.4287C29.4875 6.37432 29.3938 6.30721 29.4844 6.17366C29.5576 6.06593 29.5902 5.92619 29.6754 5.83189C29.7815 5.71417 29.7506 5.45741 29.9831 5.49803C29.9687 5.44571 29.9549 5.39684 29.9347 5.32284C30.0109 5.35484 30.0439 5.36861 30.0621 5.37618C30.0803 5.26536 30.0751 5.1535 30.1174 5.0647C30.218 4.85302 30.3461 4.65511 30.4522 4.44585C30.4989 4.35361 30.557 4.24244 30.5429 4.15019C30.5199 3.99978 30.5714 3.92682 30.639 3.90513C30.6878 3.80773 30.7149 3.75576 30.74 3.7031C30.7489 3.68417 30.7651 3.65112 30.7586 3.64493C30.6363 3.52894 30.7558 3.43911 30.7843 3.33757C30.7974 3.29042 30.7805 3.23432 30.7747 3.18234C30.7565 3.01438 30.7194 2.84573 30.7232 2.67845C30.7266 2.53286 30.7884 2.38934 30.7987 2.2434C30.8029 2.18489 30.7386 2.12122 30.6991 2.04825C30.6703 2.06752 30.6384 2.08921 30.6064 2.1102C30.5989 2.08852 30.5916 2.06718 30.5827 2.04033C30.5412 2.10539 30.5054 2.16149 30.4958 2.17629C30.2781 2.1694 30.0844 2.16355 29.8996 2.1577C29.9086 2.13223 29.9275 2.07716 29.9467 2.02209C29.8986 2.03896 29.8766 2.09437 29.8543 2.09437C29.7523 2.09437 29.6507 2.07854 29.5487 2.06821C29.6012 1.94018 29.4783 1.98182 29.4195 1.95842C29.4587 1.90782 29.4882 1.86996 29.5044 1.84931C29.3824 1.74915 29.2798 1.64246 29.1568 1.56914C29.0146 1.48447 28.9508 1.40256 29.0813 1.26179C28.949 1.21394 28.8258 1.16886 28.7014 1.12377C28.7468 1.01087 28.7104 0.947888 28.5682 0.924139C28.4459 0.903832 28.3233 0.883181 28.1918 0.861153V0.741377C28.1362 0.757897 28.0963 0.769944 28.0541 0.782679C28.0506 0.720725 28.0479 0.669442 28.0448 0.615749C27.9294 0.650856 27.8442 0.805395 27.7089 0.677358C27.7446 0.630204 27.7756 0.58959 27.8068 0.548977C27.6069 0.669097 27.4984 0.572037 27.4036 0.413367C27.3727 0.361395 27.3274 0.311832 27.2772 0.278102C27.133 0.182074 26.9833 0.0946511 26.8291 0C26.6412 0.131823 26.4441 0.167274 26.2233 0.0705581C26.1721 0.048186 26.0705 0.0815721 26.0227 0.123907C25.9042 0.229916 25.804 0.355888 25.6892 0.481172H25.5622C25.5752 0.535898 25.5855 0.579609 25.5948 0.61747C25.5017 0.578921 25.4131 0.542093 25.3245 0.504921C25.3149 0.55827 25.305 0.611274 25.2995 0.641907C25.2538 0.668753 25.2119 0.68493 25.181 0.713497C25.0268 0.855302 24.8729 0.997795 24.7239 1.14511C24.661 1.2074 24.6057 1.27865 24.5563 1.35231C24.3375 1.67791 24.2695 2.08852 23.9817 2.37557C23.9704 2.38693 23.9574 2.40758 23.9601 2.42066C24.0126 2.65299 23.8427 2.82749 23.717 2.92799C23.5291 3.07805 23.4872 3.28904 23.3701 3.4632C23.2314 3.66937 23.1654 3.9251 23.0256 4.13092C22.8835 4.34053 22.7392 4.54084 22.6644 4.78797C22.6424 4.86094 22.5445 4.90809 22.5081 4.98071C22.4257 5.14351 22.3779 5.32662 22.2801 5.47806C22.2193 5.57168 22.197 5.68561 22.1403 5.75926C22.016 5.92103 21.9181 6.08693 21.859 6.27967C21.8532 6.29929 21.834 6.31478 21.8199 6.33164C21.6753 6.50408 21.5427 6.68271 21.4871 6.90816C21.462 7.01038 21.4531 7.157 21.3848 7.19934C21.2556 7.27953 21.2927 7.39483 21.2512 7.49293C21.2 7.61374 21.1914 7.79409 21.0039 7.78273C20.9829 7.83574 20.9726 7.88461 20.9469 7.9235C20.8487 8.07323 20.7388 8.21572 20.6457 8.36854C20.4709 8.65559 20.2951 8.94298 20.1385 9.24002C20.054 9.40006 20.0117 9.58214 19.9424 9.75079C19.9156 9.8155 19.8613 9.86781 19.828 9.93045C19.7566 10.0637 19.6948 10.202 19.6206 10.3335C19.5955 10.3779 19.5261 10.401 19.509 10.4457C19.3998 10.7307 19.1487 10.9169 19.0206 11.1988C18.8733 11.5223 18.647 11.8094 18.5491 12.1622C18.5275 12.2396 18.4694 12.3501 18.4079 12.3652C18.2304 12.4096 18.3561 12.4964 18.3599 12.5284C18.2792 12.5924 18.1778 12.6309 18.161 12.6929C18.0769 13.0033 17.8859 13.2412 17.6819 13.4742C17.6658 13.4924 17.6661 13.5265 17.6624 13.5537C17.6449 13.6749 17.6098 13.7881 17.5185 13.8755C17.4948 13.8982 17.4556 13.911 17.4429 13.9375C17.3911 14.0462 17.3433 14.1571 17.3011 14.2696C17.2564 14.389 17.2245 14.5129 17.1788 14.632C17.1551 14.6933 17.1019 14.7435 17.0813 14.8055C17.015 15.0058 16.9322 15.0106 16.855 15.2161C16.7942 15.3772 16.7032 15.2757 16.6548 15.3276C16.6578 15.3717 16.6781 15.423 16.6613 15.4533C16.5541 15.6433 16.4387 15.8281 16.3264 16.015C16.2825 16.0883 16.2354 16.1602 16.1966 16.2363C16.1661 16.2969 16.1503 16.365 16.1207 16.4266C16.0661 16.5402 16.0239 16.6672 15.9435 16.7594C15.8446 16.8727 15.8542 17.0775 15.6574 17.1081C15.6502 17.1091 15.6458 17.1267 15.6334 17.1473C15.653 17.1783 15.6757 17.2138 15.6997 17.2513C15.6224 17.3205 15.6269 17.4726 15.4747 17.465C15.4675 17.4647 15.4469 17.5156 15.4514 17.539C15.4864 17.7311 15.3573 17.8195 15.2714 17.8767C15.2608 17.9441 15.2663 17.9799 15.2508 17.9965C15.1935 18.0577 15.1447 18.1011 15.1341 18.2088C15.1248 18.3055 14.9936 18.3905 14.9071 18.4917C14.8906 18.5248 14.8713 18.574 14.8432 18.6177C14.7917 18.6979 14.7278 18.7705 14.6825 18.8538C14.6162 18.976 14.5564 19.1023 14.5039 19.231C14.4338 19.4018 14.202 19.4999 14.2786 19.7363C14.28 19.7411 14.2628 19.7501 14.2583 19.759C14.2072 19.8609 14.1598 19.9648 14.1059 20.0654C14.0612 20.1486 14.0076 20.2271 13.9606 20.309C13.9115 20.3944 13.8685 20.4835 13.8163 20.5665C13.7827 20.6202 13.7367 20.6663 13.691 20.7221C13.6749 20.91 13.3678 20.9613 13.4221 21.1981C13.4224 21.1998 13.4118 21.2029 13.4084 21.207C13.3002 21.3357 13.1923 21.4648 13.0478 21.6373C12.9598 21.4751 12.8936 21.3519 12.8252 21.2297C12.8156 21.2122 12.7912 21.2032 12.7809 21.186C12.6861 21.0253 12.5852 20.868 12.5021 20.7014C12.4169 20.531 12.3485 20.3521 12.2751 20.1758C12.2071 20.0123 11.9983 19.926 12.0209 19.7119C12.0216 19.7067 12.0003 19.7015 11.9938 19.6929C11.8863 19.5453 11.7589 19.4073 11.6771 19.2465C11.5566 19.0094 11.3914 18.7915 11.342 18.5189C11.3265 18.4329 11.2863 18.3458 11.2369 18.2735C11.1902 18.205 11.093 18.1661 11.0593 18.0945C10.9924 17.9531 10.9542 17.7979 10.9031 17.6488C10.8959 17.6278 10.8859 17.602 10.8691 17.5903C10.6589 17.4451 10.617 17.1993 10.5098 16.9925C10.4618 16.8995 10.4772 16.745 10.3124 16.7577C10.3124 16.7254 10.3251 16.6703 10.3103 16.662C10.1527 16.5691 10.2289 16.3426 10.0455 16.2411C9.93839 16.1819 9.91126 15.9871 9.83227 15.8639C9.75259 15.7403 9.64991 15.6322 9.56371 15.5125C9.5304 15.466 9.51391 15.4071 9.49125 15.3531C9.47373 15.3111 9.45828 15.2681 9.42943 15.1927C9.42943 15.1924 9.44832 15.1473 9.46995 15.0953C9.4102 15.0705 9.36212 15.0506 9.29309 15.0217C9.4047 14.9425 9.40436 14.8847 9.32262 14.7931C9.23677 14.6967 9.19556 14.5622 9.12344 14.452C8.97611 14.2266 8.84561 13.9826 8.6629 13.7898C8.48123 13.5984 8.31124 13.4236 8.31639 13.1796C8.26213 13.1135 8.22023 13.0739 8.19207 13.0261C8.09385 12.8591 8.01314 12.6795 7.89947 12.5242C7.83525 12.4365 7.75592 12.2947 7.59004 12.3965C7.61649 12.4055 7.63675 12.4124 7.65701 12.4189C7.6474 12.4341 7.63812 12.4496 7.62851 12.4647C7.58146 12.4323 7.53372 12.401 7.4877 12.3669C7.47225 12.3556 7.46401 12.3336 7.44821 12.3229C7.35789 12.2616 7.25658 12.2128 7.17725 12.1398C7.04091 12.0138 6.91865 11.8727 6.78918 11.7388C6.7799 11.7292 6.76239 11.7243 6.74796 11.7233C6.58106 11.7113 6.41415 11.7006 6.24725 11.6896C6.25343 11.7044 6.25961 11.7192 6.26579 11.734C6.2002 11.8066 6.14457 11.8944 6.06592 11.9481C5.96461 12.0173 5.79565 12.0293 5.74173 12.1184C5.58719 12.3731 5.29905 12.3817 5.08338 12.5112C4.86943 12.6392 4.75404 12.802 4.6462 13.0061C4.52566 12.9121 4.40202 12.8361 4.29762 13.0426C4.2753 13.0866 4.20662 13.1083 4.15682 13.1362C4.08573 13.1761 4.01224 13.2126 3.93977 13.2505C3.94458 13.2611 3.94939 13.2722 3.95385 13.2828C4.06135 13.2512 4.16884 13.2195 4.27599 13.1878C4.28423 13.2043 4.29213 13.2212 4.30037 13.2377C4.24199 13.2766 4.17914 13.3107 4.12591 13.3558C4.06822 13.4043 4.01911 13.4632 3.95248 13.532C3.92329 13.5224 3.85873 13.501 3.7976 13.4807C3.81854 13.573 3.83743 13.6556 3.84774 13.7003C3.73612 13.6934 3.62348 13.6587 3.53007 13.6879C3.43425 13.7179 3.36007 13.8132 3.27147 13.8724C3.23541 13.8965 3.18664 13.9017 3.14337 13.9151C3.13169 13.901 3.12002 13.8872 3.10868 13.8731C3.10628 13.9196 3.10388 13.9657 3.10182 14.0046C3.04927 13.9977 2.98127 13.9674 2.95449 13.9891C2.84253 14.0782 2.74294 14.1832 2.63476 14.2861C2.61896 14.2486 2.60213 14.209 2.57741 14.1512C2.56367 14.207 2.55646 14.2359 2.54547 14.2789C2.50941 14.2324 2.48468 14.2008 2.4263 14.1257C2.36311 14.3212 2.31331 14.4751 2.26523 14.6238C2.21028 14.598 2.15602 14.5721 2.0712 14.5322C2.10588 14.706 2.13439 14.8489 2.1701 15.0278C2.10279 14.9769 2.06467 14.9483 2.02621 14.9194L1.99805 14.947C2.06776 15.0395 2.13748 15.1321 2.21921 15.2406C2.09798 15.4739 2.40569 15.4939 2.47919 15.6402C2.4548 15.7086 2.39814 15.7868 2.41187 15.8494C2.43008 15.9313 2.50391 16.0009 2.55405 16.0755C2.61656 16.2184 2.71821 16.334 2.82433 16.4573C2.7972 16.4758 2.76766 16.4961 2.7395 16.5151C2.77041 16.5505 2.80132 16.586 2.83807 16.628H2.70722C2.79582 16.6923 2.85455 16.7354 2.91637 16.7804C2.91328 16.8224 2.8913 16.8806 2.90984 16.9188C2.98471 17.0709 3.07572 17.2151 3.15196 17.3669C3.17016 17.4031 3.1547 17.4564 3.1547 17.5019C3.14303 17.5039 3.13135 17.506 3.11967 17.5077C3.08671 17.4526 3.05374 17.3972 2.99432 17.2974C2.9823 17.3866 2.95758 17.4664 2.97269 17.4747C3.09495 17.5432 3.13719 17.6626 3.14474 17.7803C3.1547 17.9328 3.22717 17.9724 3.36076 17.9782C3.41914 17.9806 3.4971 18.0047 3.52595 18.0467C3.54587 18.0756 3.49641 18.1524 3.48027 18.2012C3.52629 18.2136 3.61421 18.2109 3.63859 18.2491C3.74265 18.4105 3.83194 18.5823 3.91848 18.7547C3.96725 18.8518 3.99541 18.9591 4.04246 19.0569C4.06238 19.0982 4.1187 19.1213 4.13965 19.1622C4.21554 19.3116 4.28354 19.4647 4.35463 19.6165L4.35669 19.6183Z"
              fill="currentColor"/>
        <path d="M6.54111 23.7578C6.50952 23.6913 6.47792 23.6253 6.44221 23.5506H6.18086C6.24302 23.4714 6.15785 23.2814 6.40546 23.3936C6.35395 23.3031 6.3196 23.2422 6.27977 23.172C6.2492 23.1768 6.20421 23.1837 6.15923 23.1906C6.15339 23.1252 6.13381 23.0574 6.14446 22.9947C6.17193 22.835 6.0167 22.5621 5.84705 22.506C5.87315 22.4743 5.89651 22.4457 5.91986 22.4172C5.90543 22.4309 5.89135 22.4451 5.87693 22.4588C5.84911 22.3958 5.82164 22.3328 5.79382 22.2699C5.78592 22.2902 5.77768 22.3105 5.76978 22.3304C5.72651 22.3236 5.68289 22.3163 5.63962 22.3094C5.64134 22.2936 5.6434 22.2774 5.64512 22.2616C5.68736 22.2575 5.72926 22.2537 5.80138 22.2468C5.72376 22.1195 5.65611 22.009 5.58158 21.8868H5.41331C5.54072 21.683 5.43013 21.5639 5.32573 21.408C5.26048 21.3106 5.2464 21.2184 5.07366 21.2669C5.12105 21.1984 5.14715 21.1612 5.16604 21.134C5.07915 20.9688 4.99673 20.8129 4.91603 20.6591C4.89267 20.6835 4.85799 20.72 4.81575 20.7647C4.82673 20.6546 4.83566 20.5686 4.84837 20.4415C4.77728 20.4946 4.75049 20.5142 4.68696 20.5613C4.81884 20.2319 4.60832 20.1273 4.40947 20.0382C4.44485 19.9714 4.46889 19.9263 4.50151 19.865C4.28378 19.8778 4.22265 19.8141 4.27073 19.6606C4.29923 19.6461 4.32774 19.6313 4.35659 19.6165C4.2855 19.4647 4.2175 19.3116 4.1416 19.1622C4.12065 19.1213 4.06433 19.0982 4.04441 19.0569C3.99702 18.9588 3.9692 18.8514 3.92043 18.7547C3.83389 18.5826 3.7446 18.4108 3.64054 18.2491C3.61616 18.2109 3.52824 18.214 3.48222 18.2012C3.49837 18.1524 3.54782 18.0756 3.5279 18.0467C3.49905 18.0047 3.42109 17.9806 3.36271 17.9782C3.22912 17.9724 3.15666 17.9328 3.1467 17.7803C3.13914 17.6626 3.0969 17.5432 2.97464 17.4747C2.95953 17.4661 2.98426 17.3866 2.99628 17.2974C3.05569 17.3972 3.08866 17.4526 3.12163 17.5077C3.1333 17.5056 3.14498 17.5036 3.15666 17.5019C3.15666 17.4564 3.17211 17.4031 3.15391 17.3669C3.07767 17.2155 2.98666 17.0713 2.91179 16.9188C2.89325 16.8806 2.91523 16.8224 2.91832 16.7804C2.8565 16.7354 2.79778 16.6927 2.70917 16.628H2.84002C2.80327 16.586 2.77236 16.5505 2.74146 16.5151C2.76927 16.4961 2.79915 16.4758 2.82628 16.4573C2.72051 16.3344 2.61851 16.2184 2.55601 16.0755C2.50621 16.0009 2.43203 15.9313 2.41383 15.8494C2.40009 15.7868 2.45676 15.7086 2.48114 15.6402C2.40765 15.4939 2.09959 15.4736 2.22117 15.2406C2.13943 15.1318 2.06972 15.0392 2 14.947L2.02816 14.9194C2.06628 14.9483 2.1044 14.9769 2.17206 15.0278C2.13634 14.8489 2.10784 14.706 2.07315 14.5322C2.15798 14.5721 2.21189 14.5976 2.26718 14.6238C2.31526 14.4747 2.36506 14.3209 2.42825 14.1257C2.48663 14.2008 2.51102 14.2324 2.54742 14.2789C2.55807 14.2359 2.56528 14.2066 2.57936 14.1512C2.60409 14.209 2.62091 14.2486 2.63671 14.2861C2.74489 14.1832 2.84448 14.0782 2.95644 13.9891C2.98323 13.9678 3.05123 13.9977 3.10377 14.0046C3.10583 13.966 3.10823 13.9196 3.11064 13.8731C3.12231 13.8872 3.13399 13.901 3.14532 13.9151C3.18825 13.9013 3.23736 13.8965 3.27342 13.8724C3.36203 13.8129 3.43621 13.7175 3.53202 13.6879C3.62509 13.659 3.73808 13.6934 3.84969 13.7003C3.83939 13.6552 3.82084 13.5726 3.79955 13.4807C3.86068 13.501 3.92524 13.5224 3.95443 13.532C4.02106 13.4635 4.07017 13.4047 4.12786 13.3558C4.18109 13.3107 4.24394 13.2766 4.30232 13.2377C4.29408 13.2212 4.28618 13.2043 4.27794 13.1878C4.17045 13.2195 4.06296 13.2512 3.95581 13.2828C3.951 13.2722 3.94619 13.2611 3.94173 13.2505C4.01419 13.2126 4.08768 13.1761 4.15877 13.1362C4.20857 13.1083 4.27725 13.0866 4.29958 13.0426C4.40398 12.8361 4.52727 12.9121 4.64815 13.0061C4.75599 12.802 4.87172 12.6392 5.08533 12.5112C5.30101 12.3821 5.58914 12.3731 5.74368 12.1184C5.7976 12.0293 5.96656 12.0173 6.06787 11.9481C6.14652 11.8944 6.20181 11.8066 6.26775 11.734C6.26157 11.7192 6.25538 11.7044 6.2492 11.6896C6.41611 11.7006 6.58301 11.7113 6.74992 11.7233C6.764 11.7243 6.78186 11.7292 6.79113 11.7388C6.92026 11.8727 7.04286 12.0138 7.1792 12.1398C7.25819 12.2131 7.35984 12.2616 7.45016 12.3229C7.46596 12.3336 7.4742 12.3556 7.48966 12.3669C7.53567 12.401 7.58341 12.4323 7.63046 12.4647C7.64008 12.4495 7.64935 12.4341 7.65896 12.4189C7.6387 12.412 7.61844 12.4055 7.592 12.3965C7.75787 12.2947 7.8372 12.4365 7.90142 12.5242C8.0151 12.6798 8.09546 12.8591 8.19402 13.0261C8.22218 13.0739 8.26408 13.1135 8.31834 13.1796C8.31319 13.4236 8.48318 13.5984 8.66486 13.7898C8.8479 13.9826 8.9784 14.2266 9.12539 14.452C9.19751 14.5625 9.23872 14.6971 9.32458 14.7931C9.40631 14.8847 9.40666 14.9425 9.29504 15.0217C9.36407 15.0506 9.41215 15.0702 9.47191 15.0953C9.45027 15.1473 9.43138 15.1924 9.43138 15.1927C9.46023 15.2681 9.47534 15.3111 9.4932 15.3531C9.51587 15.4071 9.53201 15.466 9.56566 15.5125C9.65186 15.6322 9.75455 15.7403 9.83422 15.8639C9.91355 15.9871 9.94034 16.1816 10.0475 16.2411C10.2309 16.3426 10.1546 16.5691 10.3123 16.662C10.3267 16.6706 10.3143 16.7254 10.3143 16.7577C10.4792 16.745 10.4637 16.8995 10.5118 16.9925C10.6189 17.1993 10.6608 17.4451 10.871 17.5903C10.8878 17.602 10.8978 17.6275 10.905 17.6488C10.9562 17.7979 10.9943 17.9531 11.0613 18.0945C11.0953 18.1661 11.1921 18.205 11.2388 18.2735C11.2883 18.3458 11.3285 18.4329 11.3439 18.5189C11.3934 18.7915 11.5586 19.0094 11.6791 19.2465C11.7608 19.4076 11.8882 19.5453 11.9957 19.6929C12.0019 19.7015 12.0232 19.7067 12.0229 19.7119C12.0002 19.926 12.2087 20.012 12.277 20.1758C12.3505 20.3521 12.4188 20.531 12.504 20.7014C12.5871 20.868 12.6884 21.0253 12.7829 21.186C12.7932 21.2032 12.8176 21.2122 12.8272 21.2297C12.8955 21.3519 12.9615 21.4751 13.0497 21.6372C13.194 21.4648 13.3021 21.3357 13.4103 21.207C13.4137 21.2029 13.4244 21.1998 13.424 21.1981C13.3698 20.9613 13.6768 20.91 13.6929 20.7221C13.7386 20.6663 13.7846 20.6202 13.8183 20.5665C13.8705 20.4832 13.9134 20.394 13.9625 20.309C14.0096 20.2271 14.0632 20.1486 14.1078 20.0654C14.1617 19.9648 14.2095 19.8612 14.2603 19.759C14.2648 19.7501 14.2823 19.7411 14.2806 19.7363C14.204 19.4999 14.4358 19.4014 14.5058 19.231C14.5584 19.1023 14.6181 18.976 14.6844 18.8538C14.7298 18.7705 14.7936 18.6979 14.8451 18.6177C14.8733 18.574 14.8925 18.5248 14.909 18.4917C14.9959 18.3905 15.1267 18.3055 15.136 18.2088C15.1463 18.1014 15.1954 18.0581 15.2528 17.9965C15.2682 17.9799 15.2627 17.9441 15.2734 17.8767C15.3592 17.8195 15.4884 17.7311 15.4533 17.539C15.4489 17.5153 15.4695 17.4647 15.4767 17.465C15.6288 17.4726 15.6244 17.3205 15.7016 17.2513C15.6776 17.2138 15.6549 17.1783 15.6354 17.1473C15.6477 17.1267 15.6525 17.1091 15.6594 17.1081C15.8562 17.0775 15.8466 16.8727 15.9455 16.7594C16.0258 16.6672 16.0681 16.5402 16.1227 16.4266C16.1522 16.3654 16.168 16.2972 16.1986 16.2363C16.237 16.1602 16.2841 16.0883 16.3284 16.015C16.4407 15.8281 16.5561 15.6433 16.6632 15.4533C16.6804 15.423 16.6598 15.3717 16.6567 15.3276C16.7051 15.2757 16.7965 15.3772 16.8569 15.2161C16.9342 15.0106 17.017 15.0058 17.0832 14.8055C17.1035 14.7439 17.1571 14.6933 17.1808 14.632C17.2268 14.5133 17.2587 14.389 17.303 14.2696C17.3449 14.1567 17.393 14.0459 17.4449 13.9375C17.4576 13.911 17.4967 13.8982 17.5204 13.8755C17.6118 13.7881 17.6472 13.6749 17.6643 13.5537C17.6681 13.5265 17.6681 13.4924 17.6839 13.4742C17.8882 13.2412 18.0788 13.0033 18.163 12.6929C18.1798 12.6309 18.2811 12.592 18.3618 12.5284C18.358 12.4964 18.2323 12.4096 18.4099 12.3652C18.471 12.3501 18.5294 12.2396 18.551 12.1622C18.6486 11.8094 18.8749 11.5223 19.0226 11.1988C19.151 10.9172 19.4017 10.7307 19.5109 10.4457C19.5281 10.4006 19.5975 10.3779 19.6225 10.3335C19.6967 10.202 19.7585 10.0637 19.83 9.93045C19.8633 9.86781 19.9179 9.81549 19.9443 9.75079C20.0137 9.58214 20.0559 9.40006 20.1404 9.24002C20.2974 8.94298 20.4729 8.65559 20.6477 8.36854C20.7407 8.21572 20.8506 8.07323 20.9488 7.9235C20.9743 7.88461 20.9849 7.83539 21.0058 7.78273C21.1934 7.79409 21.2023 7.61374 21.2531 7.49293C21.2947 7.39483 21.2576 7.27988 21.3867 7.19934C21.4551 7.157 21.464 7.01038 21.489 6.90816C21.5443 6.68271 21.6769 6.50408 21.8218 6.33165C21.8359 6.31478 21.8551 6.29929 21.861 6.27967C21.92 6.08693 22.0179 5.92069 22.1422 5.75926C22.1989 5.68561 22.2216 5.57168 22.282 5.47806C22.3802 5.32697 22.4276 5.14352 22.5101 4.98071C22.5468 4.90844 22.6443 4.86128 22.6663 4.78797C22.7412 4.54084 22.8854 4.34087 23.0276 4.13092C23.167 3.92544 23.233 3.66937 23.3721 3.4632C23.4892 3.28939 23.5314 3.07805 23.7189 2.92799C23.8446 2.82749 24.0146 2.65299 23.9621 2.42066C23.9593 2.40758 23.972 2.38693 23.9837 2.37557C24.2711 2.08852 24.3395 1.67791 24.5582 1.35231C24.6077 1.27865 24.663 1.2074 24.7258 1.14511C24.8745 0.997795 25.0284 0.855302 25.1829 0.713497C25.2138 0.685274 25.2557 0.669097 25.3014 0.641907C25.3069 0.611618 25.3165 0.55827 25.3265 0.504921C25.4151 0.541749 25.504 0.578577 25.5968 0.61747C25.5878 0.579609 25.5772 0.535898 25.5641 0.481172H25.6912C25.8059 0.355544 25.9062 0.229572 26.0247 0.123907C26.0721 0.0812279 26.1741 0.048186 26.2252 0.0705581C26.4461 0.167274 26.6432 0.131823 26.831 0C26.9852 0.0946511 27.1353 0.182074 27.2792 0.278102C27.3293 0.311488 27.3743 0.361051 27.4056 0.413367C27.5004 0.572381 27.6089 0.669097 27.8088 0.548977C27.7779 0.58959 27.7466 0.630549 27.7109 0.677358C27.8462 0.805395 27.9314 0.650856 28.0468 0.615749C28.0498 0.669097 28.0526 0.720725 28.056 0.782679C28.0983 0.769944 28.1381 0.758242 28.1937 0.741376V0.861153C28.3253 0.883181 28.4475 0.903832 28.5701 0.924139C28.7123 0.947888 28.7487 1.01087 28.7034 1.12377C28.8274 1.16886 28.951 1.2136 29.0832 1.26179C28.9527 1.40256 29.0166 1.48447 29.1588 1.56914C29.2814 1.64211 29.3844 1.74881 29.5063 1.84931C29.4902 1.87031 29.461 1.90782 29.4215 1.95842C29.4802 1.98217 29.6032 1.94018 29.5506 2.06821C29.6526 2.07819 29.7543 2.09403 29.8563 2.09437C29.8782 2.09437 29.9006 2.0393 29.9486 2.02209C29.9298 2.07716 29.9105 2.13223 29.9016 2.1577C30.0864 2.16355 30.2804 2.1694 30.4978 2.17629C30.5074 2.16114 30.5431 2.10539 30.5847 2.04033C30.5939 2.06718 30.6012 2.08852 30.6084 2.1102C30.64 2.08886 30.6722 2.06752 30.7011 2.04825C30.7406 2.12122 30.8052 2.18489 30.8007 2.2434C30.7904 2.38968 30.7286 2.53321 30.7251 2.67845C30.7214 2.84607 30.7581 3.01438 30.7766 3.18234C30.7821 3.23432 30.7993 3.29042 30.7863 3.33757C30.7578 3.43911 30.6379 3.52894 30.7605 3.64493C30.767 3.65112 30.7509 3.68417 30.742 3.7031C30.7169 3.75576 30.6898 3.80773 30.641 3.90513C30.573 3.92682 30.5218 3.99978 30.5448 4.15019C30.5589 4.24244 30.5009 4.35395 30.4542 4.44585C30.3481 4.65511 30.22 4.85302 30.1193 5.0647C30.0771 5.15384 30.0819 5.26536 30.064 5.37618C30.0458 5.36861 30.0132 5.35484 29.9366 5.32284C29.9572 5.39684 29.9706 5.44571 29.9851 5.49803C29.7526 5.45741 29.7835 5.71418 29.6773 5.83189C29.5922 5.92619 29.5599 6.06593 29.4864 6.17366C29.3957 6.30686 29.4891 6.37432 29.5623 6.4287C29.4967 6.50236 29.4435 6.56156 29.3878 6.62386C29.3597 6.59908 29.3325 6.57498 29.3023 6.54883C29.2948 6.69648 29.2876 6.84104 29.2803 6.9856C29.2618 6.98973 29.2433 6.99386 29.2244 6.99799C29.1952 6.95565 29.1656 6.91297 29.1375 6.87202C28.9695 7.08679 28.7707 7.29915 28.859 7.62269C28.7051 7.59137 28.6055 7.6812 28.612 7.89115C28.6629 7.8144 28.7133 7.73764 28.7642 7.66089C28.7748 7.67328 28.7855 7.68602 28.7961 7.69841C28.8037 7.76449 28.8112 7.83057 28.8153 7.86809C28.7264 7.94588 28.6457 8.01609 28.565 8.0863C28.5564 8.07908 28.5475 8.07185 28.5389 8.06462C28.564 8.02229 28.589 7.97961 28.6138 7.93727C28.5976 7.92454 28.5818 7.91146 28.5657 7.89872C28.5018 7.98064 28.4108 8.0543 28.3813 8.14723C28.3517 8.24016 28.3833 8.3527 28.3881 8.45665C28.3716 8.45768 28.3548 8.45871 28.3383 8.45975C28.3424 8.42361 28.3462 8.38712 28.3503 8.35098C28.3339 8.34135 28.3174 8.33205 28.3009 8.32242C28.1725 8.51585 28.0159 8.69689 27.9242 8.90684C27.8507 9.07515 27.6872 9.22212 27.704 9.45444C27.6848 9.46029 27.6274 9.47785 27.6178 9.48095C27.5234 9.65373 27.4468 9.7914 27.3726 9.93011C27.3111 10.0451 27.2531 10.1617 27.1927 10.277C27.1824 10.2967 27.1717 10.3173 27.1563 10.3325C27.079 10.4089 26.9742 10.4571 26.9739 10.5992C26.9739 10.6484 26.8784 10.6973 26.8149 10.7568C26.8252 10.7654 26.852 10.7885 26.8798 10.8123C26.8784 10.8171 26.8781 10.8305 26.8716 10.8353C26.7943 10.89 26.7215 10.9251 26.7005 11.0504C26.6803 11.1723 26.5086 11.2803 26.5116 11.3915C26.5165 11.5736 26.3406 11.6256 26.3193 11.7846C26.3523 11.7984 26.3904 11.8142 26.4344 11.8324C26.4031 11.9198 26.3719 12.008 26.3238 12.1425C26.286 12.0499 26.2692 12.0086 26.2524 11.9673C26.2372 11.9715 26.2218 11.976 26.2067 11.9801C26.228 12.0551 26.2496 12.1305 26.2678 12.1938C26.2108 12.1938 26.1116 12.1749 26.1016 12.1969C26.0343 12.3459 25.8715 12.4705 25.9488 12.6719C25.9258 12.6351 25.9024 12.5986 25.8433 12.505C25.809 12.6144 25.7877 12.6815 25.7544 12.7882C25.7146 12.824 25.6369 12.8946 25.5494 12.9741C25.639 13.0956 25.5291 13.1472 25.4422 13.1937C25.3388 13.2491 25.3577 13.2808 25.4422 13.3148C25.3529 13.4239 25.2544 13.5289 25.1761 13.6477C25.1472 13.691 25.161 13.7664 25.1647 13.8266C25.1706 13.9285 25.1417 13.9812 25.015 13.9382C25.0699 14.0917 24.8117 14.2218 25.0222 14.3925C24.9085 14.3515 24.834 14.3226 24.8258 14.4844C24.8213 14.5694 24.7231 14.6489 24.6702 14.7329C24.5266 14.9597 24.3762 15.1827 24.2447 15.4161C24.097 15.6777 23.9954 15.9706 23.8185 16.2084C23.7117 16.3519 23.7254 16.5843 23.5115 16.649C23.5053 16.6507 23.5029 16.6696 23.5012 16.6806C23.4445 17.0403 23.1457 17.2682 23.0108 17.5862C22.9562 17.7153 22.8792 17.835 22.8085 17.9565C22.7958 17.9786 22.7614 17.9868 22.7398 18.0047C22.7123 18.0271 22.6629 18.0563 22.6656 18.077C22.6955 18.2976 22.4973 18.4246 22.4496 18.6208C22.4026 18.8142 22.2484 18.9812 22.135 19.1698C22.1883 19.1798 22.236 19.1884 22.2899 19.1987C22.2958 19.1323 22.3009 19.0765 22.3074 19.0042C22.3538 19.0256 22.3899 19.0421 22.4304 19.0607C22.348 19.1457 22.3208 19.2823 22.1646 19.2579C22.135 19.2534 22.0876 19.303 22.0636 19.3381C21.9781 19.463 21.9077 19.599 21.8153 19.7181C21.704 19.8612 21.6687 20.0392 21.577 20.1889C21.4983 20.3176 21.3929 20.4302 21.3129 20.5582C21.2765 20.6167 21.2947 20.7252 21.2493 20.7592C21.124 20.8539 21.1566 21.026 21.0584 21.1151C20.9502 21.2132 20.9272 21.3419 20.8678 21.459C20.8015 21.5894 20.7002 21.7009 20.626 21.8279C20.5628 21.9357 20.5165 22.0534 20.4574 22.178C20.4907 22.1966 20.5264 22.2165 20.5625 22.2368L20.5244 22.2048C20.467 22.264 20.4035 22.318 20.3533 22.3828C20.2352 22.5352 20.1074 22.6839 20.013 22.8508C19.9148 23.024 19.8513 23.2167 19.7692 23.4088C19.7208 23.3706 19.6936 23.3492 19.6758 23.3351C19.6229 23.4573 19.5216 23.5771 19.5353 23.6814C19.5666 23.9199 19.3468 24.0028 19.2846 24.1791C19.2149 24.3777 19.1033 24.5611 19.0301 24.7587C19.0099 24.8137 19.06 24.8953 19.0816 24.979C19.0679 24.9834 19.0184 24.9993 18.969 25.0151C18.9772 25.0247 18.9858 25.0344 18.9941 25.044C18.9439 25.0901 18.8965 25.1404 18.8423 25.1806C18.8076 25.2065 18.7623 25.2178 18.7217 25.2357C18.7495 25.2739 18.7777 25.3125 18.8237 25.3755C18.8124 25.4023 18.788 25.4591 18.7451 25.5592C18.7107 25.4643 18.6946 25.4192 18.6633 25.3324C18.5524 25.5438 18.4604 25.7189 18.3683 25.8945C18.3639 25.8886 18.3594 25.8828 18.3549 25.8766C18.3189 25.9127 18.2722 25.9434 18.2499 25.9867C18.2231 26.0387 18.2255 26.1055 18.2014 26.1592C18.151 26.2717 18.0888 26.3788 18.0369 26.491C18.0277 26.5109 18.0469 26.5436 18.0534 26.5729C17.9154 26.5787 17.8326 26.6448 17.8288 26.8135C17.8271 26.8792 17.756 26.9425 17.7186 27.0083C17.5424 27.3163 17.3298 27.6099 17.2034 27.9376C17.1107 28.1782 16.9287 28.352 16.8367 28.5895C16.7563 28.7967 16.5946 28.9715 16.4719 29.1629C16.4565 29.187 16.4565 29.2228 16.4555 29.2534C16.4548 29.2685 16.4678 29.284 16.4747 29.2995C16.3164 29.3419 16.3342 29.5343 16.1948 29.6165C16.0856 29.6812 16.0444 29.8564 15.9609 29.9738C15.9338 30.0116 15.8672 30.0213 15.806 30.0498C15.8256 30.0877 15.849 30.1328 15.8823 30.1972H15.6415C15.6738 30.3847 15.5691 30.582 15.4056 30.6656C15.3785 30.6794 15.374 30.7324 15.351 30.7606C15.3301 30.7864 15.3002 30.8184 15.2713 30.8219C15.1092 30.8408 15.0145 30.9399 14.9358 31.0728C14.7899 31.3195 14.5841 31.5195 14.3015 31.5598C14.1439 31.5822 14.0954 31.6383 14.0697 31.7629C13.923 31.7976 13.8049 31.9133 13.6239 31.8482C13.4917 31.8007 13.3375 32.0399 13.1826 31.8427C13.0923 31.9012 13.0085 31.9553 12.9391 32C12.7894 31.9659 12.6472 31.9332 12.5002 31.8998C12.5037 31.893 12.5219 31.8548 12.5394 31.819C12.4717 31.8 12.389 31.746 12.3371 31.7677C12.1286 31.8548 11.9611 31.7326 11.7838 31.6778C11.6599 31.6396 11.528 31.5901 11.4597 31.4576C11.4531 31.4452 11.4294 31.43 11.4181 31.4331C11.2141 31.4882 11.2035 31.3065 11.1231 31.1839C11.0702 31.2053 11.0156 31.2276 10.9933 31.2366C10.8937 31.1863 10.815 31.1468 10.7309 31.1041C10.7258 30.8243 10.6979 30.7764 10.5042 30.7399C10.4428 30.5455 10.4407 30.3097 10.1976 30.2037C10.2147 30.1768 10.2381 30.1404 10.2559 30.1125C10.178 30.056 10.1031 30.002 9.98773 29.9184C10.0681 29.9091 10.0925 29.9063 10.1347 29.9015C10.0684 29.7948 10.0059 29.6946 9.95511 29.6131C9.87681 29.5721 9.80709 29.5356 9.73085 29.496C9.75077 29.4702 9.77034 29.4451 9.76588 29.4506C9.55742 29.0844 9.35617 28.7309 9.15493 28.3774C9.15046 28.3802 9.146 28.3833 9.14187 28.386C9.11887 28.3375 9.0962 28.2886 9.07285 28.2401C8.94715 27.9778 8.82489 27.7142 8.69474 27.4543C8.64047 27.3459 8.57488 27.2427 8.50379 27.1446C8.48525 27.1194 8.42652 27.1236 8.38703 27.1143C8.48284 26.957 8.34753 26.8506 8.29224 26.735C8.17891 26.4975 8.04806 26.2679 7.91688 26.0397C7.84682 25.9179 7.76027 25.8057 7.683 25.688C7.65141 25.6398 7.61363 25.5919 7.59715 25.5383C7.54632 25.3724 7.45291 25.2509 7.28703 25.1941C7.31451 25.1765 7.34439 25.1572 7.34404 25.1576C7.30283 25.0526 7.26883 24.9683 7.23621 24.8836C7.18469 24.7487 7.09231 24.6551 6.96421 24.5793C6.98722 24.494 7.01573 24.3973 6.9285 24.2854C6.82787 24.156 6.76812 23.9953 6.6802 23.8545C6.65204 23.8094 6.5916 23.785 6.54558 23.7512L6.54317 23.7592L6.54111 23.7578Z"
              fill="currentColor"/>
        <path d="M4.35748 19.6139C4.32898 19.6287 4.30047 19.6432 4.27163 19.658C4.22732 19.6556 4.18268 19.6535 4.18165 19.6532C4.12224 19.5121 4.07381 19.3974 4.02539 19.2825C4.03054 19.277 4.03569 19.2711 4.04084 19.2656C4.09202 19.3286 4.14078 19.394 4.19539 19.4542C4.24621 19.5103 4.30322 19.5613 4.35748 19.6143V19.6139Z"
              fill="currentColor"/>
        <path d="M6.54297 23.7583C6.54297 23.7583 6.54587 23.75 6.54551 23.75L6.54297 23.7583Z" fill="currentColor"/>
</svg>
