<svg viewBox="0 0 32 32" fill="none" xmlns="http://www.w3.org/2000/svg">
    <path d="M29.2591 2.31329H29.5634C29.6103 2.40103 29.5815 2.58891 29.797 2.54246C29.8439 2.7589 29.803 3.0125 29.9779 3.19728L29.9763 3.21139L29.9897 3.21414C29.999 3.23823 30.0138 3.28434 30.0171 3.28365C30.1274 3.2544 30.1549 3.32494 30.1629 3.412C30.1686 3.47015 30.1639 3.52968 30.1639 3.63567C30.1857 3.64083 30.2507 3.65597 30.3154 3.67145C30.311 3.67661 30.3067 3.68178 30.3023 3.68694C30.3677 3.72479 30.4347 3.76023 30.4984 3.80152C30.5899 3.86071 30.6784 3.92506 30.7692 3.98527C30.8017 4.00695 30.8372 4.02347 30.8707 4.04239C30.86 4.0713 30.8496 4.10055 30.8396 4.1298C30.858 4.13565 30.8761 4.14115 30.8945 4.147C30.8912 4.12842 30.8878 4.10949 30.8848 4.09091C31.0001 4.07749 31.1154 4.05409 31.2306 4.05478C31.301 4.05478 31.3972 4.0713 31.4334 4.11913C31.4683 4.16489 31.4492 4.26193 31.4384 4.33385C31.425 4.42366 31.3858 4.51037 31.3778 4.60018C31.3744 4.63631 31.4244 4.67726 31.4552 4.72406H31.0782C31.1586 4.9343 31.2283 5.11633 31.3077 5.32348C31.2022 5.33725 31.1506 5.34378 31.0973 5.35067C31.2122 5.51549 31.1378 5.74707 30.8905 5.86131C30.9585 5.97486 30.8731 6.00824 30.8024 6.07637C30.675 6.19922 30.5771 6.35406 30.4635 6.49239C30.4562 6.50134 30.4203 6.4862 30.3888 6.48069C30.3255 6.7484 30.0892 6.88742 29.9122 7.0753C29.7326 7.26593 29.5433 7.44727 29.3335 7.6004C29.309 7.65924 29.3 7.73838 29.2567 7.77176C29.1998 7.81615 29.1163 7.82544 29.0647 7.84264C29.0181 7.93899 28.993 8.06941 28.9156 8.13272C28.7641 8.25694 28.7078 8.51846 28.4943 8.5102C28.2373 8.76518 27.9953 9.00502 27.7533 9.2452C27.7285 9.29131 27.8284 9.41484 27.6407 9.3966C27.6008 9.59171 27.3545 9.60306 27.3026 9.79645C27.2932 9.8312 27.1903 9.83912 27.1052 9.86802C27.0864 9.90828 27.0516 9.98329 27.0167 10.058C26.9899 10.0432 26.9627 10.0284 26.9329 10.0122C26.9229 10.0342 26.9128 10.0686 26.8937 10.0965C26.8565 10.1509 26.816 10.2035 26.7737 10.2538C26.7352 10.2995 26.6896 10.3391 26.6511 10.3849C26.6018 10.4437 26.4999 10.4354 26.4929 10.5621C26.4892 10.6309 26.3779 10.6966 26.3106 10.7579C26.2583 10.8054 26.1926 10.8384 26.1434 10.8886C26.072 10.9616 26.01 11.0442 25.9202 11.1508C25.9272 11.1512 25.8917 11.1491 25.8561 11.1467C25.8655 11.1553 25.8746 11.1639 25.884 11.1725C25.7737 11.2812 25.6634 11.3903 25.5532 11.4991C25.5525 11.4963 25.5515 11.4939 25.5508 11.4911C25.519 11.5328 25.4862 11.5734 25.4557 11.6157C25.4242 11.6598 25.3953 11.7055 25.386 11.72C25.1953 11.9048 25.026 12.0689 24.8219 12.2664C24.8769 12.2991 24.9181 12.3235 24.9707 12.3548C24.8957 12.4178 24.7217 12.3858 24.8313 12.6239C24.6383 12.4247 24.5431 12.5021 24.4489 12.6408C24.399 12.7141 24.3209 12.7674 24.2559 12.8304C24.2234 12.862 24.1674 12.8927 24.1644 12.9274C24.1527 13.0695 24.0635 13.0448 23.9821 13.0303C23.9603 13.1008 23.9402 13.1662 23.9198 13.2313L23.8816 13.1996C23.8437 13.2357 23.779 13.2674 23.7726 13.3083C23.7465 13.4797 23.7167 13.5031 23.5592 13.4195C23.5729 13.4708 23.5836 13.511 23.5943 13.5516C23.4677 13.6308 23.3406 13.7096 23.2143 13.7887C23.2994 13.9312 23.2827 13.9491 23.0236 13.9601C23.0528 14.0065 23.0856 14.0585 23.1349 14.1369C23.0008 14.1001 22.9201 14.0946 22.8902 14.2526C22.8755 14.3317 22.7538 14.3885 22.6828 14.4583C22.6362 14.5041 22.5936 14.5543 22.5437 14.609C22.53 14.6662 22.5122 14.7395 22.4948 14.8127C22.2803 14.8148 22.2136 14.8898 22.1895 15.1558C22.1737 15.1145 22.158 15.0732 22.1422 15.0319C22.1278 15.0278 22.1134 15.0233 22.099 15.0192C22.0725 15.0767 22.046 15.1338 22.0196 15.1913C21.9173 15.1551 21.8366 15.1737 21.8024 15.3334C21.7897 15.3932 21.6982 15.4339 21.6459 15.4865C21.5896 15.5433 21.5313 15.5997 21.486 15.6654C21.474 15.683 21.4978 15.7401 21.5195 15.7669C21.5893 15.8537 21.6704 15.9311 21.737 16.0199C21.7585 16.0488 21.7488 16.1021 21.7541 16.1541C21.921 16.1393 22.0021 16.2425 22.0638 16.3997C22.0879 16.4613 22.1875 16.492 22.2562 16.5391C22.2381 16.5549 22.2203 16.5708 22.1965 16.5917C22.4133 16.6523 22.3895 16.9923 22.6077 16.9723C22.6392 17.0649 22.6607 17.1282 22.6908 17.2177C22.716 17.1692 22.728 17.1454 22.7233 17.1547C22.8061 17.2118 22.8909 17.2707 22.9807 17.3326C22.967 17.345 22.9418 17.3674 22.9449 17.3646C23.0719 17.4837 23.1962 17.6007 23.3226 17.719C23.3215 17.6973 23.3202 17.6691 23.3185 17.6351C23.4573 17.7858 23.591 17.9306 23.7391 18.0913C23.7364 18.1024 23.7261 18.1478 23.7197 18.175C23.8175 18.2538 23.904 18.3236 23.9901 18.3931C24.0347 18.4354 23.9275 18.5115 24.0917 18.5868C24.2552 18.6619 24.3558 18.8817 24.5009 19.0593C24.4915 19.061 24.5304 19.0541 24.5692 19.0473V19.1897C24.7284 19.1333 24.6919 19.2874 24.7254 19.3838C24.7723 19.369 24.8099 19.3569 24.8608 19.3408C24.8518 19.3924 24.8447 19.432 24.838 19.4715C24.8504 19.4605 24.8628 19.4492 24.8752 19.4382C24.9365 19.4815 25.0012 19.5211 25.0585 19.5696C25.1366 19.636 25.1721 19.7654 25.3132 19.7382C25.327 19.7355 25.3628 19.7912 25.3692 19.8235C25.3766 19.8617 25.3625 19.9041 25.3568 19.9533C25.4791 19.9017 25.451 19.9213 25.5364 20.0503C25.6249 20.1842 25.7754 20.275 25.8984 20.3851C25.9815 20.4594 26.069 20.53 26.1427 20.6133C26.1584 20.6311 26.1246 20.6958 26.1212 20.7086C26.1792 20.7488 26.2369 20.7753 26.2764 20.819C26.3917 20.947 26.4889 21.0953 26.6166 21.2072C26.6648 21.2492 26.7607 21.2333 26.7543 21.3407C26.7912 21.3331 26.828 21.3255 26.8884 21.3132C26.8934 21.3947 26.8984 21.4728 26.9014 21.5182C26.9584 21.5265 27.0204 21.5354 27.1038 21.5475C27.0613 21.6187 27.0382 21.6569 27.0402 21.6538C27.2114 21.7877 27.389 21.893 27.5238 22.0399C27.6833 22.2137 27.7952 22.4332 27.949 22.6135C28.0278 22.7057 28.1531 22.756 28.2714 22.8344V22.938C28.502 23.0653 28.5563 23.4232 28.8864 23.416C28.7932 23.6135 28.9833 23.6424 29.0382 23.7391C29.1143 23.8729 29.248 23.9724 29.3563 24.0876C29.3666 24.0987 29.3707 24.1276 29.3784 24.1276C29.6368 24.1379 29.6415 24.4194 29.7913 24.5515C29.9632 24.7029 30.1251 24.8825 30.2866 25.0546C30.4501 25.2287 30.6053 25.4155 30.7893 25.5631C30.9257 25.6726 30.9904 25.8887 31.104 25.9306C31.2947 26.0012 31.1536 26.209 31.3004 26.2579C31.3164 26.263 31.3191 26.3105 31.3349 26.3157C31.4448 26.3501 31.4689 26.4389 31.4797 26.539C31.4776 26.5473 31.4753 26.5555 31.4733 26.5638C31.482 26.5603 31.4907 26.5566 31.4994 26.5531C31.5537 26.6557 31.537 26.7255 31.4123 26.7589C31.5041 26.7778 31.5963 26.7967 31.6908 26.816C31.6465 26.8487 31.599 26.8838 31.5802 26.8979C31.5742 27.0331 31.5648 27.1522 31.5668 27.2709C31.5675 27.3002 31.6053 27.3287 31.6254 27.3583C31.6982 27.4636 31.9053 27.4743 31.8396 27.6804C31.8335 27.6993 31.8661 27.7482 31.8892 27.7558C31.9177 27.765 31.9552 27.7454 31.9984 27.7365C31.9351 27.8029 31.9455 27.9302 31.8054 27.9378C31.7819 27.9392 31.7652 28.0338 31.7417 28.0837C31.7297 28.1095 31.7102 28.1322 31.6925 28.1549C31.665 28.1897 31.6335 28.2213 31.6087 28.2578C31.5494 28.3452 31.478 28.4285 31.4391 28.5248C31.365 28.7093 31.1613 28.7822 31.0862 28.9715C31.0805 28.9329 31.0748 28.8944 31.0681 28.8472C30.9345 28.9858 30.8511 29.018 30.8178 28.9439C30.7484 29.0286 30.8751 29.1759 30.6991 29.2419C30.6244 29.2701 30.4967 29.2567 30.4568 29.373C30.5235 29.437 30.4625 29.6142 30.3533 29.7034C30.2343 29.8001 30.1374 29.926 30.0171 30.0213C29.9109 30.1056 29.7906 30.1744 29.6689 30.2333C29.5429 30.2942 29.4075 30.3355 29.2651 30.3895C29.2946 30.437 29.3214 30.4797 29.3599 30.5416C29.3653 30.4938 29.3677 30.47 29.376 30.394C29.4109 30.4776 29.428 30.5189 29.438 30.543C29.2986 30.5905 29.182 30.6307 29.0684 30.6693C29.061 30.7188 29.054 30.7666 29.0466 30.8148C29.0181 30.7949 28.9896 30.7749 28.9417 30.7415C28.9497 30.8117 28.9561 30.8675 28.9632 30.9297C28.6404 31.1489 28.4346 31.5003 28.5231 31.6345C28.4544 31.7353 28.3924 31.8261 28.3073 31.9514C28.2295 31.9397 28.1129 31.9032 27.9986 31.9101C27.8847 31.917 27.7734 31.9672 27.6826 31.9927C27.6776 31.9999 27.6937 31.9772 27.7094 31.9541C27.7041 31.9421 27.6987 31.93 27.693 31.9177C27.6283 31.9428 27.5636 31.9682 27.4708 32.0044C27.2275 32.0171 27.0298 31.8533 26.8277 31.6616C26.7044 31.6943 26.5458 31.5839 26.5422 31.4641C26.4999 31.4562 26.4346 31.4569 26.4309 31.4418C26.4041 31.3337 26.3022 31.3299 26.2399 31.2749C26.0723 31.1266 25.9198 30.9597 25.7677 30.7938C25.6467 30.662 25.5354 30.5216 25.4168 30.3812C25.3605 30.4157 25.3146 30.4439 25.2687 30.4717C25.2616 30.4607 25.2546 30.4497 25.2475 30.4387C25.2821 30.3984 25.3166 30.3578 25.336 30.3351C25.2258 30.2178 25.1303 30.1163 25.02 29.9989C25.0381 29.9883 24.9959 30.0189 24.9922 30.0148C24.8678 29.8696 24.7516 29.7168 24.6229 29.5757C24.5893 29.5389 24.521 29.5299 24.4667 29.5193C24.4037 29.5069 24.338 29.5065 24.2623 29.5C24.2918 29.4098 24.3125 29.3472 24.335 29.2777C24.283 29.2333 24.2291 29.1872 24.159 29.1277C24.1098 29.1738 24.0605 29.2202 24.03 29.2492C23.8718 29.0651 23.7056 28.8713 23.539 28.6776C23.5508 28.668 23.5625 28.6583 23.5742 28.6487C23.598 28.6862 23.6218 28.7237 23.647 28.7636C23.7445 28.6621 23.6711 28.5888 23.6088 28.5314C23.4921 28.424 23.3648 28.329 23.2341 28.2227C23.2227 28.2409 23.2039 28.2712 23.1724 28.3215C23.1004 28.2052 23.0333 28.0971 22.9663 27.9891C22.9663 27.9712 22.9663 27.9533 22.9663 27.9354C22.9274 27.8772 22.8926 27.8149 22.8487 27.7613C22.72 27.6033 22.545 27.4671 22.4713 27.2867C22.419 27.1584 22.3302 27.1797 22.2629 27.1285C22.2538 27.1216 22.2213 27.1467 22.2039 27.1546C22.2163 26.9547 22.0105 26.9055 21.923 26.7685C21.8751 26.6939 21.8141 26.6281 21.7602 26.5576C21.7478 26.5414 21.7427 26.5139 21.7273 26.5063C21.5336 26.411 21.4408 26.2162 21.3064 26.0624C21.2498 25.9974 21.1915 25.9331 21.1271 25.877C21.112 25.8639 21.0685 25.8845 21.0554 25.8869C20.8345 25.6044 20.6348 25.3123 20.3107 25.1478L20.3077 25.1513C20.3359 25.1258 20.3643 25.1003 20.4203 25.0497C20.3265 25.0036 20.2336 24.9837 20.1794 24.9255C20.1013 24.8419 20.0855 24.9021 20.054 24.9555C20.1344 24.8412 20.1368 24.759 19.984 24.7029C19.9639 24.6953 19.7993 24.6564 19.8838 24.5305C19.8459 24.5088 19.7903 24.4968 19.7738 24.4637C19.7152 24.3471 19.6495 24.2542 19.4974 24.2962C19.5245 24.2081 19.5986 24.1217 19.4407 24.1193C19.3811 24.1186 19.3218 24.087 19.2517 24.066C19.377 23.822 18.9484 23.8798 19.0215 23.6926C18.9075 23.6031 18.807 23.524 18.6843 23.4277C18.5211 23.4855 18.5989 23.2979 18.565 23.2105C18.497 23.2577 18.4306 23.3031 18.3492 23.3592C18.3438 23.3076 18.3338 23.2752 18.3385 23.2449C18.3556 23.1345 18.3378 23.0591 18.2453 22.969C18.0855 22.8138 17.9705 22.6111 17.8234 22.4404C17.6672 22.2594 17.5177 22.0681 17.3009 21.9522C17.2728 21.937 17.2681 21.8764 17.2657 21.8713C17.1873 21.8324 17.135 21.8066 17.0837 21.7822C17.012 21.7223 16.9906 21.52 16.8354 21.6889C16.5941 21.5853 16.7369 21.2956 16.5754 21.1229C16.5516 21.3379 16.2479 21.1318 16.2382 21.3909C16.2228 21.3727 16.2034 21.3493 16.1675 21.3063C16.1283 21.3744 16.0854 21.4491 16.0422 21.5241C15.9748 21.4209 15.9436 21.3734 15.9145 21.3293C15.8733 21.4205 15.8428 21.4883 15.8032 21.5757C15.7868 21.5685 15.7509 21.5527 15.7496 21.5523C15.6112 21.6617 15.4808 21.7533 15.3672 21.8627C15.3334 21.895 15.3464 21.979 15.338 22.0392C15.3243 22.0275 15.3106 22.0155 15.2972 22.0038C15.2191 22.0774 15.1407 22.1507 15.0632 22.225C15.0562 22.2319 15.0532 22.246 15.0535 22.257C15.0578 22.4204 14.9631 22.5068 14.7697 22.5165C14.7579 22.5172 14.7472 22.5399 14.7301 22.5591C14.7583 22.5805 14.7891 22.6039 14.8082 22.6187C14.7325 22.639 14.6581 22.6586 14.584 22.6785L14.5944 22.7381C14.6256 22.7415 14.6567 22.745 14.6876 22.7484C14.6889 22.7635 14.6902 22.7787 14.6916 22.7942C14.6386 22.8017 14.586 22.8093 14.524 22.8179C14.5394 22.7701 14.5525 22.7284 14.5746 22.6593C14.4959 22.6964 14.4409 22.7222 14.397 22.7429V22.9015C14.3776 22.8943 14.3581 22.8867 14.3333 22.8774C14.3179 23.0935 14.1483 23.1655 13.9942 23.248C14.0277 23.2941 14.0659 23.3471 14.1044 23.4005C13.9181 23.4032 13.8182 23.4473 13.8219 23.6269L13.8226 23.6186C13.7338 23.6702 13.6456 23.7222 13.5562 23.7731C13.5391 23.7828 13.5143 23.7817 13.5005 23.7941C13.4744 23.8182 13.4506 23.8464 13.4315 23.8767C13.4074 23.9156 13.3815 23.9961 13.3698 23.9937C13.1989 23.9562 13.1761 24.1351 13.0836 24.2043C12.909 24.3354 12.8018 24.5494 12.596 24.6523C12.5772 24.6616 12.5856 24.7277 12.5799 24.7793C12.5347 24.7972 12.4646 24.8251 12.3855 24.8567C12.3929 24.876 12.4063 24.9097 12.4194 24.9438L12.3865 24.9107C12.2796 25.0312 12.1891 25.1757 12.0621 25.2665C11.8919 25.388 11.8115 25.6251 11.5772 25.6602C11.5604 25.6626 11.5427 25.6836 11.5323 25.7004C11.4519 25.8312 11.3731 25.963 11.2933 26.0955C11.2759 26.0745 11.2555 26.0497 11.2159 26.0019C11.1951 26.0703 11.1861 26.1227 11.1636 26.1681C11.1476 26.2004 11.1047 26.2513 11.0892 26.2462C10.9012 26.1836 10.9931 26.3522 10.9472 26.4237C10.91 26.3831 10.8744 26.3443 10.855 26.3229C10.7457 26.4967 10.6388 26.6777 10.5185 26.849C10.4934 26.8848 10.4022 26.869 10.3727 26.9045C10.2715 27.027 10.1844 27.1615 10.0795 27.3088C10.0252 27.3012 9.77922 27.4901 9.73364 27.6047C9.71923 27.6408 9.68304 27.6704 9.6522 27.6969C9.615 27.7289 9.56876 27.7499 9.53357 27.7833C9.38075 27.9292 9.2286 28.0758 9.08014 28.2265C8.993 28.3153 8.90922 28.4085 8.83247 28.5069C8.80566 28.5413 8.80365 28.5967 8.78555 28.659C8.46383 28.7901 8.21047 29.0465 7.99129 29.3397C7.89276 29.4198 7.78117 29.489 7.70174 29.586C7.6699 29.6249 7.66588 29.6641 7.60522 29.7016C7.46514 29.788 7.39074 29.9532 7.2473 30.0609C7.16017 30.1263 7.05326 30.2116 6.95373 30.2963C6.96378 30.2694 6.97383 30.2426 6.98422 30.2157C6.97115 30.2078 6.95775 30.1996 6.94468 30.1916C6.92021 30.2364 6.87799 30.2797 6.8743 30.3262C6.85922 30.5216 6.70975 30.6465 6.52643 30.6314C6.47851 30.6273 6.39607 30.693 6.37831 30.7446C6.33876 30.8585 6.25464 30.9067 6.16617 30.9624C6.11355 30.9955 6.07065 31.0454 6.03882 31.0739C6.00631 31.0416 5.96643 31.0017 5.94397 30.9789C5.8622 31.0653 5.79484 31.1365 5.69531 31.2415C5.6695 31.1414 5.65777 31.0966 5.64001 31.0278C5.59812 31.0619 5.5378 31.086 5.52372 31.1269C5.48552 31.2384 5.45669 31.2787 5.32365 31.2243C5.24824 31.1937 5.12961 31.2749 5.02471 31.3072C5.0485 31.3561 5.06425 31.3881 5.07732 31.4153C4.92518 31.4469 4.78107 31.4769 4.60512 31.5137C4.62188 31.5288 4.60579 31.5147 4.59038 31.5003C4.51833 31.4335 4.4513 31.3784 4.50894 31.2518C4.57195 31.1135 4.59541 30.9566 4.64467 30.8107C4.67316 30.7267 4.57731 30.4126 4.48347 30.3214C4.42047 30.2605 4.34406 30.2085 4.30049 30.1356C4.28139 30.1039 4.32898 30.0299 4.34875 29.968C4.27569 29.9528 4.19191 29.9353 4.07964 29.9119C4.06489 29.8785 4.03339 29.8069 4.00088 29.7333C3.94391 29.6748 3.87923 29.6084 3.83533 29.563C3.76361 29.5895 3.69859 29.6132 3.62218 29.6414C3.6319 29.6607 3.65201 29.6992 3.67178 29.7381C3.66307 29.7512 3.65469 29.7639 3.64598 29.777C3.5947 29.7343 3.54343 29.6917 3.49249 29.649C3.48444 29.6425 3.47707 29.6352 3.46903 29.6284C3.32202 29.713 3.19623 29.7538 3.09167 29.7509C3.08832 29.5685 3.21969 29.4673 3.31755 29.3479C3.16037 29.2853 2.97739 29.2877 2.91338 29.0637C2.89327 28.9928 2.7428 28.9611 2.64494 28.9075C2.63589 28.9271 2.61981 28.9611 2.60003 29.0031C2.63388 29.0086 2.66438 29.0138 2.69454 29.0186C2.68482 29.0379 2.6751 29.0568 2.66572 29.0761C2.61478 29.041 2.54876 29.0169 2.51558 28.9691C2.38521 28.7812 2.27764 28.5754 2.13588 28.3982C2.07388 28.3204 1.99948 28.2165 1.86174 28.2289C1.67909 28.2451 1.6 28.1301 1.56649 27.9588C1.55275 27.8886 1.48606 27.8256 1.48405 27.7582C1.48237 27.6979 1.53733 27.6364 1.58827 27.5321C1.58961 27.5328 1.55174 27.5097 1.51387 27.4863C1.50482 27.4805 1.49242 27.4739 1.48907 27.465C1.43579 27.3157 1.35569 27.1694 1.33826 27.0156C1.31179 26.7809 1.37546 26.6756 1.5323 26.5311C1.53767 26.4175 1.54202 26.325 1.54638 26.2307C1.57554 26.229 1.60704 26.2269 1.62413 26.2259C1.64926 26.1385 1.67138 26.0611 1.69987 25.9623C1.67675 25.9368 1.63653 25.8925 1.58727 25.8381C1.61475 25.813 1.65161 25.7947 1.66401 25.7658C1.72702 25.6185 1.76891 25.4599 1.84733 25.3226C1.89994 25.2304 2.00082 25.1667 2.08024 25.091C2.21497 24.9627 2.34935 24.834 2.48542 24.7074C2.62684 24.5756 2.77196 24.4479 2.91103 24.3137C2.93684 24.2889 2.94321 24.2415 2.95561 24.2036C2.97136 24.1558 2.97337 24.0966 3.00286 24.0625C3.01727 24.0457 3.08128 24.0742 3.1587 24.089C3.16339 24.0364 3.14764 23.9548 3.17948 23.9084C3.26527 23.7838 3.3514 23.6379 3.47406 23.5677C3.64698 23.4686 3.7559 23.3268 3.86817 23.1741C3.89599 23.1362 3.96636 23.1314 4.00624 23.1159C4.0468 23.0602 4.09975 22.948 4.12957 22.9538C4.24921 22.9779 4.22877 22.8702 4.27334 22.8275C4.31725 22.7856 4.3645 22.747 4.41175 22.7088C4.58502 22.5677 4.64199 22.3193 4.8806 22.2243C4.99019 22.1806 5.05286 22.0103 5.1353 21.8964C5.22277 21.776 5.33571 21.6941 5.46507 21.6225C5.56394 21.5678 5.63968 21.4697 5.72782 21.3933C5.75898 21.3661 5.8002 21.3224 5.83037 21.3273C5.9795 21.3517 5.96274 21.2615 5.94632 21.1514C6.03982 21.2147 6.09847 21.2134 6.12193 21.084C6.13332 21.022 6.19499 20.968 6.23856 20.9143C6.30927 20.8266 6.38568 20.7437 6.45572 20.6552C6.60619 20.4649 6.74427 20.2633 6.90681 20.0844C6.99796 19.9842 7.13269 19.9275 7.23725 19.8383C7.315 19.7723 7.37566 19.6852 7.4467 19.6044C7.43162 19.5861 7.44838 19.6064 7.46514 19.6267C7.72453 19.3677 7.84428 19.2229 7.8244 19.1921C7.95812 19.0586 8.08781 18.9272 8.21918 18.7981C8.29492 18.7235 8.3777 18.656 8.45009 18.5782C8.58179 18.4365 8.81035 18.378 8.82309 18.1309C8.87872 18.1443 8.93804 18.1588 8.9682 18.166C9.07276 18.0421 9.16392 17.9337 9.25507 17.8253C9.2591 17.8281 9.26312 17.8309 9.26714 17.8336C9.34824 17.7545 9.42934 17.6757 9.50977 17.5958C9.5577 17.5483 9.60495 17.4998 9.6522 17.4517C9.66728 17.4365 9.68706 17.4231 9.69544 17.4049C9.71186 17.3687 9.79933 17.2617 9.83586 17.2338C9.8506 17.2225 9.86468 17.1991 9.86501 17.1812C9.86568 17.0339 9.95617 17.0305 10.0728 17.0501C10.0862 16.9974 10.0909 16.9386 10.1157 16.8911C10.1529 16.8206 10.1757 16.7435 10.2769 16.716C10.3838 16.6867 10.4582 16.5893 10.5021 16.4834C10.603 16.2404 10.8537 16.163 11.0108 15.9844C11.05 15.94 11.162 15.9331 11.0946 15.8093C11.0775 15.7776 11.1948 15.6689 11.2605 15.5825C11.1941 15.546 11.1177 15.504 11.0413 15.4624C10.9807 15.353 10.92 15.2436 10.8593 15.1341C10.7109 14.9896 10.5624 14.8451 10.4099 14.6968C10.4073 14.7033 10.3979 14.7253 10.3975 14.726C10.361 14.6607 10.3178 14.5832 10.2595 14.479C10.2477 14.5385 10.2417 14.5674 10.232 14.617C10.1854 14.511 10.1459 14.4201 10.0986 14.3124C10.0356 14.3616 9.99069 14.3967 9.93271 14.4418C9.92232 14.3971 9.90556 14.3651 9.90925 14.3362C9.94142 14.0898 9.73766 13.9873 9.614 13.841C9.58551 13.8073 9.48699 13.8362 9.42465 13.8362C9.44308 13.821 9.47894 13.7921 9.52854 13.7515C9.31406 13.5265 9.10527 13.3094 8.89883 13.0898C8.81806 13.0038 8.75238 12.8985 8.65988 12.8304C8.6133 12.796 8.52248 12.8245 8.41557 12.8245C8.37636 12.7272 8.31436 12.573 8.24365 12.3968C8.19137 12.4691 8.16556 12.5049 8.14009 12.5403C8.11429 12.4963 8.08379 12.4543 8.06335 12.4078C8.03385 12.3407 8.01107 12.2705 7.9866 12.2045C7.92494 12.1952 7.85959 12.1972 7.80463 12.1742C7.73927 12.1467 7.66219 12.1394 7.70341 12.0028C7.73056 11.913 7.69403 11.7382 7.50636 11.7379C7.52412 11.775 7.54054 11.8094 7.55696 11.8438C7.47352 11.8125 7.40682 11.7895 7.35689 11.701C7.30193 11.604 7.17558 11.5517 7.09146 11.4684C7.0546 11.432 7.01438 11.3511 7.0298 11.3157C7.0851 11.1904 7.0613 11.1223 6.92692 11.1016C6.86224 11.0916 6.79253 11.0968 6.73321 11.0737C6.67657 11.0514 6.59949 11.0097 6.69065 10.9299C6.69098 10.9213 6.69165 10.9124 6.69199 10.9038C6.62865 10.8153 6.56564 10.7269 6.49996 10.6402C6.49862 10.6385 6.46779 10.6605 6.45069 10.6712L6.45807 10.6729C6.4393 10.6674 6.42087 10.6619 6.4021 10.6564C6.47281 10.5431 6.42388 10.4836 6.32904 10.4083C6.22582 10.326 6.11087 10.2637 6.05356 10.1024C6.01335 9.98846 5.81126 9.93134 5.67688 9.85804C5.60784 9.82053 5.51333 9.82088 5.4577 9.77167C5.32231 9.65227 5.16781 9.54353 5.11654 9.35049C5.31795 9.28133 5.19764 9.48882 5.27338 9.53872C5.28779 9.52839 5.31359 9.52013 5.3203 9.50362C5.39939 9.31058 5.14569 9.31918 5.12893 9.17947C5.12726 9.16433 5.0733 9.14816 5.04314 9.14747C5.03074 9.14747 5.01801 9.18705 5.00527 9.20872C4.97913 9.19152 4.92853 9.17087 4.9302 9.15745C4.96405 8.91073 4.80486 8.78892 4.64668 8.65197C4.46537 8.49471 4.29345 8.32714 4.15605 8.12068C4.084 8.01263 3.94391 7.95482 3.85108 7.85778C3.74652 7.74802 3.66072 7.61967 3.58264 7.48409C3.48344 7.47686 3.39631 7.4717 3.35877 7.31238C3.34369 7.24769 3.17746 7.22085 3.07994 7.17681C3.13122 7.17681 3.18249 7.17681 3.23511 7.17681C3.17545 7.0901 3.12854 7.02265 3.08564 6.96037C3.07391 6.9731 3.0528 6.99581 3.03168 7.01852C2.9784 6.95796 2.92545 6.89705 2.87082 6.83787C2.8601 6.82651 2.82893 6.82135 2.82926 6.81516C2.84133 6.62556 2.656 6.58668 2.57356 6.46934C2.48307 6.3403 2.34433 6.24808 2.2391 6.12799C2.19754 6.0805 2.1905 6.00136 2.1647 5.92738C2.14425 5.94217 2.12046 5.95904 2.09801 5.97521C2.02361 5.87645 1.94485 5.78114 1.87648 5.67894C1.75383 5.49553 1.64055 5.30559 1.51387 5.12494C1.50013 5.10532 1.4254 5.13078 1.40831 5.13251C1.37379 4.96046 1.33558 4.76948 1.29738 4.57816C1.28196 4.57954 1.26654 4.58126 1.25079 4.58263C1.2833 4.55338 1.31547 4.52414 1.32888 4.51209C1.30609 4.41024 1.28732 4.32524 1.26654 4.23234C1.25951 4.23509 1.21728 4.25058 1.15495 4.27363C1.1831 4.22683 1.19851 4.20137 1.21695 4.1704C1.01922 4.18416 0.997434 4.13048 1.01017 3.9402C1.0162 3.85039 1.13752 3.73408 0.996094 3.64805C1.04904 3.57235 1.102 3.49631 1.13752 3.44538C1.45556 3.58027 1.7183 3.45983 1.98339 3.31256C1.96295 3.26197 1.94116 3.20829 1.92206 3.16115C1.99646 3.14188 2.05947 3.12571 2.12214 3.10988C2.1084 3.14154 2.09499 3.17251 2.08158 3.20382C2.10638 3.19728 2.13085 3.19074 2.15565 3.18386L2.15196 3.17973C2.17274 3.15599 2.19352 3.1319 2.2143 3.10816V3.11332C2.19017 3.10128 2.16637 3.08923 2.14224 3.07719C2.16403 3.07409 2.19553 3.0796 2.20592 3.06687C2.26758 2.99185 2.31819 2.90858 2.43314 2.90789C2.45291 2.90789 2.47235 2.84596 2.4881 2.81946C2.69052 2.89929 2.69119 2.70797 2.76358 2.62367C2.71867 2.54624 2.67745 2.4757 2.63623 2.40551C2.64259 2.39828 2.64863 2.3914 2.65499 2.38417C2.67778 2.39794 2.70024 2.41136 2.72303 2.42512C2.73375 2.4203 2.74414 2.41549 2.75486 2.41067C2.72638 2.35011 2.69823 2.28954 2.6627 2.21419C2.71364 2.15431 2.77397 2.08274 2.83027 2.01667C3.07123 2.04833 3.23812 1.91964 3.42714 1.79094C3.62721 1.65468 3.54477 1.46233 3.60107 1.3006L3.59839 1.30438C3.60777 1.29509 3.61716 1.28546 3.62654 1.27617L3.62352 1.27204C3.69591 1.44375 3.79779 1.3591 3.90872 1.30198C3.87119 1.27686 3.84069 1.25655 3.81019 1.23591L3.8122 1.24141C3.8122 1.19324 3.8122 1.14507 3.81187 1.09689L3.81086 1.10033C4.0096 1.13887 4.20967 1.09792 4.27703 0.90213C4.37221 0.625473 4.65305 0.50435 4.74353 0.23664C4.74655 0.227349 4.75895 0.217026 4.76833 0.215305C4.8424 0.201541 4.91646 0.186745 4.9912 0.178142C5.0408 0.172637 5.0914 0.17711 5.16748 0.17711C5.20602 0.131689 5.27137 0.0552984 5.31158 0.0078125C5.43994 0.0731917 5.55757 0.134786 5.67688 0.192939C5.78914 0.247995 5.90275 0.29961 6.05423 0.370495C6.05725 0.375312 6.08842 0.420733 6.12595 0.476134C6.19097 0.376344 6.2285 0.255565 6.35552 0.425895C6.40813 0.49678 6.57034 0.476134 6.67791 0.511576C6.72818 0.528093 6.76538 0.583149 6.81297 0.61343C6.90647 0.673303 7.00366 0.727671 7.09817 0.786168C7.14241 0.813697 7.18396 0.846042 7.25501 0.895937C7.4467 0.828149 7.39241 1.10825 7.52613 1.17569C7.63907 1.23281 7.72017 1.356 7.80194 1.46474C7.89276 1.4754 7.9732 1.48469 8.01911 1.62337C8.0476 1.71008 8.15584 1.76892 8.2289 1.83946C8.23627 1.84669 8.25739 1.85047 8.25705 1.85322C8.22823 2.04386 8.43467 2.04454 8.50069 2.16636C8.54929 2.25617 8.66625 2.30675 8.76109 2.38108C8.73294 2.40757 8.70847 2.43097 8.71149 2.42787C8.79025 2.50358 8.86666 2.57515 8.94039 2.64879C9.00004 2.70832 9.05969 2.76853 9.11365 2.83322C9.17096 2.9017 9.32914 2.89688 9.26948 3.05448C9.2668 3.06136 9.30434 3.09715 9.31406 3.09371C9.43739 3.0476 9.49603 3.08063 9.4766 3.2224C9.47593 3.22653 9.48129 3.23307 9.48564 3.23651C9.65924 3.37518 9.76213 3.5899 9.97929 3.68763C10.0775 3.73167 10.1499 3.84006 10.2283 3.92506C10.2843 3.98562 10.3265 4.0596 10.3821 4.12085C10.5061 4.25642 10.6341 4.38822 10.7615 4.52069C10.8034 4.56405 10.8413 4.62083 10.8925 4.64319C11.0189 4.69894 11.108 4.83107 11.0748 4.9171C11.1104 4.96011 11.1365 5.00209 11.172 5.03306C11.23 5.0833 11.291 5.13078 11.3557 5.17104C11.4207 5.21165 11.4901 5.21956 11.5165 5.32864C11.536 5.40882 11.6496 5.47145 11.731 5.52719C11.8138 5.58397 11.9512 5.60564 11.8105 5.72814C11.9716 5.85512 12.1271 5.97727 12.2873 6.10321C12.3175 6.17238 12.3547 6.25668 12.3926 6.34305C12.5719 6.35406 12.6882 6.4597 12.7177 6.63829C12.7217 6.66203 12.7411 6.68612 12.7589 6.70401C12.7877 6.73326 12.8212 6.75769 12.8326 6.80484C12.9016 6.83993 12.9874 6.85886 13.036 6.91323C13.1419 7.03194 13.2291 7.16821 13.3108 7.28004C13.3551 7.2883 13.4027 7.2821 13.4254 7.30378C13.5655 7.43764 13.6999 7.57769 13.8367 7.71601C13.8082 7.737 13.7783 7.75937 13.7421 7.78587C13.9295 7.8134 14.0374 7.90837 14.0461 8.06424C14.157 8.14167 14.2693 8.19087 14.34 8.27655C14.4107 8.36224 14.5327 8.38908 14.5649 8.53188C14.5823 8.60999 14.7244 8.65128 14.7945 8.72526C14.9302 8.86875 15.0502 9.02841 15.1852 9.17259C15.2945 9.2889 15.4195 9.38972 15.5318 9.50362C15.5696 9.54216 15.5904 9.59893 15.6189 9.64745C15.6072 9.65915 15.5951 9.67085 15.5834 9.68255C15.6517 9.69838 15.7204 9.71421 15.7989 9.73279C15.7848 9.7727 15.7727 9.80746 15.7553 9.85632C15.7821 9.85426 15.8126 9.8429 15.823 9.85288C15.9446 9.97332 16.0703 10.0907 16.1809 10.2214C16.3106 10.3742 16.4812 10.3928 16.6357 10.2672C16.6712 10.2383 16.7372 10.2493 16.7935 10.241C16.8468 10.1127 16.8887 9.97917 17.0318 9.90209C17.1035 9.8632 17.1541 9.76754 17.195 9.68737C17.2516 9.57657 17.3934 9.53872 17.4098 9.38387C17.4152 9.33363 17.558 9.30714 17.6253 9.25311C17.7691 9.13853 17.9041 9.01224 18.0436 8.89181C18.1759 8.77722 18.3123 8.66745 18.4404 8.54771C18.4772 8.5133 18.4906 8.45239 18.5275 8.37772C18.6133 8.31441 18.7477 8.2449 18.8412 8.13754C18.924 8.04257 18.9612 7.90561 19.0245 7.77486C19.1123 7.81477 19.1636 7.78002 19.2222 7.64788C19.2829 7.51093 19.4266 7.41252 19.5349 7.29793C19.6341 7.19333 19.732 7.08734 19.8345 6.98618C19.99 6.83271 20.1502 6.68371 20.306 6.53024C20.3392 6.49755 20.3613 6.45351 20.3962 6.40361C20.4009 6.41015 20.4193 6.4363 20.4485 6.47691C20.5142 6.26701 20.731 6.24223 20.8412 6.07293C20.9475 5.90949 21.0923 5.75498 21.2759 5.63627C21.4338 5.53442 21.5152 5.30834 21.6392 5.12425C21.8362 5.12081 21.8885 5.06747 21.9686 4.75675H22.1188C22.1211 4.75055 22.1245 4.73404 22.1328 4.72096C22.2548 4.52517 22.4103 4.36275 22.5903 4.22305C22.7119 4.12842 22.8296 4.02829 22.9485 3.92987C22.965 3.91645 22.9928 3.89443 22.9898 3.88342C22.9623 3.77744 23.0333 3.74578 23.099 3.69003C23.1902 3.61296 23.3691 3.63119 23.3654 3.44607C23.532 3.47532 23.5484 3.31084 23.5977 3.22515C23.6677 3.10334 23.7974 3.06549 23.8722 2.95435C23.9559 2.82944 24.0689 2.72552 24.1986 2.63055C24.1942 2.6653 24.1895 2.7004 24.1855 2.73068C24.2975 2.59751 24.4127 2.46022 24.5542 2.29195C24.5465 2.22761 24.6209 2.14605 24.7147 2.15569C24.77 2.05177 24.8095 1.94751 24.8745 1.86355C24.9748 1.73451 25.0904 1.61786 25.2036 1.50018C25.2348 1.46783 25.2817 1.452 25.3203 1.42688C25.4362 1.35049 25.5535 1.27548 25.6671 1.19565C25.7908 1.10859 25.9118 1.01706 26.0331 0.925873C26.1333 0.850859 26.3947 0.858085 26.4503 0.905571C26.6494 0.830557 26.8193 0.749694 26.9979 0.705649C27.0988 0.680874 27.1943 0.689476 27.2402 0.5656C27.2493 0.541169 27.3525 0.51949 27.3649 0.535319C27.4711 0.671239 27.7309 0.55218 27.7708 0.794083C27.7724 0.805094 27.8157 0.808879 27.8398 0.815761C27.8917 0.830902 27.9715 0.815073 27.9326 0.923465C27.9263 0.941014 27.9966 0.986779 28.0308 1.02016C28.0831 1.07177 28.1347 1.12373 28.2068 1.19565C28.2198 1.20184 28.2681 1.2249 28.322 1.25036C28.3301 1.22593 28.3458 1.17948 28.3569 1.1461C28.4588 1.26722 28.6877 1.29509 28.6384 1.54113C28.6914 1.51084 28.7426 1.47816 28.7446 1.48091C28.8301 1.60754 28.9112 1.73726 28.9926 1.8663C28.9789 1.87834 28.9652 1.89039 28.9514 1.90243C29.06 1.92273 29.1686 1.94304 29.2772 1.96334C29.2772 1.97676 29.2772 1.98983 29.2772 2.00325C29.2302 2.00635 29.1833 2.00945 29.0892 2.01598C29.1495 2.11509 29.1977 2.19354 29.2457 2.272C29.2487 2.28679 29.252 2.30159 29.255 2.31673L29.2591 2.31329Z"
          fill="currentColor"/>
</svg>
