<svg viewBox="0 0 32 32" fill="none" xmlns="http://www.w3.org/2000/svg">
    <path d="M8.77305 16.1107C8.82156 15.0388 9.07662 14.0452 9.51632 13.0797C9.94507 12.1424 10.571 11.3678 11.3236 10.6903C12.0466 10.0409 12.8822 9.52137 13.8117 9.2757C14.763 9.02377 15.7285 8.71081 16.7378 8.78435C17.744 8.8579 18.7032 9.12391 19.5654 9.66846C20.0207 9.95638 20.5074 10.2146 20.9001 10.5745C22.0315 11.6135 22.7481 12.881 23.0235 14.4254C23.205 15.4378 23.1691 16.4189 22.9265 17.3891C22.5807 18.7786 21.8734 19.971 20.8156 20.9584C19.509 22.1789 17.9693 22.8283 16.1917 22.9472C14.605 23.0536 13.1701 22.6389 11.8353 21.7846C11.0342 21.2713 10.4114 20.5797 9.88561 19.8223C9.40679 19.1323 9.08601 18.3358 8.97021 17.4783C8.90919 17.0214 8.83877 16.566 8.77148 16.1091L8.77305 16.1107ZM11.452 16.649C11.4754 16.6521 11.4989 16.6552 11.5239 16.6583C11.5239 16.7225 11.5114 16.7898 11.5255 16.8508C11.8119 18.1152 12.4299 19.1683 13.6145 19.7613C14.0605 19.9851 14.5142 20.2339 15.0697 20.2605C15.5141 20.2824 15.9351 20.2902 16.3826 20.2558C17.1118 20.201 17.7612 19.9632 18.3245 19.5751C18.952 19.1417 19.5043 18.6143 19.894 17.9008C20.4072 16.9603 20.6138 15.9839 20.4338 14.9637C20.2022 13.6414 19.5215 12.6243 18.2713 11.9671C17.3872 11.5024 16.4749 11.5008 15.5486 11.4805C14.8131 11.4633 14.1856 11.8153 13.5832 12.2144C12.5457 12.9029 11.8776 13.8527 11.6006 15.0529C11.4817 15.5677 11.4973 16.1154 11.452 16.6474V16.649Z"
          fill="currentColor"/>
    <path d="M15.82 6.60679C15.374 6.58645 14.8827 6.00748 14.8827 5.51144C14.8827 4.39419 14.8654 3.27693 14.8827 2.16124C14.8889 1.73719 14.9562 1.31 15.0266 0.890637C15.1393 0.234993 15.6838 -0.0763978 16.2706 0.0159244C16.8339 0.105117 17.1078 0.659049 17.0733 1.29748C17.0358 1.98599 17.1328 2.68231 17.1359 3.37395C17.1375 4.08436 17.1109 4.79477 17.0687 5.50362C17.0311 6.12953 16.4365 6.63652 15.82 6.60835V6.60679Z"
          fill="currentColor"/>
    <path d="M8.55254 22.2422C8.96095 22.3157 9.26138 22.4315 9.42881 22.7789C9.65727 23.2515 9.64945 23.7381 9.31302 24.1309C8.73874 24.8006 8.12222 25.4343 7.501 26.0587C7.03939 26.5219 6.55744 26.9678 6.05358 27.3825C5.62639 27.7346 5.0975 27.6986 4.74229 27.3575C4.39804 27.0273 4.31667 26.4045 4.62649 25.993C4.96918 25.5376 5.35099 25.1073 5.74688 24.6958C6.41504 24.0026 7.09416 23.3203 7.79674 22.6615C8.00017 22.4706 8.29748 22.3783 8.55254 22.2422Z"
          fill="currentColor"/>
    <path d="M23.4617 22.2578C23.6996 22.3752 23.9891 22.4425 24.1674 22.6208C25.1971 23.6505 26.2126 24.6957 27.2094 25.7567C27.7586 26.3419 27.6647 27.1681 27.0529 27.5014C26.6461 27.7236 26.1766 27.6563 25.7995 27.2964C24.9577 26.4937 24.1111 25.6956 23.2959 24.8647C22.9938 24.5565 22.72 24.1919 22.5322 23.8038C22.1802 23.0778 22.6512 22.3423 23.4633 22.2578H23.4617Z"
          fill="currentColor"/>
    <path d="M9.64489 8.51784C9.57604 8.92311 9.47589 9.24233 9.10034 9.41133C8.62152 9.62727 8.13643 9.60849 7.74993 9.26737C7.08959 8.68527 6.46525 8.06092 5.84872 7.43031C5.3918 6.96244 4.95523 6.47423 4.54526 5.96411C4.21666 5.5557 4.24639 5.07844 4.55152 4.71541C4.841 4.37273 5.43093 4.23503 5.83464 4.49321C6.22583 4.74201 6.59043 5.04558 6.9206 5.37262C7.7249 6.1691 8.51355 6.98278 9.28186 7.81368C9.45398 7.99989 9.52596 8.28155 9.64332 8.51784H9.64489Z"
          fill="currentColor"/>
    <path d="M23.6229 9.54497C23.0596 9.55436 22.6402 9.32434 22.5072 9.01295C22.3351 8.6108 22.4305 8.08972 22.7294 7.78146C23.4914 6.99751 24.2441 6.20573 25.0171 5.43272C25.3191 5.13072 25.6477 4.85062 25.9904 4.594C26.4958 4.21689 27.1452 4.30921 27.4863 4.76456C27.7617 5.13072 27.7993 5.75507 27.1921 6.26675C26.8025 6.59536 26.5224 7.04914 26.161 7.4153C25.5429 8.04278 24.9138 8.66243 24.2566 9.25079C24.0595 9.42761 23.7559 9.48551 23.6213 9.54341L23.6229 9.54497Z"
          fill="currentColor"/>
    <path d="M3.58956 14.7672C4.22642 14.7672 4.86173 14.7672 5.49859 14.7672C5.97585 14.7672 6.50631 15.1835 6.57829 15.6138C6.65027 16.0551 6.30602 16.6763 5.84441 16.7733C5.24823 16.8969 4.63327 16.9626 4.02301 16.9877C3.29695 17.0174 2.56932 16.9814 1.8417 16.9626C1.53344 16.9548 1.22361 16.9407 0.918477 16.8938C0.341072 16.8062 -0.0266547 16.4369 0.00151141 15.9393C0.0312423 15.437 0.240921 14.9738 0.909084 14.894C1.79475 14.7876 2.69294 14.7782 3.58486 14.7266C3.58486 14.7406 3.58643 14.7532 3.588 14.7672H3.58956Z"
          fill="currentColor"/>
    <path d="M25.418 15.8105C25.4242 15.2582 25.9609 14.7684 26.4945 14.7653C27.6259 14.7606 28.7572 14.7512 29.8886 14.7653C30.2751 14.7699 30.6631 14.8153 31.0465 14.8763C31.7147 14.9828 32.0949 15.5038 31.9791 16.1188C31.8711 16.6868 31.3391 16.9622 30.696 16.9059C30.1921 16.8621 29.6757 16.9653 29.1641 16.9779C28.4615 16.9935 27.7558 17.017 27.0563 16.9763C26.4054 16.9387 25.7591 16.8198 25.4978 16.0765C25.4602 15.9686 25.4336 15.8559 25.4211 15.8121L25.418 15.8105Z"
          fill="currentColor"/>
    <path d="M15.955 31.7944C15.4027 31.7881 14.9144 31.2483 14.9113 30.7147C14.9082 29.5834 14.8972 28.4505 14.9113 27.3191C14.916 26.9326 14.9614 26.543 15.024 26.1612C15.1304 25.493 15.6515 25.1237 16.268 25.2286C16.6952 25.3021 17.1443 25.7637 17.0535 26.518C16.9925 27.0187 17.1114 27.5382 17.1239 28.0499C17.1396 28.7525 17.163 29.4582 17.1223 30.1592C17.0848 30.8101 16.9643 31.4564 16.221 31.7177C16.1131 31.7553 16.0004 31.7819 15.9566 31.7944H15.955Z"
          fill="currentColor"/>
</svg>
