<svg viewBox="0 0 32 32" fill="none" xmlns="http://www.w3.org/2000/svg">
        <path d="M1.21965 8.66036C1.01563 8.1193 1.128 7.6286 1.39419 7.19785C1.65117 6.78222 2.06704 6.55289 2.56626 6.45813C3.31878 6.31532 3.98011 6.53046 4.57512 6.94655C5.09829 7.31229 5.41606 7.83001 5.53534 8.47223C5.59291 8.78029 5.73245 9.07325 5.83331 9.37399C6.0295 9.95853 6.21878 10.5454 6.42187 11.1276C6.64938 11.7804 6.89162 12.4281 7.12281 13.0795C7.24025 13.4104 7.38209 13.7377 7.44841 14.0792C7.50229 14.357 7.69204 14.4101 7.89375 14.4774C8.32389 14.6202 8.70982 14.8157 9.00917 15.1769C9.15931 15.3581 9.37115 15.4922 9.56734 15.6309C10.172 16.0576 10.7818 16.4778 11.3911 16.8975C11.7383 17.1369 12.1049 17.3516 12.436 17.6112C13.1443 18.1669 13.8296 18.7482 14.3275 19.5145C14.5679 19.8848 14.6825 20.2936 14.7304 20.7216C14.7838 21.2013 14.8391 21.6837 14.8456 22.1653C14.8525 22.7068 14.8027 23.2488 14.7838 23.7908C14.7682 24.2361 14.7576 24.6815 14.7534 25.1269C14.7484 25.6831 14.7521 26.2393 14.7521 26.7954C14.7318 26.7954 14.712 26.7954 14.6917 26.7959C14.7028 26.8046 14.7143 26.8215 14.7249 26.8211C15.2697 26.795 15.4797 27.1836 15.471 27.7411C15.4595 28.4836 15.4392 29.2261 15.4217 29.9685C15.4116 30.4125 15.4005 30.8566 15.3881 31.3006C15.3825 31.4901 15.2347 31.5798 15.1371 31.7116C14.992 31.9075 14.8552 31.9066 14.6756 31.9089C14.4845 31.9112 14.2934 31.9107 14.1022 31.9135C13.1499 31.9254 12.1975 31.9428 11.2451 31.9483C10.7279 31.951 10.2107 31.9277 9.69353 31.9277C9.14411 31.9277 8.59423 31.9446 8.04481 31.9497C7.90434 31.951 7.76296 31.94 7.62296 31.9249C7.5746 31.9199 7.51473 31.8979 7.48525 31.8627C7.4042 31.767 7.29505 31.6842 7.22735 31.5995C7.13018 31.4777 7.12005 31.2662 7.11867 31.0928C7.10854 29.9031 7.10715 28.7134 7.11222 27.5237C7.11314 27.3594 7.16426 27.1955 7.19051 27.0421C7.22781 27 7.23426 26.935 7.30012 26.9547C7.34065 26.9369 7.34801 26.9405 7.37473 26.9355C7.38716 26.9428 7.39959 26.9506 7.41203 26.9579C7.44749 26.8526 7.51243 26.7483 7.51381 26.6425C7.52026 26.1569 7.54559 25.6666 7.4894 25.1864C7.46131 24.9452 7.31624 24.6843 7.14906 24.4994C6.7903 24.1025 6.38641 23.7459 5.99404 23.3797C5.60626 23.0176 5.21158 22.6633 4.81736 22.3081C4.33426 21.8728 3.84379 21.4457 3.36713 21.0035C3.22943 20.8758 3.12719 20.7097 3.0139 20.5572C2.99272 20.5288 2.98857 20.4812 2.99272 20.4437C3.00607 20.4849 2.99824 20.3929 2.99272 20.4437C2.78501 19.7932 2.60356 18.9972 2.39632 18.3468C2.21441 17.776 2.04816 17.2001 1.86486 16.6298C1.66407 16.0049 1.44485 15.386 1.24452 14.7612C1.00504 14.0133 0.779377 13.2612 0.544042 12.5119C0.397131 12.0445 0.229956 11.5831 0.0977823 11.1116C-0.0666294 10.5252 -0.0380761 9.93977 0.293971 9.41702C0.5072 9.08149 0.796417 8.7986 1.21827 8.6599L1.21965 8.66036ZM8.4358 26.8476C8.75035 26.8325 9.0299 26.8041 9.30852 26.8078C9.97492 26.8165 10.6409 26.8494 11.3073 26.8558C12.0929 26.8636 12.8791 26.8499 13.6647 26.8558C13.796 26.8568 13.8513 26.8119 13.8526 26.6956C13.8549 26.5084 13.8439 26.3212 13.8453 26.134C13.848 25.7563 13.8563 25.3782 13.8605 25.0006C13.8669 24.3854 13.8729 23.7697 13.877 23.1545C13.8803 22.6203 13.8895 22.0861 13.8789 21.5524C13.8724 21.22 13.843 20.8873 13.8093 20.5563C13.7679 20.1494 13.486 19.8706 13.2424 19.5772C13.0495 19.3451 12.8574 19.103 12.6239 18.9157C12.127 18.5175 11.6052 18.149 11.0899 17.7737C10.6243 17.4345 10.1559 17.098 9.68386 16.7675C9.3122 16.5071 8.92535 16.2672 8.56015 15.9981C8.34646 15.8406 8.18757 15.5962 7.95961 15.4735C7.37058 15.1563 6.73136 15.0446 6.09075 15.3032C5.24014 15.6465 5.1075 16.3931 5.42804 17.0742C5.7039 17.6606 6.27911 17.9581 6.80734 18.2552C7.42492 18.6026 8.09823 18.8503 8.74344 19.1497C8.93917 19.2403 9.12523 19.3538 9.30668 19.4701C9.34674 19.4957 9.3753 19.5827 9.36517 19.633C9.34767 19.7228 9.29655 19.8056 9.2597 19.8912C9.11141 20.2322 9.05569 20.2569 8.75449 20.1215C8.24698 19.8935 7.73394 19.6774 7.23334 19.4357C6.66227 19.1597 6.04838 18.9894 5.55883 18.5257C5.13145 18.1206 4.73539 17.7338 4.53736 17.1635C4.31031 16.5089 4.34163 15.9019 4.72065 15.311C4.77914 15.2199 4.78282 15.0665 4.75611 14.9549C4.71144 14.7676 4.60828 14.5951 4.55348 14.4097C4.3315 13.6576 4.12426 12.9009 3.89998 12.1498C3.73787 11.6078 3.55641 11.0713 3.38463 10.5325C3.34733 10.4154 3.34042 10.2799 3.27457 10.1828C3.0664 9.87568 2.77719 9.65642 2.43132 9.51818C1.61203 9.19043 0.799641 9.68755 0.907867 10.6328C0.922604 10.7623 1.00688 10.8827 1.04419 11.0114C1.2109 11.5858 1.36242 12.1649 1.5388 12.7366C1.73453 13.371 1.95467 13.9977 2.15776 14.6303C2.48475 15.6502 2.80758 16.6714 3.13042 17.6922C3.38233 18.4891 3.62688 19.2884 3.88616 20.0825C3.92899 20.2135 4.00958 20.3462 4.10814 20.4419C4.43374 20.7577 4.77592 21.0557 5.11027 21.3629C5.67304 21.8797 6.24042 22.3914 6.79399 22.9174C7.15413 23.2598 7.58657 23.5234 7.86796 23.9542C8.16086 24.4023 8.45929 24.8335 8.43857 25.4043C8.42153 25.8712 8.43534 26.339 8.43534 26.8481L8.4358 26.8476ZM8.01533 31.0598C8.6891 31.0598 9.32049 31.0607 9.95189 31.0598C11.4118 31.0566 12.8722 31.0538 14.3321 31.0433C14.3924 31.0433 14.5029 30.9696 14.5043 30.928C14.5338 29.9337 14.5508 28.9391 14.5725 27.9444C14.5757 27.7938 14.5213 27.732 14.3592 27.7324C13.0389 27.7356 11.718 27.7306 10.3977 27.7288C9.65669 27.7279 8.91568 27.7306 8.17422 27.7242C8.0356 27.7228 8.00244 27.7553 8.00566 27.9013C8.01994 28.5202 8.01441 29.1395 8.01533 29.7584C8.01579 30.1791 8.01533 30.5998 8.01533 31.0598ZM6.59826 14.2472C6.52411 14.086 6.43293 13.9254 6.3749 13.7533C6.18746 13.2003 6.01844 12.6414 5.83147 12.0884C5.50402 11.1194 5.16829 10.1531 4.83625 9.18494C4.71697 8.83705 4.64835 8.4617 4.47058 8.14677C4.13715 7.55581 3.58727 7.28345 2.90199 7.29902C2.27566 7.31321 1.86256 7.83 2.06013 8.40127C2.07947 8.45666 2.14257 8.52807 2.19461 8.53723C2.63718 8.61275 3.04015 8.78304 3.39338 9.05173C3.83504 9.38772 4.17307 9.80931 4.32966 10.3513C4.454 10.7816 4.55946 11.2169 4.68381 11.6472C4.83947 12.1873 5.00526 12.7247 5.16691 13.2635C5.29356 13.6864 5.42021 14.1098 5.54547 14.5278C5.90331 14.4326 6.23628 14.3438 6.59826 14.2472Z"
              fill="currentColor"/>
        <path d="M30.8008 8.69169C31.1992 8.84138 31.4962 9.11923 31.7154 9.46391C31.9936 9.90152 32.0544 10.3977 31.9531 10.8976C31.8789 11.2624 31.7504 11.6172 31.6399 11.9742C31.3516 12.9062 31.067 13.8395 30.7681 14.7683C30.53 15.508 30.2634 16.2386 30.0257 16.9783C29.719 17.9332 29.4289 18.8935 29.1304 19.8511C29.0812 20.0095 29.0171 20.1633 28.9734 20.3231C28.963 20.3609 28.9527 20.3991 28.9425 20.4375C28.9412 20.4769 28.9273 20.4892 28.9121 20.5414C28.6911 20.7703 28.6326 21.0106 28.4005 21.2285C27.7235 21.8652 27.0437 22.4992 26.3548 23.1231C25.9233 23.514 25.436 23.8514 25.0436 24.2766C24.7567 24.5874 24.4486 24.9243 24.5039 25.4384C24.5476 25.8435 24.4855 26.2591 24.4868 26.6702C24.4868 26.7732 24.549 26.8762 24.6066 26.9696C24.6572 26.9957 24.689 27.0144 24.724 27.0419C24.724 27.0419 24.7659 27.0748 24.7853 27.0813C25.0072 27.5335 24.8852 28.0398 24.8903 28.5287C24.9004 29.4867 24.8815 30.4457 24.847 31.4038C24.8419 31.5489 24.712 31.7169 24.5918 31.8162C24.5476 31.8528 24.5596 31.9439 24.4726 31.943C24.3851 31.9421 24.298 31.97 24.2101 31.9769C24.1124 31.9842 24.0139 31.9828 23.9158 31.9837C23.8246 31.9851 23.7339 31.986 23.6427 31.9856C23.5432 31.9851 23.4437 31.9837 23.3447 31.9805C23.2567 31.9778 23.1688 31.9668 23.0813 31.9705C22.8883 31.9782 22.6958 32.0025 22.5028 32.0025C22.2426 32.0025 21.9824 31.9842 21.7222 31.9782C21.3285 31.9695 20.9347 31.9618 20.5414 31.9586C19.6319 31.9512 18.7223 31.9467 17.8127 31.9416C17.6216 31.9407 17.43 31.9489 17.2394 31.9416C17.098 31.9361 16.9267 31.9654 16.899 31.7498C16.8967 31.7333 16.8728 31.7095 16.8553 31.7059C16.5817 31.6514 16.6213 31.4344 16.6163 31.2458C16.5854 30.0974 16.5555 28.9489 16.5306 27.8004C16.5246 27.5321 16.5306 27.2438 16.7411 27.0538C16.8806 26.9279 17.0902 26.8794 17.2578 26.8011C17.2578 26.3965 17.2629 25.9433 17.2564 25.4906C17.249 24.9953 17.2357 24.5 17.2159 24.0052C17.1938 23.4568 17.2325 22.9107 17.1588 22.3587C17.1021 21.9334 17.1929 21.4862 17.2375 21.0509C17.267 20.7611 17.3163 20.4714 17.3817 20.1871C17.4812 19.7545 17.7897 19.4378 18.0292 19.0812C18.3658 18.5795 18.8425 18.2316 19.309 17.8727C19.7866 17.5056 20.2803 17.1596 20.7698 16.808C21.3768 16.3722 21.9898 15.9447 22.5936 15.5044C22.7842 15.3652 22.9367 15.1707 23.1347 15.0452C23.4456 14.8479 23.7638 14.6365 24.1097 14.5271C24.4417 14.4222 24.5347 14.197 24.6245 13.9279C24.8428 13.2742 25.0625 12.621 25.2826 11.9678C25.4959 11.3347 25.7082 10.7012 25.9246 10.0691C26.0886 9.59071 26.2608 9.11557 26.4248 8.63768C26.5077 8.39645 26.5643 8.1456 26.661 7.91032C26.8835 7.36926 27.3081 7.01862 27.8147 6.7513C28.5428 6.36679 29.2902 6.32102 30.0253 6.69545C30.682 7.02961 31.008 7.82747 30.8317 8.52324C30.8188 8.57405 30.8132 8.62624 30.8022 8.69215L30.8008 8.69169ZM23.5893 26.8455C23.5893 26.4784 23.5754 26.1191 23.5939 25.7611C23.6072 25.4988 23.4801 25.2361 23.6132 24.9738C23.6975 24.8076 23.7329 24.6131 23.8338 24.4593C24.0341 24.153 24.2308 23.8317 24.4891 23.5777C24.9879 23.0874 25.5318 22.6425 26.0513 22.1728C26.5694 21.7041 27.0829 21.2303 27.5918 20.7524C27.7557 20.5986 27.9593 20.4494 28.0408 20.2549C28.2393 19.7829 28.3825 19.2872 28.5373 18.7979C28.7519 18.1199 28.9541 17.4379 29.1677 16.7595C29.2704 16.4331 29.3934 16.1127 29.497 15.7863C29.6863 15.1876 29.8645 14.5852 30.0538 13.9865C30.2274 13.4376 30.4144 12.8934 30.5862 12.3441C30.7409 11.8492 30.8607 11.3421 31.0371 10.8555C31.189 10.4357 31.0932 10.0764 30.8303 9.76374C30.5609 9.44286 30.1689 9.3687 29.7862 9.48589C29.2262 9.65754 28.7592 9.93082 28.6017 10.5854C28.4456 11.234 28.1886 11.8584 27.9888 12.4974C27.7253 13.3392 27.4711 14.1842 27.2224 15.0306C27.198 15.1139 27.2091 15.2379 27.2565 15.3066C27.7428 16.0074 27.6885 16.7357 27.3634 17.4663C27.0778 18.1071 26.5298 18.5232 25.9804 18.9187C25.7529 19.0826 25.4646 19.1641 25.2025 19.2799C24.8557 19.4332 24.5071 19.5824 24.1603 19.7362C23.8181 19.8877 23.4796 20.047 23.1356 20.1935C23.0016 20.2507 22.8731 20.281 22.8303 20.0635C22.805 19.9354 22.7055 19.8232 22.6631 19.6964C22.6438 19.6397 22.658 19.5302 22.6981 19.5023C22.8496 19.3952 23.0127 19.3014 23.1803 19.2208C24.0328 18.812 24.9294 18.4921 25.722 17.9638C26.2111 17.6379 26.6274 17.2543 26.7103 16.6332C26.7683 16.1978 26.638 15.833 26.2797 15.5524C25.7197 15.1139 25.0952 15.1546 24.4638 15.313C24.2755 15.3602 24.0954 15.4755 23.9356 15.5927C23.7698 15.714 23.6468 15.8939 23.4806 16.0143C23.0771 16.3068 22.6567 16.5759 22.2472 16.8607C21.7379 17.2154 21.2281 17.5697 20.7275 17.9368C20.0302 18.4477 19.2694 18.8857 18.7545 19.609C18.5565 19.8873 18.2899 20.1171 18.2157 20.4796C18.1047 21.0257 18.095 21.5768 18.0955 22.128C18.0964 22.8311 18.1254 23.5342 18.1333 24.2373C18.142 25.053 18.1402 25.8687 18.1443 26.6844C18.1448 26.8066 18.1655 26.9014 18.3368 26.8876C18.6592 26.862 18.9834 26.8473 19.3072 26.8473C19.7327 26.8473 20.1583 26.8744 20.5838 26.8748C21.0144 26.8748 21.4445 26.851 21.8751 26.8473C22.4269 26.8423 22.979 26.846 23.5883 26.846L23.5893 26.8455ZM23.9862 31.092C23.9862 30.7135 23.9862 30.3693 23.9862 30.0246C23.9872 29.3219 23.9908 28.6193 23.9862 27.9171C23.9862 27.8617 23.9393 27.7683 23.8983 27.7587C23.7956 27.734 23.6832 27.745 23.575 27.7459C22.9735 27.7532 22.3716 27.7642 21.7701 27.7688C21.1042 27.7738 20.4378 27.7734 19.7719 27.7747C19.0944 27.7757 18.417 27.7807 17.74 27.7738C17.425 27.7706 17.4296 27.7601 17.4383 28.0833C17.4641 29.0262 17.4959 29.9692 17.5005 30.9126C17.5014 31.0728 17.5617 31.0797 17.6621 31.0797C18.2447 31.0797 18.8268 31.0705 19.4094 31.0728C20.5069 31.0765 21.6048 31.0861 22.7023 31.092C23.1204 31.0943 23.5386 31.092 23.9867 31.092H23.9862ZM26.4432 14.5564C26.4556 14.5335 26.4653 14.5216 26.4695 14.5078C26.8066 13.3809 27.1276 12.2484 27.4872 11.1283C27.6452 10.6362 27.6802 10.1098 28.0367 9.66807C28.4604 9.14257 28.9531 8.77912 29.6085 8.62395C29.7218 8.59694 29.9 8.57039 29.9267 8.49898C30.086 8.06961 29.9557 7.64391 29.5159 7.43014C28.7717 7.06806 27.6097 7.68968 27.4076 8.46145C27.1796 9.33208 26.8324 10.1721 26.5385 11.0257C26.3235 11.651 26.1112 12.2777 25.8979 12.9034C25.7386 13.3712 25.5788 13.8395 25.4268 14.2854C25.7653 14.3755 26.0978 14.4644 26.4432 14.5564Z"
              fill="currentColor"/>
        <path d="M11.363 0.000799694C12.2233 -0.014306 13.0444 0.186188 13.8416 0.466787C14.6701 0.758373 15.4452 1.1708 16.1848 1.6432C16.3064 1.72102 16.386 1.72376 16.5109 1.66059C17.2555 1.28432 18.0256 0.969394 18.8306 0.741894C19.5776 0.530414 20.3388 0.404533 21.1153 0.431083C22.1791 0.467703 23.1292 0.797281 23.8495 1.61619C24.1677 1.97781 24.4049 2.39253 24.486 2.88003C24.5537 3.28697 24.6559 3.69071 24.6932 4.09993C24.719 4.38328 24.6918 4.68081 24.631 4.95958C24.4791 5.65719 24.346 6.36624 24.1079 7.03684C23.867 7.71431 23.5221 8.35745 23.1992 9.00379C22.7539 9.89502 22.2035 10.7222 21.5579 11.4834C20.9707 12.1755 20.4065 12.8905 19.7761 13.5419C18.8766 14.4711 17.9021 15.323 16.8291 16.0554C16.673 16.162 16.5219 16.2751 16.3672 16.3836C16.2 16.5008 16.0812 16.531 15.8974 16.3429C15.6741 16.1144 15.3683 15.9625 15.0906 15.7894C14.3298 15.3152 13.6155 14.7815 12.9606 14.1713C12.4669 13.7113 11.9552 13.2654 11.5062 12.7646C10.983 12.181 10.5031 11.5562 10.0352 10.9263C9.69537 10.469 9.37437 9.99161 9.10312 9.49175C8.7835 8.90308 8.50258 8.29016 8.24882 7.66991C8.03651 7.15036 7.85598 6.61343 7.72012 6.06916C7.60545 5.61096 7.55525 5.13399 7.51288 4.66205C7.45716 4.03905 7.51657 3.41926 7.65979 2.80863C7.81822 2.13253 8.1323 1.53609 8.62139 1.04355C9.22562 0.435202 9.98044 0.132173 10.8292 0.0484055C11.0074 0.0310111 11.1857 0.0163631 11.3639 0.000799694H11.363ZM23.6975 3.25539C23.657 3.12493 23.6317 3.02834 23.5967 2.93542C23.336 2.23827 22.8607 1.76221 22.1497 1.50908C21.2419 1.18591 20.3301 1.28066 19.4307 1.49764C18.4138 1.74253 17.4485 2.13162 16.5486 2.67451C16.4358 2.74271 16.276 2.8631 16.1157 2.71525C15.9978 2.6063 15.8868 2.48179 15.75 2.4026C15.0371 1.98743 14.3123 1.59697 13.533 1.31087C12.6677 0.993655 11.7834 0.802774 10.8633 0.92362C9.85471 1.05637 9.09713 1.57637 8.6937 2.52162C8.48139 3.01873 8.3658 3.54743 8.41231 4.09856C8.4533 4.58515 8.43672 5.08226 8.53527 5.55649C8.80561 6.85695 9.31957 8.07044 9.98965 9.2171C10.5386 10.1559 11.1617 11.0449 11.8898 11.856C12.2656 12.2749 12.6488 12.6887 13.0545 13.0782C13.422 13.4316 13.8107 13.7671 14.2146 14.0784C14.6659 14.4263 15.1458 14.7366 15.6119 15.0657C16.072 15.3912 16.2308 15.4159 16.5491 15.1912C16.603 15.1532 16.637 15.0877 16.6886 15.0447C17.3343 14.5041 17.9919 13.9768 18.6243 13.4215C19.0019 13.0901 19.368 12.7376 19.6918 12.355C20.2453 11.7008 20.7929 11.0366 21.2852 10.3367C21.7927 9.61534 22.2722 8.86783 22.6867 8.09104C23.0086 7.48772 23.2347 6.82948 23.4604 6.18085C23.6837 5.53726 23.8048 4.86529 23.797 4.18095C23.7933 3.86099 23.7302 3.54194 23.698 3.25447L23.6975 3.25539Z"
              fill="currentColor"/>
        <path d="M12.5526 6.16271C12.5857 5.8812 12.851 5.98145 13.0274 5.98328C13.5455 5.98877 14.0627 6.02859 14.5803 6.05469C14.5803 5.70909 14.5845 5.38134 14.5785 5.05359C14.5752 4.88102 14.5554 4.70936 14.543 4.53679C14.5283 4.33676 14.6577 4.21912 14.7567 4.06257C14.9239 3.79799 15.126 3.90419 15.3185 3.90235C15.9002 3.89732 16.4814 3.91014 17.0631 3.91426C17.3246 3.91609 17.4421 4.00489 17.5448 4.28229C17.5522 4.30243 17.5687 4.32898 17.5862 4.33355C17.7884 4.38711 17.7433 4.53222 17.7318 4.67961C17.6958 5.12729 17.6714 5.57588 17.641 6.04782C18.1191 6.04782 18.5893 6.05652 19.0595 6.04507C19.4777 6.035 19.8198 6.37786 19.8337 6.78983C19.8521 7.34187 19.8935 7.89437 19.9552 8.44321C20.0008 8.84741 19.7618 9.15135 19.3432 9.1541C18.8099 9.15776 18.2766 9.1573 17.7433 9.16417C17.6111 9.166 17.5245 9.21132 17.5268 9.37977C17.5328 9.82058 17.5379 10.2632 17.502 10.7017C17.4868 10.8913 17.3781 11.0766 17.2943 11.2552C17.2726 11.3019 17.1846 11.343 17.1266 11.344C16.4515 11.3554 15.7754 11.3788 15.1012 11.3517C14.9096 11.344 14.707 11.2057 14.5448 11.0817C14.4762 11.0295 14.4794 10.8587 14.4841 10.7429C14.4942 10.5022 14.5338 10.2628 14.5485 10.0224C14.5628 9.78579 14.5711 9.5473 14.56 9.31065C14.5573 9.2461 14.4781 9.13396 14.4297 9.13167C14.1981 9.12022 13.9646 9.13853 13.732 9.14769C13.4594 9.15867 13.183 9.20262 12.915 9.17378C12.7354 9.15455 12.5659 9.03462 12.3941 8.95589C12.3771 8.94811 12.367 8.91149 12.3651 8.88769C12.3177 8.17818 12.2661 7.46867 12.2297 6.7587C12.2219 6.60856 12.2528 6.44926 12.3016 6.30645C12.3209 6.24923 12.437 6.22451 12.5535 6.16088L12.5526 6.16271ZM16.5979 10.4871C16.6168 9.97438 16.6412 9.48093 16.6523 8.98748C16.6624 8.52927 16.8554 8.34205 17.3164 8.33427C17.8354 8.32557 18.3539 8.30177 18.8725 8.27659C18.9273 8.27385 19.0268 8.21526 19.0254 8.18688C19.0107 7.9017 18.9803 7.61744 18.9517 7.33272C18.9384 7.19951 18.9628 6.99536 18.8905 6.9505C18.7795 6.88184 18.5999 6.91937 18.4493 6.91846C18.1117 6.91754 17.7704 6.89008 17.4384 6.93173C17.1441 6.96881 16.894 6.93265 16.6665 6.76831C16.7117 6.39205 16.7591 6.03271 16.7964 5.67292C16.8181 5.46144 16.8273 5.24813 16.8351 5.03528C16.8406 4.87461 16.7844 4.76796 16.5933 4.76933C16.3013 4.77162 16.0089 4.76292 15.7169 4.7556C15.5474 4.75148 15.4415 4.81785 15.4503 4.99683C15.4724 5.45 15.5032 5.90225 15.5262 6.35543C15.5299 6.42638 15.5359 6.52708 15.4949 6.56553C15.348 6.70286 15.1979 6.87634 15.0178 6.92853C14.8032 6.99078 14.5554 6.95004 14.3229 6.9386C13.9406 6.91983 13.5588 6.8887 13.1402 6.85986C13.1743 7.36568 13.2056 7.828 13.2365 8.28941C13.4957 8.28941 13.7371 8.29994 13.977 8.28666C14.3252 8.26744 14.6724 8.22075 15.021 8.20793C15.1224 8.20427 15.278 8.2473 15.3181 8.31916C15.4088 8.48121 15.4917 8.67438 15.4903 8.85427C15.4862 9.3967 15.4406 9.93822 15.4107 10.4857H16.5984L16.5979 10.4871Z"
              fill="currentColor"/>
</svg>
