<svg viewBox="0 0 32 32" fill="none" xmlns="http://www.w3.org/2000/svg">
    <path d="M31.4435 13.4834C30.8526 12.4308 30.0874 11.5107 29.148 10.7605C28.5144 10.2544 27.8348 9.82591 27.0062 9.71434C26.5357 9.6529 26.531 9.63996 26.6767 9.17914C27.1282 7.75786 27.4023 6.35275 26.8066 4.87972C26.3504 3.75111 25.7247 2.77287 24.7441 2.08567C24.2466 1.73803 23.6447 1.55209 23.0965 1.27559C22.607 1.0282 22.0954 0.952207 21.5615 1.0282C21.0957 1.09288 20.6332 1.17211 20.169 1.24649C19.1868 1.40171 18.2379 1.69276 17.4411 2.30234C16.8724 2.7373 16.3924 3.2919 15.8649 3.80123C15.8221 3.75596 15.7318 3.67673 15.6605 3.58133C14.8272 2.43978 13.834 1.53592 12.4019 1.27559C11.9837 1.20121 11.548 1.00718 11.1504 1.06863C10.3504 1.19151 9.48387 1.07024 8.76308 1.55047C8.05337 2.021 7.28664 2.45757 6.71001 3.07038C6.051 3.77213 5.78644 4.74714 5.46644 5.67202C5.19872 6.44653 5.04981 7.22265 5.10525 8.0198C5.15119 8.66495 5.34288 9.30041 5.4807 9.9973C5.24308 10.0345 4.95476 10.0474 4.68704 10.1315C4.01535 10.3401 3.27238 10.4549 2.71001 10.8381C1.97496 11.3394 1.31753 11.9716 0.843869 12.7994C0.31476 13.7195 -0.0511805 14.6573 0.00584923 15.7228C0.0391166 16.3567 0.0517898 17.0277 0.265651 17.6066C0.680701 18.7319 1.36664 19.7134 2.18565 20.5866C3.13298 21.5955 4.29892 22.1194 5.70723 22.1922C5.56783 22.577 5.3904 22.9149 5.32862 23.2723C5.20189 23.987 5.0007 24.7308 5.08466 25.4293C5.19555 26.359 5.43793 27.3 6.03991 28.0762C6.3203 28.4367 6.52941 28.8943 6.87951 29.1547C7.53535 29.6446 8.25931 30.0456 8.98011 30.4353C9.24783 30.5808 9.58525 30.6342 9.89416 30.6487C11.0902 30.7053 12.2704 30.5824 13.4142 30.2057C14.474 29.8548 15.3722 29.263 15.99 28.2912C16.1817 27.9889 16.3005 28.1134 16.451 28.3236C17.4744 29.7578 18.8494 30.5727 20.5872 30.6924C21.5346 30.757 22.4961 30.7053 23.3468 30.2493C24.1247 29.8322 24.9183 29.3843 25.4617 28.6437C26.1207 27.7399 26.4946 26.6759 26.7845 25.6136C27.1013 24.4559 27.1045 23.2529 26.5991 22.1162C26.474 21.8332 26.5833 21.7669 26.8193 21.72C27.1409 21.6586 27.4577 21.5745 27.7777 21.5066C29.2241 21.1994 30.2696 20.3036 31.0458 19.0812C31.5639 18.2647 31.933 17.3495 31.9868 16.3664C32.0423 15.3736 31.9456 14.3727 31.4451 13.4834H31.4435ZM17.6724 4.63072C17.7215 4.51915 17.7769 4.40758 17.8451 4.30895C18.8763 2.82784 21.4585 2.00159 23.0981 2.72921C24.3354 3.27735 25.4664 4.87164 25.194 6.55971C24.9167 8.28336 23.9979 9.56235 22.7258 10.615C21.4474 11.6708 19.9647 12.3645 18.4344 12.945C17.9306 13.1358 17.4332 12.7994 17.2985 12.1284C17.1163 11.2278 17.0165 10.311 16.9009 9.53324C17.1243 7.79181 17.0276 6.15386 17.6724 4.63072ZM7.37852 4.79403C8.131 3.77375 8.94684 2.94588 10.1666 2.58045C10.8589 2.37349 11.5385 2.41714 12.2134 2.62734C13.4728 3.02026 14.3219 3.82872 14.7987 5.1158C15.3025 6.47402 15.415 7.86457 15.4752 9.28585C15.4752 10.2075 15.4656 11.1275 15.4783 12.0476C15.4878 12.6539 14.8621 13.1681 14.1999 12.9708C13.4664 12.7525 12.733 12.4841 12.0565 12.1236C10.7797 11.4412 9.49337 10.7524 8.30209 9.92777C6.97456 9.00612 6.24426 6.33011 7.37852 4.79403ZM4.32585 19.7053C2.89535 19.2429 1.32704 17.5839 1.51714 15.7325C1.60426 14.557 1.90684 13.4915 2.78763 12.6313C3.44664 11.9861 4.23555 11.7824 5.07199 11.839C7.52743 12.0055 9.78803 12.8415 11.8585 14.1722C12.3575 14.494 12.7187 15.0583 13.0973 15.5466C13.3033 15.8118 13.1908 16.1222 12.95 16.3308C12.687 16.5588 12.4098 16.7835 12.1088 16.9517C10.6657 17.7521 9.24308 18.5994 7.75397 19.2995C6.68783 19.8007 5.53615 20.0966 4.32585 19.7053ZM15.1567 21.4015C15.0284 22.8891 14.9556 24.3831 14.7559 25.861C14.5437 27.4488 13.6217 28.537 12.1658 29.1385C11.8316 29.2759 11.4815 29.373 11.1425 29.4942C10.0858 29.8742 9.22723 29.4392 8.4304 28.7957C7.74288 28.2411 7.21535 27.5345 6.88585 26.7196C6.4106 25.5473 6.59119 24.3912 7.21377 23.3143C7.76981 22.3506 8.61892 21.6715 9.51238 21.0684C10.7037 20.2632 11.914 19.4838 13.148 18.7497C13.975 18.2582 14.474 18.3326 14.8367 18.9777C15.0411 19.3431 15.1013 19.8137 15.1472 20.2454C15.19 20.6221 15.1219 21.0134 15.1029 21.3966C15.1203 21.3966 15.1393 21.3999 15.1567 21.4015ZM16.0534 18.0755C14.9761 18.1854 13.8419 17.1215 13.9037 15.7099C13.9433 14.8335 14.9255 13.8472 15.895 13.8618C17.0847 13.8812 18.1777 14.7042 18.1381 15.9848C18.1049 17.0617 17.3159 18.1046 16.0534 18.0755ZM24.7203 27.1788C23.8918 28.7246 22.5437 29.2646 20.9532 29.373C20.6348 29.394 20.291 29.221 19.9789 29.09C19.0395 28.6938 18.1967 28.0972 17.6565 27.2418C17.2035 26.5239 16.8803 25.6767 16.912 24.7518C16.9658 23.1995 17.0165 21.6473 17.0752 20.095C17.0815 19.9123 17.11 19.7264 17.148 19.5469C17.2906 18.8645 17.7817 18.5153 18.409 18.7821C19.1409 19.0909 19.8427 19.4935 20.5175 19.9204C21.4633 20.5203 22.4074 21.1331 23.2803 21.8332C23.8379 22.2795 24.3845 22.826 24.7266 23.4485C25.3872 24.6515 25.3999 25.9111 24.7203 27.1788ZM29.6977 18.4021C28.7219 19.5566 27.5132 20.1742 26.0098 20.0966C24.733 20.032 23.5845 19.5323 22.4993 18.8856C21.3904 18.2258 20.3132 17.5144 19.4989 16.4699C19.4894 16.4569 19.4783 16.4472 19.4688 16.4343C18.954 15.7665 18.9033 15.6339 19.5623 15.1149C20.4399 14.4245 21.3746 13.789 22.3536 13.2635C23.2676 12.7719 24.2419 12.3321 25.2399 12.0896C26.6656 11.7452 28.3496 12.0896 29.3666 13.6726C29.9132 14.5215 30.3837 15.3881 30.3298 16.2904C30.3963 17.1926 30.1793 17.8313 29.6977 18.4021Z"
          fill="currentColor"/>
</svg>
