<svg viewBox="0 0 29 28" fill="none" xmlns="http://www.w3.org/2000/svg">
<path d="M27.2993 16.5292C27.2334 16.5684 27.1553 16.6521 27.1039 16.638C26.947 16.595 26.8659 16.7552 26.725 16.7484C26.6614 16.7453 26.5719 16.7856 26.5346 16.8362C26.4497 16.9507 26.4116 16.8842 26.3884 16.8511C26.1782 16.8865 25.9897 16.9313 25.7981 16.9473C25.4634 16.9747 25.1264 16.9747 24.7924 17.0074C24.6995 17.0166 24.6138 17.0999 24.535 17.1436C24.5445 17.1961 24.5689 17.2429 24.5563 17.2749C24.4246 17.6043 24.3008 17.9383 24.1462 18.2571C24.0289 18.4991 23.8659 18.7186 23.7342 18.9544C23.7068 19.0035 23.7022 19.099 23.7323 19.1405C23.9444 19.4349 24.1382 19.7518 24.3964 20.001C24.6805 20.2749 24.8031 20.6295 25.0034 20.9441C25.1603 21.1906 25.1039 21.4371 25.0895 21.6855C25.0628 22.1401 24.8682 22.5456 24.6043 22.8972C24.3233 23.2715 23.9882 23.607 23.6584 23.9418C23.4962 24.1065 23.2917 24.2286 23.1089 24.3732C22.8602 24.5703 22.6298 24.7959 22.3621 24.961C22.1831 25.0713 21.9566 25.1219 21.7441 25.155C21.4882 25.1949 21.2246 25.1885 21.032 25.1987C20.8172 25.077 20.6512 24.9781 20.4802 24.8883C20.3903 24.8411 20.2917 24.8103 20.1976 24.7708C20.1751 24.7612 20.142 24.7502 20.1359 24.7323C20.0491 24.4809 19.77 24.417 19.6325 24.207C19.516 24.0293 19.3324 23.8969 19.2029 23.7261C19.0186 23.4826 18.9962 23.483 18.7311 23.6044C18.3553 23.7763 17.9668 23.9216 17.5811 24.0715C17.4783 24.1115 17.3625 24.1176 17.2597 24.1579C17.2128 24.1761 17.1561 24.237 17.1512 24.2834C17.1249 24.5273 17.1135 24.7727 17.0967 25.0173C17.0693 25.4251 17.0967 25.8363 16.947 26.2342C16.8716 26.4355 16.8735 26.6569 16.7117 26.8357C16.492 27.0784 16.2471 27.2709 15.9562 27.4235C15.3576 27.7369 14.6946 27.7316 14.0541 27.8233C13.7696 27.864 13.4699 27.7974 13.1774 27.778C12.8747 27.7578 12.567 27.762 12.2711 27.7057C12.0586 27.6654 11.8454 27.5688 11.6618 27.4512C11.4391 27.3086 11.2475 27.1176 11.0685 26.9692C11.0354 26.8475 11.0175 26.7505 10.9828 26.6596C10.9124 26.4751 10.8328 26.294 10.757 26.1114C10.7498 26.0942 10.7338 26.0729 10.7387 26.06C10.8336 25.8139 10.6805 25.5769 10.7155 25.3288C10.7395 25.1565 10.6938 24.9758 10.6927 24.7985C10.6911 24.587 10.7121 24.3747 10.7056 24.1636C10.7041 24.1058 10.6531 24.0236 10.6024 23.9981C10.4509 23.9216 10.2848 23.8745 10.1298 23.8037C9.84652 23.6744 9.56852 23.5325 9.28406 23.4054C9.23189 23.3822 9.13898 23.3784 9.10051 23.4096C8.91506 23.5599 8.73913 23.7223 8.56472 23.8863C8.25931 24.1739 7.97675 24.482 7.59176 24.6814C7.39488 24.7833 7.22732 24.9442 6.99008 24.94C6.75512 24.9359 6.51636 24.9408 6.28673 24.899C5.79397 24.8092 5.3827 24.5531 5.00303 24.2313C4.73152 24.0012 4.43372 23.8026 4.15345 23.5827C4.08033 23.5256 4.02931 23.4408 3.96723 23.3696C3.7258 23.0923 3.48095 22.8177 3.24256 22.5377C2.94172 22.1846 2.91545 21.7521 2.88079 21.3154C2.85642 21.0084 3.07729 20.8041 3.14698 20.5397C3.16678 20.464 3.20334 20.3924 3.2319 20.319C3.24294 20.2909 3.24484 20.246 3.26465 20.2361C3.49922 20.1185 3.55177 19.8427 3.74979 19.6879C3.90897 19.5635 4.03311 19.3946 4.17249 19.2451C4.25322 19.1583 4.34652 19.0796 4.40783 18.9811C4.43944 18.9301 4.43753 18.8327 4.41087 18.7745C4.27112 18.4705 4.10623 18.178 3.97562 17.8702C3.8926 17.6751 3.84652 17.4628 3.79968 17.2547C3.77265 17.1353 3.72352 17.0858 3.59709 17.0816C3.1207 17.0668 2.64165 17.0649 2.16868 17.0135C1.575 16.9492 1.01522 16.778 0.667161 16.2325C0.403262 15.819 0.248654 15.3644 0.198388 14.874C0.172493 14.6237 0.113468 14.3756 0.100901 14.125C0.0856689 13.8191 0.0978555 13.5113 0.108899 13.2047C0.118038 12.9422 0.154977 12.6805 0.156881 12.4184C0.160308 11.9687 0.410879 11.6423 0.663735 11.3075C0.870133 11.0344 1.17973 10.9728 1.46647 10.8571C1.56358 10.8179 1.65383 10.7563 1.7536 10.7319C1.86442 10.7049 1.98209 10.7038 2.09747 10.7C2.47599 10.6867 2.85452 10.6772 3.23304 10.6665C3.42192 10.6612 3.61156 10.6646 3.7993 10.6471C3.84614 10.6429 3.91088 10.5824 3.92725 10.5341C4.02436 10.2534 4.09671 9.96387 4.20257 9.68692C4.28292 9.47692 4.39526 9.27834 4.50379 9.08052C4.55787 8.98199 4.55901 8.91542 4.47447 8.83096C4.14127 8.49847 3.80159 8.17055 3.49009 7.81789C3.09214 7.36747 2.78407 6.86569 2.90326 6.22467C2.97104 5.85947 3.07272 5.49958 3.28788 5.18649C3.49808 4.88025 3.698 4.56526 3.92877 4.27538C4.11918 4.03647 4.34499 3.82496 4.56205 3.60811C4.73875 3.4316 4.93639 3.27524 5.10661 3.09302C5.46457 2.70993 5.92915 2.63727 6.41659 2.5939C6.71857 2.56727 6.9402 2.75292 7.19839 2.83928C7.5712 2.96405 7.85642 3.23301 8.15611 3.47002C8.42077 3.67887 8.65802 3.92349 8.89907 4.16011C8.99198 4.25103 9.067 4.25255 9.18429 4.20272C9.65954 3.99995 10.1302 3.78121 10.6443 3.68876C10.754 3.66898 10.8042 3.61572 10.8134 3.49931C10.8499 3.03481 10.8785 2.56879 10.941 2.10772C11.0209 1.51654 11.1923 0.958837 11.7502 0.629769C12.0819 0.434231 12.4291 0.266844 12.8237 0.232606C13.3263 0.189238 13.8282 0.141685 14.3313 0.102881C14.4242 0.0956533 14.5194 0.12 14.6135 0.130652C14.9752 0.171738 15.3374 0.213965 15.6991 0.254671C16.0765 0.297278 16.3602 0.514881 16.6428 0.743897C16.9379 0.982803 17.0228 1.32404 17.1367 1.65882C17.2639 2.03201 17.2555 2.41853 17.2787 2.80161C17.2905 2.99373 17.2528 3.18889 17.2403 3.3829C17.2288 3.55866 17.233 3.7173 17.4459 3.79414C17.8545 3.94175 18.2555 4.11142 18.6633 4.26168C18.741 4.29021 18.821 4.35108 18.9253 4.2438C19.1991 3.96267 19.4901 3.69599 19.7909 3.44377C20.0251 3.24747 20.2818 3.07666 20.5342 2.90319C20.9166 2.64031 21.3366 2.69357 21.757 2.77536C22.2224 2.86552 22.6085 3.10633 22.9745 3.3966C23.2555 3.61953 23.5563 3.81697 23.8431 4.03267C23.9173 4.08859 23.9718 4.17076 24.0354 4.24076C24.2802 4.5101 24.5278 4.77754 24.77 5.04954C25.0213 5.33182 25.094 5.68257 25.1512 6.04283C25.2098 6.41374 25.0502 6.72189 24.9154 7.04563C24.765 7.40627 24.5148 7.69539 24.2772 7.99137C24.0773 8.24054 23.8496 8.4688 23.6188 8.69021C23.5194 8.78569 23.524 8.86824 23.5761 8.96753C23.7254 9.25019 23.8926 9.52448 24.0262 9.81436C24.1154 10.0072 24.174 10.218 24.2182 10.4265C24.2452 10.5543 24.294 10.5817 24.4158 10.5798C24.7304 10.5752 25.0453 10.5908 25.3598 10.5923C25.5278 10.5931 25.6961 10.5741 25.864 10.5779C25.9786 10.5802 26.0936 10.6018 26.2071 10.6228C26.3751 10.654 26.543 10.6886 26.7087 10.73C26.7532 10.7411 26.7932 10.7795 26.8305 10.8111C26.9977 10.9518 27.1968 11.0705 27.321 11.2429C27.4981 11.4882 27.6561 11.761 27.7555 12.0452C27.8785 12.3971 27.9527 12.7695 28.0118 13.1389C28.0662 13.479 28.091 13.8267 28.0948 14.1714C28.099 14.57 28.0815 14.971 28.0415 15.3678C28.0236 15.5466 27.9756 15.7653 27.8579 15.8814C27.6885 16.0484 27.6203 16.2991 27.3941 16.4147C27.3606 16.4318 27.3606 16.5136 27.345 16.5654C27.3297 16.5532 27.3149 16.5414 27.2997 16.5292H27.2993ZM14.9489 2.95074C14.9067 2.51782 14.9074 2.5026 14.4969 2.48092C14.174 2.4638 13.8484 2.49537 13.524 2.49461C13.3747 2.49423 13.297 2.56347 13.2768 2.69928C13.2338 2.98878 13.1866 3.27867 13.163 3.57045C13.139 3.86642 13.1713 4.16962 13.1226 4.46026C13.0822 4.70145 13.0217 4.994 12.8598 5.14731C12.6169 5.37747 12.3975 5.67648 12.011 5.7324C11.7723 5.76702 11.5438 5.87126 11.3096 5.94012C11.214 5.96789 11.1123 5.9755 11.0183 6.00783C10.7814 6.08924 10.5495 6.18511 10.3119 6.26462C9.71932 6.46282 9.11955 6.64124 8.53349 6.85618C8.32633 6.93226 8.20638 6.82004 8.10356 6.71999C7.83166 6.45445 7.59785 6.15049 7.329 5.88153C7.1047 5.6567 6.8549 5.45698 6.61194 5.25155C6.43334 5.10052 6.31301 5.11269 6.15916 5.29377C5.92192 5.57263 5.68048 5.84881 5.46152 6.14174C5.41544 6.20337 5.41887 6.36163 5.46647 6.42402C5.64735 6.6595 5.85452 6.87444 6.05444 7.09508C6.14317 7.19323 6.22809 7.29785 6.33091 7.37926C6.72961 7.69425 6.97751 8.10169 7.06586 8.597C7.09671 8.77009 7.09785 8.96487 7.05063 9.13226C6.98132 9.37611 6.86365 9.60741 6.75284 9.83757C6.62793 10.0966 6.46343 10.339 6.35985 10.6053C6.14355 11.1611 5.97104 11.7336 5.75246 12.2886C5.52816 12.8574 5.2258 13.0411 4.62603 13.0248C4.22657 13.0137 3.8271 12.9932 3.42763 12.9825C3.34957 12.9806 3.27112 13.0141 3.19267 13.0156C3.0236 13.0191 2.85452 13.005 2.68582 13.0114C2.5236 13.0175 2.42306 13.1088 2.42877 13.2762C2.44286 13.6772 2.45886 14.0782 2.49389 14.4776C2.49922 14.5392 2.60242 14.6305 2.67059 14.6412C2.96267 14.6868 3.25817 14.7093 3.55292 14.7359C3.69039 14.7485 3.83015 14.7663 3.96648 14.7553C4.35985 14.7245 4.7338 14.7827 5.07614 14.9809C5.41316 15.1757 5.69458 15.4165 5.7894 15.8277C5.84271 16.0598 5.94629 16.2797 6.02245 16.5068C6.05178 16.5947 6.05939 16.6905 6.09328 16.7761C6.18506 17.0086 6.27531 17.2425 6.38422 17.4674C6.60547 17.9239 6.82329 18.3838 7.07272 18.8251C7.2418 19.1241 7.30539 19.4083 7.10775 19.7024C7.04568 19.7948 6.92115 19.8427 6.83852 19.9241C6.73151 20.0295 6.65726 20.1802 6.53464 20.2555C6.22771 20.4434 6.01902 20.7306 5.75779 20.9638C5.66906 21.043 5.59405 21.1381 5.51826 21.2301C5.41887 21.3511 5.39222 21.4865 5.51598 21.6014C5.81339 21.8769 6.11499 22.1489 6.42725 22.4068C6.47409 22.4456 6.61232 22.4349 6.66678 22.3931C6.91354 22.2044 7.14507 21.9956 7.38346 21.7951C7.72809 21.5052 8.0552 21.1906 8.4242 20.9357C8.75893 20.7044 9.15687 20.6409 9.5472 20.8117C9.75322 20.9018 9.87888 21.1088 10.1142 21.1917C10.4093 21.2956 10.6698 21.4957 10.9524 21.6402C11.0617 21.6958 11.1957 21.7003 11.3096 21.749C11.6474 21.8936 11.9752 22.0553 12.3488 22.104C12.6462 22.1424 12.8595 22.3349 13.0049 22.5864C13.1298 22.8024 13.1443 23.0303 13.1013 23.2909C13.0381 23.6755 13.0533 24.0734 13.0407 24.466C13.0381 24.5478 13.0666 24.6304 13.0681 24.7129C13.0716 24.8929 13.0582 25.0736 13.0681 25.2531C13.0777 25.4281 13.2075 25.484 13.3583 25.4795C13.7464 25.4673 14.1344 25.4498 14.5213 25.4232C14.5769 25.4194 14.6557 25.3623 14.6755 25.311C14.7178 25.2018 14.738 25.0812 14.7502 24.9636C14.7654 24.8149 14.7593 24.6639 14.7707 24.5143C14.7848 24.3287 14.8332 24.1419 14.8218 23.9585C14.7951 23.5306 14.8583 23.1201 15.0872 22.7617C15.2174 22.5582 15.4013 22.3638 15.6066 22.2402C15.829 22.1063 16.1024 22.0545 16.3564 21.9758C16.527 21.9229 16.7068 21.8974 16.8747 21.8373C17.1066 21.7544 17.3248 21.6288 17.5601 21.5607C18.0693 21.4131 18.4779 21.0753 18.9486 20.8547C19.1839 20.7443 19.4185 20.6584 19.6637 20.7265C19.8107 20.7672 19.9642 20.8661 20.0011 21.0567C20.0072 21.0886 20.0613 21.1095 20.0879 21.1396C20.2048 21.2708 20.3229 21.401 20.4349 21.536C20.5468 21.6711 20.6462 21.8168 20.7627 21.9476C20.8282 22.021 20.9307 22.0629 20.9927 22.1382C21.1066 22.2767 21.1877 22.4452 21.313 22.57C21.3865 22.643 21.5087 22.7206 21.6344 22.6027C21.8903 22.363 22.1531 22.1314 22.4109 21.8936C22.4436 21.8635 22.4528 21.8057 22.487 21.7806C22.5948 21.7026 22.6096 21.6109 22.5472 21.5014C22.4577 21.345 22.4143 21.1666 22.2281 21.0647C22.1283 21.0103 22.0864 20.8554 22.0076 20.7546C21.8697 20.5781 21.7106 20.4168 21.5845 20.2327C21.4455 20.0291 21.3153 19.815 21.2159 19.5901C21.1119 19.3554 21.0015 19.1085 21.142 18.8411C21.2608 18.6143 21.369 18.3823 21.4863 18.1548C21.5556 18.0205 21.6283 17.8873 21.7083 17.7591C21.8172 17.5842 21.9451 17.4202 22.0449 17.2402C22.1173 17.1098 22.1508 16.9584 22.2128 16.8214C22.3214 16.5825 22.4554 16.3535 22.5491 16.1092C22.6995 15.7166 22.829 15.3157 22.9604 14.9162C23.0011 14.7926 23.0228 14.7165 23.1881 14.6594C23.3286 14.6108 23.4383 14.6511 23.5552 14.6458C23.8416 14.6321 24.1302 14.6606 24.4177 14.6724C24.4615 14.6743 24.5061 14.6838 24.5491 14.6788C24.6946 14.6613 24.8393 14.6267 24.9851 14.6214C25.1687 14.6142 25.3556 14.6488 25.5358 14.6256C25.6104 14.6157 25.7246 14.5061 25.7296 14.4354C25.7479 14.1748 25.7357 13.9108 25.7186 13.649C25.7098 13.5125 25.6416 13.3778 25.6458 13.2435C25.65 13.1069 25.5929 13.0217 25.4912 12.9757C25.3987 12.9338 25.2879 12.9224 25.1843 12.919C25.0799 12.9156 24.9745 12.946 24.8694 12.9475C24.7604 12.9491 24.6512 12.9259 24.5422 12.9278C24.2806 12.9331 24.0148 12.9806 23.7585 12.9479C23.4798 12.9125 23.2026 12.825 22.9387 12.7242C22.7791 12.6634 22.6298 12.5508 22.5045 12.4317C22.3438 12.2791 22.2574 12.0714 22.19 11.861C22.1249 11.6571 22.07 11.4498 22.0095 11.2448C21.9368 10.9986 21.8808 10.7453 21.7825 10.5094C21.7094 10.334 21.5358 10.1936 21.487 10.016C21.4074 9.72458 21.2719 9.48415 21.0716 9.26389C21.0038 9.18932 20.9866 9.06683 20.9539 8.96373C20.9128 8.83515 20.8709 8.7058 20.8454 8.57341C20.8214 8.45016 20.7905 8.31777 20.8115 8.19794C20.8644 7.89626 21.1184 7.74371 21.3343 7.56871C21.5137 7.42339 21.7136 7.30089 21.8774 7.14036C22.1001 6.92161 22.2993 6.67852 22.5038 6.4419C22.6546 6.26728 22.6466 6.14631 22.4646 5.98767C22.201 5.75827 21.9231 5.54562 21.6641 5.31127C21.5304 5.1903 21.4219 5.20095 21.2997 5.30899C21.0845 5.4992 20.8659 5.68561 20.6557 5.88115C20.4124 6.1075 20.1858 6.3525 19.936 6.57124C19.6077 6.85846 19.1942 6.87672 18.7867 6.87824C18.6751 6.87862 18.5613 6.81547 18.4528 6.77096C18.2208 6.67586 17.9885 6.58037 17.7627 6.47233C17.5483 6.36962 17.3496 6.23114 17.1298 6.14364C16.8381 6.02723 16.5346 5.93897 16.233 5.85034C16.0263 5.78947 15.8134 5.74914 15.6036 5.69893C15.5525 5.68675 15.4927 5.68523 15.4531 5.6567C15.2894 5.53801 15.1428 5.39154 14.9684 5.29416C14.8587 5.23291 14.7974 5.1747 14.7985 5.05373C14.8004 4.83803 14.7917 4.62156 14.8092 4.407C14.8488 3.9212 14.9021 3.43654 14.9497 2.9515L14.9489 2.95074Z" fill="currentColor"/>
<path d="M13.9045 7.75C13.8954 7.79923 13.8906 7.82743 13.8887 7.83555C14.0059 7.83555 14.127 7.83651 14.248 7.83555C14.6848 7.83173 15.1111 7.90151 15.5149 8.06257C15.7646 8.16198 16.0335 8.1897 16.2784 8.29724C16.3478 8.32782 16.4023 8.39187 16.4712 8.42341C16.8731 8.60789 17.264 8.80624 17.552 9.15848C17.5668 9.17616 17.5883 9.19862 17.6084 9.20054C18.0021 9.23017 18.1328 9.59149 18.3667 9.81516C18.559 9.99964 18.7045 10.2324 18.8753 10.4403C19.1326 10.7538 19.2905 11.1156 19.425 11.4951C19.5321 11.7976 19.6838 12.0844 19.8024 12.3831C19.8608 12.5294 19.9034 12.6852 19.9292 12.8405C19.9727 13.1 20.0034 13.3624 20.0263 13.6248C20.0392 13.771 20.0416 13.9216 20.022 14.0664C19.9761 14.4043 19.9163 14.7408 19.8574 15.0768C19.8048 15.3774 19.7498 15.6775 19.6871 15.9762C19.6723 16.0465 19.6211 16.1086 19.5891 16.176C19.4144 16.5421 19.2389 16.9077 19.0671 17.2753C19.0394 17.3345 19.0312 17.4029 19.0063 17.4956C18.8485 17.4956 18.7365 17.5964 18.6719 17.8048C18.6399 17.909 18.4901 17.975 18.3983 18.0629C18.2705 18.1857 18.1605 18.3329 18.0175 18.4328C17.8696 18.5361 17.7845 18.6818 17.6682 18.8042C17.5381 18.9409 17.3415 19.013 17.1774 19.1191C16.974 19.251 16.7875 19.4155 16.5707 19.5173C16.3588 19.6167 16.0985 19.6181 15.8952 19.7285C15.6809 19.8451 15.4598 19.8681 15.245 19.9302C15.0211 19.9952 14.7829 20.0588 14.5561 20.0936C14.3322 20.1281 14.0968 20.1195 13.8677 20.1381C13.749 20.1477 13.6098 20.0707 13.4921 20.1586C13.4457 20.1152 13.3735 20.0301 13.3615 20.0377C13.0577 20.2375 12.785 20.0076 12.5018 19.9751C12.2875 19.9503 12.0444 19.9245 11.8789 19.8074C11.7344 19.7056 11.4947 19.8179 11.4268 19.5856C11.4235 19.5746 11.3416 19.5966 11.3015 19.5846C11.2259 19.5622 11.0814 19.6262 11.1125 19.4389C11.1158 19.4183 10.9278 19.3729 10.834 19.327C10.7541 19.2878 10.6853 19.2267 10.6058 19.1856C10.5178 19.1397 10.4236 19.1053 10.3312 19.067C10.3102 19.0584 10.2819 19.0623 10.2657 19.0494C10.0815 18.9041 9.88056 18.7741 9.72316 18.6034C9.62604 18.4983 9.57629 18.3544 9.40741 18.3401C9.40167 18.3396 9.39449 18.3301 9.39114 18.3234C9.10074 17.8019 8.59936 17.4186 8.4233 16.8179C8.36972 16.6358 8.21328 16.4843 8.15443 16.3027C8.11568 16.1837 8.08602 16.0742 8.01473 15.9652C7.9401 15.8515 7.898 15.7095 7.8693 15.5743C7.81572 15.3234 7.78701 15.0677 7.73678 14.8163C7.7229 14.746 7.67075 14.6834 7.68654 14.6203C7.68654 14.4368 7.6851 14.2533 7.68654 14.0697C7.69037 13.7032 7.69515 13.3366 7.70185 12.97C7.70233 12.9399 7.71477 12.9088 7.72673 12.8802C7.76692 12.7803 7.89944 12.7382 7.82432 12.5595C7.7894 12.4763 7.85255 12.2421 7.91379 12.0973C8.04344 11.7886 8.21232 11.4965 8.36111 11.1959C8.42426 11.0678 8.45727 10.9201 8.53956 10.8078C8.6472 10.6616 8.58884 10.3877 8.87301 10.3681C8.91081 10.3653 8.96583 10.2788 8.97348 10.2252C9.01654 9.93512 9.27297 9.8338 9.4385 9.64836C9.61695 9.44858 9.83798 9.29421 10.0011 9.08105C10.0375 9.03374 10.1356 9.03852 10.193 9.00076C10.2662 8.95296 10.3217 8.87697 10.3953 8.82918C10.5805 8.70922 10.7656 8.58639 10.9623 8.48745C11.1723 8.38183 11.3943 8.29819 11.6139 8.21216C11.8234 8.13044 11.9751 7.93687 12.276 8.04632C12.4573 8.11228 12.7176 7.93735 12.9472 7.90055C13.2118 7.85849 13.4663 7.70699 13.7505 7.81643C13.7844 7.82934 13.8428 7.7782 13.9045 7.75ZM13.2395 10.7462C13.1051 10.7796 12.9989 10.7968 12.8994 10.8322C12.4674 10.9866 12.0861 11.2126 11.7172 11.4999C11.2192 11.887 10.9417 12.3941 10.7642 12.9547C10.5814 13.5311 10.5786 14.1271 10.7197 14.7355C10.8058 15.1083 10.945 15.4429 11.1441 15.7502C11.4962 16.2941 11.9913 16.6764 12.5855 16.9464C13.2299 17.2394 13.8883 17.2624 14.5676 17.1328C15.1714 17.0177 15.679 16.7032 16.0976 16.284C16.3775 16.0035 16.5784 15.6331 16.7693 15.2784C17.0243 14.8043 17.0061 14.2733 16.996 13.751C16.9932 13.598 17.0133 13.4398 16.9817 13.2926C16.9358 13.078 16.8726 12.8615 16.7798 12.6637C16.665 12.419 16.5344 12.1752 16.3693 11.963C16.2244 11.7761 16.0129 11.6428 15.8478 11.4693C15.4264 11.0258 14.8752 10.8494 14.304 10.7572C13.95 10.6998 13.5778 10.7462 13.2395 10.7462Z" fill="currentColor"/>
</svg>
