<svg viewBox="0 0 32 32" fill="none" xmlns="http://www.w3.org/2000/svg">
    <path d="M4.46484 16.8611C4.50068 16.253 4.5122 15.6423 4.5778 15.0377C4.68339 14.0653 4.93106 13.1245 5.26961 12.2088C5.53424 11.4926 5.87087 10.8132 6.26445 10.1614C6.59916 9.60705 6.9697 9.08097 7.38345 8.58452C7.87591 7.99367 8.42053 7.46043 9.01026 6.96984C9.5456 6.52483 10.1222 6.14329 10.7148 5.78845C11.0435 5.59182 11.4009 5.4411 11.7535 5.2894C12.1657 5.1123 12.5807 4.93586 13.0063 4.79816C13.3813 4.67673 13.7707 4.5973 14.1579 4.52112C14.5022 4.45341 14.8628 4.45438 15.1969 4.35607C15.6554 4.2213 16.1194 4.24213 16.5783 4.24506C17.3021 4.24962 18.0256 4.32742 18.7356 4.47913C19.1251 4.56246 19.5084 4.68129 19.8885 4.80304C20.2645 4.92316 20.6453 5.04036 21.0021 5.20704C21.4712 5.42612 21.9361 5.6654 22.3716 5.94601C22.8529 6.25593 23.3054 6.61467 23.7585 6.96789C23.9786 7.13945 24.1777 7.34096 24.3767 7.53889C24.9853 8.14439 25.4986 8.8277 25.951 9.55952C26.287 10.1035 26.576 10.6729 26.8099 11.2696C27.0508 11.8845 27.2614 12.5099 27.3782 13.1636C27.4537 13.5848 27.5426 14.0051 27.5897 14.4299C27.6316 14.8105 27.6086 15.1982 27.6425 15.5801C27.6882 16.0951 27.6169 16.6042 27.5705 17.1108C27.5282 17.5747 27.4006 18.0324 27.2899 18.4878C27.1756 18.9576 27.0531 19.4267 26.902 19.885C26.7907 20.2229 26.632 20.5449 26.4857 20.8701C26.3772 21.1117 26.2729 21.3581 26.1353 21.5824C25.8656 22.0212 25.5827 22.4526 25.2877 22.8741C25.0695 23.186 24.8429 23.4963 24.585 23.7736C24.2004 24.1871 23.7892 24.5754 23.3812 24.9654C23.1828 25.1549 22.9726 25.3333 22.7556 25.5006C22.5604 25.6513 22.3518 25.7842 22.1445 25.9173C21.8833 26.085 21.6226 26.2546 21.3525 26.4063C21.0754 26.5619 20.7928 26.7107 20.502 26.8373C20.0652 27.0274 19.6249 27.2136 19.1747 27.3669C18.8278 27.4848 18.4656 27.559 18.1062 27.6352C17.7178 27.7175 17.327 27.7937 16.9338 27.8461C16.666 27.8816 16.392 27.8722 16.121 27.8819C15.9121 27.8894 15.7028 27.9057 15.4945 27.8989C15.1335 27.8872 14.77 27.8832 14.4129 27.8347C13.9304 27.7693 13.4459 27.6938 12.9755 27.5701C12.4588 27.4343 11.9532 27.2497 11.4498 27.0661C11.1087 26.9418 10.7689 26.8038 10.4489 26.6322C10.08 26.4343 9.72543 26.2051 9.37953 25.9668C9.0525 25.7418 8.72963 25.5055 8.43268 25.2418C8.07238 24.9221 7.71911 24.5881 7.40297 24.2245C7.02218 23.7863 6.66988 23.3205 6.33133 22.8471C6.13774 22.5766 5.9803 22.2755 5.83471 21.9744C5.60912 21.5085 5.38161 21.0407 5.20305 20.5553C5.02162 20.0621 4.87059 19.5533 4.75763 19.0396C4.65108 18.5549 4.60788 18.0552 4.54484 17.5613C4.5154 17.3302 4.50484 17.0964 4.48596 16.8637C4.47892 16.8627 4.47188 16.8617 4.46516 16.8611H4.46484ZM27.0463 15.6416C27.0198 15.2125 27.0127 14.7809 26.9612 14.3547C26.9116 13.9442 26.8204 13.5389 26.7398 13.1327C26.5865 12.3595 26.3289 11.6199 25.9779 10.92C25.7283 10.4222 25.4403 9.94301 25.1485 9.46934C24.8419 8.97192 24.473 8.51681 24.0602 8.11021C23.6414 7.69775 23.1959 7.30775 22.73 6.95161C22.3188 6.63746 21.8766 6.35815 21.4238 6.10911C20.8872 5.81384 20.3202 5.58076 19.7346 5.39422C18.8867 5.12402 18.0221 4.93586 17.1363 4.90851C16.3258 4.88345 15.5127 4.86945 14.7048 5.01659C13.9515 5.15397 13.2184 5.36102 12.5087 5.64033C12.0114 5.83598 11.5324 6.08469 11.0604 6.33894C10.6982 6.53394 10.342 6.7501 10.0153 7.00012C9.54048 7.36374 9.07426 7.74463 8.6426 8.15969C8.25157 8.53569 7.88551 8.94653 7.55688 9.38015C7.20809 9.84079 6.90635 10.3398 6.60204 10.8337C6.28045 11.3555 6.03534 11.9187 5.83279 12.4975C5.68431 12.9217 5.55824 13.3553 5.4424 13.7903C5.23857 14.5553 5.13554 15.3392 5.1189 16.1296C5.1077 16.6553 5.1317 17.1853 5.18513 17.7085C5.23473 18.1958 5.31217 18.6854 5.43504 19.1587C5.5816 19.7232 5.76559 20.2812 5.97902 20.8232C6.14862 21.2536 6.36877 21.6664 6.59884 22.0678C6.93834 22.6596 7.31529 23.2296 7.79175 23.7193C8.18789 24.1262 8.5818 24.5403 9.01474 24.9042C9.40417 25.2314 9.83871 25.5055 10.2659 25.7829C10.903 26.1966 11.5964 26.4929 12.3113 26.7377C13.0655 26.9958 13.8417 27.156 14.6318 27.2318C15.2529 27.2914 15.8788 27.3142 16.5005 27.2302C17.0829 27.1518 17.6723 27.0938 18.2419 26.9545C18.8355 26.8093 19.4194 26.6058 19.9877 26.3773C20.6952 26.0924 21.3576 25.7122 21.9848 25.2682C22.5435 24.8726 23.0843 24.453 23.5537 23.9543C24.0036 23.4764 24.4388 22.979 24.8311 22.4522C25.1511 22.0225 25.4202 21.5489 25.6714 21.0726C25.9238 20.5941 26.1555 20.0992 26.3427 19.5911C26.59 18.9205 26.7612 18.2257 26.8723 17.5138C26.9689 16.8927 27.0342 16.2722 27.0457 15.6426L27.0463 15.6416Z"
          fill="currentColor"/>
    <path d="M25.897 25.3234C26.5037 25.2993 26.9888 25.8791 26.9319 26.4432C26.8762 26.994 26.466 27.387 25.8058 27.3733C25.3323 27.3635 24.7921 26.7606 24.8344 26.271C24.883 25.7052 25.291 25.2778 25.897 25.3237V25.3234ZM26.3229 26.3537C26.3293 26.174 26.0954 25.9328 25.9041 25.922C25.6695 25.909 25.4711 26.09 25.4583 26.3283C25.4487 26.5096 25.6926 26.731 25.9143 26.7421C26.1242 26.7528 26.3153 26.5712 26.3229 26.3537Z"
          fill="currentColor"/>
    <path d="M29.23 21.308C29.1541 21.2996 29.0498 21.2859 28.9448 21.2761C28.5753 21.2413 28.2857 20.8207 28.2498 20.4668C28.1807 19.7835 28.5877 19.3681 29.165 19.2555C29.3205 19.2252 29.5157 19.3265 29.6738 19.4062C29.9141 19.527 30.0626 19.7308 30.1278 20.0078C30.2683 20.6042 29.8587 21.1794 29.3186 21.2953C29.3 21.2992 29.2812 21.3009 29.23 21.308ZM29.2332 19.9082C29.0252 19.8965 28.8511 20.1312 28.8508 20.3109C28.8508 20.5127 28.9893 20.6784 29.1474 20.6814C29.3483 20.6849 29.5205 20.4834 29.5215 20.2438C29.5221 20.0228 29.4226 19.9072 29.2332 19.9085V19.9082Z"
          fill="currentColor"/>
    <path d="M28.1282 24.6378C27.4873 24.629 26.9219 24.1736 26.9609 23.5492C26.9779 23.2777 27.1337 23.0889 27.3452 22.96C27.8271 22.6663 28.5036 22.8324 28.8258 23.2709C29.1592 23.7247 29.0146 24.3526 28.4533 24.5607C28.3311 24.6059 28.1983 24.6215 28.1282 24.6378ZM28.0901 24.0284C28.1804 23.9763 28.2802 23.935 28.356 23.8663C28.3848 23.8402 28.3778 23.739 28.3519 23.6915C28.2402 23.4864 27.9487 23.3972 27.7317 23.49C27.5785 23.5554 27.5465 23.6687 27.6517 23.7947C27.7609 23.9252 27.9049 23.9861 28.0904 24.0284H28.0901Z"
          fill="currentColor"/>
    <path d="M29.999 16.816C29.5658 16.8753 29.0743 16.499 28.9552 16.0595C28.7876 15.4409 29.3667 14.8709 29.9152 14.9829C30.3462 15.0708 30.6883 15.2232 30.8492 15.6913C31.0435 16.2564 30.5414 16.8502 29.9993 16.816H29.999ZM30.2553 15.9527C30.2582 15.7222 29.9939 15.5425 29.7488 15.6086C29.5395 15.6649 29.4707 15.8915 29.6355 16.0347C29.7283 16.1151 29.8589 16.1679 29.9805 16.1926C30.1245 16.2219 30.2534 16.0914 30.255 15.9527H30.2553Z"
          fill="currentColor"/>
    <path d="M20.4008 4.38265C19.925 4.36898 19.5462 4.08641 19.4025 3.67232C19.278 3.31422 19.5401 2.80736 19.9017 2.68853C20.2671 2.56873 20.6197 2.56873 20.948 2.80182C21.196 2.97794 21.3269 3.22828 21.3182 3.52713C21.3086 3.85462 21.148 4.11473 20.8475 4.25374C20.7083 4.31787 20.5506 4.34098 20.4012 4.38265H20.4008ZM20.406 3.74068C20.4162 3.75012 20.4261 3.75924 20.4364 3.76868C20.5231 3.69413 20.6373 3.63391 20.684 3.53885C20.7055 3.49555 20.6069 3.36891 20.5388 3.30869C20.4834 3.25986 20.3935 3.24684 20.3164 3.22926C20.188 3.19996 20.0428 3.2833 20.0041 3.41058C19.9634 3.54406 20.0594 3.61014 20.1525 3.65865C20.2303 3.69934 20.3212 3.71431 20.4063 3.74068H20.406Z"
          fill="currentColor"/>
    <path d="M27.1977 7.1683C27.3311 7.08333 27.4354 7.17513 27.5036 7.25847C27.7941 7.61299 27.925 8.08665 27.6021 8.55217C27.3663 8.89204 26.9033 8.92329 26.5887 8.74457C26.1721 8.50757 25.879 7.97824 26.0688 7.4131C26.2067 7.00227 26.7094 6.80922 27.1026 7.00911C27.1442 7.03027 27.1606 7.10319 27.198 7.16862L27.1977 7.1683ZM27.1846 8.03977C27.1654 7.83338 27.0678 7.69925 26.9356 7.59801C26.8873 7.5609 26.7827 7.55406 26.7295 7.58271C26.679 7.61006 26.6287 7.70707 26.6374 7.76404C26.6547 7.8757 26.6886 8.00429 26.7615 8.08176C26.8307 8.15534 26.9555 8.18887 27.0607 8.20449C27.0934 8.20938 27.143 8.09804 27.1846 8.03977Z"
          fill="currentColor"/>
    <path d="M16.8091 3.75987C16.2783 3.76508 15.8879 3.28914 15.9474 2.74874C15.9973 2.29592 16.3167 1.98568 16.8162 1.9694C17.459 1.94824 17.7377 2.44827 17.723 2.88873C17.7057 3.39625 17.3432 3.78559 16.8091 3.75987ZM16.8408 3.12605C16.9838 3.12442 17.1064 3.00495 17.1093 2.86464C17.1122 2.71912 16.9512 2.571 16.7912 2.57263C16.6952 2.5736 16.5605 2.74549 16.5647 2.86171C16.5701 3.02057 16.6827 3.128 16.8408 3.12605Z"
          fill="currentColor"/>
    <path d="M21.0413 29.555C21.0605 29.8828 20.8122 30.2491 20.5271 30.3965C20.1815 30.5752 19.8621 30.5658 19.5351 30.3578C19.3143 30.2175 19.1492 29.7412 19.2481 29.4704C19.3863 29.0914 19.6375 28.8785 20.01 28.7916C20.457 28.6871 20.8496 28.9033 21.0067 29.3418C21.0323 29.4127 21.032 29.4935 21.0416 29.555H21.0413ZM20.041 29.8932C20.2176 29.8916 20.4074 29.7249 20.4061 29.5898C20.4048 29.4717 20.3139 29.3857 20.1904 29.386C20.0215 29.3867 19.8362 29.5557 19.842 29.7106C19.8471 29.8509 19.9533 29.8744 20.041 29.8932Z"
          fill="currentColor"/>
    <path d="M23.4359 27.5782C23.5175 27.5391 23.609 27.4577 23.6947 27.4639C23.7965 27.4711 23.9053 27.5381 23.9891 27.6071C24.0717 27.6755 24.1322 27.7748 24.193 27.8669C24.4262 28.2185 24.3546 28.6235 24.1091 28.9057C23.8762 29.1736 23.4608 29.3533 23.0161 29.0958C22.4228 28.7527 22.4356 28.0437 22.8122 27.6788C22.9338 27.5609 23.1146 27.4948 23.2797 27.4395C23.3917 27.4017 23.465 27.4785 23.4362 27.5778L23.4359 27.5782ZM23.7008 28.3191C23.6992 28.185 23.5562 28.0277 23.4352 28.0271C23.3008 28.0261 23.1504 28.182 23.152 28.321C23.1533 28.461 23.2992 28.5922 23.4516 28.5906C23.5965 28.5893 23.7027 28.4734 23.7008 28.3191Z"
          fill="currentColor"/>
    <path d="M1.12321 16.7682C1.11649 16.4791 1.31808 16.0247 1.75326 15.9208C1.82142 15.9045 1.88318 15.8606 1.95102 15.8424C2.36476 15.7307 2.82138 16.0579 2.8777 16.4915C2.94106 16.9814 2.58939 17.4414 2.14685 17.5469C1.70687 17.6517 1.34496 17.46 1.15713 17.0338C1.12289 16.9557 1.13345 16.8574 1.12321 16.7682ZM1.93054 16.9424C2.08477 16.9417 2.26556 16.7802 2.27004 16.6386C2.27388 16.5263 2.16829 16.4449 2.02685 16.4508C1.92638 16.455 1.7443 16.6497 1.7443 16.7571C1.7443 16.8815 1.80766 16.9437 1.93054 16.9424Z"
          fill="currentColor"/>
    <path d="M29.0466 11.0541C29.1022 11.1586 29.147 11.242 29.2046 11.35C29.2661 11.27 29.3157 11.2254 29.341 11.169C29.4098 11.0177 29.5285 11.0343 29.6264 11.099C29.9013 11.281 30.0664 11.6814 29.9144 12.0486C29.811 12.2983 29.6405 12.4732 29.4296 12.5848C29.187 12.7131 28.9045 12.7626 28.6395 12.6242C28.3778 12.4875 28.2079 12.2661 28.2172 11.9565C28.2303 11.5076 28.5144 11.1303 28.9704 11.0404C29.004 11.0339 29.0427 11.0525 29.0469 11.0535L29.0466 11.0541ZM28.9378 12.0613C29.1483 12.0558 29.372 11.8702 29.3394 11.7452C29.3259 11.6938 29.2386 11.632 29.1816 11.628C29.0347 11.6183 28.8306 11.8139 28.8495 11.9386C28.8575 11.9907 28.9173 12.0343 28.9378 12.0613Z"
          fill="currentColor"/>
    <path d="M23.7511 4.3809C23.8167 4.45838 23.8704 4.52251 23.9341 4.59739C23.9559 4.55181 23.9764 4.52088 23.9863 4.48703C24.0359 4.31254 24.1306 4.26013 24.29 4.34346C24.7258 4.57199 25.0093 5.04045 24.7549 5.57303C24.5661 5.96856 24.082 6.12515 23.6865 5.91062C23.2462 5.672 23.0894 5.19573 23.2881 4.71165C23.3629 4.52902 23.5457 4.4102 23.7514 4.3809H23.7511ZM24.0727 5.36208C24.1581 5.36111 24.2132 5.31293 24.2154 5.2055C24.218 5.06356 24.106 4.91804 23.9789 4.93953C23.921 4.9493 23.8477 5.0398 23.8336 5.10523C23.8061 5.23317 23.929 5.35752 24.0727 5.36208Z"
          fill="currentColor"/>
    <path d="M5.14352 8.18671C5.19055 8.6493 4.89105 8.94489 4.49042 9.01163C4.077 9.08064 3.83189 8.99796 3.68181 8.71408C3.59254 8.54513 3.52886 8.36738 3.57718 8.16164C3.60982 8.02166 3.57622 7.86996 3.67862 7.74072C3.73973 7.66356 3.76533 7.57729 3.89205 7.56232C4.01972 7.54734 4.14292 7.48028 4.26387 7.42689C4.44786 7.34518 4.61266 7.38425 4.77617 7.48517C5.0392 7.64794 5.17679 7.87549 5.14384 8.18638L5.14352 8.18671ZM4.13364 8.22414C4.19699 8.30227 4.23699 8.40059 4.29523 8.41328C4.42067 8.44063 4.53362 8.3358 4.5381 8.22773C4.54418 8.07993 4.4517 7.97738 4.29203 8.00115C4.23795 8.00929 4.19955 8.12648 4.13364 8.22414Z"
          fill="currentColor"/>
    <path d="M5.3386 24.4453C5.77922 24.499 6.12129 24.7949 6.10145 25.2647C6.08449 25.6661 5.74787 26.0499 5.20165 26.0216C4.77158 25.9991 4.38024 25.6736 4.42088 25.1517C4.4516 24.7611 4.79174 24.4365 5.33828 24.4456L5.3386 24.4453ZM5.26724 25.4669C5.35684 25.3695 5.44132 25.3155 5.46564 25.2409C5.49348 25.1556 5.35076 25.059 5.22437 25.0648C5.12389 25.0697 5.01925 25.1254 5.04133 25.2217C5.05989 25.3034 5.16773 25.3643 5.26724 25.4665V25.4669Z"
          fill="currentColor"/>
    <path d="M2.3329 14.4395C1.78028 14.4639 1.31566 13.8958 1.44877 13.3675C1.53165 13.0374 1.8686 12.7783 2.17834 12.858C2.19882 12.8632 2.22378 12.8769 2.23946 12.8701C2.47881 12.76 2.62249 12.9407 2.77544 13.0631C2.93671 13.1924 3.00647 13.3789 3.04295 13.5863C3.13639 14.1146 2.69736 14.4346 2.33322 14.4398L2.3329 14.4395ZM2.13163 13.4326C2.11019 13.4658 2.05931 13.5111 2.05227 13.5625C2.03755 13.6676 2.20682 13.8184 2.32042 13.7982C2.36202 13.7907 2.41993 13.7305 2.42537 13.6882C2.43721 13.5967 2.25418 13.4306 2.13195 13.4326H2.13163Z"
          fill="currentColor"/>
    <path d="M2.48827 20.3921C1.98877 20.4083 1.62335 19.991 1.62111 19.5375C1.61887 19.1006 1.86878 18.8021 2.44412 18.7969C2.84666 18.7933 3.20537 19.1667 3.21017 19.6244C3.21433 19.9988 2.97017 20.3771 2.48827 20.3921ZM2.38812 19.3532C2.31772 19.4483 2.2614 19.4913 2.25276 19.543C2.23452 19.6498 2.34172 19.7579 2.44796 19.7364C2.49691 19.7266 2.57819 19.6394 2.56987 19.6205C2.53467 19.5391 2.47195 19.4701 2.38812 19.3532Z"
          fill="currentColor"/>
    <path d="M9.99449 28.234V28.3746H10.2774C10.2262 28.1689 10.2738 28.0921 10.471 28.1025C10.9359 28.1272 11.388 28.5768 11.2037 29.1371C11.0527 29.5957 10.4425 29.753 10.0844 29.6062C9.85434 29.5118 9.67675 29.3692 9.59259 29.1247C9.47003 28.7695 9.62075 28.3981 9.99449 28.2337V28.234ZM10.3855 29.082C10.4834 29.0049 10.6076 28.9505 10.606 28.9004C10.6018 28.7614 10.4687 28.735 10.3538 28.7194C10.2479 28.7051 10.1545 28.7643 10.1746 28.863C10.19 28.9372 10.2943 28.9925 10.3858 29.082H10.3855Z"
          fill="currentColor"/>
    <path d="M2.79244 10.2933C2.81804 10.2364 2.83308 10.1699 2.87212 10.1247C2.9118 10.0785 2.97452 10.0238 3.02763 10.0235C3.33514 10.0208 3.71177 10.3679 3.70953 10.7911C3.70697 11.3139 3.20363 11.6847 2.69805 11.5681C2.27182 11.4702 2.05231 11.1059 2.08527 10.7475C2.11343 10.4414 2.27598 10.2276 2.55725 10.11C2.72077 10.042 2.73069 10.1631 2.7454 10.2774C2.76108 10.2826 2.77676 10.2878 2.79244 10.293V10.2933ZM2.90444 11.0317C2.98124 10.9161 3.06603 10.8438 3.06315 10.7748C3.06123 10.7247 2.93932 10.6364 2.87884 10.6433C2.81164 10.6504 2.75404 10.7462 2.69197 10.8031C2.74988 10.8653 2.8078 10.9278 2.90412 11.0317H2.90444Z"
          fill="currentColor"/>
    <path d="M2.83525 22.7036C2.81157 22.4331 2.91781 22.1697 3.17796 22.019C3.44227 21.8657 3.73057 21.8015 4.0224 21.9956C4.20896 22.1196 4.29311 22.3156 4.32223 22.5057C4.37055 22.8221 4.28159 23.1164 4.02624 23.3427C3.76577 23.5735 3.48738 23.5699 3.2058 23.4169C2.94821 23.2769 2.82245 23.0428 2.83557 22.7036H2.83525ZM3.76801 22.6577C3.68898 22.5877 3.61154 22.506 3.60226 22.5135C3.53762 22.5643 3.45795 22.6268 3.44131 22.6994C3.42755 22.7596 3.44355 22.9032 3.5693 22.8625C3.6397 22.8397 3.68738 22.7446 3.76833 22.6577H3.76801Z"
          fill="currentColor"/>
    <path d="M9.53635 3.43882C9.66819 3.1709 9.69891 3.17676 9.93058 3.31609C10.2326 3.49807 10.3565 4.12213 10.0883 4.46525C9.76994 4.8725 9.3994 4.8865 9.03493 4.6583C8.72327 4.4633 8.54087 3.97922 8.77254 3.58922C8.88262 3.40399 9.01797 3.28647 9.21061 3.22527C9.27588 3.20443 9.33764 3.19141 9.37028 3.29656C9.38756 3.35223 9.47204 3.38641 9.53635 3.43849V3.43882ZM9.63331 4.04888C9.60483 3.89523 9.57923 3.77608 9.44676 3.79203C9.39396 3.79822 9.30564 3.90597 9.3146 3.94992C9.3306 4.02642 9.39844 4.11041 9.46756 4.14785C9.49956 4.1651 9.58499 4.07948 9.63331 4.04888Z"
          fill="currentColor"/>
    <path d="M7.40898 5.80764C7.41058 6.12471 7.2477 6.37538 6.98179 6.5095C6.67845 6.66283 6.3431 6.63646 6.08647 6.38905C5.81736 6.12927 5.71016 5.70509 6.03431 5.33332C6.13671 5.2158 6.23494 5.09991 6.41254 5.13214C6.42086 5.13377 6.43334 5.12661 6.44038 5.11977C6.58213 4.97881 6.73188 5.0348 6.88772 5.09242C7.22338 5.21645 7.4237 5.56641 7.40898 5.80796V5.80764ZM6.79524 5.8467C6.79524 5.82522 6.7946 5.8034 6.79428 5.78192C6.73188 5.74871 6.66789 5.68751 6.60805 5.69142C6.55653 5.69467 6.50981 5.77215 6.46085 5.81708C6.51653 5.86363 6.56837 5.93818 6.62981 5.94729C6.67909 5.95478 6.73988 5.88316 6.79556 5.8467H6.79524Z"
          fill="currentColor"/>
    <path d="M16.7708 29.4705C16.8816 29.4123 16.9644 29.3358 17.0518 29.3306C17.1539 29.3244 17.3043 29.3462 17.3564 29.4155C17.5865 29.7222 17.6575 30.0715 17.5266 30.4472C17.4361 30.7063 17.135 30.9244 16.8742 30.9088C16.6224 30.8935 16.3728 30.636 16.295 30.4071C16.2025 30.1353 16.2048 29.8674 16.3542 29.6229C16.423 29.5106 16.5337 29.4188 16.6406 29.3384C16.7049 29.2899 16.7891 29.297 16.7715 29.4699L16.7708 29.4705ZM16.8748 30.247C16.9907 30.1135 16.9823 29.9826 16.8534 29.9201C16.8608 30.0302 16.8672 30.1281 16.8748 30.247Z"
          fill="currentColor"/>
    <path d="M7.57334 26.8578C7.59382 26.7768 7.61206 26.7029 7.64085 26.5876C7.72341 26.5349 7.92532 26.5629 8.07764 26.6934C8.39922 26.9692 8.48018 27.4129 8.25203 27.8006C8.08564 28.0835 7.6079 28.2052 7.27351 28.061C6.9932 27.9402 6.81817 27.4125 6.93944 27.1049C7.06968 26.7751 7.18263 26.7738 7.57302 26.8575L7.57334 26.8578ZM7.66709 27.1466C7.63989 27.1479 7.61302 27.1492 7.58582 27.1505C7.5631 27.2286 7.52502 27.3067 7.52502 27.3849C7.52502 27.4187 7.60278 27.4737 7.64853 27.478C7.67893 27.4809 7.74677 27.407 7.74357 27.3732C7.73589 27.296 7.69461 27.2221 7.66709 27.1466Z"
          fill="currentColor"/>
    <path d="M13.5286 2.80907C13.5116 3.2378 13.1414 3.57441 12.7216 3.55456C12.3184 3.53567 12.024 3.33319 12.0397 2.83023C12.0509 2.47213 12.4105 2.1518 12.7478 2.14854C13.2918 2.14301 13.5308 2.35201 13.5286 2.80907ZM12.6435 2.85953C12.6633 2.8898 12.6832 2.91975 12.703 2.95003C12.7686 2.89794 12.8345 2.84585 12.9001 2.79409C12.8815 2.77619 12.8537 2.7394 12.8457 2.74331C12.7763 2.77782 12.7107 2.82014 12.6438 2.85985L12.6435 2.85953Z"
          fill="currentColor"/>
    <path d="M13.4195 29.2936C13.4195 29.2354 13.4202 29.209 13.4195 29.1826C13.4119 28.9307 13.551 28.8369 13.783 28.9391C13.9776 29.0247 14.1453 29.1377 14.2547 29.3353C14.4294 29.6511 14.2688 30.0596 13.9673 30.2025C13.5626 30.394 13.2637 30.3204 12.9773 30.0414C12.7175 29.7881 12.7002 29.3356 13.0935 29.098C13.1395 29.07 13.2416 29.1214 13.3098 29.154C13.3475 29.1719 13.3687 29.2262 13.4195 29.2936ZM13.4298 29.5316C13.4234 29.5619 13.417 29.5922 13.4106 29.6228C13.4918 29.6384 13.5731 29.6537 13.6544 29.6693C13.6598 29.6446 13.665 29.6198 13.6704 29.5951C13.5901 29.5739 13.5101 29.5528 13.4298 29.5319V29.5316Z"
          fill="currentColor"/>
    <path d="M7.10359 28.8409C7.09591 29.02 6.96728 29.1782 6.838 29.1681C6.60185 29.1496 6.40442 28.9799 6.40826 28.7989C6.41178 28.6368 6.59801 28.5037 6.81528 28.5079C6.91576 28.5099 7.10839 28.7322 7.10359 28.8409Z"
          fill="currentColor"/>
    <path d="M27.482 27.6019C27.6551 27.6797 27.7828 27.7852 27.7713 28.0023C27.763 28.1586 27.6414 28.2233 27.5489 28.2995C27.5111 28.3304 27.3998 28.2842 27.3288 28.2552C27.0593 28.1462 27.0728 27.9085 27.1944 27.766C27.2644 27.6836 27.3908 27.651 27.482 27.6016V27.6019Z"
          fill="currentColor"/>
    <path d="M5.49624 4.95845C5.27673 4.99654 5.1433 4.77485 5.13882 4.64105C5.13306 4.48154 5.30009 4.28458 5.42393 4.28914C5.63064 4.29663 5.78871 4.45452 5.78423 4.64919C5.77975 4.84354 5.67192 4.9591 5.49656 4.95845H5.49624Z"
          fill="currentColor"/>
    <path d="M9.4923 30.6329C9.49774 30.4405 9.64589 30.2806 9.81037 30.2894C9.98732 30.2988 10.1464 30.4584 10.1451 30.625C10.1438 30.7797 9.97516 30.9454 9.81837 30.9457C9.63821 30.946 9.4875 30.8015 9.4923 30.6329Z"
          fill="currentColor"/>
    <path d="M13.441 31.4821C13.4254 31.6934 13.2993 31.8321 13.131 31.7924C13.0283 31.7679 12.9211 31.7084 12.8475 31.6328C12.8072 31.5915 12.8264 31.4834 12.8302 31.4059C12.8382 31.2429 12.9681 31.1338 13.1358 31.141C13.3095 31.1484 13.4538 31.3096 13.441 31.4818V31.4821Z"
          fill="currentColor"/>
    <path d="M2.89671 6.99219C3.00775 7.00488 3.0823 7.01335 3.1703 7.02344C3.20614 7.07553 3.28613 7.14422 3.30021 7.22495C3.31781 7.32619 3.30213 7.44664 3.2599 7.54007C3.23718 7.59053 3.12966 7.62699 3.06086 7.62602C2.86023 7.62309 2.666 7.41637 2.68264 7.22332C2.68776 7.16212 2.74696 7.09896 2.79495 7.05013C2.83175 7.01237 2.88967 6.99609 2.89671 6.99251V6.99219Z"
          fill="currentColor"/>
    <path d="M0.569917 13.5656C0.569917 13.5656 0.577276 13.521 0.560637 13.5064C0.429442 13.3921 0.468481 13.2511 0.544318 13.1512C0.587836 13.0936 0.716791 13.089 0.807987 13.0861C0.957741 13.0809 1.08574 13.2062 1.11261 13.3615C1.13853 13.5109 1.06974 13.6353 0.932462 13.6929C0.857585 13.7245 0.797428 13.73 0.73983 13.6506C0.712311 13.6125 0.647674 13.6027 0.569917 13.5656Z"
          fill="currentColor"/>
    <path d="M24.5151 29.957C24.508 30.1917 24.3877 30.2721 24.1653 30.1914C24.1605 30.1895 24.1547 30.1895 24.15 30.1878C23.9029 30.1081 23.8572 30.0599 23.8869 29.9095C23.9215 29.7337 24.1135 29.5781 24.2751 29.595C24.4101 29.609 24.5208 29.776 24.5154 29.9567L24.5151 29.957Z"
          fill="currentColor"/>
    <path d="M4.25643 26.0091C4.24939 26.1797 4.19883 26.265 4.05388 26.2683C3.99724 26.2696 3.93388 26.2683 3.88524 26.2927C3.77837 26.3461 3.66765 26.2976 3.63885 26.2292C3.59918 26.1345 3.60046 25.9994 3.63725 25.9024C3.66061 25.8408 3.77677 25.8024 3.85805 25.7809C3.96684 25.7523 4.09292 25.7064 4.17291 25.8444C4.20875 25.9063 4.23755 25.9724 4.25611 26.0095L4.25643 26.0091Z"
          fill="currentColor"/>
    <path d="M20.6466 31.5382C20.5487 31.5219 20.4297 31.5343 20.3586 31.4809C20.294 31.4324 20.2588 31.3145 20.2508 31.2237C20.238 31.0753 20.3829 30.9262 20.5071 30.9298C20.6108 30.9327 20.8533 31.1134 20.8527 31.1873C20.8517 31.3588 20.7481 31.5314 20.6466 31.5382Z"
          fill="currentColor"/>
    <path d="M20.6921 1.65027C20.8073 1.62781 20.9062 1.61478 21.0019 1.58907C21.2028 1.53535 21.2336 1.55065 21.2828 1.75216C21.3286 1.93935 21.2748 2.03343 21.0956 2.06598C21.0144 2.08096 20.9286 2.10082 20.8496 2.08812C20.696 2.06338 20.64 1.96214 20.6809 1.80555C20.6928 1.7603 20.6883 1.71049 20.6918 1.64994L20.6921 1.65027Z"
          fill="currentColor"/>
    <path d="M29.833 24.6176C29.9626 24.6082 30.1296 24.7485 30.1341 24.8706C30.1399 25.0304 30.0167 25.2049 29.8935 25.2114C29.7514 25.2189 29.544 25.0454 29.5287 24.9057C29.5124 24.7583 29.6464 24.6313 29.833 24.618V24.6176Z"
          fill="currentColor"/>
    <path d="M2.36671 23.5088C2.36831 23.5863 2.15456 23.7924 2.06624 23.7985C1.98496 23.8041 1.75105 23.5319 1.75393 23.4349C1.75649 23.3473 1.94432 23.1712 2.03392 23.1719C2.19807 23.1732 2.36319 23.3402 2.36671 23.5091V23.5088Z"
          fill="currentColor"/>
    <path d="M0.00210658 16.6255C-0.0126128 16.5229 0.0497847 16.4614 0.189939 16.4685C0.246897 16.4715 0.306094 16.4653 0.361772 16.4523C0.490087 16.423 0.563044 16.4891 0.605602 16.5975C0.643361 16.6941 0.647841 16.768 0.536485 16.8481C0.42065 16.9311 0.334573 17.0295 0.17746 16.9585C0.0485047 16.9002 -0.000133331 16.8016 0.00210658 16.6255Z"
          fill="currentColor"/>
    <path d="M17.2035 31.6479C17.2076 31.7951 17.0329 32.0129 16.9245 31.9644C16.8166 31.9162 16.688 31.8045 16.6637 31.6977C16.6166 31.4933 16.7533 31.3432 16.9289 31.3361C17.0588 31.3309 17.199 31.49 17.2035 31.6479Z"
          fill="currentColor"/>
    <path d="M31.3339 21.1199C31.331 21.2547 31.2014 21.3768 31.0612 21.3774C30.9768 21.3777 30.739 21.1157 30.7422 21.0255C30.7457 20.9252 30.9163 20.7612 31.0116 20.7657C31.1377 20.7719 31.3368 20.9907 31.3339 21.1199Z"
          fill="currentColor"/>
    <path d="M1.16397 10.2894C1.31884 10.3031 1.47244 10.4834 1.47916 10.6182C1.48428 10.7233 1.34956 10.9011 1.24269 10.9297C1.12717 10.961 1.00525 10.8552 0.991495 10.7292C0.978056 10.6078 0.885579 10.4821 1.02605 10.3789C1.07885 10.3402 1.13549 10.3073 1.16397 10.2891V10.2894Z"
          fill="currentColor"/>
    <path d="M27.9264 6.23394C27.9472 6.29384 27.954 6.38304 27.9872 6.39509C28.1216 6.44392 28.1069 6.56209 28.0666 6.62948C28.0263 6.69654 27.9204 6.75383 27.8397 6.75872C27.6976 6.76718 27.5236 6.57348 27.5072 6.42732C27.489 6.26552 27.6538 6.14247 27.8029 6.20334C27.8509 6.22288 27.9047 6.22874 27.9264 6.23394Z"
          fill="currentColor"/>
    <path d="M30.8584 11.708C30.7973 11.6881 30.7445 11.6878 30.7301 11.664C30.6549 11.5387 30.5643 11.4131 30.5339 11.275C30.5221 11.2216 30.659 11.0738 30.7202 11.0787C30.805 11.0852 30.9877 11.0371 30.9765 11.2438C30.9742 11.2832 30.9921 11.344 31.0206 11.361C31.115 11.4179 31.091 11.5062 31.0536 11.5576C31.0046 11.6247 30.9189 11.6637 30.8587 11.708H30.8584Z"
          fill="currentColor"/>
    <path d="M12.1759 1.48737C12.1714 1.34707 12.2953 1.23052 12.4607 1.21913C12.5868 1.21034 12.7199 1.35618 12.7256 1.50951C12.7292 1.60196 12.5522 1.79664 12.4674 1.79403C12.3417 1.79013 12.1801 1.61987 12.1759 1.48737Z"
          fill="currentColor"/>
    <path d="M17.2159 1.23384C17.2098 1.35885 17.0069 1.5698 16.9023 1.56004C16.765 1.54701 16.623 1.38392 16.6882 1.24947C16.7426 1.13781 16.8959 1.0574 17.0223 1.00629C17.1167 0.968203 17.222 1.11046 17.2159 1.23384Z"
          fill="currentColor"/>
    <path d="M1.04909 19.6641C1.11148 19.7321 1.16876 19.7669 1.18348 19.8151C1.243 20.0124 1.11084 20.2562 0.918851 20.2771C0.854854 20.2839 0.763338 20.2087 0.71726 20.1459C0.683981 20.1006 0.595024 20.0212 0.71534 19.9431C0.827975 19.8698 0.923971 19.7705 1.04909 19.6641Z"
          fill="currentColor"/>
    <path d="M8.70692 2.25781C8.73092 2.27279 8.7898 2.28939 8.81348 2.32845C8.87939 2.43621 8.95107 2.54885 8.97667 2.6693C8.98595 2.71292 8.87747 2.81937 8.8106 2.83207C8.7466 2.84411 8.64932 2.78844 8.59876 2.73245C8.54117 2.66865 8.50501 2.57489 8.48549 2.4883C8.46213 2.38542 8.57573 2.26497 8.70692 2.25781Z"
          fill="currentColor"/>
    <path d="M25.1792 3.88078C25.1376 3.95208 25.1146 4.04811 25.0618 4.07025C24.983 4.1028 24.9014 4.22586 24.7946 4.10931C24.7469 4.05723 24.6 4.10183 24.6339 3.97942C24.6672 3.85995 24.6883 3.7115 24.8541 3.6796C24.9184 3.66723 25.0182 3.60147 25.0352 3.62068C25.0973 3.69099 25.1312 3.78703 25.1795 3.88078H25.1792Z"
          fill="currentColor"/>
    <path d="M31.7071 16.0849C31.8812 16.0061 31.9247 16.1523 31.9753 16.2607C32.0674 16.4593 31.8716 16.484 31.7894 16.5618C31.6118 16.4303 31.6915 16.2503 31.7071 16.0849Z"
          fill="currentColor"/>
</svg>
