<svg viewBox="0 0 34 29" fill="none" xmlns="http://www.w3.org/2000/svg">
<g clip-path="url(#clip0_1863_5511)">
<path d="M5.60834 18.5284C4.93501 18.4088 4.25543 18.2963 3.57819 18.1673C2.74473 18.0084 1.88862 17.8927 1.18483 17.364C0.349807 16.737 -0.0852789 15.8936 0.0139238 14.8284C0.0975042 13.9205 0.244356 13.0189 0.313876 12.1102C0.346683 11.6798 0.204518 11.2353 0.246699 10.8073C0.301378 10.2543 0.412297 9.69568 0.584926 9.16857C0.92862 8.12299 1.75271 7.60925 2.72443 7.19149C3.9422 6.66831 5.23652 6.68011 6.49569 6.45431C6.99015 6.36541 7.50491 6.3961 8.00483 6.33158C8.25401 6.29933 8.49225 6.18053 8.73361 6.0932C10.2896 5.5299 11.848 4.97131 13.4001 4.39542C14.0687 4.14759 14.7162 3.84077 15.3865 3.59845C16.1691 3.31522 16.9776 3.10202 17.7548 2.80463C18.4047 2.55523 19.0249 2.22795 19.6592 1.93686C19.7037 1.9164 19.7576 1.91955 19.8053 1.90617C20.281 1.76928 20.759 1.6379 21.2316 1.4892C21.4183 1.4302 21.5925 1.33107 21.7721 1.24689C22.2479 1.02503 22.7079 0.750454 23.2039 0.59232C23.7101 0.431825 24.2499 0.0219336 24.7803 0.550622C24.8998 0.66942 24.9755 0.833062 25.0701 0.977035C25.0841 0.998277 25.0865 1.03683 25.1044 1.04469C25.5411 1.24453 25.445 1.62059 25.4419 1.98878C25.4395 2.36484 25.5129 2.7409 25.5411 3.11775C25.5965 3.85178 25.659 4.58581 25.691 5.32141C25.7199 5.97755 25.7028 6.63526 25.7223 7.29141C25.7512 8.26382 25.8004 9.23623 25.8309 10.2094C25.8668 11.3557 25.8816 12.5028 25.9254 13.649C25.9621 14.6293 26.0363 15.608 26.0738 16.5883C26.1035 17.3593 26.0863 18.1311 26.1175 18.9021C26.1605 19.9603 26.2355 21.0169 26.28 22.0742C26.2902 22.3173 26.2449 22.5644 26.2081 22.8067C26.1144 23.4298 25.327 23.8712 24.6584 23.6611C23.5578 23.3141 22.4658 22.9404 21.3644 22.5966C20.595 22.3559 19.8123 22.1553 19.0421 21.9177C18.2376 21.6699 17.4424 21.3937 16.6402 21.1388C15.5591 20.795 14.4772 20.452 13.3907 20.1255C13.0579 20.0256 12.965 20.1326 12.9868 20.4842C13.0774 21.9562 13.1563 23.429 13.2532 24.901C13.3188 25.8978 13.4516 26.8922 13.4719 27.8898C13.4899 28.7655 13.3751 28.8252 12.4971 28.8677C11.8651 28.8984 11.2324 28.9244 10.6028 28.9857C9.79282 29.0644 9.05856 28.8402 8.36649 28.4547C7.40727 27.9205 6.81986 27.0496 6.29026 26.1165C5.50132 24.7271 5.50054 23.2331 5.59506 21.7005C5.65989 20.6613 5.60756 19.6141 5.60756 18.5308L5.60834 18.5284ZM23.0977 3.36636C22.3424 3.63307 21.6651 3.86673 20.9926 4.1114C19.4834 4.65898 17.9767 5.21284 16.4683 5.76198C15.206 6.22144 13.9453 6.68404 12.6806 7.13642C11.8933 7.41807 11.0957 7.6714 10.313 7.96721C10.1935 8.01206 10.1061 8.20481 10.0529 8.348C10.0147 8.44949 10.0631 8.58166 10.0647 8.69967C10.0725 9.55092 10.0725 10.4022 10.0873 11.2526C10.0959 11.7255 10.1334 12.1967 10.1482 12.6696C10.1904 14.0094 10.2193 15.3492 10.2802 16.6874C10.2865 16.8196 10.4482 17.0092 10.5802 17.0603C11.0973 17.2618 11.6269 17.434 12.1596 17.5883C13.6039 18.006 15.056 18.3986 16.4996 18.8203C17.7087 19.1727 18.9101 19.5512 20.1154 19.9186C20.7887 20.1239 21.462 20.3277 22.1338 20.5362C22.6408 20.6927 23.1454 20.8556 23.6828 21.0255C23.4867 15.0927 23.2938 9.25589 23.0993 3.36636H23.0977ZM7.53303 8.82633C6.9011 8.89793 6.32775 8.94985 5.75831 9.03089C5.39353 9.08281 5.03499 9.23701 4.67255 9.24095C4.20466 9.24645 3.82034 9.44235 3.404 9.59734C3.07046 9.72164 2.89159 9.94586 2.81425 10.2472C2.73067 10.5745 2.68771 10.9183 2.67678 11.2566C2.65881 11.823 2.71193 12.3934 2.67365 12.9575C2.64475 13.3847 2.49634 13.8025 2.44713 14.2304C2.39635 14.6702 2.32918 15.173 2.73692 15.4633C3.03688 15.6765 3.43056 15.7843 3.79847 15.8653C4.79753 16.0856 5.8044 16.2728 6.81049 16.4609C7.12216 16.5191 7.44164 16.5356 7.82595 16.5789C8.01576 15.2343 7.73534 13.9567 7.6955 12.6751C7.65566 11.3903 7.58771 10.1064 7.53225 8.82555L7.53303 8.82633ZM10.7809 26.4855C10.7809 26.2109 10.7903 25.9678 10.7794 25.7255C10.7325 24.6736 10.6763 23.6218 10.6302 22.5699C10.613 22.1734 10.6068 21.7753 10.6052 21.378C10.6028 20.7384 10.6294 20.0979 10.5958 19.4599C10.588 19.3151 10.4099 19.1334 10.2646 19.0532C10.0475 18.9336 9.79282 18.8785 9.54911 18.8148C9.04997 18.6834 8.55005 18.5552 8.04701 18.4442C7.66269 18.3593 7.54396 18.5685 7.5674 18.9226C7.60098 19.43 7.6002 19.9406 7.65332 20.4449C7.78064 21.6581 7.89703 22.8744 8.0845 24.0788C8.20401 24.8451 8.6555 25.4525 9.22338 25.9828C9.62566 26.3588 10.0686 26.5177 10.6021 26.465C10.6388 26.4611 10.6778 26.4729 10.7809 26.4847V26.4855Z" fill="currentColor"/>
<path d="M32.5976 23.749C32.3539 23.6632 32.1023 23.5955 31.868 23.4893C31.1416 23.1605 30.4159 22.8285 29.7027 22.4737C29.2762 22.2612 28.9536 21.941 28.8568 21.4375C28.7591 20.9317 29.227 20.1858 29.7168 20.0426C30.2761 19.8798 30.7619 20.0387 31.2548 20.2936C31.7844 20.5682 32.3218 20.8412 32.8819 21.041C33.5693 21.2865 33.9731 21.8883 33.9981 22.347C34.0302 22.9371 33.3865 23.7521 32.5984 23.7482L32.5976 23.749Z" fill="currentColor"/>
<path d="M33.2241 0.992364C33.228 1.88138 32.9171 2.37309 32.2282 2.6752C31.7345 2.89155 31.2932 3.22828 30.8339 3.52094C30.2473 3.89465 29.6513 4.21878 28.9318 3.91117C28.5616 3.75303 28.2031 2.87582 28.3132 2.4856C28.4811 1.89082 28.9092 1.56039 29.4193 1.28188C29.945 0.994724 30.4714 0.698124 30.9604 0.352745C31.4908 -0.021743 32.3133 -0.181451 32.7687 0.296887C32.9882 0.527401 33.1249 0.837377 33.2241 0.991578V0.992364Z" fill="currentColor"/>
<path d="M33.9491 11.8171C33.9882 12.6692 33.1688 13.3411 32.3494 13.2663C31.7682 13.2128 31.1761 13.2789 30.5887 13.2978C30.0513 13.3151 29.5225 13.3387 29.0515 12.9878C28.5461 12.6125 28.4687 11.5646 28.9335 11.1398C29.3662 10.7448 29.8724 10.6284 30.4489 10.6528C31.03 10.6779 31.619 10.6748 32.1963 10.6079C32.9157 10.5245 33.6702 10.8093 33.8788 11.4545C33.9163 11.5709 33.9272 11.696 33.9507 11.8171H33.9491Z" fill="currentColor"/>
</g>
<defs>
<clipPath id="clip0_1863_5511">
<rect width="34" height="29" fill="white"/>
</clipPath>
</defs>
</svg>
