<svg viewBox="0 0 37 35" fill="none" xmlns="http://www.w3.org/2000/svg">
<path d="M15.6704 33.7088C15.6704 33.7088 15.6881 33.7594 15.7058 33.8107C15.6924 33.7973 15.6789 33.7839 15.6654 33.7705C15.5235 33.9355 15.3824 34.1013 15.2386 34.2648C15.2105 34.2966 15.1728 34.3196 15.139 34.3464C15.0897 34.3851 15.009 34.4153 14.9959 34.4636C14.9105 34.7775 14.5125 34.6133 14.3925 34.8645C14.2018 34.7848 14.0291 35.013 13.8207 34.8863C13.7414 34.838 13.6011 34.8882 13.4888 34.897C13.4215 34.9024 13.3545 34.915 13.2907 34.879C13.1938 34.8671 13.0957 34.8595 12.9996 34.8426C12.8365 34.8143 12.675 34.7783 12.5123 34.75C12.4343 34.7362 12.3547 34.727 12.2754 34.7258C12.027 34.7224 11.7782 34.7186 11.5301 34.7258C11.4475 34.7281 11.3655 34.7618 11.284 34.7837C11.2544 34.7917 11.2244 34.8204 11.1986 34.8158C11.0533 34.789 10.9102 34.7396 10.7641 34.7281C10.5979 34.7147 10.4295 34.7331 10.2622 34.7369C10.1134 34.7404 9.96032 34.7216 9.81688 34.7507C9.48422 34.8177 9.14888 34.6853 8.82853 34.7599C8.60509 34.812 8.39973 34.7144 8.18591 34.7791C8.24783 34.7833 8.30974 34.7871 8.37166 34.7913C8.3705 34.8097 8.36897 34.8281 8.36781 34.8465C8.22514 34.8254 8.08131 34.8093 7.9394 34.7821C7.74942 34.7458 7.5779 34.7331 7.38639 34.8327C7.28063 34.8878 7.10642 34.8097 6.96259 34.7967C6.85568 34.7871 6.74761 34.7909 6.64109 34.7798C6.49764 34.7649 6.35458 34.7415 6.21191 34.7209C6.18691 34.7174 6.16037 34.7029 6.1373 34.7071C5.9777 34.7373 5.86387 34.6803 5.79811 34.5198C5.74503 34.5455 5.7035 34.5658 5.70273 34.5662C5.54852 34.4743 5.42161 34.3908 5.28701 34.3223C5.20587 34.2809 5.19394 34.2426 5.20394 34.1503C5.21471 34.0492 5.16664 33.942 5.14049 33.821C5.09088 33.8528 5.06281 33.8704 5.03204 33.8903C5.12895 33.6124 5.12318 33.602 4.90205 33.6058C4.9359 33.5492 4.9732 33.486 5.0132 33.4182C4.82745 33.3811 4.76169 33.2888 4.76822 33.0851C4.77361 32.9143 4.67746 32.7389 4.6217 32.5674C4.59901 32.4977 4.56017 32.4338 4.53594 32.3645C4.51594 32.3082 4.4771 32.2128 4.49749 32.196C4.65901 32.062 4.56825 31.8958 4.56978 31.7441C4.57363 31.3777 4.57055 31.0109 4.57248 30.6444C4.57401 30.3611 4.58132 30.0777 4.57901 29.7944C4.57901 29.7641 4.52979 29.7343 4.51441 29.717C4.53479 29.6623 4.57209 29.6087 4.57209 29.5547C4.57286 29.3571 4.55979 29.1591 4.55517 28.9616C4.55056 28.7651 4.49479 28.5744 4.55017 28.37C4.59055 28.2206 4.55786 28.0522 4.55786 27.8496C4.52748 27.9055 4.51594 27.9269 4.50402 27.9488C4.49556 27.9465 4.48749 27.9442 4.47903 27.9415C4.49979 27.8844 4.52056 27.8274 4.53979 27.7738C4.51556 27.7738 4.49056 27.7738 4.49672 27.7738C4.49672 27.6911 4.48364 27.6137 4.49902 27.5425C4.54402 27.3373 4.54017 27.1351 4.52864 26.9256C4.51325 26.648 4.55132 26.3681 4.54979 26.089C4.5494 26.0005 4.4971 25.9121 4.46595 25.8156C4.59517 25.6854 4.59517 25.0211 4.45287 24.9215C4.54671 24.8108 4.54979 24.5957 4.49595 24.5731C4.49979 24.4877 4.51018 24.423 4.50441 24.3598C4.49133 24.2131 4.46941 24.0676 4.45287 23.9214C4.45018 23.8965 4.44903 23.8681 4.45787 23.8455C4.57094 23.5534 4.58786 23.2628 4.44749 22.9737C4.58055 22.8994 4.38904 22.835 4.44288 22.7435C4.49287 22.6578 4.50287 22.5398 4.50287 22.4357C4.50287 22.2925 4.46787 22.1493 4.4671 22.0061C4.46672 21.9314 4.50748 21.8567 4.53248 21.7717C4.54363 21.7748 4.51287 21.7664 4.4921 21.7606C4.4921 21.6235 4.48902 21.4895 4.49287 21.3559C4.49864 21.1483 4.5121 20.9408 4.51556 20.7329C4.51633 20.695 4.48595 20.6567 4.47018 20.6184C4.43826 20.5407 4.40711 20.4626 4.37558 20.3848C4.39134 20.3795 4.4075 20.3741 4.42326 20.3687C4.43903 20.3883 4.45441 20.4074 4.47595 20.4342C4.49018 20.4051 4.50287 20.3906 4.49941 20.3841C4.4698 20.3216 4.4671 20.27 4.47518 20.1922C4.50018 19.9537 4.46633 19.7094 4.46403 19.4674C4.46249 19.2821 4.47364 19.0963 4.48056 18.9106C4.48826 18.7031 4.50671 18.4952 4.50018 18.2884C4.49787 18.2103 4.43865 18.1337 4.44634 18.0744C4.46749 18.0119 4.50364 17.9503 4.50595 17.8871C4.51094 17.7654 4.50441 17.6417 4.48749 17.5211C4.47787 17.4537 4.43788 17.3905 4.40096 17.299C4.4025 17.2959 4.42019 17.2557 4.45557 17.1768C4.37288 17.1841 4.29597 17.1676 4.25521 17.1987C4.07484 17.3346 3.88025 17.4449 3.7941 17.6899C3.74103 17.8412 3.5749 17.953 3.4603 18.0828C3.42761 18.1199 3.39761 18.159 3.33454 18.2356C3.31531 18.2543 3.26378 18.3125 3.20417 18.3608C3.05457 18.4818 2.90228 18.5989 2.74961 18.7161C2.48079 18.9229 2.1766 19.0282 1.8374 18.9937C1.74895 18.9845 1.66742 18.9095 1.57397 18.8601C1.39784 18.9646 1.35592 18.9436 1.20248 18.7693C1.15556 18.7161 1.03404 18.7288 0.918664 18.7054C0.805984 18.5855 0.656771 18.4412 0.524478 18.2823C0.38411 18.1138 0.337192 17.8772 0.129908 17.752C0.0991421 17.7332 0.0160747 17.6221 0.157212 17.5854C0.15952 17.585 0.151444 17.4946 0.128754 17.4583C0.0191512 17.2798 -0.022767 17.1022 0.0118444 16.8839C0.0341495 16.7438 0.1276 16.6009 0.0529935 16.439C0.0345341 16.3988 0.109141 16.295 0.164135 16.246C0.314118 16.1116 0.476791 15.9913 0.632927 15.8638C0.662155 15.8401 0.699458 15.8087 0.704457 15.7765C0.723686 15.6559 0.817906 15.6467 0.904819 15.5993C1.04096 15.525 1.14941 15.4013 1.27132 15.3013C1.34554 15.2405 1.43245 15.193 1.49783 15.1248C1.65166 14.9648 1.78703 14.786 1.94662 14.6324C2.22198 14.3678 2.50771 14.1136 2.79383 13.8605C2.96997 13.7046 3.16264 13.5675 3.33416 13.4071C3.51606 13.2367 3.67258 13.0391 3.85602 12.8707C4.12368 12.6241 4.40865 12.3962 4.68016 12.1535C4.81168 12.0359 4.92705 11.9004 5.05358 11.7763C5.24894 11.5849 5.44622 11.3953 5.64543 11.2077C5.82233 11.0407 6.00308 10.8772 6.18229 10.7126C6.4265 10.4882 6.67262 10.2657 6.9149 10.0394C7.23102 9.74384 7.54252 9.44326 7.85979 9.1488C8.13169 8.89646 8.4055 8.64566 8.68547 8.40175C8.83699 8.27003 9.00735 8.15975 9.16003 8.02918C9.25386 7.94915 9.32616 7.84538 9.41577 7.76C9.80573 7.39049 10.1949 7.02022 10.5914 6.65799C10.7795 6.48606 10.9871 6.33558 11.1786 6.1671C11.2348 6.11771 11.2548 6.02772 11.3098 5.97603C11.5574 5.74437 11.8113 5.51846 12.0643 5.29254C12.2451 5.13096 12.4339 4.97818 12.6085 4.81084C12.7923 4.63509 12.9592 4.44211 13.1423 4.2652C13.2792 4.1331 13.4299 4.01555 13.5734 3.89034C13.6668 3.80916 13.7568 3.72339 13.8518 3.64413C14.0656 3.46531 14.2829 3.29109 14.4952 3.11074C14.5383 3.07436 14.5609 3.01539 14.6017 2.97519C14.8809 2.70026 15.1597 2.42495 15.4439 2.15462C15.6293 1.97848 15.8247 1.81268 16.0119 1.63884C16.2104 1.45466 16.4019 1.26321 16.6019 1.08056C16.7995 0.900215 17.0507 0.75739 17.1922 0.542196C17.3341 0.32662 17.5656 0.292924 17.7417 0.162353C17.8644 0.0712207 18.0798 -0.000765813 18.2813 0.0911319C18.329 0.112958 18.4174 0.0463318 18.484 0C18.5443 0.0585848 18.6151 0.154694 18.692 0.037142C18.8308 0.0964926 18.9731 0.21596 19.0916 0.196048C19.3419 0.153929 19.495 0.310538 19.6877 0.389799C19.7923 0.432685 19.9188 0.433451 20.013 0.490121C20.3553 0.695359 20.7029 0.892174 20.9125 1.26206C20.9764 1.37464 21.139 1.42786 21.2444 1.52167C21.434 1.69092 21.589 1.91683 21.8047 2.03592C22.2132 2.26183 22.3908 2.72898 22.8189 2.92847C22.9523 2.9905 23.0488 3.13295 23.1607 3.24016C23.368 3.43851 23.5711 3.64068 23.7814 3.83558C24.0941 4.12506 24.4098 4.41109 24.7271 4.69521C24.9425 4.88781 25.1686 5.06892 25.3805 5.26536C25.5862 5.45566 25.7781 5.6609 25.98 5.85503C26.0592 5.93123 26.1535 5.99135 26.2342 6.06563C26.4407 6.25632 26.6407 6.4539 26.8484 6.64267C27.0041 6.78435 27.1714 6.91339 27.3279 7.0543C27.6306 7.32616 27.9229 7.61066 28.2332 7.8741C28.4044 8.01961 28.5247 8.22714 28.7536 8.3064C28.7824 8.31636 28.7959 8.36461 28.822 8.38873C29.1316 8.67514 29.4477 8.95505 29.7507 9.24797C29.9096 9.40152 30.058 9.56923 30.1895 9.74652C30.2972 9.89126 30.4272 10.0046 30.5557 10.1275C30.7156 10.2807 30.8202 10.489 30.9645 10.6605C31.1021 10.8244 31.2687 10.9649 31.4071 11.128C31.7028 11.4769 31.984 11.8383 32.2816 12.1853C32.3935 12.3158 32.5504 12.4081 32.6616 12.5391C32.9185 12.8416 33.1496 13.1655 33.4103 13.4642C33.6407 13.728 33.9118 13.9573 34.1345 14.2269C34.2368 14.3506 34.3971 14.4444 34.4214 14.6267C34.4321 14.7063 34.5198 14.6627 34.5714 14.7343C34.7867 15.0333 35.049 15.2994 35.2982 15.5736C35.5159 15.8133 35.7412 16.0457 35.9593 16.2847C36.1831 16.5305 36.4023 16.7809 36.6234 17.0294C36.6273 17.034 36.6288 17.0459 36.6311 17.0459C36.9142 17.0459 36.8526 17.2974 36.9319 17.4564C36.8172 17.4981 36.828 17.5509 36.8957 17.6444C37.0388 17.8419 37.0299 18.1115 36.8849 18.2321C36.9122 18.2551 36.9372 18.2762 36.9369 18.2762C36.9326 18.365 36.9492 18.4465 36.9199 18.5059C36.8865 18.5744 36.8073 18.6192 36.7576 18.682C36.7296 18.7173 36.6965 18.7755 36.7076 18.8103C36.7565 18.9635 36.6869 19.0443 36.5696 19.1312C36.5 19.1825 36.3527 19.2323 36.45 19.3854C36.2715 19.3919 36.1089 19.4122 35.9912 19.5765C35.9535 19.629 35.8385 19.6324 35.7574 19.6477C35.5766 19.6818 35.3909 19.6971 35.2144 19.7454C35.144 19.7645 35.0924 19.8511 35.0159 19.9219C34.9775 19.8851 34.9328 19.8426 34.8879 19.7997C34.8986 19.7745 34.9094 19.7492 34.9198 19.7239C34.8248 19.7373 34.7302 19.7511 34.6352 19.7637C34.6098 19.7672 34.5787 19.7764 34.5594 19.766C34.3329 19.6412 34.1095 19.5114 33.883 19.3862C33.7038 19.2874 33.5157 19.2028 33.3438 19.0933C33.263 19.042 33.2173 18.939 33.1438 18.8723C33.0946 18.8275 33.0242 18.805 32.9635 18.7728C32.9412 18.8214 32.9012 18.8693 32.8988 18.9187C32.8727 19.4494 32.85 19.9801 32.8319 20.5112C32.8266 20.667 32.8435 20.824 32.8404 20.9802C32.8381 21.1101 32.8208 21.2395 32.8116 21.3693C32.7931 21.6262 32.7796 21.8835 32.7569 22.1405C32.7327 22.4123 32.6866 22.683 32.6735 22.9553C32.6589 23.257 32.6735 23.5603 32.6696 23.8628C32.6681 23.9792 32.6458 24.0952 32.6408 24.212C32.6316 24.4406 32.6373 24.6703 32.6197 24.8981C32.5723 25.5169 32.5131 26.1346 32.4654 26.7533C32.4539 26.9019 32.4762 27.0528 32.467 27.2017C32.4539 27.4138 32.4162 27.6248 32.4066 27.837C32.3931 28.1245 32.4043 28.4132 32.3901 28.7008C32.3758 28.9945 32.3401 29.2866 32.3201 29.58C32.3074 29.7706 32.3101 29.9621 32.2997 30.1528C32.2824 30.4652 32.3401 30.7811 32.2382 31.0913C32.2074 31.1851 32.2478 31.3011 32.247 31.4064C32.2451 31.6825 32.2485 31.959 32.2297 32.2343C32.2189 32.389 32.1466 32.5406 32.1428 32.6941C32.1397 32.8201 32.0793 32.8913 32.014 32.9806C31.9486 33.0698 31.9136 33.1808 31.8644 33.2823C31.8278 33.3581 31.7598 33.4335 31.7601 33.5093C31.7601 33.6437 31.7663 33.8011 31.8351 33.9064C31.9105 34.0217 31.8947 34.0849 31.8151 34.1626C31.6805 34.2947 31.5425 34.4233 31.429 34.5313C31.2933 34.5428 31.1621 34.5535 31.0314 34.5646C31.0329 34.5723 31.0341 34.5796 31.0356 34.5872C30.9833 34.5872 30.931 34.5834 30.8791 34.588C30.7006 34.6041 30.5222 34.6182 30.3449 34.6424C30.1599 34.6676 29.9776 34.7174 29.7923 34.7301C29.6969 34.7366 29.5973 34.686 29.5131 34.6209C29.4666 34.6389 29.4212 34.6638 29.3731 34.6734C29.3189 34.6845 29.2604 34.6749 29.2062 34.6868C29.1124 34.7071 29.0343 34.7381 28.9258 34.6856C28.8416 34.6451 28.7136 34.699 28.6047 34.7036C28.2544 34.7182 27.904 34.7274 27.5541 34.7427C27.273 34.7549 26.9922 34.7775 26.7111 34.7879C26.3415 34.8017 25.9716 34.807 25.602 34.817C25.4685 34.8204 25.3347 34.8315 25.2017 34.8296C25.1324 34.8285 25.064 34.807 24.9855 34.7932C24.9817 34.7997 24.9659 34.8568 24.9432 34.8599C24.869 34.8694 24.7913 34.8645 24.7163 34.856C24.506 34.8319 24.3045 34.8767 24.0979 34.9062C23.9206 34.9315 23.7334 34.8775 23.5507 34.879C23.4065 34.8802 23.263 34.9142 23.1188 34.9307C23.0546 34.938 22.9896 34.9372 22.925 34.9414C22.6008 34.9617 22.277 34.9858 21.9528 35C21.8901 35.0027 21.8263 34.9598 21.7617 34.9537C21.5148 34.9299 21.2679 34.9077 21.0202 34.8943C20.8675 34.8859 20.716 34.8905 20.631 34.7281C20.6218 34.7105 20.5895 34.6918 20.5706 34.6941C20.3437 34.7209 20.2353 34.4869 20.0546 34.4521C19.7869 34.4008 19.6873 34.1783 19.5158 34.029C19.5073 34.0217 19.4915 34.0228 19.4788 34.0198C19.5285 33.831 19.3019 33.7127 19.3204 33.584C19.3492 33.3815 19.2331 33.2222 19.2435 33.0388C19.2558 32.8209 19.2758 32.6034 19.295 32.3859C19.3043 32.2837 19.3193 32.1822 19.3319 32.0807C19.3342 32.062 19.3308 32.0332 19.3416 32.026C19.4969 31.9233 19.4769 31.753 19.4581 31.6189C19.4396 31.4907 19.5819 31.344 19.4196 31.2345C19.6031 31.1472 19.3681 31.017 19.4589 30.888C19.5285 30.7892 19.4888 30.6127 19.4931 30.4706C19.4996 30.2504 19.5004 30.0303 19.5069 29.8105C19.52 29.374 19.5358 28.9378 19.5485 28.5013C19.5527 28.3554 19.5511 28.2095 19.5511 28.0636C19.5511 27.7512 19.5511 27.4387 19.5511 27.1125C19.5292 27.1071 19.4862 27.0964 19.4792 27.0949C19.67 26.6947 19.5742 26.2942 19.5515 25.8903C19.5369 25.8841 19.5585 25.8929 19.5961 25.9086C19.6138 25.6643 19.6377 25.4235 19.6431 25.1823C19.6442 25.1275 19.5819 25.0716 19.5385 24.9985C19.6796 24.6558 19.7057 23.6736 19.5781 23.5208C19.7746 23.3298 19.5592 23.0912 19.6458 22.8925L19.6111 22.9809C19.5985 22.9748 19.5858 22.9691 19.5731 22.9629C19.605 22.9024 19.6515 22.8454 19.6658 22.7811C19.6892 22.6738 19.6984 22.5624 19.7027 22.4525C19.7104 22.2488 19.73 22.0428 19.7077 21.8418C19.6731 21.5297 19.51 21.4413 19.2004 21.5209C19.1316 21.5385 19.0539 21.5236 18.9508 21.5236C18.8374 21.7472 18.6316 21.5236 18.4574 21.5768V21.6748C18.4155 21.6239 18.3844 21.586 18.3682 21.5669C18.2609 21.5879 18.1652 21.6071 18.059 21.6281C18.0675 21.6388 18.0832 21.6588 18.1267 21.7139C17.5241 21.5332 16.958 21.7212 16.3765 21.7518V21.8563C16.3307 21.8069 16.3011 21.7752 16.2827 21.7549C16.0577 21.8586 15.8712 21.9842 16.12 22.258C16.0719 22.2706 16.0358 22.2798 15.98 22.2944C16.1292 22.3928 16.0312 22.4904 16.0123 22.6042C15.9727 22.8442 15.9204 23.0947 16.0304 23.3355C16.0346 23.3451 16.02 23.3627 16.0154 23.3772C15.9866 23.4657 15.8789 23.5653 16.0535 23.6296C16.0619 23.6326 16.0246 23.7494 16.0142 23.8141C15.9631 24.1339 15.9773 24.4544 15.9877 24.7764C15.9962 25.0391 15.9723 25.3029 15.9704 25.5663C15.9696 25.6555 16.0331 25.7685 15.9969 25.8294C15.9085 25.9779 16.0369 26.1127 15.9796 26.272C15.93 26.4103 16.035 26.6036 16.0727 26.7725C16.0758 26.787 16.0846 26.8004 16.1135 26.8663C16.0473 26.8108 16.0239 26.7912 15.9727 26.7484C15.9858 26.8877 16.0004 27.0118 16.0081 27.1362C16.0112 27.1845 16.0027 27.2343 15.9931 27.2821C15.8943 27.7684 15.9516 28.2589 15.9477 28.7479C15.9454 29.0014 15.9123 29.2545 15.9077 29.508C15.9035 29.7557 15.9189 30.0042 15.9243 30.2523C15.9289 30.4767 15.8981 30.7088 15.9473 30.9228C15.9777 31.0553 16.0604 31.1813 16.0023 31.3153C15.9404 31.4585 15.9181 31.5986 15.9235 31.753C15.9296 31.9398 15.9104 32.1274 15.9077 32.3151C15.905 32.5253 15.9216 32.7363 15.9062 32.9453C15.8939 33.1142 15.855 33.2827 15.8112 33.4466C15.7893 33.5277 15.7293 33.5989 15.667 33.71L15.6704 33.7088ZM25.98 10.461C25.7789 10.2657 25.5843 10.0697 25.3813 9.88321C25.2924 9.80127 25.187 9.73656 25.0867 9.66764C25.0317 9.62973 24.939 9.61173 24.9205 9.5631C24.8663 9.41951 24.7671 9.33183 24.6502 9.24108C24.4802 9.10936 24.3306 8.95084 24.1706 8.8061C23.9449 8.60163 23.7191 8.39715 23.4892 8.19689C23.4176 8.13486 23.3238 8.09657 23.258 8.03033C23.1803 7.95221 23.1334 7.84309 23.0538 7.76804C22.7689 7.49962 22.4774 7.23848 22.1843 6.97925C22.1409 6.94096 22.0743 6.9287 22.0063 6.89922C21.9816 6.86476 21.9516 6.8012 21.9032 6.75908C21.7955 6.66526 21.6474 6.60285 21.5728 6.49028C21.4559 6.31452 21.2721 6.2322 21.1294 6.09626C21.1206 6.08784 21.1187 6.07252 21.1098 6.0641C21.0044 5.96493 20.8987 5.86614 20.7922 5.76811C20.7768 5.75394 20.7583 5.74322 20.7402 5.7325C20.7091 5.71412 20.6772 5.69727 20.6318 5.67239C20.6229 5.64865 20.6172 5.57934 20.5799 5.54258C20.3164 5.28259 20.0492 5.02604 19.7777 4.77409C19.5915 4.60139 19.3789 4.45359 19.2112 4.26558C19.0539 4.08868 18.8489 4.01133 18.6516 3.91101C18.632 3.90106 18.589 3.91752 18.5666 3.93475C18.5086 3.97955 18.4497 4.02589 18.4036 4.08217C18.3617 4.13348 18.3367 4.19819 18.304 4.25678C18.124 4.38735 17.9498 4.54013 17.7787 4.69597C17.7533 4.71895 17.744 4.78251 17.7233 4.78481C17.4952 4.80702 17.4356 5.03178 17.2833 5.14551C17.0922 5.28833 16.9388 5.48055 16.7611 5.6429C16.4434 5.93276 16.1185 6.21458 15.8 6.50368C15.6727 6.61932 15.5743 6.78626 15.4274 6.85557C15.2705 6.92947 15.1824 7.04013 15.1443 7.17606C15.0993 7.33612 15.034 7.28174 14.9424 7.20937C14.8867 7.48622 14.5263 7.5203 14.5198 7.8136C14.379 7.77263 13.951 8.15975 13.8633 8.3826C13.7891 8.40634 13.721 8.43468 13.6741 8.48254C13.5795 8.57942 13.5053 8.69735 13.4049 8.78772C13.2976 8.88421 13.1703 8.9585 13.0527 9.04427C13.0327 9.05882 13.0169 9.08064 13.0027 9.1017C12.9757 9.14114 12.9515 9.1825 12.905 9.25716C12.8958 9.24299 12.9177 9.27631 12.9361 9.30426C12.8823 9.33719 12.8411 9.37739 12.7927 9.39003C12.6008 9.43981 12.4489 9.51601 12.4523 9.75149C12.4523 9.77485 12.3408 9.82616 12.3351 9.81927C12.2516 9.72086 12.2058 9.81927 12.1743 9.85794C12.1085 9.93912 12.0816 10.0735 12.0012 10.1168C11.8266 10.2102 11.6574 10.3056 11.5213 10.4492C11.3982 10.5793 11.2786 10.7134 11.1683 10.8543C11.1163 10.9201 11.0894 11.0055 11.0267 11.1319C11.0094 11.043 11.0037 11.0143 10.9956 10.9714C10.9514 11.0028 10.8744 11.04 10.8787 11.0576C10.9106 11.192 10.6295 11.1372 10.7341 11.3038C10.5268 11.313 10.451 11.4868 10.328 11.6101C10.1599 11.7782 9.96148 11.9157 9.78688 12.078C9.75188 12.1106 9.60921 12.1485 9.72996 12.2484C9.65497 12.2909 9.5796 12.3334 9.49268 12.3828C9.49307 12.3851 9.50114 12.423 9.50922 12.4621C9.26002 12.4874 8.92775 12.8136 8.94505 13.0054C8.77161 12.9744 8.62009 13.0901 8.64932 13.2049C8.59509 13.231 8.5451 13.2539 8.49587 13.2788C8.28782 13.3849 8.19322 13.6158 7.98516 13.7295C7.84787 13.8046 7.80826 13.942 7.85402 14.1086C7.88941 14.2376 7.88864 14.3774 7.8971 14.5129C7.90363 14.6198 7.90402 14.7274 7.89864 14.8346C7.89094 14.9923 7.8621 15.1505 7.86633 15.3079C7.87325 15.561 7.90556 15.8133 7.91594 16.0664C7.92902 16.3884 7.9344 16.7108 7.93671 17.0329C7.94094 17.5973 7.94478 18.1617 7.93978 18.7261C7.93709 19.0247 7.91556 19.3234 7.90325 19.6221C7.8994 19.7113 7.85787 19.8365 7.90094 19.8832C8.02593 20.0188 7.9244 20.1581 7.94017 20.2914C7.96094 20.466 7.92709 20.646 7.92709 20.8236C7.92709 21.0005 7.94517 21.1771 7.94401 21.354C7.94248 21.5875 7.92094 21.8215 7.92556 22.0547C7.92902 22.2389 7.97478 22.4227 7.9744 22.6065C7.97363 23.1058 7.95863 23.6047 7.9494 24.104C7.94748 24.2124 7.94401 24.3207 7.94594 24.4291C7.94863 24.5987 7.96017 24.7687 7.95863 24.9384C7.95747 25.0816 7.92017 25.2286 7.94094 25.3676C7.97516 25.5927 8.00439 25.8102 7.9917 26.0434C7.96555 26.5198 7.99362 26.9992 7.99324 27.4774C7.99324 27.6987 7.96555 27.9201 7.97247 28.1406C7.98824 28.6411 8.03131 29.1411 8.0367 29.6416C8.04131 30.0724 8.00401 30.5031 7.99593 30.9343C7.99324 31.0664 8.02593 31.1993 8.04323 31.3406C8.11899 31.3229 8.16668 31.3015 8.21437 31.3027C8.52049 31.3099 8.82622 31.326 9.13234 31.3321C9.49961 31.3394 9.86687 31.3398 10.2341 31.3432C10.3634 31.3444 10.516 31.3892 10.6164 31.3364C10.8045 31.2372 10.9914 31.3 11.176 31.2801C11.4013 31.2556 11.6324 31.2701 11.8601 31.285C12.3327 31.3161 12.6192 30.8646 12.5381 30.4304C12.4766 30.1026 12.4439 29.7477 12.57 29.4122C12.5793 29.3877 12.5746 29.3552 12.5693 29.328C12.5443 29.1967 12.4958 29.0657 12.4958 28.9348C12.4958 28.7261 12.5281 28.5174 12.5454 28.3083C12.5477 28.2785 12.5427 28.2482 12.5427 28.218C12.5416 28.0851 12.5608 27.9484 12.535 27.8205C12.4996 27.6463 12.6158 27.4931 12.535 27.2959C12.4577 27.1083 12.5204 26.8628 12.5262 26.6427C12.535 26.2969 12.55 25.9511 12.5577 25.6054C12.56 25.5035 12.5389 25.4009 12.5423 25.2987C12.5493 25.0904 12.5758 24.8825 12.5758 24.6742C12.5758 24.2009 12.5577 23.7276 12.56 23.2543C12.5616 22.8936 12.5827 22.5326 12.5966 22.1719C12.6016 22.0443 12.6227 21.9165 12.6166 21.7897C12.6058 21.5695 12.5612 21.3501 12.565 21.1307C12.57 20.8455 12.6093 20.561 12.6331 20.2765C12.6408 20.1838 12.6146 20.072 12.7108 20.0735C12.7315 19.99 12.7377 19.9257 12.7642 19.8717C12.785 19.8296 12.8477 19.8059 12.8631 19.7637C12.9377 19.5616 12.9865 19.3418 13.2638 19.3242C13.2696 19.3242 13.2792 19.32 13.2803 19.3157C13.3276 19.1442 13.5149 19.0986 13.6022 18.9616C13.6364 18.9076 13.6907 18.8628 13.7434 18.8241C13.8726 18.7303 14.0068 18.6437 14.1372 18.5522C14.1572 18.5381 14.1668 18.4948 14.1841 18.4933C14.3914 18.4737 14.599 18.458 14.8067 18.4443C15.0094 18.4309 15.2136 18.4282 15.4155 18.4071C15.7516 18.3715 16.0858 18.311 16.4227 18.2865C16.9307 18.2497 17.441 18.2448 17.9494 18.208C18.4559 18.1712 18.9601 18.1081 19.4658 18.0633C19.8392 18.0303 20.2134 17.9959 20.5876 17.9863C20.8748 17.979 21.164 18.0257 21.4509 18.0158C21.6005 18.0108 21.7274 18.0353 21.8474 18.11C21.9451 18.1709 22.0574 18.2421 22.1451 18.2781C22.3497 18.3627 22.5058 18.4374 22.562 18.6717C22.5808 18.7506 22.6846 18.8095 22.7819 18.911C22.7496 19.1262 22.9658 19.7032 23.1557 19.7829C23.1557 20.0502 23.1519 20.3243 23.1569 20.5981C23.1603 20.788 23.19 20.9783 23.1838 21.1675C23.1711 21.5492 23.1392 21.9302 23.1211 22.312C23.1088 22.5766 23.1054 22.8416 23.1 23.1061C23.0931 23.4469 23.0507 23.7923 23.0938 24.127C23.1327 24.4314 23.0481 24.7193 23.0634 25.0169C23.0765 25.2688 23.0461 25.5231 23.0434 25.7762C23.0419 25.9278 23.0884 26.0859 23.0577 26.2295C22.9911 26.5424 22.9765 26.851 23.015 27.1676C23.0331 27.3166 23.0273 27.4701 23.0154 27.6206C23.0034 27.7719 22.9569 27.9212 22.9504 28.0721C22.9369 28.373 22.9423 28.6748 22.9369 28.9757C22.9331 29.189 22.9161 29.4019 22.9204 29.6148C22.9231 29.7592 22.96 29.9024 22.9669 30.0467C22.9719 30.1562 22.9561 30.2669 22.9458 30.3764C22.9377 30.461 22.9185 30.5445 22.9131 30.6291C22.9038 30.7808 22.9092 30.9335 22.8935 31.0844C22.8758 31.2525 22.9542 31.4692 23.0588 31.4826C23.1669 31.496 23.2773 31.5048 23.3857 31.4999C23.9041 31.4761 24.4221 31.4409 24.9405 31.4221C25.452 31.4034 25.9643 31.4026 26.4761 31.3877C26.7669 31.3792 27.0572 31.3605 27.3476 31.3432C27.6237 31.3268 27.8917 31.2812 28.1771 31.3432C28.3774 31.3865 28.6051 31.3065 28.8343 31.2801C28.8543 30.4009 28.9739 29.5172 28.9343 28.6032C28.9382 28.5963 28.9797 28.553 28.9847 28.5059C28.9997 28.36 28.9981 28.2122 29.0089 28.0656C29.0139 27.997 29.0412 27.9296 29.0416 27.8619C29.0428 27.6922 29.0243 27.5218 29.0328 27.3526C29.0404 27.2025 29.0885 27.0535 29.0927 26.9038C29.1001 26.6339 29.0901 26.3632 29.0804 26.0928C29.0789 26.0438 29.0454 25.9963 29.0216 25.9339C29.032 25.9052 29.0651 25.8466 29.0728 25.7853C29.0808 25.7203 29.0331 25.6203 29.0639 25.5908C29.215 25.4453 29.0985 25.2684 29.1393 25.1118C29.1843 24.9384 29.1524 24.7565 29.1797 24.5746C29.2385 24.1829 29.2385 23.7824 29.2631 23.3753C29.2308 23.3918 29.2085 23.4029 29.1804 23.4171C29.3039 23.2352 29.3316 22.1738 29.2562 22.114C29.4043 21.7625 29.4139 21.4194 29.3093 21.0672C29.3216 21.1265 29.3339 21.1859 29.3462 21.2452C29.3546 21.2433 29.3631 21.241 29.3716 21.2391C29.4231 20.2952 29.4742 19.3514 29.5265 18.3918C29.4996 18.4132 29.4773 18.4308 29.4504 18.4523C29.4485 18.424 29.4469 18.4002 29.4454 18.3765C29.6292 18.3669 29.5277 18.2317 29.5408 18.1502C29.5435 18.1337 29.4796 18.1088 29.4812 18.0901C29.4915 17.9315 29.5042 17.773 29.5281 17.616C29.5508 17.4648 29.6073 17.3166 29.6123 17.1657C29.6169 17.0286 29.5719 16.89 29.5535 16.7775C29.5808 16.7024 29.6161 16.6419 29.6235 16.5787C29.64 16.4321 29.6388 16.2831 29.6523 16.1361C29.6704 15.9335 29.7023 15.7317 29.7154 15.5288C29.7331 15.2554 29.7227 14.9793 29.7534 14.7078C29.7807 14.4655 29.6358 14.1235 29.3481 14.0849C29.3558 14.0546 29.3804 14.0113 29.3685 13.996C29.2577 13.8528 29.1435 13.7123 29.0247 13.5756C28.9851 13.5304 28.9205 13.5063 28.8816 13.4607C28.7589 13.3175 28.6532 13.159 28.5224 13.0242C28.3751 12.8722 28.1405 12.768 28.0644 12.5919C27.946 12.3185 27.7075 12.1696 27.5552 11.9448C27.4625 11.8077 27.3399 11.7001 27.2353 11.5829C27.053 11.3792 26.8153 11.2199 26.5853 11.0652C26.4554 10.9779 26.3419 10.9136 26.4054 10.7149C26.3788 10.7566 26.3519 10.7984 26.3173 10.8524C26.2481 10.6498 26.18 10.4691 25.9043 10.5713C25.9377 10.5238 25.9577 10.4955 25.9823 10.461H25.98Z" fill="currentColor"/>
</svg>
