<svg viewBox="0 0 32 32" fill="none" xmlns="http://www.w3.org/2000/svg">
<path d="M6.48864 9.50738L9.00739 8.738C9.84051 8.48175 10.7236 8.95238 10.9799 9.78675C11.2343 10.6211 10.7655 11.503 9.93114 11.7593L3.88989 13.6068C3.05551 13.8611 2.17176 13.3924 1.91739 12.558V12.5568L0.0698861 6.51488C-0.186364 5.6805 0.284261 4.79675 1.11864 4.54238C1.95301 4.288 2.83489 4.75675 3.09114 5.59113L3.78489 7.86738C7.58801 2.0105 15.133 -0.510123 21.8293 2.2355C25.8836 3.898 28.9961 7.26925 30.3274 11.4443C30.6068 12.2693 30.1636 13.1668 29.3386 13.4474C28.5118 13.7268 27.6161 13.2836 27.3355 12.4586L27.3186 12.403C25.3643 6.26988 18.808 2.88175 12.6749 4.83425C10.1411 5.64113 7.95864 7.29113 6.49051 9.50738H6.48864ZM25.9568 22.4499L23.1543 23.1499C22.3124 23.3799 21.4436 22.8849 21.2124 22.0443C20.9824 21.2036 21.4774 20.3336 22.318 20.1043L22.3893 20.0855L28.1418 18.6499C28.4424 18.508 28.7786 18.463 29.1055 18.5236C29.7486 18.6086 30.2761 19.0786 30.4318 19.708L31.9599 25.8368C32.1524 26.6868 31.6174 27.5318 30.7661 27.723C29.9424 27.9099 29.1205 27.4143 28.8968 26.6005L28.3755 24.5124C23.7061 31.2311 14.4743 32.8943 7.75614 28.2243C5.40864 26.5943 3.58426 24.3205 2.50176 21.6755L2.08989 20.6749C1.75989 19.868 2.14676 18.9461 2.95364 18.6143C3.76051 18.2843 4.68426 18.6711 5.01426 19.478L5.42426 20.4774C7.86551 26.4349 14.673 29.2855 20.6311 26.8436C22.8086 25.9505 24.6655 24.4193 25.9568 22.4511V22.4499Z" fill="currentColor"/>
</svg>
