<svg viewBox="0 0 18 22" fill="none" xmlns="http://www.w3.org/2000/svg">
<path d="M9.49995 16.0001C11.7049 16.0001 13.4999 14.2051 13.4999 12.0001V3.99995C13.4999 1.79499 11.7049 0 9.49995 0C7.29499 0 5.5 1.79499 5.5 3.99995V12.0001C5.5 14.2051 7.29499 16.0001 9.49995 16.0001ZM6.49994 4.00004C6.49994 2.34502 7.84493 1.00003 9.49995 1.00003C11.155 1.00003 12.5 2.34502 12.5 4.00004V12.0002C12.5 13.6552 11.155 15.0002 9.49995 15.0002C7.84493 15.0002 6.49994 13.6552 6.49994 12.0002V4.00004Z" fill="currentColor"/>
<path d="M15.9996 12H14.9997C14.9997 15.035 12.5347 17.4999 9.49981 17.4999C6.46492 17.4999 3.99994 15.0349 3.99994 12H3C3 15.415 5.64995 18.2199 9.00001 18.4749L8.99968 20.9999H5.49961V21.9999H13.4998V20.9999H9.99971V18.4749C13.3498 18.2199 15.9997 15.4149 15.9997 12H15.9996Z" fill="currentColor"/>
<path d="M1 21L17 1" stroke="currentColor"/>
</svg>
