<svg viewBox="0 0 12 32" fill="none" xmlns="http://www.w3.org/2000/svg">
<path d="M3.77773 11.0356C2.51019 8.73388 0.231791 3.87159 1.2585 2.83584C1.98331 2.10464 3.09801 4.04955 3.42578 5.34622C3.00143 3.57868 2.49398 0.15748 3.73016 0.00631989C4.98502 -0.147125 5.48886 2.53177 5.58393 3.8904C5.63146 3.52291 5.86912 2.81671 6.43952 2.93179C7.15251 3.07565 7.53277 7.19949 7.05744 10.4602C7.96056 10.5561 8.70429 12.7782 9.14888 17.7968C9.60341 22.9276 10.8125 31.6069 9.14888 31.9905C7.48523 32.3741 4.06296 21.0575 3.77773 19.3312C3.49249 17.605 2.06659 12.4261 3.77773 11.0356Z" fill="black"/>
</svg>
