<svg viewBox="0 0 32 32" fill="none" xmlns="http://www.w3.org/2000/svg">
    <path d="M9.58409 6.11824C9.46972 6.2208 9.36709 6.34075 9.23755 6.42026C9.13175 6.48536 9.03993 6.51396 8.99189 6.65903C8.94534 6.80083 8.77429 6.9031 8.67014 7.03102C8.23173 7.57024 7.77317 8.09669 7.36865 8.65858C6.85643 9.37039 6.4853 10.1556 6.18549 10.9692C6.20217 10.9853 6.21836 11.0013 6.23503 11.0173C6.33895 10.9348 6.43553 10.842 6.54777 10.7728C6.69164 10.6839 6.84726 10.6121 6.99945 10.5364C7.46293 10.3062 7.93375 10.0888 8.38942 9.84493C8.76156 9.6457 9.11318 9.41168 9.48092 9.20445C9.55606 9.16217 9.66201 9.16505 9.75423 9.15566C10.1877 9.11096 10.5881 8.9803 10.9574 8.75855C11.0459 8.70556 11.4443 8.88145 11.5146 9.01306C11.5707 9.11928 11.5863 9.26092 11.7653 9.14837C11.8587 9.29322 11.9635 9.43249 12.0426 9.58429C12.1114 9.71635 12.1723 9.85916 12.1962 10.0032C12.2154 10.1195 12.218 10.2756 12.1516 10.3601C11.9854 10.5721 11.7868 10.7661 11.5769 10.9409C11.5076 10.9987 11.3643 10.982 11.2543 10.9885C11.0635 10.9997 10.9609 11.2144 10.7481 11.1819C10.7284 11.179 10.6935 11.2674 10.6652 11.3132C10.6423 11.3506 10.6272 11.4105 10.5936 11.4216C10.1769 11.5625 9.86096 11.8637 9.46623 12.0459C8.85461 12.3284 8.27619 12.6761 7.68263 12.9947C7.61937 13.0286 7.54976 13.0512 7.48504 13.0828C6.93562 13.3463 6.39303 13.6248 5.83434 13.87C5.44608 14.0405 5.03586 14.1651 4.6354 14.3102C4.47294 14.369 4.31097 14.4305 4.14705 14.4855C3.99005 14.5381 3.99304 14.532 3.92626 14.3826C3.91212 14.3512 3.84615 14.3368 3.80087 14.3234C3.36432 14.1937 3.16889 13.8477 2.99717 13.4916C2.9562 13.4061 3.03228 13.2719 2.99577 13.1817C2.80736 12.7139 2.44698 12.3334 2.25118 11.8655C2.08995 11.4813 1.88823 11.1127 1.71318 10.7336C1.53081 10.3385 1.35684 9.93962 1.18337 9.54078C1.08298 9.30966 0.994457 9.0739 0.892103 8.84323C0.797059 8.62901 0.679795 8.42311 0.592652 8.20611C0.450014 7.85008 0.258457 7.51866 0.201791 7.12087C0.174649 6.93042 0.131253 6.73755 0.121419 6.53547C0.110252 6.30432 0.274601 6.16264 0.420838 6.09446C0.707381 5.96137 0.991227 5.77622 1.34056 5.80281C1.37751 5.80581 1.42391 5.79151 1.45359 5.76963C1.67968 5.60294 1.80822 5.72218 1.98786 5.87495C2.32651 6.16399 2.47285 6.56738 2.73736 6.89777C2.81916 6.99989 2.81985 7.15787 2.87987 7.28051C3.02331 7.57373 3.18503 7.85907 3.32996 8.15182C3.47 8.43471 3.59671 8.72316 3.73132 9.00836C3.81814 9.19302 3.9084 9.37675 3.99719 9.56094C4.02432 9.55592 4.05096 9.5509 4.0781 9.54541C4.12405 9.42517 4.16311 9.30162 4.21644 9.1847C4.42624 8.72543 4.62916 8.26238 4.85864 7.81212C4.93878 7.65502 5.09857 7.53723 5.20528 7.39011C5.43855 7.06783 5.64578 6.72856 5.89182 6.41572C6.11703 6.12904 6.38152 5.87114 6.62294 5.59578C6.78355 5.41237 6.92061 5.20868 7.093 5.0361C7.28768 4.84114 7.50641 4.66692 7.7212 4.49127C7.9256 4.32448 8.13099 4.15676 8.35008 4.00832C8.63594 3.81475 8.8738 3.56 9.23217 3.45539C9.3921 3.40884 9.50293 3.22518 9.65423 3.13125C9.96176 2.94013 10.2771 2.75983 10.5974 2.58987C11.012 2.36975 11.4262 2.14588 11.8574 1.95913C12.0965 1.8558 12.3736 1.83421 12.6278 1.75814C12.9314 1.66732 13.2287 1.5563 13.5298 1.45749C13.5856 1.43902 13.6468 1.43511 13.7055 1.42415C13.8801 1.39175 14.0548 1.35981 14.2289 1.32505C14.2492 1.32093 14.2744 1.28919 14.2848 1.29439C14.5892 1.43748 14.8364 1.18606 15.1252 1.18609C15.5382 1.18582 15.9506 1.13538 16.3637 1.10838C16.5304 1.09749 16.6981 1.07911 16.8641 1.08416C17.389 1.09991 17.9159 1.10536 18.4381 1.15344C18.8608 1.19211 19.2783 1.28655 19.6979 1.35708C20.0264 1.41216 20.3634 1.44103 20.6813 1.53028C21.2247 1.68253 21.7606 1.86286 22.2915 2.05208C22.5335 2.1386 22.7522 2.28313 22.9892 2.38604C23.2243 2.48846 23.4848 2.54461 23.705 2.66899C24.1675 2.92958 24.6096 3.22195 25.0612 3.49984C25.243 3.61184 25.4328 3.71216 25.6091 3.83117C25.9063 4.03234 26.2164 4.2228 26.4843 4.4557C26.927 4.84135 27.3577 5.24194 27.7618 5.66396C28.2232 6.14627 28.7024 6.61601 29.0401 7.19801C29.2282 7.52286 29.5004 7.80313 29.7013 8.12195C29.9102 8.45299 30.0483 8.82681 30.2744 9.14528C30.5059 9.47128 30.5032 9.91658 30.8721 10.1655C30.8932 10.1796 30.9063 10.2177 30.9067 10.2449C30.9081 10.6611 31.2007 10.9949 31.2746 11.3801C31.3453 11.7485 31.5679 12.0768 31.5521 12.4667C31.5476 12.5782 31.6944 12.69 31.7091 12.8087C31.775 13.3383 31.9499 13.851 31.9595 14.3901C31.9641 14.6447 32.0595 14.8973 32.0745 15.1529C32.0885 15.3934 32.0499 15.6365 32.0378 15.8788C32.0351 15.9303 32.0555 15.9829 32.0518 16.0345C32.0396 16.2102 32.0111 16.3854 32.0083 16.5607C32.0055 16.7257 32.0431 16.8923 32.0334 17.0567C32.0113 17.4293 31.9745 17.8013 31.9371 18.1728C31.9195 18.3504 31.892 18.5274 31.862 18.7035C31.8021 19.0506 31.7536 19.4005 31.67 19.7423C31.5734 20.1374 31.4443 20.5258 31.3275 20.9162C31.2809 21.0721 31.2362 21.2293 31.1763 21.3804C31.0955 21.5844 31.0038 21.7846 30.9101 21.9838C30.7597 22.3023 30.6377 22.6392 30.4396 22.9288C30.2405 23.2203 30.2223 23.6154 29.8757 23.8199C29.8584 23.8301 29.8524 23.8601 29.8449 23.8816C29.7179 24.2396 29.4902 24.5342 29.2476 24.8316C28.905 25.2513 28.6168 25.7087 28.195 26.0709C27.9569 26.2754 27.7698 26.5333 27.5352 26.7421C27.2059 27.0348 26.8634 27.3167 26.5077 27.5793C26.0936 27.8847 25.6761 28.1925 25.2278 28.4485C24.7725 28.7083 24.2781 28.9046 23.8019 29.1319C23.7085 29.1764 23.6273 29.2444 23.5315 29.2824C23.003 29.493 22.478 29.7154 21.9388 29.8983C21.615 30.0083 21.2685 30.0937 20.9278 30.1098C20.7415 30.1188 20.5736 30.1737 20.3951 30.193C20.1895 30.2154 19.9918 30.3184 19.7872 30.3305C19.4337 30.3508 19.0854 30.5019 18.7252 30.3801C18.6696 30.3611 18.615 30.3402 18.5673 30.3226C18.4657 30.3272 18.3627 30.3337 18.2592 30.3365C18.098 30.3404 17.9348 30.355 17.7756 30.3397C17.5943 30.3224 17.4171 30.2714 17.2369 30.2465C17.1108 30.229 16.9816 30.2326 16.854 30.2235C16.5421 30.2023 16.2774 30.1189 16.1918 29.7834C16.157 29.6472 16.1695 29.5048 16.1559 29.3702C16.1263 29.0832 16.1628 28.7796 16.2367 28.4983C16.2733 28.3578 16.4523 28.2509 16.5524 28.1441C16.7416 28.1647 16.9219 28.1839 17.1204 28.2055C17.135 28.1521 17.1535 28.0833 17.1792 27.9873C17.3483 28.1673 17.4926 28.1994 17.7453 28.1247C17.9536 28.0634 18.2171 27.903 18.481 28.0712C18.5321 28.1038 18.6517 28.0317 18.7415 28.0181C19.3004 27.9323 19.8626 27.8648 20.4181 27.7626C21.2918 27.6015 22.1136 27.2892 22.9041 26.9097C23.3517 26.6949 23.8116 26.4989 24.205 26.185C24.4955 25.9535 24.8315 25.7751 25.1397 25.5625C25.382 25.3954 25.6219 25.2222 25.8447 25.0325C25.9442 24.9482 25.9902 24.8097 26.076 24.7074C26.1464 24.6239 26.2267 24.5287 26.3255 24.4903C26.4855 24.4278 26.5928 24.3613 26.575 24.1756C26.5722 24.1455 26.6709 24.1156 26.7017 24.0721C27.0353 23.6022 27.361 23.1271 27.6965 22.6587C28.1914 21.9683 28.4949 21.1969 28.8256 20.4293C29.0106 19.9999 29.036 19.5468 29.2155 19.1281C29.3916 18.7174 29.4056 18.275 29.4492 17.844C29.5062 17.2818 29.4687 16.7088 29.5498 16.1509C29.6177 15.6853 29.4598 15.2354 29.536 14.7718C29.5665 14.5853 29.4246 14.3789 29.4005 14.1772C29.3285 13.5796 29.1698 13.0004 28.9754 12.4341C28.7729 11.8429 28.5056 11.2716 28.2793 10.6873C28.1032 10.2332 27.8005 9.84495 27.5764 9.4182C27.3079 8.90686 26.9167 8.48396 26.5695 8.0327C26.2384 7.6026 25.8396 7.21623 25.4433 6.83691C25.0906 6.49905 24.7156 6.17842 24.3213 5.88536C23.9932 5.64231 23.6245 5.44828 23.2712 5.23698C22.9773 5.06114 22.6844 4.88389 22.3821 4.7216C21.7903 4.40364 21.162 4.16425 20.5048 4.00253C19.8688 3.84653 19.2273 3.70926 18.5862 3.57246C18.4153 3.53598 18.237 3.52478 18.0611 3.51406C17.0692 3.45191 16.0751 3.4385 15.0982 3.63096C14.3872 3.77085 13.6849 3.95718 12.988 4.15245C12.6435 4.24869 12.3071 4.38904 11.9903 4.55105C11.6464 4.72746 11.3235 4.94334 11.0035 5.15784C10.59 5.43468 10.1898 5.7294 9.77883 6.01C9.71454 6.05374 9.62282 6.06172 9.54383 6.08617C9.55807 6.09749 9.57182 6.10834 9.58605 6.11966L9.58409 6.11824Z"
          fill="currentColor"/>
</svg>
