<svg viewBox="0 0 32 33" fill="none" xmlns="http://www.w3.org/2000/svg">
<g clip-path="url(#clip0_2322_9958)">
<path d="M15.2405 28.3536C14.8544 28.9952 14.246 29.3708 13.6394 29.7293C13.0916 30.053 12.4773 30.2286 11.836 30.2758C10.9136 30.3438 10.0518 30.1361 9.31617 29.5826C8.70443 29.1221 8.26468 28.5131 8.01983 27.7767C7.72913 26.9014 7.64332 26.0165 7.86671 25.116C7.96509 24.7191 8.04757 24.3105 8.21142 23.9392C8.38451 23.5467 8.64304 23.1908 8.87013 22.8225C8.95297 22.6882 9.07022 22.5726 9.13901 22.4325C9.17489 22.359 9.15417 22.2482 9.13383 22.16C9.0717 21.8945 8.95815 21.6351 8.93522 21.3677C8.88455 20.7814 8.84794 20.191 8.86014 19.6035C8.87346 18.9539 9.17156 18.3953 9.5281 17.8591C9.99596 17.1553 10.6439 16.6626 11.3981 16.3209C11.8674 16.1084 12.3889 16.1289 12.9008 16.2295C13.2041 16.2891 13.5251 16.2818 13.8162 16.3729C14.1664 16.4822 14.5233 16.5931 14.8255 16.8268C15.06 17.0086 15.3193 17.1597 15.5726 17.3166C15.6325 17.3536 15.7113 17.3755 15.7823 17.3777C16.4314 17.3993 16.8767 17.7647 17.2584 18.2322C17.477 18.4999 17.4807 18.4868 17.7821 18.3368C18.0244 18.2165 18.2951 18.1462 18.5596 18.0767C18.8447 18.0017 19.1173 18.087 19.3917 18.1726C19.6817 18.2629 19.9768 18.1934 20.255 18.1089C20.6933 17.9758 21.1389 17.9805 21.5765 18.0456C21.9459 18.1009 22.3006 18.249 22.6664 18.3361C23.1324 18.4473 23.5385 18.673 23.8655 19.0025C24.1658 19.3054 24.3666 19.6869 24.5445 20.0776C24.6688 20.3508 24.8304 20.6054 24.8597 20.9145C24.8933 21.2715 24.958 21.6263 24.9736 21.9834C24.9836 22.2193 24.9599 22.4655 24.8981 22.6926C24.8223 22.9721 24.7043 23.2428 24.5797 23.5058C24.4195 23.8449 24.2505 24.1821 24.0556 24.5022C23.9173 24.729 23.7568 24.9576 23.5567 25.1291C23.2452 25.3962 23.4324 25.6771 23.4686 25.9577C23.5093 26.2722 23.594 26.5861 23.5936 26.8999C23.5929 27.3484 23.5711 27.8045 23.486 28.2435C23.3954 28.7102 23.2778 29.1814 23.023 29.5987C22.8321 29.9118 22.6624 30.2432 22.4323 30.5264C22.2067 30.8044 21.9334 31.0509 21.6519 31.2762C21.2684 31.5831 20.8197 31.7942 20.3397 31.8944C19.9643 31.9731 19.5674 32.0199 19.1876 31.9895C18.8037 31.9588 18.4186 31.8443 18.0543 31.7119C17.7766 31.6109 17.5181 31.4419 17.2743 31.2704C17.0243 31.0944 16.7924 30.8889 16.5712 30.6774C16.2358 30.3563 15.9832 29.9674 15.7772 29.5581C15.59 29.1857 15.4528 28.7889 15.2926 28.403C15.2864 28.388 15.2671 28.3781 15.2394 28.3525L15.2405 28.3536ZM17.5469 19.6233C17.4578 19.5779 17.4008 19.5329 17.3368 19.5198C17.2185 19.4956 17.092 19.5051 16.9773 19.4722C16.903 19.451 16.8249 19.3917 16.782 19.3274C16.7081 19.2173 16.6744 19.0801 16.5986 18.9718C16.3922 18.6766 16.1833 18.3781 15.7764 18.3295C15.5057 18.2969 15.239 18.2567 15.0038 18.0983C14.8129 17.9699 14.5855 17.8861 14.4183 17.7351C14.1476 17.4904 13.8288 17.3825 13.4863 17.3133C13.2536 17.2665 13.0173 17.2365 12.7847 17.1897C12.38 17.1077 11.9821 17.0821 11.6041 17.2917C11.5416 17.3265 11.4798 17.3634 11.4218 17.4051C11.1558 17.5964 10.8551 17.7567 10.6358 17.9911C10.3932 18.2505 10.2094 18.5694 10.0315 18.8804C9.93753 19.045 9.88907 19.2436 9.85949 19.4331C9.82324 19.6642 9.82472 19.9016 9.81621 20.1368C9.79624 20.6775 9.86466 21.2115 9.98672 21.735C10.1017 22.2277 10.1343 22.6908 9.7955 23.1195C9.65163 23.3017 9.5318 23.5032 9.41048 23.7018C9.17119 24.094 8.98922 24.5128 8.879 24.9572C8.75991 25.4382 8.7011 25.9236 8.7392 26.4248C8.79579 27.1706 8.99662 27.8459 9.5011 28.426C9.83803 28.813 10.2434 29.0727 10.7338 29.204C10.9417 29.2596 11.161 29.3054 11.3744 29.3021C11.7121 29.2969 12.0586 29.2849 12.3837 29.2055C12.7802 29.1086 13.1427 28.9063 13.4863 28.6821C13.7589 28.5043 14.0207 28.3239 14.2153 28.047C14.4202 27.7555 14.7186 27.5712 15.0992 27.6026C15.2875 27.6183 15.4798 27.6527 15.6566 27.7156C16.1048 27.8751 16.3678 28.1853 16.4558 28.6638C16.4958 28.8807 16.6178 29.0917 16.7388 29.283C16.8849 29.5135 17.0731 29.7172 17.2366 29.9374C17.4533 30.2293 17.723 30.4602 18.0462 30.6273C18.2075 30.7107 18.3946 30.7682 18.5422 30.849C18.7959 30.9876 19.0637 31.0282 19.3196 31.0429C20.0075 31.082 20.6311 30.86 21.173 30.4349C21.6116 30.0911 21.9289 29.643 22.1649 29.1532C22.3373 28.7947 22.4623 28.4041 22.5407 28.0141C22.6191 27.6246 22.6442 27.2178 22.6342 26.8202C22.6254 26.4672 22.5433 26.1149 22.4815 25.7645C22.412 25.3691 22.4863 25.0212 22.74 24.6964C22.9494 24.4287 23.1262 24.1349 23.3018 23.8434C23.4838 23.5409 23.6584 23.2325 23.8141 22.9161C23.9028 22.7361 23.982 22.5386 24.0034 22.3422C24.0338 22.0646 24.0271 21.7789 23.9975 21.5009C23.9709 21.2514 23.9284 20.9921 23.8278 20.7653C23.6957 20.4675 23.499 20.1979 23.3314 19.9159C23.1879 19.6745 22.9819 19.4982 22.7326 19.376C22.6169 19.3193 22.4841 19.2952 22.358 19.2604C22.0325 19.1701 21.7104 19.0581 21.379 18.9989C21.0246 18.9356 20.6663 18.985 20.3142 19.0662C19.8844 19.1653 19.4594 19.2107 19.0245 19.0548C18.6346 18.9151 18.2981 19.0973 17.9833 19.3076C17.8287 19.4111 17.6819 19.5256 17.5473 19.6236L17.5469 19.6233Z" fill="currentColor"/>
<path d="M28.9182 8.4703C28.9019 8.49188 28.8653 8.56394 28.8076 8.60966C28.7396 8.6638 28.6567 8.72086 28.5739 8.73184C28.204 8.78049 27.8282 8.7911 27.4625 8.85803C27.1547 8.91437 26.8474 9.00362 26.5596 9.12433C26.1243 9.30649 25.6979 9.51353 25.2829 9.73812C25.0499 9.86432 24.835 10.0319 24.6353 10.2071C24.3021 10.499 23.9762 10.8007 23.6696 11.1193C23.4507 11.3469 23.2413 11.5923 23.0756 11.8586C22.853 12.2167 22.6521 12.5927 22.4879 12.9798C22.3666 13.2658 22.3093 13.58 22.2397 13.8854C22.1813 14.1411 22.1525 14.403 22.0985 14.6598C22.0792 14.752 22.0337 14.8131 21.8984 14.8087C21.722 14.8028 21.5437 14.8595 21.3654 14.8859C21.3281 14.8914 21.2774 14.8958 21.2519 14.8764C21.088 14.7505 20.9527 14.6119 20.939 14.3826C20.9172 14.0219 20.8861 13.6609 20.8339 13.3035C20.7822 12.9487 20.7256 12.5902 20.622 12.2482C20.5377 11.9702 20.3945 11.7061 20.251 11.4508C20.0961 11.1753 19.8412 10.9375 19.7525 10.6467C19.5968 10.1357 19.1766 9.8336 18.9011 9.42135C18.6736 9.0808 18.4395 8.74318 18.0863 8.50322C17.8559 8.34666 17.6717 8.11804 17.4324 7.98087C17.1021 7.79176 16.74 7.65642 16.3894 7.50352C16.3243 7.47535 16.2459 7.45743 16.176 7.46364C15.9112 7.48779 15.727 7.34293 15.545 7.18894C15.5358 7.18126 15.5321 7.16699 15.5225 7.16041C15.4237 7.0942 15.2551 7.09054 15.3124 6.89301C15.3464 6.77523 15.3479 6.64867 15.3645 6.52576C15.3693 6.49028 15.3908 6.44894 15.379 6.42078C15.2946 6.21667 15.4359 6.19326 15.5757 6.18631C15.764 6.17716 15.9559 6.20606 16.1412 6.18155C16.524 6.13107 16.909 6.07877 17.283 5.98695C18.0378 5.80223 18.7047 5.42108 19.329 4.97957C19.8978 4.57757 20.4371 4.12911 20.8694 3.58006C21.1775 3.18866 21.4475 2.76691 21.7242 2.3521C22.0393 1.87987 22.2287 1.35569 22.3359 0.802617C22.3662 0.646424 22.3714 0.484745 22.3803 0.325261C22.3943 0.0779874 22.6063 -0.0496732 22.8644 0.0179979C23.0035 0.0545768 23.1533 0.0662821 23.2979 0.0640874C23.518 0.0607953 23.5206 0.230522 23.5276 0.357085C23.552 0.787985 23.5183 1.2251 23.5742 1.65088C23.6212 2.00936 23.7432 2.36234 23.8664 2.70582C24.0036 3.0888 24.156 3.46995 24.3438 3.83062C24.6593 4.43564 25.0484 4.9931 25.4889 5.5213C25.9017 6.01658 26.3662 6.45626 26.8866 6.82242C27.3929 7.17906 27.9388 7.50022 28.5924 7.54558C28.6804 7.5518 28.7714 7.57704 28.8527 7.61252C29.0684 7.70689 28.99 7.89125 28.9748 8.05183C28.9626 8.18059 28.9408 8.30825 28.9186 8.46883L28.9182 8.4703ZM22.7535 2.61876C21.5788 4.67999 19.9008 6.13071 17.6761 6.93435C17.9332 7.12236 18.191 7.29721 18.4332 7.49144C18.6847 7.69299 18.9314 7.90296 19.1603 8.12865C19.3179 8.28448 19.4407 8.47469 19.5812 8.64771C19.7835 8.89754 20.0007 9.13677 20.1871 9.39757C20.3812 9.66972 20.5532 9.95833 20.7226 10.2469C20.8979 10.5458 21.0584 10.8531 21.2263 11.1559C21.3073 11.3022 21.4083 11.4401 21.469 11.5941C21.5474 11.7931 21.5951 12.0042 21.6724 12.2661C22.8093 10.1101 24.5114 8.68867 26.8389 7.97575C24.7829 6.7039 23.5109 4.85593 22.7538 2.6184L22.7535 2.61876Z" fill="currentColor"/>
<path d="M3.00012 8.0012C2.99938 7.49458 3.10441 7.00772 3.31967 6.55048C3.49424 6.1803 3.75684 5.87267 4.07158 5.60565C4.437 5.29582 4.82904 5.02441 5.28618 4.8748C5.65678 4.75336 6.04586 4.68678 6.42201 4.58071C6.53259 4.54961 6.65723 4.48853 6.72603 4.40257C7.03411 4.01812 7.41654 3.71671 7.80304 3.41932C8.24354 3.08097 8.73544 2.82967 9.26248 2.65519C9.56281 2.55606 9.87829 2.51546 10.1949 2.47412C10.8081 2.39402 11.3769 2.55131 11.9018 2.80663C12.2442 2.97306 12.5364 3.26496 12.809 3.5415C13.1837 3.92155 13.4485 4.38245 13.6101 4.89163C13.7222 5.24535 13.8564 5.60016 13.903 5.96412C13.9704 6.4872 14.0255 7.01723 13.9426 7.54909C13.9012 7.81538 13.9241 8.09228 13.872 8.35565C13.7788 8.82716 13.6663 9.2961 13.5317 9.75772C13.4304 10.1052 13.2898 10.4425 13.1519 10.7783C12.9263 11.3284 12.6174 11.8358 12.3056 12.3413C12.1621 12.5736 12.0442 12.8212 11.9143 13.0615C11.8626 13.1574 11.8052 13.2181 11.6706 13.2009C11.2098 13.1413 10.7467 13.0952 10.284 13.0506C10.0007 13.0231 9.71482 13.0213 9.43336 12.9833C9.08385 12.9361 8.73729 12.8662 8.39074 12.8015C8.15662 12.7576 7.92176 12.7129 7.69097 12.6548C7.43652 12.5908 7.1876 12.5063 6.93388 12.4382C6.39796 12.2945 5.90717 12.0505 5.43117 11.7758C5.32835 11.7165 5.23403 11.6401 5.14379 11.5622C4.93371 11.3804 4.71254 11.2073 4.52502 11.0047C4.28203 10.7413 4.04791 10.4652 3.8456 10.1707C3.64403 9.87734 3.48278 9.55617 3.31005 9.24379C3.1647 8.98042 2.99494 8.2792 3.00012 8.0012ZM11.1177 12.1825C11.2623 12.0176 11.3806 11.8895 11.4905 11.7549C11.5404 11.6938 11.5748 11.6207 11.6144 11.5519C11.6758 11.4451 11.732 11.3346 11.7975 11.2304C11.8759 11.1057 11.9794 10.9934 12.0416 10.8613C12.1603 10.6086 12.2613 10.3474 12.3626 10.0869C12.4702 9.81076 12.5908 9.53679 12.6663 9.25184C12.7472 8.94567 12.7865 8.62817 12.8368 8.31432C12.8808 8.03961 12.9155 7.76344 12.954 7.488C12.9714 7.36363 12.9976 7.23963 13.0024 7.1149C13.0061 7.0154 12.9817 6.91481 12.9714 6.81458C12.9407 6.50878 12.9351 6.19786 12.8745 5.89828C12.8079 5.5698 12.7221 5.24169 12.5597 4.94028C12.5013 4.832 12.4832 4.69849 12.4118 4.60192C12.2831 4.42781 12.1289 4.27161 11.9835 4.10993C11.9395 4.06128 11.8929 4.013 11.8396 3.97496C11.725 3.89229 11.5866 3.83376 11.4916 3.7339C11.2915 3.52321 11.0137 3.53308 10.7682 3.46249C10.6154 3.41859 10.4394 3.44017 10.2751 3.45042C9.96188 3.4698 9.64861 3.48992 9.37788 3.68379C9.29022 3.74634 9.18038 3.78987 9.07423 3.81401C8.85417 3.86412 8.6881 3.99983 8.51612 4.12713C8.41996 4.19846 8.32934 4.27747 8.23725 4.35428C8.01793 4.53644 7.76716 4.69373 7.58889 4.90918C7.40915 5.12646 7.222 5.29948 6.94794 5.36825C6.8662 5.38873 6.77522 5.3752 6.69385 5.39788C6.38687 5.48238 6.08285 5.57602 5.77698 5.66527C5.44337 5.76257 5.14268 5.92718 4.87528 6.14116C4.64079 6.32881 4.44329 6.54902 4.27981 6.81056C4.09229 7.11051 4.00501 7.42545 3.96876 7.7649C3.93104 8.11643 4.0309 8.44308 4.15591 8.76497C4.35859 9.28659 4.63857 9.76394 5.03135 10.167C5.2566 10.3982 5.50514 10.6075 5.75035 10.8189C5.86353 10.9165 5.9841 11.0135 6.11725 11.0801C6.83624 11.4418 7.59888 11.6785 8.39 11.8266C8.72583 11.8895 9.06239 11.947 9.40007 11.9996C9.63012 12.0355 9.86165 12.0633 10.0932 12.0871C10.453 12.124 10.8137 12.1547 11.1173 12.1833L11.1177 12.1825Z" fill="currentColor"/>
<path d="M17.15 20.7779C17.2583 20.6454 17.3711 20.5163 17.4743 20.3799C17.603 20.2102 17.7258 20.0353 17.8486 19.8608C17.9333 19.7405 18.0276 19.6984 18.1541 19.8052C18.2325 19.8714 18.3235 19.9256 18.3927 19.9998C18.4996 20.1143 18.4604 20.2369 18.3757 20.3459C18.129 20.6623 17.8778 20.9754 17.6304 21.2918C17.5261 21.4253 17.427 21.5628 17.3334 21.7538C17.4 21.741 17.4825 21.749 17.5302 21.7125C17.8634 21.4553 18.1804 21.1766 18.5203 20.9282C19.1065 20.4999 19.7482 20.1721 20.459 19.9976C21.0479 19.8528 21.637 19.825 22.2037 20.096C22.7562 20.3601 23.0421 20.8269 23.1608 21.3968C23.3188 22.1554 23.152 22.887 22.872 23.5857C22.6678 24.0948 22.4289 24.6011 22.1241 25.0554C21.9436 25.3246 21.8601 25.5682 21.8841 25.8726C21.9118 26.2226 21.9311 26.5734 21.9551 26.9239C21.9969 27.5358 21.9533 28.1408 21.7339 28.7181C21.5031 29.3253 21.1729 29.8864 20.6447 30.2803C20.3803 30.4775 20.0197 30.5024 19.6761 30.4885C19.0055 30.461 18.494 30.1176 18.0402 29.6757C17.7539 29.397 17.4884 29.0955 17.2295 28.7908C17.0893 28.6259 16.9787 28.4353 16.8622 28.252C16.664 27.9397 16.472 27.6236 16.2771 27.309C16.2738 27.3039 16.2697 27.2988 16.2682 27.2929C16.2072 27.0786 16.0807 27.061 15.8566 27.0541C15.6121 27.046 15.3051 27.0504 15.1276 26.8094C14.7052 27.0961 14.3028 27.4063 13.866 27.6584C13.0845 28.1094 12.2609 28.4536 11.3296 28.4594C10.6857 28.4635 10.1102 28.2941 9.68742 27.7948C9.4337 27.4949 9.3024 27.1239 9.27096 26.7318C9.22029 26.0957 9.38266 25.5009 9.64193 24.9219C9.88899 24.3699 10.1974 23.8604 10.591 23.3991C10.6317 23.3516 10.6379 23.2707 10.6487 23.2038C10.679 23.0136 10.7245 22.8223 10.7249 22.6313C10.7249 22.2586 10.6912 21.8858 10.6845 21.5127C10.6749 20.9454 10.6786 20.3755 10.8092 19.8206C10.9697 19.1373 11.2815 18.5535 12.0327 18.3472C12.5612 18.202 13.0808 18.1716 13.6086 18.409C14.0535 18.6095 14.4308 18.8703 14.74 19.2437C15.0921 19.6695 15.4745 20.0708 15.8185 20.5024C16.006 20.738 16.1392 21.0156 16.3015 21.2717C16.3337 21.3222 16.387 21.3598 16.4306 21.403C16.4487 21.3379 16.4935 21.2666 16.4802 21.2084C16.4265 20.9739 16.3392 20.746 16.2941 20.5105C16.246 20.2614 16.2231 20.0064 16.2091 19.7529C16.2061 19.701 16.2823 19.611 16.3378 19.596C16.4591 19.5634 16.5967 19.5415 16.715 19.5686C16.7783 19.5832 16.8378 19.7028 16.8604 19.7851C16.948 20.1052 17.0201 20.4293 17.0982 20.7519C17.1156 20.7603 17.133 20.7691 17.1503 20.7775L17.15 20.7779ZM17.336 24.6102C17.2398 24.739 17.2406 24.8242 17.3711 24.9245C17.7676 25.2281 18.166 25.5309 18.5388 25.862C18.9475 26.2248 19.3266 26.6206 19.723 26.997C19.763 27.0351 19.8358 27.0559 19.8939 27.0563C20.2297 27.0585 20.5689 26.9879 20.894 27.143C20.995 27.1912 21.1141 27.2015 21.238 27.2326C21.2468 27.1591 21.2594 27.1057 21.2583 27.053C21.2494 26.5935 21.2287 26.1341 21.2324 25.6747C21.2339 25.4995 21.1747 25.4259 21.0053 25.3952C20.5064 25.3049 20.0089 25.2065 19.5122 25.1055C19.0562 25.013 18.6005 24.9168 18.1467 24.8151C17.8793 24.7551 17.6149 24.6812 17.336 24.6102ZM15.2711 24.3827C15.2526 24.3556 15.2341 24.3289 15.2156 24.3019C14.9774 24.2536 14.74 24.2017 14.5011 24.1574C13.9533 24.0561 13.403 23.9661 12.8567 23.8571C12.3844 23.7627 11.9158 23.6493 11.4457 23.5436C11.3214 23.5154 11.2419 23.5531 11.1735 23.6669C10.9575 24.0264 10.7334 24.3816 10.5048 24.7335C10.3783 24.9281 10.3861 24.9581 10.6106 24.9994C11.0256 25.0755 11.4191 25.2057 11.7368 25.4929C11.8378 25.584 11.9114 25.5847 12.0275 25.5211C12.6659 25.1695 13.2913 24.7917 14.0339 24.6735C14.4042 24.6146 14.7677 24.5133 15.1343 24.4299C15.1809 24.4193 15.2256 24.3988 15.2711 24.3831V24.3827ZM15.3044 23.6018C15.3107 23.5908 15.317 23.5798 15.3233 23.5688C15.2926 23.5355 15.2656 23.4975 15.2308 23.4697C14.9364 23.2349 14.6427 22.9986 14.3443 22.7685C13.866 22.4001 13.4437 21.978 13.0586 21.5153C12.9799 21.4206 12.8201 21.3075 12.7221 21.3265C12.3267 21.4026 11.9494 21.4165 11.5796 21.2358C11.5126 21.2033 11.4394 21.1835 11.3699 21.1586C11.3699 21.3207 11.3658 21.4593 11.3706 21.5976C11.3832 21.955 11.4143 22.312 11.4106 22.669C11.408 22.9071 11.3884 22.9009 11.624 22.9426C12.5168 23.0995 13.4085 23.2608 14.3006 23.4207C14.6353 23.4807 14.9697 23.5414 15.304 23.6021L15.3044 23.6018ZM15.5748 23.1467C15.6532 22.9163 15.7135 22.7326 15.7778 22.5505C15.8322 22.3961 15.9135 22.2472 15.942 22.0885C15.9975 21.779 15.7545 21.5643 15.6221 21.3298C15.446 21.0178 15.192 20.7457 14.9527 20.4724C14.6549 20.1326 14.3394 19.8078 14.028 19.4797C13.9992 19.4493 13.9356 19.4164 13.9078 19.4288C13.8756 19.4431 13.8564 19.5042 13.8486 19.5477C13.839 19.6004 13.8557 19.6574 13.8468 19.7105C13.8172 19.8927 13.8135 20.0876 13.7403 20.2515C13.6293 20.4995 13.4684 20.7256 13.3401 20.9417C13.916 21.8306 14.8251 22.3767 15.5744 23.1463L15.5748 23.1467ZM19.1812 27.4045C18.9338 27.0592 17.5317 25.7168 17.0357 25.5002C16.9539 25.678 16.8922 25.8689 16.786 26.0317C16.6174 26.2888 16.6721 26.5306 16.7997 26.7666C16.9428 27.031 17.0997 27.2896 17.2672 27.5398C17.5531 27.9667 17.8372 28.3965 18.1519 28.8022C18.3176 29.0162 18.5469 29.1819 18.7289 29.352C18.7189 29.0074 18.6937 28.6683 18.7034 28.33C18.7141 27.9601 18.9245 27.6756 19.1812 27.4049V27.4045ZM20.6739 20.6652C20.5593 20.685 20.4842 20.6864 20.4191 20.7113C20.084 20.8404 19.7382 20.9501 19.4209 21.1144C18.8683 21.4001 18.3261 21.7084 17.8623 22.1309C17.7195 22.2611 17.5971 22.3804 17.6356 22.6079C17.6633 22.771 17.6223 22.9452 17.6108 23.1145C17.603 23.2349 17.5938 23.3552 17.5838 23.4935C17.6689 23.4639 17.7144 23.4456 17.7613 23.432C18.1815 23.3117 18.6087 23.2107 19.0203 23.067C19.3584 22.9492 19.6775 22.7795 20.0063 22.6357C20.2615 22.5245 20.2667 22.5256 20.1831 22.2615C20.0666 21.8932 20.1269 21.5449 20.3089 21.2164C20.4069 21.0394 20.5323 20.877 20.6736 20.6652H20.6739ZM20.7105 22.9737C20.2652 23.1822 19.7977 23.4342 19.3055 23.6222C18.8165 23.8092 18.3028 23.9317 17.7998 24.0824C17.8016 24.1014 17.8031 24.1208 17.805 24.1398C17.9156 24.1651 18.0254 24.1951 18.1367 24.2145C18.4252 24.2649 18.7159 24.3037 19.0033 24.3597C19.7733 24.5089 20.5415 24.6673 21.3123 24.8122C21.3755 24.8242 21.488 24.7825 21.5183 24.7313C21.6969 24.4299 21.8638 24.1208 22.0228 23.8088C22.0864 23.6841 22.1208 23.5447 22.1763 23.3911C21.6378 23.402 21.1518 23.3453 20.7109 22.9741L20.7105 22.9737ZM12.0841 27.6328C12.1728 27.6229 12.218 27.6276 12.2542 27.6119C12.6474 27.4433 13.0586 27.3046 13.4255 27.0918C13.8675 26.8353 14.2743 26.5189 14.6901 26.2201C14.8151 26.1301 14.9856 26.0291 15.0192 25.9029C15.0917 25.6334 15.0884 25.3436 15.1176 25.0474C14.1024 25.3137 13.1056 25.5898 12.2435 26.2139C12.3803 26.6784 12.3101 27.1463 12.0833 27.6328H12.0841ZM21.2335 27.7527C21.1026 27.7304 20.9894 27.699 20.8748 27.6938C20.6129 27.6821 20.3477 27.6576 20.0888 27.6854C19.7031 27.7271 19.4083 28.0059 19.3554 28.3519C19.3299 28.518 19.3095 28.6979 19.3476 28.8574C19.4198 29.1599 19.5337 29.4529 19.6369 29.7474C19.6465 29.7752 19.7068 29.8037 19.7419 29.8019C19.9838 29.7887 20.2205 29.7489 20.3988 29.5667C20.8522 29.1036 21.0885 28.5326 21.2232 27.9133C21.2343 27.8628 21.2298 27.8091 21.2332 27.7527H21.2335ZM22.5136 21.9305C22.508 21.9297 22.5021 21.9286 22.4966 21.9279C22.4914 21.8434 22.4918 21.7578 22.4796 21.674C22.4222 21.2845 22.2954 20.9392 21.9137 20.7343C21.7853 20.6656 21.6792 20.6674 21.5804 20.7555C21.377 20.9366 21.1551 21.1063 20.989 21.3178C20.567 21.8551 20.7157 22.3475 21.2406 22.628C21.5154 22.7751 21.8368 22.8358 22.1337 22.9437C22.2935 23.0015 22.3649 22.9368 22.3875 22.7908C22.4318 22.5044 22.4718 22.2169 22.5136 21.9301V21.9305ZM13.3634 19.465C13.3634 19.4372 13.3649 19.3948 13.3634 19.3524C13.3501 19.0133 13.3183 18.9614 12.981 18.9186C12.8242 18.8988 12.6585 18.9387 12.4979 18.9581C12.083 19.0085 11.7305 19.1439 11.6125 19.5993C11.5674 19.7738 11.5193 19.9486 11.4564 20.1176C11.3887 20.299 11.4808 20.4695 11.5752 20.5635C11.8137 20.8013 12.1318 20.907 12.4713 20.806C13.0198 20.6429 13.4067 20.0024 13.3638 19.465H13.3634ZM9.96962 26.3979C9.99514 27.1137 10.2278 27.5984 10.9556 27.7249C11.0222 27.7366 11.1225 27.7001 11.1694 27.651C11.2719 27.5431 11.3551 27.4158 11.4379 27.2907C11.7664 26.7951 11.6232 26.2768 11.1912 25.9263C10.939 25.7219 10.6302 25.6447 10.325 25.5598C10.1875 25.5218 10.1264 25.5938 10.1028 25.7087C10.0488 25.9695 10.0014 26.2314 9.96962 26.3979ZM15.7286 26.3218C15.753 26.332 15.7771 26.3423 15.8015 26.3525C15.8758 26.2457 15.9727 26.148 16.0201 26.0306C16.2039 25.5745 16.3977 25.1201 16.5401 24.6508C16.7986 23.7989 17.0039 22.9335 16.9573 22.0322C16.9554 21.9948 16.934 21.9429 16.9051 21.9275C16.88 21.914 16.8189 21.9301 16.796 21.9539C16.7335 22.0201 16.6618 22.0896 16.6307 22.1715C16.5057 22.5007 16.3699 22.8285 16.2834 23.1683C16.0889 23.931 15.8729 24.6911 15.7981 25.4786C15.7715 25.7595 15.7515 26.0408 15.7282 26.3218H15.7286Z" fill="currentColor"/>
<path d="M19.058 6.6128C19.7193 6.68267 20.2667 6.45771 20.7712 6.12301C21.4077 5.70089 21.9159 5.15842 22.2162 4.45282C22.3116 4.22859 22.3534 3.98058 22.4063 3.74062C22.4315 3.6254 22.4751 3.53871 22.6005 3.54749C22.9127 3.5698 22.9777 3.61406 22.9648 3.78415C22.9241 4.33101 23.0647 4.83946 23.304 5.3234C23.6605 6.044 24.131 6.67535 24.8451 7.08796C25.0349 7.19734 25.2575 7.25001 25.4635 7.33268C25.5542 7.36889 25.7084 7.30634 25.6973 7.50387C25.6799 7.81515 25.6281 7.92928 25.431 7.9344C24.9953 7.94574 24.5848 8.05365 24.1983 8.24386C23.5906 8.54307 23.0968 8.96959 22.7237 9.53766C22.4681 9.92649 22.3183 10.3446 22.2728 10.8011C22.2606 10.9251 22.2099 10.973 22.0886 10.9639C22.0465 10.9606 22.0028 10.969 21.9603 10.9748C21.7916 10.999 21.7062 10.9266 21.6851 10.7594C21.6455 10.4466 21.6178 10.1302 21.5468 9.82444C21.5002 9.62398 21.3963 9.43414 21.3001 9.24832C20.9909 8.64952 20.6218 8.08547 20.0822 7.6703C19.8447 7.48777 19.5333 7.38974 19.2433 7.28732C19.0077 7.20392 18.7533 7.08723 18.8975 6.77485C18.9275 6.7101 19.0029 6.66584 19.0573 6.61244L19.058 6.6128ZM22.0675 9.65617C22.6182 8.61477 23.466 7.91648 24.6266 7.54776C23.5973 6.9047 22.9711 5.9906 22.5868 4.87274C21.9969 5.90793 21.157 6.62085 20.0526 7.03346C21.0412 7.6714 21.5934 8.62355 22.0672 9.65617H22.0675Z" fill="currentColor"/>
<path d="M12.3618 7.38022C12.3267 8.48161 12.0715 9.38987 11.6181 10.2436C11.4143 10.627 11.2012 11.0056 10.9793 11.3787C10.9423 11.4409 10.8358 11.5052 10.767 11.4997C10.2089 11.454 9.64969 11.4087 9.09565 11.3311C8.20763 11.2067 7.32737 11.0191 6.56732 10.5253C5.99516 10.1533 5.5247 9.66238 5.25064 9.02079C5.14856 8.78229 5.018 8.54746 4.9677 8.29762C4.83567 7.64396 5.00284 7.05613 5.45295 6.55134C5.84426 6.1124 6.34763 5.86732 6.90796 5.72027C7.01337 5.69247 7.13246 5.70271 7.22973 5.66028C7.33588 5.61419 7.44018 5.54176 7.51785 5.45653C8.05636 4.86871 8.69731 4.42903 9.48547 4.27065C10.6187 4.04276 11.5015 4.5823 11.9787 5.55749C12.2805 6.17458 12.4014 6.82971 12.3622 7.37986L12.3618 7.38022ZM10.466 10.8095C10.5018 10.7411 10.5214 10.6621 10.5714 10.6149C10.8166 10.3823 10.9516 10.0856 11.0977 9.79114C11.4919 8.99518 11.6931 8.15094 11.6902 7.27085C11.6883 6.68266 11.5796 6.10801 11.2279 5.597C10.8935 5.11123 10.4493 4.86761 9.86124 4.88737C9.55168 4.89761 9.27022 5.00954 8.99505 5.15C8.61336 5.34497 8.28086 5.59846 8.00236 5.91816C7.86773 6.07289 7.71757 6.17275 7.51267 6.21043C6.9283 6.31724 6.36316 6.46867 5.95337 6.9431C5.65045 7.29353 5.50584 7.69114 5.60533 8.15057C5.69706 8.57453 5.89567 8.94653 6.16751 9.29147C6.61503 9.85881 7.19792 10.2107 7.88215 10.4115C8.72098 10.6577 9.58422 10.7605 10.466 10.8099V10.8095Z" fill="currentColor"/>
</g>
</svg>
