<svg viewBox="0 0 32 32" fill="none" xmlns="http://www.w3.org/2000/svg">
    <path d="M7.12804 28.3903C7.10152 28.4298 7.08411 28.4559 7.09005 28.4471C6.93335 28.3826 6.781 28.321 6.62944 28.2569C6.57642 28.2344 6.51627 28.2166 6.47551 28.1788C6.24362 27.9632 5.92785 27.9101 5.67538 27.7441C5.57606 27.6788 5.44508 27.6518 5.37029 27.5177C5.32083 27.4286 5.17323 27.3932 5.06638 27.3408C4.91404 27.2659 4.75733 27.2006 4.60617 27.1237C4.56739 27.1039 4.54286 27.0548 4.51239 27.0197C4.42969 26.9831 4.32561 26.9565 4.2441 26.8977C3.93188 26.6733 3.62679 26.4392 3.31932 26.2079C3.10564 26.0472 2.88365 25.8965 2.68144 25.7217C2.48912 25.5553 2.32174 25.3591 2.13575 25.1843C2.02574 25.0807 1.89951 24.9945 1.78278 24.8982C1.4856 24.6541 1.26796 24.3435 1.13935 23.9837C1.05902 23.7589 1.02183 23.5108 1.00719 23.2703C0.988983 22.9693 1.00956 22.6652 1.02262 22.363C1.02895 22.2208 1.06536 22.0802 1.07367 21.9384C1.10295 21.4364 1.15716 20.9397 1.26044 20.4458C1.37361 19.9067 1.44445 19.3584 1.54496 18.8162C1.59521 18.5459 1.67792 18.2816 1.73173 18.0117C1.79109 17.7143 1.82512 17.4114 1.88725 17.1145C1.98499 16.6484 2.08748 16.1826 2.2054 15.7214C2.31303 15.3004 2.44005 14.8846 2.5647 14.4685C2.62881 14.2541 2.71586 14.0462 2.77601 13.8307C2.943 13.2308 3.08664 12.6233 3.26788 12.0279C3.42814 11.5013 3.62837 10.9873 3.80842 10.4672C3.95642 10.0402 4.11272 9.61594 4.2437 9.18366C4.43246 8.56164 4.59588 7.93196 4.78266 7.30913C4.83054 7.1496 4.93501 7.00859 4.99437 6.85148C5.21992 6.25483 5.42569 5.65013 5.66312 5.05832C5.78064 4.76504 5.92389 4.47336 6.10987 4.22238C6.19535 4.10716 6.36154 3.97018 6.57088 4.03142C6.63182 4.04914 6.71689 4.01893 6.77902 3.9863C7.22736 3.75223 7.67095 3.50769 8.11969 3.27443C8.55813 3.04641 9.0041 2.83209 9.44176 2.60245C9.98665 2.31682 10.5264 2.02152 11.0685 1.73025C11.5038 1.49619 11.9363 1.25688 12.3756 1.03007C12.7356 0.844349 13.1064 0.67998 13.4665 0.494259C13.6806 0.383874 13.8828 0.248914 14.0914 0.127249C14.3395 -0.0173798 14.6006 -0.0238257 14.8757 0.034187C15.4736 0.160284 15.8887 0.543006 16.2302 1.02403C16.4692 1.36082 16.6999 1.70487 16.9159 2.05738C17.2092 2.53558 17.5004 3.0166 17.7632 3.51253C17.9642 3.89162 18.0928 4.31141 18.3029 4.68446C18.5027 5.03939 18.4802 5.41768 18.5166 5.79315C18.5471 6.10456 18.2902 6.27739 18.1616 6.51226C17.9491 6.45465 17.8811 6.68791 17.7216 6.74109C17.6729 6.75721 17.633 6.80756 17.5934 6.84664C17.1356 7.29986 16.7023 7.7825 16.2135 8.19745C15.8815 8.47905 15.4752 8.67122 15.0949 8.89118C14.9865 8.95403 14.8863 9.0898 14.7221 8.99351C14.7019 8.98183 14.6268 9.10108 14.5769 9.10148C14.4479 9.10228 14.3114 9.09221 14.1915 9.0479C13.7811 8.89682 13.4186 8.65148 13.0562 8.40976C12.9525 8.34047 12.8658 8.30904 12.7685 8.4158C12.4962 8.71432 12.1326 8.84767 11.7701 8.98304C11.6067 9.04387 11.6518 9.20018 11.6937 9.27914C11.8916 9.65381 11.9217 10.0692 11.9937 10.472C12.0641 10.8672 12.0871 11.2709 12.1417 11.6693C12.2014 12.1085 12.2849 12.5444 12.3352 12.9843C12.3589 13.1906 12.33 13.4029 12.3229 13.6124C12.3071 14.0781 12.3039 14.5446 12.2703 15.0091C12.2287 15.5783 12.1611 16.146 12.1017 16.7471C12.2181 16.7072 12.3803 16.6878 12.497 16.6032C12.7598 16.4131 13.0795 16.3639 13.3482 16.2205C13.9022 15.9252 14.5041 15.9377 15.0858 15.837C15.5464 15.7572 16.0204 15.7786 16.487 15.8575C16.8491 15.9188 17.219 15.9462 17.5724 16.0392C17.9452 16.1375 18.3084 16.2822 18.6658 16.432C18.9665 16.5581 19.249 16.7281 19.5466 16.8623C19.6048 16.8885 19.7267 16.8683 19.7658 16.8224C20.0163 16.5275 20.2268 16.1939 20.4991 15.9236C20.7725 15.6521 21.0891 15.4184 21.4108 15.2061C22.0071 14.8129 22.6343 14.4817 23.3423 14.3343C23.6727 14.2654 23.9924 14.1441 24.3224 14.0728C24.5516 14.0233 24.7894 14.0064 25.024 13.9951C25.2995 13.9822 25.5765 13.9757 25.8511 13.9939C26.2448 14.0201 26.6374 14.0664 27.0295 14.1139C27.5055 14.1715 27.959 14.3194 28.3983 14.5083C28.8549 14.7049 29.3159 14.8971 29.7516 15.1356C30.0136 15.279 30.2391 15.4974 30.4647 15.7008C30.5889 15.8128 30.712 15.9494 30.7785 16.1005C30.8885 16.3518 30.8497 16.4723 30.6119 16.5754C30.467 16.6383 30.3586 16.8091 30.1445 16.7438C30.0769 16.7233 29.955 16.8889 29.841 17.0327C29.5328 16.8164 29.2289 16.5932 28.9143 16.3865C28.7726 16.2934 28.6005 16.2487 28.46 16.1544C28.2214 15.9945 27.9373 15.9836 27.682 15.8789C27.4589 15.7874 27.2285 15.7012 26.9931 15.6573C26.6536 15.5941 26.3069 15.5663 25.9627 15.534C25.7581 15.5147 25.5511 15.505 25.3458 15.5107C25.1677 15.5155 24.9872 15.5336 24.8131 15.5707C24.4471 15.6493 24.0882 15.7745 23.7194 15.8229C23.3818 15.8672 23.0938 16.0231 22.7998 16.1585C22.5865 16.2568 22.3593 16.3446 22.184 16.536C22.0594 16.6721 21.8599 16.7354 21.7036 16.8454C21.6364 16.8925 21.6019 16.9856 21.5382 17.0399C21.4009 17.1568 21.2122 17.2353 21.1231 17.3796C21.0278 17.5339 20.9348 17.6809 20.8113 17.8122C20.7935 17.8312 20.8271 17.923 20.8588 17.9633C21.0677 18.23 21.3103 18.4737 21.4888 18.7594C21.687 19.0768 21.8465 19.4168 21.9699 19.7826C22.0918 20.1432 22.152 20.5026 22.1872 20.8732C22.207 21.0827 22.0368 21.2068 21.947 21.3655C21.932 21.3925 21.8504 21.3965 21.8053 21.3865C21.7108 21.3655 21.6197 21.3292 21.5279 21.297C21.2854 21.212 21.042 21.129 20.8022 21.0368C20.7709 21.0247 20.7579 20.9643 20.752 20.9062C20.7334 20.8486 20.7136 20.791 20.6962 20.733C20.6633 20.6242 20.6352 20.5134 20.5984 20.4063C20.5268 20.1972 20.4655 19.9825 20.3721 19.7835C20.2854 19.5985 20.1734 19.4233 20.0535 19.2581C19.9586 19.128 19.8402 19.0132 19.7223 18.9028C19.5256 18.7187 19.3234 18.5406 19.1185 18.3662C19.0441 18.3029 18.9594 18.2493 18.8727 18.2054C18.7057 18.1208 18.4964 18.0846 18.3733 17.9589C18.1941 17.7756 17.9369 17.8457 17.7509 17.6785C17.6266 17.5669 17.4094 17.5592 17.2309 17.5153C16.9622 17.4497 16.6924 17.3872 16.4205 17.3365C16.341 17.3215 16.2507 17.3699 16.17 17.3582C15.7965 17.3046 15.4103 17.2877 15.0529 17.363C14.5979 17.4593 14.1175 17.4783 13.6941 17.726C13.4649 17.8602 13.1919 17.9162 12.9628 18.0507C12.7234 18.1913 12.5196 18.3944 12.2881 18.5511C11.9814 18.7582 11.7131 19.0039 11.4979 19.3061C11.3918 19.4547 11.3174 19.6271 11.2098 19.7746C11.0111 20.0461 10.8081 20.314 10.4995 20.4752C10.3626 20.5469 10.2411 20.6323 10.0955 20.4989C10.0832 20.4877 10.0318 20.5203 9.98309 20.507C9.99575 20.4985 10.0084 20.4905 10.0207 20.482C9.95183 20.3914 9.9728 20.2641 9.87466 20.1754C9.78127 20.0912 9.7239 19.9647 9.65425 19.8544C9.46075 19.5462 9.51021 19.4479 9.74447 19.1715C9.95222 18.9266 10.1212 18.6288 10.2371 18.3267C10.3622 18.0008 10.4267 17.6459 10.4801 17.2978C10.5731 16.6907 10.6526 16.0803 10.7096 15.4688C10.767 14.8532 10.8149 14.2344 10.8188 13.6168C10.822 13.162 10.7571 12.7059 10.7068 12.2519C10.6368 11.623 10.5652 10.9937 10.4666 10.3689C10.4259 10.1094 10.3107 9.86249 10.2352 9.60828C10.1616 9.36092 10.0963 9.11074 10.0231 8.86298C10.0136 8.83116 9.97873 8.80618 9.95341 8.78039C9.83984 8.66356 9.72548 8.54794 9.61231 8.43111C9.51377 8.32959 9.52446 8.2325 9.61033 8.12252C9.6958 8.01294 9.75239 7.87838 9.8434 7.77525C9.97517 7.62578 10.1085 7.45779 10.2775 7.36996C10.3796 7.31719 10.5822 7.35667 10.6835 7.432C10.9407 7.62377 11.1955 7.57945 11.4437 7.47189C11.6755 7.37117 11.8793 7.21244 12.0178 6.98442C12.1908 6.7 12.7064 6.59525 12.947 6.6585C13.4139 6.78097 13.7922 7.06258 14.1871 7.30873C14.4352 7.46303 14.624 7.44449 14.8325 7.27489C15.2567 6.93044 15.6928 6.60009 16.1043 6.24033C16.4146 5.9688 16.6935 5.66101 16.9563 5.39915C16.8803 5.15984 16.8277 4.93786 16.7394 4.73119C16.652 4.52533 16.5404 4.32752 16.4189 4.13979C16.1767 3.76472 15.9041 3.41302 15.73 2.99041C15.635 2.76038 15.4103 2.58674 15.3117 2.35751C15.191 2.07551 14.9813 1.87568 14.7989 1.65089C14.7625 1.60617 14.6315 1.59247 14.5729 1.62269C14.0561 1.88817 13.5469 2.16937 13.0324 2.4397C12.8623 2.52913 12.6814 2.59802 12.5081 2.68142C12.4622 2.70357 12.4298 2.75272 12.3843 2.77649C11.8402 3.06091 11.2941 3.34171 10.75 3.62614C10.3958 3.81105 10.0448 4.00322 9.68987 4.18652C9.28822 4.394 8.88024 4.58939 8.48097 4.8017C8.27203 4.91248 8.07972 5.0551 7.87237 5.16911C7.73743 5.24324 7.58943 5.294 7.4454 5.34959C7.22459 5.4346 7.07303 5.56069 7.00022 5.81571C6.88665 6.21414 6.73193 6.6017 6.57602 6.98603C6.43396 7.33693 6.24679 7.6701 6.11858 8.02542C6.02638 8.28044 6.00461 8.56083 5.93972 8.82713C5.90925 8.95121 5.8396 9.06522 5.80676 9.1889C5.75413 9.3859 5.7296 9.59136 5.67024 9.78595C5.59585 10.0297 5.4989 10.2666 5.41065 10.5063C5.18985 11.1049 4.94728 11.6963 4.75417 12.3043C4.59549 12.803 4.50645 13.3243 4.36558 13.8295C4.26942 14.1748 4.13369 14.5083 4.0225 14.8492C3.8745 15.3028 3.71424 15.7532 3.59395 16.2145C3.50491 16.5565 3.47642 16.9142 3.41271 17.2635C3.33713 17.6769 3.25443 18.0886 3.17054 18.5003C3.10168 18.8383 3.02452 19.1747 2.95408 19.5123C2.89868 19.7794 2.84051 20.0465 2.79698 20.316C2.72457 20.7668 2.65097 21.2181 2.59992 21.6717C2.55402 22.0778 2.56154 22.4915 2.49862 22.894C2.45984 23.1434 2.50653 23.3613 2.60823 23.5652C2.67273 23.6941 2.80529 23.7912 2.91649 23.8919C3.21485 24.1622 3.5061 24.4422 3.82227 24.6891C4.19384 24.9796 4.5848 25.2455 4.97498 25.5098C5.37543 25.7809 5.78104 26.0456 6.19376 26.297C6.45454 26.4561 6.72956 26.5927 7.00418 26.7264C7.52216 26.9786 8.04015 27.232 8.56644 27.4649C8.88262 27.6047 9.2158 27.7054 9.54029 27.8275C9.77969 27.9177 10.0136 28.0253 10.2561 28.1046C10.6024 28.2182 10.955 28.3105 11.3032 28.4165C11.598 28.5059 11.8884 28.6114 12.1856 28.6916C12.41 28.752 12.6431 28.7774 12.8694 28.8302C13.1413 28.8939 13.408 28.9793 13.6802 29.0389C14.0269 29.1146 14.3759 29.1823 14.7265 29.2379C15.1491 29.3048 15.5729 29.3741 15.9987 29.4071C16.508 29.4466 17.02 29.4655 17.5309 29.4615C17.9056 29.4587 18.2811 29.4144 18.6547 29.3721C19.2411 29.3056 19.8193 29.194 20.359 28.939C20.6605 28.7968 20.9542 28.6372 21.2509 28.4857C21.3075 28.4567 21.3732 28.3915 21.4179 28.4044C21.5485 28.441 21.6961 28.4821 21.7879 28.5728C21.8659 28.6493 21.9256 28.659 22.0103 28.6421C22.1761 28.6094 22.3055 28.6707 22.4515 28.7553C22.7337 28.9196 23.0336 29.0562 23.3363 29.1791C23.7712 29.3551 24.2109 29.5195 24.656 29.6665C24.9117 29.7511 25.1831 29.785 25.4443 29.8531C25.6908 29.9175 25.931 30.009 26.1787 30.0666C26.3679 30.1105 26.5661 30.1133 26.758 30.1472C27.2574 30.2362 27.7529 30.3514 28.255 30.4195C28.667 30.4755 29.0856 30.4912 29.5015 30.5001C29.7627 30.5057 30.0262 30.4421 30.2866 30.4533C30.4548 30.4602 30.6324 30.5214 30.7832 30.602C31.0238 30.7309 31.0278 30.8614 30.8647 31.1112C30.7931 31.2212 30.7634 31.3594 30.6918 31.4694C30.585 31.6341 30.4845 31.8247 30.3317 31.9298C30.2138 32.0108 30.0199 31.9862 29.8592 31.9923C29.6448 31.9999 29.4287 32.0016 29.2146 31.9883C28.9083 31.9697 28.6017 31.9472 28.2982 31.9041C28.014 31.8638 27.7355 31.7828 27.4517 31.7409C27.1403 31.695 26.8257 31.6752 26.5127 31.6406C26.4316 31.6317 26.3517 31.612 26.2717 31.5951C26.0956 31.5572 25.9207 31.5121 25.7438 31.4798C25.6097 31.4557 25.4732 31.4472 25.3374 31.4319C25.3121 31.4291 25.2722 31.4367 25.2638 31.4234C25.1396 31.2285 24.9283 31.3513 24.7688 31.2808C24.565 31.1902 24.3577 31.0875 24.142 31.052C23.9928 31.0274 23.8745 30.9602 23.7415 30.9122C23.4717 30.8147 23.1951 30.7366 22.9244 30.6411C22.6791 30.5541 22.4357 30.4606 22.1963 30.3583C22.0689 30.3039 21.945 30.2346 21.8318 30.1544C21.7044 30.0638 21.6051 30.0215 21.4397 30.1077C21.0741 30.2986 20.6977 30.4803 20.3076 30.608C20.01 30.7051 19.6839 30.7104 19.3717 30.7644C19.3108 30.7748 19.257 30.8244 19.1984 30.853C19.1659 30.8691 19.1224 30.8997 19.0979 30.8892C18.8533 30.7857 18.6305 30.905 18.3979 30.942C18.2851 30.9601 18.1632 30.9086 18.0449 30.9046C17.9396 30.9013 17.834 30.9271 17.7283 30.9279C17.4723 30.9303 17.2159 30.9215 16.9595 30.9247C16.7228 30.9275 16.4862 30.9521 16.2504 30.9452C16.0917 30.9408 15.935 30.8913 15.7763 30.8743C15.5634 30.8514 15.3489 30.8457 15.1364 30.822C15.045 30.8115 14.958 30.7611 14.8666 30.7531C14.7957 30.7466 14.7114 30.8079 14.6513 30.7865C14.442 30.712 14.2069 30.7212 14.0178 30.6532C13.774 30.5653 13.5124 30.6507 13.279 30.4977C13.1511 30.4139 12.9509 30.4509 12.7875 30.4147C12.5243 30.3563 12.2648 30.2821 12.004 30.214C11.691 30.1323 11.3768 30.0557 11.0658 29.9659C10.8438 29.9018 10.6309 29.8011 10.4065 29.7532C10.2304 29.7153 10.0868 29.5767 9.88693 29.6049C9.81333 29.6154 9.71084 29.561 9.65188 29.5034C9.50982 29.3648 9.24509 29.5062 9.15605 29.2665C8.99816 29.3318 8.89845 29.1638 8.7362 29.165C8.55576 29.1662 8.37373 29.0341 8.19289 28.9583C8.05044 28.8983 7.90956 28.835 7.7679 28.7742C7.5463 28.6787 7.30294 28.6227 7.12804 28.3883V28.3903Z"
          fill="currentColor"/>
    <path d="M7.36328 23.7481C7.39494 23.6059 7.4171 23.4468 7.47091 23.3001C7.48793 23.253 7.59833 23.1994 7.64859 23.2131C7.95012 23.2957 8.24888 23.3577 8.56664 23.3557C8.77518 23.3545 8.81435 23.5995 8.92555 23.7372C9.0221 23.8569 9.09926 23.9995 9.21441 24.0958C9.67344 24.4809 10.174 24.8048 10.7082 25.0727C10.8534 25.1457 11.0101 25.1952 11.1613 25.2552C11.6354 25.4434 12.1055 25.6432 12.5847 25.8156C12.8827 25.9228 13.1929 25.9953 13.5008 26.0718C13.8957 26.1701 14.291 26.2709 14.691 26.3434C14.9724 26.3945 15.2617 26.4219 15.5478 26.4231C15.953 26.4252 16.3602 26.4131 16.7626 26.3692C16.968 26.3466 17.1619 26.2294 17.3664 26.1758C17.5948 26.1158 17.8282 26.1105 18.0514 26.2076C18.0799 26.2201 18.1048 26.2717 18.1084 26.3075C18.1266 26.5082 18.1381 26.7092 18.1511 26.9102C18.1583 27.0182 18.142 27.1342 18.1765 27.2321C18.222 27.3618 18.1939 27.4513 18.0918 27.5165C17.996 27.5778 17.8813 27.6092 17.7883 27.6736C17.6086 27.7985 17.3803 27.7284 17.209 27.8195C16.9866 27.9375 16.7745 27.9037 16.5513 27.8864C16.5125 27.8831 16.4717 27.9226 16.4302 27.9371C16.3815 27.954 16.3127 27.9943 16.2838 27.975C16.0638 27.8291 15.8335 27.9484 15.6107 27.9303C15.4196 27.915 15.2328 27.8493 15.0416 27.8324C14.8295 27.8134 14.6147 27.8287 14.401 27.8195C14.3127 27.8159 14.2245 27.7905 14.1378 27.7695C13.7722 27.6809 13.4074 27.589 13.0413 27.5016C12.904 27.469 12.7386 27.4839 12.6318 27.4098C12.4078 27.2543 12.1126 27.3646 11.9056 27.1733C11.8562 27.1278 11.7758 27.1141 11.7074 27.0931C11.4878 27.0262 11.2618 26.9759 11.0485 26.8929C10.9104 26.8389 10.7791 26.7692 10.6603 26.6564C10.5543 26.5557 10.3691 26.5464 10.2274 26.4775C10.0533 26.3929 9.89029 26.2854 9.71974 26.1927C9.52623 26.088 9.32719 25.9937 9.13606 25.8857C9.03476 25.8285 8.94296 25.7524 8.84878 25.6823C8.8005 25.646 8.76212 25.5916 8.70949 25.5671C8.47167 25.4547 8.28766 25.2911 8.14085 25.0647C8.03757 24.9051 7.89353 24.7682 7.75068 24.6409C7.48674 24.4056 7.42343 24.0881 7.36447 23.7489L7.36328 23.7481Z"
          fill="currentColor"/>
    <path d="M30.2285 25.1305C30.289 25.143 30.3685 25.1781 30.4449 25.172C30.672 25.1535 30.7868 25.257 30.8299 25.4782C30.8743 25.705 30.8838 25.9266 30.8046 26.1864C30.8363 26.205 30.8964 26.2396 30.9566 26.2747L30.9957 26.2267C30.9957 26.2533 31.0072 26.2932 30.9942 26.3053C30.7496 26.5301 30.5031 26.7428 30.1347 26.7069C30.0009 26.694 29.8624 26.7384 29.7255 26.7476C29.6899 26.75 29.6531 26.7122 29.6147 26.7041C29.2831 26.6352 28.9448 26.5994 28.646 26.4068C28.5487 26.3444 28.3888 26.3762 28.3006 26.3073C28.1601 26.1977 27.9959 26.153 27.8514 26.066C27.6916 25.9697 27.5685 25.8033 27.4035 25.7235C27.1874 25.6188 27.0608 25.4182 26.8705 25.2893C26.7581 25.2131 26.6279 25.1434 26.5899 24.9799C26.5792 24.9335 26.4834 24.9093 26.4284 24.8719C26.4106 24.8598 26.3932 24.8413 26.3841 24.8215C26.3236 24.6866 26.2611 24.5528 26.208 24.415C26.1471 24.2567 26.096 24.0948 26.0403 23.9344C25.9492 23.6717 26.0814 23.2737 26.3588 23.1875C26.4965 23.26 26.5982 23.3317 26.7106 23.3688C26.8768 23.4236 27.0529 23.4461 27.2207 23.4965C27.3762 23.5428 27.4719 23.6468 27.5372 23.8107C27.5903 23.9441 27.6995 24.0678 27.8122 24.1596C28.041 24.3453 28.2859 24.5117 28.5301 24.6761C28.6978 24.7893 28.8652 24.919 29.0524 24.9827C29.363 25.0882 29.6879 25.1547 30.0104 25.2192C30.0745 25.232 30.1545 25.1632 30.2289 25.1313L30.2285 25.1305Z"
          fill="currentColor"/>
</svg>
