<svg viewBox="0 0 20 20" fill="none" xmlns="http://www.w3.org/2000/svg">
<path d="M17.8993 1.42651H18.0878C18.1169 1.48081 18.099 1.59706 18.2325 1.56831C18.2615 1.70223 18.2362 1.85915 18.3446 1.97348L18.3435 1.98221L18.3518 1.98392C18.3576 1.99882 18.3668 2.02735 18.3689 2.02693C18.4371 2.00883 18.4542 2.05248 18.4591 2.10634C18.4627 2.14232 18.4598 2.17916 18.4598 2.24474C18.4733 2.24793 18.5135 2.2573 18.5536 2.26688C18.5509 2.27007 18.5482 2.27327 18.5455 2.27646C18.586 2.29988 18.6275 2.32181 18.6669 2.34736C18.7236 2.38398 18.7784 2.42379 18.8346 2.46105C18.8548 2.47447 18.8768 2.48469 18.8975 2.4964C18.8909 2.51428 18.8844 2.53238 18.8782 2.55048C18.8896 2.5541 18.9008 2.5575 18.9123 2.56112C18.9102 2.54963 18.9081 2.53792 18.9062 2.52642C18.9776 2.51811 19.049 2.50364 19.1204 2.50406C19.164 2.50406 19.2236 2.51428 19.246 2.54388C19.2676 2.57219 19.2558 2.63224 19.2491 2.67673C19.2408 2.7323 19.2166 2.78596 19.2116 2.84153C19.2095 2.86388 19.2404 2.88922 19.2595 2.91818H19.026C19.0758 3.04827 19.119 3.1609 19.1682 3.28907C19.1028 3.29759 19.0708 3.30163 19.0378 3.30589C19.109 3.40788 19.063 3.55117 18.9098 3.62185C18.9519 3.69211 18.899 3.71277 18.8552 3.75492C18.7763 3.83093 18.7157 3.92674 18.6453 4.01233C18.6408 4.01787 18.6186 4.0085 18.599 4.00509C18.5598 4.17074 18.4135 4.25676 18.3039 4.37301C18.1926 4.49096 18.0754 4.60317 17.9454 4.69791C17.9303 4.73432 17.9247 4.78329 17.8979 4.80394C17.8626 4.83141 17.8109 4.83716 17.779 4.8478C17.7501 4.90742 17.7345 4.98811 17.6866 5.02729C17.5928 5.10415 17.5579 5.26596 17.4257 5.26085C17.2665 5.41862 17.1166 5.56702 16.9668 5.71563C16.9514 5.74416 17.0132 5.8206 16.897 5.80931C16.8723 5.93004 16.7197 5.93706 16.6876 6.05672C16.6818 6.07822 16.618 6.08312 16.5653 6.101C16.5537 6.12591 16.5321 6.17233 16.5105 6.21853C16.4939 6.20938 16.4771 6.20022 16.4586 6.19021C16.4524 6.20384 16.4462 6.22513 16.4343 6.24238C16.4113 6.27602 16.3862 6.30859 16.36 6.33968C16.3362 6.368 16.3079 6.39248 16.2841 6.4208C16.2536 6.45721 16.1905 6.4521 16.1861 6.53045C16.1838 6.57303 16.1149 6.6137 16.0732 6.6516C16.0408 6.68098 16.0001 6.70142 15.9696 6.7325C15.9254 6.77764 15.887 6.82874 15.8314 6.89474C15.8357 6.89495 15.8137 6.89368 15.7917 6.89219C15.7975 6.89751 15.8031 6.90283 15.809 6.90815C15.7407 6.97543 15.6724 7.04293 15.6041 7.11021C15.6037 7.10851 15.603 7.10701 15.6026 7.10531C15.5829 7.13107 15.5626 7.1562 15.5437 7.18239C15.5242 7.20964 15.5063 7.23796 15.5005 7.2469C15.3824 7.36123 15.2776 7.46279 15.1512 7.585C15.1852 7.60523 15.2107 7.62035 15.2433 7.63972C15.1968 7.67868 15.0891 7.65888 15.157 7.80622C15.0374 7.68294 14.9785 7.73085 14.9202 7.81665C14.8892 7.862 14.8409 7.895 14.8006 7.93397C14.7805 7.95355 14.7458 7.9725 14.7439 7.99401C14.7367 8.08194 14.6815 8.06661 14.631 8.05767C14.6175 8.10132 14.6051 8.14177 14.5924 8.18201L14.5688 8.16242C14.5453 8.18478 14.5052 8.20436 14.5013 8.2297C14.4851 8.33573 14.4666 8.35021 14.3691 8.29847C14.3776 8.3302 14.3842 8.35511 14.3909 8.38023C14.3124 8.4292 14.2337 8.47796 14.1555 8.52693C14.2082 8.61507 14.1978 8.62614 14.0374 8.63296C14.0554 8.6617 14.0758 8.69385 14.1063 8.74239C14.0233 8.71961 13.9732 8.71621 13.9548 8.81393C13.9456 8.8629 13.8703 8.89803 13.8263 8.94125C13.7974 8.96957 13.7711 9.00066 13.7401 9.03451C13.7316 9.06985 13.7206 9.1152 13.7098 9.16055C13.577 9.16183 13.5357 9.20825 13.5208 9.37283C13.511 9.34728 13.5012 9.32173 13.4915 9.29618C13.4826 9.29362 13.4736 9.29086 13.4647 9.2883C13.4483 9.32386 13.4319 9.3592 13.4155 9.39476C13.3522 9.3724 13.3022 9.3839 13.281 9.48269C13.2731 9.51974 13.2165 9.54486 13.1841 9.57744C13.1492 9.61257 13.1131 9.64748 13.0851 9.68815C13.0776 9.69901 13.0923 9.73435 13.1058 9.75096C13.149 9.80461 13.1992 9.85252 13.2405 9.90745C13.2538 9.92534 13.2478 9.95834 13.2511 9.99049C13.3545 9.98133 13.4047 10.0452 13.4429 10.1425C13.4579 10.1806 13.5195 10.1996 13.5621 10.2287C13.5508 10.2385 13.5398 10.2483 13.5251 10.2613C13.6594 10.2988 13.6447 10.5091 13.7798 10.4968C13.7993 10.5541 13.8126 10.5932 13.8313 10.6486C13.8468 10.6186 13.8543 10.6039 13.8514 10.6096C13.9027 10.645 13.9552 10.6814 14.0108 10.7197C14.0023 10.7274 13.9867 10.7412 13.9886 10.7395C14.0673 10.8132 14.1443 10.8856 14.2225 10.9588C14.2219 10.9454 14.2211 10.9279 14.22 10.9069C14.306 11.0001 14.3888 11.0898 14.4805 11.1892C14.4789 11.196 14.4724 11.2241 14.4685 11.2409C14.5291 11.2897 14.5827 11.3329 14.636 11.3759C14.6636 11.4021 14.5972 11.4491 14.6989 11.4958C14.8002 11.5422 14.8625 11.6782 14.9523 11.7881C14.9465 11.7892 14.9706 11.7849 14.9947 11.7807V11.8688C15.0933 11.8339 15.0706 11.9293 15.0914 11.9889C15.1205 11.9797 15.1437 11.9723 15.1753 11.9623C15.1697 11.9942 15.1653 12.0187 15.1611 12.0432C15.1688 12.0364 15.1765 12.0293 15.1842 12.0225C15.2222 12.0493 15.2622 12.0738 15.2977 12.1039C15.3461 12.1449 15.3681 12.225 15.4555 12.2082C15.464 12.2065 15.4862 12.241 15.4901 12.261C15.4947 12.2846 15.486 12.3108 15.4825 12.3413C15.5582 12.3093 15.5408 12.3215 15.5937 12.4013C15.6485 12.4841 15.7417 12.5403 15.8179 12.6085C15.8694 12.6544 15.9235 12.6981 15.9692 12.7496C15.9789 12.7607 15.958 12.8007 15.9559 12.8086C15.9918 12.8335 16.0275 12.8499 16.052 12.8769C16.1234 12.9561 16.1836 13.0479 16.2627 13.1171C16.2926 13.1431 16.3519 13.1333 16.348 13.1997C16.3708 13.195 16.3937 13.1903 16.431 13.1827C16.4341 13.2331 16.4373 13.2815 16.4391 13.3096C16.4744 13.3147 16.5128 13.3202 16.5645 13.3277C16.5381 13.3717 16.5238 13.3954 16.5251 13.3935C16.6311 13.4763 16.7411 13.5414 16.8246 13.6324C16.9234 13.7399 16.9927 13.8757 17.088 13.9873C17.1367 14.0443 17.2144 14.0754 17.2876 14.124V14.1881C17.4305 14.2668 17.4641 14.4883 17.6685 14.4838C17.6108 14.606 17.7285 14.6239 17.7626 14.6837C17.8097 14.7665 17.8925 14.8281 17.9595 14.8994C17.966 14.9062 17.9685 14.9241 17.9732 14.9241C18.1333 14.9305 18.1362 15.1046 18.229 15.1864C18.3354 15.2801 18.4357 15.3912 18.5357 15.4977C18.637 15.6054 18.7331 15.721 18.8471 15.8124C18.9316 15.8801 18.9716 16.0138 19.042 16.0398C19.1601 16.0834 19.0727 16.212 19.1636 16.2422C19.1736 16.2454 19.1752 16.2748 19.185 16.278C19.2531 16.2993 19.268 16.3542 19.2747 16.4162C19.2734 16.4213 19.272 16.4264 19.2707 16.4315C19.2761 16.4294 19.2815 16.427 19.2869 16.4249C19.3205 16.4884 19.3102 16.5316 19.233 16.5522C19.2898 16.5639 19.3469 16.5757 19.4054 16.5876C19.378 16.6078 19.3486 16.6295 19.3369 16.6382C19.3332 16.7219 19.3274 16.7956 19.3286 16.869C19.3291 16.8871 19.3525 16.9048 19.365 16.9231C19.41 16.9883 19.5383 16.9949 19.4976 17.1224C19.4939 17.1341 19.514 17.1644 19.5283 17.169C19.546 17.1748 19.5692 17.1627 19.596 17.1571C19.5568 17.1982 19.5632 17.277 19.4764 17.2817C19.4619 17.2825 19.4515 17.3411 19.437 17.3719C19.4295 17.3879 19.4175 17.402 19.4065 17.416C19.3895 17.4375 19.3699 17.4571 19.3546 17.4797C19.3178 17.5338 19.2736 17.5853 19.2496 17.6449C19.2037 17.759 19.0775 17.8042 19.031 17.9213C19.0275 17.8974 19.0239 17.8736 19.0198 17.8444C18.937 17.9301 18.8853 17.9501 18.8647 17.9042C18.8218 17.9566 18.9002 18.0477 18.7913 18.0886C18.745 18.1061 18.6659 18.0978 18.6412 18.1697C18.6825 18.2093 18.6447 18.319 18.577 18.3741C18.5034 18.434 18.4434 18.5119 18.3689 18.5709C18.3031 18.623 18.2285 18.6656 18.1532 18.702C18.0752 18.7397 17.9913 18.7652 17.9031 18.7987C17.9213 18.8281 17.938 18.8545 17.9618 18.8928C17.9651 18.8632 17.9666 18.8485 17.9718 18.8014C17.9934 18.8532 18.004 18.8787 18.0102 18.8936C17.9238 18.923 17.8516 18.9479 17.7812 18.9718C17.7767 19.0024 17.7723 19.032 17.7677 19.0618C17.7501 19.0495 17.7325 19.0371 17.7028 19.0165C17.7078 19.0599 17.7117 19.0944 17.7161 19.1329C17.5162 19.2686 17.3887 19.486 17.4435 19.569C17.401 19.6314 17.3626 19.6876 17.3099 19.7651C17.2617 19.7578 17.1895 19.7353 17.1187 19.7395C17.0481 19.7438 16.9792 19.7749 16.923 19.7906C16.9198 19.7951 16.9298 19.781 16.9396 19.7668C16.9362 19.7593 16.9329 19.7519 16.9294 19.7442C16.8893 19.7598 16.8493 19.7755 16.7918 19.7979C16.6411 19.8057 16.5186 19.7044 16.3935 19.5858C16.3171 19.606 16.2189 19.5377 16.2166 19.4636C16.1905 19.4587 16.15 19.4591 16.1477 19.4498C16.1311 19.3829 16.068 19.3806 16.0294 19.3465C15.9256 19.2547 15.8312 19.1515 15.7369 19.0488C15.662 18.9673 15.5931 18.8804 15.5196 18.7936C15.4847 18.8149 15.4563 18.8323 15.4279 18.8496C15.4235 18.8427 15.4191 18.8359 15.4148 18.8291C15.4362 18.8042 15.4575 18.7791 15.4696 18.765C15.4013 18.6924 15.3421 18.6296 15.2738 18.557C15.2851 18.5504 15.2589 18.5694 15.2566 18.5668C15.1796 18.477 15.1076 18.3824 15.0279 18.2951C15.0071 18.2724 14.9648 18.2668 14.9312 18.2602C14.8921 18.2526 14.8515 18.2523 14.8045 18.2483C14.8228 18.1925 14.8357 18.1538 14.8496 18.1108C14.8174 18.0833 14.784 18.0548 14.7406 18.0179C14.7101 18.0465 14.6796 18.0752 14.6607 18.0931C14.5627 17.9792 14.4598 17.8593 14.3566 17.7394C14.3639 17.7335 14.3711 17.7275 14.3784 17.7215C14.3931 17.7448 14.4079 17.768 14.4235 17.7927C14.4839 17.7299 14.4384 17.6845 14.3998 17.6489C14.3276 17.5825 14.2487 17.5238 14.1677 17.458C14.1607 17.4692 14.1491 17.488 14.1295 17.5191C14.0849 17.4471 14.0434 17.3802 14.0019 17.3134C14.0019 17.3023 14.0019 17.2913 14.0019 17.2802C13.9778 17.2442 13.9562 17.2057 13.929 17.1724C13.8493 17.0747 13.741 16.9904 13.6953 16.8788C13.6629 16.7994 13.6079 16.8126 13.5662 16.7809C13.5606 16.7766 13.5405 16.7922 13.5297 16.7971C13.5374 16.6734 13.4099 16.6429 13.3557 16.5582C13.3261 16.512 13.2883 16.4713 13.2549 16.4277C13.2472 16.4177 13.2441 16.4006 13.2345 16.396C13.1145 16.337 13.0571 16.2165 12.9738 16.1213C12.9387 16.0811 12.9026 16.0412 12.8628 16.0065C12.8534 15.9984 12.8264 16.0112 12.8184 16.0127C12.6816 15.8379 12.5579 15.6571 12.3571 15.5554L12.3553 15.5575C12.3727 15.5418 12.3904 15.526 12.425 15.4947C12.3669 15.4662 12.3094 15.4538 12.2758 15.4178C12.2274 15.3661 12.2177 15.4034 12.1981 15.4364C12.248 15.3657 12.2494 15.3148 12.1548 15.2801C12.1423 15.2754 12.0404 15.2513 12.0927 15.1734C12.0692 15.16 12.0348 15.1525 12.0246 15.1321C11.9883 15.0599 11.9476 15.0024 11.8534 15.0284C11.8702 14.9739 11.9161 14.9205 11.8183 14.919C11.7814 14.9186 11.7446 14.899 11.7012 14.886C11.7789 14.735 11.5134 14.7708 11.5586 14.655C11.4881 14.5996 11.4258 14.5506 11.3498 14.491C11.2487 14.5268 11.2969 14.4108 11.2759 14.3567C11.2338 14.3858 11.1927 14.414 11.1423 14.4487C11.1389 14.4167 11.1327 14.3967 11.1356 14.378C11.1462 14.3096 11.1352 14.263 11.0779 14.2072C10.9789 14.1112 10.9077 13.9858 10.8166 13.8802C10.7199 13.7682 10.6273 13.6498 10.493 13.5781C10.4756 13.5687 10.4727 13.5312 10.4712 13.528C10.4226 13.504 10.3903 13.488 10.3585 13.4729C10.3141 13.4358 10.3008 13.3106 10.2047 13.4152C10.0552 13.3511 10.1437 13.1718 10.0436 13.0649C10.0289 13.198 9.84083 13.0705 9.83481 13.2308C9.82526 13.2195 9.81322 13.205 9.79101 13.1784C9.76673 13.2206 9.74016 13.2668 9.71338 13.3132C9.67166 13.2493 9.65236 13.2199 9.6343 13.1927C9.60877 13.2491 9.58988 13.2911 9.56539 13.3451C9.55522 13.3407 9.53301 13.3309 9.53218 13.3307C9.44645 13.3984 9.36571 13.455 9.29535 13.5227C9.27438 13.5427 9.28248 13.5947 9.27729 13.6319C9.26878 13.6247 9.26027 13.6172 9.25196 13.61C9.2036 13.6556 9.15503 13.7009 9.10708 13.7469C9.10273 13.7512 9.10086 13.7599 9.10106 13.7667C9.10369 13.8678 9.04509 13.9213 8.92526 13.9272C8.91799 13.9277 8.91135 13.9417 8.90076 13.9536C8.9182 13.9668 8.9373 13.9813 8.94913 13.9905C8.90222 14.003 8.85614 14.0152 8.81027 14.0275L8.8167 14.0644C8.836 14.0665 8.85531 14.0686 8.8744 14.0707C8.87523 14.0801 8.87606 14.0895 8.87689 14.0991C8.8441 14.1037 8.81151 14.1084 8.77311 14.1137C8.78266 14.0842 8.79075 14.0584 8.80445 14.0156C8.75568 14.0386 8.72164 14.0546 8.69444 14.0673V14.1655C8.68241 14.161 8.67037 14.1563 8.65501 14.1506C8.64546 14.2843 8.54043 14.3288 8.44495 14.3799C8.46571 14.4084 8.48937 14.4412 8.51324 14.4742C8.39783 14.4759 8.33598 14.5032 8.33826 14.6143L8.33868 14.6092C8.28367 14.6411 8.22908 14.6733 8.17366 14.7048C8.16308 14.7108 8.14772 14.7101 8.13921 14.7178C8.12302 14.7327 8.10828 14.7501 8.09645 14.7689C8.0815 14.7929 8.06552 14.8428 8.05826 14.8413C7.9524 14.8181 7.93828 14.9288 7.881 14.9716C7.77285 15.0527 7.70643 15.1851 7.57899 15.2488C7.56736 15.2545 7.57255 15.2954 7.56903 15.3273C7.541 15.3384 7.49762 15.3557 7.44864 15.3753C7.4532 15.3872 7.46151 15.408 7.4696 15.4291L7.44926 15.4087C7.38305 15.4832 7.327 15.5726 7.24834 15.6288C7.14289 15.704 7.09308 15.8507 6.94799 15.8724C6.93761 15.8739 6.92661 15.8869 6.92018 15.8973C6.87036 15.9782 6.82158 16.0598 6.77218 16.1417C6.76139 16.1287 6.74873 16.1134 6.72423 16.0838C6.71137 16.1262 6.70576 16.1586 6.69185 16.1867C6.68189 16.2067 6.65532 16.2382 6.64577 16.235C6.52933 16.1962 6.5862 16.3006 6.55777 16.3449C6.53473 16.3197 6.51273 16.2957 6.50069 16.2825C6.43302 16.39 6.36681 16.502 6.29229 16.608C6.27672 16.6302 6.22027 16.6204 6.202 16.6423C6.13932 16.7181 6.08535 16.8013 6.02038 16.8925C5.98675 16.8878 5.8344 17.0047 5.80617 17.0756C5.79725 17.0979 5.77483 17.1162 5.75573 17.1326C5.7327 17.1524 5.70405 17.1654 5.68226 17.1861C5.58761 17.2763 5.49337 17.367 5.40142 17.4603C5.34745 17.5152 5.29556 17.5729 5.24803 17.6338C5.23143 17.6551 5.23018 17.6894 5.21897 17.7279C5.01971 17.8091 4.86279 17.9677 4.72704 18.1491C4.66602 18.1987 4.5969 18.2415 4.54771 18.3015C4.52799 18.3256 4.5255 18.3499 4.48793 18.3731C4.40116 18.4265 4.35508 18.5287 4.26625 18.5953C4.21228 18.6358 4.14607 18.6886 4.08442 18.741C4.09065 18.7244 4.09687 18.7078 4.10331 18.6912C4.09521 18.6863 4.08691 18.6811 4.07882 18.6762C4.06366 18.7039 4.03751 18.7308 4.03523 18.7595C4.02589 18.8804 3.93331 18.9577 3.81977 18.9483C3.79009 18.9458 3.73903 18.9865 3.72803 19.0184C3.70354 19.0889 3.65144 19.1187 3.59664 19.1532C3.56405 19.1736 3.53748 19.2045 3.51777 19.2222C3.49763 19.2021 3.47293 19.1774 3.45903 19.1634C3.40838 19.2168 3.36666 19.2609 3.30501 19.3258C3.28903 19.2639 3.28176 19.2362 3.27076 19.1936C3.24482 19.2147 3.20746 19.2296 3.19874 19.2549C3.17508 19.3239 3.15723 19.3488 3.07482 19.3152C3.02812 19.2962 2.95464 19.3465 2.88967 19.3665C2.90441 19.3967 2.91417 19.4165 2.92226 19.4334C2.82803 19.4529 2.73877 19.4715 2.6298 19.4943C2.64018 19.5036 2.63022 19.4949 2.62067 19.486C2.57604 19.4446 2.53453 19.4106 2.57023 19.3322C2.60925 19.2466 2.62378 19.1495 2.65429 19.0593C2.67194 19.0073 2.61257 18.8129 2.55446 18.7565C2.51543 18.7188 2.46811 18.6867 2.44113 18.6415C2.42929 18.622 2.45877 18.5762 2.47101 18.5379C2.42577 18.5285 2.37387 18.5176 2.30434 18.5031C2.29521 18.4825 2.2757 18.4382 2.25556 18.3926C2.22028 18.3565 2.18022 18.3154 2.15302 18.2873C2.10861 18.3036 2.06834 18.3183 2.02101 18.3358C2.02703 18.3477 2.03949 18.3716 2.05173 18.3956C2.04634 18.4037 2.04115 18.4116 2.03575 18.4197C2.00399 18.3933 1.97223 18.3669 1.94069 18.3405C1.9357 18.3364 1.93114 18.332 1.92616 18.3277C1.8351 18.3801 1.7572 18.4053 1.69244 18.4035C1.69036 18.2907 1.77173 18.2281 1.83234 18.1542C1.73499 18.1154 1.62166 18.1169 1.58201 17.9783C1.56956 17.9345 1.47636 17.9149 1.41575 17.8817C1.41015 17.8938 1.40019 17.9149 1.38794 17.9408C1.4089 17.9443 1.42779 17.9474 1.44647 17.9504C1.44045 17.9624 1.43443 17.9741 1.42862 17.986C1.39707 17.9643 1.35618 17.9494 1.33563 17.9198C1.25489 17.8035 1.18826 17.6762 1.10046 17.5665C1.06206 17.5184 1.01598 17.4541 0.930672 17.4618C0.817549 17.4718 0.768564 17.4007 0.747807 17.2947C0.739297 17.2512 0.697992 17.2123 0.696746 17.1705C0.695708 17.1333 0.729749 17.0952 0.761299 17.0306C0.762129 17.0311 0.738675 17.0168 0.71522 17.0023C0.709615 16.9987 0.701935 16.9947 0.69986 16.9891C0.666857 16.8967 0.617249 16.8062 0.606455 16.7111C0.590058 16.5659 0.629495 16.5007 0.726636 16.4113C0.729957 16.341 0.732655 16.2838 0.735353 16.2254C0.753412 16.2243 0.772923 16.2231 0.783509 16.2224C0.799076 16.1684 0.812775 16.1204 0.830418 16.0593C0.816096 16.0436 0.791189 16.0161 0.760676 15.9825C0.777697 15.9669 0.800529 15.9557 0.808209 15.9378C0.847231 15.8466 0.873177 15.7485 0.921747 15.6635C0.954335 15.6065 1.01681 15.5671 1.06601 15.5202C1.14945 15.4408 1.23268 15.3612 1.31695 15.2828C1.40454 15.2013 1.49442 15.1223 1.58056 15.0393C1.59654 15.0239 1.60049 14.9946 1.60817 14.9711C1.61792 14.9416 1.61917 14.9049 1.63743 14.8839C1.64636 14.8734 1.686 14.8911 1.73395 14.9002C1.73686 14.8677 1.7271 14.8172 1.74682 14.7885C1.79996 14.7114 1.8533 14.6211 1.92927 14.5777C2.03637 14.5164 2.10383 14.4286 2.17337 14.3341C2.19059 14.3107 2.23418 14.3077 2.25888 14.2981C2.284 14.2636 2.31679 14.1942 2.33527 14.1978C2.40937 14.2128 2.39671 14.1461 2.42431 14.1197C2.4515 14.0937 2.48077 14.0699 2.51004 14.0463C2.61735 13.959 2.65263 13.8052 2.80042 13.7465C2.86829 13.7194 2.90711 13.614 2.95817 13.5436C3.01234 13.469 3.08229 13.4184 3.16241 13.3741C3.22365 13.3402 3.27056 13.2796 3.32515 13.2323C3.34445 13.2155 3.36998 13.1884 3.38866 13.1914C3.48103 13.2065 3.47065 13.1507 3.46048 13.0826C3.51839 13.1218 3.55471 13.1209 3.56924 13.0409C3.5763 13.0026 3.61449 12.9691 3.64148 12.9359C3.68527 12.8816 3.7326 12.8303 3.77598 12.7756C3.86917 12.6579 3.95469 12.5331 4.05536 12.4224C4.11182 12.3604 4.19526 12.3253 4.26002 12.2701C4.30817 12.2293 4.34574 12.1754 4.38975 12.1254C4.38041 12.1141 4.39079 12.1266 4.40116 12.1392C4.56182 11.9789 4.63599 11.8893 4.62367 11.8703C4.70649 11.7877 4.78682 11.7063 4.86819 11.6265C4.9151 11.5803 4.96636 11.5386 5.0112 11.4905C5.09277 11.4027 5.23433 11.3665 5.24222 11.2137C5.27667 11.222 5.31341 11.2309 5.33209 11.2354C5.39685 11.1587 5.45331 11.0917 5.50977 11.0246C5.51226 11.0263 5.51475 11.028 5.51724 11.0297C5.56747 10.9807 5.6177 10.932 5.66752 10.8826C5.6972 10.8532 5.72647 10.8232 5.75573 10.7934C5.76508 10.784 5.77732 10.7757 5.78251 10.7644C5.79268 10.7421 5.84686 10.6759 5.86948 10.6586C5.87861 10.6516 5.88733 10.6371 5.88754 10.626C5.88795 10.5349 5.944 10.5328 6.01623 10.5449C6.02453 10.5123 6.02744 10.4759 6.0428 10.4465C6.06584 10.4029 6.07995 10.3552 6.14264 10.3382C6.20885 10.3201 6.25493 10.2598 6.28212 10.1942C6.3446 10.0439 6.49986 9.99602 6.5972 9.88552C6.62149 9.85806 6.69082 9.8538 6.6491 9.77715C6.63851 9.75756 6.71116 9.69028 6.75184 9.63684C6.71074 9.61427 6.66342 9.58829 6.61609 9.56253C6.57852 9.49483 6.54095 9.42712 6.50339 9.35941C6.41143 9.26999 6.31948 9.18057 6.22504 9.0888C6.22338 9.09285 6.21757 9.10647 6.21736 9.1069C6.19474 9.06645 6.16796 9.01854 6.13184 8.95403C6.12458 8.99086 6.12084 9.00875 6.11482 9.03941C6.08597 8.97383 6.06148 8.91762 6.03221 8.85098C5.99319 8.88143 5.96538 8.90314 5.92947 8.93104C5.92303 8.90336 5.91265 8.88356 5.91494 8.86567C5.93486 8.71323 5.80866 8.64978 5.73207 8.55929C5.71443 8.53842 5.65341 8.55631 5.6148 8.55631C5.62621 8.54694 5.64842 8.52906 5.67914 8.50393C5.5463 8.36469 5.41699 8.23034 5.28913 8.0945C5.23911 8.04127 5.19842 7.97612 5.14113 7.93397C5.11228 7.91267 5.05603 7.93035 4.98982 7.93035C4.96553 7.87009 4.92713 7.77471 4.88334 7.6657C4.85096 7.71041 4.83498 7.73255 4.8192 7.75448C4.80322 7.72723 4.78433 7.70125 4.77167 7.67251C4.7534 7.63099 4.73929 7.58756 4.72414 7.54668C4.68594 7.54093 4.64547 7.54221 4.61143 7.52794C4.57095 7.51091 4.52321 7.50644 4.54874 7.42191C4.56556 7.36634 4.54293 7.25818 4.42669 7.25797C4.4377 7.28096 4.44787 7.30226 4.45804 7.32355C4.40635 7.30417 4.36505 7.28991 4.33412 7.23519C4.30008 7.17515 4.22183 7.14278 4.16973 7.09126C4.1469 7.06869 4.12199 7.01866 4.13154 6.99673C4.16579 6.91923 4.15105 6.87707 4.06781 6.86429C4.02775 6.85812 3.98458 6.86131 3.94784 6.84705C3.91276 6.83321 3.86502 6.80745 3.92148 6.75805C3.92169 6.75273 3.9221 6.74719 3.92231 6.74187C3.88308 6.68715 3.84406 6.63243 3.80338 6.57878C3.80255 6.57771 3.78345 6.59134 3.77286 6.59794L3.77743 6.59901C3.76581 6.5956 3.75439 6.59219 3.74277 6.58879C3.78656 6.51874 3.75626 6.4819 3.69752 6.43528C3.63359 6.38439 3.56239 6.34585 3.5269 6.246C3.50199 6.17552 3.37683 6.14018 3.2936 6.09483C3.25084 6.07162 3.1923 6.07183 3.15785 6.04139C3.07399 5.96751 2.9783 5.90023 2.94655 5.78078C3.07129 5.73799 2.99678 5.86637 3.04369 5.89725C3.05261 5.89086 3.06859 5.88575 3.07275 5.87553C3.12173 5.75609 2.9646 5.76141 2.95423 5.67497C2.95319 5.6656 2.91977 5.65559 2.90109 5.65517C2.89341 5.65517 2.88552 5.67965 2.87763 5.69306C2.86144 5.68242 2.8301 5.66964 2.83114 5.66134C2.8521 5.50868 2.75351 5.43331 2.65554 5.34857C2.54325 5.25127 2.43677 5.14758 2.35166 5.01983C2.30704 4.95298 2.22028 4.91721 2.16278 4.85717C2.09802 4.78925 2.04488 4.70983 1.99652 4.62595C1.93508 4.62148 1.88111 4.61828 1.85787 4.5197C1.84853 4.47968 1.74557 4.46307 1.68517 4.43582C1.71693 4.43582 1.74869 4.43582 1.78127 4.43582C1.74433 4.38216 1.71527 4.34043 1.6887 4.30189C1.68144 4.30977 1.66836 4.32382 1.65528 4.33788C1.62228 4.3004 1.58948 4.26272 1.55565 4.2261C1.54901 4.21907 1.52971 4.21588 1.52991 4.21205C1.53739 4.09473 1.4226 4.07067 1.37154 3.99807C1.3155 3.91823 1.22957 3.86117 1.16439 3.78686C1.13865 3.75748 1.13429 3.70851 1.11831 3.66273C1.10565 3.67189 1.09091 3.68232 1.07701 3.69233C1.03093 3.63122 0.982149 3.57224 0.939805 3.50901C0.863836 3.39553 0.793679 3.278 0.71522 3.16622C0.706709 3.15408 0.660422 3.16984 0.649837 3.1709C0.628457 3.06445 0.604795 2.94628 0.581132 2.8279C0.571584 2.82875 0.562036 2.82982 0.552281 2.83067C0.572415 2.81257 0.592341 2.79447 0.600644 2.78702C0.586529 2.724 0.574905 2.67141 0.562036 2.61392C0.557678 2.61563 0.531524 2.62521 0.492917 2.63947C0.510353 2.61052 0.519901 2.59476 0.531317 2.5756C0.408853 2.58412 0.395362 2.5509 0.403249 2.43316C0.406985 2.37759 0.482124 2.30563 0.394531 2.2524C0.427327 2.20556 0.460122 2.15851 0.482124 2.12699C0.679103 2.21046 0.841834 2.13594 1.00602 2.04481C0.993357 2.01351 0.979865 1.9803 0.968034 1.95113C1.01411 1.93921 1.05314 1.9292 1.09195 1.9194C1.08344 1.93899 1.07514 1.95815 1.06684 1.97753C1.0822 1.97348 1.09735 1.96944 1.11271 1.96518L1.11042 1.96263C1.12329 1.94794 1.13616 1.93303 1.14903 1.91834V1.92153C1.13409 1.91408 1.11935 1.90663 1.1044 1.89918C1.1179 1.89726 1.13741 1.90067 1.14384 1.89279C1.18203 1.84638 1.21338 1.79485 1.28457 1.79443C1.29682 1.79443 1.30886 1.7561 1.31861 1.73971C1.44398 1.7891 1.4444 1.67072 1.48923 1.61856C1.46142 1.57065 1.43589 1.52701 1.41036 1.48357C1.4143 1.4791 1.41804 1.47484 1.42198 1.47037C1.43609 1.47889 1.45 1.48719 1.46412 1.49571C1.47076 1.49273 1.47719 1.48975 1.48383 1.48677C1.46619 1.44929 1.44876 1.41182 1.42675 1.36519C1.4583 1.32815 1.49567 1.28386 1.53054 1.24298C1.67978 1.26257 1.78314 1.18294 1.90021 1.10331C2.02413 1.019 1.97307 0.89998 2.00794 0.799912L2.00628 0.802254C2.01209 0.796505 2.0179 0.790544 2.02371 0.784795L2.02184 0.78224C2.06668 0.888483 2.12978 0.836107 2.19848 0.800763C2.17523 0.785221 2.15635 0.772659 2.13746 0.759884L2.1387 0.763291C2.1387 0.733483 2.1387 0.703675 2.13849 0.673868L2.13787 0.675997C2.26096 0.699843 2.38487 0.674506 2.4266 0.553359C2.48554 0.382178 2.65948 0.307233 2.71553 0.141587C2.71739 0.135838 2.72507 0.129451 2.73089 0.128386C2.77676 0.11987 2.82263 0.110714 2.86892 0.105392C2.89964 0.101985 2.93098 0.104753 2.9781 0.104753C3.00197 0.0766485 3.04244 0.0293819 3.06735 0C3.14685 0.0404533 3.2197 0.0785647 3.2936 0.114547C3.36313 0.148613 3.43349 0.18055 3.52731 0.22441C3.52918 0.22739 3.54849 0.255495 3.57173 0.289774C3.612 0.228029 3.63525 0.153297 3.71392 0.258689C3.7465 0.302548 3.84696 0.289774 3.91359 0.311704C3.94473 0.321923 3.96777 0.355989 3.99724 0.374726C4.05515 0.411772 4.11535 0.445413 4.17388 0.481608C4.20128 0.498641 4.22702 0.518654 4.27102 0.549527C4.38975 0.507583 4.35612 0.680894 4.43894 0.722625C4.50889 0.757968 4.55912 0.834191 4.60977 0.901471C4.66602 0.908071 4.71583 0.91382 4.74427 0.999624C4.76191 1.05328 4.82896 1.08969 4.87421 1.13333C4.87877 1.1378 4.89185 1.14015 4.89164 1.14185C4.87379 1.2598 5.00165 1.26023 5.04254 1.3356C5.07264 1.39117 5.14508 1.42247 5.20382 1.46846C5.18638 1.48485 5.17123 1.49933 5.1731 1.49741C5.22188 1.54425 5.2692 1.58854 5.31487 1.6341C5.35181 1.67094 5.38876 1.7082 5.42218 1.74822C5.45767 1.79059 5.55564 1.78761 5.5187 1.88513C5.51704 1.88938 5.54028 1.91153 5.5463 1.9094C5.62269 1.88087 5.65901 1.90131 5.64697 1.98903C5.64656 1.99158 5.64988 1.99563 5.65258 1.99776C5.76009 2.08356 5.82382 2.21642 5.95832 2.27688C6.01914 2.30414 6.06397 2.3712 6.11254 2.42379C6.1472 2.46127 6.17336 2.50704 6.20781 2.54494C6.28461 2.62883 6.3639 2.71037 6.44278 2.79235C6.46872 2.81917 6.49218 2.8543 6.52393 2.86814C6.60219 2.90263 6.6574 2.98439 6.63685 3.03762C6.65885 3.06423 6.67504 3.09021 6.69704 3.10937C6.73295 3.14046 6.77073 3.16984 6.81079 3.19475C6.85106 3.21987 6.89402 3.22477 6.91042 3.29226C6.92246 3.34187 6.99282 3.38062 7.04326 3.41511C7.09453 3.45024 7.17963 3.46366 7.09246 3.53946C7.19229 3.61802 7.2886 3.6936 7.38782 3.77153C7.4065 3.81432 7.42954 3.86649 7.453 3.91993C7.56404 3.92674 7.63607 3.99211 7.65433 4.10261C7.65683 4.1173 7.66886 4.1322 7.67987 4.14327C7.69772 4.16137 7.71847 4.17649 7.72553 4.20566C7.76829 4.22737 7.82142 4.23909 7.85152 4.27273C7.91711 4.34618 7.97108 4.43049 8.02173 4.49969C8.04912 4.5048 8.0786 4.50097 8.09271 4.51438C8.17947 4.5972 8.26271 4.68386 8.3474 4.76945C8.32975 4.78244 8.31128 4.79628 8.28886 4.81267C8.40489 4.8297 8.47173 4.88847 8.47712 4.98492C8.54583 5.03282 8.61536 5.06327 8.65916 5.11628C8.70295 5.1693 8.77851 5.18591 8.79843 5.27426C8.80923 5.3226 8.89724 5.34815 8.94062 5.39392C9.02468 5.48271 9.09899 5.5815 9.18264 5.67071C9.2503 5.74267 9.32773 5.80506 9.39726 5.87553C9.42072 5.89938 9.43358 5.93451 9.45123 5.96453C9.44396 5.97177 9.43649 5.979 9.42923 5.98624C9.47157 5.99604 9.51412 6.00583 9.56269 6.01733C9.55397 6.04203 9.5465 6.06353 9.53571 6.09376C9.55231 6.09249 9.5712 6.08546 9.57763 6.09164C9.65298 6.16615 9.73082 6.23876 9.79931 6.31966C9.87964 6.4142 9.98529 6.42569 10.081 6.34798C10.103 6.3301 10.1439 6.33691 10.1787 6.3318C10.2117 6.25238 10.2377 6.16977 10.3263 6.12208C10.3707 6.09802 10.4021 6.03883 10.4274 5.98922C10.4625 5.92067 10.5503 5.89725 10.5605 5.80144C10.5638 5.77035 10.6522 5.75396 10.6939 5.72053C10.783 5.64963 10.8666 5.57149 10.953 5.49697C11.035 5.42607 11.1194 5.35815 11.1987 5.28406C11.2216 5.26277 11.2299 5.22508 11.2527 5.17888C11.3058 5.1397 11.3891 5.0967 11.447 5.03027C11.4982 4.9715 11.5213 4.88676 11.5605 4.80586C11.6149 4.83056 11.6466 4.80905 11.683 4.72729C11.7205 4.64255 11.8096 4.58166 11.8766 4.51076C11.9381 4.44604 11.9987 4.38046 12.0622 4.31786C12.1585 4.2229 12.2577 4.13071 12.3542 4.03575C12.3748 4.01553 12.3885 3.98827 12.4101 3.9574C12.413 3.96145 12.4244 3.97763 12.4425 4.00275C12.4831 3.87288 12.6174 3.85755 12.6857 3.75279C12.7515 3.65166 12.8412 3.55606 12.9549 3.48261C13.0527 3.41959 13.1031 3.2797 13.1799 3.16579C13.302 3.16366 13.3344 3.13066 13.384 2.9384H13.477C13.4784 2.93457 13.4805 2.92435 13.4857 2.91626C13.5612 2.79511 13.6575 2.69462 13.769 2.60818C13.8443 2.54963 13.9172 2.48767 13.9909 2.42677C14.0011 2.41847 14.0183 2.40484 14.0164 2.39803C13.9994 2.33245 14.0434 2.31287 14.0841 2.27837C14.1405 2.23068 14.2514 2.24197 14.2491 2.12742C14.3523 2.14552 14.3624 2.04375 14.3929 1.99073C14.4363 1.91536 14.5167 1.89194 14.5629 1.82317C14.6148 1.74588 14.6848 1.68158 14.7651 1.62282C14.7624 1.64432 14.7595 1.66604 14.757 1.68478C14.8263 1.60238 14.8977 1.51743 14.9853 1.41331C14.9806 1.3735 15.0266 1.32304 15.0848 1.329C15.119 1.2647 15.1435 1.20019 15.1838 1.14824C15.2458 1.06839 15.3174 0.996217 15.3876 0.923401C15.4069 0.903387 15.436 0.893593 15.4598 0.878051C15.5316 0.830784 15.6043 0.784369 15.6747 0.734973C15.7512 0.681107 15.8262 0.624472 15.9013 0.56805C15.9634 0.521635 16.1253 0.526106 16.1597 0.555488C16.283 0.509073 16.3883 0.459039 16.4989 0.431786C16.5614 0.416457 16.6205 0.421779 16.649 0.345131C16.6546 0.330014 16.7185 0.316601 16.7262 0.326395C16.792 0.410495 16.9528 0.336827 16.9775 0.486505C16.9786 0.493318 17.0054 0.49566 17.0203 0.499918C17.0525 0.509286 17.1019 0.499492 17.0778 0.56656C17.0739 0.577418 17.1174 0.605736 17.1386 0.626388C17.171 0.658325 17.203 0.690475 17.2476 0.734973C17.2557 0.738806 17.2856 0.753071 17.319 0.768827C17.324 0.75371 17.3337 0.724967 17.3406 0.704314C17.4037 0.779259 17.5454 0.796505 17.5149 0.948738C17.5477 0.930001 17.5795 0.909775 17.5807 0.911478C17.6337 0.98983 17.6839 1.0701 17.7343 1.14994C17.7258 1.15739 17.7173 1.16484 17.7088 1.1723C17.776 1.18486 17.8433 1.19742 17.9106 1.20998C17.9106 1.21828 17.9106 1.22638 17.9106 1.23468C17.8815 1.2366 17.8524 1.23851 17.7941 1.24256C17.8315 1.30388 17.8614 1.35242 17.891 1.40096C17.8929 1.41012 17.895 1.41927 17.8969 1.42864L17.8993 1.42651Z" fill="currentColor"/>
</svg>
