<svg viewBox="0 0 31 31" fill="none" xmlns="http://www.w3.org/2000/svg">
    <path d="M0 5.54992C0 4.69385 0.69385 4 1.54992 4H29.4501C30.3062 4 31 4.69385 31 5.54992C31 6.40599 30.3062 7.09984 29.4501 7.09984H1.54992C0.69385 7.09984 0 6.40599 0 5.54992Z"
          fill="currentColor"/>
    <path d="M4.64844 14.8468C4.64844 13.9907 5.34229 13.2969 6.19836 13.2969H24.7985C25.6545 13.2969 26.3484 13.9907 26.3484 14.8468C26.3484 15.7029 25.6545 16.3967 24.7985 16.3967H6.19836C5.34229 16.3967 4.64844 15.7029 4.64844 14.8468Z"
          fill="currentColor"/>
    <path d="M10.8507 22.6016C9.99463 22.6016 9.30078 23.2954 9.30078 24.1515C9.30078 25.0076 9.99463 25.7014 10.8507 25.7014H20.1508C21.0068 25.7014 21.7007 25.0076 21.7007 24.1515C21.7007 23.2954 21.0068 22.6016 20.1508 22.6016H10.8507Z"
          fill="currentColor"/>
</svg>
