<svg viewBox="0 0 32 32" fill="none" xmlns="http://www.w3.org/2000/svg">
    <g style="mix-blend-mode:overlay" filter="url(#filter0_i_1113_6127)">
        <path d="M6.48491 23.7578C6.45371 23.6913 6.4225 23.6253 6.38723 23.5506H6.12912C6.19051 23.4714 6.10639 23.2814 6.35094 23.3936C6.30006 23.3031 6.26614 23.2422 6.2268 23.172C6.19661 23.1768 6.15218 23.1837 6.10775 23.1906C6.10198 23.1252 6.08265 23.0574 6.09316 22.9947C6.1203 22.835 5.96699 22.5621 5.79944 22.506C5.82522 22.4743 5.84828 22.4457 5.87134 22.4172C5.8571 22.4309 5.84319 22.4451 5.82895 22.4588C5.80147 22.3958 5.77434 22.3328 5.74687 22.2699C5.73906 22.2902 5.73092 22.3105 5.72312 22.3304C5.68039 22.3236 5.63731 22.3163 5.59458 22.3094C5.59627 22.2936 5.59831 22.2774 5.6 22.2616C5.64172 22.2575 5.6831 22.2537 5.75433 22.2468C5.67767 22.1195 5.61086 22.009 5.53726 21.8868H5.37106C5.49689 21.683 5.38768 21.5639 5.28457 21.408C5.22013 21.3106 5.20622 21.2184 5.03562 21.2669C5.08242 21.1984 5.1082 21.1612 5.12685 21.134C5.04104 20.9688 4.95964 20.8129 4.87993 20.6591C4.85687 20.6835 4.82261 20.72 4.7809 20.7647C4.79175 20.6546 4.80057 20.5686 4.81312 20.4415C4.74291 20.4946 4.71645 20.5142 4.6537 20.5613C4.78395 20.2319 4.57603 20.1273 4.37965 20.0382C4.41459 19.9714 4.43833 19.9263 4.47055 19.865C4.25551 19.8778 4.19514 19.8141 4.24262 19.6606C4.27078 19.6461 4.29893 19.6313 4.32742 19.6165C4.25721 19.4647 4.19005 19.3116 4.11509 19.1622C4.09441 19.1212 4.03878 19.0982 4.01911 19.0569C3.9723 18.9588 3.94483 18.8514 3.89667 18.7547C3.81119 18.5826 3.72301 18.4108 3.62024 18.2491C3.59616 18.2109 3.50933 18.214 3.46388 18.2012C3.47982 18.1524 3.52866 18.0756 3.50899 18.0467C3.4805 18.0047 3.40351 17.9806 3.34585 17.9782C3.21391 17.9724 3.14234 17.9328 3.13251 17.7803C3.12504 17.6626 3.08332 17.5432 2.96258 17.4747C2.94765 17.4661 2.97208 17.3866 2.98395 17.2974C3.04262 17.3972 3.07518 17.4526 3.10775 17.5077C3.11928 17.5056 3.13081 17.5036 3.14234 17.5019C3.14234 17.4564 3.1576 17.4031 3.13963 17.3669C3.06433 17.2155 2.97445 17.0713 2.90051 16.9188C2.88219 16.8806 2.9039 16.8224 2.90695 16.7804C2.8459 16.7354 2.7879 16.6927 2.7004 16.628H2.82962C2.79333 16.586 2.7628 16.5505 2.73228 16.5151C2.75975 16.4961 2.78926 16.4758 2.81605 16.4573C2.71159 16.3344 2.61085 16.2184 2.54912 16.0755C2.49994 16.0009 2.42668 15.9313 2.40871 15.8494C2.39514 15.7868 2.4511 15.7086 2.47518 15.6402C2.4026 15.4939 2.09836 15.4736 2.21843 15.2406C2.13771 15.1318 2.06885 15.0392 2 14.947L2.02781 14.9194C2.06546 14.9483 2.10311 14.9769 2.16993 15.0278C2.13465 14.8489 2.1065 14.706 2.07224 14.5322C2.15602 14.5721 2.20927 14.5976 2.26388 14.6238C2.31136 14.4747 2.36054 14.3209 2.42295 14.1257C2.48061 14.2008 2.50469 14.2324 2.54064 14.2789C2.55116 14.2359 2.55828 14.2066 2.57219 14.1512C2.59661 14.209 2.61323 14.2486 2.62883 14.2861C2.73567 14.1832 2.83403 14.0782 2.9446 13.9891C2.97106 13.9678 3.03821 13.9977 3.09011 14.0046C3.09214 13.966 3.09452 13.9196 3.09689 13.8731C3.10842 13.8872 3.11996 13.901 3.13115 13.9151C3.17355 13.9013 3.22205 13.8965 3.25766 13.8724C3.34517 13.8129 3.41843 13.7175 3.51306 13.6879C3.60498 13.659 3.71656 13.6934 3.8268 13.7003C3.81662 13.6552 3.79831 13.5726 3.77728 13.4807C3.83765 13.501 3.90141 13.5224 3.93024 13.532C3.99604 13.4635 4.04455 13.4047 4.10153 13.3558C4.1541 13.3107 4.21617 13.2766 4.27383 13.2377C4.26569 13.2212 4.25789 13.2043 4.24975 13.1878C4.14359 13.2195 4.03742 13.2512 3.9316 13.2828C3.92685 13.2722 3.9221 13.2611 3.9177 13.2505C3.98926 13.2126 4.06184 13.1761 4.13205 13.1362C4.18123 13.1083 4.24907 13.0866 4.27112 13.0426C4.37422 12.8361 4.49599 12.9121 4.61538 13.0061C4.72188 12.802 4.83618 12.6392 5.04715 12.5112C5.26015 12.3821 5.54472 12.3731 5.69735 12.1184C5.7506 12.0293 5.91747 12.0173 6.01753 11.9481C6.0952 11.8944 6.14981 11.8066 6.21493 11.734C6.20882 11.7192 6.20272 11.7044 6.19661 11.6896C6.36145 11.7006 6.52629 11.7113 6.69113 11.7233C6.70503 11.7244 6.72267 11.7292 6.73183 11.7388C6.85936 11.8727 6.98044 12.0138 7.1151 12.1398C7.19311 12.2131 7.2935 12.2616 7.38271 12.3229C7.39831 12.3336 7.40645 12.3556 7.42171 12.3669C7.46716 12.401 7.51431 12.4323 7.56077 12.4647C7.57027 12.4495 7.57943 12.4341 7.58892 12.4189C7.56891 12.412 7.5489 12.4055 7.52279 12.3965C7.68661 12.2947 7.76496 12.4365 7.82838 12.5242C7.94065 12.6798 8.02002 12.8591 8.11736 13.0261C8.14517 13.0739 8.18655 13.1135 8.24014 13.1796C8.23505 13.4236 8.40294 13.5984 8.58237 13.7898C8.76315 13.9826 8.89203 14.2266 9.0372 14.452C9.10843 14.5625 9.14913 14.6971 9.23392 14.7931C9.31465 14.8847 9.31499 14.9425 9.20475 15.0217C9.27293 15.0506 9.32041 15.0702 9.37943 15.0953C9.35806 15.1473 9.33941 15.1924 9.33941 15.1927C9.3679 15.2681 9.38282 15.3111 9.40046 15.3531C9.42284 15.4071 9.43878 15.466 9.47202 15.5125C9.55716 15.6322 9.65857 15.7403 9.73726 15.8639C9.81561 15.9871 9.84206 16.1816 9.94789 16.2411C10.129 16.3426 10.0537 16.5691 10.2094 16.662C10.2236 16.6706 10.2114 16.7254 10.2114 16.7577C10.3742 16.745 10.359 16.8995 10.4065 16.9925C10.5123 17.1993 10.5537 17.4451 10.7612 17.5903C10.7778 17.602 10.7877 17.6275 10.7948 17.6488C10.8453 17.7979 10.883 17.9531 10.9491 18.0945C10.9827 18.1661 11.0784 18.205 11.1245 18.2735C11.1733 18.3458 11.213 18.4329 11.2283 18.5189C11.2771 18.7915 11.4403 19.0094 11.5593 19.2465C11.64 19.4076 11.7659 19.5453 11.872 19.6929C11.8781 19.7015 11.8992 19.7067 11.8988 19.7119C11.8764 19.926 12.0823 20.012 12.1498 20.1758C12.2224 20.3521 12.2899 20.531 12.374 20.7014C12.4561 20.868 12.5561 21.0253 12.6494 21.186C12.6596 21.2032 12.6837 21.2122 12.6932 21.2297C12.7607 21.3519 12.8258 21.4751 12.913 21.6372C13.0554 21.4648 13.1622 21.3357 13.2691 21.207C13.2725 21.2029 13.283 21.1998 13.2827 21.1981C13.2291 20.9613 13.5323 20.91 13.5482 20.7221C13.5933 20.6663 13.6388 20.6202 13.672 20.5665C13.7236 20.4832 13.766 20.394 13.8145 20.309C13.8609 20.2271 13.9139 20.1486 13.958 20.0654C14.0112 19.9648 14.0583 19.8612 14.1085 19.759C14.113 19.7501 14.1303 19.7411 14.1286 19.7363C14.0529 19.4999 14.2819 19.4014 14.3511 19.231C14.403 19.1023 14.462 18.976 14.5274 18.8538C14.5722 18.7705 14.6353 18.6979 14.6862 18.6177C14.714 18.574 14.733 18.5248 14.7492 18.4917C14.8351 18.3905 14.9643 18.3055 14.9734 18.2088C14.9836 18.1014 15.0321 18.0581 15.0888 17.9965C15.104 17.9799 15.0986 17.9441 15.1091 17.8767C15.1939 17.8195 15.3214 17.7311 15.2868 17.539C15.2824 17.5153 15.3028 17.4647 15.3099 17.465C15.4602 17.4726 15.4557 17.3205 15.5321 17.2513C15.5083 17.2138 15.4859 17.1783 15.4666 17.1473C15.4788 17.1267 15.4836 17.1091 15.4903 17.1081C15.6847 17.0775 15.6752 16.8727 15.7729 16.7594C15.8522 16.6672 15.894 16.5402 15.9479 16.4266C15.9771 16.3654 15.9927 16.2972 16.0228 16.2363C16.0608 16.1602 16.1073 16.0883 16.1511 16.015C16.262 15.8281 16.3759 15.6433 16.4818 15.4533C16.4987 15.423 16.4784 15.3717 16.4753 15.3276C16.5231 15.2757 16.6134 15.3772 16.673 15.2161C16.7494 15.0106 16.8311 15.0058 16.8966 14.8055C16.9166 14.7439 16.9695 14.6933 16.9929 14.632C17.0383 14.5133 17.0699 14.389 17.1136 14.2696C17.155 14.1567 17.2025 14.0459 17.2537 13.9375C17.2663 13.911 17.3049 13.8982 17.3283 13.8755C17.4186 13.7881 17.4535 13.6749 17.4704 13.5537C17.4742 13.5265 17.4742 13.4924 17.4898 13.4742C17.6916 13.2412 17.8798 13.0033 17.9629 12.6929C17.9795 12.6309 18.0796 12.592 18.1593 12.5284C18.1556 12.4964 18.0314 12.4096 18.2068 12.3652C18.2672 12.3501 18.3248 12.2396 18.3462 12.1622C18.4425 11.8094 18.666 11.5223 18.8119 11.1988C18.9387 10.9172 19.1863 10.7307 19.2942 10.4457C19.3112 10.4006 19.3797 10.3779 19.4044 10.3335C19.4777 10.202 19.5387 10.0637 19.6093 9.93045C19.6422 9.86781 19.6961 9.81549 19.7222 9.75079C19.7907 9.58214 19.8325 9.40006 19.9159 9.24002C20.0709 8.94298 20.2442 8.65559 20.4169 8.36854C20.5088 8.21572 20.6173 8.07323 20.7143 7.9235C20.7394 7.88461 20.7499 7.83539 20.7706 7.78273C20.9558 7.79409 20.9646 7.61374 21.0148 7.49293C21.0559 7.39483 21.0192 7.27988 21.1468 7.19934C21.2143 7.157 21.2231 7.01038 21.2478 6.90816C21.3024 6.68271 21.4334 6.50408 21.5765 6.33164C21.5904 6.31478 21.6094 6.29929 21.6152 6.27967C21.6735 6.08693 21.7702 5.92069 21.8929 5.75926C21.9489 5.68561 21.9713 5.57168 22.031 5.47806C22.128 5.32697 22.1748 5.14351 22.2562 4.98071C22.2925 4.90844 22.3888 4.86128 22.4105 4.78797C22.4845 4.54085 22.6269 4.34087 22.7673 4.13092C22.905 3.92544 22.9702 3.66937 23.1075 3.4632C23.2232 3.28939 23.2649 3.07805 23.4501 2.92799C23.5742 2.82749 23.7421 2.65299 23.6902 2.42066C23.6875 2.40758 23.7001 2.38693 23.7116 2.37557C23.9955 2.08852 24.063 1.67791 24.279 1.35231C24.3279 1.27865 24.3825 1.2074 24.4446 1.14511C24.5914 0.997795 24.7434 0.855302 24.896 0.713497C24.9265 0.685274 24.9679 0.669097 25.013 0.641907C25.0184 0.611618 25.0279 0.55827 25.0378 0.504921C25.1253 0.541749 25.2131 0.578577 25.3047 0.61747C25.2959 0.579609 25.2854 0.535898 25.2725 0.481172H25.398C25.5113 0.355544 25.6103 0.229572 25.7273 0.123907C25.7741 0.0812279 25.8749 0.048186 25.9254 0.0705581C26.1435 0.167274 26.3382 0.131823 26.5237 0C26.676 0.0946511 26.8242 0.182074 26.9663 0.278102C27.0158 0.311488 27.0603 0.361051 27.0911 0.413367C27.1848 0.572381 27.2919 0.669097 27.4893 0.548977C27.4588 0.589591 27.4279 0.630549 27.3927 0.677358C27.5263 0.805395 27.6104 0.650856 27.7244 0.615749C27.7274 0.669097 27.7301 0.720725 27.7335 0.782679C27.7753 0.769944 27.8146 0.758242 27.8696 0.741376V0.861153C27.9995 0.883181 28.1202 0.903832 28.2413 0.924139C28.3817 0.947888 28.4177 1.01087 28.3729 1.12377C28.4953 1.16886 28.6174 1.2136 28.748 1.26179C28.6191 1.40256 28.6822 1.48447 28.8226 1.56914C28.9437 1.64211 29.0455 1.74881 29.1659 1.84931C29.1499 1.87031 29.1211 1.90782 29.0821 1.95842C29.1401 1.98217 29.2615 1.94018 29.2096 2.06821C29.3104 2.07819 29.4108 2.09403 29.5115 2.09437C29.5332 2.09437 29.5553 2.0393 29.6027 2.02209C29.5841 2.07716 29.5651 2.13223 29.5563 2.1577C29.7387 2.16355 29.9304 2.1694 30.1451 2.17629C30.1546 2.16114 30.1898 2.10539 30.2309 2.04033C30.24 2.06718 30.2472 2.08852 30.2543 2.1102C30.2855 2.08886 30.3174 2.06753 30.3459 2.04825C30.3849 2.12122 30.4486 2.18489 30.4442 2.2434C30.4341 2.38968 30.373 2.53321 30.3696 2.67845C30.3659 2.84607 30.4022 3.01438 30.4205 3.18234C30.4259 3.23432 30.4429 3.29042 30.43 3.33757C30.4018 3.43911 30.2835 3.52894 30.4045 3.64493C30.411 3.65112 30.395 3.68417 30.3862 3.7031C30.3615 3.75576 30.3347 3.80773 30.2865 3.90513C30.2194 3.92682 30.1688 3.99978 30.1915 4.15019C30.2054 4.24244 30.1481 4.35395 30.102 4.44585C29.9972 4.65511 29.8707 4.85302 29.7713 5.0647C29.7296 5.15384 29.7343 5.26536 29.7167 5.37618C29.6987 5.36861 29.6665 5.35484 29.5909 5.32284C29.6112 5.39684 29.6244 5.44571 29.6387 5.49803C29.4091 5.45741 29.4396 5.71418 29.3348 5.83189C29.2507 5.92619 29.2188 6.06593 29.1462 6.17366C29.0567 6.30686 29.1489 6.37432 29.2212 6.4287C29.1564 6.50236 29.1038 6.56156 29.0489 6.62386C29.021 6.59908 28.9943 6.57498 28.9644 6.54883C28.9569 6.69648 28.9498 6.84104 28.9427 6.9856C28.9244 6.98973 28.9061 6.99386 28.8874 6.99799C28.8586 6.95565 28.8294 6.91297 28.8016 6.87202C28.6357 7.08679 28.4394 7.29915 28.5265 7.62269C28.3746 7.59137 28.2762 7.6812 28.2827 7.89115C28.3329 7.8144 28.3827 7.73764 28.4329 7.66089C28.4434 7.67328 28.4539 7.68602 28.4645 7.69841C28.4719 7.76449 28.4794 7.83057 28.4835 7.86809C28.3956 7.94588 28.3159 8.01609 28.2362 8.0863C28.2277 8.07908 28.2189 8.07185 28.2104 8.06462C28.2352 8.02229 28.2599 7.97961 28.2844 7.93727C28.2684 7.92454 28.2528 7.91146 28.2369 7.89872C28.1738 7.98064 28.0839 8.0543 28.0547 8.14723C28.0256 8.24016 28.0568 8.3527 28.0615 8.45665C28.0452 8.45768 28.0286 8.45871 28.0123 8.45975C28.0164 8.42361 28.0201 8.38712 28.0242 8.35098C28.0079 8.34135 27.9917 8.33205 27.9754 8.32242C27.8485 8.51585 27.6939 8.69689 27.6033 8.90684C27.5307 9.07515 27.3693 9.22212 27.3859 9.45444C27.3669 9.46029 27.3102 9.47785 27.3008 9.48095C27.2075 9.65373 27.1318 9.7914 27.0586 9.93011C26.9979 10.0451 26.9406 10.1617 26.8809 10.277C26.8707 10.2967 26.8602 10.3173 26.8449 10.3325C26.7686 10.4089 26.6651 10.4571 26.6648 10.5992C26.6648 10.6484 26.5705 10.6973 26.5078 10.7568C26.5179 10.7654 26.5444 10.7885 26.5719 10.8123C26.5705 10.8171 26.5702 10.8305 26.5637 10.8353C26.4874 10.89 26.4155 10.9252 26.3948 11.0504C26.3748 11.1723 26.2052 11.2804 26.2083 11.3915C26.213 11.5736 26.0394 11.6256 26.0183 11.7846C26.0509 11.7984 26.0885 11.8142 26.132 11.8324C26.1011 11.9198 26.0702 12.008 26.0227 12.1425C25.9854 12.05 25.9688 12.0086 25.9522 11.9673C25.9373 11.9715 25.922 11.976 25.9071 11.9801C25.9281 12.0551 25.9495 12.1305 25.9675 12.1938C25.9112 12.1938 25.8131 12.1749 25.8033 12.1969C25.7368 12.3459 25.576 12.4705 25.6524 12.6719C25.6296 12.6351 25.6066 12.5986 25.5482 12.505C25.5143 12.6144 25.4933 12.6815 25.4604 12.7882C25.421 12.824 25.3444 12.8946 25.2579 12.9741C25.3464 13.0956 25.2379 13.1472 25.1521 13.1937C25.05 13.2491 25.0686 13.2808 25.1521 13.3148C25.0639 13.4239 24.9666 13.5289 24.8892 13.6477C24.8607 13.691 24.8743 13.7664 24.878 13.8266C24.8838 13.9285 24.8553 13.9812 24.7301 13.9382C24.7844 14.0917 24.5294 14.2218 24.7373 14.3925C24.625 14.3515 24.5514 14.3226 24.5433 14.4844C24.5389 14.5694 24.4418 14.6489 24.3896 14.7329C24.2478 14.9597 24.0993 15.1827 23.9694 15.4161C23.8235 15.6777 23.7231 15.9706 23.5485 16.2084C23.443 16.3519 23.4565 16.5843 23.2452 16.649C23.2391 16.6507 23.2368 16.6696 23.2351 16.6806C23.1791 17.0403 22.884 17.2682 22.7507 17.5862C22.6968 17.7153 22.6208 17.835 22.5509 17.9565C22.5384 17.9786 22.5045 17.9868 22.4831 18.0047C22.456 18.0271 22.4071 18.0563 22.4099 18.077C22.4394 18.2976 22.2437 18.4246 22.1965 18.6208C22.15 18.8142 21.9978 18.9812 21.8858 19.1698C21.9384 19.1798 21.9855 19.1884 22.0388 19.1987C22.0446 19.1323 22.0496 19.0765 22.0561 19.0042C22.1019 19.0256 22.1375 19.0421 22.1775 19.0607C22.0961 19.1457 22.0693 19.2823 21.915 19.2579C21.8858 19.2534 21.839 19.303 21.8153 19.3381C21.7308 19.463 21.6613 19.599 21.5701 19.7181C21.4602 19.8612 21.4252 20.0392 21.3347 20.1889C21.257 20.3176 21.1529 20.4302 21.0738 20.5582C21.0379 20.6167 21.0559 20.7252 21.0111 20.7592C20.8873 20.8539 20.9195 21.026 20.8225 21.1151C20.7157 21.2132 20.6929 21.3419 20.6343 21.459C20.5688 21.5894 20.4688 21.7009 20.3955 21.8279C20.3331 21.9357 20.2873 22.0534 20.229 22.178C20.2619 22.1966 20.2971 22.2165 20.3327 22.2368L20.2951 22.2048C20.2385 22.264 20.1757 22.318 20.1262 22.3828C20.0095 22.5352 19.8833 22.6839 19.7901 22.8508C19.6931 23.024 19.6303 23.2167 19.5492 23.4088C19.5014 23.3706 19.4746 23.3492 19.457 23.3351C19.4048 23.4573 19.3047 23.5771 19.3183 23.6814C19.3491 23.9199 19.1321 24.0028 19.0707 24.1791C19.0018 24.3777 18.8916 24.5611 18.8193 24.7587C18.7993 24.8137 18.8489 24.8953 18.8702 24.979C18.8567 24.9834 18.8078 24.9993 18.759 25.0151C18.7671 25.0247 18.7756 25.0344 18.7837 25.044C18.7342 25.0901 18.6874 25.1404 18.6338 25.1806C18.5996 25.2065 18.5548 25.2178 18.5148 25.2357C18.5422 25.2739 18.5701 25.3125 18.6155 25.3755C18.6043 25.4023 18.5802 25.4591 18.5378 25.5592C18.5039 25.4643 18.488 25.4192 18.4571 25.3324C18.3476 25.5438 18.2567 25.7189 18.1658 25.8945C18.1613 25.8886 18.1569 25.8828 18.1525 25.8766C18.1169 25.9127 18.0708 25.9434 18.0487 25.9867C18.0223 26.0387 18.0247 26.1055 18.0009 26.1592C17.9511 26.2717 17.8897 26.3788 17.8385 26.491C17.8293 26.5109 17.8483 26.5436 17.8547 26.5729C17.7184 26.5787 17.6366 26.6448 17.6329 26.8135C17.6312 26.8792 17.561 26.9425 17.524 27.0083C17.35 27.3163 17.1401 27.6099 17.0153 27.9376C16.9237 28.1782 16.7439 28.352 16.653 28.5895C16.5737 28.7967 16.4139 28.9715 16.2928 29.1629C16.2776 29.187 16.2776 29.2228 16.2766 29.2534C16.2759 29.2685 16.2888 29.284 16.2955 29.2995C16.1392 29.3419 16.1568 29.5343 16.0191 29.6165C15.9113 29.6812 15.8706 29.8564 15.7881 29.9738C15.7613 30.0116 15.6955 30.0213 15.6352 30.0498C15.6545 30.0877 15.6776 30.1328 15.7105 30.1972H15.4727C15.5046 30.3847 15.4011 30.582 15.2397 30.6656C15.2129 30.6794 15.2085 30.7324 15.1858 30.7606C15.1651 30.7864 15.1356 30.8184 15.1071 30.8219C14.947 30.8408 14.8534 30.9399 14.7757 31.0728C14.6316 31.3195 14.4284 31.5195 14.1492 31.5598C13.9936 31.5822 13.9457 31.6383 13.9203 31.7629C13.7755 31.7976 13.6588 31.9133 13.4801 31.8482C13.3495 31.8007 13.1972 32.0399 13.0442 31.8427C12.955 31.9012 12.8723 31.9553 12.8037 32C12.6559 31.9659 12.5154 31.9332 12.3703 31.8998C12.3737 31.893 12.3916 31.8548 12.4089 31.819C12.3421 31.8 12.2604 31.746 12.2092 31.7677C12.0033 31.8548 11.8378 31.7326 11.6628 31.6778C11.5403 31.6396 11.4101 31.5901 11.3426 31.4576C11.3361 31.4452 11.3127 31.43 11.3015 31.4331C11.1001 31.4882 11.0896 31.3065 11.0102 31.1839C10.958 31.2053 10.904 31.2276 10.882 31.2366C10.7836 31.1863 10.7059 31.1468 10.6228 31.1041C10.6178 30.8243 10.5903 30.7764 10.399 30.7399C10.3383 30.5455 10.3362 30.3097 10.0961 30.2037C10.1131 30.1768 10.1361 30.1404 10.1538 30.1125C10.0768 30.056 10.0028 30.002 9.88887 29.9184C9.96824 29.9091 9.99232 29.9063 10.034 29.9015C9.96858 29.7948 9.90685 29.6946 9.85665 29.6131C9.77932 29.5721 9.71046 29.5356 9.63517 29.496C9.65484 29.4702 9.67417 29.4451 9.66976 29.4506C9.46388 29.0844 9.26513 28.7309 9.06637 28.3774C9.06196 28.3802 9.05755 28.3833 9.05348 28.386C9.03076 28.3375 9.00837 28.2886 8.98531 28.2401C8.86117 27.9778 8.74042 27.7142 8.61188 27.4543C8.55829 27.3459 8.4935 27.2427 8.42329 27.1446C8.40498 27.1194 8.34698 27.1236 8.30798 27.1143C8.40261 26.957 8.26897 26.8506 8.21436 26.735C8.10244 26.4975 7.97321 26.2679 7.84364 26.0397C7.77445 25.9179 7.68898 25.8057 7.61267 25.688C7.58146 25.6398 7.54415 25.5919 7.52787 25.5383C7.47768 25.3724 7.38542 25.2509 7.2216 25.1941C7.24873 25.1765 7.27824 25.1572 7.2779 25.1576C7.2372 25.0526 7.20362 24.9683 7.1714 24.8836C7.12052 24.7487 7.02929 24.6551 6.90277 24.5793C6.9255 24.494 6.95365 24.3973 6.8675 24.2854C6.76812 24.156 6.7091 23.9953 6.62228 23.8545C6.59446 23.8094 6.53477 23.785 6.48932 23.7512L6.48695 23.7592L6.48491 23.7578Z"
              fill="#4A4A4A"/>
    </g>
    <defs>
        <filter id="filter0_i_1113_6127" x="2" y="0" width="28.4453" height="36" filterUnits="userSpaceOnUse"
                color-interpolation-filters="sRGB">
            <feFlood flood-opacity="0" result="BackgroundImageFix"/>
            <feBlend mode="normal" in="SourceGraphic" in2="BackgroundImageFix" result="shape"/>
            <feColorMatrix in="SourceAlpha" type="matrix" values="0 0 0 0 0 0 0 0 0 0 0 0 0 0 0 0 0 0 127 0"
                           result="hardAlpha"/>
            <feOffset dy="4"/>
            <feGaussianBlur stdDeviation="2"/>
            <feComposite in2="hardAlpha" operator="arithmetic" k2="-1" k3="1"/>
            <feColorMatrix type="matrix" values="0 0 0 0 0 0 0 0 0 0 0 0 0 0 0 0 0 0 0.4 0"/>
            <feBlend mode="normal" in2="shape" result="effect1_innerShadow_1113_6127"/>
        </filter>
    </defs>
</svg>
