<svg width="32" height="32" viewBox="0 0 32 32" fill="none" xmlns="http://www.w3.org/2000/svg">
        <path d="M19.7405 1.8999C19.7452 1.9228 19.751 1.95009 19.7567 1.97738C19.8789 1.92651 19.9171 2.0424 19.934 2.10035C20.024 2.41096 20.2382 2.65184 20.4043 2.91428C20.5001 3.06554 20.6009 3.2195 20.6852 3.37616C20.8449 3.67397 21.053 3.94955 21.1095 4.30025C21.1308 4.43299 21.2421 4.54854 21.2881 4.6806C21.3436 4.83928 21.3764 5.00604 21.4137 5.17078C21.4644 5.39582 21.5162 5.62053 21.5561 5.84759C21.5855 6.01334 21.5977 6.18213 21.6157 6.34956C21.6674 6.84109 21.7111 7.33396 21.7733 7.82447C21.797 8.0101 21.8657 8.18933 21.9093 8.37293C21.9858 8.69568 22.0934 9.01606 22.1245 9.34352C22.1787 9.91017 22.1861 10.4815 22.2101 11.0512C22.2233 11.3669 22.2376 11.6826 22.2372 11.9982C22.2372 12.1236 22.1844 12.2485 22.1807 12.3742C22.1638 12.925 22.1692 13.4768 22.1411 14.027C22.1157 14.5273 22.068 15.0272 22.0105 15.5251C21.9547 16.0106 21.8742 16.493 21.8034 16.9765C21.7987 17.0085 21.7953 17.0556 21.7747 17.0678C21.5141 17.2214 21.5642 17.497 21.5331 17.725C21.4803 18.1138 21.4235 18.4979 21.2902 18.8691C21.1981 19.1252 21.1335 19.391 21.0374 19.6453C20.9697 19.8242 20.8696 19.9906 20.785 20.1635C20.6903 20.3565 20.6409 20.6001 20.4916 20.7308C20.3214 20.8797 20.2687 21.0818 20.1337 21.2398C20.0426 21.346 19.9895 21.4851 19.9235 21.6118C19.8785 21.6987 19.867 21.8186 19.7212 21.7907L19.7077 21.8769C19.6999 21.8665 19.6921 21.8557 19.6843 21.8452C19.6312 21.8914 19.5791 21.9386 19.5246 21.9827C19.4908 22.0103 19.4471 22.0282 19.418 22.0598C19.3213 22.1646 19.233 22.2771 19.1331 22.3792C19.0719 22.4419 18.9981 22.4934 18.9257 22.5433C18.8807 22.5743 18.8188 22.5834 18.7792 22.6187C18.5576 22.8172 18.2832 22.9354 18.0396 23.1005C17.8183 23.2504 17.5703 23.3619 17.3294 23.4808C17.2644 23.5128 17.1778 23.499 17.1074 23.5236C16.8157 23.6257 16.5339 23.7739 16.2341 23.8295C15.9293 23.8858 15.6038 23.8851 15.2942 23.8508C14.9176 23.809 14.5444 23.72 14.1766 23.6254C13.8754 23.5479 13.5817 23.4391 13.2901 23.3292C13.1767 23.2865 13.0813 23.1989 12.9727 23.1409C12.8059 23.052 12.6303 22.9789 12.4672 22.8839C12.3143 22.7949 12.137 22.7131 12.0351 22.5793C11.9113 22.4166 11.7746 22.2866 11.6081 22.1747C11.5141 22.1117 11.4488 22.0002 11.3496 21.9527C11.2393 21.8998 11.1828 21.8311 11.1534 21.7206C11.1446 21.6869 11.1046 21.662 11.0799 21.632C11.0167 21.5555 10.9548 21.4777 10.8908 21.4015C10.768 21.255 10.6374 21.1145 10.5237 20.9616C10.4679 20.8868 10.4411 20.7898 10.4046 20.7018C10.3921 20.6722 10.4005 20.6274 10.3809 20.6082C10.0662 20.3053 10.0341 19.8855 9.92852 19.5011C9.7722 18.9311 9.62806 18.3571 9.50626 17.7786C9.42844 17.4097 9.39866 17.0311 9.35095 16.6561C9.30088 16.2606 9.24978 15.8647 9.20884 15.4682C9.17738 15.1633 9.14794 14.8574 9.13914 14.5515C9.1114 13.5894 9.07587 12.6272 9.07824 11.665C9.07993 11.0007 9.14591 10.337 9.17095 9.67233C9.18989 9.17541 9.18008 8.67748 9.20038 8.18091C9.21865 7.73385 9.24335 7.28578 9.29715 6.84176C9.34892 6.41526 9.45415 5.99549 9.51201 5.56966C9.54652 5.31632 9.64025 5.09093 9.73532 4.85949C9.78574 4.73686 9.7651 4.58728 9.80164 4.4569C9.8595 4.2514 9.96304 4.05634 10.0023 3.84814C10.0527 3.57964 10.2435 3.40984 10.3829 3.20232C10.4154 3.15414 10.429 3.09249 10.4462 3.03556C10.4875 2.89878 10.5799 2.80108 10.6732 2.69631C10.8093 2.5437 10.9192 2.3675 11.0373 2.19939C11.1043 2.10405 11.1601 2.00029 11.2322 1.90866C11.2579 1.87564 11.3232 1.87598 11.3574 1.84633C11.4494 1.76682 11.5347 1.67991 11.622 1.59501C11.8659 1.35851 12.0964 1.10618 12.3579 0.891242C12.5136 0.76356 12.7145 0.68776 12.9003 0.599831C13.0942 0.508196 13.2884 0.408139 13.4931 0.349857C13.9556 0.218132 14.4111 0.0469914 14.8986 0.0244196C15.2417 0.00858571 15.5855 -0.00556374 15.9286 0.00218477C16.0883 0.00589058 16.2463 0.0867446 16.4063 0.091798C16.8503 0.105947 17.2509 0.273719 17.642 0.444861C18.0216 0.611285 18.385 0.825211 18.7281 1.05834C18.9051 1.17827 19.1558 1.23218 19.2252 1.49731C19.2465 1.57917 19.3656 1.6351 19.438 1.70484C19.4881 1.75267 19.5294 1.81163 19.5852 1.85071C19.6258 1.87935 19.684 1.88339 19.7408 1.90057L19.7405 1.8999ZM19.5378 6.80706C19.4732 6.58134 19.4197 6.36641 19.349 6.15686C19.2817 5.95776 19.346 5.7445 19.2516 5.5454C19.1122 5.2513 19.0056 4.94203 18.8763 4.64287C18.7061 4.24871 18.4686 3.89564 18.1895 3.56919C18.0991 3.46375 18.0244 3.34516 17.9394 3.235C17.8674 3.14134 17.8044 3.0332 17.7127 2.9638C17.5865 2.86812 17.4363 2.80445 17.2982 2.7236C17.1165 2.61714 16.9453 2.48777 16.7535 2.4049C16.52 2.30349 16.2727 2.23005 16.026 2.16335C15.8014 2.1027 15.5689 2.0269 15.3419 2.03297C15.1304 2.03836 14.9145 2.12494 14.7139 2.20815C14.4885 2.30181 14.2331 2.34998 14.0693 2.56223C14.0466 2.59153 13.9844 2.58749 13.9451 2.60771C13.8142 2.67576 13.6809 2.74111 13.5574 2.82062C13.4958 2.86037 13.4616 2.94325 13.3994 2.98199C13.2525 3.07363 13.1138 3.16324 13.0126 3.31383C12.9416 3.41961 12.8827 3.57425 12.6993 3.54561C12.6915 3.54426 12.6756 3.58301 12.6665 3.60423C12.6482 3.64735 12.6408 3.69789 12.6134 3.7336C12.4777 3.91047 12.2879 4.06409 12.209 4.26184C12.0781 4.58998 11.847 4.88712 11.8477 5.26275C11.8477 5.27252 11.8372 5.28229 11.8331 5.29273C11.7499 5.51373 11.6653 5.7344 11.5851 5.95675C11.5736 5.98909 11.5773 6.0312 11.5865 6.06556C11.6616 6.34586 11.6085 6.62784 11.5621 6.89937C11.4203 7.73014 11.2816 8.55924 11.306 9.40618C11.3117 9.60124 11.3317 9.79698 11.3202 9.99069C11.2928 10.4536 11.2244 10.9151 11.2197 11.3777C11.2109 12.2118 11.2234 13.047 11.2512 13.8811C11.2728 14.5283 11.3317 15.1744 11.3747 15.8209C11.3835 15.9543 11.3933 16.0878 11.4071 16.2208C11.4609 16.7396 11.511 17.2595 11.576 17.7769C11.5926 17.9093 11.6683 18.033 11.7015 18.1647C11.7573 18.3864 11.7712 18.6235 11.8565 18.8321C12.0141 19.2165 12.2073 19.5911 12.4702 19.9145C12.5613 20.0267 12.565 20.2649 12.8045 20.2312C12.8127 20.2302 12.8235 20.2548 12.8347 20.2659C12.993 20.4222 13.0732 20.6456 13.3019 20.7456C13.5046 20.8342 13.5929 21.0906 13.8396 21.1364C13.9231 21.1519 14.0203 21.1886 14.0747 21.2486C14.2175 21.4059 14.4127 21.4534 14.5951 21.5235C14.8113 21.6064 15.0343 21.6768 15.2596 21.7304C15.3605 21.7543 15.4769 21.7378 15.5811 21.7162C15.7668 21.6775 15.9523 21.6303 16.1313 21.569C16.3705 21.4868 16.6097 21.3995 16.8377 21.2917C17.0056 21.2126 17.1487 21.0815 17.3158 21.001C17.4992 20.9127 17.664 20.8221 17.7868 20.6469C17.9675 20.3892 18.178 20.1527 18.3725 19.9047C18.6676 19.5291 18.9068 19.1215 19.0435 18.663C19.1264 18.3847 19.3054 18.1421 19.28 17.8207C19.256 17.5168 19.5077 17.2335 19.3768 16.9007C19.3443 16.8181 19.4031 16.6935 19.435 16.5928C19.6437 15.9338 19.7094 15.2509 19.7378 14.5687C19.7757 13.6517 19.7618 12.7327 19.7804 11.815C19.7875 11.4649 19.8129 11.1146 19.8471 10.7662C19.9154 10.0736 19.8867 9.38732 19.7561 8.7041C19.6989 8.40494 19.6464 8.10511 19.5984 7.8046C19.5832 7.70959 19.5889 7.61156 19.5848 7.5115C19.6045 7.48522 19.6688 7.43536 19.661 7.40235C19.6275 7.25917 19.5906 7.11094 19.5206 6.98359C19.4647 6.88219 19.4864 6.8357 19.5365 6.80841L19.5378 6.80706Z"
              fill="currentColor"/>
        <path d="M16.1204 26.9835C16.1204 27.3982 16.1255 27.7944 16.119 28.1906C16.1109 28.7097 16.0926 29.2285 16.0808 29.7477C16.0754 29.9808 16.0713 30.2143 16.0778 30.4474C16.0784 30.4788 16.1427 30.535 16.1779 30.5354C16.5061 30.538 16.8343 30.5269 17.1629 30.5276C17.4623 30.5279 17.7618 30.5418 18.0609 30.5424C18.2865 30.5428 18.5122 30.5276 18.7376 30.5283C18.8712 30.5286 19.0052 30.5566 19.1389 30.5542C19.5053 30.5482 19.8728 30.5094 20.2372 30.5296C20.4699 30.5424 20.7054 30.6199 20.925 30.7051C21.0056 30.7365 21.0759 30.8685 21.0932 30.9649C21.1091 31.0532 21.0658 31.167 21.0147 31.2486C20.9474 31.3557 20.8455 31.4409 20.7606 31.5373C20.6763 31.6326 20.5603 31.703 20.5704 31.8651C20.5728 31.9031 20.4442 31.9796 20.3725 31.984C20.2845 31.989 20.1922 31.8998 20.1059 31.9991C19.979 31.8886 19.8298 31.9483 19.6924 31.9543C19.4122 31.9668 19.1162 31.8691 18.8601 31.9543C18.6124 32.0369 18.405 31.9328 18.1833 31.9479C18.0054 31.9601 17.82 31.889 17.6619 31.9432C17.4488 32.0163 17.2397 31.9459 17.0312 31.9894C16.9392 32.0086 16.8343 31.955 16.7352 31.954C16.4523 31.951 16.1695 31.9614 15.8866 31.9594C15.5723 31.957 15.2576 31.9412 14.9433 31.9429C14.8015 31.9436 14.6601 31.9847 14.5183 31.9853C14.3836 31.986 14.2489 31.9442 14.1143 31.9449C13.8598 31.9456 13.6054 31.9665 13.3506 31.9719C13.2833 31.9732 13.2149 31.9493 13.1077 31.9297C13.0661 31.9479 12.9889 32.083 12.8905 31.9341C12.8837 31.924 12.813 31.9651 12.7717 31.9665C12.4956 31.9766 12.2181 32.0002 11.9434 31.9833C11.7475 31.9715 11.5577 31.9671 11.3607 31.9857C11.1608 32.0042 10.9554 31.9587 10.752 31.9476C10.6969 31.9446 10.6407 31.9644 10.5768 31.9405C10.5291 31.9483 10.479 31.9688 10.4337 31.9614C10.1457 31.9139 9.8121 32.0557 9.58201 31.76C9.5448 31.7121 9.49167 31.6771 9.45006 31.6323C9.33569 31.5093 9.35024 31.4005 9.48321 31.2964C9.53025 31.2593 9.57051 31.2101 9.60367 31.16C9.66593 31.0656 9.72548 30.9689 9.77691 30.8682C9.81446 30.7948 9.83713 30.7136 9.8818 30.595C10.1389 30.569 10.4198 30.5256 10.702 30.5158C11.0606 30.503 11.42 30.5178 11.779 30.5202C12.2181 30.5229 12.6573 30.5263 13.0965 30.5269C13.5567 30.5279 14.0168 30.5246 14.4773 30.5269C14.5772 30.5273 14.6107 30.4953 14.611 30.3908C14.6117 30.0132 14.6266 29.6352 14.6313 29.2575C14.6391 28.6599 14.6421 28.0622 14.6489 27.4642C14.6502 27.3558 14.6448 27.2449 14.6658 27.1398C14.6966 26.9848 14.6807 26.9097 14.4895 26.8841C14.187 26.8437 13.8937 26.7345 13.5912 26.6924C13.2129 26.6399 12.8593 26.5098 12.5078 26.3805C12.207 26.27 11.9109 26.1295 11.6159 26.0149C11.3022 25.893 11.0525 25.6885 10.7598 25.547C10.5196 25.4308 10.278 25.2926 10.0851 25.1131C9.9806 25.0157 9.78469 25.0022 9.76642 24.8153C9.53904 24.8129 9.46325 24.5973 9.31742 24.4844C9.1117 24.3251 8.94523 24.1162 8.75812 23.9329C8.66033 23.8373 8.55037 23.7537 8.45157 23.6584C8.38762 23.5967 8.33382 23.525 8.27732 23.4559C8.12066 23.2656 7.96231 23.0766 7.81005 22.8825C7.74069 22.7943 7.68283 22.6969 7.62226 22.6019C7.48083 22.3789 7.3306 22.1606 7.20405 21.9291C7.11439 21.765 7.06567 21.5798 6.98514 21.41C6.91036 21.2526 6.80716 21.1081 6.73577 20.9494C6.65761 20.7756 6.59975 20.5923 6.53614 20.4121C6.48234 20.2602 6.42245 20.1096 6.38422 19.9539C6.29828 19.6029 6.212 19.2515 6.14839 18.8961C6.0956 18.6023 6.07158 18.3031 6.04147 18.0057C6.02083 17.8032 5.9924 17.5987 6.00188 17.3966C6.01778 17.0546 6.25564 16.7956 6.57404 16.7737C6.62242 16.7703 6.69111 16.8057 6.72156 16.8454C6.87179 17.0391 7.01221 17.2403 7.15601 17.4387C7.19018 17.4858 7.22402 17.533 7.25785 17.5798C7.29304 17.6284 7.35022 17.6732 7.35936 17.7261C7.41248 18.0343 7.46628 18.3436 7.49775 18.6549C7.54715 19.1447 7.6879 19.6086 7.85877 20.0661C8.04791 20.5731 8.25329 21.0724 8.57033 21.5171C8.86369 21.9281 9.1364 22.3563 9.45784 22.7444C9.82935 23.1928 10.2804 23.5644 10.7446 23.9195C11.1631 24.2399 11.6233 24.4875 12.0798 24.7465C12.4699 24.9682 12.8942 25.0787 13.3141 25.2084C13.6179 25.3021 13.9218 25.4035 14.233 25.4634C14.7592 25.5649 15.2918 25.6006 15.8301 25.6063C16.4885 25.6134 17.1304 25.5211 17.7695 25.3903C17.9658 25.3503 18.1539 25.2697 18.3441 25.203C18.631 25.1026 18.9183 25.0036 19.2015 24.8934C19.3534 24.8341 19.5019 24.761 19.643 24.6788C19.8832 24.5387 20.1265 24.3995 20.3502 24.2355C20.6202 24.0374 20.8814 23.8251 21.1274 23.5984C21.4316 23.3181 21.7378 23.0351 22.002 22.7188C22.2253 22.4513 22.3993 22.1403 22.5779 21.8388C22.7555 21.5393 22.9298 21.2355 23.0722 20.9184C23.1815 20.6752 23.2418 20.4097 23.3179 20.1527C23.3815 19.9377 23.4529 19.7235 23.4918 19.5038C23.552 19.1653 23.6065 18.8236 23.6275 18.481C23.6464 18.166 23.6309 17.8473 23.6062 17.5323C23.5865 17.2844 23.6292 17.0951 23.889 16.9997C23.9733 16.9687 24.0433 16.8703 24.1232 16.866C24.2064 16.8613 24.3164 16.9128 24.3746 16.9761C24.5258 17.1402 24.6527 17.3262 24.7948 17.499C24.8229 17.533 24.8912 17.5377 24.9122 17.5731C24.9532 17.6422 24.9978 17.723 24.9982 17.7988C24.9988 18.1067 25.0134 18.4197 24.962 18.7206C24.9318 18.8984 24.9532 19.0783 24.9024 19.2539C24.8493 19.4378 24.8087 19.6278 24.7874 19.8178C24.7464 20.1817 24.6507 20.53 24.515 20.8672C24.3976 21.1586 24.2666 21.4443 24.1441 21.7337C24.0694 21.9106 24.0139 22.0976 23.9239 22.266C23.8085 22.4816 23.6688 22.6848 23.5365 22.8913C23.4451 23.0338 23.3534 23.1763 23.2522 23.3121C23.1484 23.4512 23.0381 23.5863 22.9217 23.7146C22.7088 23.9491 22.4977 24.186 22.27 24.4056C22.066 24.6023 21.843 24.7806 21.6231 24.9608C21.461 25.0935 21.2925 25.2185 21.123 25.3418C20.9903 25.4382 20.8577 25.5372 20.7153 25.6171C20.4361 25.7731 20.1539 25.925 19.8653 26.0631C19.5943 26.1928 19.3189 26.3185 19.0353 26.4169C18.7156 26.5277 18.3847 26.6072 18.0582 26.6988C17.825 26.7645 17.5933 26.8349 17.3574 26.8892C17.2573 26.9121 17.1487 26.8942 17.0444 26.9026C16.7304 26.9283 16.4168 26.9579 16.1211 26.9842L16.1204 26.9835Z"
              fill="currentColor"/>
</svg>
