<svg viewBox="0 0 32 33" fill="none" xmlns="http://www.w3.org/2000/svg">
<g clip-path="url(#clip0_2322_9967)">
<path d="M25.6544 31.9834C25.6031 31.9308 25.5609 31.8877 25.5351 31.8614C25.4029 31.8683 25.2897 31.8742 25.1655 31.8804C25.1446 31.8212 24.8205 31.815 24.6275 31.8439C24.4246 31.8742 24.2126 31.846 24.0048 31.846C23.8016 31.846 23.5979 31.8504 23.3947 31.8497C23.1926 31.849 22.9908 31.8428 22.7887 31.8424C22.5676 31.8417 22.3469 31.8457 22.1258 31.8464C21.921 31.8471 21.7162 31.8464 21.5092 31.8464C21.5069 31.8639 21.5039 31.8899 21.5005 31.9187C21.4222 31.8523 21.3629 31.8044 21.2379 31.8329C21.0913 31.8665 20.9279 31.8278 20.7722 31.8318C20.4944 31.8387 20.2126 31.8891 19.9405 31.8574C19.629 31.8208 19.3209 31.8793 19.0075 31.8278C18.7461 31.7847 18.4684 31.8314 18.1983 31.8431C18.1588 31.8449 18.1208 31.8731 18.1048 31.8797C18.0421 31.8639 17.987 31.8387 17.9319 31.8387C17.7401 31.8387 17.5433 31.823 17.3579 31.8585C17.062 31.9151 16.7797 31.8117 16.4875 31.8303C16.1502 31.8515 15.8105 31.8398 15.472 31.838C15.2304 31.8365 14.9892 31.8212 14.7479 31.8245C14.4561 31.8285 14.1632 31.8347 13.873 31.861C13.6864 31.8778 13.5098 31.8384 13.3286 31.8238C13.3042 31.8219 13.2799 31.8132 13.2564 31.815C13.0455 31.8325 12.8351 31.8526 12.6242 31.868C12.6067 31.8691 12.5866 31.8402 12.5642 31.8223C12.5471 31.8639 12.5307 31.9041 12.5273 31.9129C12.4855 31.8968 12.4548 31.876 12.4225 31.8742C12.2173 31.8639 12.0118 31.8526 11.8063 31.8515C11.6505 31.8508 11.4951 31.8669 11.3393 31.8702C11.2364 31.8723 11.1331 31.861 11.0297 31.8632C10.9655 31.8643 10.9017 31.8862 10.8379 31.8855C10.7421 31.8848 10.646 31.8738 10.5506 31.8639C10.5279 31.8618 10.5062 31.8376 10.4845 31.8384C10.1578 31.8482 9.81894 31.8143 9.50969 31.8906C9.33265 31.9341 9.23426 31.8289 9.08495 31.8344C8.26548 31.8632 7.44449 31.8618 6.62426 31.8596C6.25233 31.8585 5.87964 31.8431 5.50884 31.8128C5.26912 31.7934 5.03168 31.7412 4.79575 31.693C4.60048 31.6528 4.41014 31.5699 4.21449 31.5578C4.08038 31.5498 3.95843 31.5798 3.91322 31.4954C3.26775 31.3613 2.73739 31.0665 2.17854 30.8265C2.21159 30.7845 2.23287 30.7582 2.22147 30.7725C2.10256 30.668 1.98859 30.577 1.88677 30.4755C1.81193 30.4003 1.7614 30.302 1.68428 30.2293C1.54713 30.0996 1.51712 29.9374 1.48444 29.7668C1.45671 29.6218 1.38225 29.4852 1.34882 29.3409C1.31234 29.1824 1.29715 29.0191 1.27587 28.8577C1.25232 28.679 1.22344 28.5004 1.21357 28.3211C1.20407 28.1486 1.07984 27.9905 1.15354 27.8071C1.16532 27.7775 1.13644 27.7271 1.11631 27.6917C0.988279 27.4718 0.997017 27.2292 1.00272 26.9918C1.005 26.8928 1.10035 26.7898 1.08668 26.6977C1.00196 26.1268 1.141 25.5562 1.05932 24.9805C1.01183 24.6445 1.0901 24.2876 1.07376 23.9358C1.05248 23.4788 1.08402 23.02 1.08364 22.5616C1.08326 22.1795 1.0654 21.7974 1.06236 21.4154C1.06122 21.2572 1.11821 21.0884 1.07718 20.9434C1.01943 20.7414 1.12353 20.5555 1.073 20.3513C1.02475 20.1551 1.07946 19.9352 1.09086 19.7263C1.09199 19.708 1.11023 19.6908 1.12961 19.6583C1.07946 19.6671 1.05666 19.6715 1.03235 19.6759C1.03045 19.6737 1.02703 19.6689 1.02323 19.6645C1.15316 19.5798 1.03691 19.4684 1.05704 19.3825C1.13758 19.0333 1.06236 18.6856 1.08212 18.3378C1.10529 17.9243 1.09883 17.5086 1.09883 17.094C1.09883 16.7879 1.08402 16.4822 1.08288 16.1761C1.08022 15.5357 1.08174 14.895 1.08288 14.2547C1.08326 14.0446 1.11137 13.8317 1.0844 13.6249C1.06122 13.4489 1.13682 13.2699 1.0825 13.1088C0.970423 12.7771 1.12315 12.4593 1.09921 12.1335C1.07832 11.8453 1.12429 11.5487 1.073 11.267C1.01487 10.9489 1.12923 10.646 1.09124 10.3334C1.05894 10.0667 1.0597 9.79639 1.05172 9.52754C1.04906 9.43951 1.07376 9.35111 1.07224 9.26308C1.0692 9.10673 1.0521 8.95039 1.04679 8.79369C1.04413 8.71259 1.05628 8.63113 1.05894 8.54968C1.06616 8.31809 1.11099 8.07846 1.06312 7.85783C1.03387 7.72413 1.09313 7.62112 1.08668 7.49985C1.06388 7.06699 1.09313 6.63193 1.08364 6.19834C1.07794 5.93716 1.01753 5.67708 1.01715 5.41627C1.01715 5.16568 1.0502 4.91291 1.09275 4.66488C1.13037 4.44571 1.20407 4.23238 1.2565 4.0154C1.31842 3.75824 1.36249 3.49597 1.43771 3.24246C1.48938 3.06859 1.62083 2.91078 1.64363 2.73691C1.66528 2.57326 1.73898 2.44468 1.79179 2.2993C1.89399 2.01803 2.08812 1.79667 2.23781 1.54718C2.41485 1.25276 2.68268 1.07048 3.00371 0.941901C3.18683 0.868479 3.35399 0.758163 3.53672 0.683279C3.64994 0.636888 3.79392 0.650039 3.89688 0.591958C4.05302 0.503925 4.21031 0.480912 4.38507 0.471049C4.57806 0.460091 4.76992 0.384842 4.96063 0.390321C5.23303 0.398358 5.48187 0.325666 5.73603 0.26028C5.7782 0.249322 5.81961 0.2285 5.8614 0.227405C6.3116 0.216811 6.76217 0.204392 7.21237 0.202565C7.45323 0.201469 7.6941 0.221925 7.93534 0.228135C8.0155 0.230327 8.09642 0.216081 8.17696 0.21462C8.56865 0.206583 8.96072 0.198182 9.35241 0.194529C9.57884 0.192337 9.80526 0.199643 10.0321 0.200008C10.412 0.200008 10.7919 0.196721 11.1718 0.197817C11.4484 0.198547 11.7246 0.208775 12.0012 0.206583C12.1983 0.204757 12.3951 0.186493 12.5923 0.180648C12.938 0.170786 13.2837 0.160558 13.6298 0.159096C14.0945 0.15727 14.5591 0.162749 15.0237 0.166767C15.5712 0.171151 16.1186 0.184301 16.6661 0.178091C16.8538 0.1759 17.0631 0.0644878 17.2234 0.115993C17.4468 0.187589 17.6523 0.143024 17.8647 0.146312C18.0934 0.149599 18.3225 0.125856 18.5512 0.12476C18.8931 0.123299 19.235 0.134988 19.577 0.134988C19.8684 0.134988 20.1597 0.12549 20.4511 0.122203C20.5381 0.121107 20.6251 0.129143 20.7125 0.129874C21.056 0.132065 21.3998 0.133892 21.7432 0.134257C22.1509 0.134622 22.5585 0.140102 22.9662 0.132065C23.4661 0.121837 23.9657 0.095537 24.4653 0.0838479C24.808 0.0758116 25.1518 0.0893272 25.4941 0.0754464C25.7209 0.0663143 25.9458 0.0162703 26.1726 0.00202423C26.3208 -0.00710788 26.4712 0.0173662 26.6209 0.0217496C26.8006 0.0268636 26.9818 0.0144439 27.1604 0.0308817C27.5202 0.0637573 27.8894 0.0739852 28.2348 0.163845C28.5262 0.239824 28.7963 0.403837 29.0622 0.551412C29.1857 0.620085 29.2746 0.745012 29.384 0.838891C29.4512 0.896605 29.547 0.931307 29.5975 0.99852C29.9679 1.49238 30.2297 2.03227 30.3368 2.63865C30.3892 2.93708 30.4303 3.24502 30.5435 3.52336C30.6392 3.75861 30.5796 3.98691 30.6229 4.21156C30.667 4.44023 30.7726 4.65721 30.8463 4.88076C30.8854 4.99948 30.9359 5.12002 30.9432 5.24203C30.9625 5.56567 30.9606 5.89077 30.9678 6.21514C30.9792 6.70974 30.9986 7.20397 31.0013 7.69856C31.0043 8.23882 30.9876 8.77907 30.9891 9.31933C30.9899 9.56115 31.0191 9.80297 31.0252 10.0452C31.034 10.4013 31.0351 10.7578 31.037 11.1143C31.0381 11.2955 31.0309 11.4767 31.0332 11.6579C31.0389 12.1061 31.0522 12.5539 31.0541 13.0021C31.0556 13.4021 31.0404 13.8025 31.0427 14.2025C31.0442 14.4647 31.0693 14.727 31.0727 14.9896C31.0742 15.1153 31.0381 15.2413 31.0393 15.367C31.0408 15.5178 31.0765 15.6687 31.0754 15.8192C31.0731 16.1739 31.0465 16.5289 31.051 16.8833C31.0541 17.1401 31.1289 17.4001 31.1039 17.6526C31.0613 18.0792 31.1825 18.5018 31.0852 18.9322C31.0351 19.1542 31.1236 19.4026 31.1266 19.6393C31.1308 19.9608 31.1046 20.283 31.1073 20.6044C31.1096 20.8671 31.1411 21.1293 31.1491 21.3923C31.1578 21.6784 31.1578 21.9651 31.1563 22.2511C31.1548 22.5273 31.1403 22.8038 31.1411 23.08C31.1422 23.4982 31.1491 23.9161 31.1582 24.3343C31.1673 24.7515 31.1897 25.1686 31.1928 25.5858C31.1954 25.9299 31.1734 26.2744 31.1734 26.6185C31.1734 26.7448 31.1821 26.8796 31.2281 26.9954C31.3189 27.2237 31.3288 27.455 31.3022 27.6895C31.2858 27.8352 31.2338 27.9773 31.2102 28.1227C31.1962 28.2096 31.222 28.3039 31.2019 28.3883C31.1502 28.6038 31.051 28.8127 31.0286 29.0297C30.9963 29.3468 30.7843 29.5919 30.7118 29.8874C30.6415 30.1741 30.4884 30.4258 30.3026 30.6439C30.1552 30.8167 29.9254 30.9222 29.7419 31.0687C29.5021 31.2605 29.2294 31.4 28.9672 31.5575C28.6948 31.7211 28.3993 31.8194 28.0862 31.8658C27.7709 31.9125 27.4506 31.9319 27.1353 31.9794C26.8131 32.0276 26.4921 31.9768 26.1703 31.9896C26.0244 31.9954 25.877 31.9454 25.7289 31.9301C25.7034 31.9275 25.6723 31.9706 25.6533 31.9856L25.6544 31.9834ZM11.0107 13.7535C10.8804 13.8039 10.7531 13.8251 10.6661 13.8931C10.4959 14.026 10.3474 14.1853 10.1913 14.3347C10.1529 14.3712 10.1244 14.418 10.0834 14.4508C9.94355 14.563 9.79311 14.6634 9.6609 14.7829C9.53211 14.899 9.42877 15.0411 9.30036 15.1577C8.93071 15.4926 8.55269 15.8188 8.18152 16.1523C8.0873 16.2371 8.01284 16.3427 7.91862 16.4278C7.83922 16.4994 7.73323 16.5447 7.65838 16.6195C7.5691 16.7087 7.5201 16.8665 7.41828 16.9034C7.30241 16.9454 7.19869 17.0038 7.12537 17.0772C6.79181 17.4107 6.36289 17.6515 6.09923 18.0525C6.09011 18.0661 6.06921 18.0745 6.05212 18.081C5.77478 18.1932 5.60344 18.4259 5.39981 18.6202C5.24747 18.7656 5.12209 18.9376 4.96557 19.0783C4.84058 19.1908 4.67836 19.2518 4.55565 19.384C4.37861 19.5747 4.15636 19.7296 3.94057 19.8833C3.59029 20.1332 3.78709 20.4915 3.72744 20.7984C3.71224 20.8769 3.70427 20.9584 3.70692 21.038C3.71034 21.1531 3.73618 21.2678 3.73504 21.3825C3.732 21.7017 3.70844 22.0214 3.71414 22.3403C3.7206 22.6946 3.76391 23.0482 3.76695 23.4021C3.76923 23.6739 3.72516 23.9457 3.71794 24.2178C3.7092 24.5466 3.71718 24.8757 3.71946 25.2044C3.72022 25.2918 3.72668 25.3791 3.7301 25.4667C3.74188 25.7736 3.77379 26.0815 3.75821 26.3869C3.74568 26.6305 3.68565 26.8709 3.79051 27.1083C3.8019 27.1346 3.80076 27.1671 3.79962 27.1967C3.78177 27.7125 3.8228 28.2232 3.94855 28.7262C3.95653 28.7579 3.9797 28.7996 4.00744 28.8116C4.19055 28.8902 4.37101 28.9906 4.564 29.029C4.91922 29.0995 5.2828 29.1309 5.64219 29.1809C5.77782 29.1996 5.91345 29.2186 6.0468 29.2481C6.16153 29.2737 6.27247 29.342 6.38568 29.3435C6.74508 29.3479 7.10447 29.3281 7.46387 29.3205C7.82706 29.3128 8.19026 29.3037 8.55345 29.3037C9.13586 29.3033 9.71788 29.3113 10.3003 29.3124C10.7554 29.3132 11.2109 29.3073 11.6664 29.308C12.2169 29.3088 12.7671 29.3154 13.3175 29.3143C13.7404 29.3135 14.1632 29.3004 14.5861 29.3029C14.8854 29.3048 15.1844 29.3314 15.4838 29.3311C15.7433 29.3311 16.0024 29.3022 16.2622 29.2975C16.3963 29.2949 16.5312 29.3281 16.6646 29.3238C16.8321 29.3183 16.9989 29.2763 17.1664 29.2752C17.47 29.273 17.7735 29.2912 18.0771 29.2967C18.2982 29.3007 18.5193 29.2978 18.7404 29.2978C19.0132 29.2978 19.2863 29.2978 19.5591 29.2982C19.8976 29.2989 20.2361 29.3004 20.575 29.3018C20.801 29.3026 21.0267 29.3084 21.2528 29.3037C21.4636 29.2993 21.6745 29.2737 21.8849 29.2748C22.4316 29.2777 22.9783 29.2927 23.525 29.2982C23.9247 29.3022 24.3243 29.3 24.724 29.2971C25.17 29.2938 25.616 29.2836 26.0624 29.2836C26.1563 29.2836 26.2516 29.3099 26.3439 29.3329C26.4853 29.3683 26.6224 29.4279 26.7656 29.4476C26.9826 29.4775 27.193 29.4432 27.4126 29.4008C27.6991 29.3453 27.9111 29.1842 28.1535 29.0666C28.2044 29.0418 28.2549 28.9826 28.2709 28.9296C28.3662 28.6122 28.5679 28.3254 28.5698 27.981C28.5702 27.8882 28.571 27.795 28.5759 27.7023C28.5923 27.3943 28.5216 27.0871 28.5812 26.777C28.6048 26.6539 28.5641 26.5202 28.56 26.3913C28.5531 26.1882 28.5554 25.9847 28.5482 25.7816C28.5444 25.6808 28.5034 25.5759 28.5212 25.4802C28.5603 25.2713 28.5657 25.0649 28.5322 24.8567C28.5167 24.7603 28.4411 24.6036 28.4733 24.5813C28.6177 24.4808 28.5254 24.3668 28.525 24.2631C28.5231 23.8145 28.5349 23.3649 28.4988 22.9185C28.4775 22.6518 28.4771 22.3914 28.4996 22.1262C28.5083 22.0225 28.4882 21.9023 28.438 21.8117C28.3803 21.7069 28.2682 21.6312 28.1911 21.5341C27.8944 21.16 27.6041 20.7812 27.3059 20.4086C27.2709 20.3648 27.2014 20.3465 27.1668 20.3272C27.1585 20.264 27.1722 20.1898 27.1395 20.1515C26.9963 19.9827 26.839 19.8249 26.6881 19.6624C26.4731 19.4308 26.3436 19.1393 26.0803 18.9354C25.8956 18.7926 25.7661 18.5807 25.6225 18.3926C25.4671 18.1895 25.317 17.982 25.1769 17.7691C25.0105 17.5167 24.9048 17.5214 24.7145 17.7537C24.5037 18.0109 24.2639 18.2465 24.0303 18.4861C23.8776 18.6425 23.6815 18.7689 23.5626 18.9449C23.3928 19.1966 23.1003 19.3511 22.9889 19.6437C22.9863 19.6507 22.946 19.6397 22.9365 19.6492C22.7982 19.7895 22.6622 19.9319 22.5258 20.0737C22.5395 20.0854 22.5532 20.097 22.5665 20.1087C22.5236 20.0908 22.4802 20.0729 22.429 20.0517C22.4347 20.0974 22.4529 20.1398 22.4392 20.1537C22.2553 20.3407 22.0642 20.5208 21.8823 20.7089C21.8272 20.7655 21.8063 20.8539 21.7493 20.9072C21.5305 21.1125 21.3006 21.3072 21.0795 21.5111C20.8117 21.758 20.5488 22.01 20.2836 22.2595C20.1039 22.4283 19.9018 22.532 19.6567 22.4601C19.7107 22.375 19.7692 22.2829 19.8501 22.1554C19.5409 22.2256 19.7415 21.9669 19.6184 21.9282C19.3274 22.2142 19.2563 22.2329 18.955 22.1339C18.8339 22.094 18.7119 22.0575 18.5983 22.0217C18.5611 21.9636 18.5299 21.9001 18.484 21.8482C18.4494 21.8091 18.3567 21.7825 18.3586 21.7543C18.3688 21.6031 18.2378 21.5574 18.1599 21.4701C17.9992 21.2904 17.8514 21.0997 17.6877 20.9222C17.5756 20.8006 17.4229 20.7217 17.353 20.5536C17.3214 20.4773 17.1919 20.4386 17.079 20.3648C17.0733 20.3491 17.0688 20.2753 17.0285 20.2315C16.7782 19.9579 16.5187 19.6923 16.2649 19.422C15.9868 19.1258 15.7152 18.8233 15.4318 18.5314C15.3489 18.446 15.1928 18.408 15.1453 18.3137C15.0553 18.134 14.9318 18.001 14.7859 17.8615C14.5321 17.6182 14.3254 17.33 14.0941 17.0645C14.0785 17.0466 14.0211 17.0623 13.9763 17.0623C13.8388 16.8698 13.7077 16.6298 13.5204 16.4409C13.3498 16.2689 13.1576 16.118 12.9992 15.9299C12.7925 15.6837 12.5269 15.485 12.3499 15.2125C12.3412 15.1989 12.3161 15.1964 12.302 15.1847C12.2154 15.1127 12.1201 15.0477 12.0456 14.9652C11.8834 14.7843 11.7409 14.5864 11.5738 14.4103C11.3853 14.2112 11.1023 14.0936 11.01 13.7528L11.0107 13.7535ZM24.7673 14.3924C24.9546 14.4424 25.1104 14.4918 25.2699 14.5239C25.3718 14.5444 25.4903 14.514 25.5815 14.5513C25.7463 14.6189 25.9215 14.6956 26.0472 14.8132C26.3003 15.0503 26.532 15.3107 26.7554 15.5752C26.8937 15.7392 26.9868 15.9379 27.1235 16.1034C27.4206 16.4632 27.734 16.8102 28.0372 17.1649C28.1595 17.3085 28.2731 17.459 28.3909 17.6062C28.4069 17.6029 28.4232 17.5992 28.4392 17.5959C28.4475 17.5357 28.4635 17.4754 28.4627 17.4155C28.457 17.0473 28.4437 16.6787 28.4407 16.3105C28.4384 16.061 28.4547 15.8115 28.4498 15.5624C28.4479 15.4704 28.389 15.3787 28.3909 15.2873C28.3943 15.116 28.4376 14.9454 28.438 14.7741C28.4388 14.4782 28.416 14.1824 28.4107 13.8865C28.4053 13.5818 28.4107 13.2768 28.4069 12.9722C28.4065 12.9302 28.3556 12.875 28.3708 12.8491C28.4593 12.6971 28.4304 12.5495 28.3833 12.3958C28.3586 12.315 28.3145 12.1788 28.3484 12.1532C28.4479 12.0787 28.4015 11.998 28.4027 11.9209C28.4072 11.6137 28.4388 11.3025 28.3943 11.0015C28.3696 10.8323 28.4559 10.6716 28.3985 10.5222C28.3324 10.3491 28.3784 10.1701 28.3617 10.001C28.3343 9.72151 28.3548 9.42709 28.3617 9.14034C28.3727 8.65963 28.3225 8.17855 28.3666 7.69856C28.3757 7.60067 28.3598 7.50058 28.3601 7.40159C28.3613 7.09986 28.37 6.79777 28.3658 6.49605C28.3628 6.30318 28.3958 6.08583 28.3157 5.92401C28.2112 5.71288 28.264 5.44439 28.0535 5.27819C28.0482 5.27417 28.0543 5.25737 28.0543 5.24641C28.0516 5.0729 28.0539 4.89939 28.044 4.72625C28.0308 4.48625 28.0099 4.24699 27.989 4.00737C27.9833 3.93979 27.9722 3.87148 27.9533 3.80646C27.8944 3.60701 27.7868 3.41086 27.7789 3.21032C27.7679 2.93197 27.5566 2.81179 27.4096 2.63353C27.3207 2.52577 27.2466 2.62696 27.1703 2.61709C27.0464 2.60066 26.9294 2.53564 26.8055 2.51956C26.7345 2.51007 26.6559 2.55646 26.5803 2.57728C26.5415 2.55098 26.4921 2.54404 26.4431 2.5455C26.4146 2.54623 26.3865 2.56742 26.3576 2.56851C26.1658 2.57545 25.9735 2.57472 25.7821 2.58531C25.4789 2.60212 25.1753 2.64814 24.8733 2.63901C24.6495 2.63207 24.4338 2.68175 24.1982 2.64851C23.9668 2.616 23.7017 2.61162 23.4441 2.65655C23.1497 2.70805 22.8366 2.6602 22.5315 2.65545C22.2732 2.65143 22.0152 2.64303 21.7569 2.64522C21.6623 2.64595 21.5662 2.68942 21.4739 2.68138C21.0845 2.64668 20.6969 2.62769 20.3121 2.71828C20.292 2.72303 20.2688 2.71645 20.2475 2.71389C20.1066 2.69636 19.966 2.67116 19.8243 2.66275C19.683 2.65435 19.5405 2.65618 19.3995 2.66641C19.3426 2.67043 19.2882 2.70915 19.2776 2.71353C19.0721 2.69928 18.8988 2.68321 18.7256 2.67737C18.5983 2.67298 18.4703 2.69015 18.3434 2.68321C18.2332 2.677 18.123 2.62878 18.0155 2.63645C17.8157 2.6507 17.6189 2.71024 17.4194 2.71791C17.0714 2.73143 16.7227 2.7212 16.3743 2.71791C16.1585 2.71609 15.9424 2.70842 15.7266 2.70513C15.5404 2.70221 15.3542 2.696 15.1681 2.70184C15.0044 2.70695 14.841 2.73983 14.678 2.738C14.4026 2.73472 14.1275 2.70403 13.8521 2.70294C13.4676 2.70147 13.0828 2.71061 12.6987 2.72668C12.552 2.73289 12.3894 2.65508 12.2678 2.79097C12.2678 2.76723 12.2686 2.73289 12.2678 2.73289C12.0988 2.72558 11.9267 2.70001 11.7618 2.72266C11.6486 2.73837 11.5384 2.72558 11.4358 2.73472C11.1353 2.76138 10.8238 2.65143 10.5305 2.79718C10.4834 2.82056 10.4021 2.7833 10.3379 2.76978C10.2957 2.76102 10.2551 2.73216 10.214 2.73252C9.80716 2.73764 9.40028 2.74421 8.99339 2.7559C8.74037 2.76321 8.48773 2.78732 8.23471 2.7917C8.04437 2.79499 7.85404 2.77453 7.6637 2.77563C7.6071 2.77563 7.53111 2.84649 7.49768 2.82786C7.28569 2.7128 7.06496 2.76905 6.84879 2.78293C6.76141 2.78878 6.67973 2.85928 6.59159 2.86914C6.39898 2.89069 6.20408 2.90056 6.00995 2.89909C5.90661 2.89836 5.80328 2.86476 5.71286 2.84832C5.66347 2.88156 5.61218 2.94548 5.56925 2.94074C5.22657 2.90348 4.90061 2.9495 4.5773 3.06274C4.36303 3.13762 4.21601 3.2494 4.16434 3.47296C4.12293 3.65194 3.96754 3.805 4.03251 4.00919C4.03555 4.01942 4.03061 4.0344 4.02453 4.04426C3.78747 4.42489 3.78253 4.85336 3.75517 5.276C3.74492 5.43453 3.76087 5.59416 3.75593 5.75306C3.74758 6.00985 3.72554 6.26592 3.72098 6.52271C3.71832 6.67759 3.74796 6.83321 3.74606 6.98845C3.74226 7.31611 3.71984 7.64377 3.7187 7.97143C3.71794 8.20631 3.75023 8.44155 3.74872 8.67643C3.74682 8.99715 3.71756 9.3175 3.71642 9.63786C3.71528 10.0203 3.73846 10.4024 3.7377 10.7849C3.73694 11.1195 3.70844 11.4537 3.7092 11.7883C3.70996 12.2109 3.732 12.6339 3.7377 13.0566C3.74378 13.4872 3.74568 13.9179 3.74112 14.3482C3.73694 14.7219 3.71984 15.0956 3.70958 15.4693C3.70655 15.584 3.67729 15.7085 3.71376 15.8112C3.78139 16.0015 3.75859 16.1786 3.71604 16.3653C3.69591 16.4526 3.71262 16.5476 3.71262 16.6875C3.78405 16.6236 3.81824 16.594 3.85167 16.5633C4.10507 16.3306 4.35771 16.0972 4.61187 15.8652C4.66734 15.8148 4.73193 15.7732 4.78663 15.7217C5.02902 15.4915 5.26266 15.2526 5.51188 15.0298C5.78466 14.7865 6.07795 14.5644 6.34997 14.3204C6.54866 14.1422 6.71924 13.9347 6.91718 13.7553C7.33128 13.3798 7.7583 13.0175 8.17354 12.6431C8.58271 12.2741 8.9782 11.8906 9.39154 11.5256C9.58263 11.3569 9.81552 11.2316 10.0032 11.0603C10.1624 10.9153 10.3782 10.9456 10.5465 10.8444C10.6855 10.7607 10.7946 10.8378 10.8873 10.9313C10.9496 10.9942 10.9993 11.069 11.0502 11.1333C11.1144 11.1176 11.1653 11.0997 11.2174 11.0942C11.2672 11.0891 11.3325 11.118 11.3667 11.0964C11.5194 10.9993 11.5772 11.0018 11.7151 11.1041C11.7538 11.1326 11.8268 11.1184 11.9229 11.1271C11.9981 11.1731 12.1383 11.2272 12.2337 11.3229C12.4502 11.5406 12.6409 11.7817 12.8499 12.0071C13.0626 12.2365 13.2868 12.4564 13.5014 12.684C13.8711 13.0763 14.2384 13.4708 14.6051 13.8657C14.8904 14.1729 15.1715 14.4837 15.4583 14.7895C15.6263 14.9685 15.8037 15.1394 15.9739 15.3166C16.062 15.4083 16.1407 15.5091 16.2299 15.6C16.4108 15.7849 16.6049 15.9584 16.777 16.1505C17.0004 16.3996 17.2014 16.6674 17.4229 16.918C17.6311 17.1536 17.8491 17.3819 18.0718 17.6054C18.3031 17.8374 18.5482 18.0566 18.7811 18.2874C18.919 18.424 19.0683 18.5585 19.1701 18.7188C19.3099 18.9391 19.4858 19.1137 19.675 19.2624C19.7472 19.1835 19.7992 19.1195 19.8592 19.0629C20.007 18.9227 20.1662 18.7926 20.3068 18.6461C20.4895 18.4555 20.6533 18.2472 20.8349 18.0558C21.1847 17.6873 21.54 17.3234 21.8963 16.9603C22.0863 16.7667 22.288 16.5834 22.4757 16.3879C22.7454 16.1078 23.0064 15.8199 23.2727 15.5368C23.416 15.3849 23.5596 15.2329 23.7085 15.0864C23.8833 14.9144 24.0455 14.7219 24.2484 14.5871C24.4125 14.4782 24.6286 14.4417 24.7669 14.3928L24.7673 14.3924Z" fill="currentColor"/>
<path d="M23.9671 8.07695C23.9439 8.14818 23.909 8.19932 23.9154 8.24535C23.9355 8.3973 23.9979 8.5478 23.9941 8.69793C23.9872 8.97007 23.9485 9.24184 23.9139 9.51252C23.9036 9.59471 23.8497 9.67178 23.8398 9.75397C23.7874 10.1828 23.5435 10.5339 23.368 10.9152C23.2908 11.0825 23.14 11.1881 23.0788 11.3747C23.0188 11.557 22.7844 11.6871 22.6233 11.8368C22.5614 11.8942 22.4497 11.9073 22.4657 12.0308C22.4683 12.0516 22.3923 12.0914 22.3471 12.1068C22.2096 12.1524 22.0804 12.197 22.0371 12.357C22.0284 12.3899 21.9516 12.4103 21.903 12.4275C21.8058 12.4618 21.6971 12.4746 21.6097 12.5236C21.424 12.628 21.2234 12.6828 21.0247 12.7508C20.8499 12.8107 20.6713 12.8954 20.4871 12.9498C20.3465 12.9911 20.2029 13.0273 20.0582 13.0503C19.6669 13.112 19.2767 13.0989 18.8812 13.0594C18.496 13.0211 18.1389 12.9027 17.7696 12.8136C17.3304 12.7077 17.0265 12.3847 16.6215 12.2332C16.5569 12.209 16.5075 12.1407 16.4577 12.087C16.1204 11.7225 15.7777 11.362 15.4533 10.9872C15.348 10.8655 15.2948 10.7052 15.2557 10.5448C15.2048 10.3373 15.1638 10.12 15.0654 9.93259C14.962 9.73534 14.9609 9.53188 14.9301 9.32805C14.9294 9.3222 14.9309 9.31599 14.9301 9.31015C14.8709 8.78889 14.8621 8.3111 15.0521 7.80445C15.0866 7.7124 15.0323 7.5893 15.0661 7.49688C15.1098 7.3778 15.201 7.27515 15.2755 7.15972H15.1053C15.1478 7.13379 15.1604 7.12611 15.1733 7.11881C15.2185 7.09324 15.2823 7.07863 15.3062 7.04064C15.4149 6.86859 15.5053 6.68595 15.6155 6.51499C15.9004 6.07263 16.2822 5.72269 16.7096 5.40453C16.903 5.26061 17.1385 5.1828 17.3069 5.02938C17.4619 4.88802 17.6423 4.865 17.8156 4.79268C18.0659 4.68821 18.3459 4.6736 18.583 4.57059C18.7817 4.48438 18.9758 4.51799 19.1677 4.47561C19.369 4.43141 19.5916 4.46356 19.8036 4.4778C20.0297 4.49278 20.2603 4.50447 20.4787 4.5567C20.6892 4.60711 20.8879 4.70465 21.09 4.7861C21.3176 4.87779 21.5565 4.95304 21.7655 5.07541C22.0356 5.23358 22.292 5.41768 22.5337 5.6142C22.8824 5.89803 23.1506 6.24688 23.3885 6.62568C23.6609 7.06 23.8292 7.52099 23.9139 8.01631C23.9192 8.04736 23.9637 8.07257 23.9686 8.07768L23.9671 8.07695ZM17.531 8.86085C17.5147 8.86487 17.4983 8.86925 17.482 8.87327C17.5432 9.07162 17.5967 9.27289 17.667 9.46832C17.86 10.0027 18.2885 10.2997 18.8219 10.4571C19.3215 10.6047 19.8177 10.5616 20.2865 10.3198C20.9209 9.99214 21.2917 9.49389 21.3354 8.79546C21.3765 8.13795 20.902 7.39569 20.2819 7.19077C19.7257 7.00703 19.1563 7.00521 18.6115 7.25177C18.4344 7.33214 18.2506 7.42674 18.1142 7.55752C17.7445 7.91294 17.5207 8.34142 17.5302 8.86085H17.531Z" fill="currentColor"/>
</g>
</svg>
