<svg viewBox="0 0 36 35" fill="none" xmlns="http://www.w3.org/2000/svg">
<g clip-path="url(#clip0_2958_3605)">
<path d="M22.4448 8.76886C22.6208 8.90038 22.6744 8.69422 22.7706 8.61824C22.8625 8.54582 22.9277 8.43741 23.0205 8.3672C23.2777 8.17171 23.5427 7.98821 23.8051 7.79982C23.7386 7.54879 24.0386 7.69719 24.0739 7.53901C24.0882 7.47592 24.171 7.42971 24.2379 7.38928C24.2975 7.3413 24.3558 7.29109 24.4175 7.24577C24.5521 7.14536 24.6851 7.04228 24.8249 6.94941C25.3652 6.59086 25.9068 6.23319 26.4515 5.88218C26.5158 5.84086 26.6237 5.86397 26.6802 5.81732C27.079 5.48631 27.5688 5.32813 28.0038 5.06688C28.1933 4.95314 28.4099 4.8856 28.618 4.80785C28.9209 4.69499 29.2248 4.58169 29.5333 4.48661C29.9731 4.35154 30.412 4.16982 30.8621 4.12494C31.298 4.08184 31.7261 3.97477 32.1802 3.99787C32.5824 4.01831 32.9777 4.0934 33.3786 4.10495C33.5543 4.10984 34.1896 4.38486 34.3341 4.41063C34.7049 4.47639 34.8926 4.78208 35.1338 5.00601C35.3259 5.18462 35.4515 5.43788 35.6116 5.65425C35.9064 6.05236 36.0177 6.50599 35.9978 6.9974C35.981 7.41949 35.975 7.84336 35.9232 8.26146C35.8917 8.5156 35.7911 8.7622 35.707 9.00701C35.6025 9.31092 35.4942 9.61438 35.3669 9.90851C35.2551 10.1667 35.1243 10.4172 34.9858 10.6616C34.8235 10.9482 34.657 11.2334 34.4697 11.5027C34.2457 11.8253 33.9962 12.1292 33.761 12.4437C33.6971 12.5295 33.6497 12.6277 33.5871 12.7152C33.4248 12.9427 33.1741 13.1004 33.0865 13.387C32.6411 13.5976 32.4987 14.1312 32.0852 14.3814C32.0045 14.4302 31.9838 14.5751 31.9087 14.6466C31.8194 14.7315 31.6882 14.7701 31.5997 14.8554C31.4042 15.0434 31.2298 15.2549 31.0343 15.4428C30.9562 15.5179 30.8362 15.5441 30.7508 15.613C30.4603 15.848 30.1794 16.0964 29.8889 16.3319C29.7461 16.4479 29.5873 16.5416 29.4427 16.6558C29.368 16.7149 29.3098 16.7953 29.2511 16.8584C29.1402 16.8762 29.0306 16.8935 28.9205 16.9113C28.9283 16.9233 28.936 16.9353 28.9434 16.9468C28.8817 16.9872 28.804 17.0143 28.7608 17.0699C28.4056 17.528 27.8325 17.6502 27.4113 18.0056C27.3004 18.0989 27.1687 18.1669 27.0609 18.2629C27.0237 18.2957 27.0289 18.3788 27.0151 18.4392C27.0384 18.4464 27.0613 18.453 27.0846 18.4601C27.1036 18.421 27.1226 18.3819 27.126 18.3748C27.211 18.4268 27.2896 18.4672 27.3595 18.5197C27.4812 18.6107 27.5973 18.7098 27.7173 18.8036C27.7669 18.8427 27.8036 18.9644 27.889 18.8391C27.8934 18.8329 27.9434 18.8489 27.9628 18.8658C28.1769 19.0537 28.3892 19.2439 28.6029 19.4323C28.6456 19.47 28.6909 19.506 28.7397 19.5358C28.8135 19.5807 28.9037 19.6051 28.9641 19.6633C29.1617 19.8553 29.3581 20.0508 29.5381 20.26C29.6757 20.4204 29.7884 20.6039 29.9183 20.7861C29.9373 20.7528 29.9515 20.7274 29.9748 20.687C30.1686 20.9438 30.3589 21.1949 30.5484 21.4463C30.7115 21.6632 30.879 21.8764 31.0335 22.0999C31.1604 22.2839 31.2821 22.4736 31.3856 22.6717C31.5807 23.0463 31.7771 23.4222 31.9428 23.8109C32.0615 24.0904 32.1249 24.3943 32.225 24.6831C32.2967 24.8893 32.3985 25.0843 32.4667 25.2914C32.5181 25.4482 32.5681 25.6166 32.5643 25.7788C32.5565 26.1165 32.6752 26.4244 32.7252 26.7465C32.7865 27.1419 32.7887 27.5498 32.7891 27.9523C32.7891 28.3482 32.7792 28.7477 32.73 29.1395C32.6898 29.4586 32.5487 29.7651 32.5155 30.0846C32.4551 30.664 32.1469 31.1349 31.926 31.6423C31.8034 31.924 31.6403 32.1986 31.4465 32.4341C31.1401 32.8064 30.8177 33.173 30.4556 33.4853C30.1643 33.7364 29.8044 33.9021 29.4755 34.1074C29.3922 34.1593 29.3162 34.2278 29.2286 34.2686C29.0961 34.33 28.9585 34.3824 28.8186 34.4233C28.6318 34.4775 28.4432 34.5281 28.252 34.5601C27.8303 34.6308 27.4126 34.7872 26.9771 34.6454C26.9642 34.6414 26.9474 34.6334 26.9374 34.6383C26.6448 34.7836 26.3708 34.693 26.0808 34.6041C25.9111 34.5521 25.7118 34.6032 25.5253 34.6072C25.4899 34.6081 25.4524 34.6117 25.4196 34.6014C25.1559 34.5192 24.887 34.4508 24.6315 34.3464C24.1093 34.1336 23.5634 33.9545 23.0856 33.6613C22.6368 33.3858 22.1392 33.1503 21.8324 32.6562C21.7348 32.4994 21.5018 32.4319 21.3304 32.3243C21.2998 32.3052 21.261 32.295 21.2372 32.2697C21.1021 32.1244 20.9688 31.9773 20.8385 31.8276C20.6602 31.6232 20.4863 31.4144 20.3085 31.2091C20.1018 30.9705 19.8881 30.7373 19.6866 30.4942C19.5916 30.3801 19.5075 30.253 19.4363 30.1219C19.2153 29.7136 19.0038 29.2999 18.7833 28.8912C18.7704 28.8672 18.7069 28.8716 18.7104 28.8725C18.6655 28.9405 18.6305 28.9898 18.5995 29.0413C18.4579 29.2755 18.322 29.5136 18.1757 29.7447C17.9724 30.0659 17.7609 30.3814 17.5542 30.7C17.3975 30.9417 17.2482 31.1883 17.0864 31.426C17.0147 31.5313 16.9198 31.6201 16.8348 31.7161C16.6078 31.972 16.3885 32.2359 16.1503 32.4803C15.9159 32.7198 15.6617 32.9384 15.4166 33.1663C15.2289 33.3409 15.0575 33.5404 14.85 33.6848C14.4615 33.9554 14.0926 34.2629 13.6347 34.4179C13.4228 34.4895 13.2229 34.6001 13.0184 34.6938C12.6338 34.8694 12.2497 35.0137 11.8104 34.964C11.5527 34.9347 11.2865 34.9822 11.0245 34.9973C10.5934 35.0222 10.2166 34.8436 9.85236 34.6445C9.45704 34.4286 9.06819 34.1829 8.78508 33.8234C8.57404 33.5555 8.30172 33.316 8.23353 32.9442C8.22058 32.874 8.1347 32.8215 8.10363 32.7509C8.00566 32.5305 7.90122 32.311 7.82958 32.0813C7.73247 31.7681 7.6453 31.4486 7.5879 31.1252C7.54388 30.8768 7.55121 30.6186 7.53913 30.3645C7.53309 30.2401 7.53136 30.1148 7.53525 29.99C7.54949 29.5603 7.52791 29.1235 7.60214 28.7046C7.63408 28.5228 7.6112 28.3567 7.6289 28.1856C7.64961 27.9839 7.69967 27.7857 7.73852 27.5862C7.81275 27.205 7.8887 26.8242 7.96337 26.4435C7.99012 26.3071 8.15714 26.0174 8.23094 25.8548C8.31337 25.6735 8.33624 25.4647 8.39451 25.2705C8.47219 25.0119 8.54944 24.7524 8.64568 24.501C8.70869 24.3357 8.80493 24.1833 8.918 23.9629C8.64525 23.9629 8.43594 23.9789 8.23008 23.9585C8.00566 23.9367 7.78513 23.878 7.56157 23.8416C7.0329 23.755 6.50293 23.6741 5.97425 23.5861C5.85816 23.5666 5.7412 23.5377 5.63158 23.4946C5.12923 23.2969 4.62041 23.1129 4.13144 22.8841C3.71842 22.6908 3.34296 22.4123 2.92735 22.2261C2.26705 21.9302 1.81088 21.3855 1.31327 20.8932C1.13892 20.7208 1.04052 20.4671 0.907596 20.2507C0.897238 20.2343 0.890765 20.2085 0.876091 20.2023C0.762156 20.1543 0.740577 20.0548 0.689652 19.9477C0.522202 19.5949 0.305121 19.2817 0.233049 18.8684C0.176513 18.5423 0.0871775 18.222 0.080704 17.8865C0.0798408 17.8439 0.0893354 17.7986 0.10444 17.759C0.145008 17.6519 0.15105 17.5675 0 17.5582C0.101419 17.1601 0.197228 16.7615 0.306416 16.367C0.338352 16.2515 0.462645 16.1399 0.450993 16.0386C0.40913 15.677 0.704757 15.4828 0.827323 15.2113C0.9555 14.9274 1.23689 14.7075 1.47684 14.4898C1.72672 14.2632 2.06248 14.1161 2.25669 13.8526C2.41162 13.6425 2.68351 13.6416 2.8091 13.3879C2.86866 13.2675 3.15263 13.2759 3.32354 13.1991C3.54925 13.0973 3.76158 12.9654 3.98384 12.8547C4.10511 12.7943 4.23243 12.745 4.3606 12.7014C4.6394 12.6064 4.92294 12.5255 5.20001 12.4255C5.51937 12.3109 5.8478 12.2607 6.18227 12.2167C6.38295 12.1905 6.57241 12.0883 6.7705 12.2145C6.93881 11.9923 7.21286 12.1567 7.42217 12.0212C7.55078 11.9381 7.75707 11.9714 7.92841 11.9723C8.28532 11.9741 8.64439 12.0216 8.99784 11.9919C9.51314 11.9483 10.0004 12.0892 10.495 12.1754C10.8665 12.2402 11.2278 12.3664 11.5955 12.458C11.6581 12.4735 11.7483 12.4762 11.791 12.4406C11.8285 12.4091 11.829 12.3158 11.8272 12.2505C11.8151 11.8084 11.7987 11.3667 11.7819 10.9251C11.778 10.8251 11.7595 10.7247 11.7638 10.6252C11.7733 10.3915 11.8229 10.1551 11.7996 9.92584C11.7677 9.61349 11.8583 9.31092 11.8242 8.99768C11.8052 8.82307 11.8523 8.62446 11.9204 8.45962C12.0491 8.14949 11.9278 7.81093 12.1 7.48969C12.2433 7.22178 12.2282 6.86411 12.2856 6.54687C12.3162 6.37759 12.3386 6.2052 12.3887 6.04214C12.4776 5.75289 12.5838 5.46942 12.6852 5.18462C12.8186 4.8114 12.9308 4.42752 13.0956 4.06985C13.2864 3.65575 13.5073 3.2541 13.746 2.8671C14.0123 2.43568 14.301 2.01714 14.6048 1.61282C14.7209 1.4582 14.9099 1.36356 15.058 1.23205C15.1382 1.16051 15.1974 1.06454 15.2729 0.987233C15.386 0.871712 15.4895 0.731311 15.6259 0.658C15.8831 0.520264 16.086 0.246125 16.423 0.293666C16.4343 0.295444 16.7165 0.103502 16.7428 0.0950602C16.8317 0.0661801 16.9219 0.0275252 17.0134 0.0230821C17.3198 0.00841991 17.6276 -0.00935245 17.9335 0.00575405C18.1109 0.0146402 18.2861 0.0821752 18.4614 0.12705C18.53 0.144378 18.5969 0.168815 18.6633 0.194141C18.7332 0.2208 18.8014 0.251901 18.8692 0.282559C18.8869 0.290556 18.9046 0.318548 18.918 0.315882C19.2201 0.252346 19.4143 0.527817 19.6844 0.577135C19.7928 0.596685 19.8851 0.718426 19.9818 0.797068C20.2381 1.00678 20.4397 1.2627 20.6158 1.54795C20.75 1.76522 20.9368 1.94783 21.0745 2.16376C21.2031 2.36592 21.308 2.5863 21.4038 2.80712C21.5281 3.09326 21.6468 3.38295 21.7426 3.67975C21.8522 4.0192 21.9502 4.36487 22.024 4.7141C22.1405 5.26548 22.2419 5.82087 22.33 6.37803C22.3666 6.61085 22.3459 6.853 22.3662 7.08937C22.377 7.21467 22.443 7.33641 22.4448 7.46037C22.4486 7.74384 22.4236 8.02731 22.4197 8.31078C22.4176 8.46007 22.4353 8.6098 22.4448 8.77064V8.76886ZM20.3931 21.5738C20.2412 21.74 20.2179 21.8764 20.2239 22.083C20.242 22.7433 20.2092 23.4084 20.1492 24.0669C20.11 24.5005 19.9904 24.927 19.9067 25.3562C19.8748 25.5193 19.8221 25.681 19.8156 25.845C19.8104 25.9841 19.8476 26.1285 19.8864 26.2644C19.9162 26.3675 19.977 26.4617 20.0258 26.559C20.0664 26.6403 20.1087 26.7207 20.1514 26.8007C20.179 26.8522 20.2153 26.8998 20.2377 26.9535C20.3309 27.1766 20.4021 27.4116 20.5152 27.6231C20.7142 27.9946 20.9399 28.3509 21.1509 28.7157C21.2972 28.9689 21.4176 29.2417 21.5872 29.4768C21.7296 29.6745 21.9264 29.8304 22.0986 30.0051C22.3688 30.2787 22.6208 30.5747 22.913 30.8212C23.5466 31.3562 24.2466 31.7903 24.9966 32.1284C25.2534 32.2444 25.5391 32.3048 25.8179 32.3537C26.1874 32.4181 26.5654 32.4976 26.9348 32.4772C27.5136 32.4452 28.1096 32.4194 28.6171 32.0626C28.8519 31.8974 29.1026 31.7636 29.3081 31.5441C29.8264 30.991 30.2247 30.3667 30.3978 29.6198C30.5104 29.1338 30.5708 28.6313 30.611 28.1323C30.6369 27.8053 30.6067 27.4685 30.5618 27.1419C30.4824 26.5674 30.4038 25.9894 30.1798 25.4491C30.0245 25.0746 29.9697 24.6596 29.7409 24.3143C29.6537 24.1824 29.5864 24.0371 29.5048 23.9011C29.2709 23.5101 29.0793 23.0805 28.7893 22.7402C28.3146 22.183 27.7898 21.6676 27.2568 21.1677C27.0035 20.9305 26.672 20.7843 26.3949 20.5706C25.9776 20.2489 25.5059 20.0485 25.0169 19.8975C24.6436 19.7824 24.2561 19.694 23.8689 19.6553C23.6394 19.6322 23.3994 19.7322 23.1629 19.7704C23.0183 19.7935 22.8699 19.9272 22.7615 19.7979C22.705 19.8353 22.6726 19.869 22.6338 19.8801C22.5004 19.9197 22.3649 19.9526 22.2298 19.9854C22.1768 19.9983 22.1228 20.0068 22.0689 20.0157C21.8639 20.0494 21.6269 20.0277 21.4629 20.1298C21.2774 20.2458 21.1699 20.4871 21.0037 20.6466C20.8682 20.7768 20.8285 20.974 20.6477 21.0798C20.4966 21.1682 20.3952 21.3459 20.2701 21.4823C20.2476 21.5068 20.217 21.5236 20.1501 21.5738H20.3931ZM21.6023 17.7888C21.8242 17.7515 22.0201 17.7204 22.2152 17.6848C22.5242 17.6284 22.8418 17.5991 23.1396 17.5035C23.5258 17.3796 23.8996 17.2112 24.272 17.0463C24.8758 16.7789 25.4848 16.5194 26.0713 16.2159C26.4217 16.0346 26.7337 15.7756 27.0634 15.5521C27.3224 15.3762 27.5852 15.206 27.8398 15.0238C28.1471 14.8044 28.4514 14.5795 28.75 14.3476C28.9455 14.1957 29.1272 14.0255 29.3163 13.8651C29.636 13.5941 29.9671 13.335 30.2743 13.0498C30.5083 12.833 30.7107 12.5801 30.9312 12.3478C31.1284 12.1403 31.3567 11.9586 31.5272 11.7306C32.0386 11.0477 32.5932 10.3964 33.0174 9.64726C33.0709 9.55262 33.1326 9.46243 33.1814 9.36512C33.2962 9.13497 33.4058 8.90215 33.5172 8.67022C33.5806 8.53826 33.6466 8.40675 33.7049 8.27257C33.7355 8.20192 33.7524 8.12506 33.7757 8.05086C33.8011 7.99176 33.7601 7.92023 33.7692 7.85669C33.7938 7.68475 33.8409 7.5168 33.8762 7.34618C33.9604 6.94186 33.8383 6.69571 33.4965 6.46201C33.3441 6.35804 33.1913 6.35049 33.0265 6.32072C32.6618 6.25496 32.3053 6.16654 31.9281 6.24163C31.7274 6.28162 31.5099 6.23897 31.3114 6.28606C31.0102 6.3576 30.7202 6.47756 30.4232 6.56998C30.3093 6.60552 30.1841 6.60685 30.0737 6.64995C29.5139 6.86722 28.9542 7.08449 28.4022 7.3213C28.2136 7.40217 28.0522 7.54746 27.8718 7.65098C27.4933 7.86736 27.1101 8.07574 26.7294 8.28767C26.6228 8.34677 26.5102 8.39697 26.4126 8.4694C26.2862 8.56315 26.1878 8.71332 26.0501 8.77064C25.7497 8.89549 25.556 9.15763 25.294 9.33047C25.0316 9.50375 24.7908 9.71302 24.5469 9.91518C24.446 9.99915 24.3083 10.0911 24.2815 10.2035C24.2051 10.523 23.9056 10.6021 23.7218 10.7967C23.49 11.0424 23.1763 11.2055 22.9052 11.4138C22.7697 11.5182 22.6489 11.6431 22.525 11.7622C22.3805 11.9012 22.1228 11.9363 22.1276 12.2163C22.1276 12.2309 22.0995 12.2562 22.0822 12.2589C21.9131 12.2851 21.9415 12.4237 21.9182 12.5415C21.8634 12.8218 21.8155 13.1062 21.7305 13.3777C21.6455 13.6483 21.4966 13.898 21.415 14.1694C21.2951 14.5715 21.1414 14.955 20.9412 15.3202C20.835 15.5139 20.7111 15.7032 20.7539 15.9C20.8803 16.004 21.0042 16.0755 21.0866 16.1813C21.1906 16.315 21.2648 16.4741 21.3438 16.6265C21.4185 16.77 21.513 16.913 21.5436 17.0677C21.5885 17.2938 21.5838 17.5302 21.6019 17.7888H21.6023ZM7.77779 14.1939C7.77693 14.1823 7.77606 14.1708 7.7752 14.1592C7.69881 14.1983 7.62631 14.2587 7.54603 14.2721C7.21113 14.3289 6.87192 14.3609 6.53831 14.4231C6.24441 14.4778 5.94792 14.5378 5.66568 14.636C5.21468 14.7928 4.76801 14.967 4.33298 15.1656C4.05376 15.2931 3.79309 15.4686 3.53501 15.6397C3.3326 15.7743 3.13796 15.9245 2.95713 16.088C2.82291 16.2093 2.6861 16.3461 2.60324 16.5056C2.45176 16.7971 2.32358 17.0961 2.27266 17.4378C2.19929 17.9261 2.20749 18.3735 2.50873 18.784C2.6861 19.0257 2.80522 19.3376 3.02834 19.5131C3.4802 19.8686 3.88631 20.2951 4.43311 20.5226C4.85864 20.6999 5.25439 20.9518 5.67647 21.1398C5.90822 21.2433 6.16414 21.2966 6.41402 21.349C7.20596 21.5152 7.99487 21.7005 8.80968 21.712C9.11653 21.7165 9.42294 21.7662 9.73022 21.7698C9.96759 21.7725 10.2054 21.7374 10.4427 21.716C10.6616 21.6965 10.8817 21.684 11.0979 21.6485C11.3352 21.6094 11.5696 21.549 11.8044 21.4952C12.1242 21.4219 12.453 21.3752 12.7599 21.2642C13.1345 21.1282 13.494 20.9447 13.8526 20.7665C14.0537 20.6666 14.2509 20.5497 14.4287 20.4115C14.5012 20.3556 14.5517 20.2227 14.5522 20.1245C14.5535 19.8899 14.4952 19.6544 14.5051 19.4212C14.5185 19.1106 14.5738 18.8022 14.607 18.5259C14.4965 18.4446 14.4046 18.3948 14.336 18.3215C14.2181 18.1962 14.1141 18.0571 14.0067 17.9221C13.7395 17.5875 13.4586 17.2627 13.2113 16.913C13.0149 16.6354 12.8276 16.3426 12.7931 15.9809C12.7888 15.9347 12.7469 15.8911 12.7193 15.848C12.6628 15.7592 12.5838 15.6788 12.551 15.5819C12.4862 15.3895 12.4729 15.1754 12.39 14.9932C12.2808 14.7533 12.125 14.5351 11.9791 14.2903C11.8753 14.4751 11.7572 14.5145 11.6248 14.4085C11.4975 14.42 11.3974 14.456 11.3132 14.432C11.0085 14.3449 10.681 14.3925 10.3845 14.2459C10.3033 14.2059 10.1808 14.2659 10.0794 14.2565C9.86099 14.2365 9.64434 14.1899 9.42553 14.1761C9.2283 14.1637 9.02935 14.1819 8.83126 14.1845C8.57102 14.1881 8.31078 14.1899 8.05054 14.1921C7.95948 14.193 7.86885 14.1921 7.77779 14.1921V14.1939ZM20.1786 6.37492C20.1687 6.36071 20.1333 6.3296 20.1242 6.29139C20.0642 6.0408 20.0034 5.78977 19.9546 5.53651C19.8195 4.83717 19.608 4.1636 19.29 3.53001C19.1549 3.26076 18.9913 3.00484 18.8204 2.75736C18.7082 2.5943 18.5744 2.43923 18.4234 2.31438C18.3017 2.21397 18.1459 2.12555 17.9948 2.10245C17.8209 2.07579 17.6297 2.10467 17.4567 2.15088C17.2517 2.20553 17.0173 2.25707 16.8671 2.39347C16.3894 2.82667 15.9794 3.32785 15.6579 3.89834C15.4356 4.29245 15.1887 4.67455 15.0532 5.11486C14.9272 5.52407 14.6834 5.88307 14.6312 6.3296C14.5884 6.69527 14.4292 7.04494 14.3549 7.40883C14.2479 7.93489 14.1521 8.4654 14.0869 8.99812C14.0373 9.40378 14.0429 9.81699 14.0226 10.2266C14.0123 10.4377 13.9696 10.6532 13.998 10.8584C14.0261 11.0588 13.9609 11.245 13.9976 11.452C14.1089 12.0776 14.1586 12.7143 14.2483 13.3439C14.3748 14.2316 14.714 15.0465 15.108 15.836C15.19 16.0004 15.3558 16.1204 15.4667 16.243C15.7368 16.0182 15.9733 15.8245 16.206 15.6259C16.31 15.537 16.3924 15.4082 16.5089 15.3517C16.732 15.2433 16.9746 15.1767 17.2059 15.0856C17.2745 15.0585 17.3518 15.0212 17.3945 14.9643C17.4825 14.8479 17.4851 14.8341 17.5507 14.9439C17.6267 15.0714 17.7035 15.0763 17.8131 14.9954C17.8813 14.9452 17.9573 14.8746 18.0319 14.871C18.2499 14.8617 18.4691 14.8812 18.6629 14.8888C18.971 14.3547 19.2261 13.8282 19.3892 13.2622C19.558 12.6779 19.728 12.0932 19.8648 11.5005C19.9818 10.9948 20.0797 10.4808 20.1359 9.9645C20.195 9.42022 20.217 8.86883 20.2135 8.321C20.2101 7.77272 20.1518 7.22533 20.1255 6.67705C20.1212 6.58641 20.1561 6.49355 20.1781 6.37403L20.1786 6.37492ZM11.7642 32.7233C11.8669 32.7518 11.9403 32.7993 11.9848 32.7793C12.1414 32.7096 12.2881 32.6167 12.4388 32.5323C12.6356 32.4216 12.822 32.2608 13.0326 32.215C13.2285 32.1719 13.3472 32.092 13.4344 31.9249C13.4409 31.9125 13.4521 31.9009 13.4637 31.8929C13.6088 31.7903 13.7689 31.705 13.8966 31.5832C14.1966 31.2976 14.4956 31.0074 14.7675 30.6946C15.0325 30.3898 15.3061 30.0904 15.5111 29.7322C15.6406 29.5065 15.8214 29.3119 15.9518 29.0867C16.3216 28.446 16.7156 27.8186 16.9742 27.1153C17.1222 26.7118 17.36 26.3337 17.4502 25.9196C17.5382 25.514 17.7428 25.1492 17.7687 24.7196C17.795 24.2868 17.9236 23.8616 17.9858 23.4302C18.0203 23.1907 18.0164 22.9445 18.0142 22.7015C18.0142 22.6513 17.9335 22.5531 17.9089 22.5589C17.5551 22.6469 17.2085 22.5895 16.8689 22.5016C16.6224 22.4376 16.3885 22.3256 16.1451 22.247C16.0217 22.207 15.7852 22.1559 15.7783 22.1754C15.7118 22.3669 15.5305 22.3549 15.405 22.4331C15.1823 22.5718 14.9661 22.7273 14.73 22.8366C14.3092 23.0321 13.8638 23.1747 13.4512 23.3853C13.1375 23.5452 12.7909 23.5217 12.4677 23.6625C12.0965 23.8243 11.6628 23.834 11.2783 23.9056C11.2273 24.0047 11.1807 24.0935 11.1354 24.1828C11.0681 24.3157 10.99 24.4445 10.9369 24.5836C10.8704 24.7573 10.8337 24.943 10.7686 25.1172C10.6382 25.4638 10.4941 25.805 10.362 26.1511C10.2762 26.3768 10.1976 26.6061 10.123 26.8362C10.0487 27.066 9.93694 27.2743 9.92572 27.5356C9.91105 27.8657 9.75914 28.1914 9.75568 28.5202C9.74835 29.2293 9.63139 29.9415 9.76993 30.6506C9.77856 30.6942 9.71857 30.7524 9.70174 30.783C9.76431 30.9625 9.85408 31.1403 9.88645 31.3282C9.96198 31.7712 10.2218 32.1177 10.4777 32.4412C10.6283 32.6318 10.876 32.7735 11.1876 32.7935C11.4112 32.8082 11.5929 32.7824 11.7647 32.7233H11.7642Z" fill="currentColor"/>
</g>
</svg>
