<svg viewBox="0 0 32 32" fill="none" xmlns="http://www.w3.org/2000/svg">
        <path d="M13.4579 23.6607C13.3983 23.6718 13.3538 23.6797 13.3326 23.6838C13.291 23.5829 13.2538 23.493 13.2171 23.4036C13.2514 23.3348 13.2991 23.2389 13.3469 23.1425C13.2893 23.1247 13.2318 23.1066 13.1669 23.0868C13.1636 22.9225 13.0301 22.8112 12.7696 22.7919C12.9815 22.5875 12.8619 22.3399 12.8742 22.1096C12.8811 21.9753 12.8868 21.841 12.8954 21.7067C12.8966 21.6874 12.9191 21.6561 12.9142 21.6524C12.7476 21.5205 12.8999 21.3866 12.924 21.2643C12.9529 21.1164 13.0105 20.9763 12.9611 20.823C12.9574 20.8111 12.957 20.7901 12.9644 20.7831C13.1493 20.6096 12.9742 20.3839 13.0485 20.1944C13.0562 20.1742 13.0526 20.1454 13.046 20.1235C13.0027 19.9818 13.0019 19.9822 13.1407 19.9237C13.0939 19.8092 13.1298 19.7036 13.2485 19.6069C13.3257 19.5443 13.3142 19.5587 13.2358 19.4969C13.1758 19.4495 13.1485 19.3593 13.097 19.2724H13.282C13.2493 19.1949 13.2199 19.1241 13.1787 19.026C13.2187 19.0454 13.253 19.0635 13.2542 19.0619C13.3273 18.937 13.4183 18.8172 13.4604 18.682C13.4877 18.5939 13.5175 18.3018 13.5677 18.226C13.6445 18.111 13.6196 17.9998 13.5049 17.9294C13.4914 17.9211 13.4787 17.8861 13.4853 17.8746C13.4983 17.8515 13.5224 17.8247 13.5457 17.8206C13.618 17.8074 13.6923 17.8041 13.7894 17.7946C13.7653 17.7098 13.7478 17.6476 13.727 17.573C13.8135 17.4993 13.9894 17.4758 13.9168 17.2727C13.8996 17.2245 13.9894 17.138 14.029 17.0687C14.1315 16.8891 14.2323 16.7087 14.3369 16.5303C14.3528 16.5035 14.3862 16.4879 14.4095 16.4648C14.4524 16.4228 14.5328 16.3758 14.5291 16.3367C14.5083 16.0936 14.8271 16.0367 14.8063 15.8015C15.0439 15.7727 14.968 15.4085 15.2288 15.3957C15.2497 15.3949 15.2595 15.3018 15.2872 15.2606C15.3329 15.193 15.3889 15.1325 15.4726 15.0303C15.4566 15.0188 15.3934 14.9726 15.3289 14.9257C15.4681 14.8919 15.6207 14.8985 15.7061 14.8251C15.8555 14.697 15.9633 14.5199 16.0886 14.3633C16.0608 14.3538 16.0327 14.3444 16.042 14.3477C16.3188 14.0984 16.6119 13.8236 16.9173 13.5633C17.0802 13.424 17.2725 13.3198 17.4345 13.1797C17.5811 13.0528 17.6974 12.8913 17.8395 12.7583C18.0901 12.5239 18.3179 12.2285 18.6155 12.0896C18.945 11.9356 19.0752 11.5973 19.3324 11.4622C19.3104 11.3728 19.2904 11.2929 19.2708 11.213C19.2952 11.1977 19.3202 11.1825 19.3446 11.1672C19.3606 11.2101 19.3765 11.2525 19.3961 11.3048C19.4961 11.0626 19.5986 11.0902 19.6814 11.1981C19.768 11.1161 19.8664 11.0226 19.9925 10.9036C19.9239 10.6724 20.1966 10.7198 20.3097 10.6362C20.2824 10.5571 20.2599 10.4908 20.2281 10.3985C20.5338 10.5031 20.4216 10.1109 20.6371 10.0615C20.3836 9.74221 20.6383 9.6969 20.8996 9.64087C20.5363 9.47072 20.8543 9.41305 20.8931 9.35825C20.82 9.18399 20.7608 9.04227 20.7008 8.8989C20.7465 8.88531 20.7792 8.87542 20.8118 8.86553C20.811 8.85524 20.8102 8.84494 20.8094 8.83464C20.7465 8.83052 20.6837 8.8264 20.5657 8.81857C20.5657 8.68962 20.5726 8.55491 20.5636 8.42143C20.5555 8.30278 20.5383 8.17589 20.3452 8.23357C20.3554 8.12398 20.3648 8.02305 20.3775 7.88463C20.2481 7.73137 20.086 7.53898 19.9378 7.36307C19.7819 7.32558 19.6276 7.28891 19.4712 7.25142C19.4892 7.11877 19.5381 6.96881 19.363 6.88147C19.3393 6.86953 19.3063 6.8514 19.3014 6.8308C19.2324 6.53418 18.8903 6.57702 18.7372 6.3731V6.56755C18.6702 6.48969 18.6147 6.42542 18.5596 6.36115C18.571 6.3492 18.5825 6.33726 18.5939 6.32531C18.4706 6.29977 18.2677 6.30677 18.2416 6.24168C18.1898 6.11273 18.0044 6.20254 18.002 6.04888C18.002 6.03899 17.9077 6.03075 17.8575 6.02086C17.5676 5.96442 17.2778 5.90798 16.9785 5.84989V5.99614C16.8736 5.95165 16.6968 6.01674 16.7099 5.76915C16.667 5.82723 16.6242 5.88532 16.5797 5.94547C16.5772 5.91457 16.5744 5.87461 16.567 5.78356C16.3298 5.8536 16.1025 5.92075 15.9432 5.96772H15.5007C15.493 6.0843 15.5358 6.21243 15.2962 6.1391C15.108 6.08142 14.8969 6.20378 14.71 6.30224C14.5618 6.3801 14.352 6.39617 14.2601 6.51234C14.1376 6.66725 13.8972 6.55643 13.8139 6.78425C13.7849 6.86335 13.5759 6.87241 13.4518 6.92061C13.3375 6.9651 13.1775 6.97087 13.1534 7.12248C13.1215 7.32311 12.9558 7.28603 12.8407 7.35071C12.6982 7.43063 12.5782 7.55175 12.4467 7.65269C12.3296 7.74291 12.2059 7.8253 12.0928 7.92047C11.9679 8.02593 11.8515 8.1417 11.7327 8.25375C11.7184 8.26735 11.7148 8.29372 11.6997 8.30484C11.4645 8.47663 11.2829 8.68509 11.2188 8.98254C11.2126 9.01137 11.1575 9.0295 11.1224 9.05422C11.1665 9.07852 11.2045 9.09995 11.269 9.1362H11.0579C11.1216 9.36073 11.0016 9.52346 10.9428 9.71173C10.8648 9.96138 10.7011 10.052 10.5321 10.1719C10.5211 10.2576 10.5191 10.3495 10.4929 10.4335C10.4844 10.4611 10.4141 10.4768 10.3696 10.4838C10.2668 10.5007 10.1623 10.5089 10.0218 10.525C10.0492 10.4866 10.0814 10.4413 10.0994 10.4162C10.0504 10.3285 10.0067 10.2337 9.94794 10.1497C9.85854 10.0215 9.75117 9.92719 9.59808 10.0603C9.43846 9.88723 9.01104 9.92842 8.81877 10.1435C8.82203 9.9791 8.76692 9.94449 8.60526 9.95232C8.39339 9.96262 8.17702 9.88929 7.95331 9.85015C7.96393 9.87734 7.98148 9.92183 7.99944 9.96633C7.98679 9.97415 7.97413 9.98198 7.96148 9.98981C7.93045 9.93584 7.89044 9.88517 7.87126 9.82749C7.8435 9.7451 7.84472 9.64993 7.80635 9.57454C7.78471 9.53169 7.6851 9.47979 7.66143 9.49503C7.55488 9.56506 7.45568 9.57001 7.36178 9.49421C7.24421 9.39986 7.18175 9.28204 7.27932 9.13002C7.20951 9.14238 7.14379 9.15433 7.05234 9.17039C7.00295 9.49503 6.71637 9.62398 6.41754 9.7797C6.40407 9.75828 6.38855 9.70637 6.36692 9.7039C5.91419 9.64911 6.06197 9.27586 6.01257 9.01549C5.95746 8.72546 6.10279 8.44779 6.07952 8.14829C6.06728 7.99215 6.32936 7.83849 6.12851 7.62962C6.11096 7.61149 6.18893 7.49902 6.23098 7.41333C6.15627 7.40221 6.11259 7.39603 6.01625 7.38161C6.10279 7.27491 6.16648 7.19622 6.23016 7.11753C6.23751 7.1266 6.24486 7.13566 6.25261 7.14431C6.29466 7.01866 6.36324 6.89466 6.36978 6.76694C6.37467 6.66642 6.30323 6.56178 6.25874 6.43943C6.44734 6.48516 6.58573 6.36033 6.62411 6.15516C6.66044 5.96154 6.71596 5.79469 6.88374 5.6505C7.02581 5.52814 7.11888 5.33822 7.09806 5.10834C7.0899 5.01565 7.18461 4.8558 7.26871 4.82367C7.44098 4.75816 7.45404 4.61397 7.51773 4.48873C7.54549 4.43394 7.57937 4.37709 7.62468 4.33754C7.75573 4.22425 7.89371 4.11919 8.02924 4.01085C8.02026 3.99066 8.01169 3.97088 8.00271 3.9507C8.02639 3.96759 8.05006 3.98448 8.07374 4.00137C8.28031 3.72906 8.46442 3.43655 8.78447 3.26435C8.91307 3.19514 9.00288 3.05466 9.11433 2.95084C9.25721 2.81736 9.47765 2.82271 9.60666 2.64969C9.80138 2.3885 10.0876 2.25872 10.3815 2.13719C10.4586 2.10547 10.4946 1.97075 10.5566 1.87147C10.7375 1.97652 10.8542 1.78578 11.0061 1.71945C11.2061 1.63211 11.3931 1.51182 11.5964 1.4356C11.7589 1.37463 11.9054 1.30913 12.0087 1.16246C12.0258 1.13816 12.0736 1.12786 12.1083 1.1258C12.412 1.10767 12.6823 0.966365 12.8897 0.778093C13.0521 0.630607 13.1995 0.666448 13.3632 0.653265C13.4085 0.649558 13.4649 0.653265 13.4959 0.628135C13.7706 0.404434 14.1148 0.347993 14.4344 0.245C14.6389 0.179084 14.8716 0.202979 15.0904 0.178261C15.1407 0.172493 15.1868 0.131296 15.239 0.104517C15.2986 0.270542 15.4428 0.166725 15.5599 0.145303C15.7983 0.101222 16.0731 -0.0549162 16.2596 0.0200629C16.4384 0.0917462 16.5691 -0.00795127 16.7185 0.0402496C16.8789 0.0921582 17.0496 0.11976 17.2178 0.136651C17.3349 0.148598 17.4729 0.158898 17.5713 0.108637C17.7623 0.0114115 17.9183 0.129648 18.0885 0.146951C18.3 0.167961 18.5106 0.200919 18.7188 0.241704C18.7809 0.253652 18.8307 0.322451 18.8931 0.342226C19.0021 0.376008 19.1173 0.388367 19.2283 0.416381C19.4814 0.480237 19.7292 0.552332 19.9366 0.730304C19.9843 0.77109 20.0852 0.744311 20.1595 0.75873C20.2856 0.783449 20.4277 0.738956 20.5351 0.855544C20.5559 0.878203 20.622 0.85884 20.7139 0.85884C20.8465 0.920224 21.0364 1.00344 21.2213 1.09655C21.2968 1.13445 21.3589 1.19872 21.4315 1.24362C21.4597 1.26093 21.4997 1.25845 21.5467 1.2189C21.7434 1.41706 21.9088 1.7038 22.1455 1.78949C22.4019 1.88259 22.5383 2.103 22.7742 2.19734C23.071 2.31599 23.26 2.5743 23.4727 2.80212C23.5858 2.92324 23.754 2.99162 23.8156 3.16383C24.0793 3.08102 24.0034 3.36858 24.1189 3.44644C24.2251 3.51771 24.3337 3.58569 24.4325 3.64954C24.4663 3.71299 24.4876 3.80362 24.5439 3.84894C24.7672 4.02732 24.9044 4.25267 24.9615 4.53199C24.9717 4.58266 24.975 4.65352 25.0081 4.67783C25.2759 4.87475 25.3224 5.20351 25.4816 5.46387C25.4947 5.4853 25.513 5.50837 25.5343 5.51908C25.6641 5.58252 25.711 5.69458 25.7217 5.83053C25.7237 5.85648 25.7233 5.88985 25.7388 5.90716C26.0915 6.30553 26.1556 6.82956 26.3116 7.30704C26.3858 7.53486 26.4552 7.76227 26.5246 7.95672C26.5079 8.07702 26.4716 8.1796 26.4859 8.27477C26.5112 8.44491 26.5667 8.61052 26.6112 8.77778C26.6194 8.80868 26.6451 8.83793 26.6447 8.86759C26.6385 9.16545 26.594 9.46784 26.6328 9.7591C26.6541 9.91936 26.6336 10.0322 26.5671 10.1628C26.5447 10.2073 26.5536 10.284 26.5761 10.333C26.6606 10.5188 26.6308 10.6288 26.4773 10.7569C26.4438 10.7849 26.4667 10.8817 26.5108 10.9468C26.4197 11.1882 26.3209 11.4272 26.2397 11.6723C26.1613 11.9096 26.118 12.1597 26.0262 12.3908C25.9748 12.5206 25.8502 12.6194 25.7706 12.7401C25.7082 12.8349 25.6645 12.9424 25.5931 13.0825C25.5673 13.1019 25.4522 13.1439 25.4367 13.2094C25.3722 13.4825 25.1371 13.651 25.0468 13.9134C25.0007 14.0477 24.8207 14.1462 24.6843 14.2344C24.5439 14.325 24.4606 14.4404 24.3929 14.5915C24.3243 14.7444 24.2124 14.8779 24.112 15.0146C24.1067 15.0216 24.0348 14.9792 23.9973 14.9615C23.883 15.1349 23.7556 15.3302 23.6254 15.523C23.6086 15.5477 23.5764 15.5708 23.5482 15.5766C23.2678 15.6326 23.1118 15.8378 22.9412 16.0458C22.8359 16.1748 22.657 16.2411 22.517 16.3437C22.4305 16.4071 22.3545 16.485 22.2754 16.5579C22.2288 16.6007 22.1868 16.6485 22.1402 16.691C22.0721 16.7532 22.0006 16.8113 21.9324 16.8735C21.7614 17.0284 21.6156 17.2521 21.4156 17.3242C21.1225 17.43 21.0751 17.7143 20.8825 17.8812C20.8469 17.912 20.7943 17.9223 20.7539 17.9487C20.6759 17.9994 20.6008 18.0546 20.4906 18.1316C20.4216 18.1152 20.3673 18.1086 20.313 18.2853C20.2366 18.535 20.0693 18.757 19.8394 18.9284C19.6867 19.0425 19.5916 19.2349 19.4675 19.3894C19.4357 19.4293 19.3912 19.459 19.3785 19.4928C19.3202 19.6007 19.2687 19.7128 19.2022 19.8154C19.1169 19.9472 18.9809 20.0419 18.9617 20.2216C18.947 20.3592 18.885 20.491 18.858 20.6282C18.8037 20.9046 18.7556 21.1823 18.7107 21.4608C18.6727 21.6973 18.6421 21.9354 18.6102 22.1731C18.6008 22.2427 18.5829 22.3152 18.5931 22.3824C18.6294 22.6188 18.3633 22.7173 18.3494 22.9002C18.3314 23.1359 18.1881 23.2257 18.0375 23.3468C17.9685 23.4024 17.9685 23.5421 17.9019 23.6055C17.833 23.6706 17.724 23.7044 17.6268 23.7238C17.5288 23.7431 17.4243 23.7279 17.3223 23.7279C17.3251 23.7336 17.3398 23.7649 17.3545 23.7963C17.3468 23.8029 17.339 23.8099 17.3312 23.8164C17.3092 23.7954 17.2818 23.7781 17.2663 23.7534C17.1933 23.6364 17.0879 23.6368 16.9822 23.6821C16.8638 23.7328 16.7569 23.8152 16.636 23.8552C16.5246 23.8922 16.4009 23.8918 16.2645 23.9108C16.3135 23.9223 16.3531 23.9314 16.3927 23.9404C16.3784 23.9594 16.3637 23.9784 16.3494 23.9973C16.2702 24.0134 16.1906 24.029 16.0894 24.0492C16.1314 23.9648 16.1629 23.9009 16.1808 23.8651C16.0718 23.912 15.9449 23.9664 15.8322 24.0146C15.8424 23.931 15.8514 23.8605 15.8604 23.7897C15.7967 23.7843 15.7322 23.7707 15.6689 23.7757C15.5211 23.7872 15.3738 23.8074 15.2235 23.8247C15.4121 24.0315 15.3236 24.3454 15.0545 24.4101C15.0121 24.4204 14.9504 24.3504 14.8969 24.3166C14.8169 24.4258 14.5961 24.4554 14.5075 24.371C14.4401 24.3895 14.3573 24.4389 14.3258 24.4163C14.0454 24.214 13.7731 24.0002 13.502 23.7851C13.4755 23.7637 13.4738 23.7102 13.4571 23.6603L13.4579 23.6607Z"
              fill="currentColor"/>
        <path d="M12.986 28.6706C13.0591 28.435 13.1228 28.2162 13.1958 28.0008C13.2163 27.941 13.2644 27.8912 13.2979 27.8356C13.3232 27.7944 13.3751 27.74 13.3644 27.7107C13.2983 27.5307 13.4555 27.4417 13.542 27.4046C13.6833 27.3441 13.7572 27.237 13.7837 27.1249C13.829 26.9362 13.9515 26.8645 14.1017 26.7912C14.1662 26.7599 14.2054 26.6779 14.2621 26.626C14.3168 26.5766 14.3797 26.537 14.4483 26.4859C14.4365 26.4674 14.4091 26.4254 14.3699 26.3644C14.5357 26.3455 14.6434 26.1782 14.8369 26.3389C14.9076 26.3978 15.1419 26.2697 15.2946 26.2087C15.3791 26.1749 15.7236 26.1028 15.8257 26.1003C15.9571 26.097 16.0874 26.0558 16.2192 26.0468C16.3445 26.0385 16.4748 25.8857 16.6034 26.055C16.6144 26.0698 16.7071 26.0241 16.7601 26.0031C16.8136 25.9817 16.8638 25.9508 16.9181 25.9327C16.9732 25.9145 17.0712 26.0447 17.0859 25.8828C17.1471 25.8964 17.2088 25.91 17.2761 25.9252C17.3137 26.1283 17.497 26.2795 17.7872 26.3335C17.806 26.3368 17.8387 26.3273 17.8428 26.3352C17.9452 26.5296 18.1346 26.4439 18.2861 26.4806C18.3155 26.4876 18.351 26.5115 18.3633 26.537C18.3955 26.6058 18.38 26.7385 18.5172 26.633C18.5355 26.696 18.5555 26.7591 18.5723 26.8225C18.587 26.879 18.5804 26.9531 18.6143 26.9902C18.7409 27.1286 18.8784 27.2572 19.016 27.3849C19.0683 27.4331 19.132 27.4685 19.1662 27.4924C19.1952 27.5863 19.2218 27.6778 19.2524 27.7676C19.2703 27.8199 19.2993 27.8685 19.3157 27.9213C19.3402 27.9995 19.3602 28.0795 19.3777 28.1594C19.4034 28.276 19.3589 28.4243 19.5218 28.4774C19.4834 28.5829 19.6386 28.7019 19.4585 28.8185C19.3716 28.875 19.3659 29.0921 19.3618 29.2375C19.3565 29.4163 19.3916 29.5967 19.4059 29.7442C19.2993 29.8781 19.1973 29.9885 19.1169 30.113C19.0164 30.2679 18.9038 30.4256 18.8548 30.5991C18.8254 30.7021 18.8931 30.8203 18.7809 30.9287C18.6139 31.0897 18.4841 31.29 18.3175 31.4519C18.2061 31.5602 18.0648 31.6434 17.9244 31.711C17.875 31.7345 17.7774 31.6438 17.7195 31.6624C17.5207 31.7254 17.3316 31.8198 17.1341 31.8881C17.092 31.9026 17.0308 31.8601 16.9691 31.8412C16.9434 31.8618 16.9014 31.9232 16.8663 31.9195C16.6564 31.8976 16.4597 32.0859 16.2392 31.9471C16.1841 31.9124 16.0841 31.9471 16.0049 31.9553C15.9804 31.9578 15.9543 31.994 15.9351 31.9895C15.7338 31.9433 15.5134 32.0237 15.3231 31.8704C15.2517 31.8128 15.1231 31.8243 15.0194 31.8128C14.9414 31.8037 14.8447 31.8366 14.7867 31.8004C14.623 31.6986 14.4789 31.5664 14.3201 31.456C14.2413 31.4012 14.1491 31.3653 14.0605 31.3266C13.9886 31.2949 13.8951 31.2924 13.9098 31.1717C13.9119 31.1565 13.8711 31.1285 13.8453 31.1182C13.7845 31.0947 13.678 31.0922 13.6665 31.0564C13.6261 30.9299 13.4453 30.8541 13.5294 30.6823C13.5359 30.6691 13.5057 30.6395 13.4951 30.6164C13.4175 30.4475 13.2836 30.2798 13.2791 30.1088C13.2742 29.9243 13.0477 29.8213 13.1477 29.6157C13.1713 29.5671 13.1395 29.4567 13.0954 29.4147C12.9419 29.268 13.0256 29.095 13.0811 28.9763C13.1599 28.8082 13.0905 28.746 12.9844 28.6715L12.986 28.6706Z"
              fill="currentColor"/>
</svg>
