<svg viewBox="0 0 32 33" fill="none" xmlns="http://www.w3.org/2000/svg">
<g clip-path="url(#clip0_1498_7612)">
<path d="M14.1967 29.1004C15.1233 29.1004 16.0242 29.0959 16.9251 29.1025C17.403 29.106 17.8803 29.1384 18.3582 29.1419C18.7978 29.1449 19.238 29.1131 19.6771 29.1202C20.362 29.1308 21.0464 29.1697 21.7307 29.1788C22.2136 29.1854 22.697 29.1541 23.1798 29.1556C23.6542 29.1576 24.128 29.1834 24.6018 29.1915C24.745 29.194 24.8882 29.1611 25.0314 29.1621C25.4414 29.1657 25.852 29.1874 26.262 29.1844C26.9755 29.1793 27.6885 29.153 28.402 29.152C28.8075 29.152 29.216 29.1627 29.618 29.2122C29.7893 29.2335 29.9446 29.3716 30.1109 29.4485C30.1888 29.4844 30.2762 29.5006 30.4098 29.541C30.4887 29.749 30.553 29.9923 30.5425 30.3024C30.534 30.5533 30.4737 30.8229 30.5169 31.0865C30.5324 31.1826 30.435 31.2944 30.4415 31.395C30.4531 31.567 30.5033 31.7375 30.544 31.9065C30.5636 31.9869 30.645 32.0972 30.6179 32.1356C30.5415 32.2429 30.4315 32.3344 30.3189 32.4068C29.8973 32.6779 29.4285 32.6471 28.9547 32.6218C28.5773 32.6015 28.1975 32.6314 27.8186 32.6294C27.4393 32.6273 27.0599 32.6056 26.6805 32.6076C26.2961 32.6096 25.9118 32.6359 25.5274 32.64C25.3796 32.6415 25.2229 32.5702 25.0852 32.601C24.7531 32.6759 24.439 32.5171 24.0968 32.5889C23.7351 32.6648 23.3462 32.6167 22.9698 32.6101C22.5377 32.6025 22.1056 32.5838 21.6739 32.5651C21.4177 32.554 21.1564 32.4933 20.9067 32.5257C20.46 32.5828 20.0173 32.5904 19.5696 32.5742C19.0099 32.5545 18.4491 32.557 17.8889 32.555C17.1829 32.5525 16.4769 32.5545 15.771 32.5565C15.1921 32.558 14.6133 32.5686 14.0344 32.5646C13.7088 32.5626 13.3832 32.5342 13.0576 32.5267C12.4527 32.513 11.8477 32.4999 11.2427 32.4988C10.8659 32.4983 10.4845 32.4877 10.1132 32.5408C9.78104 32.5884 9.46851 32.4852 9.14693 32.4948C8.66255 32.509 8.17867 32.553 7.69479 32.556C7.2878 32.559 6.8813 32.5115 6.4738 32.5054C5.81155 32.4953 5.14829 32.4882 4.48654 32.5054C4.17049 32.5135 3.86398 32.4589 3.55296 32.4351C3.4801 32.4295 3.40573 32.4331 3.33338 32.4427C2.94999 32.4958 2.58721 32.4058 2.22443 32.2995C2.16313 32.2818 2.08575 32.3198 1.99631 32.3354C2.00937 32.2621 2.01993 32.2039 2.02244 32.1908C1.89632 32.1291 1.74457 32.1038 1.68076 32.0147C1.50088 31.7628 1.24211 31.8119 0.999415 31.7749C0.77431 31.7405 0.550712 31.693 0.330128 31.6368C0.294453 31.6277 0.244206 31.5261 0.258778 31.4957C0.372838 31.262 0.136678 31.1143 0.126127 30.9084C0.117585 30.7435 0.00704183 30.5826 0.00201715 30.4182C-0.0080322 30.0742 0.0221159 29.7287 0.0341751 29.3842C0.0522639 28.8652 0.0678404 28.3457 0.0869342 27.8262C0.0984909 27.5125 0.133161 27.1984 0.126629 26.8852C0.113565 26.2696 0.207526 25.66 0.159792 25.0388C0.11055 24.3928 0.182403 23.7383 0.192955 23.0872C0.202502 22.4979 0.19195 21.9085 0.208531 21.3197C0.212551 21.1796 0.285409 21.0405 0.331133 20.9029C0.380375 20.7547 0.435144 20.609 0.504987 20.4127C0.53614 20.4086 0.626584 20.396 0.757226 20.3783C0.707482 20.2862 0.667787 20.2129 0.618042 20.1208C0.793906 19.8967 0.971779 19.6483 1.17327 19.4212C1.28884 19.2912 1.44561 19.1986 1.57926 19.0838C1.8516 18.8486 2.13348 18.6229 2.38572 18.3675C2.55455 18.1965 2.6656 17.9689 2.82789 17.7908C2.9505 17.6562 3.1339 17.5773 3.25549 17.4423C3.44894 17.2273 3.60622 16.9804 3.79213 16.7583C3.94337 16.5777 4.11371 16.4128 4.27601 16.2413C4.43177 16.0764 4.58452 15.9085 4.74581 15.7491C4.94278 15.5544 5.1508 15.3712 5.34626 15.1745C5.48595 15.0338 5.60805 14.875 5.74623 14.7318C5.93968 14.5315 6.14619 14.3443 6.33713 14.142C6.54615 13.9209 6.74111 13.6857 6.94813 13.4626C7.07575 13.3255 7.21343 13.198 7.3496 13.069C7.71389 12.724 8.08823 12.3897 8.44247 12.0345C8.94393 11.5317 9.42881 11.0122 9.92575 10.5048C10.075 10.3525 10.2443 10.22 10.4001 10.0738C10.7689 9.7278 11.1397 9.38381 11.5 9.02869C11.709 8.8228 11.8854 8.58302 12.1004 8.38472C12.3386 8.16417 12.5748 7.93299 12.819 7.73064C13.3646 7.2784 13.7505 6.6663 14.364 6.27729C14.7037 6.06179 14.9394 5.68441 15.2308 5.38848C15.3836 5.23318 15.5589 5.10014 15.7167 4.9499C15.9242 4.75261 16.1101 4.52851 16.3332 4.35146C16.6669 4.0874 16.8789 3.67866 17.3055 3.52791C17.4256 3.16419 17.8667 3.17026 18.0507 2.86624C18.1763 2.65883 18.3421 2.46761 18.521 2.30422C18.7973 2.0523 19.1129 1.84439 19.3887 1.59196C19.6163 1.38354 19.8018 1.12859 20.0223 0.912076C20.1359 0.800785 20.2836 0.722882 20.4208 0.637897C20.6328 0.506372 20.8454 0.375858 21.0639 0.256474C21.1755 0.19577 21.2971 0.14316 21.4207 0.117361C21.6463 0.0703153 21.8759 0.0389517 22.1051 0.0166936C22.1598 0.0116349 22.2211 0.0682919 22.2885 0.101173C22.3151 0.0662684 22.3558 0.0121408 22.3648 0C22.4935 0.0126466 22.5794 0.0177053 22.6648 0.0303519C22.8201 0.0536218 22.9753 0.078915 23.1301 0.107244C23.2658 0.132031 23.3989 0.173006 23.5356 0.187676C23.8109 0.217016 24.029 0.345506 24.2184 0.540265C24.2647 0.587816 24.3295 0.629297 24.3923 0.644979C24.5601 0.687472 24.6134 0.789656 24.5762 0.975309C24.6641 0.956592 24.742 0.939899 24.7712 0.933828C24.9586 1.08913 25.138 1.21863 25.2947 1.37241C25.5053 1.57931 25.6821 1.82365 25.9032 2.01689C26.0836 2.17371 26.3233 2.26021 26.5092 2.41197C26.7358 2.59711 26.9232 2.83082 27.1478 3.01951C27.3146 3.15964 27.5272 3.24462 27.6955 3.38323C28.008 3.64072 28.3342 3.89264 28.599 4.19565C28.9698 4.62007 29.2436 5.12139 29.6712 5.50989C29.9425 5.75574 30.13 6.09416 30.3601 6.38706C30.64 6.7437 30.9761 7.06796 31.1927 7.46C31.3736 7.7873 31.6931 8.04883 31.7002 8.48691C31.7027 8.62855 31.9178 8.76918 31.7831 8.94522C32.0554 9.19512 31.9534 9.5214 31.9926 9.81076C32.0067 9.91547 31.9991 10.0263 31.9826 10.1315C31.9434 10.3809 31.9745 10.7087 31.8283 10.8584C31.6143 11.078 31.669 11.3744 31.46 11.6066C31.2218 11.8717 30.9535 12.1388 30.7606 12.4544C30.741 12.4863 30.7033 12.5151 30.6681 12.5283C30.3274 12.6573 30.1526 12.9567 29.9405 13.2233C29.7968 13.4044 29.63 13.5688 29.4607 13.7267C29.2396 13.9326 28.9959 14.1142 28.7788 14.3241C28.396 14.6939 28.0236 15.0743 27.6518 15.4547C27.3986 15.7137 27.1584 15.9859 26.9031 16.2423C26.5745 16.5732 26.2715 16.9465 25.8927 17.206C25.4962 17.4777 25.2384 17.8576 24.9139 18.1844C24.5767 18.5233 24.223 18.846 23.8893 19.189C23.5708 19.5163 23.2718 19.8638 22.9583 20.1962C22.713 20.4562 22.4618 20.7101 22.2071 20.9605C21.9945 21.1695 21.7649 21.3602 21.5579 21.5742C21.2649 21.8772 20.9906 22.1994 20.6992 22.5039C20.4851 22.7275 20.2595 22.94 20.0334 23.1515C19.7123 23.4519 19.3862 23.7463 19.0631 24.0448C18.8476 24.2436 18.629 24.4394 18.4205 24.6453C17.9497 25.1097 17.4316 25.5255 17.0452 26.0764C16.9025 26.2802 16.6699 26.4183 16.4875 26.5964C16.3513 26.7294 16.2202 26.8701 16.1046 27.0213C15.9076 27.2778 15.7293 27.5373 15.466 27.7472C15.1469 28.0022 14.9132 28.3644 14.6027 28.6325C14.4399 28.7731 14.2811 28.89 14.1962 29.0989L14.1967 29.1004ZM14.8303 10.4927C14.7751 10.5751 14.7409 10.6465 14.6886 10.6996C14.5329 10.8584 14.3691 11.0092 14.2093 11.164C13.8621 11.5004 13.5184 11.8408 13.1672 12.1732C13.0235 12.3092 12.825 12.4028 12.7215 12.5617C12.5326 12.8515 12.2994 13.0746 12.0296 13.2866C11.7562 13.5016 11.5352 13.7859 11.296 14.0433C11.1819 14.1658 11.0905 14.312 10.9674 14.4227C10.5674 14.7829 10.1443 15.1183 9.75491 15.4891C9.44338 15.7855 9.17054 16.1224 8.8761 16.4371C8.72485 16.5985 8.56055 16.7467 8.40729 16.906C8.19776 17.1246 7.99527 17.3492 7.78624 17.5682C7.58375 17.7807 7.37925 17.9916 7.17122 18.1995C6.93104 18.4398 6.65117 18.6275 6.47279 18.9437C6.30296 19.2441 6.04419 19.4991 5.79949 19.7495C5.50303 20.0535 5.18045 20.3323 4.86842 20.6216C4.64029 20.8326 4.64431 21.0374 4.87344 21.2438C5.00157 21.3597 5.11563 21.4912 5.24326 21.6081C5.41108 21.7613 5.59096 21.9015 5.75728 22.0563C6.00349 22.2849 6.23965 22.5242 6.48787 22.7503C6.51701 22.7771 6.61399 22.7736 6.64615 22.7452C6.83859 22.5773 7.02601 22.4033 7.20539 22.2217C7.41592 22.0092 7.60837 21.7775 7.82393 21.5706C8.07717 21.3278 8.35554 21.1113 8.60728 20.8675C8.81078 20.6702 8.9786 20.4344 9.18511 20.2407C9.57352 19.8755 9.97801 19.5269 10.377 19.1728C10.5001 19.0636 10.6332 18.9644 10.7513 18.8501C10.9633 18.6452 11.1648 18.4292 11.3769 18.2243C11.5643 18.0432 11.7643 17.8753 11.9507 17.6927C12.2019 17.4468 12.4406 17.1878 12.6928 16.943C12.9622 16.6819 13.244 16.4336 13.5164 16.1756C14.0359 15.6834 14.5525 15.1881 15.0695 14.6929C15.1745 14.5922 15.272 14.4829 15.379 14.3843C15.681 14.1056 15.99 13.8344 16.288 13.5516C16.6327 13.2248 16.9653 12.8844 17.3105 12.5576C17.517 12.3618 17.7421 12.1858 17.9502 11.991C18.1396 11.814 18.319 11.6258 18.4999 11.4396C18.7893 11.1417 19.0807 10.8458 19.3581 10.5372C19.3912 10.5003 19.3721 10.3551 19.3279 10.3166C18.8988 9.94481 18.4556 9.59223 18.0702 9.16831C17.8517 8.92802 17.5844 8.72821 17.3196 8.53851C17.2407 8.48185 17.0522 8.46769 16.9869 8.52232C16.6638 8.79195 16.3629 9.08939 16.0584 9.38077C15.8926 9.53962 15.7353 9.70756 15.5715 9.86893C15.4127 10.0252 15.2645 10.1977 15.0846 10.3237C14.9831 10.395 14.9343 10.4497 14.9514 10.567C14.9524 10.5741 14.9303 10.5852 14.9158 10.5969C14.8911 10.5665 14.8675 10.5372 14.8303 10.4911V10.4927ZM18.9727 15.8316C18.8023 15.9393 18.6451 16.0086 18.5275 16.1199C18.2325 16.3981 17.9597 16.7001 17.6693 16.9834C17.3638 17.2814 17.0512 17.5728 16.7362 17.8606C16.1669 18.3801 15.5871 18.888 15.0499 19.444C14.66 19.8476 14.2324 20.2149 13.8259 20.6029C13.5516 20.8649 13.2868 21.1376 13.0134 21.4007C12.8471 21.5605 12.6732 21.7133 12.4999 21.866C12.2904 22.0507 12.0658 22.2202 11.8693 22.4179C11.6638 22.6243 11.5146 22.898 11.2859 23.068C10.9679 23.3042 10.6523 23.5298 10.4101 23.8516C10.2318 24.0883 10.0278 24.3053 9.83279 24.5289C9.66698 24.7191 9.51925 24.9346 9.32329 25.0864C9.13286 25.2346 9.19717 25.3783 9.28309 25.5007C9.42781 25.7081 9.60266 25.8963 9.77903 26.0784C10.0745 26.3829 10.378 26.6794 10.6845 26.9728C11.0111 27.2854 11.0277 27.297 11.3603 27.0021C11.5502 26.8336 11.6688 26.5843 11.8557 26.4113C12.1492 26.1406 12.4758 25.9064 12.7843 25.6514C12.8516 25.5958 12.9039 25.5214 12.9581 25.4511C13.0948 25.2731 13.2174 25.0828 13.3666 24.9159C13.5722 24.6862 13.7867 24.4616 14.0173 24.2578C14.245 24.0559 14.3148 23.6998 14.6525 23.6067C14.6721 23.6012 14.6781 23.5531 14.6937 23.5268C14.9665 23.0538 15.3795 22.7194 15.7971 22.3866C16.0342 22.1974 16.2614 21.9945 16.4784 21.7826C16.5473 21.7153 16.5438 21.5666 16.6156 21.5109C16.8196 21.3526 17.0713 21.2504 17.2578 21.0759C17.6808 20.6803 18.0768 20.2549 18.4833 19.8411C18.529 19.7945 18.5707 19.7444 18.6159 19.6979C18.7194 19.5917 18.8204 19.4824 18.9295 19.3828C19.1189 19.2097 19.3264 19.055 19.5033 18.8703C19.6676 18.6983 19.7987 18.495 19.9505 18.3098C20.0726 18.1606 20.2032 18.0184 20.3308 17.8743C20.3555 17.8464 20.3826 17.8206 20.4107 17.7964C20.5941 17.638 20.7891 17.4923 20.9584 17.3198C21.1624 17.1119 21.3257 16.861 21.5418 16.6693C21.694 16.5347 21.7558 16.3172 21.9794 16.2428C22.1 16.2029 22.1975 16.0774 22.293 15.9788C22.5578 15.7041 22.81 15.4178 23.0783 15.1471C23.2437 14.9802 23.3557 14.8138 23.1904 14.5917C23.0216 14.3646 22.8492 14.1395 22.6633 13.9265C22.5909 13.843 22.4678 13.8061 22.3864 13.7287C22.2076 13.5587 22.0483 13.367 21.8634 13.2046C21.8151 13.1621 21.6714 13.1566 21.6262 13.196C21.4107 13.3847 21.2157 13.5967 21.0102 13.797C20.7821 14.0196 20.573 14.271 20.3138 14.4485C20.1183 14.5826 19.9907 14.7662 19.8264 14.9205C19.7927 14.9524 19.8068 15.0353 19.7992 15.092C19.4515 15.266 19.1249 15.4699 18.9717 15.8311L18.9727 15.8316ZM25.8384 12.3704C26.2409 12.117 26.4062 11.6471 26.8474 11.4624C26.973 11.4098 27.0709 11.2803 27.1684 11.1741C27.3337 10.994 27.48 10.7952 27.6508 10.6212C27.8382 10.4294 28.0437 10.2605 28.209 10.0409C28.4191 9.76118 28.4753 9.45767 28.3115 9.29478C28.1166 9.10103 27.9106 8.90425 27.7704 8.67155C27.5684 8.33667 27.3543 8.03467 27.0428 7.78477C26.8318 7.6153 26.7047 7.34315 26.5303 7.12461C26.4208 6.98702 26.262 6.88079 26.1831 6.73004C26.0429 6.46243 25.7871 6.34254 25.5756 6.16448C25.4786 6.08304 25.4002 5.9768 25.2967 5.90598C24.946 5.66418 24.5797 5.44312 24.3621 5.05461C24.3511 5.03488 24.3305 5.01667 24.3099 5.00706C24.1315 4.92258 23.9521 4.84012 23.7733 4.75716C23.7436 4.7435 23.7064 4.73592 23.6863 4.71366C23.4175 4.41267 23.1396 4.11876 22.8889 3.8031C22.7527 3.63161 22.4226 3.58406 22.2191 3.6741C22.0232 3.76061 21.9327 3.92046 21.7955 4.05198C21.4941 4.34134 21.1479 4.58314 20.8308 4.85631C20.7459 4.92966 20.7147 5.06473 20.6308 5.14061C20.3138 5.42794 19.9852 5.70262 19.6415 5.99856C19.9369 6.26211 20.2017 6.49734 20.465 6.73459C20.7775 7.01636 21.0991 7.28902 21.3971 7.58596C21.695 7.88291 21.9649 8.20868 22.2548 8.51423C22.4171 8.68521 22.5995 8.83697 22.7653 9.00492C23.0115 9.25431 23.2532 9.50876 23.4929 9.76473C23.7481 10.0374 24.0024 10.3111 24.2491 10.5913C24.4149 10.7795 24.5611 10.9859 24.7274 11.1736C24.8943 11.3622 25.0782 11.5363 25.2495 11.7209C25.4545 11.942 25.6545 12.1681 25.8384 12.3715V12.3704ZM7.36367 29.0534C7.34759 29.0321 7.33201 29.0048 7.3099 28.9846C7.06972 28.7666 6.82251 28.5556 6.58937 28.3305C6.31401 28.0639 6.04419 27.7913 5.78441 27.5095C5.60152 27.3112 5.44073 27.0921 5.26938 26.8832C5.07493 26.6455 4.88952 26.3996 4.6825 26.173C4.41167 25.8771 4.12326 25.5978 3.84439 25.3085C3.77304 25.2346 3.71123 25.1511 3.64541 25.0722C3.61878 25.0859 3.59265 25.099 3.56602 25.1127C3.56602 25.5998 3.56903 26.087 3.56501 26.5736C3.563 26.8458 3.5424 27.1179 3.54441 27.3901C3.54542 27.5034 3.57205 27.6653 3.55848 27.7265C3.49718 28.0007 3.44894 28.2764 3.54039 28.5339C3.60622 28.72 3.55145 28.8409 3.42633 29.0529H7.36317L7.36367 29.0534Z" fill="currentColor"/>
</g>
</svg>
