<svg viewBox="0 0 32 32" fill="none" xmlns="http://www.w3.org/2000/svg">
    <path d="M5.27843 19.8916C4.64471 19.7762 4.00511 19.6676 3.36771 19.543C2.58328 19.3895 1.77753 19.2779 1.11513 18.7674C0.32923 18.162 -0.0802625 17.3477 0.0131048 16.3192C0.0917686 15.4426 0.229982 14.5721 0.295412 13.6947C0.32629 13.2792 0.192488 12.8501 0.232187 12.4368C0.28365 11.9028 0.388044 11.3635 0.550518 10.8546C0.873996 9.84504 1.64961 9.34901 2.56416 8.94566C3.7103 8.44052 4.92849 8.45192 6.11359 8.23391C6.57896 8.14807 7.06344 8.1777 7.53395 8.11541C7.76848 8.08426 7.9927 7.96956 8.21987 7.88525C9.68434 7.34136 11.151 6.80204 12.6118 6.24601C13.2411 6.00673 13.8506 5.71048 14.4814 5.47652C15.218 5.20306 15.9789 4.99721 16.7104 4.71007C17.3221 4.46928 17.9058 4.15328 18.5028 3.87222C18.5447 3.85247 18.5954 3.85551 18.6403 3.8426C19.088 3.71043 19.5379 3.58357 19.9827 3.44001C20.1584 3.38304 20.3223 3.28732 20.4914 3.20605C20.9392 2.99184 21.3722 2.72673 21.839 2.57405C22.3154 2.41909 22.8234 2.02333 23.3226 2.53379C23.4351 2.64849 23.5064 2.80649 23.5953 2.9455C23.6086 2.96601 23.6108 3.00323 23.6277 3.01083C24.0387 3.20377 23.9482 3.56686 23.9453 3.92236C23.9431 4.28545 24.0122 4.64855 24.0387 5.0124C24.0908 5.72112 24.1497 6.42983 24.1798 7.14007C24.207 7.77358 24.1908 8.40862 24.2092 9.04213C24.2364 9.98101 24.2827 10.9199 24.3114 11.8595C24.3452 12.9663 24.3592 14.0738 24.4004 15.1805C24.4349 16.127 24.5048 17.072 24.54 18.0184C24.568 18.7629 24.5518 19.508 24.5812 20.2525C24.6216 21.2741 24.6922 22.2943 24.7341 23.3152C24.7437 23.5499 24.701 23.7884 24.6665 24.0224C24.5783 24.624 23.8372 25.0502 23.2079 24.8473C22.172 24.5124 21.1443 24.1515 20.1077 23.8196C19.3835 23.5872 18.6469 23.3935 17.922 23.164C17.1648 22.9248 16.4163 22.6581 15.6613 22.412C14.6438 22.0801 13.6256 21.7489 12.603 21.4337C12.2898 21.3372 12.2023 21.4405 12.2229 21.78C12.3082 23.2013 12.3824 24.6233 12.4736 26.0445C12.5354 27.0069 12.6603 27.9671 12.6795 28.9303C12.6964 29.7757 12.5883 29.8334 11.762 29.8744C11.1672 29.9041 10.5717 29.9291 9.97915 29.9884C9.21677 30.0644 8.52571 29.8479 7.87434 29.4757C6.97154 28.9599 6.41869 28.119 5.92024 27.2181C5.17771 25.8766 5.17698 24.4341 5.26594 22.9544C5.32696 21.951 5.2777 20.9399 5.2777 19.8939L5.27843 19.8916ZM21.739 5.25244C21.0281 5.50994 20.3907 5.73555 19.7577 5.97179C18.3374 6.50048 16.9192 7.03524 15.4996 7.56545C14.3115 8.00906 13.125 8.45571 11.9347 8.89249C11.1937 9.16443 10.443 9.40902 9.7064 9.69464C9.59392 9.73794 9.51158 9.92404 9.46159 10.0623C9.42556 10.1603 9.47114 10.2879 9.47261 10.4018C9.47997 11.2237 9.47996 12.0456 9.49393 12.8668C9.50202 13.3233 9.53731 13.7783 9.55128 14.2348C9.59098 15.5284 9.61818 16.8221 9.67552 18.1142C9.6814 18.2418 9.83358 18.4248 9.95783 18.4742C10.4445 18.6687 10.943 18.835 11.4444 18.9839C12.8037 19.3873 14.1704 19.7663 15.529 20.1735C16.667 20.5138 17.7977 20.8791 18.9321 21.2339C19.5658 21.4321 20.1996 21.6289 20.8318 21.8302C21.3089 21.9813 21.7839 22.1386 22.2897 22.3027C22.1051 16.5744 21.9236 10.9389 21.7405 5.25244H21.739ZM7.08991 10.5241C6.49515 10.5933 5.95553 10.6434 5.41959 10.7216C5.07626 10.7718 4.73881 10.9206 4.39769 10.9244C3.95732 10.9298 3.59562 11.1189 3.20377 11.2685C2.88985 11.3886 2.72149 11.6051 2.64871 11.896C2.57005 12.212 2.52961 12.5439 2.51932 12.8706C2.50241 13.4175 2.5524 13.9682 2.51638 14.5128C2.48918 14.9253 2.34949 15.3287 2.30318 15.7419C2.25539 16.1665 2.19217 16.6519 2.57593 16.9322C2.85824 17.1381 3.22876 17.2421 3.57503 17.3204C4.51532 17.5331 5.46296 17.7138 6.40987 17.8954C6.70321 17.9516 7.00389 17.9676 7.3656 18.0093C7.54425 16.7112 7.28032 15.4776 7.24282 14.2401C7.20533 12.9997 7.14137 11.76 7.08917 10.5234L7.08991 10.5241ZM10.1468 27.5743C10.1468 27.3092 10.1556 27.0745 10.1453 26.8406C10.1012 25.825 10.0483 24.8094 10.0049 23.7938C9.98871 23.4109 9.98283 23.0266 9.98135 22.643C9.97915 22.0254 10.0041 21.4071 9.97253 20.791C9.96518 20.6513 9.79756 20.4758 9.66082 20.3983C9.45644 20.2828 9.21677 20.2297 8.9874 20.1681C8.51762 20.0413 8.04711 19.9175 7.57365 19.8104C7.21195 19.7283 7.1002 19.9304 7.12225 20.2722C7.15387 20.7622 7.15313 21.2551 7.20312 21.7421C7.32296 22.9134 7.4325 24.0877 7.60894 25.2507C7.72142 25.9906 8.14635 26.577 8.68083 27.089C9.05944 27.452 9.47629 27.6055 9.97841 27.5546C10.013 27.5508 10.0497 27.5622 10.1468 27.5736V27.5743Z"
          fill="currentColor"/>
    <path d="M30.6814 24.9314C30.4521 24.8486 30.2153 24.7833 29.9948 24.6807C29.3111 24.3632 28.6281 24.0426 27.9569 23.7001C27.5555 23.495 27.2519 23.1858 27.1607 22.6996C27.0688 22.2112 27.5092 21.4911 27.9701 21.3529C28.4965 21.1956 28.9538 21.3491 29.4177 21.5952C29.9161 21.8603 30.4219 22.1239 30.949 22.3168C31.596 22.5538 31.9761 23.1349 31.9996 23.5778C32.0298 24.1475 31.424 24.9344 30.6822 24.9306L30.6814 24.9314Z"
          fill="currentColor"/>
    <path d="M31.27 2.95814C31.2737 3.8165 30.9811 4.29126 30.3326 4.58295C29.868 4.79184 29.4526 5.11696 29.0204 5.39953C28.4682 5.76035 27.9073 6.07331 27.2302 5.7763C26.8817 5.62362 26.5443 4.77665 26.6479 4.39989C26.806 3.82562 27.2089 3.50658 27.689 3.23768C28.1837 2.96042 28.6792 2.67405 29.1395 2.34058C29.6386 1.97901 30.4128 1.82481 30.8414 2.28665C31.048 2.50921 31.1766 2.8085 31.27 2.95739V2.95814Z"
          fill="currentColor"/>
    <path d="M31.9543 13.4078C31.991 14.2304 31.2198 14.8791 30.4486 14.807C29.9017 14.7553 29.3444 14.8191 28.7916 14.8374C28.2858 14.8541 27.788 14.8769 27.3447 14.5381C26.8691 14.1757 26.7963 13.1639 27.2337 12.7537C27.641 12.3724 28.1174 12.26 28.66 12.2835C29.2069 12.3079 29.7613 12.3048 30.3045 12.2403C30.9816 12.1597 31.6918 12.4347 31.8881 13.0576C31.9234 13.17 31.9337 13.2908 31.9558 13.4078H31.9543Z"
          fill="currentColor"/>
</svg>
