<svg viewBox="0 0 32 32" fill="none" xmlns="http://www.w3.org/2000/svg">
    <path d="M23.1378 24.8927C23.3962 26.2292 24.2373 27.4356 23.9468 28.8595C23.2875 28.9949 22.7119 28.8951 22.1417 28.6527C21.0635 28.193 19.9783 27.7475 18.8913 27.3127C18.1856 27.0311 17.4693 26.7781 16.7351 26.5037C16.7351 27.3394 16.7279 28.1591 16.7369 28.9788C16.7475 29.7807 16.7867 30.5826 16.7885 31.3845C16.7885 31.6643 16.8491 32.0599 16.311 31.855C16.0811 31.7677 15.7336 32.133 15.5803 31.7267C15.493 31.4932 15.493 31.2206 15.4912 30.964C15.4805 29.7736 15.4841 28.585 15.4823 27.3946C15.4823 27.1897 15.4823 26.9866 15.4823 26.7104C14.4808 27.0614 13.5382 27.3875 12.5973 27.7208C11.3107 28.1769 10.0294 28.6456 8.74103 29.0929C8.12624 29.3067 7.68609 28.9183 7.86072 28.2963C8.19039 27.1113 8.55748 25.937 8.91745 24.7306C7.37245 23.5883 5.80073 22.4229 4.22545 21.2628C2.92281 20.3041 1.60947 19.3578 0.317526 18.3849C0.153582 18.2619 -0.0353099 17.9732 0.0056761 17.8182C0.064482 17.5937 0.287232 17.3264 0.502853 17.2462C1.31366 16.945 2.1512 16.7134 2.97627 16.4514C3.08675 16.4158 3.19011 16.3623 3.32197 16.3053C2.56997 14.8619 1.84113 13.4363 1.08022 12.0267C0.914495 11.7184 0.795101 11.444 1.00894 11.1428C1.21922 10.8452 1.49186 10.7258 1.88568 10.8149C3.07071 11.0822 4.26287 11.3157 5.45324 11.5527C5.86667 11.6347 6.28544 11.6881 6.75232 11.763C6.78796 11.3549 6.8628 10.9878 6.83964 10.6261C6.81291 10.2376 6.98576 9.95246 7.24771 9.75822C7.37067 9.66734 7.67361 9.72793 7.84825 9.81524C8.71786 10.2518 9.57144 10.7205 10.4321 11.1749C10.482 11.2016 10.5391 11.2088 10.662 11.2444C10.6424 11.0947 10.6371 10.986 10.6121 10.8844C10.2789 9.52478 9.93497 8.1669 9.61599 6.80367C9.53224 6.4437 9.52867 6.06592 9.46808 5.70061C9.42532 5.44222 9.31483 5.19274 9.29523 4.93435C9.27206 4.62072 9.27563 4.29105 9.35404 3.99167C9.37007 3.93109 9.82805 3.87763 9.97952 3.9792C10.5515 4.3552 11.0826 4.79714 11.6279 5.21413C11.651 5.23195 11.6653 5.26046 11.6885 5.27828C12.2836 5.72912 12.3923 5.72378 12.7773 5.08939C13.5578 3.80456 14.2937 2.49123 15.0974 1.22067C15.3647 0.798335 15.7764 0.466883 16.2094 0C17.4675 1.88535 18.3246 3.80991 19.3564 5.6917C19.9961 5.31214 20.6145 4.96108 21.2186 4.5833C21.5001 4.40866 21.755 4.18948 22.0151 3.98276C22.2414 3.80278 22.4767 3.7618 22.6745 3.99346C22.8954 4.25363 23.0327 4.52984 22.9311 4.91653C22.4713 6.66824 22.0436 8.42885 21.6035 10.1859C21.5304 10.4799 21.4449 10.7704 21.3451 11.1393C21.7674 10.9522 22.1149 10.7918 22.466 10.6439C22.7333 10.5298 23.013 10.4443 23.275 10.3195C23.5815 10.1734 23.8559 9.9382 24.1749 9.84554C24.8075 9.66199 24.9483 9.78495 25.0035 10.4283C25.0374 10.8203 25.0659 11.2123 25.0998 11.6578C25.7163 11.5883 26.3169 11.5099 26.9192 11.4529C27.7674 11.3727 28.6156 11.3086 29.4639 11.2301C29.5868 11.2195 29.7044 11.1482 29.8274 11.1393C30.0911 11.1197 30.3959 11.0359 30.6115 11.1339C30.893 11.2622 30.9643 11.5794 30.8004 11.8841C30.1927 13.005 29.5797 14.1205 28.9738 15.2414C28.7778 15.6032 28.5996 15.9738 28.3876 16.3908C28.8972 16.5494 29.4478 16.7294 30.002 16.8933C30.4689 17.0306 30.9447 17.1375 31.4116 17.28C32.0638 17.4796 32.1992 17.959 31.6896 18.4472C31.1122 19.0032 30.4297 19.4487 29.7846 19.9316C28.9043 20.591 28.0151 21.2361 27.133 21.8918C25.8393 22.8559 24.5509 23.8235 23.259 24.7894C23.2144 24.8232 23.1699 24.8606 23.1324 24.8909L23.1378 24.8927ZM16.7048 23.7416C16.7048 24.196 16.7279 24.6112 16.6976 25.021C16.6727 25.3721 16.8242 25.4808 17.1396 25.5984C18.5652 26.133 19.973 26.7157 21.3914 27.2735C21.8387 27.4499 22.2967 27.6031 22.8259 27.7956C22.4482 26.6141 22.0989 25.5236 21.7354 24.3884C24.6382 22.2215 27.5215 20.0689 30.4012 17.9216C29.3641 17.3371 28.0793 17.5224 27.158 16.7151C27.8636 15.1808 28.5533 13.6786 29.2518 12.1621C28.8705 12.212 28.5194 12.2495 28.1737 12.3011C27.0208 12.4758 25.8696 12.6664 24.7149 12.8286C24.1624 12.9052 24.0573 12.7787 24.0074 12.2263C23.9753 11.8574 23.8951 11.4939 23.8221 11.043C23.5316 11.2569 23.3498 11.4262 23.1396 11.5384C22.3359 11.9697 21.5322 12.4009 20.7089 12.7894C20.5093 12.8838 20.2331 12.8339 19.9943 12.8179C19.9373 12.8143 19.8286 12.6326 19.8447 12.613C20.071 12.3332 19.8856 12.0071 19.9569 11.7166C20.2313 10.61 20.5183 9.50696 20.8016 8.4039C21.0208 7.54854 21.2417 6.6914 21.4823 5.76298C21.3237 5.82891 21.2382 5.84852 21.1705 5.89307C20.7374 6.19422 20.308 6.50073 19.8767 6.80367C19.588 7.00503 19.2602 7.10661 18.9911 6.82862C18.6739 6.50251 18.3763 6.14611 18.1411 5.75942C17.6564 4.96643 17.2198 4.14493 16.76 3.3359C16.5016 2.88149 16.2361 2.42886 15.967 1.96198C15.0832 3.51945 14.2242 5.02523 13.376 6.53459C13.0463 7.12086 12.9359 7.1761 12.3282 6.81792C11.7187 6.45796 11.1343 6.05345 10.5391 5.66853C10.9436 7.48795 11.4283 9.23075 11.8952 10.9771C12.0734 11.6436 12.3407 12.3118 11.995 13.1119C10.5426 12.7734 9.36295 11.804 7.9623 11.2141C7.9623 11.4689 7.96942 11.6756 7.9623 11.8788C7.94091 12.3795 7.45264 12.8625 6.95903 12.8126C6.2498 12.7395 5.54234 12.6255 4.83845 12.5114C4.0615 12.3867 3.28812 12.2405 2.50047 12.1015C2.56997 12.2833 2.61452 12.4473 2.69471 12.5934C3.28633 13.6875 3.89043 14.7763 4.47671 15.874C4.81351 16.5049 4.79925 16.7276 4.29494 17.1731C4.08467 17.3584 3.74609 17.403 3.46097 17.4921C2.80163 17.697 2.13873 17.8913 1.41167 18.1087C2.81767 19.1387 4.1506 20.1116 5.47997 21.0882C6.80043 22.0576 8.11911 23.0305 9.43779 24.0035C10.1221 24.5078 10.2094 24.9373 9.89754 25.7516C9.67123 26.3379 9.51976 26.9527 9.33265 27.5639C10.2308 27.277 11.0844 27.0222 11.9255 26.7335C12.9661 26.3753 13.9944 25.9797 15.035 25.6198C15.3522 25.5093 15.4645 25.3008 15.4663 24.9979C15.4699 24.5559 15.4663 24.114 15.4663 23.6667C14.4167 23.7968 13.4081 23.9233 12.403 24.0481C12.2819 23.4333 12.2747 23.4012 12.8022 23.2943C13.5364 23.1464 14.283 23.0555 15.0226 22.9325C15.1491 22.9111 15.3772 22.8577 15.3772 22.822C15.3718 22.2286 15.3398 21.6352 15.3041 21.0418C15.3023 21.0062 15.2115 20.9759 15.1633 20.942C13.9694 20.1312 12.7808 19.3133 11.578 18.5167C11.3089 18.3385 11.0309 18.2423 10.6478 18.3172C9.73182 18.4971 8.79449 18.5755 7.8625 18.6593C7.76271 18.6682 7.61124 18.4668 7.54353 18.3332C7.51323 18.2708 7.60411 18.073 7.68074 18.0445C8.07278 17.8966 8.47195 17.7505 8.88181 17.6667C9.25424 17.5919 9.6445 17.599 10.0258 17.5687C9.86725 17.3673 9.69618 17.2676 9.53402 17.1571C8.61807 16.5316 7.70391 15.9025 6.78796 15.2753C6.41552 15.0205 6.39948 14.8975 6.75054 14.3059C7.88211 15.0401 9.01011 15.7725 10.213 16.553C10.1399 16.1592 10.0847 15.874 10.0348 15.5871C9.93853 15.0294 10.0561 14.8654 10.6299 14.7603C10.7547 14.7371 10.8812 14.7264 11.1271 14.6926C11.2572 15.5159 11.4176 16.316 11.4924 17.1232C11.5192 17.4119 11.5994 17.5562 11.8257 17.7077C12.8895 18.4152 13.9409 19.144 14.9994 19.8604C15.0867 19.9192 15.2043 19.9334 15.3095 19.9673C15.338 19.8604 15.3932 19.7517 15.3932 19.6447C15.3861 18.5827 15.3718 17.5224 15.3469 16.4621C15.3433 16.3445 15.2863 16.1984 15.2026 16.1182C14.8034 15.7315 14.4042 15.3394 13.9712 14.9919C13.6308 14.7193 13.4901 14.3522 13.3653 13.9726C13.278 13.7036 13.433 13.5343 13.7021 13.545C13.8429 13.5503 14.0015 13.6358 14.1138 13.7321C14.5004 14.06 14.8693 14.4057 15.2934 14.7906C15.2934 13.7873 15.3219 12.8482 15.2703 11.9127C15.2596 11.7113 14.9727 11.5188 14.7963 11.3371C14.3116 10.8328 13.5649 10.5494 13.4419 9.74575C13.4206 9.60497 13.4384 9.36796 13.5186 9.32341C13.6825 9.23431 13.875 9.11135 14.0924 9.36262C14.4292 9.74931 14.8426 10.0719 15.2988 10.4924C15.2988 10.2055 15.3006 10.0184 15.2988 9.83128C15.2881 9.07037 15.2881 8.30946 15.2578 7.54854C15.2435 7.19749 15.3754 7.05849 15.7175 7.0977C15.828 7.11017 15.9403 7.11908 16.0526 7.1173C16.409 7.11552 16.5729 7.30797 16.5676 7.66972C16.5569 8.5126 16.564 9.35549 16.564 10.259C17.0861 9.8295 17.578 9.42499 18.0573 9.02938C18.1428 9.10423 18.1981 9.16125 18.2605 9.2058C18.9964 9.71545 19.041 9.81881 18.4084 10.3784C18.0235 10.7187 17.6368 11.0573 17.2394 11.3816C16.8081 11.7327 16.3644 12.0659 16.6103 12.7306C16.6282 12.7787 16.5907 12.8464 16.5907 12.9052C16.5907 13.4416 16.5907 13.9798 16.5907 14.5162C16.6388 14.5464 16.6852 14.5767 16.7333 14.6088C17.0808 14.2257 17.4283 13.8443 17.7722 13.4594C18.0074 13.1957 18.2818 13.2064 18.5206 13.4701C18.6293 13.5913 18.779 13.675 18.918 13.7838C18.7077 14.5322 18.0555 14.9367 17.5138 15.3715C16.8135 15.9328 16.5088 16.5387 16.6068 17.4386C16.6905 18.2067 16.6246 18.989 16.6246 19.8497C17.8684 19.0104 19.0392 18.2263 20.1993 17.4262C20.3098 17.3495 20.3846 17.1695 20.406 17.027C20.5022 16.4015 20.5735 15.7725 20.6501 15.1434C20.7071 14.6765 20.8444 14.591 21.3308 14.6944C21.4983 14.73 21.6712 14.7336 21.9403 14.7621C21.894 15.2236 21.8441 15.7422 21.7835 16.3427C22.9204 15.5818 23.9896 14.8672 24.9982 14.1918C25.2958 14.5108 25.5185 14.7496 25.8375 15.0917C24.6507 15.9097 23.5084 16.6955 22.3074 17.5242C23.2073 17.6596 24.0644 17.7148 24.8111 18.3973C24.5741 18.5328 24.3691 18.7555 24.1945 18.7341C23.2821 18.6201 22.3769 18.4383 21.4663 18.2976C21.3273 18.2762 21.1473 18.3136 21.0315 18.392C19.5667 19.3668 18.1108 20.354 16.6745 21.3234V22.8506C17.4675 22.9771 18.2284 23.1089 18.9911 23.2194C19.6183 23.3103 19.6843 23.4083 19.4223 24.0552C18.5278 23.9536 17.6136 23.8485 16.703 23.7433L16.7048 23.7416Z"
          fill="currentColor"/>
</svg>
