<svg viewBox="0 0 30 30" fill="none" xmlns="http://www.w3.org/2000/svg">
<path d="M24.7316 29.5954C24.6492 29.6073 24.5662 29.6329 24.4848 29.628C24.3754 29.621 24.2676 29.5912 24.1592 29.5697C23.9783 29.5346 23.791 29.5174 23.6188 29.457C23.4668 29.4037 23.34 29.2696 23.1869 29.2292C22.957 29.1684 22.7831 29.0277 22.6075 28.8928C22.3406 28.6881 22.097 28.4536 21.8362 28.2409C21.6415 28.0818 21.4296 27.9438 21.236 27.7837C21.0839 27.6584 20.9501 27.5109 20.8037 27.3786C20.7277 27.3094 20.6439 27.2483 20.5601 27.1883C20.4179 27.0865 20.2584 27.0025 20.1348 26.8821C20.0722 26.821 20.018 26.767 19.9437 26.7143C19.7114 26.55 19.5097 26.3432 19.2907 26.1592C19.1707 26.0585 19.0376 25.9735 18.9151 25.8755C18.6609 25.6719 18.3811 25.49 18.1684 25.2495C18.0326 25.0958 17.8393 25.0621 17.709 24.916C17.5587 24.7471 17.3792 24.6032 17.2081 24.4533C17.1602 24.4111 17.0916 24.3922 17.0441 24.3497C16.9339 24.2507 16.8318 24.1433 16.7244 24.0411C16.6878 24.0063 16.6421 23.9477 16.6061 23.9516C16.3703 23.9772 16.2816 23.7676 16.1214 23.6756C15.9067 23.552 15.6683 23.4551 15.4279 23.3926C15.1121 23.3105 14.7809 23.3396 14.4708 23.4256C14.3166 23.4685 14.1817 23.6012 14.054 23.7114C13.8174 23.9154 13.6115 24.1601 13.3573 24.3367C13.1158 24.5042 12.9109 24.7011 12.6987 24.8988C12.4984 25.0852 12.2519 25.2222 12.0284 25.384C11.8253 25.5308 11.6229 25.6789 11.4247 25.832C11.2297 25.983 11.0276 26.1283 10.8512 26.2993C10.6544 26.4903 10.4186 26.6055 10.182 26.7301C10.0609 26.794 9.97363 26.9186 9.86309 27.0054C9.66314 27.1626 9.45615 27.3112 9.25374 27.4656C9.17242 27.5278 9.08476 27.5861 9.01858 27.6623C8.75984 27.9589 8.43035 28.1569 8.09768 28.3557C7.96814 28.4329 7.85725 28.5431 7.7439 28.6453C7.54747 28.8226 7.3792 29.0452 7.15601 29.1737C6.94621 29.2945 6.83039 29.5462 6.54983 29.5708C6.44175 29.5803 6.33157 29.6789 6.2418 29.7586C6.0584 29.9215 5.82008 29.9064 5.60781 29.9573C5.39589 30.0083 5.16214 30.009 4.94353 29.9837C4.70979 29.9566 4.469 29.9036 4.25638 29.8067C4.06875 29.7214 3.86493 29.5922 3.75826 29.4254C3.55655 29.1095 3.27493 28.8349 3.19889 28.4438C3.12039 28.039 2.95846 27.6479 3.0257 27.2213C3.03767 27.1454 2.99577 27.0626 3.00035 26.9839C3.01584 26.7055 3.05632 26.4278 3.05808 26.1497C3.0616 25.6761 3.01091 25.1997 3.0433 24.7289C3.07287 24.3026 3.02851 23.8824 3.03203 23.4597C3.03802 22.7361 3.04858 22.0128 3.06125 21.2892C3.06583 21.0312 3.09223 20.7735 3.09188 20.5158C3.09153 20.1268 3.07111 19.7377 3.06864 19.3484C3.06653 18.9997 3.07991 18.6508 3.08061 18.3018C3.08167 17.9349 3.07252 17.568 3.07463 17.2015C3.07639 16.9227 3.09364 16.6439 3.0954 16.3651C3.09645 16.1489 3.07815 15.9326 3.0785 15.7167C3.07885 15.4116 3.09434 15.1065 3.09293 14.801C3.09047 14.2502 3.07498 13.6997 3.07498 13.1491C3.07498 12.7893 3.10033 12.4298 3.09962 12.0699C3.09892 11.8339 3.05879 11.598 3.05984 11.3624C3.0616 10.9004 3.08836 10.4384 3.08801 9.97632C3.08801 9.65753 3.05773 9.33908 3.04647 9.01994C3.044 8.94411 3.07287 8.86757 3.07216 8.79173C3.06935 8.46311 3.05386 8.13484 3.05597 7.80656C3.05984 7.18899 3.07709 6.57142 3.08096 5.95385C3.08378 5.51885 3.06196 5.08349 3.07252 4.64849C3.08413 4.16012 3.09223 3.66894 3.15559 3.18619C3.18974 2.92568 3.32492 2.67464 3.43475 2.42853C3.53719 2.19856 3.63505 1.95491 3.79065 1.76251C4.17823 1.28256 4.59855 0.833516 5.1903 0.584591C5.5286 0.442398 5.86056 0.297046 6.22984 0.244382C6.63572 0.186452 7.03562 0.080422 7.44256 0.0375888C7.74319 0.00599042 8.05086 0.0449617 8.35572 0.046015C8.78167 0.0477704 9.20727 0.0403975 9.63322 0.0432062C10.0398 0.046015 10.4468 0.0625163 10.8533 0.0628674C11.2328 0.0632185 11.6127 0.0488237 11.9921 0.0442595C12.6789 0.0361844 13.3657 0.023194 14.0525 0.0256516C14.544 0.0274071 15.0351 0.0565477 15.5268 0.0625163C15.7933 0.0660272 16.0602 0.0407486 16.3266 0.0393442C16.6994 0.0375888 17.0726 0.0509303 17.4454 0.0491748C17.7875 0.0477704 18.1294 0.0298647 18.4715 0.0284603C19.3336 0.0253005 20.1954 0.0263538 21.0575 0.0284603C21.551 0.0295136 22.0446 0.0407486 22.5381 0.0368866C22.8623 0.0340778 23.1862 0.0066926 23.5104 0.000372938C23.8262 -0.00594673 24.1335 0.0684849 24.4176 0.190665C24.7819 0.347603 25.1312 0.542109 25.4786 0.735561C25.5923 0.798757 25.6821 0.906543 25.7796 0.997125C26.1499 1.3419 26.4555 1.72564 26.6699 2.19575C26.8191 2.52332 26.9849 2.84106 27.0581 3.19356C27.1145 3.46601 27.1542 3.74372 27.1736 4.02108C27.1937 4.30723 27.2243 4.59372 27.1204 4.88091C27.0691 5.0224 27.0983 5.19444 27.0997 5.35243C27.1021 5.71932 27.1162 6.08621 27.1138 6.4531C27.1116 6.75048 27.0631 7.05031 27.0888 7.34453C27.1088 7.57379 27.0821 7.79568 27.0817 8.02073C27.0817 8.25491 27.1155 8.48944 27.13 8.72397C27.1345 8.80051 27.1215 8.8781 27.1208 8.95499C27.119 9.13159 27.124 9.30854 27.1183 9.48514C27.1127 9.66981 27.0898 9.85414 27.0891 10.0385C27.0884 10.2505 27.1057 10.4629 27.1109 10.675C27.118 10.9829 27.1528 11.2947 27.119 11.5984C27.0595 12.139 27.0803 12.6794 27.0754 13.2197C27.0694 13.8612 27.0754 14.503 27.0807 15.1444C27.0821 15.3129 27.1046 15.4811 27.1057 15.6496C27.106 15.7272 27.0655 15.8052 27.0655 15.8831C27.0652 16.0267 27.0937 16.1713 27.0867 16.3142C27.0736 16.5748 27.1148 16.8419 27.0845 17.0909C27.0529 17.351 27.1363 17.6017 27.0835 17.8506C27.0412 18.049 27.1088 18.2449 27.0465 18.4489C26.9976 18.61 27.0507 18.801 27.055 18.979C27.0581 19.1117 27.0976 19.2438 27.0592 19.3779C27.0486 19.4151 27.055 19.4576 27.0543 19.4976C27.05 19.8192 27.0444 20.1408 27.043 20.4627C27.0419 20.7348 27.0469 21.0069 27.0476 21.2794C27.0483 21.5666 27.0419 21.8541 27.0476 22.141C27.0529 22.4236 27.0757 22.7062 27.0789 22.9889C27.0807 23.1658 27.0543 23.3428 27.0511 23.5201C27.0462 23.7957 27.0539 24.0716 27.0493 24.3476C27.0441 24.6678 27.0022 24.9908 27.0289 25.3078C27.0627 25.7049 26.9582 26.1013 27.0627 26.5005C27.1074 26.6718 27.0571 26.8695 27.0405 27.0545C27.0219 27.2578 26.999 27.4611 26.9645 27.6623C26.9451 27.7753 26.905 27.8859 26.8638 27.9937C26.7427 28.3107 26.5713 28.5979 26.3411 28.8493C26.0858 29.1281 25.7803 29.3468 25.4349 29.4862C25.2202 29.5729 24.9703 29.5736 24.7362 29.6129C24.7351 29.6073 24.7341 29.6013 24.733 29.5957L24.7316 29.5954ZM24.525 28.4866C24.6084 28.4828 24.6883 28.4814 24.7675 28.4754C25.1371 28.4483 25.3966 28.2307 25.6162 27.9628C25.8525 27.6749 25.8996 27.3168 25.9271 26.9625C25.9422 26.7645 25.9088 26.5637 25.9126 26.3643C25.9214 25.8861 25.9412 25.4082 25.9524 24.9304C25.9612 24.5625 25.9683 24.1945 25.9676 23.8266C25.9672 23.6001 25.9443 23.3737 25.9422 23.1472C25.9369 22.6062 25.9355 22.0651 25.9366 21.5241C25.9376 20.9483 25.9436 20.3722 25.9475 19.7964C25.9514 19.2381 25.9552 18.6799 25.9591 18.1213C25.9619 17.7197 25.963 17.3184 25.969 16.9167C25.9767 16.3989 25.994 15.881 25.9964 15.3628C25.9992 14.8095 25.988 14.2565 25.9855 13.7032C25.9827 13.048 25.9788 12.3925 25.9834 11.7374C25.9859 11.4032 26.0126 11.0693 26.0161 10.735C26.0218 10.2147 26.0172 9.69439 26.0168 9.17407C26.0168 9.03363 26.0168 8.89285 26.014 8.75241C26.0091 8.51963 25.9961 8.28721 25.9975 8.05479C25.9992 7.77075 26.0186 7.48672 26.0197 7.20304C26.0207 6.96675 25.9985 6.73011 26.0007 6.49383C26.0035 6.16099 26.0492 5.82535 26.0204 5.49602C25.9869 5.11298 26.0042 4.74118 26.077 4.36586C26.0971 4.26193 26.0777 4.14783 26.063 4.04004C26.0401 3.87363 26.0119 3.70721 25.975 3.54325C25.9324 3.35471 25.882 3.16758 25.8257 2.98255C25.8063 2.91901 25.7567 2.86529 25.725 2.8049C25.6507 2.66341 25.5895 2.51384 25.5032 2.38008C25.3621 2.161 25.2047 1.95561 24.9907 1.79516C24.8291 1.67438 24.689 1.52833 24.4972 1.44687C24.3504 1.38473 24.2226 1.28221 24.0525 1.27098C23.9667 1.26536 23.8727 1.2457 23.7994 1.20286C23.6234 1.09964 23.4379 1.20357 23.258 1.15898C23.1531 1.13265 23.0334 1.1667 22.9204 1.17197C22.743 1.17969 22.5659 1.19198 22.3885 1.19093C22.1713 1.18952 21.9583 1.14037 21.7352 1.18636C21.5993 1.21445 21.4465 1.14845 21.3018 1.1495C21.0723 1.15161 20.8428 1.18496 20.6129 1.18531C20.4137 1.18566 20.2148 1.15336 20.0155 1.14529C19.8286 1.13791 19.6413 1.13932 19.454 1.14423C19.2312 1.1502 19.0084 1.16073 18.7859 1.17548C18.5254 1.19233 18.2684 1.19303 18.009 1.14037C17.8981 1.1179 17.7738 1.17267 17.6559 1.17162C17.4989 1.17056 17.3422 1.13826 17.1856 1.14002C17.061 1.14142 16.936 1.19093 16.8121 1.18847C16.6128 1.18426 16.4143 1.14529 16.2147 1.13861C15.9616 1.12984 15.7078 1.133 15.4547 1.14177C15.3205 1.14634 15.1875 1.18426 15.0537 1.18777C14.9618 1.19023 14.8685 1.14353 14.777 1.14634C14.5306 1.15371 14.2831 1.20041 14.0388 1.18496C13.8512 1.17302 13.6798 1.12633 13.478 1.16916C13.3696 1.19198 13.1968 1.20883 13.0834 1.18004C12.7817 1.10351 12.4962 1.16776 12.2041 1.19128C12.1865 1.19268 12.1689 1.19444 12.1513 1.19303C11.9432 1.17478 11.7352 1.15828 11.5275 1.13651C11.2803 1.11053 11.0346 1.15617 10.7861 1.14213C10.6048 1.13159 10.4115 1.10912 10.2338 1.19479C10.2151 1.20357 10.187 1.1969 10.1644 1.19233C10.0697 1.17267 9.97644 1.14353 9.88105 1.13335C9.83247 1.12808 9.78037 1.16705 9.73003 1.166C9.60787 1.16424 9.48607 1.14704 9.36392 1.14318C9.20903 1.13826 9.05519 1.23376 8.89749 1.14142C8.87038 1.12562 8.8211 1.1488 8.78167 1.15196C8.63523 1.16389 8.4821 1.20673 8.3434 1.17864C8.11176 1.13159 7.89879 1.10175 7.66293 1.18636C7.48129 1.25167 7.27394 1.24535 7.07786 1.26887C6.82124 1.29942 6.55687 1.29871 6.30974 1.36472C6.05171 1.43388 5.79614 1.54132 5.56486 1.67544C5.06745 1.96333 4.68127 2.3699 4.46196 2.90496C4.34861 3.18232 4.25532 3.47654 4.21343 3.77181C4.16978 4.08218 4.20076 4.40272 4.19442 4.71871C4.18738 5.07717 4.16908 5.43529 4.16802 5.79375C4.16696 6.12167 4.18245 6.44924 4.19125 6.77716C4.19513 6.92146 4.2078 7.06576 4.20357 7.20971C4.19161 7.62645 4.16908 8.04285 4.15816 8.45925C4.15288 8.65761 4.16767 8.85633 4.16908 9.0547C4.17084 9.31942 4.16591 9.58415 4.16767 9.84887C4.16872 10.0002 4.18245 10.1515 4.18175 10.3028C4.17999 10.6841 4.17154 11.0654 4.16943 11.4467C4.16872 11.5759 4.18597 11.7051 4.18281 11.8339C4.17189 12.2763 4.15077 12.7187 4.14408 13.1611C4.14091 13.3728 4.16732 13.5848 4.16908 13.7966C4.17013 13.9437 4.14338 14.0911 4.14338 14.2382C4.14338 14.5784 4.15077 14.919 4.15957 15.2592C4.16168 15.334 4.19372 15.4081 4.19301 15.4825C4.19125 15.729 4.1821 15.9754 4.17365 16.2219C4.17119 16.3016 4.15711 16.3813 4.15887 16.461C4.16344 16.724 4.17471 16.9866 4.17929 17.2496C4.18034 17.317 4.16204 17.3844 4.16028 17.4521C4.15605 17.641 4.15957 17.8299 4.15359 18.0188C4.1476 18.2017 4.12613 18.3843 4.12507 18.5672C4.12402 18.7543 4.14584 18.9415 4.1469 19.1286C4.14831 19.3617 4.13669 19.5948 4.13458 19.828C4.13317 19.9884 4.13528 20.1492 4.14267 20.3097C4.155 20.586 4.17823 20.8619 4.18492 21.1383C4.18879 21.3001 4.16309 21.4627 4.16168 21.6252C4.15887 21.9763 4.16415 22.3278 4.1645 22.6788C4.1645 22.8467 4.15711 23.0145 4.16028 23.182C4.16591 23.4755 4.18421 23.769 4.18386 24.0625C4.18386 24.3262 4.16344 24.5895 4.1557 24.8532C4.14584 25.1913 4.13352 25.5294 4.13528 25.8675C4.13599 26.0093 4.15218 26.149 4.13493 26.2926C4.1205 26.4124 4.1564 26.537 4.155 26.6592C4.15007 27.0872 4.12472 27.5155 4.23878 27.9354C4.31552 28.2184 4.42007 28.4856 4.6605 28.6748C4.92875 28.8858 5.23114 28.9297 5.53494 28.7882C5.84472 28.6436 6.15837 28.4901 6.43084 28.2879C6.76984 28.0362 7.06026 27.7202 7.3873 27.4505C7.66188 27.2244 8.00616 27.0921 8.24905 26.8182C8.33213 26.7245 8.44232 26.6543 8.54335 26.577C8.68416 26.4696 8.83166 26.3702 8.9693 26.2589C9.1263 26.1318 9.26817 25.9854 9.4301 25.8661C9.67124 25.6884 9.92716 25.5311 10.1715 25.3577C10.2827 25.2787 10.3756 25.1748 10.4858 25.0944C10.8519 24.8272 11.2258 24.5712 11.5887 24.2998C11.7739 24.1615 11.9393 23.9975 12.1178 23.8504C12.2864 23.7114 12.4607 23.5794 12.6321 23.4442C12.7501 23.3515 12.8916 23.2771 12.9813 23.1623C13.1697 22.9214 13.3862 22.7266 13.6495 22.5672C14.2176 22.2238 14.8323 22.1638 15.4705 22.233C15.925 22.2825 16.3178 22.5051 16.7244 22.6957C17.1374 22.8891 17.4496 23.2093 17.8016 23.4786C18.167 23.7585 18.5148 24.0607 18.8707 24.3529C19.2749 24.6843 19.6786 25.0161 20.0835 25.3468C20.269 25.4985 20.4555 25.6491 20.6435 25.798C20.8502 25.9612 21.0635 26.1167 21.2663 26.2846C21.6422 26.5967 22.0104 26.9183 22.3864 27.2304C22.6927 27.4849 23.0053 27.7321 23.3158 27.9817C23.6713 28.2672 24.0547 28.488 24.525 28.4856V28.4866Z" fill="currentColor"/>
<path d="M23.2806 10.7209C23.2806 11.229 23.2778 11.7135 23.2817 12.198C23.2848 12.6084 23.2964 13.0188 23.3038 13.4293C23.3105 13.7972 23.3228 14.1655 23.3225 14.5338C23.3218 15.1177 23.3158 15.7015 23.3052 16.2854C23.3024 16.4459 23.3098 16.6197 23.251 16.7622C23.1968 16.8935 23.0803 17.036 22.9546 17.0912C22.8142 17.153 22.6325 17.128 22.4688 17.1298C22.1481 17.1333 21.8278 17.1259 21.5071 17.1298C21.1656 17.1337 20.8242 17.1445 20.4827 17.1526C20.2088 17.1589 19.9346 17.1603 19.6611 17.1719C19.2358 17.1898 18.8109 17.2235 18.3857 17.2341C17.6918 17.2509 16.9973 17.2464 16.3038 17.2681C16.12 17.2737 15.9715 17.252 15.8296 17.1266C15.679 16.9936 15.5473 16.7432 15.5455 16.5277C15.542 16.073 15.5276 15.6183 15.5336 15.1637C15.5403 14.643 15.5688 14.1227 15.5793 13.602C15.586 13.2674 15.5825 12.9325 15.5748 12.5975C15.5653 12.1657 15.5491 11.7338 15.5318 11.302C15.5191 10.9853 15.7223 10.7712 16.0891 10.7381C16.4168 10.7087 16.7456 10.6883 17.0744 10.6683C17.3754 10.6497 17.6767 10.6353 17.978 10.6223C18.6384 10.5935 19.2988 10.5696 19.9589 10.5377C20.5637 10.5085 21.1684 10.4689 21.7732 10.4401C22.0087 10.4288 22.2453 10.4362 22.4815 10.4327C22.5294 10.432 22.5769 10.4211 22.6244 10.413C22.7124 10.3979 22.774 10.3993 22.8128 10.5106C22.8599 10.6462 23.093 10.7571 23.2802 10.7213L23.2806 10.7209ZM21.5194 15.9863C21.5194 15.9831 21.5194 15.98 21.5194 15.9768C21.6701 15.9768 21.8211 15.9719 21.9714 15.9782C22.1207 15.9842 22.1766 15.928 22.1721 15.7732C22.1608 15.3677 22.1636 14.9618 22.164 14.5559C22.164 14.3256 22.1766 14.0953 22.1731 13.865C22.1675 13.4918 22.1488 13.1186 22.145 12.745C22.1411 12.403 22.1485 12.0607 22.1524 11.7188C22.1534 11.6176 22.1207 11.5773 22.0059 11.5839C21.5409 11.612 21.0755 11.6292 20.6098 11.6482C20.1324 11.6675 19.6551 11.6805 19.1777 11.7033C18.6937 11.7261 18.21 11.7595 17.726 11.7834C17.494 11.7949 17.2617 11.7981 17.0293 11.8013C16.8896 11.8034 16.8255 11.8718 16.8244 12.0084C16.823 12.1471 16.8192 12.2854 16.8164 12.4241C16.8023 13.1386 16.7907 13.8534 16.7734 14.5679C16.7621 15.0313 16.7403 15.494 16.7301 15.9575C16.7273 16.0835 16.7808 16.1692 16.9325 16.1158C16.9653 16.1042 17.0005 16.0958 17.035 16.0948C17.5788 16.0786 18.1224 16.0618 18.6662 16.0491C19.6171 16.027 20.5682 16.0073 21.5191 15.9866L21.5194 15.9863Z" fill="currentColor"/>
<path d="M7.65761 7.89509C8.08744 7.89509 8.51761 7.8979 8.94743 7.89404C9.28115 7.89123 9.61487 7.87368 9.9486 7.87508C10.3158 7.87648 10.6829 7.8972 11.0504 7.89931C11.4331 7.90141 11.8161 7.8828 12.1984 7.88807C12.843 7.8965 13.4872 7.91932 14.1314 7.9302C14.4957 7.93652 14.8604 7.9302 15.2251 7.9309C15.5103 7.93161 15.795 7.93441 16.0802 7.93687C16.5047 7.94003 16.9293 7.94144 17.3538 7.94741C17.9086 7.95513 18.4634 7.97268 19.0182 7.97444C19.5367 7.97584 20.0556 7.95478 20.5741 7.95688C20.9061 7.95829 21.2381 7.98883 21.57 7.99656C21.8017 8.00182 22.0336 7.98532 22.2656 7.98743C22.6159 7.99059 22.9665 7.9941 23.3157 8.01482C23.3868 8.01903 23.4717 8.08714 23.5181 8.14928C23.6473 8.32167 23.8089 8.49125 23.7561 8.7328C23.742 8.79775 23.6406 8.84199 23.6213 8.90764C23.5956 8.99612 23.6061 9.0372 23.4812 8.99436C23.409 8.96944 23.2974 9.08846 23.1967 9.10777C23.0834 9.12953 22.9623 9.10847 22.8447 9.11303C22.7183 9.1183 22.592 9.14112 22.4656 9.13936C22.2206 9.13656 21.9756 9.11444 21.7305 9.11444C21.3155 9.11444 20.9005 9.12813 20.4854 9.13024C20.2865 9.13129 20.0876 9.11409 19.8884 9.11268C19.6969 9.11128 19.505 9.12251 19.3132 9.12286C19.0287 9.12321 18.7443 9.119 18.4599 9.11689C18.2163 9.11514 17.9727 9.11514 17.7291 9.11022C17.6442 9.10847 17.5569 9.10531 17.476 9.08389C17.3373 9.04668 17.2211 9.14639 17.0729 9.11725C16.824 9.06844 16.5639 9.06774 16.3083 9.06669C15.863 9.06528 15.4177 9.08214 14.9724 9.08495C14.8488 9.08565 14.7249 9.05405 14.6013 9.0551C14.388 9.05686 14.1747 9.07547 13.961 9.08143C13.7044 9.08846 13.4449 9.11233 13.1908 9.08775C12.9144 9.06107 12.6437 9.07231 12.3681 9.08495C12.0562 9.09934 11.7415 9.04984 11.4275 9.03895C11.2814 9.03404 11.1307 9.07968 10.9885 9.05861C10.791 9.02912 10.5956 9.04176 10.3995 9.04106C10.1433 9.03965 9.88699 9.05475 9.63072 9.05194C9.49976 9.05054 9.36916 9.01578 9.23786 9.01262C9.10057 9.00911 8.96292 9.03228 8.82563 9.03017C8.52923 9.02631 8.23317 9.01367 7.93677 9.0049C7.70373 8.99787 7.46928 9.00419 7.238 8.97997C7.11197 8.96698 6.98031 8.91993 6.87259 8.85393C6.82331 8.82373 6.79163 8.7012 6.80993 8.6366C6.86591 8.43753 6.95778 8.24899 7.02045 8.05168C7.07184 7.88948 7.20737 7.8979 7.32706 7.8828C7.43513 7.86911 7.54672 7.88 7.65656 7.88V7.89579L7.65761 7.89509Z" fill="currentColor"/>
<path d="M23.1612 6.38552C22.9489 6.39781 22.7078 6.41923 22.4663 6.42274C22.2797 6.42555 22.0931 6.39921 21.9066 6.39711C21.7492 6.39535 21.5918 6.41431 21.4345 6.41712C21.1884 6.42133 20.9424 6.41923 20.6963 6.42098C20.34 6.42344 19.9841 6.42695 19.6279 6.42976C19.4023 6.43152 19.1762 6.43678 18.9506 6.43432C18.6134 6.43046 18.2758 6.41396 17.9389 6.41642C17.7329 6.41782 17.5172 6.49155 17.3239 6.44977C17.0553 6.39149 16.7969 6.49225 16.5322 6.43503C16.3833 6.40273 16.2203 6.43222 16.0636 6.43678C15.9028 6.4417 15.7415 6.45574 15.5807 6.45539C15.3511 6.45469 15.1216 6.44556 14.8921 6.43783C14.6907 6.43116 14.4897 6.41852 14.2884 6.41466C14.1979 6.41291 14.1071 6.43257 14.017 6.43046C13.8807 6.4273 13.7452 6.41361 13.609 6.40483C13.5861 6.40343 13.5604 6.39711 13.5403 6.40448C13.3045 6.49015 13.069 6.43467 12.8324 6.40869C12.7419 6.39886 12.6486 6.41888 12.5568 6.42028C12.266 6.42555 11.9756 6.42906 11.6848 6.43222C11.4211 6.43503 11.1575 6.43678 10.8938 6.43748C10.7639 6.43783 10.6336 6.43292 10.5037 6.43467C10.4256 6.43573 10.3474 6.44486 10.2693 6.45012C10.0091 6.46733 9.749 6.45223 9.4892 6.44415C9.39099 6.44099 9.29242 6.43678 9.19456 6.4417C9.07417 6.44767 8.94779 6.49225 8.83585 6.46698C8.65772 6.42695 8.48382 6.45925 8.30886 6.45363C8.14904 6.44837 7.98817 6.48383 7.828 6.48383C7.69915 6.48383 7.57066 6.45609 7.44182 6.44345C7.35699 6.43503 7.26616 6.44872 7.18731 6.42309C7.01658 6.36797 6.85183 6.29424 6.67969 6.19804C6.80782 6.08218 6.90498 5.97545 6.87788 5.81465C6.85324 5.66824 7.12993 5.61066 6.99229 5.43652C7.31017 5.24482 7.66254 5.32592 8.00542 5.32171C8.24691 5.3189 8.48804 5.31504 8.72953 5.31469C9.20266 5.31399 9.67613 5.3182 10.1493 5.31504C10.5618 5.31258 10.9744 5.29994 11.3873 5.29714C11.7636 5.29468 12.1403 5.30205 12.5166 5.29994C13.0436 5.29678 13.5702 5.28344 14.0972 5.28485C14.5422 5.2859 14.9871 5.30837 15.4321 5.30907C15.7341 5.30977 16.0362 5.28134 16.3382 5.28028C16.6793 5.27923 17.0201 5.29749 17.3612 5.30065C17.5527 5.3024 17.7442 5.28485 17.9357 5.28414C18.242 5.28309 18.5486 5.29468 18.8548 5.28976C19.26 5.28379 19.6652 5.25781 20.07 5.25781C20.4083 5.25781 20.7463 5.29082 21.0846 5.29573C21.3218 5.29924 21.5598 5.2701 21.7971 5.27291C22.2878 5.27958 22.7789 5.28766 23.2685 5.31609C23.4882 5.32873 23.5843 5.58679 23.4738 5.77989C23.3661 5.96772 23.2738 6.16433 23.1608 6.38482L23.1612 6.38552Z" fill="currentColor"/>
<path d="M14.1015 11.7538C13.7371 11.7538 13.3731 11.7562 13.0088 11.7531C12.5145 11.7489 12.0199 11.7373 11.5257 11.7352C11.3409 11.7345 11.1279 11.811 10.9793 11.7418C10.853 11.6829 10.7636 11.725 10.6587 11.7159C10.4302 11.6955 10.2021 11.6618 9.97291 11.6565C9.60539 11.6477 9.23752 11.6639 8.87001 11.6576C8.60599 11.653 8.34267 11.6232 8.07865 11.6172C7.95017 11.6144 7.8178 11.6277 7.69319 11.6576C7.53337 11.6958 7.13628 11.5772 7.05391 11.435C7.02363 11.383 7.0092 11.3005 7.02786 11.2457C7.10143 11.0302 7.1655 10.8037 7.28624 10.6152C7.34327 10.5264 7.51893 10.4786 7.64355 10.4737C7.97903 10.4604 8.31592 10.4772 8.6521 10.4867C9.06362 10.4983 9.47479 10.5155 9.88595 10.5281C10.2299 10.5386 10.5738 10.5439 10.9177 10.5548C11.5655 10.5752 12.2135 10.6008 12.8613 10.6187C13.1183 10.6257 13.3759 10.6138 13.6329 10.6194C13.8614 10.6243 14.0944 10.6187 14.3158 10.664C14.4288 10.6872 14.5218 10.8111 14.6211 10.8929C14.6299 10.9003 14.6249 10.9354 14.6158 10.9512C14.5281 11.1011 14.4348 11.2482 14.3507 11.3999C14.325 11.4466 14.3116 11.5059 14.3113 11.5596C14.3099 11.7032 14.2416 11.7629 14.1015 11.7538Z" fill="currentColor"/>
<path d="M7.2238 13.501C7.59449 13.4754 7.96517 13.4399 8.3362 13.4259C8.87762 13.4055 9.41974 13.408 9.9608 13.3866C10.5128 13.3652 11.0641 13.3213 11.6164 13.2974C12.1078 13.2763 12.5999 13.2669 13.0917 13.2581C13.2315 13.2556 13.3719 13.2711 13.5117 13.2812C13.7525 13.2988 13.8722 13.481 14.0028 13.6467C14.0675 13.7285 14.132 13.8019 14.039 13.9181C13.9933 13.975 14.0137 14.0807 13.9767 14.1498C13.9468 14.2057 13.8813 14.2503 13.8215 14.2805C13.7637 14.3096 13.6757 14.2938 13.6324 14.3328C13.4948 14.4556 13.3364 14.3907 13.1878 14.4012C12.7714 14.4307 12.3546 14.456 11.9378 14.4774C11.8255 14.483 11.7118 14.463 11.5991 14.4644C11.1834 14.47 10.7673 14.4732 10.3519 14.4901C10.0199 14.5034 9.68904 14.5434 9.35708 14.5568C9.09623 14.5673 8.83397 14.5494 8.57277 14.5561C8.28657 14.5638 8.00108 14.5884 7.71523 14.5999C7.46212 14.6101 7.22592 14.5392 7.00132 14.4293C6.98126 14.4195 6.96014 14.377 6.96577 14.3566C7.0059 14.2116 7.05025 14.0673 7.09813 13.9244C7.13896 13.8019 7.18578 13.6815 7.23014 13.56C7.22803 13.54 7.22627 13.52 7.22416 13.5L7.2238 13.501Z" fill="currentColor"/>
<path d="M13.4017 16.183C13.357 16.2999 13.3468 16.4221 13.2799 16.4824C13.0994 16.6461 13.1793 16.9852 12.9054 17.0582C12.7318 17.1046 12.5389 17.0821 12.3545 17.0825C12.2341 17.0825 12.1133 17.0596 11.9933 17.0625C11.8197 17.067 11.6469 17.0955 11.4737 17.0965C11.1037 17.0986 10.7337 17.0832 10.3638 17.0867C10.0501 17.0898 9.7368 17.119 9.42315 17.12C9.15772 17.1211 8.89229 17.0923 8.62686 17.0888C8.47338 17.0867 8.31954 17.1151 8.16571 17.1179C7.94957 17.1218 7.73061 17.0933 7.51763 17.1186C7.33563 17.14 7.19236 17.094 7.04486 17.0031C6.89912 16.9136 6.89806 16.8567 6.9829 16.6991C7.08147 16.5162 7.14519 16.3143 7.24622 16.0657C7.48137 15.9512 7.81228 15.9895 8.13438 15.9734C8.4424 15.9579 8.75148 15.9579 9.06021 15.9548C9.39956 15.9516 9.73891 15.953 10.0786 15.9519C10.1716 15.9519 10.2641 15.9498 10.3571 15.9495C10.7468 15.9484 11.1365 15.9548 11.5261 15.9446C11.9264 15.9337 12.3259 15.8979 12.7262 15.8909C12.8864 15.888 13.0557 15.9109 13.205 15.9653C13.2898 15.9962 13.3426 16.1138 13.4017 16.1826V16.183Z" fill="currentColor"/>
</svg>
