<svg viewBox="0 0 32 32" fill="none" xmlns="http://www.w3.org/2000/svg">
    <path d="M16.8737 26.9973C16.8737 27.2775 16.8727 27.5516 16.8737 27.8257C16.8765 28.4146 16.878 29.0035 16.8849 29.5921C16.8883 29.8702 16.907 30.1484 16.9088 30.4265C16.9088 30.4628 16.8515 30.531 16.8201 30.5313C16.518 30.535 16.216 30.5239 15.9136 30.5243C15.638 30.5246 15.3627 30.5377 15.0871 30.5384C14.8794 30.5387 14.6717 30.5239 14.464 30.5246C14.341 30.5249 14.2177 30.5525 14.0947 30.5501C13.7574 30.5441 13.4192 30.5051 13.0838 30.5253C12.8696 30.538 12.651 30.6113 12.4514 30.7006C12.3698 30.7372 12.3072 30.882 12.2835 30.9895C12.2673 31.0634 12.3209 31.1669 12.3651 31.2421C12.423 31.3402 12.4996 31.4262 12.5744 31.5116C12.6653 31.6157 12.7989 31.6849 12.7715 31.8737C12.7677 31.8999 12.8917 31.9775 12.9565 31.9775C13.039 31.9775 13.1224 31.8949 13.2022 31.9916C13.3224 31.873 13.4672 31.9701 13.5973 31.9389C13.6173 31.9342 13.6394 31.9305 13.6587 31.9348C13.8854 31.9862 14.1127 31.8938 14.3388 31.9379C14.4235 31.9543 14.5066 32.0007 14.5901 31.9997C14.7084 31.9987 14.829 31.9405 14.9445 31.953C15.1774 31.9782 15.4141 31.8576 15.6448 31.9832C15.6822 32.0037 15.7457 31.9607 15.7977 31.958C15.9768 31.9496 16.1562 31.9442 16.3355 31.9409C16.5666 31.9365 16.798 31.9342 17.0294 31.9321C17.3376 31.9295 17.6438 31.9973 17.9552 31.9392C18.0791 31.916 18.2149 31.9772 18.3454 31.9775C18.4693 31.9782 18.5932 31.9365 18.7172 31.9372C18.9514 31.9382 19.1855 31.959 19.42 31.9647C19.482 31.9664 19.5449 31.9426 19.6063 31.9177C19.6822 31.9368 19.7535 32.0769 19.8439 31.9261C19.8498 31.9164 19.9152 31.9577 19.9532 31.9594C20.2073 31.9694 20.4626 31.9933 20.7155 31.9755C20.8961 31.9627 21.0708 31.961 21.2517 31.9782C21.4358 31.9956 21.6248 31.951 21.812 31.9399C21.8627 31.9368 21.9144 31.956 21.9723 31.9338C22.0169 31.9409 22.0614 31.9557 22.1053 31.954C22.19 31.9506 22.2856 31.9066 22.3566 31.9362C22.4964 31.9943 22.6207 31.9587 22.7272 31.8868C22.8436 31.8082 22.9514 31.7014 23.0358 31.5841C23.1049 31.4884 23.1174 31.3641 22.9807 31.2908C22.9539 31.2764 22.9259 31.2529 22.9115 31.2253C22.8116 31.0308 22.715 30.8343 22.5923 30.5881C22.3775 30.5642 22.119 30.5212 21.8593 30.5112C21.5448 30.4987 21.2296 30.5152 20.9148 30.5172C20.495 30.5199 20.0752 30.5219 19.6555 30.5226C19.2319 30.5232 18.8081 30.5199 18.3846 30.5222C18.2934 30.5226 18.261 30.4923 18.261 30.3879C18.2604 30.0106 18.2466 29.6337 18.2423 29.2565C18.2351 28.6598 18.232 28.0632 18.2258 27.4666C18.2245 27.3585 18.2295 27.2479 18.2108 27.1428C18.1837 26.9896 18.194 26.9113 18.3721 26.8871C18.6465 26.8502 18.9127 26.7471 19.1865 26.7054C19.5047 26.657 19.794 26.5126 20.1014 26.4296C20.2222 26.397 20.3337 26.3268 20.4514 26.2794C20.6485 26.2002 20.836 26.0762 21.0256 26.0077C21.3458 25.8921 21.5884 25.66 21.8749 25.4994C21.9639 25.4497 22.0608 25.4228 22.1265 25.5464C22.1981 25.6812 22.2622 25.8212 22.3417 25.9506C22.38 26.0134 22.445 26.0571 22.498 26.1095C22.5241 26.1353 22.5578 26.1562 22.5749 26.1877C22.6568 26.3396 22.8004 26.4642 22.8533 26.609C22.9346 26.831 23.1647 26.914 23.2105 27.1455C23.2267 27.1341 23.2426 27.1226 23.2535 27.1149C23.3836 27.5785 23.7433 27.8778 23.9843 28.2866C23.9445 28.2833 23.9202 28.2813 23.8744 28.2776C23.8996 28.3085 23.9108 28.3337 23.928 28.3404C23.9572 28.3515 24.0033 28.3384 24.0192 28.3578C24.0899 28.4432 24.1597 28.5315 24.2145 28.6286C24.2409 28.6753 24.2148 28.761 24.245 28.7996C24.3207 28.8967 24.4122 28.98 24.5019 29.063C24.6084 29.1617 24.718 29.2568 24.8295 29.3492C24.9858 29.4782 25.2623 29.4355 25.4458 29.2595C25.5311 29.1775 25.6432 29.1147 25.7002 29.0149C25.8266 28.7935 26.0583 28.7327 26.2224 28.5725C26.4108 28.3884 26.6301 28.2517 26.8512 28.117C26.9028 28.0854 26.9081 27.9735 26.9477 27.9074C26.9941 27.8294 27.0302 27.7764 26.9629 27.6752C26.9053 27.5886 26.8726 27.4589 26.8789 27.3514C26.8901 27.165 26.8038 27.0282 26.7272 26.8851C26.6668 26.7723 26.5868 26.6718 26.5148 26.566C26.3395 26.3087 26.1657 26.05 25.9879 25.795C25.925 25.7047 25.8419 25.6301 25.7855 25.536C25.5815 25.1961 25.3685 24.8642 25.1316 24.5487C24.9702 24.3341 24.8301 24.1009 24.6819 23.8752C24.5592 23.6881 24.4346 23.5023 24.3207 23.3095C24.2992 23.2729 24.3073 23.1953 24.3291 23.153C24.4016 23.0132 24.4841 22.8795 24.5676 22.7468C24.7351 22.4797 24.917 22.2224 25.0708 21.947C25.1621 21.7837 25.2041 21.5895 25.2807 21.4159C25.3499 21.259 25.4464 21.1155 25.5121 20.9573C25.584 20.7836 25.6354 20.5999 25.6936 20.4202C25.7429 20.2687 25.7998 20.1188 25.8344 19.9636C25.9126 19.6133 25.9854 19.2612 26.0477 18.9071C26.0929 18.6515 26.1418 18.3918 26.1446 18.1335C26.1483 17.814 26.2467 17.4929 26.1293 17.1721C26.0533 16.9638 25.8998 16.8647 25.7248 16.7982C25.6488 16.7693 25.561 16.7753 25.5003 16.8832C25.3838 17.0901 25.2496 17.2856 25.121 17.4845C25.0951 17.5244 25.0609 17.5574 25.0335 17.5963C24.9973 17.6477 24.9425 17.6975 24.9332 17.7552C24.8837 18.0572 24.8289 18.3602 24.808 18.6653C24.7772 19.1188 24.6361 19.541 24.5256 19.9717C24.4723 20.18 24.3783 20.3778 24.2886 20.5727C24.1475 20.8787 23.9983 21.1807 23.8454 21.4797C23.7579 21.651 23.6536 21.8123 23.5608 21.9806C23.5048 22.082 23.4553 22.0904 23.3905 21.989C23.2217 21.7249 23.0523 21.4612 22.8779 21.2012C22.7147 20.958 22.5491 20.7165 22.3759 20.4816C22.3283 20.4168 22.3417 20.3829 22.3625 20.312C22.4528 20.007 22.5304 19.6972 22.6032 19.3868C22.7275 18.8581 22.8583 18.3303 22.961 17.7966C23.0311 17.4334 23.0604 17.0609 23.1034 16.692C23.1498 16.2916 23.1924 15.8908 23.2338 15.4897C23.2494 15.3406 23.2572 15.1904 23.2684 15.0406C23.3556 13.8591 23.3833 12.6756 23.3559 11.4915C23.3385 10.744 23.288 9.99761 23.2619 9.2505C23.2463 8.80371 23.2569 8.35592 23.2401 7.90947C23.2295 7.63434 23.1943 7.35955 23.1607 7.0861C23.1062 6.64032 23.0554 6.1932 22.9807 5.75112C22.9361 5.48775 22.844 5.23379 22.7807 4.97344C22.7428 4.81656 22.7256 4.65364 22.687 4.49709C22.644 4.32274 22.5811 4.15444 22.5382 3.9801C22.4681 3.69657 22.3146 3.46814 22.1477 3.24575C22.1181 3.20645 22.1156 3.14397 22.096 3.09459C22.0455 2.96828 21.9826 2.85742 21.8898 2.75328C21.7562 2.60346 21.6575 2.41668 21.5454 2.24468C21.4862 2.15365 21.4305 2.06026 21.3738 1.96754C21.3685 1.95881 21.3701 1.94033 21.3638 1.93731C20.9724 1.75154 20.7725 1.33331 20.4533 1.05583C20.1901 0.827395 19.9058 0.684289 19.5954 0.569401C19.3434 0.476348 19.1055 0.33425 18.8505 0.255643C18.5749 0.170988 18.2881 0.112872 18.0028 0.0833106C17.6839 0.0500535 17.3604 0.0487098 17.0396 0.0584518C16.8718 0.0634907 16.7064 0.142434 16.538 0.15352C16.1574 0.178379 15.8133 0.336938 15.4779 0.498856C15.1198 0.671524 14.7748 0.886183 14.4497 1.12369C14.2911 1.23924 14.0672 1.29938 14.0078 1.55636C13.991 1.6296 13.8947 1.68066 13.8359 1.74314C13.7829 1.79924 13.7365 1.86374 13.6777 1.9111C13.645 1.93731 13.5936 1.93596 13.5597 1.96418C13.5335 1.97661 13.4992 1.98165 13.4827 2.00281C13.4317 2.06731 13.3784 2.13349 13.3426 2.20807C13.2971 2.3028 13.2785 2.41366 13.2283 2.50503C13.167 2.61723 13.0872 2.71834 13.0113 2.82047C12.948 2.90512 12.8879 2.99717 12.8263 3.0788C12.6824 3.2696 12.6002 3.51786 12.5068 3.74931C12.3897 4.04023 12.2841 4.33685 12.1776 4.63247C12.1256 4.77659 12.0851 4.9254 12.0341 5.06985C12.0185 5.11386 11.9861 5.15081 11.9487 5.21195C11.8852 5.10042 11.8329 5.02013 11.7915 4.9338C11.7021 4.7477 11.5754 4.59451 11.4508 4.43595C11.32 4.26967 11.2176 4.07752 11.0958 3.90216C10.9541 3.69859 10.8018 3.50308 10.6592 3.30051C10.5462 3.13994 10.4378 2.97466 10.3313 2.80871C10.1117 2.46673 9.89688 2.12173 9.67609 1.78076C9.46931 1.46163 9.17566 1.20632 9.06884 0.813958C8.76834 0.582166 8.59893 0.158895 8.17075 0.109177C8.04182 0.0940603 7.91726 0.033257 7.81231 0C7.76249 0.0849902 7.72606 0.175355 7.66689 0.241198C7.58001 0.337609 7.48067 0.422936 7.37884 0.501207C7.21908 0.624829 7.04999 0.734678 6.89055 0.859308C6.81923 0.915073 6.76474 0.99536 6.6981 1.05885C6.65948 1.09547 6.61433 1.12604 6.56824 1.1509C6.43932 1.22077 6.30666 1.28292 6.17992 1.35648C6.15563 1.37059 6.15064 1.42401 6.13663 1.45894C6.11514 1.51336 6.09397 1.56812 6.03387 1.61885C6.06874 1.72164 6.10331 1.82477 6.13819 1.92756C6.14317 1.92421 6.14815 1.92051 6.15314 1.91715C6.15936 1.96922 6.1603 2.02297 6.17213 2.07336C6.22445 2.29406 6.31569 2.48991 6.46267 2.65922C6.51686 2.7217 6.53212 2.82181 6.57572 2.89773C6.59814 2.93703 6.64142 2.98541 6.67786 2.98843C6.87124 3.00321 6.91951 3.19167 7.02072 3.31294C7.07708 3.38046 7.10822 3.47251 7.15836 3.54104C7.20632 3.59949 7.26797 3.65021 7.29881 3.71773C7.34396 3.81683 7.367 3.92736 7.38537 3.98816C7.45139 4.00294 7.49094 3.99924 7.50122 4.01604C7.599 4.17527 7.69056 4.33954 7.78709 4.49978C7.82633 4.56461 7.88332 4.61836 7.91539 4.68622C7.94529 4.74904 7.95276 4.82429 7.97207 4.90256C7.98577 4.87904 8.00134 4.85183 8.02719 4.80749C8.0957 4.99427 8.31742 5.05507 8.31493 5.28686C8.31493 5.28854 8.366 5.29123 8.39807 5.29358C8.37845 5.34162 8.3607 5.38495 8.34264 5.42829C8.37752 5.41888 8.40773 5.41082 8.43793 5.40242C8.44136 5.43031 8.43731 5.46356 8.45039 5.48439C8.47188 5.51899 8.41676 5.6023 8.52077 5.5939C8.55533 5.59122 8.59706 5.69031 8.63069 5.74574C8.8739 6.02692 9.11088 6.31313 9.20493 6.71692C9.31143 6.64503 9.36811 6.67996 9.36001 6.82542C9.35939 6.83617 9.36312 6.85532 9.36811 6.85666C9.53253 6.9 9.55215 7.0982 9.6736 7.1889C9.71688 7.22148 9.75083 7.27993 9.77169 7.33402C9.80408 7.41834 9.82214 7.50937 9.84643 7.59907C9.84114 7.60243 9.86885 7.58496 9.89812 7.56648C10.1634 7.93836 10.435 8.30418 10.691 8.68278C10.8118 8.86149 10.8971 9.06742 11.0086 9.25386C11.0516 9.32541 11.1182 9.38319 11.1814 9.43761C11.3399 9.57501 11.335 9.76514 11.3253 9.95226C11.3107 10.2412 11.2861 10.5297 11.2655 10.8183C11.2456 11.1008 11.2188 11.383 11.2085 11.6658C11.2035 11.8096 11.2129 11.9588 11.2437 12.0985C11.2998 12.3538 11.2998 12.6071 11.3019 12.8678C11.3072 13.458 11.3527 14.0479 11.3848 14.6375C11.4025 14.9653 11.4131 15.2945 11.4499 15.6201C11.5034 16.0931 11.5775 16.5637 11.6436 17.035C11.6457 17.0511 11.6467 17.074 11.6563 17.0814C11.9207 17.29 11.8494 17.6051 11.889 17.8906C11.9322 18.203 12.0017 18.5131 12.0802 18.8181C12.154 19.1053 12.2458 19.3878 12.3452 19.666C12.4087 19.844 12.5002 20.0107 12.5787 20.1827C12.664 20.3701 12.7117 20.6006 12.8431 20.7353C12.9948 20.8901 13.0536 21.0937 13.1788 21.2563C13.2588 21.3604 13.3136 21.4891 13.3691 21.6124C13.4111 21.7058 13.4108 21.8364 13.5581 21.8059C13.5615 21.8351 13.5646 21.864 13.5628 21.8479C13.6335 21.905 13.6833 21.9439 13.7316 21.9846C13.7549 22.0041 13.778 22.0252 13.7979 22.0487C13.8997 22.1693 13.9978 22.294 14.1031 22.4112C14.1538 22.4677 14.2142 22.5154 14.2759 22.558C14.3217 22.5899 14.3858 22.596 14.4251 22.6339C14.6184 22.82 14.8557 22.9319 15.069 23.0837C15.2836 23.2363 15.5165 23.3595 15.7464 23.4855C15.8105 23.5205 15.8949 23.5094 15.9643 23.5356C16.2328 23.637 16.4925 23.7852 16.7684 23.8403C17.0493 23.8964 17.3485 23.8957 17.6338 23.8611C17.9804 23.8194 18.3239 23.7301 18.6624 23.6357C18.9395 23.5581 19.2108 23.4516 19.478 23.3397C19.591 23.2924 19.6832 23.1906 19.7919 23.1274C19.9202 23.0528 20.0516 22.9776 20.1901 22.9346C20.2499 22.9161 20.3486 22.9591 20.3979 23.0098C20.448 23.0616 20.4536 23.1607 20.4894 23.2329C20.5128 23.2799 20.548 23.3313 20.5903 23.3538C20.6778 23.3999 20.7426 23.4459 20.7015 23.542C20.8176 23.673 20.9824 23.7297 21.0232 23.941C21.04 24.0291 21.1359 24.1097 21.2112 24.1712C21.305 24.2474 21.3262 24.3018 21.2125 24.3697C21.0129 24.4889 20.8014 24.5907 20.6165 24.7325C20.3047 24.9713 19.9317 25.0348 19.5891 25.1833C19.3652 25.2804 19.1198 25.321 18.8829 25.3808C18.6533 25.4386 18.4242 25.5071 18.1909 25.5374C17.8677 25.5794 17.5413 25.6019 17.2156 25.6106C16.9481 25.6177 16.6772 25.6157 16.4128 25.5767C16.0107 25.5172 15.6109 25.4322 15.2142 25.3388C14.9613 25.2794 14.7106 25.1988 14.4677 25.1024C14.2756 25.0261 14.0953 24.9152 13.9125 24.8135C13.711 24.7013 13.5139 24.5793 13.3127 24.4661C12.9175 24.2444 12.5784 23.9417 12.2611 23.6098C11.9833 23.3192 11.6937 23.0371 11.4477 22.7169C11.2425 22.4499 11.0846 22.1381 10.9208 21.8368C10.8077 21.6285 10.7408 21.3886 10.6162 21.1904C10.4188 20.8767 10.3718 20.5078 10.2481 20.1679C10.1731 19.9609 10.1214 19.7406 10.0856 19.5216C10.0302 19.1836 9.97971 18.8426 9.9604 18.5007C9.94265 18.1862 9.95823 17.8684 9.98002 17.5537C9.99684 17.3081 9.96414 17.1153 9.72156 17.0209C9.64401 16.9907 9.57831 16.8892 9.50606 16.8882C9.42478 16.8869 9.32295 16.9419 9.26503 17.0081C9.13424 17.1573 9.02805 17.3313 8.90504 17.4888C8.86954 17.5345 8.79418 17.5473 8.76553 17.5947C8.72754 17.6578 8.6992 17.7408 8.6992 17.8154C8.69983 18.1227 8.68394 18.4355 8.73221 18.7351C8.76086 18.9132 8.73969 19.0926 8.7864 19.2679C8.83529 19.4513 8.85833 19.6432 8.8957 19.8303C8.94833 20.0926 8.98632 20.3604 9.06231 20.6147C9.16569 20.9597 9.28278 21.3023 9.42385 21.6309C9.60229 22.0461 9.77699 22.4717 10.0165 22.8456C10.2335 23.1842 10.4141 23.5581 10.7162 23.8349C10.8993 24.0025 11.0354 24.2286 11.2091 24.41C11.3935 24.6025 11.5953 24.7758 11.794 24.9519C11.9472 25.0876 12.1054 25.2172 12.2648 25.3446C12.3863 25.4413 12.5083 25.5404 12.6398 25.62C12.9013 25.7782 13.1663 25.9311 13.4363 26.0715C13.6811 26.1988 13.9302 26.3194 14.1856 26.4199C14.5157 26.5495 14.8517 26.6624 15.1889 26.7696C15.3038 26.8062 15.4309 26.7944 15.5499 26.8193C15.9955 26.912 16.4508 26.9204 16.8715 26.996L16.8737 26.9973ZM13.7175 6.82408C13.7502 6.72934 13.7823 6.62991 13.8194 6.53249C13.9368 6.22411 13.8925 5.88112 13.9978 5.57005C14.0666 5.36614 14.123 5.15585 14.2074 4.95967C14.3273 4.68152 14.4568 4.40673 14.6032 4.14403C14.7028 3.96531 14.8395 3.81112 14.9573 3.64383C15.0348 3.53365 15.1067 3.41842 15.1836 3.30756C15.2525 3.20847 15.311 3.09324 15.3985 3.019C15.5212 2.9152 15.6645 2.83894 15.8027 2.75866C16.0388 2.6216 16.2705 2.47076 16.5177 2.36226C16.7419 2.26383 16.9907 2.23225 17.2171 2.13853C17.4451 2.04413 17.6453 2.06462 17.8502 2.1953C17.905 2.23024 17.9782 2.23057 18.0421 2.24939C18.1956 2.29507 18.384 2.29675 18.4955 2.39753C18.7795 2.65418 19.1553 2.74455 19.4163 3.04588C19.5275 3.1742 19.6664 3.27565 19.7685 3.42413C19.8202 3.49938 19.8703 3.64081 20.0123 3.59176C20.0226 3.5884 20.0444 3.60217 20.0513 3.61427C20.1045 3.70698 20.1556 3.80138 20.2073 3.89544C20.3424 4.14 20.49 4.37817 20.6087 4.6318C20.6977 4.82261 20.7507 5.03324 20.8167 5.23647C20.8307 5.27947 20.8263 5.32953 20.8404 5.37252C20.9089 5.58483 20.9814 5.7958 21.0499 6.0081C21.0571 6.03061 21.0459 6.05917 21.0459 6.08503C21.0453 6.25367 21.0337 6.42331 21.0481 6.59027C21.073 6.87447 21.1178 7.15665 21.1483 7.44051C21.2022 7.94272 21.267 8.4446 21.2975 8.94883C21.319 9.30391 21.2754 9.66302 21.2891 10.0188C21.3078 10.5086 21.3713 10.997 21.3816 11.4868C21.3931 12.0286 21.3651 12.5712 21.3573 13.1137C21.3533 13.3986 21.3676 13.6844 21.3536 13.9686C21.3227 14.5864 21.2798 15.2035 21.2405 15.8206C21.2306 15.9758 21.2181 16.131 21.2019 16.2855C21.1577 16.7034 21.0845 17.12 21.0739 17.5389C21.0674 17.7986 20.973 18.0126 20.9036 18.2746C20.7535 18.0767 20.609 17.9047 20.4844 17.7176C20.3368 17.4962 20.2219 17.2486 20.0646 17.0367C19.8688 16.7723 19.6433 16.5392 19.4954 16.2291C19.3908 16.0094 19.2195 15.827 19.079 15.6271C18.8994 15.3715 18.7197 15.1158 18.5416 14.8588C18.4824 14.7735 18.4294 14.6832 18.3718 14.5961C18.2937 14.4782 18.2143 14.361 18.1345 14.2441C18.0374 14.1017 17.9399 13.9596 17.8421 13.8178C17.6818 13.5857 17.517 13.3572 17.3616 13.1214C17.2461 12.9461 17.1496 12.7559 17.0312 12.5829C16.9135 12.4106 16.774 12.2557 16.6535 12.0851C16.5386 11.9225 16.4396 11.7468 16.3265 11.5825C16.2465 11.4663 16.1481 11.3645 16.0693 11.2473C15.9397 11.0544 15.8208 10.8532 15.695 10.657C15.6274 10.5519 15.553 10.4521 15.4857 10.3473C15.4247 10.2519 15.3758 10.1468 15.3088 10.0564C15.1808 9.88339 15.0348 9.72517 14.9127 9.5478C14.7265 9.27636 14.5546 8.99385 14.3765 8.71603C14.3497 8.67438 14.3217 8.63373 14.2949 8.59208C14.1803 8.41437 14.0595 8.24103 13.9539 8.05728C13.8614 7.8967 13.6247 7.81238 13.7241 7.55405C13.6145 7.53121 13.5902 7.48149 13.6344 7.375C13.6895 7.24164 13.7328 7.10122 13.7683 6.96013C13.7773 6.92385 13.7378 6.87312 13.7185 6.82475L13.7175 6.82408ZM13.5771 12.9729C13.7194 13.0764 13.7219 13.2323 13.8331 13.3337C13.9231 13.4157 13.9561 13.5816 14.0632 13.6854C14.1519 13.7714 14.213 13.893 14.2796 14.0036C14.3111 14.0556 14.3195 14.1245 14.3525 14.1749C14.3964 14.2421 14.4568 14.2968 14.5054 14.361C14.5938 14.4776 14.6792 14.5972 14.7816 14.7372C14.7813 14.7379 14.7604 14.7772 14.7377 14.8195C14.7878 14.88 14.8346 14.9647 14.9034 15.0137C15.018 15.096 15.136 15.1639 15.1665 15.3278C15.1727 15.3607 15.2098 15.3866 15.2319 15.4162C15.287 15.4911 15.3478 15.5619 15.3951 15.6422C15.4508 15.737 15.4832 15.8488 15.5461 15.9368C15.6461 16.0769 15.766 16.2005 15.87 16.3376C15.9039 16.3826 15.9095 16.4935 15.9366 16.4968C16.0509 16.5116 16.0883 16.6195 16.1387 16.6887C16.2826 16.8865 16.3994 17.1066 16.532 17.3142C16.6734 17.5355 16.822 17.7515 16.9633 17.9729C17.0004 18.031 17.0225 18.0999 17.0568 18.1748C17.0773 18.1795 17.12 18.1893 17.1608 18.1987C17.1577 18.2611 17.1552 18.3099 17.1527 18.3589L17.1969 18.324C17.2492 18.3639 17.351 18.4137 17.3464 18.4422C17.309 18.6622 17.5095 18.6975 17.583 18.8265C17.5603 18.8547 17.5379 18.8829 17.5217 18.9031C17.5774 18.9323 17.6301 18.9438 17.6581 18.9784C17.6976 19.0271 17.7054 19.1127 17.7503 19.1473C17.8873 19.2538 17.9916 19.3882 18.0511 19.5531C18.1037 19.6993 18.1482 19.8383 18.2874 19.9216C18.3226 19.9428 18.3273 20.0234 18.3535 20.0973C18.3653 20.101 18.4073 20.1151 18.4528 20.1299C18.4357 20.1796 18.4229 20.2169 18.4095 20.2559C18.5584 20.2824 18.6076 20.3318 18.6739 20.4642C18.7212 20.5582 18.7166 20.6869 18.8458 20.7336C18.8987 20.7527 18.9367 20.8377 18.9697 20.8999C19.0345 21.0228 18.9869 21.1384 18.8617 21.1894C18.8246 21.2046 18.7832 21.2251 18.7589 21.257C18.6306 21.4239 18.4428 21.4703 18.2688 21.5381C18.1448 21.5865 18.0009 21.5821 17.8842 21.6429C17.6917 21.7427 17.5127 21.8039 17.2969 21.7199C17.0536 21.6251 16.7967 21.5721 16.5523 21.4797C16.4037 21.4236 16.2664 21.3305 16.1269 21.2486C15.9475 21.1434 15.761 21.0473 15.5966 20.9194C15.4947 20.8401 15.3717 20.7853 15.3076 20.6372C15.2515 20.5078 15.1257 20.4158 15.0404 20.2992C14.9295 20.1474 14.8174 19.9942 14.7246 19.8293C14.5621 19.5394 14.4045 19.2451 14.2631 18.9431C14.1703 18.7452 14.1105 18.5296 14.0339 18.323C14.009 18.2558 13.9601 18.1943 13.9523 18.1258C13.9343 17.9682 13.9461 17.8063 13.9243 17.6498C13.8978 17.461 13.8493 17.2762 13.8103 17.0894C13.8493 17.0051 13.8645 16.9141 13.8614 16.8237C13.8589 16.7525 13.839 16.6809 13.8187 16.6121C13.6297 15.9714 13.5815 15.3056 13.541 14.6422C13.5126 14.1796 13.5332 13.7137 13.5369 13.2491C13.5375 13.1611 13.5621 13.0734 13.5777 12.9726L13.5771 12.9729Z"
          fill="currentColor"/>
</svg>
