<svg viewBox="0 0 30 30" fill="none" xmlns="http://www.w3.org/2000/svg">
<path d="M10.7837 29.9534C10.6777 29.9534 10.6157 29.9534 10.5537 29.9534C10.4267 29.9537 10.2993 29.951 10.1722 29.9561C10.0634 29.9608 9.95497 29.9791 9.84617 29.9831C9.77696 29.9858 9.70741 29.9696 9.63786 29.9693C9.57589 29.9689 9.51392 29.9801 9.4516 29.9835C9.37275 29.9875 9.29322 29.9943 9.21437 29.9892C9.0677 29.9794 8.92172 29.9561 8.7747 29.9496C8.63147 29.9436 8.48755 29.9496 8.34398 29.954C8.12741 29.9608 7.91084 29.9713 7.69393 29.9787C7.45395 29.9868 7.21363 29.9916 6.97365 29.9997C6.75812 30.0071 6.60215 29.8773 6.43998 29.7698C6.32189 29.6913 6.20964 29.6 6.11048 29.4996C5.92491 29.3116 5.75895 29.104 5.5689 28.9207C5.34579 28.7057 5.26625 28.42 5.16193 28.1515C5.03833 27.833 4.97911 27.4928 5.00665 27.1486C5.02559 26.9109 5.07345 26.6752 5.10409 26.4382C5.11304 26.3696 5.10753 26.2989 5.10788 26.2289C5.10856 25.975 5.10788 25.7211 5.10925 25.4671C5.11304 24.9298 5.11924 24.3922 5.12302 23.8549C5.12578 23.4701 5.13335 23.0854 5.12716 22.7006C5.12061 22.2867 5.09169 21.8732 5.08859 21.4593C5.08618 21.1364 5.11579 20.8135 5.11855 20.4906C5.12234 20.0737 5.11235 19.6564 5.10994 19.2392C5.10788 18.8534 5.11166 18.4672 5.10547 18.0814C5.1003 17.7538 5.07723 17.4265 5.07586 17.0989C5.07413 16.6887 5.09032 16.2782 5.09066 15.8681C5.09066 15.5979 5.07069 15.3274 5.07069 15.0572C5.07069 14.7675 5.08859 14.478 5.08791 14.1883C5.08722 13.8769 5.07276 13.5654 5.06759 13.254C5.06105 12.8449 5.05692 12.4354 5.05313 12.0263C5.05038 11.7352 5.049 11.444 5.04866 11.1529C5.04797 10.7248 5.04487 10.2964 5.05003 9.86837C5.05382 9.56203 5.08377 9.25603 5.07723 8.95002C5.06828 8.53582 5.02696 8.12229 5.01595 7.70809C5.01044 7.50454 5.05038 7.29997 5.05313 7.09574C5.05657 6.84824 5.0397 6.60073 5.03729 6.35322C5.03557 6.18179 5.04556 6.01002 5.04487 5.83859C5.04315 5.42033 5.03936 5.00207 5.03454 4.58381C5.03144 4.3407 5.01939 4.09792 5.02008 3.85481C5.02111 3.53089 5.05141 3.20595 5.03178 2.88337C5.00734 2.48743 5.1516 2.13375 5.25765 1.7679C5.27245 1.7165 5.24594 1.65023 5.26763 1.60391C5.38228 1.35809 5.49349 1.10923 5.63156 0.875923C5.69767 0.76468 5.80991 0.672033 5.91905 0.594603C6.13768 0.439403 6.3546 0.271355 6.59733 0.162478C6.89067 0.0309475 7.20399 -0.0363395 7.54347 0.0339906C7.76727 0.0803138 8.0069 0.0563069 8.23965 0.0603644C8.6566 0.0678032 9.07355 0.0772707 9.4905 0.0772707C9.83859 0.0772707 10.187 0.0600263 10.5351 0.0586738C11.1958 0.056645 11.8569 0.0610406 12.5176 0.0613788C12.8464 0.0613788 13.1756 0.0579975 13.5044 0.056645C14.3224 0.0532638 15.1402 0.0465012 15.9582 0.0478538C16.4375 0.04853 16.9171 0.0698319 17.3964 0.0684794C17.8498 0.0671269 18.3036 0.0414294 18.7571 0.0397387C19.1991 0.03771 19.6412 0.0552925 20.0837 0.0590119C20.5588 0.0630694 21.0339 0.0613788 21.5091 0.0627313C22.2848 0.06476 23.0602 0.0735513 23.8359 0.0654363C24.1141 0.0627313 24.3926 -0.00387946 24.6701 0.000178047C25.1497 0.00727868 25.5798 0.157406 25.9547 0.470849C26.2907 0.751493 26.5035 1.10213 26.5992 1.50957C26.6571 1.75573 26.6337 2.02115 26.6382 2.27813C26.6464 2.73697 26.6502 3.1958 26.6526 3.65464C26.6543 3.9603 26.6512 4.26631 26.6481 4.57231C26.644 4.97299 26.6316 5.37367 26.6344 5.77401C26.6368 6.11822 26.664 6.4621 26.6654 6.80631C26.6667 7.15018 26.6423 7.49405 26.6426 7.83793C26.6426 8.28865 26.6585 8.73937 26.6636 9.19009C26.6678 9.56271 26.6633 9.93532 26.6685 10.3079C26.6753 10.7911 26.6936 11.2743 26.6974 11.7575C26.6998 12.0895 26.6802 12.4216 26.6802 12.7536C26.6802 13.3173 26.6922 13.8806 26.6919 14.4442C26.6915 15.04 26.676 15.6358 26.6791 16.2312C26.6826 16.8598 26.7046 17.4884 26.7105 18.1169C26.7153 18.6221 26.7029 19.1273 26.7067 19.6324C26.7111 20.2461 26.7284 20.8598 26.7321 21.4735C26.7339 21.7731 26.7111 22.0727 26.7111 22.3719C26.7111 22.6614 26.7304 22.9508 26.7335 23.2406C26.7363 23.5222 26.7263 23.8039 26.7266 24.0852C26.7273 24.6492 26.7266 25.2132 26.7346 25.7768C26.7439 26.4044 26.7779 27.032 26.7714 27.6588C26.768 27.9882 26.6495 28.2996 26.4911 28.5958C26.1837 29.1706 25.7109 29.5591 25.0936 29.7559C24.8082 29.8469 24.4973 29.8844 24.1853 29.8178C24.0769 29.7948 23.9547 29.8354 23.8386 29.8421C23.8032 29.8442 23.7656 29.8347 23.7312 29.8242C23.6086 29.787 23.4905 29.7694 23.4179 29.854C23.3611 29.8327 23.3236 29.8059 23.2871 29.807C22.9882 29.8161 22.6893 29.8323 22.3901 29.8428C22.0789 29.8536 21.768 29.8651 21.4567 29.8675C21.2202 29.8692 20.9833 29.8513 20.7468 29.8536C20.616 29.8546 20.4851 29.8898 20.3543 29.8898C20.2169 29.8898 20.0802 29.8597 19.9425 29.8546C19.7979 29.8496 19.6419 29.906 19.5125 29.8824C19.2105 29.8272 18.922 29.9236 18.6273 29.905C18.3749 29.8891 18.1222 29.8604 17.8705 29.8655C17.5923 29.8709 17.3148 29.9179 17.0362 29.9287C16.8569 29.9358 16.6764 29.9074 16.4964 29.902C16.4227 29.8996 16.3487 29.9223 16.2746 29.9216C16.1528 29.9202 16.0309 29.9023 15.9093 29.9037C15.69 29.9064 15.4707 29.9229 15.251 29.924C15.1629 29.9243 15.0734 29.883 14.9863 29.8874C14.6595 29.9047 14.3338 29.9422 14.0071 29.9537C13.8315 29.9601 13.6548 29.9196 13.4782 29.9185C13.345 29.9175 13.2114 29.9578 13.0781 29.9571C12.9366 29.9564 12.7958 29.9246 12.6543 29.9155C12.5944 29.9118 12.5331 29.9375 12.4722 29.9392C12.3217 29.9432 12.1712 29.9402 12.0208 29.9412C11.7453 29.9429 11.4696 29.9493 11.1941 29.9463C11.0691 29.9449 10.9445 29.9226 10.8192 29.9189C10.7961 29.9182 10.7717 29.9601 10.782 29.9503L10.7837 29.9534ZM18.8473 1.16299C18.4713 1.16299 18.1342 1.19478 17.8071 1.15251C17.5596 1.12073 17.3199 1.22419 17.0631 1.13391C16.9612 1.09807 16.7797 1.12242 16.642 1.13053C16.4165 1.14406 16.1975 1.16096 15.9689 1.14101C15.6928 1.11701 15.4122 1.14981 15.1333 1.15285C14.9171 1.15522 14.7008 1.14541 14.4846 1.14845C14.3145 1.15082 14.1444 1.17584 13.975 1.17077C13.7268 1.16367 13.4789 1.13865 13.2307 1.12275C13.1897 1.12005 13.148 1.12276 13.1071 1.12749C12.9972 1.14101 12.8874 1.17043 12.7779 1.16874C12.6619 1.16671 12.5462 1.1187 12.4308 1.1214C12.1193 1.12884 11.8053 1.18294 11.4974 1.15724C11.326 1.14304 11.1638 1.12275 10.9951 1.15927C10.9634 1.16604 10.9266 1.14338 10.8915 1.14101C10.7854 1.13425 10.679 1.12614 10.573 1.12749C10.4625 1.12918 10.3427 1.17178 10.2431 1.1427C9.99353 1.07001 9.83687 1.16536 9.8441 1.41591C9.84617 1.48117 9.85546 1.54643 9.85581 1.61168C9.85925 2.04719 9.8651 2.48236 9.86338 2.91786C9.86132 3.46191 9.84686 4.00629 9.84927 4.55033C9.85064 4.80731 9.89093 5.06395 9.89196 5.32058C9.89334 5.61408 9.8806 5.90858 9.85581 6.20106C9.8324 6.47833 9.91262 6.75288 9.8534 7.03251C9.82413 7.17148 9.86235 7.32296 9.86028 7.4687C9.85719 7.69794 9.83722 7.92719 9.83963 8.15644C9.84341 8.572 9.86648 8.98756 9.86683 9.40311C9.86752 10.1808 9.85787 10.9588 9.85305 11.7365C9.85099 12.0929 9.84789 12.4493 9.8503 12.8057C9.85168 12.9923 9.87337 13.179 9.87061 13.3656C9.86614 13.7044 9.8441 14.0432 9.841 14.382C9.83825 14.6671 9.85787 14.9518 9.85753 15.2368C9.85684 15.6686 9.84479 16.1004 9.84272 16.5325C9.83997 17.1198 9.84272 17.7071 9.84272 18.2948C9.84272 18.6279 9.84204 18.9612 9.84272 19.2943C9.84341 19.5804 9.84823 19.8664 9.84582 20.1528C9.84376 20.3868 9.82585 20.6208 9.82861 20.8544C9.83308 21.2307 9.85856 21.6071 9.85753 21.9834C9.85615 22.517 9.83274 23.0509 9.83033 23.5844C9.82861 23.9665 9.85271 24.3486 9.84996 24.7307C9.84892 24.848 9.90298 24.8639 9.99009 24.8626C10.1161 24.8602 10.2418 24.8477 10.3678 24.8483C10.6601 24.85 10.9524 24.8622 11.2447 24.8602C11.6934 24.8568 12.142 24.8402 12.5903 24.8389C12.8361 24.8382 13.0823 24.8649 13.3281 24.8666C13.7099 24.869 14.0918 24.8544 14.4733 24.8582C15.0293 24.8636 15.585 24.8815 16.1407 24.8889C16.642 24.8953 17.143 24.8943 17.6443 24.8974C18.0089 24.8994 18.3735 24.9031 18.7381 24.9055C19.1138 24.9079 19.4894 24.9075 19.865 24.9119C20.3987 24.918 20.9324 24.9292 21.466 24.9339C21.8276 24.9369 22.1891 24.9292 22.5506 24.9329C23.035 24.938 23.5198 24.9535 24.0042 24.9569C24.4735 24.9599 24.9428 24.9518 25.4121 24.9515C25.5429 24.9515 25.6094 24.9079 25.6046 24.7658C25.5925 24.4003 25.587 24.0348 25.5853 23.6693C25.5822 23.0113 25.5832 22.3537 25.5842 21.6957C25.5849 21.3095 25.5946 20.9231 25.5904 20.5369C25.5877 20.2823 25.5577 20.0277 25.5581 19.7731C25.5584 19.4894 25.586 19.206 25.5894 18.9224C25.5928 18.6576 25.5749 18.3925 25.5756 18.1278C25.5774 17.4478 25.5922 16.7678 25.5873 16.0879C25.5815 15.2811 25.5567 14.4743 25.5474 13.6676C25.5422 13.2364 25.5567 12.805 25.5533 12.3739C25.5515 12.1757 25.5161 11.9776 25.5168 11.7795C25.5181 11.3544 25.5381 10.9294 25.5405 10.504C25.5429 10.0956 25.5288 9.6868 25.5295 9.27834C25.5298 9.03151 25.5512 8.78502 25.5508 8.53819C25.5502 8.22508 25.5329 7.91198 25.5305 7.59854C25.5267 7.04502 25.5298 6.49151 25.5281 5.938C25.5264 5.43825 25.524 4.93816 25.5178 4.43841C25.5147 4.19564 25.494 3.95287 25.4958 3.71009C25.4978 3.43012 25.5257 3.15016 25.5247 2.87019C25.5233 2.53206 25.4823 2.19326 25.4978 1.85683C25.5092 1.6083 25.3663 1.46426 25.2127 1.32293C24.9759 1.10483 24.6763 1.07406 24.3671 1.09232C24.0648 1.11024 24.0046 1.17686 24.0118 1.46325C24.0263 2.00898 24.0328 2.55505 24.0473 3.10079C24.0573 3.48118 24.0834 3.8609 24.0869 4.24129C24.091 4.70689 24.071 5.17282 24.0762 5.63876C24.0831 6.23657 24.1034 6.83403 24.1203 7.4315C24.1247 7.59685 24.1392 7.76185 24.1454 7.92719C24.1537 8.15137 24.1561 8.37555 24.1664 8.59939C24.1723 8.72889 24.0741 8.94833 23.9912 8.95138C23.8156 8.9578 23.6396 8.95341 23.4726 8.95341C23.41 9.15019 23.3993 9.15459 23.2337 9.06837C23.1838 9.04233 23.127 9.02137 23.0877 8.9835C22.8853 8.7884 22.6828 8.59296 22.4893 8.38975C22.1839 8.06921 21.8844 7.74292 21.5852 7.41696C21.5091 7.33412 21.4471 7.31181 21.3689 7.41527C21.3142 7.48763 21.2477 7.55187 21.1813 7.61477C20.7223 8.0496 20.261 8.48172 19.8034 8.91756C19.656 9.05789 19.529 9.05079 19.3864 8.89322C19.32 8.81951 19.2467 8.74343 19.1606 8.69677C18.9881 8.60277 18.9068 8.46718 18.9099 8.29271C18.9179 7.85179 18.9182 7.41054 18.9113 6.96928C18.9065 6.65686 18.8734 6.34443 18.8724 6.032C18.87 5.47071 18.8893 4.90942 18.8865 4.34813C18.8841 3.82945 18.8621 3.3111 18.8535 2.79276C18.8469 2.38802 18.848 1.98295 18.8459 1.57821C18.8452 1.43248 18.8459 1.28641 18.8459 1.16333L18.8473 1.16299ZM8.71617 24.8115C8.71617 24.6225 8.71066 24.4318 8.71754 24.2418C8.72787 23.9449 8.75714 23.6487 8.75852 23.3521C8.76024 23.0431 8.73683 22.7337 8.72753 22.4243C8.71995 22.1684 8.71686 21.9121 8.71376 21.6558C8.71307 21.6115 8.72271 21.5672 8.72512 21.5225C8.73476 21.3518 8.74888 21.1807 8.75025 21.0096C8.75094 20.9132 8.71272 20.8152 8.72099 20.7205C8.74543 20.4429 8.74027 20.1667 8.72684 19.8884C8.71341 19.6135 8.72856 19.3369 8.73166 19.0613C8.73407 18.8453 8.73648 18.6292 8.74027 18.4135C8.7444 18.169 8.75507 17.9242 8.75335 17.6798C8.75232 17.5567 8.72202 17.4336 8.7203 17.3102C8.71858 17.1999 8.74578 17.0897 8.74647 16.9792C8.74784 16.7445 8.73889 16.5102 8.73717 16.2755C8.7351 15.9986 8.73476 15.7217 8.73579 15.4447C8.73648 15.3051 8.74612 15.1651 8.74406 15.0255C8.7413 14.8459 8.72305 14.6664 8.7265 14.4875C8.72925 14.3357 8.76058 14.1842 8.76609 14.0324C8.77022 13.9205 8.75438 13.8075 8.74578 13.6949C8.7413 13.6381 8.72581 13.5813 8.72822 13.5252C8.73855 13.3112 8.79191 13.0907 8.75611 12.8851C8.72546 12.7103 8.76093 12.546 8.74888 12.3776C8.73441 12.1741 8.73545 11.9695 8.73028 11.7653C8.72546 11.5786 8.71892 11.3923 8.71892 11.2057C8.71892 11.1319 8.74027 11.0582 8.73992 10.9845C8.73924 10.8172 8.72512 10.6498 8.72822 10.4824C8.73132 10.3123 8.75817 10.1426 8.75679 9.97285C8.75507 9.76355 8.72925 9.55425 8.72477 9.34495C8.72168 9.20125 8.74268 9.05687 8.74337 8.91317C8.7444 8.70421 8.73097 8.49524 8.73373 8.28662C8.73717 8.03877 8.75783 7.79093 8.75817 7.54308C8.75817 7.4058 8.72064 7.26819 8.72099 7.13091C8.72133 6.93987 8.74715 6.74916 8.75163 6.55779C8.75714 6.33259 8.75438 6.10706 8.7506 5.88187C8.74715 5.68508 8.73269 5.48829 8.73166 5.29151C8.73063 5.0981 8.74371 4.90469 8.74474 4.71128C8.74509 4.6068 8.7265 4.50198 8.72856 4.3975C8.73028 4.3177 8.76334 4.23791 8.76058 4.15912C8.75335 3.95794 8.72477 3.75709 8.72271 3.55591C8.72099 3.39766 8.76643 3.23773 8.75507 3.08084C8.74096 2.88337 8.76678 2.6876 8.74474 2.48844C8.71858 2.25378 8.82738 2.01067 8.71479 1.77466C8.70584 1.75573 8.73132 1.7236 8.73166 1.69757C8.73269 1.52479 8.73235 1.352 8.72787 1.17956C8.72718 1.15893 8.69689 1.12242 8.67967 1.12208C8.58292 1.11904 8.48548 1.12039 8.38908 1.12918C8.2789 1.13899 8.16838 1.17584 8.05993 1.16908C7.87125 1.15758 7.68498 1.10754 7.49665 1.10111C7.34894 1.09604 7.19332 1.11227 7.0525 1.15488C6.63692 1.28032 6.42449 1.61033 6.31844 1.98667C6.22032 2.33426 6.17418 2.70011 6.14319 3.06089C6.1184 3.34694 6.1518 3.63773 6.158 3.92649C6.16523 4.26698 6.17659 4.60781 6.17521 4.94831C6.17384 5.27257 6.15077 5.59683 6.15111 5.92109C6.15111 6.38602 6.16798 6.8506 6.17074 7.31552C6.17452 7.96845 6.1697 8.62137 6.17315 9.27395C6.17659 9.95189 6.18658 10.6302 6.19174 11.3081C6.19553 11.8234 6.19518 12.3391 6.19863 12.8544C6.20138 13.2706 6.21068 13.6868 6.21068 14.1027C6.21068 14.2397 6.18176 14.3769 6.18417 14.5139C6.19071 14.8713 6.21584 15.2283 6.21791 15.5854C6.22101 16.0774 6.20517 16.569 6.20655 17.061C6.20723 17.3457 6.23374 17.6304 6.23443 17.9151C6.23512 18.2393 6.21171 18.5639 6.21343 18.8882C6.21584 19.3836 6.23512 19.8786 6.23925 20.3739C6.24442 20.9629 6.24407 21.5523 6.24029 22.1413C6.23891 22.3797 6.21343 22.6184 6.21446 22.8568C6.21584 23.1712 6.23512 23.4854 6.2427 23.7998C6.24993 24.1085 6.25268 24.4172 6.25681 24.7256C6.25819 24.8193 6.25681 24.9129 6.25681 25.0357C7.07315 24.6861 7.89122 24.8913 8.71548 24.8112L8.71617 24.8115ZM7.10139 27.4597C7.17025 27.4036 7.25391 27.3637 7.29316 27.2977C7.36306 27.1804 7.39163 27.0391 7.46532 26.9248C7.50904 26.8572 7.60166 26.7878 7.67878 26.7797C7.90361 26.7561 8.13154 26.7591 8.35844 26.7591C8.7864 26.7591 9.21437 26.7689 9.642 26.7662C10.0985 26.7632 10.5554 26.7446 11.012 26.7439C11.3515 26.7432 11.6909 26.7648 12.0304 26.7686C12.5696 26.775 13.1091 26.7777 13.6483 26.777C14.287 26.7763 14.9257 26.7726 15.564 26.7665C15.8711 26.7635 16.1786 26.7419 16.4857 26.7452C17.1771 26.7523 17.8681 26.7763 18.5594 26.7811C19.183 26.7851 19.8062 26.7703 20.4297 26.7679C20.8373 26.7665 21.245 26.7747 21.6526 26.7747C21.9563 26.7747 22.26 26.7638 22.5637 26.7665C22.9259 26.7696 23.2877 26.7868 23.6499 26.7895C24.2394 26.7943 24.8292 26.7932 25.4186 26.7916C25.5216 26.7916 25.6245 26.7861 25.6166 26.6326C25.607 26.4457 25.6142 26.2577 25.6142 26.0686C25.4902 26.0426 25.3907 26.0061 25.2899 26.0034C24.9945 25.9956 24.6987 26.0027 24.4029 26.0014C24.1609 26 23.9188 25.9936 23.6768 25.9919C23.4351 25.9902 23.1931 25.9912 22.9514 25.9926C22.7117 25.9939 22.4721 26.0024 22.2325 25.998C21.8864 25.9919 21.5408 25.9699 21.1947 25.9696C20.9902 25.9696 20.7857 26.0017 20.5808 26.0108C20.4235 26.0176 20.2651 26.0122 20.1074 26.0081C20.0861 26.0074 20.0668 25.9757 20.0437 25.9706C20.0072 25.9628 19.968 25.9604 19.9311 25.9655C19.8413 25.9784 19.7518 26.0118 19.6626 26.0095C19.4784 26.0047 19.2949 25.974 19.111 25.9696C18.8975 25.9645 18.6837 25.9831 18.4703 25.979C18.1635 25.9736 17.8571 25.9483 17.5503 25.9486C17.302 25.9486 17.0535 25.9882 16.8056 25.9848C16.4382 25.9801 16.0712 25.951 15.7038 25.9354C15.3653 25.9212 15.0262 25.9655 14.6874 25.9283C14.6086 25.9195 14.527 25.9246 14.4478 25.932C14.3355 25.9425 14.224 25.976 14.1124 25.974C13.91 25.9703 13.7082 25.9375 13.5061 25.9351C13.2468 25.932 12.9872 25.953 12.728 25.952C12.4715 25.951 12.2153 25.9334 11.9588 25.9266C11.7512 25.9209 11.5432 25.9182 11.3356 25.9189C11.274 25.9189 11.2113 25.9483 11.1507 25.9432C11.0426 25.9337 10.9366 25.8959 10.8288 25.8932C10.7224 25.8905 10.606 25.9486 10.511 25.9219C10.417 25.8955 10.3006 25.9544 10.2975 25.9503C10.1826 25.7978 10.0328 25.9459 9.89781 25.9033C9.73427 25.8516 9.54008 25.8925 9.35898 25.8928C9.1462 25.8935 8.93342 25.8884 8.72099 25.8965C8.53988 25.9036 8.35362 25.9611 8.18078 25.9324C8.0162 25.905 7.86126 25.8692 7.69359 25.8996C7.59477 25.9175 7.49217 25.9233 7.39163 25.9199C6.50161 25.8898 6.03371 26.6357 6.13011 27.3826C6.18417 27.8022 6.33394 28.1823 6.64863 28.4923C6.89308 28.7327 7.14408 28.9414 7.51765 28.9177C7.63334 28.9103 7.74937 28.891 7.86471 28.8927C8.29336 28.8991 8.72168 28.9231 9.14999 28.9194C9.56832 28.9157 9.9863 28.8808 10.4046 28.8697C10.6639 28.8629 10.9235 28.8771 11.1831 28.8781C11.5091 28.8791 11.8352 28.8781 12.1609 28.8747C12.384 28.8727 12.6071 28.8646 12.8299 28.8609C13.073 28.8565 13.3164 28.8514 13.5595 28.8511C13.8755 28.8507 14.192 28.8609 14.5077 28.8545C14.7122 28.8504 14.916 28.8122 15.1205 28.8108C15.4969 28.8081 15.8735 28.8261 16.2502 28.8267C16.4823 28.8271 16.714 28.8044 16.946 28.8048C17.2421 28.8051 17.5379 28.825 17.834 28.824C18.1411 28.823 18.4486 28.8048 18.7557 28.7993C19.3021 28.7899 19.8485 28.7855 20.3949 28.7764C20.6166 28.7726 20.8384 28.7551 21.0598 28.7564C21.3021 28.7578 21.5449 28.7835 21.7869 28.7804C22.0417 28.777 22.2958 28.7436 22.5506 28.7392C22.8143 28.7344 23.0784 28.7584 23.3421 28.7517C23.6617 28.7436 23.9856 28.8102 24.3 28.7037C24.3155 28.6986 24.3344 28.6989 24.351 28.7016C24.7738 28.7757 25.094 28.5941 25.3563 28.2955C25.472 28.164 25.5787 28.0159 25.5718 27.8184C25.4861 27.8184 25.4131 27.8147 25.3405 27.8191C25.1897 27.8286 25.0396 27.8509 24.8888 27.8523C24.719 27.8539 24.5489 27.8333 24.3792 27.8326C24.3138 27.8323 24.247 27.8749 24.1826 27.8705C24.0383 27.8604 23.8947 27.8154 23.7515 27.8171C23.5033 27.8201 23.2554 27.8624 23.0075 27.8614C22.6721 27.86 22.3368 27.8279 22.0011 27.8191C21.8097 27.8144 21.6179 27.8333 21.4264 27.8357C21.3273 27.837 21.2278 27.8212 21.1286 27.8232C21.0942 27.8239 21.0591 27.8709 21.0267 27.8678C20.9169 27.8583 20.8091 27.8299 20.6993 27.8215C20.6638 27.8188 20.6242 27.8725 20.5881 27.8702C20.4379 27.861 20.2889 27.8326 20.1388 27.8269C20.0523 27.8239 19.9649 27.8624 19.8781 27.8614C19.77 27.8604 19.6619 27.8293 19.5538 27.8272C19.4563 27.8252 19.3579 27.856 19.2608 27.8523C18.9984 27.8418 18.7381 27.7813 18.474 27.8634C18.3911 27.8895 18.2916 27.8648 18.1993 27.8617C17.9665 27.8533 17.7335 27.8343 17.501 27.8387C17.3551 27.8414 17.2153 27.8073 17.0579 27.855C16.9051 27.9013 16.7181 27.8276 16.5456 27.8245C16.2863 27.8205 16.0267 27.8296 15.7675 27.8377C15.5237 27.8455 15.28 27.8594 15.0362 27.8702C15.0148 27.8712 14.9808 27.879 14.9742 27.8692C14.9009 27.762 14.8069 27.8252 14.7194 27.835C14.6785 27.8394 14.6337 27.8556 14.5969 27.8452C14.4461 27.8019 14.4071 27.8103 14.1565 27.8648C14.057 27.8864 13.9458 27.8509 13.8397 27.8489C13.7234 27.8465 13.6066 27.8526 13.4899 27.8556C13.3622 27.8587 13.2345 27.8692 13.1071 27.8638C12.9631 27.8577 12.8199 27.8316 12.676 27.8259C12.6257 27.8239 12.5734 27.8725 12.5235 27.8705C12.4092 27.8654 12.2955 27.8425 12.1812 27.8289C11.966 27.8029 11.7512 27.9131 11.5322 27.8184C11.4486 27.7823 11.3532 27.8681 11.2451 27.8262C11.1803 27.8012 11.0839 27.8685 11.001 27.8719C10.8154 27.8796 10.6288 27.8796 10.4435 27.8702C10.3106 27.8634 10.1788 27.8242 10.0462 27.8222C9.89609 27.8198 9.74253 27.8293 9.59552 27.8587C9.45917 27.8861 9.31801 27.7275 9.1913 27.8763C9.08664 27.7769 8.97818 27.8752 8.87145 27.8712C8.69103 27.8641 8.51027 27.8621 8.32951 27.8573C8.12052 27.8519 7.91015 27.8594 7.70323 27.8377C7.38991 27.8046 7.20502 27.7559 7.10104 27.4597H7.10139ZM22.993 7.27022C22.993 7.03454 22.9975 6.832 22.9916 6.62981C22.9851 6.40157 22.9613 6.17401 22.9593 5.94578C22.9545 5.45583 22.9627 4.96589 22.9572 4.47595C22.9514 3.95388 22.9328 3.43215 22.9248 2.91042C22.9169 2.40188 22.9173 1.893 22.91 1.38446C22.9069 1.16806 22.8384 1.12445 22.6174 1.16333C22.5478 1.1755 22.4731 1.15792 22.4008 1.15555C22.23 1.1498 22.0593 1.13865 21.8888 1.14169C21.6754 1.14575 21.4571 1.19207 21.2515 1.15893C21.1562 1.14338 21.0808 1.1684 20.9971 1.16536C20.8707 1.16029 20.7454 1.13324 20.6191 1.13053C20.4517 1.12715 20.2782 1.16604 20.1177 1.13527C19.9508 1.10314 19.9401 1.19714 19.9387 1.29216C19.9356 1.47711 19.9566 1.6624 19.9618 1.84736C19.9731 2.2734 19.9848 2.6991 19.9886 3.12513C19.9907 3.34018 19.9666 3.55591 19.9721 3.77095C19.979 4.04247 20.0151 4.31331 20.0189 4.58448C20.0272 5.17756 20.0234 5.77063 20.0241 6.36404C20.0244 6.61188 20.0241 6.85973 20.0241 7.10758C20.177 7.01628 20.2889 6.91011 20.398 6.80124C20.5801 6.61899 20.7547 6.42828 20.9434 6.2528C21.1014 6.10605 21.2715 5.96911 21.5115 5.97621C21.757 5.98331 21.9043 6.15947 22.0558 6.30487C22.3709 6.60715 22.6652 6.93006 22.993 7.26988V7.27022Z" fill="currentColor"/>
</svg>
