<svg viewBox="0 0 31 31" fill="none" xmlns="http://www.w3.org/2000/svg">
<path d="M12.3373 28.5316C12.6854 28.5217 13.0191 28.5092 13.353 28.504C13.5685 28.5004 13.7839 28.5068 13.9996 28.5106C14.5721 28.5198 15.1448 28.5359 15.7175 28.5377C16.5141 28.5401 17.3108 28.532 18.1077 28.5283C18.7302 28.5257 19.3529 28.5162 19.9756 28.5222C20.6482 28.5285 21.3205 28.5534 21.9932 28.5619C22.1495 28.564 22.3065 28.5189 22.4627 28.52C22.9522 28.5238 23.441 28.5492 23.9303 28.5473C24.6062 28.5445 25.282 28.5131 25.958 28.515C26.47 28.5164 26.9816 28.5654 27.4935 28.5655C27.8553 28.5655 28.2175 28.5016 28.5793 28.5013C28.8465 28.501 29.1227 28.5255 29.379 28.596C29.6759 28.6778 29.8352 29.0773 29.7007 29.3045C29.6071 29.4623 29.4846 29.6092 29.4252 29.7786C29.3654 29.9484 29.2416 30.0335 29.1169 30.1322C29.0363 30.1958 28.9747 30.1984 28.8598 30.1702C28.7532 30.1438 28.5942 30.0749 28.4599 30.1738C28.4336 30.1931 28.3618 30.139 28.3147 30.1455C28.0575 30.1801 27.7958 30.0251 27.5348 30.1829C27.4645 30.2255 27.3272 30.1451 27.2205 30.1452C26.8518 30.1457 26.4827 30.1649 26.1138 30.1616C25.692 30.158 25.2709 30.1299 24.8491 30.128C24.6495 30.1273 24.45 30.1757 24.2501 30.1788C24.0441 30.1821 23.8382 30.1556 23.6318 30.1459C23.5328 30.1414 23.4335 30.1433 23.3343 30.147C23.0833 30.1559 22.8327 30.1743 22.582 30.1762C22.3295 30.1782 22.0713 30.1307 21.8256 30.1684C21.5543 30.2103 21.3036 30.1228 21.0434 30.1237C20.8846 30.1244 20.7263 30.1704 20.5668 30.1779C20.4551 30.1833 20.3423 30.1532 20.2293 30.1482C19.9383 30.1354 19.6471 30.1182 19.3561 30.1221C19.2269 30.1237 19.0975 30.1973 18.9695 30.1945C18.5918 30.1858 18.2146 30.1482 17.8368 30.136C17.6201 30.1293 17.4027 30.1579 17.1854 30.1576C16.9776 30.1575 16.7693 30.1284 16.5617 30.1335C16.3584 30.1384 16.1564 30.1762 15.9533 30.1889C15.8073 30.1978 15.6598 30.1959 15.5138 30.1871C15.293 30.1744 15.0727 30.1453 14.8516 30.1369C14.7713 30.134 14.689 30.1864 14.6083 30.1853C14.2398 30.1789 13.8712 30.1557 13.5028 30.152C13.3375 30.1506 13.1721 30.1947 13.0068 30.1942C12.8272 30.1937 12.6476 30.1483 12.4685 30.1521C11.8082 30.1666 11.146 30.2347 10.4897 30.1938C10.2563 30.1792 10.014 30.1857 9.77718 30.1579C9.57564 30.1343 9.36753 30.1696 9.16237 30.1711C9.06694 30.1717 8.9707 30.1437 8.87537 30.1477C8.47677 30.166 8.07906 30.2007 7.68019 30.2099C7.50591 30.214 7.33025 30.1702 7.15522 30.1479C7.10601 30.1416 7.04536 30.1139 7.00901 30.1327C6.76193 30.2615 6.50606 30.1582 6.25597 30.1667C6.03536 30.1738 5.78986 30.0693 5.59695 30.1353C5.33831 30.2239 5.07748 30.0836 4.83859 30.2109C4.69251 30.063 4.53127 30.205 4.37722 30.1887C4.20186 30.1703 4.02426 30.1646 3.84778 30.1679C3.27411 30.1782 2.70081 30.2014 2.12738 30.2052C1.93957 30.2067 1.74464 30.1863 1.56486 30.1349C1.41833 30.0928 1.28833 29.9915 1.15332 29.9124C0.786224 29.6969 0.803199 29.3335 0.801408 28.9814C0.799995 28.6578 0.807265 28.3344 0.811054 28.0107C0.815184 27.6532 0.820614 27.2957 0.823865 26.9379C0.827622 26.5217 0.830512 26.1055 0.832523 25.6889C0.835411 25.09 0.835264 24.4911 0.840752 23.8921C0.845206 23.3938 0.863977 22.8955 0.861062 22.3974C0.858224 21.9477 0.793251 21.4946 0.834379 21.0501C0.865518 20.7118 0.758048 20.3355 0.975069 20.0346C1.15452 19.7854 1.38353 19.5706 1.59711 19.3467C1.86038 19.0705 2.12989 18.7997 2.39718 18.5272C3.07213 17.8387 3.74796 17.1506 4.42245 16.4612C4.70573 16.1714 4.98678 15.8795 5.2674 15.5877C5.68326 15.155 6.10089 14.7231 6.51317 14.2866C7.06275 13.7049 7.60787 13.119 8.15566 12.5353C8.6365 12.0229 9.11246 11.5069 9.60133 11.0021C9.91992 10.6729 10.2653 10.3692 10.5834 10.0395C11.0605 9.54547 11.5214 9.03588 11.994 8.53763C12.304 8.21079 12.6233 7.89232 12.9378 7.56967C13.339 7.1577 13.7434 6.74824 14.1389 6.33038C14.3714 6.08482 14.5838 5.82038 14.8158 5.5744C15.0024 5.37681 15.2076 5.1964 15.3995 5.00341C15.6117 4.78954 15.8167 4.56939 16.0265 4.35299C16.4337 3.93351 16.844 3.51782 17.2488 3.09581C17.5261 2.80706 17.7908 2.50657 18.0694 2.21908C18.4137 1.86404 18.7332 1.47384 19.1239 1.17754C19.6968 0.743829 20.3532 0.440816 21.0913 0.400337C21.4985 0.377932 21.9018 0.417855 22.3081 0.516456C23.0035 0.685453 23.5918 1.05107 24.1504 1.456C24.632 1.80478 25.0559 2.23342 25.4977 2.63519C25.834 2.94102 26.1601 3.25794 26.4858 3.57444C27.036 4.10837 27.5789 4.64897 28.1312 5.18067C28.5376 5.57222 28.9731 5.93528 29.3604 6.34422C29.7344 6.73928 30.039 7.16786 30.1573 7.74131C30.2827 8.35128 30.2156 8.91835 30.0096 9.47123C29.8553 9.88523 29.6189 10.2687 29.294 10.59C28.8201 11.0576 28.3601 11.5386 27.8943 12.0146C27.5929 12.3231 27.2861 12.6265 26.9927 12.9425C26.7149 13.2416 26.4514 13.5542 26.1807 13.8601C26.0059 14.0577 25.8364 14.2618 25.6518 14.4502C25.4427 14.6636 25.2157 14.8602 25.0022 15.0697C24.8237 15.2451 24.6528 15.4288 24.4792 15.6092C24.0679 16.037 23.6513 16.4593 23.2481 16.8947C22.8197 17.3571 22.409 17.8359 21.9801 18.2984C21.7756 18.5189 21.5425 18.7131 21.3326 18.9286C21.137 19.1299 20.9593 19.3489 20.7651 19.5514C20.5384 19.7882 20.3015 20.0157 20.07 20.2479C19.9464 20.3719 19.8201 20.4939 19.7019 20.623C19.5614 20.777 19.4347 20.9435 19.2915 21.0945C19.0105 21.3902 18.7158 21.673 18.4389 21.9725C18.276 22.1487 18.1429 22.3513 17.985 22.532C17.9127 22.6145 17.8048 22.6655 17.7268 22.7442C17.3949 23.0782 17.0608 23.4109 16.7409 23.7561C16.4661 24.053 16.2184 24.3746 15.9431 24.6711C15.7272 24.9037 15.4792 25.106 15.261 25.3369C15.0395 25.5714 14.8398 25.8264 14.625 26.0676C14.5493 26.1522 14.4541 26.2193 14.3748 26.3011C14.0621 26.6237 13.7521 26.9488 13.4411 27.2731C13.0801 27.6493 12.719 28.0256 12.3597 28.4035C12.3437 28.4204 12.3491 28.4574 12.3369 28.5316L12.3373 28.5316ZM10.5186 27.9194C10.7095 27.7376 10.8979 27.5737 11.0689 27.3934C11.5621 26.8725 12.0477 26.3449 12.5368 25.8203C12.7924 25.546 13.0497 25.2729 13.3047 24.9982C13.6183 24.6605 13.9252 24.3169 14.2442 23.9846C14.6411 23.571 15.0527 23.1717 15.4478 22.7569C15.8812 22.3016 16.3004 21.8326 16.732 21.3752C17.1915 20.8886 17.6585 20.4082 18.1228 19.9262C18.3676 19.6716 18.6129 19.4179 18.8595 19.1655C18.9923 19.0295 19.1344 18.9018 19.2605 18.76C19.5014 18.4895 19.7249 18.2041 19.9716 17.9395C20.3244 17.5609 20.695 17.1982 21.0513 16.8225C21.2033 16.6622 21.3309 16.4788 21.4842 16.3198C21.6987 16.0976 21.9346 15.8952 22.1482 15.6722C22.4212 15.3866 22.6773 15.085 22.9476 14.7969C23.244 14.4808 23.5498 14.174 23.8444 13.8562C23.8701 13.8283 23.8643 13.7312 23.836 13.7005C23.7255 13.5822 23.5994 13.4786 23.48 13.3688C23.3739 13.2708 23.27 13.17 23.1635 13.0724C23.0031 12.9253 22.8381 12.7831 22.6798 12.6334C22.4377 12.4043 22.2011 12.1695 21.9607 11.9392C21.8051 11.7902 21.6494 11.6413 21.4883 11.4981C21.2639 11.2984 21.0345 11.104 20.8063 10.9066C20.429 11.2764 20.0913 11.6045 19.7567 11.9359C19.4361 12.2535 19.1021 12.5603 18.8059 12.8993C18.5105 13.2374 18.1458 13.5001 17.8544 13.842C17.5669 14.1794 17.2518 14.4952 16.9389 14.8109C16.6053 15.1474 16.2606 15.4736 15.9195 15.803C15.5817 16.1293 15.2386 16.4507 14.9048 16.7812C14.5774 17.1055 14.2576 17.437 13.9373 17.768C13.6018 18.1146 13.2753 18.4695 12.9345 18.8106C12.6215 19.1237 12.2826 19.4112 11.9772 19.731C11.6562 20.0668 11.3234 20.387 10.977 20.6971C10.6461 20.9934 10.3987 21.3846 10.0593 21.6682C9.70251 21.9662 9.45474 22.3604 9.06207 22.6325C8.70088 22.883 8.43509 23.2691 8.12146 23.59C7.79604 23.9233 7.4635 24.2504 7.11848 24.5964C8.26182 25.714 9.39 26.8173 10.5182 27.9202L10.5186 27.9194ZM5.93038 23.4913C6.03507 23.3742 6.09755 23.2986 6.16585 23.2288C6.74082 22.6399 7.31309 22.0476 7.89386 21.4642C8.54507 20.8105 9.20609 20.166 9.85953 19.5144C10.3552 19.0202 10.8433 18.5194 11.3395 18.0261C11.523 17.8437 11.7275 17.6823 11.9088 17.4983C12.1053 17.2987 12.2776 17.0751 12.4754 16.8764C12.9588 16.3912 13.4537 15.9169 13.9384 15.4326C14.3261 15.0452 14.7012 14.6452 15.0889 14.2578C15.5238 13.8233 15.9667 13.3972 16.4061 12.9673C16.8058 12.5765 17.2073 12.1874 17.6048 11.7941C17.963 11.4396 18.3181 11.0816 18.6723 10.7229C18.9468 10.445 19.2226 10.1671 19.4891 9.88166C19.5859 9.77779 19.5911 9.67049 19.4369 9.58977C19.3585 9.54879 19.2957 9.49139 19.2318 9.40896C19.0237 9.14052 18.7494 8.92236 18.4925 8.69334C18.3251 8.54385 18.1355 8.41877 17.9715 8.26617C17.7482 8.05823 17.5413 7.83253 17.3243 7.61749C17.2543 7.54819 17.1732 7.49045 17.0993 7.42428C16.8999 7.24634 16.6983 7.07061 16.5052 6.886C16.4004 6.78572 16.3108 6.66945 16.2014 6.54554C15.848 6.91639 15.5389 7.27432 15.1926 7.59226C14.9242 7.83885 14.7699 8.19711 14.4228 8.36341C14.4126 8.36846 14.4123 8.38964 14.4031 8.40027C14.2292 8.60139 14.0638 8.81004 13.8792 9.00066C13.3667 9.52987 12.8435 10.0486 12.3298 10.577C12.0238 10.8916 11.7262 11.2146 11.4278 11.5372C11.2839 11.6926 11.1547 11.8622 11.0067 12.0129C10.8119 12.2115 10.5998 12.3934 10.4036 12.5909C10.049 12.9479 9.69876 13.3096 9.35122 13.6738C9.21853 13.8129 9.10724 13.9724 8.97186 14.1085C8.70022 14.3807 8.41207 14.6365 8.14357 14.912C7.95261 15.1076 7.79378 15.3342 7.60238 15.5293C7.2002 15.94 6.77974 16.3331 6.37934 16.7455C5.98907 17.1476 5.61264 17.5636 5.23442 17.9775C5.19319 18.0228 5.1818 18.0948 5.15497 18.1583C4.96258 18.2272 4.81949 18.3821 4.68012 18.546C4.52857 18.7235 4.37034 18.8953 4.20901 19.0645C4.0304 19.2519 3.84644 19.4343 3.66383 19.618C3.50989 19.7727 3.37088 19.9491 3.19617 20.0755C2.87312 20.3093 2.85414 20.5108 3.15495 20.7753C3.36854 20.9632 3.57206 21.1626 3.77599 21.3616C3.93485 21.5165 4.08022 21.6852 4.24285 21.8353C4.52489 22.0956 4.82547 22.3367 5.09948 22.6046C5.37886 22.8783 5.6359 23.1748 5.92992 23.4904L5.93038 23.4913ZM24.977 12.6642C25.1384 12.5114 25.2802 12.3886 25.4087 12.2527C25.6487 11.9991 25.8768 11.7351 26.1168 11.4816C26.3969 11.1854 26.6845 10.8963 26.9682 10.6035C27.2872 10.2738 27.5937 9.93154 27.9266 9.61614C28.2387 9.32035 28.4841 9.01047 28.549 8.56142C28.6389 7.94099 28.4271 7.66229 27.9954 7.40239C27.9172 7.35536 27.8676 7.25955 27.8086 7.18303C27.7613 7.12216 27.7334 7.03827 27.674 6.99632C27.2498 6.69559 26.9154 6.29983 26.5434 5.94533C25.8018 5.23799 25.072 4.51821 24.3405 3.80064C24.0901 3.55501 23.8498 3.29959 23.6028 3.05084C23.5014 2.94873 23.405 2.83741 23.289 2.7543C23.0357 2.57357 22.7732 2.40649 22.5112 2.23897C22.4285 2.18602 22.339 2.11944 22.2472 2.10909C21.8167 2.06087 21.3888 1.97844 20.9532 2.114C20.5863 2.22815 20.2632 2.39809 19.996 2.67186C19.7628 2.9101 19.5337 3.15211 19.2961 3.38615C19.0223 3.65579 18.7337 3.91073 18.4665 4.18624C18.2347 4.4253 18.0404 4.70218 17.7978 4.92859C17.6284 5.0868 17.4267 5.20964 17.3187 5.4253C17.3039 5.4551 17.2868 5.5083 17.3007 5.52389C17.4153 5.65025 17.5288 5.78053 17.6591 5.89045C17.9418 6.12911 18.2464 6.34295 18.5194 6.59139C18.9536 6.98646 19.3711 7.40016 19.7931 7.80811C20.0157 8.02342 20.2291 8.2485 20.4546 8.4607C20.8144 8.79956 21.1826 9.12955 21.5436 9.46708C22.0054 9.89896 22.46 10.3384 22.9247 10.7676C23.176 10.9998 23.4509 11.2067 23.6988 11.4425C23.9753 11.7055 24.2282 11.9934 24.5013 12.2604C24.6508 12.4069 24.821 12.5326 24.9783 12.6651L24.977 12.6642ZM8.69244 28.5392C8.69839 28.5195 8.70432 28.4995 8.71027 28.4799C8.54825 28.3052 8.3921 28.1238 8.22205 27.9567C7.9346 27.6741 7.63874 27.4004 7.34583 27.124C7.15859 26.9475 6.96671 26.7758 6.78285 26.5961C6.50795 26.3274 6.24105 26.0503 5.96404 25.7838C5.85074 25.6747 5.66945 25.631 5.64359 25.4391C5.64034 25.4162 5.6124 25.395 5.59193 25.377C5.39836 25.2067 5.19677 25.0443 5.0112 24.8656C4.4835 24.3578 3.96043 23.8451 3.43864 23.3316C3.16323 23.0603 2.89541 22.781 2.61957 22.5098C2.58832 22.4791 2.52968 22.4765 2.48807 22.4625C2.4816 22.9968 2.47056 23.5074 2.4699 24.0172C2.46961 24.4027 2.4884 24.788 2.4881 25.1734C2.48726 25.9356 2.47906 26.698 2.47432 27.4603C2.47256 27.7792 2.46907 28.0982 2.47512 28.4169C2.47631 28.4588 2.52709 28.5355 2.55529 28.5356C3.19268 28.5386 3.83027 28.5334 4.46789 28.5291C4.89513 28.526 5.32224 28.5185 5.74953 28.5172C6.32344 28.5151 6.89747 28.5173 7.47184 28.5165C7.50915 28.5163 7.54608 28.5031 7.58299 28.5042C7.95291 28.5144 8.32246 28.5268 8.69198 28.5383L8.69244 28.5392Z" fill="currentColor"/>
</svg>
