<svg viewBox="0 0 166 232" fill="none" xmlns="http://www.w3.org/2000/svg">
<path d="M74.5315 108.923C74.7835 107.549 74.996 106.398 75.2011 105.247C75.2159 105.171 75.2208 105.057 75.1764 105.013C73.5999 103.358 74.6871 101.424 74.6006 99.6135C74.571 98.9837 74.4771 98.3513 74.4919 97.724C74.5586 94.6563 74.7168 91.5861 74.6995 88.5184C74.6945 87.4193 74.0694 86.3128 74.1114 85.2235C74.2004 82.8919 74.5685 80.5726 74.7613 78.2434C74.8428 77.2431 74.7983 76.2304 74.7687 75.2251C74.7316 73.9308 75.0306 72.6983 75.253 71.4362C75.4531 70.3 75.2332 69.0947 75.248 67.919C75.253 67.5287 75.4852 67.1409 75.4877 66.7507C75.4951 65.8417 75.4259 64.9303 75.3963 64.0214C75.3889 63.8262 75.3419 63.5669 75.4432 63.4459C76.4415 62.2628 76.0486 61.0204 75.6903 59.7483C75.6187 59.4915 75.8608 59.1605 75.8905 58.8591C75.9201 58.5603 75.8657 58.2515 75.841 57.844C75.9127 57.8242 76.145 57.7551 76.2067 57.7378C76.0955 55.8483 75.6656 54.0156 75.9819 52.3187C76.271 50.7626 76.14 49.2708 76.2117 47.7517C76.2685 46.534 76.4365 45.3238 76.4785 44.1061C76.5601 41.7942 76.5774 39.4774 76.6515 37.1655C76.6614 36.8642 76.9406 36.5702 76.9406 36.2714C76.9406 35.4044 76.8961 34.535 76.8072 33.673C76.7108 32.7616 76.3995 31.8526 76.4365 30.9535C76.528 28.7923 76.7973 26.641 76.9406 24.4798C77.0246 23.2152 76.9777 21.9431 77.032 20.676C77.0913 19.2978 77.2198 17.9245 77.2791 16.5463C77.2939 16.2153 77.1704 15.8744 77.0765 15.5484C76.4538 13.3847 76.5008 11.1963 76.7874 8.99065C76.9159 8.01255 76.8665 7.01222 77.0246 6.04152C77.2 4.95968 77.4817 3.89019 77.7832 2.83304C78.0797 1.79072 79.2015 1.26709 80.8002 1.20287C81.8157 1.16088 82.7967 0.997864 83.7579 0.486582C84.4645 0.111148 85.3961 0.150668 86.2535 0C86.7699 0.716288 86.76 0.696529 87.6792 0.291455C87.8349 0.222296 88.0968 0.427303 88.3167 0.474232C88.675 0.548331 89.1074 0.753338 89.3866 0.62737C90.4565 0.150668 91.5338 0.452003 92.6037 0.464353C93.7527 0.476702 94.8992 0.558211 96.0457 0.577971C97.5678 0.60267 99.1492 0.330975 100.6 0.659479C104.093 1.44987 107.624 2.2279 110.762 4.1026C110.832 4.14459 110.886 4.21869 110.958 4.2508C112.176 4.81642 113.419 5.33511 114.615 5.95013C116.295 6.81462 117.963 7.71122 119.589 8.67697C120.266 9.07957 120.777 9.75634 121.434 10.2034C123.332 11.4927 124.899 13.1105 126.433 14.8C128.18 16.7216 129.616 18.8384 130.836 21.1108C131.461 22.2741 131.998 23.4893 132.524 24.7021C133.107 26.0457 133.752 27.3795 134.147 28.78C134.602 30.3953 134.772 32.0873 135.138 33.7298C135.6 35.8021 135.101 37.8003 134.822 39.8256C134.706 40.6654 134.809 41.5324 134.698 42.3722C134.483 43.9875 133.996 45.4497 133.077 46.8971C131.943 48.6854 131.471 50.8787 130.473 52.7707C129.623 54.3836 128.301 55.7495 127.446 57.3624C127.014 58.1774 126.193 58.3133 125.669 58.9629C124.985 59.8076 125.422 60.0497 125.934 60.3559C127.592 61.3489 129.331 62.2134 130.952 63.2656C132.104 64.014 133.156 64.9353 134.177 65.8615C135.677 67.22 137.248 68.5389 138.54 70.0827C140.784 72.7601 142.687 75.6648 143.888 79.0066C144.849 81.6841 144.868 84.4875 145.222 87.239C145.382 88.4789 145.096 89.8572 144.698 91.0699C143.576 94.4859 142.225 97.7709 139.843 100.609C138.573 102.123 137.493 103.761 135.852 104.934C133.631 106.524 131.461 108.184 129.237 109.768C128.859 110.037 128.296 110.024 127.864 110.237C126.522 110.891 125.23 111.65 123.866 112.255C122.373 112.917 120.826 113.467 119.297 114.043C117.399 114.759 115.507 115.493 113.587 116.142C112.628 116.466 111.62 116.661 110.619 116.846C108.712 117.202 106.787 117.459 104.887 117.847C101.151 118.61 97.3924 118.788 93.5822 118.711C90.968 118.659 88.4378 118.254 85.8952 117.77C85.5295 117.701 85.0279 117.728 84.7437 117.931C83.4688 118.832 82.127 118.18 80.8224 118.175C80.0539 118.17 79.283 118.034 78.5146 117.965C77.8202 117.904 76.1375 116.278 75.972 115.525C75.8312 114.888 75.6112 114.265 75.5099 113.623C75.3913 112.872 75.2554 112.099 75.3246 111.353C75.416 110.383 75.0553 109.276 74.5216 108.925L74.5315 108.923ZM91.0075 70.0135C91.0075 71.782 91.0273 73.8815 91.0026 75.9809C90.9754 78.2212 90.8617 80.459 90.8667 82.6967C90.8691 84.732 91.0199 86.7672 91.0322 88.8025C91.0495 91.596 91.0273 94.3895 90.963 97.1806C90.9383 98.2229 90.7135 99.2603 90.6443 100.305C90.5825 101.271 90.5504 102.244 90.6171 103.207C90.6517 103.706 90.6023 104.403 91.5042 104.373C92.0651 104.356 92.6334 104.556 93.1992 104.551C95.2179 104.536 97.249 104.593 99.2554 104.4C101.18 104.215 103.147 104.299 105.023 103.649C107.185 102.901 109.47 102.647 111.63 101.757C113.303 101.068 115.052 100.587 116.616 99.611C118.966 98.1439 121.516 96.8941 123.288 94.7205C124.12 93.6979 125.781 93.2188 125.694 91.4947C125.689 91.3762 125.862 91.1588 125.981 91.1366C126.868 90.9785 127.021 90.3907 127.056 89.6028C127.073 89.2051 127.387 88.8173 127.584 88.4345C127.708 88.1949 127.982 87.9775 127.99 87.7429C128.059 85.9818 128.249 84.1861 127.51 82.5164C126.9 81.1382 126.171 79.8143 125.479 78.4756C125.442 78.4039 125.227 78.441 125.146 78.3694C123.878 77.2604 122.603 76.1538 121.363 75.0127C120.995 74.6743 120.792 74.1284 120.394 73.8469C119.712 73.3652 118.894 73.0762 118.217 72.5897C117.76 72.2612 117.525 71.4757 117.056 71.3349C114.652 70.6038 112.22 69.927 109.762 69.4059C108.2 69.0749 106.579 68.9983 104.978 68.8946C102.384 68.7266 99.7867 68.613 97.1897 68.5142C96.4905 68.4871 95.7541 68.4772 95.087 68.655C93.8244 68.9909 92.6012 69.4701 91.005 70.011L91.0075 70.0135ZM91.692 26.3347C91.7562 27.1918 91.8328 27.7154 91.8204 28.2366C91.8081 28.7108 91.6376 29.1826 91.6401 29.6568C91.6499 31.2154 91.7142 32.7739 91.7364 34.3324C91.7389 34.5745 91.6178 34.819 91.5709 35.0636C91.393 35.9923 91.0322 36.9358 91.0915 37.8497C91.1879 39.3316 90.7777 40.8111 91.514 42.3326C91.9415 43.2144 91.4745 44.5112 91.4671 45.6202C91.4473 48.2457 91.4597 50.8713 91.4597 53.4524C92.7223 53.5166 93.9948 53.6302 95.2698 53.6377C96.824 53.6475 98.3782 53.5463 99.9325 53.5364C100.753 53.5314 101.702 54.3194 102.3 53.0745C102.339 52.9905 102.776 53.0276 102.989 53.114C103.589 53.3536 104.187 53.9093 104.751 53.8674C105.961 53.7735 107.365 53.9958 108.185 52.6447C108.301 52.4521 108.754 52.3607 109.035 52.3854C110.782 52.5435 113.051 51.0812 113.757 49.5499C114.17 48.6557 114.812 47.7023 115.615 47.1935C116.48 46.6427 117.609 46.5489 116.851 45.1262C116.836 45.099 116.942 45.0126 116.987 44.9508C117.56 44.1258 118.126 43.2935 118.709 42.4759C119.06 41.9844 119.46 41.5299 119.808 41.0359C120.738 39.7194 118.464 38.03 120.335 36.7925C120.137 36.6962 119.969 36.6172 119.996 36.6295C120.125 35.8268 120.271 35.0981 120.34 34.3621C120.359 34.1645 120.154 33.7668 120.043 33.7619C118.553 33.715 119.186 32.8949 119.44 32.1984C119.519 31.981 119.67 31.6921 119.591 31.534C118.909 30.1829 118.193 28.8491 117.466 27.5228C117.256 27.1399 117.026 26.7472 116.725 26.436C115.796 25.4752 114.963 24.2723 113.824 23.7091C113.026 23.314 112.571 22.5557 111.642 22.2568C110.624 21.9283 109.95 20.6513 108.946 20.1252C107.155 19.1867 105.255 18.4358 103.352 17.7393C102.347 17.3712 101.067 17.5515 100.209 17.0106C98.5487 15.9634 96.6783 16.0523 94.9165 15.7065C93.8886 15.5039 92.4678 15.21 91.6079 16.5314C91.7908 16.5611 91.9588 16.5883 92.0428 16.6006C91.8872 16.9513 91.65 17.2798 91.6055 17.6355C91.519 18.2999 91.4795 18.9841 91.5338 19.6535C91.6327 20.8588 91.818 22.0592 91.9613 23.2621C92.0972 24.3983 92.2899 25.5443 91.6895 26.3372L91.692 26.3347Z" fill="#B8AE91"/>
<path d="M6.30778 176.817C5.78395 177.129 5.19834 177.768 4.21986 177.183C3.64661 176.84 2.98934 176.637 2.36667 176.375C1.42031 175.98 0.639504 175.531 0.59997 174.278C0.575261 173.51 0.0242468 172.759 0.00200858 171.991C-0.0251715 171.065 0.229333 170.126 0.41218 169.203C0.775404 167.348 1.19793 165.505 1.54139 163.648C1.64269 163.104 1.55621 162.524 1.55621 161.593C0.498662 160.676 1.41043 159.241 1.59328 157.947C1.7786 156.626 2.37656 155.366 2.76202 154.069C3.28585 152.311 3.49835 150.389 4.35823 148.818C5.48249 146.763 5.45779 144.493 6.19659 142.396C6.70807 140.946 7.40239 139.558 7.85951 138.096C8.33887 136.565 8.61067 134.969 9.0159 133.413C9.32971 132.21 9.5768 130.96 10.108 129.851C10.5454 128.937 10.6393 128.063 10.7011 127.095C10.7505 126.329 11.1557 125.588 11.3781 124.83C11.7685 123.506 12.149 122.179 12.5197 120.851C12.9471 119.317 12.8779 117.672 13.8169 116.234C14.2616 115.55 14.2369 114.562 14.442 113.717C15.0079 111.393 15.5268 109.054 16.1766 106.752C16.6362 105.127 17.3651 103.576 17.8148 101.948C18.1805 100.622 18.2275 99.2113 18.5685 97.875C18.991 96.2103 19.5815 94.59 20.0807 92.945C20.8244 90.4874 21.5731 88.0323 22.2798 85.5648C22.8481 83.5764 23.1149 81.4572 23.9674 79.6023C24.7087 77.9919 24.8149 76.2851 25.3536 74.6574C26.1294 72.3184 26.5371 69.8583 27.1821 67.4698C27.5502 66.1039 28.1086 64.7924 28.5089 63.4339C28.7313 62.6756 28.7758 61.868 28.9537 61.0949C29.2082 59.9957 29.6431 58.9188 29.7518 57.8073C29.8333 56.9873 30.204 56.4242 30.6315 55.819C30.7846 55.6017 31.012 55.1793 30.9378 55.1003C30.1694 54.2654 30.7328 53.6084 31.1998 52.981C32.1091 51.7609 32.2573 49.9232 34.0833 49.4366C34.7332 49.2638 35.388 49.0686 35.9958 48.7871C37.1052 48.2782 38.1109 48.6611 39.1685 48.9698C40.0679 49.2316 41.0216 49.3107 41.9408 49.5206C42.2942 49.6021 42.6179 49.8195 42.9564 49.9751C43.0601 49.8738 43.1664 49.7701 43.2702 49.6688C43.6853 50.7704 44.0856 51.8794 44.5254 52.9736C44.8194 53.7047 45.2345 54.3889 45.4742 55.1348C45.788 56.1055 46.3909 56.6959 47.2805 57.1775C47.6659 57.385 47.8068 58.0667 48.0316 58.5459C48.3504 59.2226 48.7111 59.8895 48.9236 60.6009C49.0299 60.9565 48.8248 61.3987 48.7927 61.8037C48.7803 61.9816 48.7852 62.2582 48.8915 62.3323C50.7126 63.5945 50.7076 65.815 51.5724 67.5612C52.8203 70.0806 53.7098 72.7778 54.7154 75.4132C55.4147 77.2459 56.3438 79.0539 56.6452 80.9583C57.0035 83.2356 58.8023 85.0263 58.5824 87.4345C58.5651 87.6148 58.659 87.8766 58.7924 87.9853C60.3145 89.2425 60.5863 90.9962 60.9644 92.8017C61.2658 94.2467 62.0664 95.5829 62.6199 96.9784C63.1783 98.3863 63.6997 99.809 64.2458 101.224C64.7301 102.479 65.2317 103.731 65.7184 104.986C65.884 105.411 66.0149 105.846 66.178 106.273C66.7463 107.765 67.3171 109.257 67.8953 110.746C68.6934 112.796 69.4841 114.851 70.3119 116.889C70.9741 118.521 71.7376 120.112 72.3652 121.757C72.8396 123.004 73.1287 124.323 73.5759 125.581C74.4407 128.016 75.3673 130.429 76.2569 132.855C77.013 134.922 77.6875 137.024 78.5252 139.059C79.0539 140.341 79.9188 141.485 79.941 142.952C79.941 143.048 80.067 143.157 80.1535 143.238C81.557 144.577 81.3247 146.573 82.1376 148.173C82.9852 149.843 83.4571 151.708 84.0625 153.499C84.2453 154.039 84.5814 154.734 84.3886 155.146C84.065 155.85 84.5666 156.186 84.7247 156.66C84.9075 157.208 85.9527 157.483 85.2362 158.352C85.1917 158.404 85.7131 158.92 85.8959 159.133C85.7872 159.407 85.5104 159.748 85.5796 159.985C85.844 160.859 86.2567 161.689 86.5458 162.558C86.7237 163.089 86.6471 163.737 86.9114 164.201C87.6329 165.461 87.1783 166.836 86.9955 167.982C86.7681 169.4 87.1363 170.539 87.3439 171.826C87.4798 172.665 87.2969 173.73 86.1702 174.38C85.0533 175.024 84.2947 176.296 83.1754 176.929C81.9573 177.615 80.492 178.26 79.1528 178.228C77.8506 178.196 76.9537 176.85 76.1926 175.721C75.8887 175.271 75.5601 174.837 75.2166 174.417C73.9935 172.93 73.5191 171.092 72.7655 169.378C72.3899 168.526 71.8364 167.708 71.1989 167.029C70.4305 166.209 69.9387 165.362 69.8078 164.223C69.7435 163.66 69.237 163.161 69.0344 162.595C68.1078 160.007 67.2455 157.396 66.2991 154.815C65.8519 153.595 65.2193 152.444 64.7498 151.229C64.3841 150.283 64.1494 149.287 63.8455 148.317C63.6651 147.736 63.4699 147.161 63.2722 146.585C62.8003 145.204 62.19 143.853 61.8934 142.438C61.634 141.193 60.359 140.171 59.1063 140.519C58.7702 140.613 58.4045 140.593 58.0536 140.628C56.8207 140.746 55.5481 140.218 54.3399 141.01C54.0261 141.215 53.3836 140.912 52.8894 140.855C52.3705 140.796 51.8467 140.699 51.3278 140.712C49.9738 140.744 48.6172 140.798 47.2656 140.899C45.6052 141.023 43.9497 141.223 42.2892 141.351C41.7654 141.393 41.2292 141.272 40.7029 141.299C38.232 141.43 35.7635 141.621 33.2926 141.719C31.8447 141.779 30.3893 141.682 28.9364 141.697C27.1944 141.717 25.4425 141.697 23.7104 141.865C22.942 141.942 21.9363 142.189 22.2773 143.471C22.3292 143.666 22.171 143.932 22.0722 144.147C21.8819 144.567 21.4397 145.012 21.5014 145.38C21.8548 147.499 20.4439 149.09 19.9695 150.95C19.836 151.473 20.0436 152.093 19.8879 152.604C19.0972 155.186 18.2176 157.742 17.4096 160.318C17.0933 161.326 17.1971 162.692 16.5497 163.317C15.4452 164.381 16.3718 166.182 14.7632 167.041C14.148 167.37 14.0837 168.731 13.7699 169.622C13.1226 171.472 12.4925 173.332 11.8204 175.172C11.5066 176.034 9.66575 177.178 8.78611 177.151C8.37346 177.139 7.95588 177.218 7.54818 177.173C7.19237 177.134 6.85138 176.98 6.31025 176.82L6.30778 176.817ZM53.0006 122.224C53.5269 122.409 53.9025 122.54 54.2781 122.673C54.3325 122.335 54.5524 121.89 54.414 121.671C53.1859 119.702 52.7684 117.445 52.0394 115.298C51.1104 112.559 50.1764 109.817 49.2078 107.09C48.6444 105.505 48.0168 103.941 47.3991 102.375C46.9667 101.279 46.4947 100.197 46.0499 99.1051C45.6843 98.2085 45.3161 97.3119 44.98 96.4029C44.8268 95.9929 44.77 95.5508 44.6292 95.1383C44.004 93.2957 43.3567 91.4606 42.729 89.618C42.4202 88.709 42.1805 87.7729 41.8247 86.8837C41.2218 85.3845 40.4682 83.9494 40.3817 82.2772C40.357 81.8129 40.0333 81.3337 39.7392 80.941C39.6799 80.862 39.1363 81.146 39.0449 81.1806C38.9906 81.8697 39.0202 82.3242 38.909 82.7416C38.4667 84.3891 37.9503 86.0168 37.5154 87.6642C37.0929 89.2623 36.7717 90.8875 36.3467 92.4831C35.8154 94.4813 35.2545 96.4746 34.6516 98.4505C34.0932 100.281 33.2556 102.057 32.9541 103.924C32.8231 104.732 31.7582 105.228 32.3117 106.273C32.4624 106.557 31.8175 107.258 31.5828 107.688C30.7674 113.285 28.8475 118.568 27.5725 124.138C29.8531 123.945 32.198 123.748 34.5108 123.553C34.5083 123.543 34.4391 123.321 34.3304 122.97C35.5066 123.765 52.3582 122.903 53.0031 122.224H53.0006Z" fill="#B8AE91"/>
<path d="M137.594 210.406C137.96 210.094 138.323 209.778 138.694 209.47C140.409 208.052 142.168 206.681 143.826 205.199C144.758 204.367 145.368 202.843 146.398 202.524C148.162 201.978 148.622 200.516 149.568 199.382C150.589 198.155 151.562 196.89 152.548 195.633C153.49 194.435 154.397 193.207 155.373 192.039C155.558 191.817 156 191.765 156.334 191.72C156.833 191.656 157.258 191.918 157.841 191.449C158.367 191.026 159.247 191.449 159.427 192.195C159.904 192.247 160.403 192.158 160.707 192.363C161.918 193.175 163.136 194.005 164.216 194.981C164.755 195.467 165.664 195.759 165.543 196.86C165.449 197.72 165.785 198.629 165.684 199.486C165.619 200.047 165.639 200.721 164.774 201.126C164.134 201.425 163.714 202.425 163.425 203.198C162.61 205.387 161.935 207.625 161.15 209.825C161.004 210.235 160.596 210.551 160.322 210.922C159.086 212.574 157.848 214.222 156.628 215.884C155.736 217.102 154.994 218.458 153.962 219.535C152.615 220.935 151.105 222.205 149.551 223.378C147.92 224.608 146.166 225.677 144.441 226.774C142.949 227.723 141.434 228.577 139.638 228.945C137.982 229.284 136.421 230.215 134.765 230.385C132.502 230.62 130.275 231.435 127.889 230.714C126.404 230.264 124.736 230.437 123.157 230.257C122.579 230.19 122.023 229.928 121.464 229.728C120.394 229.345 119.307 229 118.272 228.535C115.929 227.481 113.545 226.562 111.702 224.566C110.651 223.43 109.557 222.101 108.257 221.402C106.649 220.537 105.92 219.075 104.803 217.892C104.274 217.331 104.121 216.366 103.54 215.909C102.137 214.8 101.64 213.091 100.622 211.739C99.4039 210.117 98.9566 207.928 98.0597 206.041C97.5779 205.026 96.9923 204.164 97.3777 202.904C97.4939 202.524 96.629 201.867 96.2609 201.309C95.3985 199.995 95.6629 198.424 95.317 196.991C95.0971 196.075 94.8376 195.169 94.5906 194.26C94.5041 193.946 94.3533 193.647 94.3064 193.331C93.9802 191.046 93.5404 188.766 93.3946 186.469C93.2513 184.214 93.4539 181.942 93.4342 179.677C93.4144 177.647 93.2439 175.616 93.2587 173.586C93.2637 172.857 93.6516 172.139 93.7999 171.4C94.215 169.34 94.5634 167.265 95.0007 165.21C95.2651 163.963 95.6357 162.735 95.9792 161.505C96.4981 159.643 96.9774 157.766 97.5828 155.931C97.9535 154.814 98.5317 153.765 99.0135 152.685C99.3742 151.878 99.6707 151.035 100.096 150.26C101.304 148.049 102.631 145.903 103.77 143.66C104.417 142.385 105.166 141.272 106.154 140.217C107.971 138.278 109.557 136.124 111.272 134.086C111.553 133.75 112.013 133.568 112.369 133.289C115.368 130.932 118.301 128.485 121.993 127.215C123.787 126.597 125.509 125.703 127.345 125.281C129.267 124.839 131.331 125.004 133.248 124.547C135.136 124.098 136.87 124.654 138.667 124.792C139.91 124.888 141.165 125.012 142.378 125.286C143.954 125.642 145.494 126.163 147.048 126.61C147.476 126.733 147.947 126.778 148.323 126.993C149.302 127.546 150.236 128.176 151.189 128.769C151.313 128.845 151.471 128.862 151.597 128.937C152.316 129.359 153.109 129.7 153.729 130.236C154.612 130.996 155.382 131.891 156.168 132.76C156.331 132.94 156.346 133.256 156.438 133.541C157.725 132.977 157.725 134.442 158.343 134.951C158.948 135.447 159.412 136.164 159.798 136.86C160.174 137.539 160.371 138.317 160.658 139.086C160.883 138.932 161.036 138.829 161.369 138.601C161.256 138.893 161.15 139.024 161.177 139.115C161.352 139.708 161.495 140.321 161.767 140.869C162.291 141.929 162.18 142.148 161.384 143.077C160.885 143.66 160.692 144.507 160.369 145.238C160.337 145.312 160.344 145.463 160.314 145.468C158.861 145.71 158.449 147.688 156.783 147.582C156.603 147.57 156.388 147.684 156.232 147.8C154.814 148.867 154.508 148.778 153.008 147.926C150.413 146.451 148.452 144.159 145.961 142.598C143.959 141.346 142.044 139.985 139.591 139.392C137.211 138.819 135.133 139.207 132.951 139.849C132.512 139.98 131.966 139.807 131.558 139.982C130.799 140.306 130.117 140.8 129.381 141.178C129.211 141.267 128.882 141.259 128.736 141.15C127.953 140.568 127.32 141.202 127.145 141.644C126.633 142.946 125.593 143.549 124.491 144.154C124.286 144.268 124.039 144.433 123.96 144.633C123.315 146.271 121.415 146.913 120.829 148.63C120.708 148.983 119.87 149.035 119.567 149.398C118.969 150.111 118.635 151.07 117.978 151.702C116.335 153.278 116.041 155.531 115.087 157.428C114.573 158.448 113.562 159.369 113.678 160.92C113.765 162.101 112.589 163.328 112.183 164.6C111.558 166.566 111.012 168.572 110.617 170.595C110.241 172.519 110.012 174.485 109.888 176.441C109.759 178.477 110.165 180.603 109.717 182.547C109.339 184.192 110.459 185.669 109.755 187.228C109.641 187.482 109.903 187.894 109.962 188.24C110.328 190.352 110.113 192.602 111.44 194.487C110.822 196.28 112.334 197.517 112.732 199.046C113.137 200.602 114.316 201.958 115.178 203.391C115.939 204.656 116.693 205.93 117.531 207.145C117.778 207.506 118.343 207.627 118.677 207.948C119.399 208.642 119.987 209.502 120.777 210.09C121.459 210.596 122.361 210.801 123.144 211.181C124.956 212.063 126.804 212.399 128.87 212.416C131.106 212.434 133.102 211.796 135.175 211.268C136.013 211.055 136.851 210.833 137.688 210.616C137.659 210.546 137.629 210.48 137.599 210.411L137.594 210.406Z" fill="#B8AE91"/>
</svg>
