<svg viewBox="0 0 23 19" fill="none" xmlns="http://www.w3.org/2000/svg">
<path d="M21.4947 5.2272L21.5379 5.27035C22.037 5.79399 22.028 6.63608 21.4947 7.16924L21.4947 7.16926C20.9497 7.71425 20.0983 7.71444 19.5531 7.16984C17.3475 4.94107 14.3908 3.72125 11.2487 3.72125C8.10664 3.72125 5.14979 4.94103 2.94438 7.1699C2.67045 7.44359 2.32113 7.57839 1.97375 7.57839C1.62617 7.57839 1.27664 7.44343 1.00264 7.16942C0.457454 6.62424 0.457454 5.77239 1.00264 5.2272C3.73373 2.49611 7.36638 0.984375 11.2487 0.984375C15.131 0.984375 18.7637 2.49619 21.4947 5.2272Z" fill="currentColor" stroke="currentColor" stroke-width="0.5"/>
<path d="M15.2517 11.4849L15.2517 11.4848L15.2485 11.4816C13.061 9.2941 9.48203 9.29549 7.27298 11.5045L7.44976 11.6813L7.27298 11.5045C6.99897 11.7785 6.64946 11.9135 6.30187 11.9135C5.95429 11.9135 5.60477 11.7785 5.33076 11.5045C4.78558 10.9593 4.78558 10.1075 5.33076 9.56232L5.1689 9.40045L5.33076 9.56232C8.60794 6.28511 13.9139 6.28504 17.1911 9.53979C17.7359 10.085 17.7358 10.9366 17.1907 11.4816C16.6437 12.0286 15.7715 12.0239 15.2517 11.4849Z" fill="currentColor" stroke="currentColor" stroke-width="0.5"/>
<path d="M13.5429 15.4864C13.5429 16.743 12.5242 17.7616 11.2675 17.7616C10.0108 17.7616 8.99219 16.743 8.99219 15.4864C8.99219 14.2296 10.0109 13.2109 11.2675 13.2109C12.5242 13.2109 13.5429 14.2296 13.5429 15.4864Z" fill="currentColor" stroke="currentColor" stroke-width="0.5"/>
</svg>
