<svg viewBox="0 0 32 32" fill="none" xmlns="http://www.w3.org/2000/svg">
    <path d="M13.5509 29.8564C13.5509 29.8564 13.5662 29.9012 13.5815 29.9466C13.5698 29.9347 13.5582 29.9229 13.5465 29.911C13.4238 30.0572 13.3017 30.204 13.1773 30.3488C13.1531 30.377 13.1205 30.3973 13.0912 30.4211C13.0486 30.4553 12.9788 30.4821 12.9675 30.5249C12.8936 30.803 12.5494 30.6575 12.4456 30.8799C12.2807 30.8094 12.1313 31.0115 11.951 30.8993C11.8825 30.8565 11.7611 30.901 11.664 30.9088C11.6058 30.9135 11.5479 30.9247 11.4927 30.8928C11.4089 30.8823 11.3241 30.8755 11.2409 30.8606C11.0999 30.8355 10.9602 30.8036 10.8195 30.7785C10.752 30.7663 10.6832 30.7582 10.6146 30.7572C10.3998 30.7541 10.1846 30.7507 9.97006 30.7572C9.89855 30.7592 9.82771 30.7891 9.7572 30.8084C9.73159 30.8155 9.70564 30.8409 9.68336 30.8369C9.55764 30.8131 9.43391 30.7694 9.30752 30.7592C9.16383 30.7473 9.01816 30.7636 8.87347 30.767C8.74476 30.7701 8.61238 30.7534 8.48832 30.7792C8.20062 30.8386 7.91059 30.7212 7.63353 30.7874C7.44029 30.8335 7.26268 30.747 7.07775 30.8043C7.1313 30.808 7.18485 30.8114 7.2384 30.8152C7.2374 30.8314 7.23607 30.8477 7.23507 30.864C7.11168 30.8454 6.98729 30.8311 6.86456 30.807C6.70025 30.7748 6.55191 30.7636 6.38627 30.8518C6.29481 30.9006 6.14414 30.8314 6.01975 30.8199C5.92728 30.8114 5.83382 30.8148 5.74169 30.805C5.61763 30.7918 5.4939 30.7711 5.37051 30.7528C5.34889 30.7497 5.32594 30.7368 5.30598 30.7406C5.16795 30.7673 5.0695 30.7168 5.01263 30.5747C4.96673 30.5974 4.93081 30.6154 4.93014 30.6157C4.79677 30.5344 4.68701 30.4604 4.5706 30.3997C4.50042 30.3631 4.49011 30.3292 4.49875 30.2474C4.50807 30.1579 4.46649 30.0629 4.44388 29.9558C4.40097 29.9839 4.37669 29.9995 4.35008 30.0172C4.4339 29.7709 4.42891 29.7618 4.23766 29.7652C4.26693 29.715 4.29919 29.659 4.33378 29.599C4.17314 29.5661 4.11626 29.4844 4.12192 29.3039C4.12657 29.1527 4.04342 28.9973 3.99519 28.8454C3.97557 28.7837 3.94198 28.727 3.92102 28.6657C3.90373 28.6158 3.87014 28.5314 3.88776 28.5164C4.02746 28.3977 3.94896 28.2505 3.95029 28.1162C3.95362 27.7917 3.95096 27.4668 3.95262 27.1422C3.95395 26.8912 3.96027 26.6403 3.95828 26.3893C3.95828 26.3625 3.9157 26.3361 3.9024 26.3208C3.92003 26.2723 3.95229 26.2248 3.95229 26.177C3.95295 26.002 3.94165 25.8267 3.93765 25.6517C3.93366 25.4777 3.88544 25.3088 3.93333 25.1277C3.96825 24.9954 3.93998 24.8462 3.93998 24.6668C3.91371 24.7163 3.90373 24.7353 3.89342 24.7546C3.8861 24.7526 3.87912 24.7506 3.8718 24.7482C3.88976 24.6976 3.90772 24.6471 3.92435 24.5996C3.9034 24.5996 3.88178 24.5996 3.8871 24.5996C3.8871 24.5264 3.87579 24.4579 3.88909 24.3948C3.92801 24.213 3.92468 24.0339 3.91471 23.8484C3.9014 23.6025 3.93433 23.3546 3.933 23.1074C3.93267 23.029 3.88743 22.9507 3.86049 22.8652C3.97225 22.7499 3.97225 22.1615 3.84918 22.0733C3.93034 21.9753 3.933 21.7847 3.88643 21.7647C3.88976 21.6891 3.89874 21.6318 3.89375 21.5758C3.88244 21.4459 3.86348 21.317 3.84918 21.1875C3.84685 21.1654 3.84586 21.1403 3.85351 21.1203C3.95129 20.8616 3.96593 20.6042 3.84453 20.3481C3.95961 20.2823 3.79397 20.2253 3.84053 20.1443C3.88377 20.0683 3.89242 19.9638 3.89242 19.8716C3.89242 19.7448 3.86215 19.6179 3.86149 19.4911C3.86116 19.4249 3.89641 19.3588 3.91803 19.2835C3.92768 19.2862 3.90107 19.2788 3.88311 19.2737C3.88311 19.1523 3.88045 19.0336 3.88377 18.9152C3.88876 18.7314 3.9004 18.5476 3.9034 18.3634C3.90406 18.3298 3.87779 18.2959 3.86415 18.262C3.83654 18.1932 3.8096 18.124 3.78233 18.0551C3.79597 18.0504 3.80994 18.0456 3.82357 18.0409C3.83721 18.0582 3.85051 18.0751 3.86914 18.0989C3.88144 18.0731 3.89242 18.0602 3.88943 18.0545C3.86382 17.9992 3.86149 17.9534 3.86847 17.8845C3.89009 17.6733 3.86082 17.4569 3.85883 17.2425C3.8575 17.0784 3.86714 16.9139 3.87313 16.7494C3.87978 16.5656 3.89575 16.3814 3.89009 16.1983C3.8881 16.1291 3.83688 16.0613 3.84353 16.0087C3.86182 15.9534 3.89309 15.8988 3.89508 15.8429C3.89941 15.735 3.89375 15.6255 3.87912 15.5187C3.8708 15.459 3.83621 15.403 3.80428 15.3219C3.80561 15.3192 3.82091 15.2836 3.85151 15.2138C3.78 15.2202 3.71348 15.2056 3.67822 15.2331C3.52223 15.3535 3.35394 15.4512 3.27943 15.6682C3.23354 15.8022 3.08985 15.9012 2.99074 16.0162C2.96246 16.0491 2.93652 16.0837 2.88197 16.1515C2.86534 16.1681 2.82078 16.2197 2.76922 16.2624C2.63984 16.3696 2.50813 16.4734 2.37609 16.5771C2.1436 16.7603 1.88051 16.8535 1.58715 16.823C1.51066 16.8149 1.44014 16.7484 1.35932 16.7046C1.20699 16.7972 1.17074 16.7786 1.03803 16.6243C0.99745 16.5771 0.892348 16.5883 0.792567 16.5676C0.695114 16.4615 0.566065 16.3336 0.45165 16.1929C0.33025 16.0437 0.289672 15.8341 0.1104 15.7232C0.0837914 15.7065 0.0119493 15.6082 0.134014 15.5756C0.13601 15.5753 0.129025 15.4953 0.109402 15.463C0.0146101 15.305 -0.0216435 15.1476 0.00829068 14.9543C0.0275816 14.8302 0.108404 14.7037 0.0438791 14.5602C0.0279142 14.5246 0.0924391 14.4327 0.140001 14.3893C0.269716 14.2703 0.410407 14.1638 0.545443 14.0508C0.570721 14.0298 0.602984 14.002 0.607307 13.9735C0.623938 13.8667 0.705425 13.8585 0.780593 13.8165C0.898335 13.7507 0.992128 13.6411 1.09756 13.5526C1.16176 13.4987 1.23692 13.4566 1.29347 13.3963C1.42651 13.2545 1.54358 13.0961 1.68161 12.9601C1.91976 12.7258 2.16688 12.5006 2.41434 12.2764C2.56667 12.1384 2.7333 12.017 2.88164 11.8749C3.03896 11.7239 3.17433 11.5489 3.33298 11.3997C3.56447 11.1813 3.81093 10.9795 4.04575 10.7645C4.1595 10.6604 4.25928 10.5403 4.36871 10.4304C4.53767 10.2609 4.70829 10.093 4.88058 9.92681C5.03358 9.77894 5.1899 9.63413 5.3449 9.48829C5.5561 9.28955 5.76896 9.09251 5.9785 8.89208C6.2519 8.63025 6.52131 8.36403 6.79571 8.10322C7.03086 7.87972 7.26767 7.65758 7.5098 7.44155C7.64085 7.32488 7.78819 7.22721 7.92024 7.11156C8.00139 7.04068 8.06392 6.94877 8.14142 6.87314C8.47867 6.54586 8.81527 6.21791 9.15818 5.89708C9.32082 5.7448 9.50043 5.61151 9.66607 5.46229C9.71463 5.41854 9.73192 5.33884 9.77948 5.29306C9.99368 5.08787 10.2132 4.88778 10.432 4.68768C10.5884 4.54456 10.7517 4.40924 10.9027 4.26103C11.0617 4.10537 11.206 3.93444 11.3643 3.77775C11.4827 3.66074 11.6131 3.55663 11.7372 3.44573C11.818 3.37383 11.8958 3.29786 11.978 3.22765C12.1629 3.06927 12.3508 2.91496 12.5344 2.75522C12.5717 2.72301 12.5913 2.67078 12.6266 2.63517C12.868 2.39166 13.1092 2.14781 13.355 1.90838C13.5153 1.75237 13.6842 1.60552 13.8462 1.45155C14.0178 1.28842 14.1835 1.11884 14.3564 0.957071C14.5274 0.797333 14.7446 0.670831 14.867 0.480231C14.9897 0.289292 15.1899 0.259447 15.3423 0.143798C15.4484 0.0630812 15.6346 -0.000678292 15.8089 0.0807168C15.8501 0.100048 15.9266 0.0410367 15.9842 0C16.0364 0.0518894 16.0976 0.137015 16.1641 0.0328972C16.2842 0.0854649 16.4072 0.191278 16.5097 0.173643C16.7262 0.136337 16.8586 0.275048 17.0252 0.345251C17.1157 0.383235 17.2251 0.383914 17.3066 0.434107C17.6026 0.61589 17.9033 0.790211 18.0846 1.11783C18.1398 1.21754 18.2805 1.26468 18.3716 1.34777C18.5356 1.49767 18.6696 1.69777 18.8562 1.80324C19.2094 2.00334 19.3631 2.4171 19.7333 2.59379C19.8487 2.64873 19.9322 2.77489 20.029 2.86986C20.2082 3.04553 20.3838 3.2246 20.5658 3.39723C20.8362 3.65362 21.1092 3.90696 21.3836 4.15861C21.5699 4.3292 21.7655 4.48962 21.9487 4.6636C22.1267 4.83216 22.2926 5.01394 22.4673 5.18589C22.5358 5.25338 22.6173 5.30662 22.6871 5.37242C22.8657 5.54131 23.0387 5.71631 23.2183 5.88351C23.353 6.00899 23.4977 6.12329 23.633 6.24809C23.8948 6.48889 24.1476 6.74087 24.416 6.9742C24.564 7.10308 24.6681 7.2869 24.866 7.3571C24.8909 7.36592 24.9026 7.40865 24.9252 7.43002C25.1929 7.6837 25.4663 7.93161 25.7284 8.19106C25.8658 8.32706 25.9942 8.4756 26.1079 8.63263C26.2011 8.76083 26.3135 8.86121 26.4246 8.97008C26.5629 9.10574 26.6534 9.29023 26.7781 9.44217C26.8972 9.58733 27.0412 9.71179 27.1609 9.85627C27.4167 10.1652 27.6599 10.4854 27.9173 10.7927C28.0141 10.9083 28.1498 10.99 28.2459 11.106C28.4681 11.3739 28.668 11.6609 28.8935 11.9254C29.0927 12.1591 29.3272 12.3622 29.5198 12.601C29.6082 12.7105 29.7469 12.7936 29.7679 12.955C29.7772 13.0256 29.853 12.9869 29.8976 13.0503C30.0839 13.3152 30.3107 13.5509 30.5262 13.7938C30.7145 14.0061 30.9094 14.2119 31.098 14.4236C31.2915 14.6413 31.4811 14.8631 31.6724 15.0832C31.6757 15.0873 31.677 15.0978 31.679 15.0978C31.9238 15.0978 31.8706 15.3206 31.9391 15.4613C31.84 15.4983 31.8493 15.5451 31.9078 15.6279C32.0316 15.8029 32.0239 16.0416 31.8985 16.1484C31.9221 16.1688 31.9438 16.1875 31.9434 16.1875C31.9398 16.2661 31.9541 16.3384 31.9288 16.3909C31.8999 16.4516 31.8314 16.4913 31.7884 16.5469C31.7642 16.5781 31.7356 16.6297 31.7452 16.6606C31.7874 16.7962 31.7272 16.8678 31.6258 16.9448C31.5656 16.9902 31.4382 17.0343 31.5224 17.17C31.368 17.1757 31.2273 17.1937 31.1256 17.3392C31.093 17.3857 30.9935 17.3887 30.9233 17.4023C30.767 17.4325 30.6064 17.446 30.4537 17.4888C30.3928 17.5057 30.3483 17.5824 30.2821 17.6451C30.2488 17.6125 30.2102 17.5749 30.1713 17.5369C30.1806 17.5145 30.19 17.4921 30.1989 17.4698C30.1168 17.4816 30.035 17.4938 29.9528 17.505C29.9309 17.5081 29.9039 17.5162 29.8873 17.5071C29.6914 17.3965 29.4981 17.2815 29.3022 17.1706C29.1472 17.0831 28.9846 17.0082 28.8359 16.9112C28.7661 16.8657 28.7265 16.7745 28.663 16.7155C28.6204 16.6758 28.5595 16.6558 28.507 16.6273C28.4877 16.6704 28.4531 16.7128 28.4511 16.7565C28.4285 17.2266 28.4089 17.6967 28.3932 18.167C28.3886 18.3051 28.4032 18.4441 28.4006 18.5825C28.3986 18.6975 28.3836 18.8121 28.3756 18.9271C28.3596 19.1546 28.348 19.3825 28.3284 19.6101C28.3074 19.8509 28.2675 20.0907 28.2562 20.3318C28.2436 20.5991 28.2562 20.8677 28.2529 21.1356C28.2515 21.2387 28.2323 21.3415 28.2279 21.4449C28.22 21.6474 28.2249 21.8509 28.2096 22.0526C28.1687 22.6007 28.1175 23.1477 28.0763 23.6958C28.0663 23.8274 28.0856 23.961 28.0776 24.0929C28.0663 24.2808 28.0337 24.4677 28.0254 24.6556C28.0137 24.9103 28.0234 25.166 28.0111 25.4207C27.9988 25.6808 27.9678 25.9396 27.9505 26.1994C27.9396 26.3683 27.9419 26.5379 27.9329 26.7067C27.9179 26.9835 27.9678 27.2633 27.8797 27.538C27.8531 27.6211 27.888 27.7238 27.8874 27.8171C27.8857 28.0616 27.8887 28.3065 27.8724 28.5504C27.8631 28.6874 27.8005 28.8217 27.7972 28.9577C27.7946 29.0692 27.7423 29.1323 27.6858 29.2113C27.6292 29.2904 27.599 29.3887 27.5564 29.4786C27.5248 29.5457 27.4659 29.6126 27.4663 29.6797C27.4663 29.7987 27.4716 29.9381 27.5311 30.0314C27.5963 30.1335 27.5827 30.1894 27.5138 30.2583C27.3974 30.3753 27.278 30.4892 27.1799 30.5849C27.0625 30.5951 26.9491 30.6046 26.836 30.6144C26.8373 30.6212 26.8383 30.6276 26.8397 30.6344C26.7944 30.6344 26.7492 30.631 26.7043 30.6351C26.55 30.6493 26.3956 30.6619 26.2423 30.6832C26.0823 30.7056 25.9247 30.7497 25.7644 30.7609C25.6819 30.7667 25.5957 30.7219 25.5229 30.6642C25.4826 30.6802 25.4434 30.7022 25.4018 30.7107C25.3549 30.7205 25.3044 30.7121 25.2575 30.7226C25.1763 30.7406 25.1088 30.768 25.015 30.7216C24.9422 30.6856 24.8314 30.7334 24.7373 30.7375C24.4343 30.7504 24.1313 30.7585 23.8286 30.7721C23.5855 30.7829 23.3427 30.803 23.0995 30.8121C22.7799 30.8243 22.4599 30.8291 22.1403 30.8379C22.0249 30.8409 21.9092 30.8508 21.7941 30.8491C21.7342 30.8481 21.675 30.8291 21.6072 30.8169C21.6038 30.8226 21.5902 30.8732 21.5706 30.8759C21.5064 30.8844 21.4392 30.8799 21.3743 30.8725C21.1924 30.8511 21.0181 30.8908 20.8395 30.9169C20.6862 30.9393 20.5242 30.8915 20.3662 30.8928C20.2415 30.8938 20.1174 30.924 19.9927 30.9386C19.9372 30.9451 19.8809 30.9444 19.8251 30.9481C19.5447 30.9661 19.2646 30.9875 18.9843 31C18.93 31.0024 18.8748 30.9644 18.8189 30.959C18.6054 30.9379 18.3919 30.9183 18.1777 30.9064C18.0456 30.8989 17.9146 30.903 17.8411 30.7592C17.8331 30.7436 17.8052 30.727 17.7889 30.729C17.5926 30.7528 17.4988 30.5455 17.3425 30.5147C17.111 30.4692 17.0249 30.2722 16.8766 30.1399C16.8692 30.1335 16.8556 30.1345 16.8446 30.1318C16.8875 29.9646 16.6916 29.8598 16.7076 29.7458C16.7325 29.5664 16.6321 29.4253 16.6411 29.2629C16.6517 29.0699 16.669 28.8773 16.6856 28.6847C16.6936 28.5941 16.7066 28.5042 16.7176 28.4144C16.7196 28.3977 16.7166 28.3723 16.7259 28.3659C16.8603 28.275 16.843 28.124 16.8267 28.0053C16.8107 27.8917 16.9338 27.7618 16.7934 27.6648C16.9521 27.5875 16.7488 27.4722 16.8273 27.3579C16.8875 27.2704 16.8533 27.1141 16.8569 26.9882C16.8626 26.7932 16.8632 26.5982 16.8689 26.4036C16.8802 26.0169 16.8938 25.6306 16.9048 25.244C16.9085 25.1148 16.9072 24.9856 16.9072 24.8564C16.9072 24.5796 16.9072 24.3029 16.9072 24.0139C16.8882 24.0092 16.8509 23.9997 16.845 23.9983C17.0099 23.6439 16.9271 23.2892 16.9075 22.9314C16.8948 22.9259 16.9135 22.9337 16.9461 22.9477C16.9614 22.7313 16.982 22.518 16.9866 22.3043C16.9876 22.2558 16.9338 22.2063 16.8962 22.1415C17.0182 21.838 17.0409 20.9681 16.9304 20.8327C17.1004 20.6635 16.9141 20.4522 16.989 20.2762L16.959 20.3545C16.9481 20.3491 16.9371 20.344 16.9261 20.3386C16.9537 20.285 16.994 20.2345 17.0063 20.1775C17.0266 20.0825 17.0345 19.9839 17.0382 19.8865C17.0448 19.7061 17.0618 19.5236 17.0425 19.3456C17.0126 19.0692 16.8716 18.9908 16.6038 19.0614C16.5443 19.077 16.4771 19.0637 16.388 19.0637C16.2898 19.2618 16.1119 19.0637 15.9612 19.1109V19.1977C15.925 19.1526 15.898 19.119 15.8841 19.1021C15.7913 19.1207 15.7085 19.1377 15.6167 19.1563C15.624 19.1658 15.6376 19.1835 15.6752 19.2323C15.154 19.0722 14.6644 19.2388 14.1615 19.2659V19.3585C14.1219 19.3147 14.0963 19.2866 14.0804 19.2686C13.8858 19.3605 13.7245 19.4717 13.9397 19.7142C13.8981 19.7254 13.8668 19.7336 13.8186 19.7465C13.9477 19.8336 13.8628 19.9201 13.8465 20.0208C13.8123 20.2335 13.7671 20.4553 13.8622 20.6686C13.8658 20.6771 13.8532 20.6927 13.8492 20.7056C13.8243 20.7839 13.7311 20.8721 13.8821 20.9291C13.8894 20.9318 13.8572 21.0352 13.8482 21.0925C13.804 21.3757 13.8163 21.6596 13.8253 21.9448C13.8326 22.1775 13.812 22.4111 13.8103 22.6445C13.8096 22.7235 13.8645 22.8235 13.8332 22.8774C13.7567 23.009 13.8678 23.1284 13.8183 23.2695C13.7754 23.3919 13.8662 23.5632 13.8988 23.7128C13.9014 23.7257 13.9091 23.7375 13.934 23.7959C13.8768 23.7467 13.8565 23.7294 13.8123 23.6914C13.8236 23.8148 13.8362 23.9247 13.8429 24.035C13.8455 24.0777 13.8382 24.1218 13.8299 24.1642C13.7444 24.5949 13.794 25.0293 13.7907 25.4624C13.7887 25.6869 13.7601 25.9111 13.7561 26.1356C13.7524 26.3551 13.7657 26.5752 13.7704 26.7949C13.7744 26.9937 13.7478 27.1992 13.7903 27.3888C13.8166 27.5061 13.8881 27.6177 13.8379 27.7364C13.7843 27.8632 13.7651 27.9874 13.7697 28.124C13.775 28.2895 13.7584 28.4557 13.7561 28.6219C13.7537 28.8081 13.7681 28.995 13.7547 29.1801C13.7441 29.3297 13.7105 29.4789 13.6726 29.6241C13.6536 29.696 13.6017 29.7591 13.5479 29.8574L13.5509 29.8564ZM22.4673 9.26548C22.2933 9.09251 22.125 8.91887 21.9494 8.7537C21.8726 8.68113 21.7814 8.62381 21.6946 8.56277C21.6471 8.52919 21.5669 8.51325 21.5509 8.47018C21.504 8.343 21.4182 8.26533 21.3171 8.18496C21.1701 8.06829 21.0407 7.92788 20.9024 7.79969C20.7071 7.61858 20.5119 7.43748 20.313 7.2601C20.2511 7.20516 20.17 7.17125 20.1131 7.11258C20.0459 7.04339 20.0053 6.94673 19.9365 6.88026C19.69 6.64252 19.4379 6.41122 19.1845 6.18162C19.1469 6.1477 19.0894 6.13685 19.0305 6.11074C19.0092 6.08021 18.9833 6.02392 18.9413 5.98661C18.8482 5.90352 18.7202 5.84824 18.6556 5.74853C18.5545 5.59286 18.3955 5.51994 18.2722 5.39955C18.2645 5.39209 18.2628 5.37852 18.2552 5.37106C18.1641 5.28322 18.0726 5.19572 17.9805 5.1089C17.9672 5.09635 17.9512 5.08685 17.9356 5.07736C17.9086 5.06108 17.881 5.04616 17.8418 5.02411C17.8341 5.00309 17.8291 4.9417 17.7969 4.90914C17.569 4.67886 17.3379 4.45163 17.1031 4.22848C16.9421 4.07552 16.7581 3.94461 16.6131 3.77809C16.4771 3.6214 16.2998 3.5529 16.1292 3.46404C16.1122 3.45522 16.075 3.46981 16.0557 3.48507C16.0055 3.52475 15.9546 3.56578 15.9147 3.61564C15.8784 3.66108 15.8568 3.7184 15.8285 3.77029C15.6729 3.88594 15.5222 4.02126 15.3742 4.15929C15.3522 4.17964 15.3443 4.23594 15.3263 4.23797C15.1291 4.25764 15.0775 4.45672 14.9458 4.55745C14.7805 4.68395 14.6478 4.8542 14.4941 4.998C14.2194 5.25473 13.9383 5.50434 13.6629 5.7604C13.5529 5.86282 13.4677 6.01069 13.3407 6.07207C13.205 6.13753 13.1288 6.23554 13.0959 6.35594C13.0569 6.4977 13.0004 6.44954 12.9212 6.38545C12.873 6.63065 12.5614 6.66083 12.5557 6.92062C12.434 6.88433 12.0638 7.22721 11.988 7.42459C11.9238 7.44562 11.8649 7.47071 11.8243 7.51311C11.7425 7.59891 11.6783 7.70337 11.5915 7.78341C11.4987 7.86887 11.3886 7.93467 11.2868 8.01064C11.2695 8.02352 11.2559 8.04285 11.2436 8.06151C11.2203 8.09644 11.1994 8.13307 11.1591 8.1992C11.1511 8.18665 11.1701 8.21616 11.1861 8.24092C11.1395 8.27008 11.1039 8.30569 11.062 8.31688C10.896 8.36097 10.7647 8.42846 10.7676 8.63704C10.7676 8.65773 10.6712 8.70317 10.6662 8.69707C10.594 8.60991 10.5544 8.69707 10.5272 8.73132C10.4703 8.80322 10.447 8.92226 10.3775 8.96058C10.2265 9.04333 10.0802 9.12778 9.96241 9.25496C9.85598 9.37027 9.75254 9.48897 9.65708 9.61378C9.61218 9.67211 9.5889 9.74774 9.53469 9.85966C9.51972 9.78098 9.51473 9.75554 9.50775 9.71756C9.4695 9.74537 9.40298 9.77826 9.40664 9.79387C9.43424 9.91291 9.19111 9.86441 9.28158 10.0119C9.1023 10.0201 9.03678 10.174 8.93035 10.2833C8.785 10.4321 8.61338 10.5539 8.46238 10.6977C8.43211 10.7265 8.30871 10.7601 8.41315 10.8486C8.34829 10.8863 8.2831 10.9239 8.20794 10.9677C8.20827 10.9697 8.21525 11.0033 8.22224 11.0379C8.00671 11.0602 7.71934 11.3492 7.73431 11.5191C7.58431 11.4916 7.45326 11.5941 7.47854 11.6958C7.43164 11.7189 7.3884 11.7392 7.34583 11.7613C7.16589 11.8552 7.08407 12.0597 6.90414 12.1604C6.7854 12.2269 6.75114 12.3487 6.79072 12.4962C6.82132 12.6105 6.82065 12.7343 6.82797 12.8543C6.83362 12.9489 6.83396 13.0442 6.8293 13.1392C6.82265 13.2789 6.7977 13.419 6.80136 13.5584C6.80735 13.7826 6.83529 14.0061 6.84427 14.2302C6.85558 14.5155 6.86023 14.801 6.86223 15.0862C6.86589 15.5861 6.86921 16.086 6.86489 16.5859C6.86256 16.8505 6.84393 17.115 6.83329 17.3796C6.82996 17.4586 6.79404 17.5695 6.8313 17.6108C6.93939 17.7309 6.85158 17.8544 6.86522 17.9724C6.88318 18.127 6.85391 18.2864 6.85391 18.4438C6.85391 18.6005 6.86954 18.7568 6.86855 18.9135C6.86722 19.1204 6.84859 19.3276 6.85258 19.5341C6.85558 19.6973 6.89515 19.8601 6.89482 20.0229C6.89416 20.4651 6.88119 20.907 6.8732 21.3493C6.87154 21.4452 6.86855 21.5412 6.87021 21.6372C6.87254 21.7874 6.88252 21.938 6.88119 22.0883C6.88019 22.2151 6.84793 22.3453 6.86589 22.4684C6.89549 22.6679 6.92077 22.8605 6.90979 23.067C6.88717 23.4889 6.91145 23.9135 6.91112 24.3371C6.91112 24.5332 6.88717 24.7292 6.89316 24.9245C6.9068 25.3678 6.94405 25.8107 6.9487 26.254C6.95269 26.6355 6.92043 27.0171 6.91345 27.3989C6.91112 27.516 6.93939 27.6336 6.95436 27.7588C7.01988 27.7432 7.06112 27.7242 7.10237 27.7252C7.36712 27.7316 7.63154 27.7459 7.89629 27.7513C8.21392 27.7578 8.53156 27.7581 8.84919 27.7612C8.96095 27.7622 9.09299 27.8019 9.1798 27.7551C9.34244 27.6672 9.50409 27.7228 9.66374 27.7052C9.85864 27.6835 10.0585 27.6964 10.2554 27.7096C10.6642 27.7371 10.912 27.3372 10.8418 26.9526C10.7886 26.6623 10.7603 26.3479 10.8694 26.0508C10.8774 26.0291 10.8734 26.0003 10.8688 25.9762C10.8471 25.8599 10.8052 25.7439 10.8052 25.6279C10.8052 25.4431 10.8332 25.2583 10.8481 25.0731C10.8501 25.0466 10.8458 25.0198 10.8458 24.993C10.8448 24.8754 10.8614 24.7543 10.8392 24.641C10.8086 24.4867 10.909 24.351 10.8392 24.1764C10.7723 24.0102 10.8265 23.7928 10.8315 23.5978C10.8392 23.2915 10.8521 22.9853 10.8588 22.679C10.8608 22.5888 10.8425 22.4979 10.8455 22.4074C10.8515 22.2229 10.8744 22.0387 10.8744 21.8542C10.8744 21.4351 10.8588 21.0159 10.8608 20.5967C10.8621 20.2772 10.8804 19.9574 10.8924 19.6379C10.8967 19.525 10.915 19.4117 10.9097 19.2995C10.9004 19.1044 10.8618 18.9101 10.8651 18.7158C10.8694 18.4631 10.9033 18.2111 10.924 17.9592C10.9306 17.8771 10.908 17.778 10.9912 17.7794C11.0091 17.7055 11.0144 17.6485 11.0374 17.6007C11.0553 17.5634 11.1096 17.5423 11.1229 17.505C11.1874 17.326 11.2296 17.1313 11.4694 17.1157C11.4744 17.1157 11.4827 17.112 11.4837 17.1082C11.5246 16.9563 11.6866 16.9159 11.7621 16.7945C11.7917 16.7467 11.8386 16.707 11.8842 16.6728C11.9959 16.5897 12.112 16.513 12.2248 16.432C12.2421 16.4194 12.2504 16.3811 12.2654 16.3797C12.4446 16.3624 12.6242 16.3485 12.8038 16.3363C12.9791 16.3245 13.1557 16.3221 13.3303 16.3034C13.621 16.2719 13.9101 16.2183 14.2014 16.1966C14.6408 16.164 15.0822 16.1596 15.5219 16.1271C15.9599 16.0945 16.3959 16.0386 16.8333 15.9989C17.1563 15.9697 17.4799 15.9392 17.8035 15.9307C18.052 15.9243 18.3021 15.9656 18.5502 15.9568C18.6796 15.9524 18.7893 15.9741 18.8931 16.0403C18.9776 16.0942 19.0747 16.1573 19.1506 16.1891C19.3275 16.2641 19.4625 16.3302 19.5111 16.5378C19.5274 16.6077 19.6172 16.6599 19.7013 16.7498C19.6734 16.9404 19.8603 17.4514 20.0246 17.522C20.0246 17.7587 20.0213 18.0015 20.0256 18.244C20.0286 18.4123 20.0542 18.5808 20.0489 18.7483C20.0379 19.0865 20.0103 19.4239 19.9947 19.7621C19.9841 19.9964 19.9811 20.2311 19.9764 20.4654C19.9704 20.7673 19.9338 21.0732 19.9711 21.3696C20.0047 21.6392 19.9315 21.8943 19.9448 22.1578C19.9561 22.3809 19.9298 22.6061 19.9275 22.8303C19.9262 22.9646 19.9664 23.1047 19.9398 23.2319C19.8823 23.5089 19.8696 23.7823 19.9029 24.0628C19.9185 24.1947 19.9135 24.3307 19.9032 24.464C19.8929 24.5979 19.8527 24.7302 19.847 24.8638C19.8354 25.1304 19.84 25.3976 19.8354 25.6642C19.8321 25.8531 19.8174 26.0417 19.8211 26.2302C19.8234 26.3581 19.8553 26.4849 19.8613 26.6128C19.8656 26.7098 19.852 26.8078 19.843 26.9048C19.836 26.9798 19.8194 27.0537 19.8148 27.1286C19.8068 27.2629 19.8114 27.3983 19.7978 27.5319C19.7825 27.6808 19.8503 27.8727 19.9408 27.8846C20.0343 27.8965 20.1297 27.9043 20.2235 27.8999C20.6719 27.8788 21.1199 27.8476 21.5682 27.831C22.0106 27.8144 22.4536 27.8137 22.8963 27.8005C23.1478 27.793 23.3989 27.7764 23.65 27.7612C23.8888 27.7466 24.1206 27.7062 24.3674 27.7612C24.5407 27.7995 24.7376 27.7286 24.9358 27.7052C24.9531 26.9265 25.0566 26.1438 25.0223 25.3342C25.0256 25.3281 25.0616 25.2898 25.0659 25.2481C25.0789 25.1189 25.0775 24.988 25.0868 24.8581C25.0912 24.7974 25.1148 24.7377 25.1151 24.6776C25.1161 24.5274 25.1001 24.3765 25.1075 24.2266C25.1141 24.0936 25.1557 23.9617 25.1593 23.8291C25.1657 23.59 25.157 23.3502 25.1487 23.1108C25.1474 23.0674 25.1184 23.0253 25.0978 22.97C25.1068 22.9446 25.1354 22.8927 25.142 22.8384C25.149 22.7808 25.1078 22.6923 25.1344 22.6662C25.2651 22.5373 25.1643 22.3806 25.1996 22.2419C25.2385 22.0883 25.2109 21.9272 25.2345 21.7661C25.2854 21.4191 25.2854 21.0644 25.3067 20.7039C25.2788 20.7184 25.2595 20.7283 25.2352 20.7408C25.3419 20.5797 25.3659 19.6396 25.3007 19.5867C25.4288 19.2754 25.4371 18.9715 25.3466 18.6595C25.3572 18.7121 25.3679 18.7646 25.3785 18.8172C25.3858 18.8155 25.3932 18.8135 25.4005 18.8118C25.4451 17.9758 25.4893 17.1398 25.5345 16.2899C25.5112 16.3089 25.4919 16.3245 25.4687 16.3435C25.467 16.3184 25.4657 16.2973 25.4643 16.2763C25.6233 16.2678 25.5355 16.1481 25.5468 16.0759C25.5492 16.0613 25.4939 16.0392 25.4953 16.0226C25.5043 15.8822 25.5152 15.7418 25.5359 15.6028C25.5555 15.4688 25.6044 15.3376 25.6087 15.2039C25.6127 15.0825 25.5738 14.9597 25.5578 14.86C25.5814 14.7936 25.612 14.74 25.6183 14.684C25.6326 14.5541 25.6316 14.4222 25.6433 14.292C25.6589 14.1126 25.6865 13.9338 25.6978 13.7541C25.7131 13.5119 25.7041 13.2674 25.7308 13.0269C25.7544 12.8123 25.629 12.5094 25.3802 12.4752C25.3868 12.4484 25.4081 12.41 25.3978 12.3965C25.302 12.2696 25.2032 12.1452 25.1005 12.0241C25.0662 11.9841 25.0103 11.9627 24.9767 11.9223C24.8706 11.7955 24.7792 11.6551 24.6661 11.5357C24.5387 11.4011 24.3358 11.3088 24.27 11.1528C24.1675 10.9107 23.9613 10.7787 23.8296 10.5797C23.7494 10.4583 23.6433 10.363 23.5529 10.2592C23.3952 10.0787 23.1897 9.93766 22.9908 9.80065C22.8784 9.72332 22.7802 9.66635 22.8351 9.49033C22.8122 9.5273 22.7889 9.56426 22.759 9.61208C22.6991 9.43267 22.6402 9.2726 22.4017 9.36315C22.4307 9.3211 22.448 9.296 22.4693 9.26548H22.4673Z"
          fill="currentColor"/>
</svg>
