<svg viewBox="0 0 32 32" fill="none" xmlns="http://www.w3.org/2000/svg">
<path d="M26.3655 29.8236C26.3427 29.7997 26.3171 29.7732 26.3041 29.7593C26.1798 29.9361 26.0551 30.1122 25.932 30.2894C25.9005 30.3349 25.8714 30.3823 25.8442 30.4308C25.7872 30.5341 25.7133 30.5946 25.5964 30.6543C25.4383 30.7352 25.3061 30.8531 25.1145 30.8801C25.0693 30.8866 25.0398 31.0034 25.0244 31.0307C24.8797 31.0623 24.7585 31.0827 24.6413 31.1159C24.5516 31.1413 24.4639 31.1775 24.3797 31.2176C24.0996 31.3501 23.7932 31.4183 23.504 31.3362C23.2999 31.2784 23.091 31.3879 22.8986 31.2673C22.8621 31.2445 22.7606 31.3455 22.6941 31.3393C22.523 31.3235 22.3554 31.2661 22.1843 31.2515C22.0596 31.2407 21.9117 31.2364 21.809 31.2912C21.6504 31.3759 21.5261 31.3416 21.3735 31.2827C21.39 31.2977 21.4066 31.3127 21.4309 31.3355C21.1674 31.3355 20.9062 31.3678 20.658 31.3266C20.3983 31.2834 20.1438 31.3798 19.8787 31.2904C19.7111 31.2337 19.4924 31.3378 19.3106 31.3019C19.086 31.2576 18.8756 31.2912 18.6572 31.3016C18.5408 31.3069 18.4224 31.2588 18.3036 31.2457C18.2556 31.2403 18.2052 31.2696 18.1549 31.2734C17.9806 31.2865 17.8056 31.305 17.6313 31.3004C17.5817 31.2992 17.5341 31.226 17.4865 31.1867C17.2922 31.3632 16.7993 31.3678 16.6317 31.1968C16.618 31.223 16.6046 31.248 16.5865 31.2823C16.5605 31.2522 16.5381 31.226 16.5377 31.2257C16.4693 31.2561 16.4138 31.2973 16.3552 31.3031C16.2494 31.3135 16.1412 31.3008 16.0342 31.3008C15.9052 31.3008 15.7848 31.3389 15.6652 31.2137C15.5885 31.1332 15.4583 31.2268 15.3651 31.2992C15.2887 31.1097 15.1511 31.263 15.0405 31.2503C14.9858 31.2442 14.9288 31.2588 14.8729 31.2569C14.7168 31.2522 14.5563 31.2638 14.4056 31.2322C14.2227 31.1941 14.0449 31.3936 13.8557 31.221C13.8112 31.1806 13.6763 31.2438 13.5827 31.2438C13.5315 31.2438 13.4804 31.2118 13.4155 31.1894C13.362 31.3289 13.1979 31.2765 13.0669 31.2823C12.8655 31.2915 12.6622 31.2765 12.4604 31.265C12.3955 31.2611 12.3325 31.2268 12.2676 31.2222C12.1984 31.2172 12.128 31.2307 12.0316 31.238C12.0064 31.1463 11.9022 31.1582 11.7963 31.211C11.5454 31.3362 11.2885 31.27 11.0355 31.233C10.9691 31.2233 10.912 31.1517 10.8507 31.1085C10.8518 31.129 10.853 31.1498 10.8542 31.1702C10.7909 31.2014 10.7283 31.258 10.6642 31.2596C10.2539 31.2711 9.844 31.2245 9.43292 31.3139C9.27439 31.3482 9.09383 31.2811 8.92311 31.268C8.80352 31.2588 8.68236 31.268 8.56277 31.2596C8.45499 31.2522 8.35664 31.2634 8.24846 31.1794C8.10331 31.0669 7.90701 31.0184 7.73589 30.9359C7.68633 30.912 7.64817 30.8654 7.5868 30.815C7.49475 30.8535 7.36651 30.914 7.38342 30.687C7.385 30.6639 7.24417 30.6308 7.16982 30.6023C7.10334 30.5306 7.02781 30.4493 6.95189 30.368C6.93891 30.3542 6.92514 30.3283 6.91216 30.3287C6.88777 30.3295 6.85079 30.3603 6.84214 30.3526C6.72216 30.249 6.55851 30.1592 6.50462 30.0271C6.46725 29.935 6.43774 29.8818 6.35474 29.8429C6.32209 29.8275 6.26741 29.8024 6.26741 29.7824C6.26977 29.5019 5.85948 29.4553 5.8996 29.1494C5.90944 29.0735 5.85869 28.9841 5.73832 29.0261C5.69623 28.9105 5.65492 28.7946 5.61204 28.679C5.57861 28.5896 5.55933 28.4902 5.50505 28.4147C5.42519 28.3033 5.38939 28.0733 5.48774 27.9897C5.22653 27.9547 5.25328 27.7181 5.29852 27.6175C5.389 27.4172 5.2584 27.2473 5.30049 27.0597C5.34494 26.8612 5.32331 26.649 5.34022 26.444C5.34651 26.37 5.37995 26.298 5.40395 26.2259C5.49167 25.9639 5.43424 25.6992 5.42008 25.4357C5.413 25.3036 5.39097 25.173 5.49718 25.0558C5.51685 25.0343 5.44919 24.9368 5.39805 24.8882C5.39805 24.8197 5.39805 24.7511 5.39805 24.6825C5.39844 24.6004 5.40434 24.518 5.39883 24.4363C5.39608 24.3908 5.37641 24.3462 5.36304 24.3015C5.35635 24.2791 5.33943 24.2572 5.33983 24.2356C5.34297 24.0761 5.34337 23.9162 5.35753 23.7574C5.36422 23.6827 5.40198 23.611 5.42008 23.5367C5.42794 23.5035 5.42558 23.4666 5.42008 23.4327C5.40552 23.346 5.38625 23.2601 5.38743 23.1684C5.35596 23.0416 5.31347 22.916 5.29616 22.7873C5.27335 22.6178 5.26115 22.4452 5.26037 22.2741C5.25919 22.0711 5.28121 21.868 5.28239 21.665C5.28397 21.408 5.35517 21.1487 5.2407 20.8944C5.20687 20.8193 5.22496 20.7222 5.21591 20.6355C5.20687 20.5527 5.18169 20.4699 5.18523 20.3882C5.18877 20.3108 5.22103 20.2345 5.20962 20.1636C5.19664 20.0769 5.17697 19.991 5.17186 19.9039C5.15179 19.5795 5.13134 19.2547 5.12072 18.9299C5.116 18.7885 5.13921 18.646 5.1396 18.5042C5.1396 18.4506 5.11167 18.3971 5.092 18.3277C5.11757 18.1906 5.22181 18.0311 5.06053 17.8793C5.04558 17.8654 5.04204 17.8338 5.04283 17.8111C5.04873 17.6743 5.03457 17.5314 5.07115 17.4027C5.11324 17.2544 5.15101 17.1245 5.02945 16.9966C5.01372 16.98 5.0145 16.9211 5.03103 16.9057C5.17972 16.7662 5.06761 16.6456 5.03103 16.5031C4.99208 16.3509 5.03535 16.1794 5.03771 16.0161C5.03889 15.9232 5.13016 15.818 4.9909 15.7379C4.96297 15.7217 4.95353 15.6007 4.97831 15.5822C5.10891 15.484 5.00034 15.3915 4.98736 15.2971C4.97241 15.19 4.91459 15.061 4.9555 14.9801C5.01883 14.8545 4.94055 14.7697 4.93386 14.6668C4.92953 14.6021 4.94409 14.5366 4.93898 14.4719C4.92009 14.218 4.89688 13.9645 4.87289 13.6813C4.86463 13.6878 4.89374 13.6643 4.92245 13.6405C4.90397 13.6378 4.88508 13.6354 4.86659 13.6327C4.87407 13.5191 4.88154 13.4058 4.88862 13.2922C4.89098 13.2548 4.90082 13.2159 4.89256 13.1808C4.84142 12.9562 4.98382 12.7185 4.83748 12.4946C4.81546 12.4611 4.89806 12.3617 4.9555 12.2457C4.878 12.2889 4.84614 12.3066 4.82726 12.317C4.80955 12.191 4.78556 12.0708 4.77808 11.9499C4.76904 11.7988 4.77572 11.647 4.77179 11.496C4.76628 11.2899 4.68721 11.0787 4.82057 10.8823C4.8304 10.868 4.81388 10.8314 4.80247 10.8091C4.77533 10.757 4.71632 10.7062 4.71908 10.6573C4.72931 10.4766 4.76274 10.2974 4.77926 10.1171C4.78398 10.0651 4.7592 10.0108 4.75291 9.95682C4.73442 9.80039 4.71947 9.6432 4.7002 9.48678C4.69351 9.434 4.67659 9.38237 4.66794 9.3292C4.6168 9.00826 4.54756 8.67346 4.62349 8.36524C4.67148 8.17029 4.68092 7.94028 4.87486 7.76228C5.05345 7.59854 5.20962 7.43094 5.45233 7.37353C5.65492 7.32537 5.86027 7.29763 6.06954 7.34079C6.11006 7.34926 6.15569 7.33809 6.19857 7.33308C6.23437 7.32884 6.28236 7.30264 6.30321 7.31651C6.56402 7.49336 6.83978 7.61934 7.01129 7.93758C7.18477 8.25967 7.20208 8.57059 7.21663 8.9027C7.21781 8.92813 7.22135 8.95934 7.20877 8.9786C7.02781 9.25138 7.11357 9.55074 7.11868 9.84123C7.1234 10.0963 7.16431 10.3537 7.13796 10.6049C7.12183 10.7609 7.17021 10.8892 7.19028 11.031C7.21034 11.1735 7.1651 11.3238 7.16864 11.4702C7.17572 11.7676 7.14819 12.077 7.22332 12.3586C7.31419 12.6992 7.21545 13.0236 7.23748 13.3542C7.26581 13.7795 7.29885 14.2041 7.32717 14.6295C7.34291 14.866 7.35235 15.103 7.36533 15.3399C7.37831 15.5749 7.39405 15.8099 7.40624 16.0454C7.42119 16.3332 7.42984 16.6213 7.44833 16.9088C7.46367 17.1449 7.49278 17.38 7.50931 17.6157C7.51796 17.741 7.51599 17.8673 7.51363 17.9933C7.50891 18.2784 7.48334 18.5639 7.49829 18.8479C7.51717 19.2104 7.57539 19.571 7.60214 19.9336C7.6226 20.2102 7.61355 20.4888 7.63007 20.7658C7.64266 20.9761 7.68672 21.1846 7.69616 21.3949C7.70324 21.5479 7.67177 21.702 7.66626 21.8561C7.66036 22.0206 7.65171 22.1867 7.66823 22.35C7.6997 22.6652 7.76107 22.978 7.78546 23.2936C7.80316 23.5209 7.77208 23.7517 7.78034 23.9801C7.78939 24.229 7.82598 24.4764 7.83778 24.7253C7.84564 24.8975 7.82086 25.0712 7.82952 25.2435C7.85784 25.821 7.89678 26.3977 7.92707 26.9753C7.9373 27.1718 7.95186 27.371 7.92865 27.5648C7.90622 27.7532 7.96405 27.9046 8.0561 28.0583C8.20991 28.3164 8.40935 28.533 8.66269 28.6982C8.93176 28.8735 9.23505 28.904 9.55133 28.8982C9.98601 28.8901 10.4211 28.9059 10.8558 28.9013C11.283 28.8967 11.7102 28.8751 12.1374 28.8697C12.3368 28.8674 12.5363 28.8916 12.7361 28.894C13.063 28.8974 13.3899 28.8913 13.7168 28.892C13.8368 28.892 13.9564 28.9024 14.0764 28.9059C14.5221 28.9186 14.9674 28.9317 15.4131 28.9402C15.4544 28.941 15.4964 28.8982 15.5381 28.8982C15.7458 28.8982 15.9536 28.904 16.1613 28.9113C16.452 28.9217 16.7427 28.9406 17.0334 28.9456C17.3048 28.9502 17.5766 28.9387 17.8481 28.9402C18.217 28.9429 18.5856 28.951 18.9546 28.9575C19.1108 28.9602 19.267 28.9668 19.4227 28.9664C19.8791 28.9652 20.3358 28.956 20.7921 28.961C20.9817 28.9629 21.1717 29.0092 21.3605 29.0049C21.6925 28.9976 22.0242 28.9645 22.3562 28.9475C22.4388 28.9433 22.5226 28.966 22.606 28.9656C22.9368 28.9641 23.2676 28.9587 23.5985 28.9529C23.6539 28.9521 23.7102 28.934 23.7641 28.9394C24.0674 28.971 24.2456 28.672 24.2873 28.4397C24.314 28.291 24.3612 28.1458 24.4002 27.9993C24.4049 27.9812 24.4249 27.9597 24.4194 27.9477C24.3026 27.6826 24.5394 27.4392 24.4761 27.1876C24.4108 26.9283 24.5673 26.6651 24.4367 26.4532C24.4883 26.4166 24.53 26.4016 24.5437 26.3731C24.5618 26.3357 24.5579 26.2879 24.5669 26.219C24.4529 26.1223 24.4407 25.9146 24.5567 25.7809C24.5823 25.7513 24.5717 25.6707 24.5504 25.626C24.4529 25.423 24.4505 25.4076 24.5721 25.2777C24.5418 25.1803 24.5131 25.0874 24.4859 24.9992C24.6728 24.9302 24.5854 24.7996 24.5508 24.6937C24.5127 24.5769 24.5087 24.4945 24.6527 24.4702C24.6204 24.3142 24.5862 24.1489 24.5461 23.9551C24.611 23.9944 24.6405 24.0125 24.6913 24.0429C24.6747 23.9848 24.67 23.9478 24.6543 23.9162C24.6008 23.8087 24.4544 23.7124 24.6488 23.5864C24.6755 23.569 24.5764 23.4018 24.5811 23.3059C24.5882 23.1533 24.6437 23.0031 24.6586 22.8501C24.6665 22.7669 24.6256 22.6806 24.6201 22.5947C24.6153 22.5249 24.624 22.4525 24.637 22.3832C24.6618 22.2479 24.7019 22.115 24.7192 21.9794C24.7259 21.9262 24.6791 21.8684 24.6743 21.8114C24.6669 21.7243 24.6716 21.6357 24.6775 21.5483C24.6877 21.3938 24.696 21.2389 24.7188 21.0859C24.7294 21.0139 24.7786 20.9476 24.7959 20.8756C24.8018 20.8517 24.7471 20.8166 24.7479 20.7877C24.7522 20.6729 24.8045 20.5469 24.7711 20.4464C24.6948 20.2152 24.7577 20.001 24.7845 19.7771C24.8116 19.5479 24.8101 19.3148 24.8089 19.0833C24.8081 18.9099 24.8506 18.7377 24.7931 18.5612C24.7511 18.4321 24.8053 18.342 24.9049 18.2888C24.7632 18.0577 24.7676 17.9116 24.8923 17.8916C24.8962 17.8149 24.9293 17.7275 24.8982 17.6793C24.7931 17.5171 24.8903 17.3372 24.8297 17.1754C24.8278 17.17 24.8297 17.163 24.8313 17.1569C24.8718 16.9719 24.9186 16.7882 24.9505 16.6021C24.9639 16.525 24.9379 16.4426 24.943 16.3636C24.9564 16.1571 24.8628 15.9533 24.9591 15.7402C24.9969 15.657 24.8986 15.5133 24.9379 15.4328C25.0276 15.2482 24.9654 15.0787 24.969 14.8999C24.9745 14.6156 24.899 14.307 25.0886 14.0396C25.1114 14.0076 25.0669 13.9336 25.0614 13.8782C25.0402 13.6747 25.004 13.4702 25.0091 13.2671C25.0123 13.1423 25.0878 13.0205 25.1161 12.8942C25.1271 12.8452 25.0972 12.7874 25.0378 12.7324C25.0815 12.6796 25.1248 12.6268 25.1692 12.5732C25.0272 12.371 25.0142 12.0115 25.1271 11.8867C25.1145 11.8073 25.1122 11.7445 25.0937 11.6871C25.0481 11.5445 25.1731 11.4062 25.0842 11.2517C25.0512 11.1947 25.124 11.0618 25.1759 10.9805C25.22 10.9111 25.2514 10.8907 25.1806 10.8033C25.1255 10.7355 25.1657 10.5956 25.159 10.4877C25.137 10.1252 25.277 9.76187 25.1539 9.40125C25.1389 9.35733 25.0913 9.32381 25.061 9.28451C25.0386 9.25561 24.9997 9.22364 25.0016 9.19512C25.0138 9.02522 25.0874 8.84144 25.0429 8.69003C24.9698 8.44268 25.2113 8.32979 25.2337 8.11943C25.2475 7.99113 25.4343 7.86091 25.574 7.75188C25.7679 7.60046 26.0016 7.57157 26.2164 7.52957C26.4359 7.48681 26.6814 7.47332 26.9036 7.62396C27.0228 7.70487 27.131 7.76536 27.1955 7.9029C27.2278 7.9711 27.3391 8.00077 27.4071 8.05663C27.5137 8.14409 27.5051 8.2851 27.5574 8.39799C27.6093 8.50972 27.6475 8.62761 27.6676 8.74088C27.6676 8.80676 27.6707 8.87303 27.6668 8.93891C27.6577 9.09996 27.6463 9.26062 27.6349 9.42167C27.6294 9.49795 27.6207 9.57424 27.6156 9.65052C27.594 9.99573 27.5716 10.3406 27.5527 10.6858C27.5436 10.8499 27.5696 11.021 27.5326 11.1781C27.4189 11.6644 27.485 12.1587 27.441 12.6484C27.4008 13.0926 27.4276 13.5426 27.4182 13.9899C27.4123 14.265 27.3926 14.5401 27.3827 14.8155C27.3816 14.8502 27.4016 14.8857 27.413 14.9203C27.4205 14.9431 27.4433 14.972 27.4359 14.9862C27.3214 15.2043 27.391 15.4424 27.3603 15.6697C27.3245 15.9332 27.3422 16.2037 27.3285 16.4707C27.3147 16.735 27.2895 16.9985 27.2706 17.2624C27.2628 17.3749 27.2565 17.4874 27.2518 17.5999C27.2337 18.033 27.201 18.4664 27.2077 18.8991C27.2101 19.0482 27.1605 19.1865 27.1723 19.3352C27.1861 19.509 27.1739 19.6855 27.1636 19.8604C27.1542 20.0268 27.1231 20.1925 27.1192 20.3585C27.1156 20.5165 27.142 20.6748 27.1424 20.8328C27.1428 20.9707 27.1247 21.1091 27.1168 21.2474C27.1007 21.5348 27.0881 21.8222 27.0704 22.1092C27.0496 22.4429 27.0161 22.7765 27.0039 23.1106C26.9874 23.5625 26.9925 24.0156 26.9764 24.4675C26.9662 24.7569 26.9339 25.045 26.9107 25.334C26.9087 25.359 26.893 25.3833 26.893 25.408C26.895 25.7258 26.9009 26.0437 26.9005 26.3611C26.9001 26.6944 26.9005 27.0281 26.8863 27.3609C26.8804 27.5008 26.8297 27.6387 26.8151 27.779C26.7958 27.9643 26.7978 28.1519 26.7781 28.3368C26.771 28.4054 26.7223 28.4686 26.7042 28.5372C26.6896 28.5919 26.7105 28.6597 26.6857 28.7071C26.5661 28.936 26.5515 29.1945 26.4634 29.4322C26.4186 29.5536 26.3985 29.6838 26.3639 29.8232L26.3655 29.8236Z" fill="currentColor"/>
<path d="M7.07183 3.74705C7.17372 3.72471 7.31533 3.66653 7.45616 3.66807C7.82043 3.67192 8.1843 3.70429 8.54897 3.72008C8.75038 3.72894 8.95296 3.73819 9.15359 3.72471C9.2303 3.7197 9.33533 3.66961 9.36994 3.60874C9.44626 3.47428 9.47419 3.314 9.54264 3.17453C9.65711 2.94105 9.78299 2.7122 9.9132 2.48681C10.0076 2.32345 10.1001 2.15432 10.224 2.01369C10.3321 1.8904 10.482 1.80217 10.6154 1.70046C10.7346 1.60992 10.8518 1.5163 10.9773 1.43462C11.2869 1.23312 11.5941 1.02661 11.9147 0.843604C12.1739 0.695658 12.4446 0.559655 12.7239 0.453704C12.9347 0.373951 13.1672 0.347752 13.3911 0.301904C13.5354 0.272238 13.6833 0.257983 13.8261 0.222537C14.1086 0.152802 14.3863 0.0923137 14.6849 0.108495C14.8882 0.119668 15.0948 0.0395307 15.3009 0.0337516C15.5979 0.0252755 15.9157 0.11466 16.1872 0.0368338C16.4409 -0.0355983 16.6699 0.0144877 16.8835 0.053786C17.1978 0.111963 17.5333 0.0645737 17.8331 0.223693C17.9342 0.277247 18.0742 0.255671 18.1934 0.282255C18.4098 0.330415 18.6273 0.378575 18.8378 0.445998C19.0187 0.50379 19.1879 0.595486 19.3672 0.658286C19.5073 0.707601 19.7004 0.691805 19.7905 0.781574C19.9734 0.964196 20.2736 0.91411 20.4262 1.14412C20.4892 1.23851 20.6241 1.28783 20.7272 1.35602C20.9199 1.48278 21.1213 1.59913 21.3046 1.73822C21.4042 1.81373 21.4691 1.93124 21.5576 2.02178C21.6602 2.12658 21.7991 2.20671 21.8742 2.32615C22.0611 2.62397 22.224 2.93643 22.3896 3.24658C22.4309 3.32363 22.4494 3.4134 22.4714 3.49932C22.4812 3.53785 22.4588 3.60681 22.4773 3.61683C22.5481 3.65613 22.6287 3.70005 22.7062 3.70159C22.9399 3.70583 23.1736 3.69119 23.4072 3.68348C23.6952 3.67385 23.9835 3.66075 24.2715 3.65536C24.563 3.64958 24.8545 3.65536 25.146 3.64842C25.5791 3.63802 26.0118 3.60951 26.4449 3.61066C26.7608 3.61143 27.0763 3.64804 27.3922 3.66614C27.4453 3.66923 27.5007 3.66306 27.5523 3.65112C27.8087 3.59217 28.0495 3.61182 28.3099 3.68387C28.5825 3.75938 28.7627 3.88729 28.8779 4.13117C28.8996 4.17664 28.9802 4.19128 29.0144 4.23481C29.2493 4.53571 29.1262 4.82467 28.9771 5.11209C28.9653 5.13482 28.9676 5.1668 28.9708 5.19377C28.994 5.40413 28.9161 5.57519 28.7442 5.69617C28.6714 5.74741 28.577 5.79249 28.4897 5.7975C28.1227 5.81792 27.7545 5.81676 27.387 5.83487C27.2081 5.84373 27.0298 5.87301 26.8528 5.90191C26.7828 5.91347 26.7116 5.9805 26.6672 5.86723C26.6652 5.86222 26.6101 5.86377 26.6026 5.87571C26.5078 6.02712 26.3784 5.9204 26.271 5.91193C25.9359 5.88534 25.6062 5.78632 25.2675 5.93196C25.1932 5.96394 25.0732 5.87686 24.9497 5.89343C24.7081 5.92579 24.4493 5.95546 24.2188 5.90037C24.0567 5.86184 23.8978 5.97819 23.7471 5.86646C23.716 5.84335 23.6326 5.89613 23.5725 5.90114C23.5064 5.90653 23.4387 5.89767 23.3722 5.89228C23.3628 5.8915 23.3537 5.86762 23.3455 5.86839C23.1303 5.87956 22.9151 5.89343 22.6999 5.9046C22.5866 5.91038 22.471 5.92502 22.3593 5.91154C22.0953 5.88033 21.8357 5.86839 21.58 5.96124C21.5564 5.96972 21.5123 5.95777 21.4931 5.93966C21.3019 5.76128 21.0753 5.87609 20.8668 5.87301C20.7362 5.87109 20.606 5.93851 20.4738 5.94968C20.4062 5.95546 20.3346 5.88919 20.2634 5.88573C20.1446 5.87956 20.0246 5.89998 19.9046 5.90537C19.7626 5.91192 19.6186 5.92888 19.4782 5.91462C19.2835 5.89497 19.1761 5.90653 18.9743 5.95276C18.872 5.97627 18.7536 5.95276 18.6466 5.93157C18.5376 5.91 18.4377 5.86492 18.3307 5.9466C18.3095 5.96278 18.2398 5.91886 18.1863 5.90075C18.1836 5.90692 18.1694 5.93697 18.1375 6.00516C18.1261 5.93312 18.121 5.90037 18.1151 5.86299C17.8925 5.88611 17.6568 5.96278 17.4499 5.91655C17.2646 5.87494 17.1431 5.89574 17.0042 5.9936C16.9834 6.00824 16.9248 5.96895 16.8827 5.95777C16.6836 5.90537 16.4901 5.87224 16.2875 5.9701C16.2226 6.00131 16.1195 5.95662 16.0342 5.9466C16.0467 5.92965 16.0593 5.9127 16.0999 5.8576C16.0125 5.87648 15.9492 5.89921 15.8855 5.90191C15.7073 5.90961 15.5283 5.90846 15.3501 5.91231C15.2875 5.91385 15.2254 5.92541 15.1632 5.92271C14.9555 5.91424 14.7352 5.85336 14.5436 5.90229C14.2466 5.97781 13.9571 5.83256 13.69 5.90114C13.4532 5.96201 13.2274 5.89998 12.9973 5.94506C12.8549 5.9728 12.7011 5.89536 12.5358 5.92156C12.3085 5.95777 12.0721 5.9439 11.8396 5.94044C11.591 5.93658 11.3427 5.9127 11.0941 5.91077C10.8616 5.90923 10.6288 5.92425 10.3963 5.93311C10.1713 5.94159 9.94585 5.95662 9.72084 5.95662C9.62957 5.95662 9.5387 5.91424 9.44626 5.90961C9.18506 5.89613 8.91559 5.90576 8.66305 5.92117C8.32395 5.94198 7.99352 5.88534 7.65915 5.90383C7.45144 5.91539 7.22407 5.85144 7.038 5.91424C6.74258 6.01364 6.45226 5.92387 6.15998 5.96586C5.92474 5.99977 5.67416 5.92079 5.42948 5.90191C5.32012 5.89343 5.20801 5.90538 5.09786 5.91462C4.95192 5.92695 4.80047 5.92464 4.66279 5.96548C4.37011 6.05217 4.08492 5.95122 3.79775 5.94621C3.65181 5.9439 3.49485 5.81869 3.367 5.71929C3.1888 5.58097 3.11878 5.38602 3.11131 5.15678C3.10659 5.01808 3.02044 4.88323 3.00352 4.74299C2.98936 4.62664 3.02162 4.50451 3.03499 4.38507C3.03774 4.35926 3.06292 4.32612 3.05348 4.31033C2.95828 4.14967 3.06292 4.06914 3.18054 3.99247C3.19628 3.98207 3.22775 3.97629 3.22853 3.96589C3.25646 3.71122 3.47085 3.71276 3.64473 3.70159C3.84574 3.68849 4.0499 3.72933 4.25289 3.73357C4.56484 3.74012 4.87678 3.73742 5.18913 3.73549C5.64859 3.73241 6.10845 3.72702 6.56792 3.72201C6.67413 3.72085 6.78073 3.71662 6.88694 3.71931C6.93848 3.72047 6.99001 3.73395 7.06987 3.7459L7.07183 3.74705ZM19.9565 3.62685C19.9148 3.56289 19.8897 3.48429 19.835 3.44731C19.6064 3.29127 19.3716 3.14371 19.134 3.00116C19.0219 2.93373 18.8991 2.88288 18.7791 2.82894C18.6572 2.77423 18.5372 2.70873 18.409 2.67598C18.1997 2.62243 17.9597 2.5839 17.789 2.50107C17.4767 2.34965 17.1458 2.44327 16.8488 2.32153C16.7969 2.30034 16.7359 2.2464 16.6966 2.25911C16.4362 2.34233 16.1522 2.07803 15.9055 2.31305C15.9004 2.31767 15.8792 2.31112 15.8693 2.30458C15.6459 2.15933 15.4181 2.27375 15.1915 2.29148C15.0224 2.30458 14.8497 2.2934 14.6837 2.32191C14.4504 2.36198 14.2199 2.42208 13.9913 2.48566C13.8367 2.52881 13.6593 2.50415 13.5307 2.639C13.5032 2.66789 13.4166 2.64323 13.3572 2.64323C13.2907 2.6467 13.2247 2.69139 13.1531 2.72491C12.932 2.82817 12.6916 2.89097 12.513 3.08206C12.4882 3.10865 12.384 3.17569 12.3053 3.20189C12.2821 3.20959 12.061 3.35792 12.0524 3.37025C11.978 3.47736 11.9025 3.58369 11.8164 3.70621C11.7975 3.69234 11.8179 3.72008 11.8388 3.72085C12.061 3.7274 12.2833 3.73704 12.5056 3.73087C12.6535 3.72663 12.8014 3.68194 12.9485 3.68502C13.2014 3.69003 13.4544 3.73626 13.7065 3.7328C14.0622 3.72779 14.417 3.68425 14.7726 3.67385C15.07 3.66499 15.3682 3.6831 15.6663 3.6831C15.9126 3.6831 16.1593 3.66961 16.4055 3.67C16.5145 3.67 16.6242 3.70506 16.732 3.69851C17.1175 3.67385 17.5011 3.65613 17.8881 3.68271C18.2107 3.70467 18.536 3.68579 18.8602 3.68926C18.9829 3.69042 19.1064 3.71777 19.2276 3.7093C19.4538 3.6935 19.6788 3.65998 19.9573 3.62762L19.9565 3.62685Z" fill="currentColor"/>
<path d="M17.0237 26.7308C17.0319 26.7736 17.0394 26.8121 17.0421 26.826C16.8687 26.8533 16.7034 26.8849 16.5367 26.9034C16.3911 26.92 16.2522 26.94 16.0949 26.9211C15.9218 26.9003 15.7692 26.8491 15.6335 26.7763C15.5245 26.7177 15.4553 26.5809 15.3797 26.4719C15.2295 26.255 15.1162 26.0427 15.0697 25.7587C15.0166 25.4328 15.1209 25.1512 15.1343 24.8491C15.1425 24.663 15.1213 24.4754 15.1221 24.2885C15.1225 24.1922 15.1421 24.0959 15.1539 23.9996C15.1543 23.9961 15.1642 23.9938 15.1697 23.9907C15.0041 23.7649 15.3247 23.5187 15.1323 23.2764C15.0772 23.2071 15.159 23.0441 15.1528 22.9254C15.1413 22.7012 15.2015 22.4685 15.0859 22.2531C15.0812 22.2443 15.1185 22.2196 15.1221 22.2003C15.1366 22.114 15.1528 22.0273 15.1543 21.9403C15.1555 21.8925 15.117 21.8443 15.1173 21.7962C15.1177 21.585 15.1272 21.3743 15.1307 21.1632C15.1378 20.7544 15.1492 20.3456 15.1476 19.9364C15.1465 19.5947 15.1291 19.253 15.1205 18.9112C15.117 18.764 15.1244 18.6161 15.1126 18.4697C15.1087 18.4192 15.0603 18.3726 15.0253 18.3121C15.0583 18.2778 15.104 18.2304 15.1563 18.1765C15.0013 17.9565 15.2472 17.6768 15.0705 17.446C15.102 17.3539 15.139 17.2441 15.1764 17.1343C15.0996 17.0615 15.102 16.974 15.0819 16.8758C15.0249 16.6011 15.2015 16.3557 15.1288 16.096C15.1622 16.0995 15.196 16.1029 15.2574 16.1091C15.0513 15.8213 15.0697 15.5346 15.1146 15.2295C15.1669 14.8762 15.1858 14.5171 15.0965 14.1592C15.0694 14.0509 15.1272 13.9242 15.135 13.8055C15.1402 13.7258 15.089 13.6075 15.1272 13.5709C15.244 13.4588 15.1531 13.3548 15.1472 13.2511C15.1327 12.9984 15.0812 12.7452 15.0941 12.4948C15.0993 12.3973 15.1634 12.3041 15.1004 12.1997C15.076 12.1592 15.069 12.1088 15.0524 12.0587C15.0977 12.0109 15.1496 11.9562 15.1783 11.9261C15.1071 11.6322 15.032 11.3683 14.9816 11.1001C14.9317 10.8339 14.9065 10.563 14.8711 10.3003C14.8986 10.2278 14.9093 10.1315 14.9624 10.0722C15.1225 9.89381 15.172 9.62488 15.4442 9.53665C15.6669 9.46422 15.8754 9.34671 16.1004 9.28507C16.2424 9.24616 16.4084 9.29624 16.5544 9.26542C16.8116 9.21148 16.9131 9.46037 17.1122 9.51045C17.1267 9.51392 17.1444 9.5328 17.1476 9.54706C17.1818 9.71658 17.3092 9.81868 17.4261 9.93041C17.4426 9.9462 17.4324 9.98704 17.4402 10.0148C17.4705 10.1254 17.5095 10.2344 17.5315 10.3465C17.5437 10.4085 17.5244 10.476 17.5252 10.5411C17.5264 10.6378 17.5382 10.7341 17.5362 10.8308C17.5343 10.9418 17.5209 11.0523 17.5158 11.1629C17.5091 11.3012 17.502 11.4395 17.5012 11.5779C17.5 11.9057 17.5024 12.2336 17.504 12.5615C17.5063 12.9737 17.5118 13.3856 17.5114 13.7978C17.5111 14.3842 17.5004 14.971 17.5052 15.5574C17.5095 16.0717 17.5327 16.5861 17.5402 17.1004C17.5437 17.3559 17.5288 17.6113 17.5256 17.8667C17.5217 18.1954 17.5197 18.524 17.5189 18.8527C17.5181 19.2514 17.5134 19.6502 17.5213 20.0486C17.5284 20.4007 17.561 20.7528 17.5626 21.105C17.5634 21.3269 17.4819 21.5569 17.5201 21.7688C17.5626 22.0058 17.4414 22.2389 17.5579 22.48C17.5992 22.5656 17.5708 22.7232 17.5732 22.8461C17.5803 23.2406 17.5236 23.6355 17.5114 24.0308C17.5052 24.2288 17.5398 24.4284 17.5602 24.6272C17.5901 24.9154 17.6287 25.2032 17.6531 25.4918C17.6617 25.5946 17.6409 25.7002 17.6314 25.8042C17.6275 25.8474 17.6 25.8986 17.6157 25.9314C17.6908 26.0912 17.5504 26.1706 17.5008 26.2873C17.4347 26.4434 17.36 26.564 17.1889 26.6175C17.1688 26.6237 17.1822 26.7092 17.157 26.7277C17.1295 26.7478 17.0752 26.7323 17.0237 26.7323V26.7308Z" fill="currentColor"/>
<path d="M20.0151 13.3739C19.9643 13.3793 19.9214 13.3836 19.8793 13.3882C19.9462 13.2483 20.0276 13.1181 19.9383 12.9505C19.912 12.9012 19.9836 12.8095 19.9781 12.7398C19.96 12.5163 20.043 12.2901 19.9557 12.0671C19.9419 12.032 19.9907 11.9738 20.0312 11.8764C20.0135 11.7962 19.8864 11.6629 20.0371 11.5161C20.052 11.5015 20.0402 11.4603 20.041 11.4314C20.0426 11.3285 20.0505 11.2252 20.0438 11.1231C20.0335 10.969 20.0174 10.8145 19.9954 10.6616C19.9592 10.4119 19.9679 10.1765 20.1055 9.94804C20.2125 9.77081 20.3046 9.57663 20.4922 9.47954C20.6881 9.37821 20.9021 9.3289 21.1319 9.2923C21.4363 9.24375 21.6897 9.37012 21.9682 9.38361C22.0299 9.38669 22.0976 9.46529 22.1456 9.52269C22.2817 9.68489 22.4064 9.84055 22.384 10.0848C22.3505 10.4443 22.3576 10.808 22.36 11.1698C22.3627 11.5558 22.3891 11.9415 22.3887 12.3271C22.3887 12.8091 22.3741 13.2915 22.3608 13.7735C22.3517 14.1025 22.3317 14.4311 22.3191 14.7602C22.3025 15.2059 22.2553 15.6544 22.2868 16.0971C22.3037 16.3355 22.2553 16.5613 22.2601 16.7933C22.2601 16.8056 22.2487 16.8191 22.251 16.8302C22.3537 17.318 22.2062 17.8027 22.2321 18.292C22.2546 18.7108 22.1991 19.133 22.1853 19.5538C22.1763 19.8366 22.1794 20.1201 22.1782 20.4029C22.1759 20.9123 22.2058 21.4247 22.1578 21.9298C22.1358 22.1606 22.0976 22.3883 22.1043 22.6233C22.1122 22.9057 22.1 23.1885 22.0941 23.4713C22.0897 23.6901 22.0756 23.9089 22.0771 24.1274C22.0787 24.3632 22.0948 24.599 22.1019 24.8351C22.1055 24.9496 22.0988 25.0644 22.1039 25.1788C22.1114 25.3503 22.1358 25.5217 22.1322 25.6928C22.1302 25.7906 22.0834 25.887 22.0626 25.9848C22.0417 26.0815 22.0484 26.1898 22.0055 26.2753C21.9513 26.384 21.8608 26.4757 21.7833 26.5727C21.7357 26.6325 21.6834 26.6883 21.6346 26.7438C21.2058 26.8806 20.7463 26.9742 20.2593 26.8109C20.2519 26.802 20.2275 26.7477 20.1866 26.7288C20.0115 26.649 19.9301 26.4953 19.8266 26.3497C19.6992 26.1709 19.5627 26.0018 19.5528 25.776C19.5458 25.6153 19.5587 25.4535 19.565 25.2925C19.5698 25.173 19.5776 25.054 19.5855 24.9346C19.5863 24.9241 19.5993 24.9145 19.6044 24.9037C19.7027 24.6968 19.6425 24.4799 19.6579 24.268C19.6724 24.0665 19.6657 23.8596 19.6992 23.6666C19.7263 23.5113 19.7141 23.3823 19.6858 23.2378C19.6775 23.1954 19.7511 23.138 19.748 23.0918C19.7397 23.022 19.7334 22.9519 19.7232 22.8826C19.6889 22.6475 19.6941 22.4195 19.7586 22.1844C19.7975 22.0423 19.7527 21.8789 19.7503 21.7248C19.7483 21.5973 19.7566 21.4698 19.755 21.3418C19.7542 21.259 19.7436 21.1766 19.7228 21.098C19.7448 20.8572 19.7664 20.6164 19.7889 20.376C19.814 20.1039 19.7904 19.8331 19.7786 19.5611C19.7731 19.437 19.8133 19.3153 19.792 19.1824C19.7633 19.0005 19.7346 18.7975 19.79 18.6299C19.8443 18.4646 19.7802 18.319 19.8007 18.1621C19.8278 17.9518 19.9324 17.7229 19.7771 17.5137C19.7735 17.5091 19.7692 17.4995 19.7712 17.4972C19.9789 17.2471 19.8113 16.9582 19.8494 16.6888C19.8852 16.4369 19.9867 16.178 19.8907 15.9125C19.8691 15.8524 19.8986 15.7754 19.8986 15.7064C19.8986 15.6459 19.89 15.585 19.8841 15.5245C19.8829 15.5134 19.8691 15.4983 19.873 15.4929C20.0564 15.2379 19.7857 14.9351 19.9623 14.6769C19.9852 14.6434 19.9745 14.5841 19.9706 14.5378C19.9474 14.2797 19.9049 14.0223 19.9026 13.7642C19.9014 13.6382 19.9734 13.5119 20.0158 13.3735L20.0151 13.3739Z" fill="currentColor"/>
<path d="M9.85352 12.9597C9.85902 12.8777 9.86689 12.7952 9.86925 12.7132C9.87161 12.6334 9.8661 12.5537 9.86728 12.4743C9.86768 12.4435 9.88381 12.4123 9.88145 12.3822C9.86217 12.1518 9.84093 11.9218 9.81772 11.6918C9.81536 11.6679 9.78939 11.6452 9.78979 11.6221C9.79451 11.4063 9.81024 11.1906 9.80631 10.9748C9.80395 10.8338 9.80906 10.6766 9.74888 10.5564C9.65014 10.3587 9.79254 10.2258 9.84407 10.0771C9.88538 9.95805 9.99946 9.8575 10.0974 9.76464C10.1788 9.6872 10.2835 9.63326 10.3779 9.56892C10.4267 9.53579 10.4707 9.48802 10.5246 9.4726C10.6702 9.43138 10.82 9.40441 10.968 9.37089C11.0321 9.35664 11.0962 9.34084 11.1489 9.32812C11.1902 9.35972 11.2366 9.41212 11.2952 9.43523C11.3672 9.46374 11.4491 9.47337 11.5273 9.48147C11.8121 9.51036 11.9243 9.77158 12.1284 9.90874C12.1626 9.93185 12.1504 10.0131 12.1733 10.0613C12.3436 10.4196 12.3558 10.7741 12.237 11.1582C12.1772 11.3512 12.2433 11.5812 12.2496 11.7947C12.2567 12.032 12.2582 12.2697 12.2657 12.507C12.2744 12.7725 12.2925 13.038 12.296 13.3034C12.3003 13.6193 12.2409 13.9464 12.3062 14.2485C12.3692 14.5398 12.2791 14.8176 12.3416 15.1104C12.4286 15.5161 12.4085 15.9445 12.4246 16.3633C12.4372 16.6969 12.4372 17.031 12.4396 17.365C12.4427 17.81 12.4376 18.255 12.4467 18.7C12.4506 18.8984 12.4931 19.0961 12.4962 19.2945C12.4994 19.5071 12.4722 19.7198 12.4679 19.9329C12.4659 20.0381 12.4899 20.1436 12.4966 20.2496C12.5175 20.5863 12.5364 20.923 12.5544 21.2602C12.5725 21.5973 12.5954 21.9348 12.6036 22.2723C12.6095 22.5162 12.5855 22.7608 12.5922 23.0043C12.6001 23.2875 12.6284 23.5703 12.6445 23.8535C12.6493 23.9324 12.6406 24.0122 12.643 24.0912C12.6504 24.3736 12.6367 24.6591 12.6744 24.9376C12.7248 25.311 12.881 25.6593 12.759 26.0634C12.665 26.3743 12.4852 26.562 12.2276 26.7138C12.0907 26.7943 11.9538 26.9022 11.8043 26.9295C11.5356 26.9781 11.2512 27.0358 11.0136 26.8066C10.9133 26.7099 10.7827 26.644 10.658 26.5589C10.6706 26.5307 10.6607 26.5527 10.6509 26.5747C10.418 26.3489 10.265 26.0807 10.2445 25.7575C10.2296 25.5198 10.2453 25.2801 10.2359 25.0417C10.2292 24.8771 10.1891 24.7134 10.1899 24.5493C10.1902 24.4302 10.2441 24.3119 10.254 24.1917C10.2638 24.0704 10.254 23.9463 10.243 23.8242C10.2194 23.5626 10.1867 23.3017 10.1643 23.0401C10.156 22.9438 10.1336 22.8298 10.1745 22.7527C10.2548 22.6002 10.1922 22.4676 10.1804 22.322C10.1611 22.0873 10.1895 21.8496 10.1863 21.6131C10.1855 21.5437 10.1308 21.4763 10.1265 21.4062C10.1198 21.2987 10.1336 21.1897 10.1415 21.0818C10.1454 21.0224 10.1643 20.9627 10.1592 20.9045C10.147 20.7581 10.1281 20.6125 10.1069 20.4669C10.0947 20.3852 10.0471 20.3012 10.0596 20.2253C10.0943 20.0192 10.0482 19.8092 10.1143 19.6035C10.1407 19.5206 10.0986 19.4166 10.0856 19.3222C10.0451 19.0259 10.014 18.7327 10.051 18.4299C10.0766 18.2188 10.0282 17.9996 10.0168 17.7838C10.0124 17.6967 10.0242 17.6089 10.0191 17.5218C10.014 17.4309 9.99788 17.3403 9.98726 17.2494C9.98097 17.1974 9.96366 17.1427 9.97271 17.093C10.0219 16.8329 10.0431 16.5771 9.98805 16.3113C9.94675 16.1109 9.95265 15.8994 9.94989 15.6929C9.94753 15.5084 9.96169 15.3234 9.96878 15.1385C9.97389 15.0087 9.84997 14.9189 9.88341 14.7659C9.92865 14.5586 9.92668 14.3387 9.92275 14.1244C9.91882 13.8913 9.83935 13.6486 9.88656 13.4294C9.92708 13.2422 9.89561 13.1135 9.85312 12.9594L9.85352 12.9597Z" fill="currentColor"/>
</svg>
