<svg viewBox="0 0 145 147" fill="none" xmlns="http://www.w3.org/2000/svg">
    <path d="M64.3289 131.059C68.5273 131.059 72.6097 131.038 76.692 131.068C78.8572 131.084 81.0202 131.23 83.1854 131.246C85.1776 131.259 87.1721 131.116 89.162 131.148C92.2653 131.196 95.3663 131.371 98.4673 131.412C100.655 131.442 102.846 131.3 105.034 131.307C107.183 131.316 109.33 131.433 111.477 131.469C112.126 131.48 112.775 131.332 113.424 131.337C115.282 131.353 117.142 131.451 119 131.437C122.233 131.414 125.463 131.296 128.697 131.291C130.534 131.291 132.385 131.339 134.206 131.562C134.983 131.658 135.686 132.28 136.44 132.626C136.793 132.788 137.189 132.861 137.795 133.043C138.152 133.98 138.444 135.076 138.396 136.472C138.357 137.602 138.084 138.816 138.28 140.003C138.35 140.436 137.908 140.94 137.938 141.393C137.99 142.168 138.218 142.935 138.403 143.696C138.491 144.059 138.86 144.555 138.737 144.728C138.391 145.211 137.893 145.624 137.383 145.95C135.472 147.171 133.348 147.032 131.201 146.918C129.491 146.827 127.77 146.961 126.053 146.952C124.334 146.943 122.615 146.845 120.896 146.854C119.154 146.863 117.413 146.982 115.671 147C115.002 147.007 114.291 146.686 113.667 146.824C112.162 147.162 110.739 146.446 109.189 146.77C107.55 147.112 105.787 146.895 104.082 146.865C102.124 146.831 100.166 146.747 98.2101 146.663C97.0489 146.613 95.865 146.339 94.7334 146.485C92.7093 146.742 90.7034 146.777 88.6748 146.704C86.1384 146.615 83.5975 146.626 81.0589 146.617C77.86 146.606 74.6611 146.615 71.4621 146.624C68.8393 146.631 66.2164 146.679 63.5935 146.66C62.1181 146.651 60.6428 146.524 59.1674 146.49C56.4261 146.428 53.6848 146.369 50.9436 146.364C49.236 146.362 47.5079 146.314 45.8253 146.553C44.3203 146.768 42.9042 146.303 41.447 146.346C39.2522 146.41 37.0596 146.608 34.867 146.622C33.0228 146.635 31.1809 146.421 29.3344 146.394C26.3336 146.348 23.3282 146.316 20.3296 146.394C18.8975 146.43 17.5087 146.184 16.0993 146.077C15.7692 146.052 15.4322 146.068 15.1044 146.111C13.3672 146.351 11.7233 145.945 10.0795 145.467C9.80168 145.387 9.45105 145.558 9.04578 145.628C9.10498 145.298 9.15279 145.036 9.16418 144.977C8.5927 144.699 7.9051 144.585 7.61595 144.184C6.80085 143.049 5.6283 143.27 4.5286 143.104C3.50859 142.949 2.49541 142.735 1.49589 142.482C1.33424 142.441 1.10656 141.983 1.17259 141.846C1.68942 140.794 0.619324 140.129 0.571511 139.201C0.532806 138.459 0.0319083 137.734 0.00914022 136.994C-0.0363959 135.445 0.100212 133.889 0.154856 132.337C0.236821 130 0.307402 127.66 0.39392 125.32C0.446287 123.907 0.603387 122.493 0.573788 121.082C0.514591 118.31 0.940354 115.565 0.724057 112.767C0.50093 109.857 0.826514 106.909 0.874327 103.977C0.917586 101.323 0.869773 98.669 0.944907 96.0171C0.963122 95.386 1.29326 94.7595 1.50045 94.1398C1.72358 93.4723 1.97175 92.8161 2.28822 91.9322C2.42939 91.9139 2.83921 91.857 3.43118 91.7773C3.20578 91.3626 3.02591 91.0323 2.8005 90.6176C3.59739 89.6084 4.40338 88.4897 5.31637 87.4668C5.84004 86.8813 6.5504 86.4644 7.15603 85.9472C8.39006 84.8878 9.66735 83.8717 10.8103 82.7212C11.5753 81.9511 12.0785 80.9259 12.8139 80.124C13.3694 79.518 14.2005 79.1626 14.7515 78.5543C15.628 77.586 16.3407 76.4742 17.1831 75.4741C17.8684 74.6607 18.6402 73.918 19.3757 73.1457C20.0815 72.403 20.7736 71.6466 21.5045 70.9289C22.397 70.0518 23.3396 69.2271 24.2253 68.3408C24.8582 67.7075 25.4115 66.9921 26.0376 66.3474C26.9142 65.4452 27.8499 64.6022 28.7151 63.6909C29.6623 62.6953 30.5457 61.6359 31.4837 60.6312C32.062 60.0138 32.6859 59.4397 33.3029 58.8587C34.9536 57.305 36.6498 55.799 38.2549 54.1997C40.5272 51.9351 42.7243 49.5953 44.9761 47.3103C45.6523 46.6245 46.4196 46.0276 47.1254 45.3692C48.7965 43.8109 50.4768 42.2616 52.1093 40.6623C53.0564 39.7351 53.8556 38.6552 54.8301 37.7621C55.9093 36.7688 56.9794 35.7276 58.0859 34.8163C60.5585 32.7795 62.3071 30.0229 65.0871 28.2709C66.6262 27.3003 67.694 25.6008 69.0146 24.268C69.7067 23.5686 70.5013 22.9694 71.2163 22.2927C72.1566 21.4042 72.999 20.3949 74.0099 19.5976C75.5217 18.4083 76.4825 16.5675 78.4155 15.8886C78.9597 14.2505 80.9587 14.2778 81.792 12.9086C82.3612 11.9745 83.1126 11.1133 83.9231 10.3775C85.1754 9.24288 86.6052 8.30652 87.8551 7.16967C88.8865 6.23103 89.7267 5.08279 90.7262 4.1077C91.2408 3.60648 91.9101 3.25563 92.5317 2.87288C93.4925 2.28053 94.4556 1.69274 95.446 1.15508C95.9515 0.881685 96.5025 0.644746 97.0626 0.528555C98.0848 0.316678 99.1253 0.175426 100.164 0.0751824C100.412 0.0523999 100.69 0.307565 100.995 0.455651C101.115 0.298451 101.3 0.0546781 101.341 0C101.924 0.0569564 102.313 0.0797389 102.7 0.136695C103.403 0.241495 104.107 0.355408 104.808 0.48299C105.423 0.594625 106.026 0.779163 106.646 0.845233C107.893 0.977372 108.881 1.55605 109.74 2.43318C109.949 2.64733 110.243 2.83415 110.528 2.90478C111.288 3.09615 111.529 3.55636 111.361 4.39248C111.759 4.30818 112.112 4.233 112.244 4.20566C113.094 4.90508 113.906 5.48832 114.617 6.18091C115.571 7.11271 116.372 8.21311 117.374 9.08341C118.191 9.78966 119.277 10.1792 120.12 10.8627C121.147 11.6966 121.996 12.7491 123.014 13.5989C123.769 14.23 124.733 14.6127 125.495 15.237C126.911 16.3966 128.389 17.5312 129.589 18.8959C131.269 20.8073 132.51 23.0651 134.448 24.8148C135.677 25.922 136.526 27.4461 137.569 28.7653C138.837 30.3714 140.361 31.8318 141.342 33.5974C142.162 35.0715 143.61 36.2493 143.641 38.2223C143.653 38.8602 144.627 39.4936 144.017 40.2864C145.251 41.4119 144.789 42.8813 144.967 44.1845C145.03 44.6561 144.996 45.155 144.921 45.6289C144.743 46.7521 144.885 48.2284 144.222 48.9028C143.252 49.8915 143.5 51.2266 142.553 52.2723C141.474 53.4661 140.258 54.669 139.384 56.0907C139.295 56.2342 139.124 56.364 138.965 56.4233C137.421 57.0042 136.629 58.353 135.668 59.5536C135.017 60.3692 134.261 61.1097 133.494 61.8205C132.492 62.7477 131.388 63.5656 130.404 64.5111C128.669 66.1765 126.982 67.8897 125.297 69.603C124.15 70.7695 123.061 71.9952 121.905 73.1502C120.416 74.6402 119.043 76.3216 117.326 77.4903C115.53 78.7137 114.362 80.4247 112.891 81.8965C111.363 83.4229 109.76 84.8764 108.249 86.4211C106.805 87.8951 105.45 89.4603 104.03 90.9571C102.919 92.1281 101.78 93.2718 100.626 94.3995C99.6627 95.3404 98.6222 96.1993 97.6841 97.163C96.3568 98.5277 95.1136 99.979 93.7931 101.35C92.8231 102.357 91.8009 103.314 90.7763 104.267C89.3214 105.62 87.8438 106.946 86.3798 108.29C85.403 109.185 84.4126 110.067 83.4678 110.994C81.3344 113.086 78.987 114.958 77.2361 117.44C76.5895 118.358 75.5354 118.98 74.7089 119.782C74.0919 120.381 73.4976 121.014 72.9739 121.695C72.0814 122.85 71.2732 124.019 70.0801 124.965C68.6344 126.113 67.5756 127.744 66.1686 128.952C65.4309 129.585 64.7114 130.111 64.3266 131.052L64.3289 131.059ZM67.2 47.2556C66.9495 47.6269 66.7947 47.9482 66.5579 48.1874C65.8521 48.9028 65.1099 49.5817 64.3858 50.2788C62.8126 51.7939 61.2552 53.3271 59.6637 54.8239C59.0126 55.4368 58.1132 55.8583 57.6442 56.5736C56.7881 57.8791 55.7317 58.8838 54.509 59.8384C53.2705 60.8066 52.2687 62.087 51.1849 63.2467C50.6681 63.798 50.2537 64.4564 49.6959 64.9554C47.8835 66.5775 45.9665 68.088 44.2019 69.7579C42.7903 71.093 41.554 72.6103 40.2198 74.0274C39.5345 74.7541 38.79 75.4217 38.0956 76.1393C37.1461 77.1235 36.2286 78.1351 35.2814 79.1215C34.3639 80.0784 33.4372 81.0284 32.4946 81.9648C31.4063 83.047 30.1381 83.8922 29.3298 85.3161C28.5603 86.6694 27.3877 87.8176 26.2789 88.9454C24.9356 90.3146 23.4739 91.5699 22.06 92.8731C21.0263 93.8231 21.0446 94.7458 22.0828 95.6753C22.6634 96.1971 23.1802 96.7894 23.7585 97.3157C24.519 98.006 25.3341 98.6371 26.0877 99.3342C27.2033 100.364 28.2734 101.442 29.3981 102.46C29.5302 102.581 29.9696 102.565 30.1153 102.437C30.9874 101.681 31.8366 100.897 32.6494 100.079C33.6034 99.1223 34.4754 98.0789 35.4522 97.1471C36.5997 96.0535 37.861 95.0784 39.0017 93.9803C39.9238 93.0918 40.6843 92.0301 41.62 91.1576C43.38 89.5127 45.2128 87.9429 47.0206 86.3482C47.5784 85.8561 48.1818 85.4095 48.7169 84.8946C49.6777 83.9719 50.5907 82.9991 51.5515 82.0764C52.4007 81.2608 53.3069 80.5044 54.1516 79.682C55.29 78.5748 56.3715 77.4083 57.5144 76.3056C58.7348 75.13 60.0121 74.0114 61.2461 72.8495C63.6003 70.6328 65.9409 68.4024 68.2837 66.1719C68.7596 65.7186 69.2013 65.2265 69.6862 64.7822C71.0546 63.5269 72.4548 62.3057 73.805 61.0322C75.3669 59.5604 76.8741 58.0272 78.4383 56.5554C79.3741 55.6737 80.3941 54.8809 81.3367 54.0038C82.195 53.2064 83.0078 52.3589 83.8275 51.5205C85.1389 50.1786 86.4595 48.8458 87.7163 47.4561C87.8665 47.2897 87.78 46.6359 87.5797 46.4627C85.6353 44.7882 83.6271 43.2003 81.8808 41.2911C80.8904 40.2089 79.6791 39.309 78.4793 38.4547C78.1218 38.1995 77.268 38.1357 76.972 38.3818C75.508 39.5961 74.1442 40.9357 72.7645 42.248C72.0131 42.9633 71.3005 43.7197 70.5583 44.4465C69.8388 45.1505 69.1671 45.9274 68.352 46.4946C67.8921 46.8159 67.6713 47.0619 67.7487 47.5905C67.7532 47.6224 67.6531 47.6725 67.587 47.7249C67.4755 47.5882 67.3684 47.4561 67.2 47.2487V47.2556ZM85.97 71.3003C85.1981 71.7856 84.4855 72.0977 83.9527 72.5989C82.6162 73.8519 81.3799 75.2121 80.0639 76.4879C78.6796 77.8298 77.2634 79.142 75.8359 80.4384C73.2563 82.7781 70.6288 85.0655 68.1949 87.5693C66.4281 89.3874 64.4906 91.0414 62.6486 92.7888C61.4055 93.9689 60.2056 95.1969 58.967 96.3816C58.2134 97.1015 57.4256 97.7896 56.6401 98.4776C55.6907 99.3092 54.673 100.072 53.7827 100.963C52.8515 101.893 52.1753 103.125 51.1394 103.891C49.6982 104.955 48.2683 105.971 47.1709 107.42C46.3626 108.486 45.4383 109.463 44.5549 110.47C43.8035 111.327 43.1341 112.298 42.2462 112.981C41.3833 113.649 41.6747 114.296 42.064 114.847C42.7197 115.781 43.5121 116.628 44.3112 117.449C45.65 118.82 47.0252 120.155 48.414 121.477C49.894 122.885 49.9691 122.937 51.4763 121.609C52.337 120.85 52.8743 119.727 53.7213 118.948C55.0509 117.729 56.5309 116.674 57.9288 115.526C58.2339 115.275 58.4707 114.94 58.7166 114.624C59.3359 113.822 59.8914 112.965 60.5676 112.213C61.4988 111.179 62.471 110.167 63.5161 109.249C64.5475 108.34 64.864 106.736 66.394 106.317C66.4828 106.292 66.5101 106.076 66.5807 105.957C67.817 103.827 69.6885 102.321 71.5805 100.822C72.6552 99.9699 73.6843 99.0563 74.6679 98.1017C74.9798 97.7987 74.9639 97.1289 75.2895 96.8783C76.2138 96.1652 77.3545 95.705 78.1992 94.919C80.1163 93.1374 81.9104 91.2214 83.7523 89.3577C83.9595 89.1481 84.1485 88.9226 84.3534 88.713C84.8224 88.2346 85.2801 87.7425 85.7742 87.2936C86.6325 86.5145 87.5728 85.8173 88.3743 84.9858C89.1188 84.2112 89.713 83.2953 90.4006 82.4615C90.9539 81.7894 91.5459 81.1492 92.1242 80.4999C92.2357 80.3746 92.3587 80.2584 92.4862 80.149C93.3172 79.4359 94.2006 78.7798 94.9679 78.0029C95.8923 77.0666 96.6322 75.9365 97.6113 75.0731C98.3011 74.4671 98.5812 73.4874 99.5944 73.1525C100.141 72.9725 100.582 72.4075 101.015 71.9633C102.215 70.7262 103.358 69.4367 104.574 68.2178C105.323 67.466 105.831 66.7164 105.081 65.7163C104.316 64.6934 103.536 63.6795 102.693 62.7204C102.365 62.3445 101.807 62.1782 101.439 61.8296C100.628 61.0641 99.9063 60.2006 99.0684 59.4693C98.8498 59.2779 98.1987 59.2529 97.9938 59.4306C97.017 60.2804 96.1336 61.235 95.2024 62.1371C94.1687 63.1396 93.2216 64.2719 92.0468 65.0715C91.1611 65.6753 90.5828 66.5023 89.8382 67.1972C89.6857 67.3407 89.7495 67.7143 89.7153 67.9695C88.1398 68.7532 86.6598 69.6713 85.9654 71.298L85.97 71.3003ZM117.08 55.7125C118.904 54.5711 119.653 52.4546 121.652 51.623C122.221 51.3861 122.665 50.8028 123.107 50.3244C123.856 49.5133 124.519 48.618 125.293 47.8343C126.142 46.9708 127.073 46.2099 127.822 45.2211C128.774 43.9612 129.029 42.5943 128.287 41.8607C127.403 40.9881 126.47 40.1019 125.835 39.0539C124.919 37.5457 123.949 36.1855 122.538 35.0601C121.581 34.2969 121.005 33.0712 120.215 32.087C119.719 31.4673 119 30.9888 118.642 30.3099C118.007 29.1047 116.848 28.5648 115.889 27.7628C115.45 27.396 115.095 26.9176 114.626 26.5986C113.037 25.5096 111.377 24.514 110.391 22.7643C110.341 22.6755 110.248 22.5935 110.154 22.5502C109.346 22.1697 108.533 21.7984 107.723 21.4247C107.588 21.3632 107.42 21.329 107.329 21.2288C106.111 19.8732 104.852 18.5496 103.715 17.1279C103.098 16.3556 101.603 16.1414 100.68 16.547C99.7924 16.9366 99.3826 17.6565 98.761 18.2488C97.395 19.552 95.8262 20.641 94.3896 21.8713C94.0048 22.2016 93.8636 22.8099 93.4834 23.1516C92.0468 24.4457 90.5577 25.6828 89.0004 27.0156C90.3391 28.2025 91.539 29.2619 92.7321 30.3304C94.1482 31.5994 95.6054 32.8274 96.9555 34.1647C98.3057 35.5021 99.5283 36.9693 100.842 38.3453C101.577 39.1154 102.404 39.7988 103.155 40.5552C104.271 41.6784 105.366 42.8244 106.452 43.9772C107.609 45.2052 108.761 46.4377 109.879 47.6998C110.63 48.5473 111.293 49.4769 112.046 50.3221C112.802 51.1719 113.635 51.9556 114.412 52.7872C115.341 53.7828 116.247 54.8012 117.08 55.717V55.7125ZM33.3666 130.847C33.2938 130.751 33.2232 130.628 33.123 130.537C32.0347 129.555 30.9145 128.605 29.8581 127.591C28.6104 126.391 27.3877 125.163 26.2106 123.894C25.3819 123.001 24.6533 122.014 23.8769 121.073C22.9958 120.003 22.1556 118.895 21.2176 117.875C19.9904 116.542 18.6835 115.284 17.4199 113.981C17.0966 113.649 16.8165 113.273 16.5183 112.917C16.3976 112.979 16.2792 113.038 16.1585 113.099C16.1585 115.293 16.1722 117.487 16.154 119.679C16.1449 120.905 16.0515 122.13 16.0606 123.356C16.0652 123.866 16.1858 124.596 16.1244 124.871C15.8466 126.106 15.628 127.348 16.0424 128.507C16.3407 129.346 16.0925 129.89 15.5256 130.845H33.3643L33.3666 130.847Z"
          fill="#B8AE91"/>
</svg>
