<svg viewBox="0 0 32 32" fill="none" xmlns="http://www.w3.org/2000/svg">
    <path d="M19.8679 31.245C19.7489 31.1738 19.6135 31.0923 19.5154 31.0337C19.6291 30.9244 19.7924 30.8263 19.8531 30.6909C19.9174 30.5461 19.8827 30.3656 19.8922 30.2009C19.894 30.1637 19.8922 30.1249 19.9035 30.0901C20.1484 29.3144 19.8436 28.5378 19.8966 27.7747C19.9556 26.923 19.8497 26.0831 19.8775 25.2377C19.9026 24.4754 19.9061 23.7107 19.8887 22.9484C19.8696 22.0998 19.8132 21.2513 19.7811 20.4027C19.7559 19.7433 19.7307 19.0839 19.729 18.4245C19.7264 17.4889 19.7568 16.5532 19.7507 15.6183C19.7472 15.0547 19.6899 14.4919 19.6778 13.9283C19.6699 13.5642 19.386 13.337 19.2124 13.0544C19.2002 13.0354 19.1551 13.0346 19.1394 13.0148C18.7996 12.6016 18.4052 12.3333 17.956 12.2098C17.7875 12.2319 17.5991 12.3087 17.4532 12.266C16.9878 12.129 16.5945 12.2683 16.1777 12.4488C16.1274 12.3135 16.0709 12.1631 16.0145 12.0135C15.9841 12.0087 15.9537 12.0047 15.9233 12C15.9025 12.1187 15.8825 12.2375 15.8539 12.4045C15.8287 12.4282 15.7549 12.5581 15.6516 12.5834C15.4128 12.6404 15.1584 12.676 14.9127 12.6665C14.6331 12.6554 14.3049 12.6752 14.324 12.2501C14.3309 12.0966 14.0778 12.302 13.9371 12.1911C13.4301 12.8972 13.2517 13.1415 13.2091 13.8325C13.17 14.4602 13.1058 15.0864 13.0511 15.7133C13.0381 15.8614 12.9938 16.0094 13.0007 16.1558C13.0311 16.8033 13.0962 17.4501 13.1075 18.0984C13.1162 18.5939 13.0494 19.0902 13.045 19.5866C13.0433 19.7916 13.1136 19.9982 13.1527 20.2032C13.1596 20.2396 13.1883 20.2792 13.1796 20.3109C13.0181 20.9156 13.2916 21.518 13.1883 22.1283C13.1536 22.3349 13.1388 22.5408 13.0824 22.7482C13.0537 22.8519 13.2603 23.0038 13.2378 23.1139C13.1596 23.5025 13.3689 23.9055 13.1197 24.2941C13.0537 24.397 13.2647 24.6218 13.2673 24.792C13.2829 25.8781 13.2612 26.9649 13.2838 28.051C13.2916 28.408 13.2056 28.7468 13.1761 29.0888C13.1536 29.35 12.7915 29.7268 13.2977 29.9603C13.3454 29.9825 13.3576 30.1788 13.3081 30.2476C13.0155 30.6537 13.3758 30.9814 13.4653 31.3289C13.5382 31.6115 14.5263 32.0398 14.9352 31.9147C15.0724 31.8728 15.161 31.7002 15.2565 31.6028C16.1995 31.6788 17.1467 31.7548 18.0749 31.83C18.0567 31.8617 18.0185 31.9306 17.9803 31.9986C18.0584 31.9986 18.1374 32.0026 18.2147 31.997C18.3806 31.9852 18.5664 32.005 18.707 31.9432C18.8989 31.8585 19.0509 31.701 19.2306 31.5894C19.4129 31.477 19.6092 31.3836 19.8679 31.245Z"
          fill="currentColor"/>
    <path d="M16.2379 7.04461C16.2379 7.04461 16.2648 6.97938 16.3114 6.86504C16.4332 6.93993 16.5471 7.00918 16.7052 7.10661C17.1195 6.92865 17.5584 6.62105 18.0249 6.56791C18.6772 6.49302 18.9278 5.93661 19.3398 5.60646C19.6482 5.35925 19.815 4.83988 19.8996 4.41149C20.0554 3.62156 20.0704 2.86383 19.6474 2.06746C19.3453 1.50057 19.0275 1.00696 18.542 0.634139C18.2233 0.389348 17.8596 0.144557 17.4817 0.0583972C17.0326 -0.0438675 16.5471 0.0189407 16.0766 0.0205512C15.5026 0.0229669 15.1404 0.510133 14.6407 0.68648C14.2675 0.817733 13.9734 1.03112 13.8532 1.44501C13.8263 1.53681 13.7322 1.64793 13.6468 1.67531C13.3938 1.75422 13.3622 1.94748 13.3037 2.1665C13.2475 2.37828 13.0538 2.56187 13.0269 2.77204C12.9478 3.40253 13.0609 3.99036 13.261 4.61924C13.4681 5.27148 13.805 5.7659 14.2549 6.18864C14.5885 6.50188 15.0337 6.69755 15.4448 6.91577C15.5461 6.96892 15.7097 6.88356 15.8394 6.89967C15.9588 6.91496 16.0719 6.9826 16.2379 7.04622V7.04461Z"
          fill="currentColor"/>
</svg>
