<svg viewBox="0 0 32 32" fill="none" xmlns="http://www.w3.org/2000/svg">
    <path d="M16.8796 28.0151C16.8582 28.0914 16.8287 28.1444 16.8296 28.1973C16.8412 28.6596 16.868 29.1218 16.8716 29.584C16.876 30.1548 16.8751 30.7257 16.8501 31.2956C16.8376 31.5918 16.5134 31.932 16.2213 31.9759C15.5201 32.0836 15.0422 31.8422 15.0055 31.0021C14.9913 30.6727 15.0699 30.3406 15.0859 30.0085C15.0958 29.8048 15.0591 29.6002 15.0547 29.3955C15.0466 29.0213 15.0484 28.6461 15.0422 28.2718C15.0422 28.2413 15.0091 28.2117 14.9832 28.1677C14.876 28.2772 14.7778 28.3804 14.6759 28.4801C14.5205 28.6326 14.366 28.787 14.2043 28.9324C14.0783 29.0455 13.9256 29.1317 13.813 29.2555C13.6004 29.4889 13.4155 29.7465 13.2038 29.9807C13.1056 30.0893 12.9778 30.1746 12.8537 30.2554C12.491 30.4905 12.2516 30.4789 11.9193 30.224C11.4548 29.8676 11.3056 29.3408 11.6093 28.8256C11.7558 28.577 12.0265 28.3831 12.2775 28.2207C12.6884 27.9541 12.9948 27.5888 13.3235 27.2397C13.5093 27.0422 13.7192 26.8672 13.9184 26.6823C14.098 26.5163 14.2802 26.3529 14.4553 26.1824C14.5705 26.0711 14.6643 25.9356 14.7867 25.8342C14.9573 25.6914 14.9698 25.5128 14.9591 25.3136C14.9403 24.9591 14.9216 24.6045 14.918 24.25C14.9126 23.7232 14.9278 23.1972 14.9198 22.6704C14.9144 22.297 14.8858 21.9245 14.8599 21.5521C14.8582 21.5197 14.8001 21.4785 14.7608 21.465C14.4901 21.3734 14.2123 21.3016 13.9461 21.1984C13.6147 21.0701 13.2905 20.9238 12.968 20.7739C12.6161 20.6096 12.5875 20.6123 12.3293 20.9076C12.0319 21.2478 11.7353 21.5826 11.3887 21.8823C10.9537 22.2575 10.5606 22.691 10.206 23.1443C10.072 23.3157 10.0828 23.6101 10.0542 23.8515C10.0229 24.1091 10.0202 24.3712 10.0113 24.6315C10.005 24.8065 10.0158 24.9824 10.0113 25.1583C10.0015 25.4958 10.0006 25.8351 9.96573 26.1698C9.94966 26.3251 9.85765 26.4705 9.80852 26.624C9.79244 26.6742 9.78529 26.7703 9.80852 26.7837C9.99253 26.8896 9.94787 27.0683 9.95323 27.2226C9.96037 27.4165 9.94698 27.6113 9.93179 27.8051C9.88623 28.3849 9.45032 28.8669 8.75536 28.6389C8.26942 28.4792 8.13275 28.3176 8.13901 27.7926C8.14347 27.4228 8.09881 27.0467 8.32748 26.7039C8.39537 26.6015 8.34446 26.4175 8.34535 26.2704C8.34624 25.8745 8.34535 25.4796 8.34535 25.0838L8.2855 25.0623C8.08988 25.2391 7.888 25.4096 7.70041 25.5954C7.15373 26.1366 6.62492 26.6976 6.06484 27.2253C5.63697 27.6274 4.96791 27.4739 4.66777 26.9004C4.42034 26.4292 4.61239 26.0926 4.89913 25.7803C5.11708 25.5425 5.40382 25.3701 5.64322 25.1511C5.88083 24.9339 6.10236 24.697 6.32389 24.4618C6.52041 24.2536 6.70799 24.0364 6.94292 23.7752C6.55614 23.7645 6.20062 23.7546 5.8451 23.7447C5.83795 23.7447 5.82902 23.7528 5.82366 23.7501C5.36005 23.5419 4.90181 23.8578 4.4391 23.7663C4.25776 23.7303 4.07018 23.7232 3.89063 23.6792C3.52439 23.5894 3.37968 23.4153 3.32966 23.0419C3.2448 22.4101 3.49938 21.9515 4.10055 21.8007C4.3587 21.736 4.65527 21.8231 4.93397 21.8446C5.39489 21.8805 5.85403 21.9281 6.31495 21.955C6.69281 21.9775 7.07244 21.9757 7.45119 21.9882C7.82368 22.0008 8.19707 22.0268 8.56956 22.0277C8.66246 22.0277 8.7768 21.9739 8.84379 21.9057C9.00101 21.7468 9.13053 21.561 9.27971 21.3941C9.37886 21.2837 9.49141 21.185 9.5995 21.0826C9.75939 20.9319 9.92286 20.7847 10.081 20.6321C10.3239 20.3969 10.5651 20.1609 10.8018 19.9194C10.9448 19.774 11.0895 19.6278 11.2065 19.4626C11.2503 19.4007 11.2538 19.2652 11.2163 19.196C11.0948 18.9717 10.9278 18.7706 10.8117 18.5444C10.6803 18.2886 10.5678 18.0194 10.4767 17.7456C10.3838 17.4674 10.3347 17.1757 10.2516 16.8939C10.1953 16.7036 10.0167 16.7682 9.89517 16.7745C9.36546 16.8032 8.84201 16.8777 8.30605 16.8068C7.98179 16.7637 7.64324 16.8248 7.31184 16.8373C7.10371 16.8454 6.89379 16.8355 6.68923 16.8643C6.56596 16.8813 6.43108 16.9325 6.33729 17.0115C6.10593 17.2062 5.8978 17.4288 5.67448 17.6343C5.22785 18.0454 4.7839 18.4592 4.32565 18.8559C4.20327 18.9618 4.02909 19.004 3.88348 19.0839C3.83793 19.109 3.76736 19.1772 3.77629 19.1987C3.85222 19.3953 3.69947 19.494 3.60211 19.599C3.43506 19.7794 3.26445 19.967 3.06168 20.099C2.57753 20.4149 2.08534 20.3978 1.74143 19.8001C1.49132 19.3657 1.50829 19.1242 1.89597 18.7482C2.11482 18.5355 2.34081 18.3093 2.60701 18.1747C2.9393 18.0068 3.13314 17.7214 3.37343 17.4719C3.54583 17.2933 3.72806 17.1246 3.90582 16.9513C3.90224 16.9271 3.89956 16.9038 3.89599 16.8795C3.71555 16.8795 3.53511 16.8759 3.35556 16.8795C3.03309 16.8876 2.71063 16.9109 2.38816 16.9109C1.81915 16.9109 1.24835 16.9145 0.680231 16.8813C0.326498 16.8616 0.0763833 16.49 0.0156412 16.1436C-0.021876 15.9326 0.0138547 15.7675 0.0620911 15.5754C0.12462 15.3241 0.29434 15.2003 0.503365 15.1267C0.892829 14.9902 1.29033 14.9983 1.69766 15.0701C1.94956 15.1141 2.21576 15.0782 2.4748 15.0782C2.90178 15.0782 3.32787 15.0782 3.75485 15.0782C3.76915 15.0558 3.78254 15.0342 3.79684 15.0118C3.55298 14.7551 3.30554 14.5011 3.06525 14.2399C2.98218 14.1501 2.92233 14.0389 2.84194 13.9473C2.77047 13.8656 2.69812 13.7687 2.60433 13.7256C2.21218 13.5461 1.96743 13.2167 1.745 12.8757C1.39752 12.3434 1.7325 11.6317 2.35868 11.5132C2.84551 11.4208 3.24748 11.5267 3.51457 11.9674C3.95941 12.7024 4.624 13.2347 5.20105 13.8477C5.52709 14.1941 5.84331 14.5513 6.17918 14.8888C6.25957 14.9696 6.39624 15.0324 6.50969 15.036C6.73747 15.0423 6.96615 14.9893 7.19482 14.9848C7.42707 14.9804 7.65932 15.0082 7.89246 15.0163C7.99966 15.0199 8.10685 15.0091 8.21404 15.0082C8.57045 15.0064 8.92687 15.0082 9.28328 15.0037C9.55751 14.9992 9.8371 15.0127 10.1033 14.9615C10.1935 14.9445 10.2775 14.7641 10.3186 14.642C10.4347 14.2991 10.5088 13.941 10.6348 13.6018C10.7 13.4258 10.8349 13.2751 10.9456 13.118C11.219 12.7303 11.2083 12.6638 10.8733 12.3632C10.4847 12.0149 10.0819 11.6864 9.75939 11.2637C9.55037 10.99 9.26363 10.7754 9.01173 10.534C8.86166 10.3895 8.71963 10.2342 8.55884 10.1041C8.47309 10.035 8.35518 9.97754 8.24709 9.96767C7.93266 9.93985 7.61555 9.94434 7.29933 9.92639C6.70263 9.89318 6.10593 9.86087 5.51102 9.80971C5.35916 9.79624 5.21534 9.702 5.0626 9.6661C4.99292 9.64995 4.90895 9.67687 4.83571 9.69931C4.77764 9.71726 4.72583 9.78817 4.67224 9.78637C4.31047 9.7774 3.94065 9.79624 3.58781 9.72803C3.13582 9.64097 2.89017 9.11502 3.01612 8.66177C3.18048 8.0712 3.38236 7.96978 3.96298 7.97875C4.30332 7.98414 4.62936 8.00209 4.95987 8.16005C5.17515 8.26327 5.47975 8.1789 5.74326 8.1789C6.01571 8.1789 6.28816 8.1789 6.59276 8.1789C6.55971 8.1071 6.5481 8.04607 6.51237 8.01106C6.18275 7.68706 5.83974 7.37561 5.51727 7.04443C5.11976 6.63515 4.7169 6.22768 4.35602 5.78699C4.05142 5.41452 4.28277 4.71534 4.73923 4.50981C5.2082 4.29889 5.54228 4.35364 5.90852 4.74227C6.13273 4.98011 6.31496 5.25655 6.53023 5.50247C6.66869 5.66044 6.83394 5.79417 6.9858 5.94137C7.26092 6.20703 7.53426 6.4727 7.84512 6.77517C7.85673 6.64862 7.86656 6.53643 7.87817 6.42424C7.89425 6.26627 7.91837 6.1092 7.92641 5.95034C7.94338 5.63262 8.01752 5.29963 7.94695 5.00166C7.85048 4.59149 7.89336 4.20465 7.94695 3.80705C7.98 3.56741 8.09434 3.37982 8.29354 3.23712C8.49184 3.09531 9.09301 3.098 9.30293 3.22545C9.92375 3.60151 9.95948 4.17144 9.78529 4.77279C9.65309 5.23052 9.70937 5.68647 9.68436 6.14331C9.65398 6.68542 9.63791 7.22932 9.61647 7.77232C9.60753 7.9985 9.58699 8.22647 9.60039 8.45175C9.60575 8.5433 9.67453 8.64113 9.73706 8.71742C9.83889 8.83948 9.95859 8.94808 10.0729 9.05937C10.5124 9.48749 10.9546 9.91113 11.3905 10.3428C11.696 10.6453 11.9863 10.9639 12.2981 11.2601C12.3588 11.3176 12.5178 11.3552 12.5759 11.3176C13.127 10.9478 13.7228 10.683 14.3561 10.4981C14.4651 10.4667 14.5929 10.473 14.6831 10.4164C14.7706 10.3617 14.8671 10.2531 14.8787 10.1579C14.9189 9.82676 14.9645 9.48749 14.9323 9.159C14.8957 8.77576 14.9323 8.40418 14.9627 8.02632C14.9805 7.79566 14.91 7.55961 14.9055 7.32535C14.9019 7.12072 14.9234 6.91249 14.9582 6.71055C15.0055 6.43231 14.8716 6.24563 14.6893 6.07151C14.4544 5.84623 14.2221 5.61915 13.9854 5.39477C13.8398 5.25745 13.6844 5.1309 13.5433 4.98909C13.2163 4.6588 12.9082 4.30787 12.5678 3.99283C12.3543 3.79538 12.1015 3.63652 11.855 3.47945C11.3976 3.18775 11.3289 2.41049 11.6862 1.95276C12.0015 1.54797 12.4678 1.48604 12.8956 1.7903C13.2128 2.01558 13.5174 2.25612 13.7005 2.62949C13.7809 2.79284 13.9756 2.89875 14.1167 3.03248C14.2516 3.15993 14.382 3.29097 14.5196 3.41572C14.6322 3.51804 14.7519 3.61139 14.8662 3.71191C14.9064 3.74691 14.9377 3.79179 14.9761 3.83487C14.9957 3.81692 15.0359 3.79628 15.0359 3.77743C15.0279 3.43368 15.0127 3.09082 15.0064 2.74707C15.0046 2.67168 15.0261 2.59449 15.0457 2.51999C15.1726 2.03084 14.9243 1.55336 15.0011 1.06959C15.0386 0.831745 15.1047 0.593003 15.1931 0.368621C15.3048 0.0850026 15.5951 0.0446139 15.8416 0.0132005C16.1114 -0.0209055 16.4106 -0.00564755 16.5857 0.264508C16.6965 0.435038 16.8287 0.626211 16.8466 0.817385C16.8877 1.25358 16.8689 1.69517 16.8653 2.13495C16.8617 2.54961 16.8484 2.96427 16.8376 3.37893C16.8341 3.50548 16.8189 3.63293 16.8216 3.75948C16.8233 3.83218 16.8519 3.90398 16.8662 3.9677C17.1583 3.69934 17.4513 3.4597 17.7077 3.18506C17.8863 2.99478 18.132 2.83951 18.1632 2.53794C18.1668 2.50474 18.1883 2.46704 18.2124 2.44281C18.4321 2.22022 18.642 1.98417 18.8796 1.78312C19.1432 1.56054 19.4746 1.58836 19.8006 1.84954C19.9748 1.98955 20.2115 2.09098 20.2151 2.37549C20.2178 2.63847 20.2329 2.90593 20.0498 3.12223C19.8855 3.3152 19.7166 3.50638 19.5299 3.67691C19.4281 3.77025 19.3343 3.93719 19.1369 3.83128C19.1083 3.81602 18.9984 3.87257 18.9913 3.90847C18.8671 4.52238 18.3642 4.86164 17.9891 5.28527C17.78 5.52043 17.563 5.75289 17.345 5.98265C17.2333 6.10023 17.1145 6.21062 16.9984 6.32461C16.8501 6.47091 16.7903 6.63067 16.7921 6.85595C16.7956 7.35587 16.7036 7.85759 16.7278 8.35482C16.7438 8.68331 16.7465 9.00732 16.7295 9.33402C16.7153 9.60776 16.6983 9.88061 16.6929 10.1544C16.692 10.2055 16.7304 10.2935 16.768 10.3042C17.0565 10.3922 17.3486 10.4694 17.6407 10.5412C18.0739 10.648 18.4535 10.8769 18.8385 11.0869C19.1708 11.2673 19.1708 11.2888 19.4129 11.0528C19.7363 10.7369 20.0454 10.4048 20.3625 10.0826C20.5894 9.85279 20.8234 9.6311 21.0485 9.39954C21.1664 9.27837 21.2638 9.13836 21.3826 9.01899C21.5246 8.87628 21.6693 8.73267 21.831 8.6133C22.1008 8.41495 22.1159 8.15915 22.0981 7.84951C22.0534 7.07853 22.0248 6.30486 22.0364 5.53389C22.0436 5.03576 21.9516 4.55738 21.8497 4.08169C21.7372 3.55484 22.3455 2.81348 22.9708 2.89606C23.6211 2.98222 23.7747 3.32507 23.8087 3.83397C23.8328 4.19837 23.7551 4.56905 23.7587 4.93614C23.7631 5.31758 23.8131 5.69724 23.8408 6.07869C23.8516 6.22947 23.8551 6.38115 23.8632 6.54989C24.2071 6.21691 24.4938 5.88482 24.8341 5.62364C25.2031 5.34092 25.3773 4.90382 25.7203 4.61033C25.8391 4.50891 25.9498 4.39672 26.0785 4.31146C26.5197 4.01797 26.9199 4.12477 27.2567 4.54033C27.6033 4.96845 27.5836 5.35528 27.2013 5.75917C26.693 6.29679 26.1598 6.81017 25.6417 7.33792C25.4612 7.52191 25.296 7.72116 25.0986 7.94106C25.5943 7.94106 26.0427 7.92311 26.4876 7.94913C26.7109 7.9626 26.8842 7.83156 27.0754 7.81002C27.4541 7.76783 27.848 7.75796 28.2223 7.81809C28.6296 7.88361 28.6814 8.27314 28.7199 8.60433C28.7842 9.16079 28.4501 9.52519 27.8864 9.55571C27.6488 9.56827 27.4112 9.58981 27.1745 9.57814C27.0718 9.57276 26.9744 9.49019 26.8708 9.45159C26.8127 9.43005 26.7377 9.40043 26.6886 9.42018C26.0713 9.67328 25.4282 9.67867 24.7779 9.64905C24.593 9.64097 24.4063 9.67239 24.2205 9.68675C23.9766 9.7047 23.731 9.71277 23.4898 9.74598C23.3799 9.76124 23.2531 9.79983 23.1745 9.87164C22.8868 10.1346 22.6126 10.4128 22.3384 10.692C21.9409 11.0968 21.5568 11.5141 21.1512 11.9099C20.9261 12.1298 20.6706 12.3192 20.417 12.5319C21.002 13.2517 21.279 14.0792 21.4612 14.9427C21.7649 14.9597 22.0588 14.9822 22.3536 14.9911C22.9047 15.0082 23.4558 15.0252 24.0061 15.0279C24.2357 15.0288 24.4661 14.9831 24.6966 14.9786C24.8886 14.975 25.0834 14.9893 25.2736 15.019C25.6033 15.071 25.8096 14.922 26.0249 14.6815C26.5394 14.1053 27.1013 13.5721 27.6229 13.0022C27.9463 12.6486 28.2652 12.2815 28.5233 11.8785C28.8092 11.4315 29.7569 11.3265 30.1446 11.8327C30.4903 12.2842 30.4483 12.6226 30.1786 12.9861C29.9293 13.3217 29.639 13.6107 29.2755 13.8234C29.1844 13.8764 29.1174 13.9724 29.045 14.0541C28.8976 14.2184 28.7529 14.3853 28.6082 14.5531C28.4733 14.7093 28.3402 14.8673 28.1884 15.045C28.4483 15.0584 28.6663 15.0701 28.8842 15.08C29.1933 15.0943 29.5015 15.1141 29.8105 15.1195C29.9686 15.1222 30.1321 15.1195 30.2831 15.0809C30.6797 14.9813 31.0718 14.9929 31.4559 15.1177C31.8749 15.2541 32.0294 15.6589 31.9955 16.0996C31.9642 16.5044 31.7391 16.7243 31.4381 16.8373C31.179 16.9352 30.8682 16.9091 30.5796 16.9127C29.882 16.9199 29.1853 16.9127 28.4876 16.9091C28.3572 16.9091 28.2277 16.8939 28.0973 16.8858C28.0803 16.9181 28.0633 16.9504 28.0463 16.9827C28.3626 17.2834 28.685 17.5787 28.995 17.8866C29.3317 18.2213 29.8338 18.3389 30.1062 18.7554C30.1705 18.8541 30.2634 18.9358 30.3215 19.0381C30.4698 19.2966 30.3804 19.5299 30.2554 19.7776C29.932 20.4185 29.2594 20.4239 28.8288 20.0209C28.6654 19.8683 28.4965 19.7202 28.3465 19.556C28.2634 19.4644 28.1374 19.3747 28.2107 19.2077C28.2205 19.1844 28.1696 19.109 28.1321 19.0928C27.5086 18.8272 27.053 18.3542 26.61 17.8623C26.4903 17.7295 26.3456 17.6209 26.2116 17.5015C26.0222 17.3328 25.8391 17.1569 25.6399 17.0007C25.5523 16.9325 25.4344 16.8714 25.3272 16.8652C24.9378 16.8427 24.5474 16.8454 24.1579 16.8364C23.6443 16.8239 23.1307 16.8041 22.6162 16.7952C22.2481 16.7889 21.8792 16.7943 21.4844 16.7943C21.3066 17.5859 20.9985 18.3793 20.5331 19.1198C20.6849 19.2876 20.8332 19.4635 20.9931 19.6269C21.4272 20.0702 21.864 20.5118 22.3062 20.948C22.4545 21.0943 22.6305 21.2128 22.7779 21.36C22.9208 21.5027 23.0467 21.6633 23.1727 21.8222C23.3254 22.0143 23.5121 22.0888 23.7604 22.0726C24.35 22.0331 24.9404 22.0098 25.53 21.9882C25.8078 21.9784 26.0883 22.0062 26.3652 21.9829C26.7761 21.9488 27.1888 21.9048 27.5934 21.8294C28.0294 21.7486 28.325 21.9353 28.6127 22.2324C28.911 22.5411 28.8824 23.2645 28.5555 23.5769C28.5189 23.6119 28.4733 23.6424 28.426 23.6585C27.9543 23.8183 27.4773 23.8829 26.9842 23.7537C26.869 23.7232 26.7422 23.7277 26.6207 23.7321C26.3938 23.742 26.1678 23.7636 25.9418 23.7797C25.7006 23.7968 25.4585 23.8138 25.2138 23.8318C25.2138 23.8659 25.2049 23.8955 25.2147 23.9072C25.5809 24.2985 25.9391 24.697 26.3205 25.073C26.4885 25.2391 26.7154 25.345 26.8922 25.5039C27.0736 25.6663 27.2531 25.844 27.388 26.0451C27.7051 26.5208 27.6113 26.7981 27.2763 27.1849C26.9119 27.6059 26.3983 27.6086 25.9909 27.2172C25.4577 26.7056 24.9467 26.1689 24.4215 25.6475C24.233 25.4608 24.0311 25.2885 23.7863 25.065C23.7863 25.4312 23.7863 25.7363 23.7863 26.0415C23.7863 26.247 23.7676 26.4534 23.7855 26.6572C23.7962 26.7792 23.8676 26.895 23.9007 27.0162C24.0132 27.4237 24.0186 27.8329 23.9194 28.244C23.8667 28.4612 23.6979 28.5671 23.5121 28.6425C23.4139 28.6829 23.3031 28.6982 23.1968 28.7116C22.6063 28.7879 22.2169 28.4603 22.1838 27.859C22.1713 27.6355 22.1517 27.4093 22.1686 27.1876C22.1776 27.0691 22.291 26.9579 22.2964 26.8403C22.3035 26.6787 22.2562 26.5145 22.2258 26.352C22.2133 26.2856 22.1686 26.2246 22.1633 26.1591C22.132 25.792 22.099 25.4249 22.0847 25.0578C22.0695 24.6674 22.0766 24.2751 22.0713 23.8838C22.065 23.4674 21.9364 23.1084 21.6202 22.8167C21.3299 22.5492 21.0637 22.2548 20.7841 21.9748C20.5045 21.6948 20.2186 21.421 19.9408 21.1383C19.7604 20.9543 19.5853 20.764 19.4192 20.5675C19.3084 20.4355 19.2209 20.4274 19.0699 20.5226C18.5884 20.826 18.1204 21.1625 17.538 21.2621C17.3405 21.2954 17.1494 21.3663 16.9529 21.4138C16.6465 21.4874 16.6358 21.5323 16.6688 21.8491C16.7099 22.2467 16.7161 22.6488 16.7295 23.0491C16.7447 23.4907 16.751 23.9323 16.7608 24.3739C16.7635 24.5022 16.7671 24.6315 16.7706 24.7598C16.776 24.9537 16.7706 25.1484 16.793 25.3396C16.8037 25.4267 16.86 25.5191 16.9198 25.5864C17.1449 25.8368 17.3807 26.0765 17.6103 26.3224C18.0114 26.7523 18.4187 27.1786 18.8073 27.6202C18.9011 27.727 18.9252 27.8949 18.9984 28.025C19.0333 28.0878 19.1021 28.1426 19.1673 28.1731C19.2432 28.209 19.3584 28.1884 19.412 28.2395C19.6434 28.4594 19.8837 28.6784 20.0739 28.9333C20.3946 29.3596 20.2017 29.9682 19.7309 30.2168C19.1967 30.4995 18.9725 30.3631 18.6242 29.996C18.441 29.803 18.2517 29.5993 18.1311 29.3659C17.9542 29.0231 17.6585 28.8175 17.3897 28.5734C17.2137 28.4136 17.0654 28.2243 16.8734 28.0151H16.8796Z"
          fill="currentColor"/>
</svg>
