<svg viewBox="0 0 32 32" fill="none" xmlns="http://www.w3.org/2000/svg">
    <path d="M8.67599 27.7187C8.53957 27.6205 8.53264 27.381 8.31599 27.3698C8.4288 27.2013 8.1083 27.1984 8.19626 27.0396C8.15757 27.0187 8.11237 27.0045 8.0806 26.9753C7.78332 26.7007 7.50395 26.3982 7.27508 26.0722C7.15209 25.8967 6.93543 25.8382 6.86009 25.5774C6.84055 25.6477 6.83484 25.6685 6.82914 25.6894C6.81611 25.7045 6.80349 25.7191 6.79046 25.7342C6.78027 25.7028 6.7591 25.6706 6.76113 25.6401C6.77457 25.4341 6.56077 25.3702 6.50416 25.2043C6.4838 25.1454 6.38973 25.1119 6.32864 25.0685C6.30217 25.0497 6.25371 25.04 6.24801 25.0175C6.1576 24.6573 5.82773 24.4889 5.63144 24.2122C5.42619 23.9235 5.16067 23.6752 4.89962 23.4345C4.67523 23.2277 4.46957 23.0108 4.2802 22.768C4.01346 22.4258 3.7068 22.1161 3.42011 21.7897C3.37164 21.7346 3.30852 21.6681 3.30363 21.6034C3.29264 21.4504 3.20752 21.4692 3.11141 21.4901C3.10531 21.4492 3.11304 21.4011 3.09309 21.3777C2.90576 21.1579 2.70946 20.9456 2.52458 20.7237C2.45412 20.6393 2.40648 20.5353 2.34824 20.44C2.33399 20.4166 2.32625 20.3823 2.30589 20.371C1.97276 20.1838 1.87543 19.7893 1.60868 19.539C1.4352 19.3765 1.28615 19.1801 1.25072 18.913C1.24135 18.8416 1.1147 18.7718 1.02918 18.7283C0.667137 18.5453 0.469216 18.2256 0.311613 17.8645C0.245639 17.7129 0.147494 17.5758 0.0823346 17.4241C0.0407958 17.3263 0.0204336 17.2143 0.0122887 17.1069C-0.00929521 16.8152 -0.0190691 16.5252 0.129982 16.254C0.176408 16.1692 0.172743 16.0568 0.213467 15.9669C0.388582 15.5804 0.620711 15.231 0.881754 14.8997C0.929809 14.8386 0.925329 14.7329 0.974199 14.6727C1.18922 14.4095 1.44497 14.1755 1.62701 13.8913C1.77117 13.6665 1.9862 13.4981 2.06358 13.2056C2.12018 12.9924 2.33643 12.8236 2.48385 12.6364C2.60195 12.4868 2.70051 12.3071 2.84874 12.1997C3.02711 12.0702 3.10123 11.8813 3.22341 11.7191C3.48934 11.366 3.86196 11.1099 4.12749 10.7639C4.24314 10.613 4.38039 10.4588 4.48057 10.2783C4.595 10.0714 4.8479 9.95065 5.01976 9.77096C5.17736 9.6059 5.30361 9.40991 5.44981 9.23272C5.54714 9.11488 5.65099 9.00122 5.75972 8.89424C5.90714 8.74923 6.07411 8.62303 6.21135 8.46883C6.41294 8.24234 6.56688 7.96068 6.79656 7.77514C6.95091 7.6502 7.11706 7.50686 7.1924 7.36018C7.43064 6.89675 7.9735 6.7413 8.18119 6.25571C8.24024 6.11823 8.39907 6.02546 8.50943 5.90511C8.62102 5.80523 8.7326 5.70536 8.84378 5.60507C8.85396 5.61844 8.86455 5.63181 8.87473 5.64518C8.96921 5.46758 9.05351 5.28288 9.16387 5.11656C9.205 5.0543 9.31374 5.04301 9.37971 4.99245C9.47989 4.91598 9.56012 4.80733 9.66682 4.74381C9.90098 4.60507 10.0276 4.37189 10.1958 4.17339C10.2932 4.05848 10.4398 3.98827 10.5595 3.89258C10.7285 3.7576 10.8841 3.60173 11.0633 3.4843C11.2302 3.37482 11.3817 3.20432 11.6175 3.25112C11.6456 3.25656 11.6819 3.21477 11.7153 3.1968C11.8378 3.13119 11.9596 3.06475 12.0842 3.00374C12.1038 2.99412 12.1563 3.00499 12.1583 3.0146C12.1995 3.20557 12.3917 3.12534 12.4955 3.21268C12.61 3.30879 12.7207 3.39028 12.8221 3.51314C12.9594 3.67946 13.0364 3.95944 13.3222 3.96487C13.3279 3.96487 13.3353 3.97114 13.3385 3.97657C13.4794 4.19136 13.6179 4.40741 13.7612 4.62053C13.817 4.70327 13.8842 4.77766 13.9425 4.85914C13.9632 4.88798 13.9726 4.92559 13.9995 4.9866C14.0113 4.98702 14.0659 4.98994 14.0907 4.9912C14.1135 5.0894 14.1343 5.18008 14.1551 5.27034C14.3004 5.1688 14.2279 5.32509 14.2617 5.35475C14.32 5.40574 14.4088 5.44167 14.4849 5.44251C14.5562 5.44335 14.6364 5.40323 14.6975 5.35893C14.7643 5.31004 14.8136 5.23566 14.8771 5.16504C14.8771 5.29333 14.8795 5.40992 14.8755 5.52651C14.8747 5.55659 14.862 5.59337 14.8421 5.61384C14.7199 5.74004 14.7358 5.86123 14.8922 5.95985C14.7154 6.05764 14.5696 6.48513 14.6547 6.64184C14.5175 6.82069 14.3815 6.99788 14.2459 7.17506C14.2638 7.18175 14.2817 7.18885 14.2789 7.1876C14.2422 7.22646 14.2068 7.2695 14.166 7.30628C14.0402 7.41911 13.8818 7.48137 13.7462 7.57247C13.5556 7.70034 13.4069 7.89299 13.2367 8.05429C13.1679 8.11948 13.0905 8.17506 13.0009 8.24819C12.9948 8.23607 13.0115 8.26908 13.0099 8.26532C12.8983 8.36896 12.7896 8.4588 12.6943 8.56202C12.6124 8.65061 12.6295 8.85328 12.4239 8.79854C12.4206 8.79771 12.4072 8.89674 12.3778 8.92934C12.2956 9.02044 12.2003 9.099 12.1139 9.18592C12.063 9.2369 12.0048 9.2883 11.9755 9.35182C11.9067 9.50059 11.7776 9.5779 11.6611 9.67485C11.6098 9.71789 11.5792 9.78684 11.5393 9.84367C11.5524 9.85913 11.565 9.8746 11.578 9.89006C11.5194 9.87585 11.4607 9.86164 11.3935 9.84576C11.4632 9.98074 11.453 9.9636 11.3414 10.0321C11.2351 10.0973 11.1476 10.1989 11.0612 10.2933C10.9179 10.45 10.7835 10.6155 10.6434 10.7751C10.3009 11.1663 9.94985 11.5503 9.61713 11.9502C9.46075 12.1383 9.29215 12.3117 9.1203 12.4822C9.01278 12.5892 8.89102 12.6815 8.75296 12.7998C8.75378 12.8048 8.76151 12.8491 8.77047 12.898C8.7159 12.9089 8.66418 12.9193 8.61328 12.9293C8.60921 12.9807 8.62427 13.0518 8.5974 13.0789C8.48092 13.1972 8.34531 13.2954 8.22925 13.4141C8.11115 13.5353 8.01015 13.6732 7.89857 13.801C7.86151 13.8432 7.81549 13.8771 7.73933 13.946C7.64852 14.0656 7.5292 14.2223 7.41557 14.3719C7.61675 14.5081 7.82282 14.2143 8.06879 14.3652C8.30296 14.2411 8.59088 14.2448 8.89387 14.29C9.08079 14.318 9.27749 14.2799 9.4693 14.2682C9.50881 14.2657 9.56867 14.2264 9.58333 14.2415C9.70876 14.3681 9.90465 14.2248 10.0305 14.3669C10.0427 14.3806 10.1575 14.2992 10.2064 14.2315C10.511 14.2315 10.8169 14.2511 11.119 14.2248C11.3259 14.2068 11.5222 14.1533 11.7332 14.2252C11.8158 14.2532 11.9254 14.193 12.0239 14.1805C12.0443 14.178 12.0704 14.2214 12.0907 14.2185C12.1657 14.2076 12.239 14.1867 12.3546 14.1596C12.4308 14.216 12.869 14.1905 12.9549 14.1349C13.0628 14.114 13.1703 14.0798 13.2787 14.0748C13.4542 14.0668 13.6305 14.0819 13.8065 14.0798C13.9571 14.0777 14.1078 14.0605 14.2585 14.0585C14.4267 14.0559 14.6222 14.0087 14.7561 14.0798C14.941 14.178 15.0327 14.02 15.1691 14.01C15.2489 14.0041 15.3291 14.0004 15.4094 14.0008C15.6452 14.0025 15.8826 13.9912 16.1167 14.015C16.3472 14.0384 16.561 13.8658 16.7932 13.9707C17.1182 13.786 17.4606 14.0539 17.7901 13.9327C17.8093 13.9256 17.8516 13.9849 17.8834 14.0137C17.9098 13.9828 17.9424 13.9448 17.9913 13.8875C18.0145 13.9502 18.0304 13.9937 18.0345 14.0045C18.2096 13.9878 18.3688 13.9766 18.5268 13.9561C18.7243 13.9306 18.9206 13.8938 19.1181 13.8687C19.3629 13.8374 19.6044 13.819 19.8516 13.885C19.9652 13.9155 20.0976 13.8696 20.2214 13.8629C20.2474 13.8616 20.2739 13.8829 20.3008 13.8892C20.3574 13.9022 20.4193 13.9327 20.471 13.9201C20.6229 13.8834 20.7899 13.7618 20.9153 13.799C21.0692 13.8449 21.1845 13.7521 21.3197 13.7755C21.3722 13.7847 21.4325 13.7438 21.503 13.7212C21.5514 13.9924 21.7705 13.6794 21.9143 13.8307C21.9921 13.9126 22.2356 13.8282 22.4074 13.8186C22.4372 13.8717 22.4661 13.9243 22.4787 13.9469C22.5948 13.9009 22.6982 13.8299 22.8049 13.8236C23.1303 13.8044 23.4573 13.7977 23.7831 13.8102C24.0283 13.8198 24.271 13.8742 24.5161 13.8942C24.6066 13.9018 24.701 13.8721 24.7923 13.8529C24.9902 13.8115 25.1808 13.7567 25.3852 13.8587C25.4638 13.898 25.599 13.885 25.6788 13.8403C25.8389 13.7505 25.9875 13.776 26.1455 13.8165C26.2001 13.8303 26.26 13.8474 26.3129 13.8374C26.5491 13.7931 26.7816 13.7267 27.0191 13.6962C27.0952 13.6865 27.1816 13.7618 27.2813 13.7714C27.2638 13.7501 27.2463 13.7283 27.2141 13.6886C27.3807 13.7204 27.511 13.7952 27.68 13.7108C27.7908 13.6556 27.9606 13.7275 28.1044 13.7388C28.1683 13.7438 28.2327 13.7421 28.2966 13.7396C28.4094 13.7346 28.5222 13.7292 28.6346 13.7191C28.8154 13.7033 28.9962 13.6832 29.1836 13.6644C29.2288 13.687 29.2992 13.7221 29.3701 13.7572C29.3774 13.7417 29.3852 13.7267 29.3925 13.7112C29.4043 13.7526 29.4165 13.7939 29.4291 13.8378C29.5806 13.7609 29.7158 13.6753 29.8714 13.8077C29.9028 13.8345 29.9757 13.8274 30.0229 13.8132C30.2917 13.7325 30.499 13.7735 30.6073 14.0768C30.6215 14.1165 30.7262 14.155 30.7759 14.142C30.9596 14.0944 31.0728 14.1826 31.1473 14.3292C31.2165 14.4655 31.2996 14.5449 31.4588 14.5315C31.5004 14.5282 31.5635 14.5649 31.5871 14.603C31.6902 14.7668 31.7814 14.9385 31.8783 15.1065C31.9036 15.1504 31.9439 15.1872 31.9598 15.2335C31.9826 15.3017 32.0058 15.3769 31.9993 15.4463C31.9891 15.5557 31.9341 15.6627 31.9341 15.7705C31.9341 16.0752 31.9561 16.3798 31.9598 16.6844C31.9606 16.7668 31.9333 16.8516 31.9084 16.9318C31.8677 17.063 31.8131 17.1897 31.7745 17.3213C31.6999 17.5758 31.5057 17.7383 31.3444 17.926C31.3029 17.974 31.2544 18.0158 31.2104 18.0618C31.0296 18.2523 30.8044 18.3443 30.5527 18.3848C30.4619 18.3994 30.3756 18.4429 30.2852 18.4634C30.222 18.4776 30.1548 18.4726 30.0897 18.4813C29.9634 18.4985 29.8372 18.5365 29.7118 18.5332C29.6234 18.5307 29.5367 18.4738 29.4393 18.4375C29.4137 18.473 29.3831 18.5156 29.3566 18.5524C29.3086 18.5282 29.2638 18.5056 29.2194 18.483C29.2035 18.5361 29.1876 18.5892 29.1624 18.6757C29.0451 18.6167 28.9233 18.5378 28.791 18.4939C28.6818 18.4575 28.5601 18.46 28.4432 18.4525C28.433 18.4517 28.4196 18.5056 28.4033 18.5444C28.2848 18.4822 28.1524 18.4107 28.0176 18.3451C28.0009 18.3372 27.9659 18.351 27.9484 18.366C27.7998 18.4897 27.6572 18.4425 27.4915 18.3915C27.388 18.3597 27.2276 18.3965 27.1392 18.4655C26.9331 18.6259 26.7157 18.4609 26.5096 18.5236C26.475 18.534 26.4078 18.432 26.3536 18.3802C26.2425 18.4145 26.1419 18.6109 25.994 18.399C25.9761 18.3731 25.7705 18.4851 25.6662 18.557C25.5273 18.557 25.3885 18.5528 25.25 18.5578C24.9047 18.5699 24.5601 18.5929 24.2148 18.5992C23.8413 18.6063 23.4679 18.6042 23.0945 18.5958C22.9747 18.5933 22.8513 18.5716 22.7373 18.534C22.4412 18.4362 22.1513 18.3811 21.8678 18.5687C21.8589 18.5745 21.8414 18.5662 21.8279 18.5649H21.8328C21.8084 18.5729 21.784 18.5808 21.7595 18.5887C21.5461 18.5528 21.3462 18.5436 21.1234 18.6147C20.9699 18.6635 20.7667 18.5415 20.5842 18.5047C20.5252 18.4926 20.4608 18.5085 20.3997 18.5336C20.1969 18.4103 19.9843 18.4684 19.7681 18.5269C19.5136 18.5963 19.2554 18.6427 18.9923 18.5691C18.9862 18.5674 18.9764 18.5607 18.9744 18.5628C18.7516 18.7751 18.5997 18.5516 18.4246 18.4692C18.4128 18.4638 18.3989 18.463 18.3765 18.4579V18.5679C18.3142 18.5478 18.2527 18.5093 18.1933 18.5123C18.0434 18.5202 17.9082 18.6502 17.7461 18.5704C17.6822 18.7772 17.4655 18.6564 17.3527 18.7622C17.325 18.7881 17.2733 18.8215 17.2485 18.8111C17.0954 18.7488 16.9496 18.6673 16.7952 18.6084C16.7248 18.5816 16.6405 18.5921 16.557 18.5854C16.5183 18.6276 16.5521 18.8345 16.3965 18.6577C16.3574 18.613 16.2454 18.623 16.1685 18.6284C16.0096 18.6393 15.8516 18.6644 15.6728 18.6857C15.6757 18.6945 15.6639 18.6602 15.6476 18.6121C15.5433 18.8261 15.3646 18.7409 15.2184 18.72C15.0709 18.6991 14.9561 18.7053 14.8722 18.8432C14.8665 18.8528 14.8425 18.8633 14.8396 18.8604C14.6967 18.7191 14.5851 18.9653 14.4389 18.8825C14.4511 18.8144 14.465 18.7375 14.476 18.6752C14.2076 18.7175 13.9441 18.7588 13.6802 18.8002C13.6798 18.7864 13.6794 18.773 13.679 18.7592C13.6256 18.8086 13.5719 18.8579 13.5307 18.8959C13.385 18.8645 13.2518 18.8357 13.1158 18.8065C13.1141 18.8257 13.1117 18.8558 13.1113 18.8595C13.0241 18.8207 12.9309 18.7789 12.838 18.7371C12.8303 18.7534 12.8221 18.7697 12.8144 18.786L12.8926 18.8512C12.5806 18.6188 12.2451 18.8683 11.9286 18.7989C11.9657 18.9515 11.6855 18.8311 11.7804 19.0814C11.554 18.9891 11.374 18.9084 11.1883 18.8437C11.1325 18.824 11.0616 18.8428 10.9989 18.8533C10.8218 18.8834 10.621 18.8274 10.4825 18.9999C10.4866 18.9958 10.4923 18.992 10.4943 18.987C10.4956 18.9841 10.4903 18.9786 10.4878 18.9745C10.4911 18.9824 10.4939 18.9903 10.4972 18.9983C10.3518 19.043 10.2573 18.982 10.1991 18.8466C10.046 18.9673 9.95026 18.9682 9.87044 18.8495C9.77229 19.0121 9.72546 19.025 9.58578 18.9293C9.57478 18.9218 9.56175 18.9122 9.54953 18.9118C9.37971 18.9072 9.20989 18.9063 9.04048 18.8992C8.88287 18.893 8.72568 18.8804 8.57133 18.8566C8.15431 18.8278 7.74137 18.9448 7.26978 18.8737C7.32354 18.977 7.34879 19.0681 7.40539 19.127C7.62408 19.3547 7.87087 19.5566 8.07246 19.7981C8.25083 20.0112 8.5135 20.155 8.63649 20.3915C8.76966 20.6477 8.97206 20.8019 9.17935 20.9523C9.33573 21.0655 9.47093 21.1809 9.57519 21.3459C9.68351 21.5173 9.80691 21.6798 9.93275 21.8382C9.99913 21.9218 10.0737 22.0146 10.1649 22.0593C10.4821 22.2147 10.5473 22.6167 10.869 22.7797C11.0001 22.8462 11.0498 23.0647 11.1651 23.1855C11.3105 23.3372 11.4872 23.4567 11.6448 23.5971C11.6802 23.6284 11.7096 23.689 11.7096 23.7362C11.7104 23.893 11.8097 23.9168 11.8851 23.9205C11.9441 24.0166 11.9751 24.0986 12.0317 24.1525C12.1791 24.2945 12.3375 24.4241 12.4911 24.5591C12.5065 24.5724 12.5208 24.5891 12.5301 24.6071C12.7672 25.068 13.1194 25.4337 13.4672 25.8039C13.523 25.8637 13.5576 25.9439 13.6065 26.0108C13.705 26.1458 13.8073 26.2778 13.9062 26.4124C13.925 26.4383 13.9335 26.4717 13.9486 26.5006C14.0459 26.6832 14.1347 26.8712 14.2446 27.0455C14.3114 27.1516 14.434 27.2243 14.4882 27.3342C14.5273 27.4132 14.4784 27.5327 14.4971 27.6284C14.5346 27.8194 14.6299 28.0066 14.6295 28.1951C14.6291 28.3656 14.5322 28.5357 14.4894 28.6698C14.3754 28.6472 14.3171 28.6359 14.2398 28.6205C14.2642 28.6782 14.278 28.7107 14.2707 28.6936C14.1567 28.8135 14.0736 28.9201 13.9726 29.0033C13.7747 29.1667 13.5682 29.3188 13.3626 29.4717C13.1777 29.6092 12.9924 29.7471 12.8002 29.8725C12.7525 29.9038 12.669 29.8733 12.614 29.8984C12.5448 29.9301 12.4878 29.9903 12.397 30.0601C12.3489 30.043 12.265 30.0129 12.186 29.9845C12.1502 30.0568 12.107 30.1445 12.0577 30.2435C12.1388 30.3714 12.2386 30.5248 12.0838 30.6882C12.0468 30.727 11.9584 30.7379 11.8993 30.727C11.7377 30.6978 11.5792 30.6506 11.3821 30.6008C11.4363 30.5682 11.4611 30.5532 11.486 30.5382C11.486 30.5202 11.486 30.5022 11.486 30.4838C11.4192 30.488 11.3426 30.4721 11.2881 30.5005C11.1797 30.5565 11.185 30.5662 11.0983 30.4483C11.0914 30.4387 11.0743 30.432 11.0624 30.4324C10.8543 30.4379 10.77 30.2603 10.6483 30.1382C10.6173 30.1073 10.5892 30.0726 10.5652 30.0359C10.5281 29.9799 10.5094 29.8946 10.4593 29.8679C10.2072 29.7325 10.1421 29.4454 9.96492 29.2511C9.95881 29.2444 9.97592 29.2147 9.98365 29.1913C9.9132 29.1988 9.84478 29.2064 9.76822 29.2151C9.8065 29.1646 9.83542 29.1265 9.86433 29.0885C9.76822 29.0296 9.83012 28.8252 9.64238 28.8461C9.47216 28.8649 9.44731 28.7697 9.4917 28.6606C9.35976 28.4976 9.23718 28.3464 9.1146 28.1951C9.08324 28.1562 9.05392 28.0848 9.02134 28.0835C8.80183 28.0735 8.77903 27.8783 8.69513 27.74C8.68943 27.7321 8.68373 27.7245 8.67803 27.717L8.67599 27.7187Z"
          fill="currentColor"/>
</svg>
