<svg viewBox="0 0 144 144" fill="none" xmlns="http://www.w3.org/2000/svg">
<path d="M2.48392 69.8391L1.66952 61.8404C1.62732 61.4265 1.72782 61.0705 1.97082 60.7724C2.19632 60.4599 2.51602 60.2826 2.92992 60.2405C3.32782 60.2 3.66872 60.31 3.95262 60.5706C4.21892 60.8169 4.37312 61.147 4.41532 61.5608L5.09602 68.2463L4.66822 68.0727L9.32412 67.5986L9.15262 67.8091L8.58372 62.222C8.54152 61.8081 8.64202 61.4521 8.88502 61.154C9.11052 60.8415 9.43022 60.6642 9.84412 60.6221C10.242 60.5816 10.5829 60.6916 10.8668 60.9522C11.1331 61.1985 11.2873 61.5285 11.3295 61.9424L11.8911 67.4579L11.6879 67.358L16.511 66.8669L16.3155 67.0798L15.6372 60.4182C15.5951 60.0043 15.7035 59.6475 15.9625 59.3478C16.2039 59.0337 16.5077 58.858 16.8738 58.8207C17.2717 58.7802 17.6126 58.8902 17.8965 59.1508C18.1787 59.3955 18.3409 59.7248 18.383 60.1386L19.1975 68.1373C19.2396 68.5511 19.14 68.9151 18.8985 69.2292C18.6396 69.5289 18.3032 69.6999 17.8893 69.742L4.08862 71.1472C3.67482 71.1894 3.31882 71.0889 3.02062 70.8459C2.70492 70.5885 2.52602 70.2529 2.48392 69.8391Z" fill="currentColor"/>
<path d="M8.00509 45.2025C8.30539 44.0572 8.77249 43.2534 9.40649 42.7911C10.0445 42.3133 10.7943 42.0716 11.656 42.0659C12.5061 42.0407 13.4188 42.156 14.3938 42.4116L20.3369 43.9699C20.7393 44.0754 21.0453 44.2962 21.2549 44.6324C21.449 44.9644 21.4933 45.3317 21.3878 45.7341C21.2823 46.1365 21.0635 46.4347 20.7314 46.6289C20.3839 46.8189 20.0089 46.8612 19.6065 46.7557L13.6634 45.1974C13.1526 45.0635 12.6778 45.0135 12.2389 45.0472C11.7885 45.0615 11.3949 45.2064 11.058 45.482C10.7211 45.7575 10.4695 46.2126 10.3031 46.8471C10.1408 47.4662 10.1266 48.0249 10.2606 48.5232C10.3987 49.006 10.6462 49.4182 11.0032 49.7599C11.3488 50.0821 11.777 50.3102 12.2877 50.4441L18.2308 52.0023C18.6332 52.1079 18.9392 52.3287 19.1488 52.6648C19.3429 52.9969 19.3872 53.3642 19.2817 53.7666C19.1762 54.169 18.9574 54.4672 18.6253 54.6613C18.2778 54.8514 17.9028 54.8937 17.5004 54.7882L7.91249 52.2743C7.51009 52.1688 7.21179 51.95 7.01769 51.6179C6.80809 51.2817 6.75609 50.9124 6.86159 50.51C6.96709 50.1077 7.19359 49.8114 7.54119 49.6214C7.87329 49.4272 8.24049 49.3829 8.64289 49.4884L9.64119 49.7502L9.48019 50.0801C9.25359 49.8719 9.02779 49.5976 8.80269 49.2574C8.56219 48.9132 8.35699 48.5285 8.18719 48.1036C8.01749 47.6786 7.91399 47.2215 7.87699 46.732C7.82439 46.2386 7.86709 45.7287 8.00509 45.2025Z" fill="currentColor"/>
<path d="M24.2119 37.8902C24.5686 38.1043 24.8004 38.4021 24.9073 38.7835C25.0005 39.1567 24.9401 39.5217 24.726 39.8783C24.5118 40.235 24.2182 40.46 23.845 40.5532C23.4581 40.6382 23.0863 40.5736 22.7296 40.3595L14.2312 35.258C13.8746 35.0439 13.6496 34.7502 13.5564 34.377C13.4495 33.9956 13.5031 33.6265 13.7172 33.2698C13.9313 32.9132 14.2318 32.6924 14.6187 32.6074C14.9919 32.5142 15.3568 32.5746 15.7135 32.7887L24.2119 37.8902ZM12.3673 32.4875C12.0873 32.9539 11.8142 33.2379 11.548 33.3394C11.2818 33.4408 10.9567 33.3763 10.5726 33.1457L10.1816 32.911C9.78384 32.6722 9.57814 32.4087 9.56444 32.1206C9.54534 31.8105 9.66743 31.436 9.93103 30.997C10.2192 30.5169 10.4964 30.2261 10.7626 30.1246C11.0288 30.0231 11.3539 30.0877 11.738 30.3183L12.129 30.553C12.5268 30.7918 12.7394 31.0594 12.7668 31.3557C12.7804 31.6438 12.6473 32.0211 12.3673 32.4875Z" fill="currentColor"/>
<path d="M23.7107 20.8978C24.209 20.4469 24.7356 20.1108 25.2904 19.8893C25.8452 19.6678 26.3782 19.5416 26.8895 19.5105C27.4127 19.4687 27.8701 19.4973 28.2616 19.5961C28.6543 19.6724 28.9257 19.7936 29.076 19.9597L28.8226 20.6097L27.6472 19.3105C27.3681 19.002 27.2381 18.6557 27.2574 18.2715C27.2658 17.8755 27.4243 17.5379 27.7328 17.2588C28.0413 16.9797 28.3876 16.8498 28.7718 16.869C29.156 16.8882 29.493 17.058 29.7828 17.3783L36.9481 25.298C37.882 26.3303 38.4026 27.3588 38.5099 28.3837C38.6398 29.4097 38.4664 30.3865 37.9895 31.3142C37.5234 32.2538 36.8751 33.0993 36.0445 33.8507C35.8073 34.0654 35.4719 34.3148 35.0386 34.599C34.6052 34.8832 34.179 35.1394 33.7597 35.3676C33.3405 35.5959 33.0097 35.7549 32.7674 35.8447C32.2719 36.0125 31.8456 36.0422 31.4885 35.9337C31.1541 35.8263 30.9103 35.6046 30.7572 35.2684C30.5526 34.8277 30.51 34.4348 30.6292 34.0896C30.7592 33.7563 30.9976 33.519 31.3445 33.3777C31.4953 33.306 31.7555 33.2 32.125 33.0599C32.4945 32.9198 32.877 32.7464 33.2725 32.5396C33.6906 32.334 34.0242 32.1184 34.2734 31.893C35.1632 31.0879 35.6607 30.3142 35.7658 29.5718C35.8709 28.8294 35.639 28.1438 35.07 27.515L33.6692 25.9666L34.0277 25.9336C34.1672 26.0878 34.2559 26.3528 34.2938 26.7285C34.3328 27.0816 34.3065 27.4938 34.2149 27.965C34.1353 28.4254 33.9754 28.9045 33.7353 29.4023C33.4844 29.8882 33.1454 30.3243 32.7183 30.7108C31.8759 31.4729 30.9287 31.9523 29.8767 32.1489C28.814 32.3336 27.7541 32.2353 26.697 31.8539C25.6292 31.4607 24.6605 30.7835 23.791 29.8225C22.9108 28.8496 22.3337 27.8182 22.0597 26.7283C21.775 25.6266 21.777 24.5676 22.0657 23.5512C22.3437 22.5229 22.892 21.6385 23.7107 20.8978ZM25.82 22.5495C25.2861 23.0326 24.9355 23.5871 24.7683 24.2131C24.601 24.8391 24.6086 25.4795 24.7911 26.1343C24.9736 26.7891 25.3225 27.4013 25.8377 27.9708C26.3422 28.5284 26.9112 28.9307 27.5445 29.1776C28.1778 29.4245 28.8143 29.496 29.4538 29.3921C30.0934 29.2881 30.6801 28.9946 31.214 28.5116C31.7598 28.0178 32.1163 27.4579 32.2836 26.8319C32.4508 26.2059 32.4432 25.5655 32.2607 24.9107C32.0782 24.2559 31.7347 23.6496 31.2302 23.092C30.715 22.5225 30.1407 22.1143 29.5073 21.8674C28.874 21.6205 28.2376 21.549 27.598 21.6529C26.9584 21.7569 26.3658 22.0557 25.82 22.5495Z" fill="currentColor"/>
<path d="M42.9219 9.83511C44.1472 9.46501 45.1411 9.49071 45.9035 9.91231C46.6613 10.3185 47.2733 10.9611 47.7392 11.8399L47.2862 11.7511L47.359 11.3279C47.4364 10.9201 47.6064 10.4593 47.8691 9.94541C48.1271 9.41621 48.4825 8.93281 48.9353 8.49521C49.3988 8.03761 49.9675 7.70711 50.6414 7.50351C51.7442 7.17051 52.6507 7.15571 53.3608 7.45941C54.0863 7.75841 54.6765 8.27381 55.1315 9.00551C55.5818 9.72191 55.9527 10.5625 56.2442 11.5275L58.0206 17.4091C58.1409 17.8073 58.1125 18.1836 57.9354 18.5379C57.7536 18.877 57.4636 19.1066 57.0654 19.2269C56.6672 19.3472 56.2985 19.3164 55.9595 19.1347C55.6159 18.9376 55.3839 18.64 55.2636 18.2418L53.4872 12.3602C53.3345 11.8547 53.1368 11.4214 52.894 11.0602C52.6465 10.6836 52.325 10.4214 51.9293 10.2735C51.5337 10.1256 51.0371 10.1418 50.4398 10.3222C49.8578 10.498 49.397 10.7709 49.0575 11.1409C48.7179 11.5108 48.5034 11.935 48.4139 12.4133C48.335 12.8717 48.3719 13.3536 48.5246 13.859L50.301 19.7406C50.4213 20.1389 50.3929 20.5151 50.2158 20.8695C50.034 21.2085 49.744 21.4382 49.3458 21.5584C48.9476 21.6787 48.579 21.648 48.2399 21.4663C47.8963 21.2692 47.6643 20.9716 47.544 20.5733L45.7676 14.6917C45.6149 14.1863 45.4172 13.7529 45.1744 13.3917C44.927 13.0152 44.6054 12.753 44.2097 12.605C43.8141 12.4571 43.3176 12.4734 42.7202 12.6538C42.1382 12.8296 41.6774 13.1025 41.3379 13.4724C40.9983 13.8424 40.7838 14.2665 40.6943 14.7449C40.6154 15.2032 40.6524 15.6851 40.805 16.1906L42.5814 22.0722C42.7017 22.4704 42.6733 22.8467 42.4962 23.201C42.3145 23.5401 42.0245 23.7697 41.6262 23.89C41.228 24.0103 40.8594 23.9795 40.5203 23.7978C40.1767 23.6008 39.9447 23.3031 39.8244 22.9049L36.9586 13.4162C36.8383 13.018 36.869 12.6494 37.0508 12.3103C37.2279 11.956 37.5156 11.7187 37.9138 11.5984C38.312 11.4781 38.683 11.5165 39.0266 11.7136C39.3656 11.8953 39.5953 12.1853 39.7156 12.5835L40.014 13.5714L39.6485 13.6066C39.7077 13.3046 39.8159 12.9711 39.9731 12.606C40.1256 12.2257 40.3387 11.8521 40.6123 11.4853C40.886 11.1185 41.2141 10.7938 41.5967 10.5111C41.9747 10.2131 42.4164 9.98781 42.9219 9.83511Z" fill="currentColor"/>
<path d="M66.9135 21.1132C65.5665 20.9258 64.4324 20.4853 63.5112 19.7917C62.608 19.0845 61.9543 18.21 61.55 17.1684C61.1616 16.1289 61.0522 14.9991 61.222 13.7788C61.4205 12.3526 61.8744 11.1799 62.5838 10.2609C63.3113 9.32833 64.18 8.65763 65.19 8.24893C66.2 7.84023 67.2279 7.70863 68.2738 7.85423C69.0821 7.96663 69.8196 8.23893 70.4864 8.67093C71.1691 9.10513 71.7469 9.65403 72.22 10.3175C72.6953 10.9652 73.0385 11.6914 73.2496 12.4962C73.4765 13.3032 73.5304 14.1346 73.4114 14.9903C73.3426 15.3684 73.1491 15.6565 72.8307 15.8545C72.5124 16.0525 72.1631 16.1251 71.7827 16.0722L62.7022 14.8086L62.3199 12.3323L71.0438 13.5462L70.4547 13.9489L70.544 13.3071C70.5762 12.8431 70.4672 12.4079 70.2168 12.0015C69.9823 11.5973 69.6575 11.2614 69.2424 10.9936C68.8454 10.7122 68.4013 10.5373 67.91 10.469C67.4346 10.4028 66.982 10.4045 66.5524 10.4739C66.1227 10.5434 65.7364 10.7077 65.3934 10.9669C65.0504 11.2261 64.7564 11.5971 64.5115 12.08C64.2667 12.5628 64.0902 13.1925 63.9821 13.969C63.8631 14.8248 63.936 15.578 64.2008 16.2287C64.4837 16.8658 64.8804 17.3814 65.391 17.7755C65.9196 18.156 66.5008 18.3903 67.1347 18.4786C67.7211 18.5601 68.1952 18.5776 68.5571 18.5311C68.9189 18.4845 69.2117 18.4122 69.4354 18.3141C69.6771 18.2023 69.8917 18.111 70.0792 18.0402C70.3843 17.9372 70.6637 17.9034 70.9172 17.9387C71.2659 17.9872 71.5346 18.1458 71.7234 18.4143C71.928 18.6851 72.0083 18.979 71.9642 19.2959C71.9046 19.7238 71.6287 20.0812 71.1365 20.3681C70.676 20.6594 70.0545 20.8879 69.2722 21.0537C68.4921 21.2036 67.7059 21.2235 66.9135 21.1132Z" fill="currentColor"/>
</svg>
