<svg viewBox="0 0 235 5" fill="none" xmlns="http://www.w3.org/2000/svg">
<path d="M1 2C11.3605 2 21.7211 2 32.0816 2C40.0661 2 48.0281 1.82161 56.0092 1.68519C61.7591 1.5869 67.5524 2.227 73.2872 2.64815C78.5426 3.0341 83.9806 2.66667 89.2389 2.66667C94.6273 2.66667 100.201 2.2477 105.564 2.81481C109.567 3.23808 113.644 3.55585 117.668 3.66667C126.294 3.90422 134.947 4 143.613 4C150.039 4 156.464 4 162.89 4C169.577 4 176.209 2.90633 182.82 2.07407C188.941 1.30349 195.542 2 201.704 2C204.981 2 208.166 1.66667 211.473 1.66667C218.981 1.66667 226.48 1 234 1" stroke="currentColor" stroke-width="2" stroke-linecap="round"/>
</svg>
