<svg viewBox="0 0 28 74" fill="none" xmlns="http://www.w3.org/2000/svg">
    <g filter="url(#filter0_d_62_519)">
        <path d="M11.5455 65.2562C10.9601 65.2478 10.3751 65.2079 9.79433 65.1367C8.86768 64.9824 8.48331 64.5605 8.65114 63.6286C8.85456 62.5016 8.8105 61.3249 9.28625 60.2429C9.36734 59.9634 9.39172 59.6704 9.3575 59.3816C9.32375 55.8436 9.28625 52.3055 9.24548 48.7674C9.21782 46.0723 9.17376 43.3776 9.17798 40.6824C9.1822 38.0239 9.24126 35.3647 9.27079 32.7062C9.29844 30.2262 9.30828 27.7462 9.34484 25.2667C9.39593 21.7989 9.50609 18.3317 9.50421 14.8638C9.50374 13.5254 9.25392 12.1879 9.14611 10.8476C9.14798 10.5367 9.18454 10.2273 9.25625 9.92494C9.44655 8.67883 9.53373 7.41028 8.60943 6.42196C8.05728 5.9541 7.45125 5.55326 6.80489 5.22791C6.43976 4.99211 6.07088 4.76098 5.71607 4.51063L5.7156 4.51063C5.44796 4.31748 5.23892 4.05401 5.11143 3.74977C4.98394 3.44504 4.94317 3.11125 4.99378 2.78496C5.06878 1.57821 5.78732 0.992181 6.98251 1.26653L6.98204 1.26653C7.91009 1.45781 8.82317 1.71472 9.71506 2.03443C10.4791 2.29743 11.3087 2.29697 12.0723 2.03303C12.6647 1.86848 13.2141 1.55625 13.7999 1.36122C16.2021 0.562383 18.5644 0.349537 20.8353 1.81268C21.7118 2.41369 22.4224 3.22609 22.9014 4.17505C23.2403 4.87169 23.3036 5.67055 23.0781 6.41176C22.8522 7.15294 22.3545 7.7816 21.6852 8.17069C21.441 8.29867 21.1555 8.32024 20.8949 8.2307C20.759 8.17303 20.6943 7.79798 20.7032 7.56968C20.7299 6.57862 20.3526 5.61848 19.6585 4.91064C18.9643 4.20228 18.0118 3.8066 17.0206 3.81364C16.1558 3.86145 13.8005 5.16188 13.4602 5.94581L13.4598 5.94581C13.1542 6.64059 12.9845 7.38791 12.9606 8.1464C12.924 10.2551 13.0051 12.3656 13.0342 14.4752C13.0492 15.5699 13.0571 16.6641 13.0585 17.7587C13.0688 22.8345 13.0773 27.9103 13.0843 32.9862C13.0913 37.2926 13.0895 41.5986 13.1082 45.9045C13.1195 48.4614 13.1682 51.0182 13.1884 53.5751C13.1963 54.5545 13.1785 55.5338 13.1602 56.5131L13.1598 56.5131C13.0937 58.5196 13.3079 60.5252 13.7958 62.4725C13.9083 62.8958 13.9885 63.3267 14.0358 63.7617C14.1342 64.6806 13.7705 65.1193 12.8528 65.2066C12.4548 65.245 12.0522 65.2384 11.5455 65.2562ZM10.3549 11.5978C10.3967 12.7979 10.4674 13.9188 10.4684 15.0402C10.4716 18.6881 10.4763 22.3363 10.4281 25.9836C10.3863 29.1205 10.2429 32.2558 10.2026 35.3925C10.1792 37.2171 10.2959 39.0427 10.302 40.8682C10.3123 43.967 10.2556 47.0659 10.286 50.1646C10.2996 51.5448 10.4801 52.9222 10.5438 54.3027C10.6174 55.8939 10.6221 57.4888 10.7018 59.0799C10.7529 60.1033 10.7894 60.1014 12.0062 59.7939C12.0648 59.0898 12.1782 58.3373 12.1815 57.5844C12.1927 54.923 12.1581 52.262 12.1557 49.6007C12.1515 43.8752 12.1627 38.1497 12.1552 32.4242C12.1524 30.127 12.114 27.83 12.0985 25.5328C12.0732 21.7373 12.0634 17.9414 12.0231 14.1459C12.0137 13.2814 11.9064 12.4183 11.8356 11.4348L10.3549 11.5978ZM5.9748 3.01996L5.81497 3.10669L6.15621 3.66785L6.26542 3.60691L5.9748 3.01996ZM16.5837 2.00124L16.6821 1.81747L16.092 1.62479C16.2091 1.81371 16.2321 1.89951 16.2851 1.92623L16.2856 1.92623C16.3816 1.96233 16.4815 1.98764 16.5837 2.00124Z"
              fill="currentColor"/>
    </g>
    <defs>
        <filter id="filter0_d_62_519" x="0.972656" y="0.736328" width="26.2383" height="72.5195"
                filterUnits="userSpaceOnUse" color-interpolation-filters="sRGB">
            <feFlood flood-opacity="0" result="BackgroundImageFix"/>
            <feColorMatrix in="SourceAlpha" type="matrix" values="0 0 0 0 0 0 0 0 0 0 0 0 0 0 0 0 0 0 127 0"
                           result="hardAlpha"/>
            <feOffset dy="4"/>
            <feGaussianBlur stdDeviation="2"/>
            <feComposite in2="hardAlpha" operator="out"/>
            <feColorMatrix type="matrix" values="0 0 0 0 0 0 0 0 0 0 0 0 0 0 0 0 0 0 0.25 0"/>
            <feBlend mode="normal" in2="BackgroundImageFix" result="effect1_dropShadow_62_519"/>
            <feBlend mode="normal" in="SourceGraphic" in2="effect1_dropShadow_62_519" result="shape"/>
        </filter>
    </defs>
</svg>
