<svg viewBox="0 0 90 90" fill="none" xmlns="http://www.w3.org/2000/svg">
    <g filter="url(#filter0_d_62_266)">
        <path d="M70.4995 51.6266C66.3023 51.6266 62.6366 48.9055 61.3644 44.9996H28.634C27.3588 48.9055 23.696 51.6266 19.4988 51.6266C14.1918 51.6266 9.875 47.3094 9.875 41.9998C9.875 39.8186 10.6399 37.6977 12.008 35.9996C10.6399 34.2986 9.875 32.1807 9.875 29.9995C9.875 24.6893 14.1922 20.3727 19.4988 20.3727C23.696 20.3727 27.3588 23.0938 28.634 26.9996H61.3644C62.6426 23.0938 66.3023 20.3727 70.4995 20.3727C75.8066 20.3727 80.1203 24.6899 80.1203 29.9995C80.1203 32.1807 79.3584 34.2986 77.9873 35.9996C79.3583 37.6977 80.1203 39.8186 80.1203 41.9998C80.1203 47.3099 75.806 51.6266 70.4995 51.6266ZM27.4744 41.9998H62.5255C63.2457 41.9998 63.8665 42.5126 63.9956 43.2237C64.5837 46.3556 67.3163 48.6267 70.4995 48.6267C74.1507 48.6267 77.1204 45.6535 77.1204 41.9997C77.1204 40.131 76.3405 38.3937 74.9271 37.1095C74.6152 36.8248 74.435 36.4225 74.435 35.9996C74.435 35.5767 74.6147 35.1744 74.9271 34.8897C76.343 33.6055 77.1204 31.8688 77.1204 29.9995C77.1204 26.3452 74.1502 23.3725 70.4995 23.3725C67.3163 23.3725 64.5837 25.6436 63.9956 28.7755C63.8665 29.4836 63.2458 29.9994 62.5255 29.9994H27.4744C26.7512 29.9994 26.1304 29.4866 26.0013 28.7755C25.4132 25.6436 22.6806 23.3725 19.5005 23.3725C15.8462 23.3725 12.8765 26.3457 12.8765 29.9995C12.8765 31.8682 13.6565 33.6055 15.0722 34.8897C15.3841 35.1744 15.5644 35.5767 15.5644 35.9996C15.5644 36.4225 15.3846 36.8248 15.0722 37.1095C13.6535 38.3937 12.8765 40.1304 12.8765 41.9997C12.8765 45.654 15.8497 48.6267 19.5005 48.6267C22.6806 48.6267 25.4132 46.3556 26.0013 43.2237C26.1304 42.5126 26.7512 41.9998 27.4744 41.9998Z"
              fill="currentColor"/>
    </g>
    <defs>
        <filter id="filter0_d_62_266" x="-4" y="0" width="98" height="98" filterUnits="userSpaceOnUse"
                color-interpolation-filters="sRGB">
            <feFlood flood-opacity="0" result="BackgroundImageFix"/>
            <feColorMatrix in="SourceAlpha" type="matrix" values="0 0 0 0 0 0 0 0 0 0 0 0 0 0 0 0 0 0 127 0"
                           result="hardAlpha"/>
            <feOffset dy="4"/>
            <feGaussianBlur stdDeviation="2"/>
            <feComposite in2="hardAlpha" operator="out"/>
            <feColorMatrix type="matrix" values="0 0 0 0 0 0 0 0 0 0 0 0 0 0 0 0 0 0 0.25 0"/>
            <feBlend mode="normal" in2="BackgroundImageFix" result="effect1_dropShadow_62_266"/>
            <feBlend mode="normal" in="SourceGraphic" in2="effect1_dropShadow_62_266" result="shape"/>
        </filter>
    </defs>
</svg>
