<svg viewBox="0 0 32 32" fill="none" xmlns="http://www.w3.org/2000/svg">
    <path d="M4.58361 29.8004C4.45389 29.8004 4.32871 29.7305 4.2634 29.6084C4.2135 29.5145 3.03106 27.2791 2.43236 24.4053C2.07812 22.7045 2.00555 21.1358 2.21646 19.7431C2.48406 17.9774 3.20886 16.4931 4.37044 15.331C5.51024 14.1906 6.24366 13.0126 6.55117 11.83C6.80789 10.8408 6.75301 9.85742 6.39243 8.98615C5.81096 7.58168 4.49245 6.60106 3.18618 6.60106C2.69588 6.60106 2.304 6.72812 2.05318 6.96817C1.7824 7.22728 1.7257 7.56172 1.7257 7.79678C1.7257 8.26327 1.9484 8.76516 2.32123 9.13907C2.62512 9.44402 3.16622 9.8075 4.01575 9.8075C4.21622 9.8075 4.3786 9.96995 4.3786 10.1705C4.3786 10.3711 4.21622 10.5336 4.01575 10.5336C2.15296 10.5331 1 9.11275 1 7.79678C1 7.26494 1.19549 6.78484 1.55108 6.44405C1.93933 6.07194 2.50493 5.875 3.18573 5.875C4.77774 5.875 6.37202 7.04032 7.06234 8.70843C7.4837 9.72673 7.54992 10.8694 7.25284 12.0124C6.91267 13.3221 6.1153 14.6113 4.88296 15.8442C3.83523 16.8924 3.17938 18.2379 2.93445 19.8434C2.73534 21.148 2.80383 22.6274 3.13856 24.2406C3.71413 27.0159 4.89068 29.244 4.90292 29.2662C4.99726 29.4432 4.93014 29.6629 4.7537 29.7572C4.69927 29.7863 4.64076 29.7999 4.58316 29.7999L4.58361 29.8004Z"
          fill="currentColor"/>
    <path d="M27.8803 1.53456C27.8644 1.40569 27.78 1.28997 27.6503 1.24006C27.551 1.20194 25.1893 0.30163 22.2647 0.0588554C20.5344 -0.0849944 18.9691 0.0352585 17.6134 0.415076C15.8948 0.896996 14.5106 1.79821 13.5 3.09377C12.5085 4.36527 11.4295 5.2379 10.2938 5.6876C9.34401 6.06379 8.36159 6.12959 7.4531 5.87819C5.98899 5.47296 4.85463 4.28359 4.69452 2.98622C4.63465 2.49931 4.71266 2.09453 4.91994 1.81636C5.144 1.51596 5.46875 1.41885 5.70189 1.38981C6.16452 1.33263 6.68975 1.49236 7.10612 1.81682C7.44584 2.08137 7.87265 2.57418 7.97651 3.41732C8.001 3.61653 8.18198 3.75766 8.38109 3.73315C8.57975 3.70865 8.72126 3.52759 8.69677 3.32837C8.46863 1.47875 6.91835 0.507649 5.61299 0.668742C5.08549 0.733633 4.63283 0.986845 4.33847 1.38164C4.01689 1.81273 3.8908 2.39812 3.97426 3.07471C4.16929 4.65524 5.52001 6.09601 7.25943 6.57747C8.32122 6.87153 9.46284 6.79711 10.5605 6.36238C11.8182 5.86458 12.9993 4.91481 14.0715 3.54029C14.9832 2.37134 16.2377 1.55589 17.8003 1.11617C19.0702 0.759045 20.5461 0.646053 22.1876 0.780373C25.011 1.0118 27.3655 1.90803 27.3891 1.9171C27.5759 1.98926 27.7859 1.89578 27.8581 1.70882C27.8803 1.65119 27.8866 1.59129 27.8798 1.53411L27.8803 1.53456Z"
          fill="currentColor"/>
    <path d="M3.56077 8.79385C3.80576 8.79385 4.00436 8.59516 4.00436 8.35005C4.00436 8.10495 3.80576 7.90625 3.56077 7.90625C3.31579 7.90625 3.11719 8.10495 3.11719 8.35005C3.11719 8.59516 3.31579 8.79385 3.56077 8.79385Z"
          fill="currentColor"/>
    <path d="M5.39866 10.411C5.64365 10.411 5.84225 10.2123 5.84225 9.96724C5.84225 9.72213 5.64365 9.52344 5.39866 9.52344C5.15368 9.52344 4.95508 9.72213 4.95508 9.96724C4.95508 10.2123 5.15368 10.411 5.39866 10.411Z"
          fill="currentColor"/>
    <path d="M6.22484 3.60635C6.46982 3.60635 6.66842 3.40766 6.66842 3.16255C6.66842 2.91745 6.46982 2.71875 6.22484 2.71875C5.97985 2.71875 5.78125 2.91745 5.78125 3.16255C5.78125 3.40766 5.97985 3.60635 6.22484 3.60635Z"
          fill="currentColor"/>
    <path d="M8.35179 5.27042C8.59678 5.27042 8.79538 5.07172 8.79538 4.82661C8.79538 4.58151 8.59678 4.38281 8.35179 4.38281C8.1068 4.38281 7.9082 4.58151 7.9082 4.82661C7.9082 5.07172 8.1068 5.27042 8.35179 5.27042Z"
          fill="currentColor"/>
    <path d="M29.5569 3.68448C29.8019 3.68448 30.0005 3.48578 30.0005 3.24068C30.0005 2.99557 29.8019 2.79688 29.5569 2.79688C29.3119 2.79688 29.1133 2.99557 29.1133 3.24068C29.1133 3.48578 29.3119 3.68448 29.5569 3.68448Z"
          fill="currentColor"/>
    <path d="M5.47874 31.997C5.72373 31.997 5.92233 31.7983 5.92233 31.5532C5.92233 31.3081 5.72373 31.1094 5.47874 31.1094C5.23376 31.1094 5.03516 31.3081 5.03516 31.5532C5.03516 31.7983 5.23376 31.997 5.47874 31.997Z"
          fill="currentColor"/>
</svg>
