<svg width="48" height="48" viewBox="0 0 48 48" fill="none" xmlns="http://www.w3.org/2000/svg">
<path d="M23.9725 0.857422C11.1221 0.857422 0.667969 11.3139 0.667969 24.1666C0.667969 37.0192 11.1218 47.4757 23.9725 47.4757C36.8223 47.4757 47.277 37.0192 47.277 24.1666C47.277 11.3139 36.8226 0.857422 23.9725 0.857422ZM23.9725 45.687C12.1079 45.687 2.45488 36.033 2.45488 24.1666C2.45488 12.3001 12.1075 2.64612 23.9725 2.64612C35.8375 2.64612 45.4886 12.3001 45.4886 24.1666C45.4886 36.033 35.8366 45.687 23.9725 45.687Z" fill="#8F8F8F"/>
<path d="M13.0696 17.0761L20.9605 17.0761C21.4542 17.0761 21.8543 16.676 21.8543 16.1821C21.8543 15.6882 21.4542 15.2881 20.9605 15.2881L13.0696 15.2881C12.5759 15.2881 12.1758 15.6882 12.1758 16.1821C12.1758 16.676 12.5759 17.0761 13.0696 17.0761Z" fill="#8F8F8F"/>
<path d="M26.9837 17.0761L34.8745 17.0761C35.3683 17.0761 35.7684 16.676 35.7684 16.1821C35.7684 15.6882 35.3683 15.2881 34.8745 15.2881L26.9837 15.2881C26.4899 15.2881 26.0898 15.6882 26.0898 16.1821C26.0904 16.676 26.4905 17.0761 26.9837 17.0761Z" fill="#8F8F8F"/>
<path d="M32.7738 27.448C32.1818 26.7712 31.058 26.7712 30.466 27.4486L27.7963 30.5054L25.1266 27.448C24.5346 26.7712 23.4108 26.7712 22.8188 27.4485L20.1491 30.5054L17.4793 27.448C16.8874 26.7712 15.7635 26.7712 15.1716 27.4485L11.9004 31.1935C11.5755 31.565 11.6137 32.1296 11.9857 32.4545C12.3577 32.7811 12.9216 32.7424 13.2465 32.3692L16.3259 28.8442L18.9956 31.9017C19.5876 32.5785 20.7114 32.5785 21.3034 31.9011L23.9726 28.8442L26.6423 31.9017C27.2342 32.5785 28.3581 32.5785 28.95 31.9011L31.6198 28.8443L34.6992 32.3692C34.8759 32.5718 35.1234 32.6751 35.3725 32.6751C35.5812 32.6751 35.7905 32.6027 35.96 32.454C36.332 32.129 36.3696 31.5644 36.0453 31.1929L32.7738 27.448Z" fill="#8F8F8F"/>
</svg>
