<svg viewBox="0 0 32 32" fill="none" xmlns="http://www.w3.org/2000/svg">
    <g clip-path="url(#clip0_1121_6134)">
        <path d="M0.256646 17.8952L0.382277 17.7571C0.306898 17.5563 0.251262 17.3411 0 17.2909C0.0358946 17.0955 0.0735838 16.9 0.120247 16.649L0.466629 16.3692L0.486371 16.1899C0.675893 16.0003 0.841627 15.7884 0.979921 15.5587C1.1335 15.3357 1.31437 15.1327 1.51834 14.9544C1.66914 14.7812 1.80711 14.5972 1.93113 14.4039C2.19316 14.3627 2.25059 13.9969 2.5198 13.866L2.54672 13.6329H2.80875L2.8267 13.4249C3.00617 13.2456 3.2 13.1039 3.36511 12.9336C3.53023 12.7632 3.75278 12.6413 3.83354 12.3705C3.91794 12.3652 4.00095 12.3464 4.07942 12.3149C4.16872 12.2732 4.24051 12.2015 4.28222 12.1123C4.36657 11.8164 4.61604 11.6891 4.84397 11.5743C5.01289 11.488 5.15084 11.3514 5.23881 11.1834L5.52058 11.0561L5.70006 10.7656L5.81133 10.8804L5.88491 10.719L6.24386 10.5397L6.28155 10.3819L6.39641 10.4787C6.53819 10.2295 6.53819 10.2295 6.80022 10.1864L6.89176 10.0071L6.99047 10.1057C7.04969 10.0215 7.10712 9.94257 7.20045 9.81346L7.61144 9.6736L7.64554 9.51042L7.77297 9.60366L7.84296 9.4369C8.08704 9.37414 8.29882 9.14462 8.59854 9.11593C8.62936 9.11379 8.65851 9.10113 8.6811 9.08006C8.93057 8.79854 9.27874 8.72143 9.61615 8.61922C9.73281 8.58156 9.91049 8.53136 9.89972 8.32694L10.0092 8.4148C10.1585 8.3015 10.3252 8.21309 10.5027 8.153C10.6653 8.11143 10.8225 8.05126 10.9712 7.97368C11.1399 7.90913 11.3301 7.91092 11.5096 7.84099C11.8308 7.70292 12.1952 7.68678 12.4967 7.51284C12.5965 7.46679 12.7065 7.44704 12.8162 7.45546C12.9292 7.45546 13.0441 7.45546 13.1195 7.45546L13.4443 7.27615C13.6345 7.50029 13.8391 7.27615 14.0204 7.2349C14.2444 7.2078 14.4663 7.16526 14.6845 7.10759C14.9264 7.04848 15.1734 7.01245 15.4221 7L15.6572 7.12193L16.3141 7L16.4487 7.13807L16.8704 7C16.9933 7.02763 17.1108 7.07486 17.2186 7.13987C17.3443 7.24208 17.4609 6.98924 17.5632 7.15421C17.705 7.0251 17.8288 7.20801 17.9778 7.17752C18.0532 7.14697 18.1356 7.138 18.2158 7.15162C18.296 7.16523 18.3708 7.20091 18.4319 7.25463C18.4624 7.2887 18.5557 7.26359 18.6113 7.26359C18.7738 7.25101 18.937 7.25101 19.0995 7.26359C19.2287 7.28691 19.3436 7.39629 19.4728 7.4196C19.6806 7.44623 19.8897 7.46179 20.0992 7.46622L20.2661 7.63298C20.4455 7.55946 20.5873 7.7083 20.7363 7.69933C20.8852 7.69037 21.0252 7.78002 21.1886 7.75671C21.1993 7.80154 21.2083 7.84458 21.2227 7.91092L21.3932 7.89479C21.7359 7.98982 22.0913 8.23728 22.47 8.43273L22.8289 8.28928L22.6495 8.50087C22.7554 8.50332 22.8611 8.51411 22.9653 8.53315C23.043 8.56086 23.117 8.59757 23.1861 8.64253L23.4194 8.95633L23.5809 8.83799C23.7084 8.92406 23.8322 9.0173 23.9632 9.0962C24.0942 9.1751 24.2701 9.15358 24.3491 9.36159C24.385 9.45663 24.6093 9.48352 24.7942 9.55884L24.8408 9.69691H25.0634L25.4457 10.0806H25.6646C25.7382 10.3424 26.072 10.2976 26.1671 10.4913C26.2784 10.719 26.5692 10.7298 26.623 10.9934L26.7576 10.8607C26.7702 11.1261 27.0286 11.1512 27.1453 11.3359C27.2955 11.5152 27.4701 11.6728 27.6639 11.8039L27.7034 11.7734C27.8602 11.9613 28.0268 12.1408 28.2024 12.3113C28.456 12.5522 28.6879 12.815 28.8951 13.0967C29.0208 13.2527 29.1805 13.4016 29.3223 13.554C29.464 13.7064 29.5646 13.8857 29.7099 14.0256C29.814 14.1242 29.8248 14.291 30.0061 14.3502C30.1119 14.3842 30.173 14.5599 30.2519 14.6747C30.356 14.8235 30.4565 14.976 30.5355 15.0889C30.6755 15.2342 30.8693 15.34 30.8944 15.4727C30.925 15.6861 31.0506 15.7488 31.2031 15.8187L31.117 15.9048L31.4077 16.0931L31.2839 16.233L31.5836 16.4786C31.6249 16.5988 31.5729 16.6723 31.6913 16.7548C31.9677 16.9448 32.0359 17.2013 32 17.5832C31.9731 17.8665 31.9587 17.8737 31.6411 17.7338L31.5352 18.0925C31.5717 18.0915 31.6078 18.1009 31.6393 18.1194C31.7613 18.2252 31.8762 18.3381 31.9982 18.4493C31.659 19.1522 31.659 19.1522 31.3198 19.3351L31.3898 19.4122C31.108 19.6131 30.8191 19.8175 30.5337 20.0237C30.3542 20.16 30.1837 20.3321 29.9953 20.4612C29.8068 20.5903 29.5807 20.7194 29.3761 20.8539C29.2343 20.9472 29.1015 21.0512 28.9597 21.1444C28.5505 21.4152 28.1413 21.6824 27.7268 21.9496C27.6128 22.0201 27.4927 22.0801 27.3678 22.1289C27.0376 22.258 26.7684 22.4875 26.4561 22.6471C26.3574 22.6898 26.2561 22.7263 26.1528 22.7565L25.9159 22.995C25.5677 22.9573 25.3128 23.203 25.0185 23.3213C24.5303 23.5221 24.0906 23.836 23.5432 23.8915C23.2148 24.1264 22.8092 24.1641 22.4467 24.3093C21.7324 24.5729 20.9983 24.6716 20.3127 24.9316C20.0686 24.8294 19.8856 25.0427 19.6612 25.0571C19.4114 25.059 19.1628 25.0934 18.9218 25.1593C18.6239 25.2633 18.3008 25.1593 18.037 25.2651C17.6547 25.4103 17.2635 25.2848 16.8812 25.4247C16.6084 25.5233 16.2692 25.4444 15.9587 25.4444C15.7325 25.4158 15.5033 25.4206 15.2785 25.4588C15.0739 25.5233 14.9052 25.3942 14.7186 25.4426C14.6199 25.4677 14.5158 25.4803 14.3794 25.5036C14.3794 25.5036 14.3488 25.4498 14.3112 25.448C14.1155 25.448 13.9181 25.448 13.7243 25.448C13.5305 25.448 13.3653 25.3852 13.1859 25.353C12.8162 25.2884 12.4375 25.3099 12.0695 25.1736C11.845 25.1117 11.6133 25.0792 11.3804 25.0768C10.7594 25.0248 10.1887 24.8025 9.60179 24.6357C9.31105 24.555 9.0203 24.4564 8.73853 24.3596C8.45676 24.2627 8.11755 24.2269 7.85732 24.0009C7.69759 23.8611 7.43017 23.8539 7.23814 23.7409C6.87919 23.5329 6.48974 23.411 6.13976 23.203C5.78979 22.995 5.47392 22.7601 5.14369 22.5359C5.13113 22.5359 5.10959 22.5359 5.10062 22.5216C4.97678 22.4086 4.72013 22.5108 4.67706 22.2651C4.49759 22.2257 4.41144 22.0338 4.26248 21.9675C4.17007 21.9224 4.09869 21.8434 4.06326 21.7469H3.85866C3.28794 21.209 2.71004 20.671 2.14111 20.1331C1.75615 19.7194 1.39655 19.2829 1.06427 18.8259C0.796859 18.4941 0.65687 18.0817 0.256646 17.8952ZM24.5357 15.7112C24.5088 15.6807 24.4442 15.6215 24.4514 15.6107C24.5465 15.4691 24.4352 15.3346 24.4514 15.2001C24.4675 15.0656 24.4065 14.9437 24.5357 14.8415C24.5515 14.8142 24.5598 14.7833 24.5598 14.7518C24.5598 14.7203 24.5515 14.6894 24.5357 14.6622C24.367 14.4613 24.4801 14.2282 24.4424 14.0148C24.4101 13.8355 24.5321 13.6257 24.3491 13.4769L24.4406 13.3765L24.2288 13.2617C24.2773 13.1685 24.3168 13.0824 24.3563 13.0089C24.2827 12.9246 24.2199 12.8475 24.1606 12.7776L24.2737 12.6538L24.0494 12.5086L24.1481 12.3795L23.9524 12.3095L24.0386 12.2127C23.9722 12.0938 23.9158 11.9697 23.8699 11.8415C23.843 11.7519 23.8806 11.6371 23.7227 11.6622C23.6007 11.3556 23.3351 11.1027 23.3781 10.6957L22.8792 10.407L22.8433 10.3012H22.5938L21.5367 9.72739C21.5367 9.72739 21.5098 9.75429 21.4578 9.80629C21.2783 9.52656 20.9463 9.5427 20.6986 9.39924L20.555 9.52477L20.5084 9.3311C20.3576 9.254 20.1494 9.40283 20.0166 9.23607C19.69 9.28448 19.4566 8.95633 19.1192 9.01909C19.071 8.9648 19.0068 8.92721 18.9359 8.91174C18.8649 8.89627 18.7908 8.90372 18.7244 8.93302C18.57 8.99399 18.4534 8.73936 18.3152 8.9133C18.2255 8.77343 18.0819 8.82364 17.9563 8.82902C17.8306 8.8344 17.7319 8.68736 17.6081 8.79854C17.5076 8.67302 17.3676 8.73578 17.2491 8.7286C17.1307 8.72143 16.9566 8.7286 16.8094 8.7286C16.5976 8.7286 16.3859 8.7286 16.1741 8.7286C16.1038 8.71083 16.0362 8.68369 15.9731 8.64791C15.9515 8.66764 15.9192 8.71784 15.878 8.72681C15.6626 8.77523 15.4275 8.64432 15.2265 8.8075C15.0201 8.60308 14.8298 8.8344 14.6306 8.83619C14.3162 8.8248 14.0018 8.85924 13.6974 8.9384C13.4317 9.02268 13.1446 8.99758 12.8951 9.11772C12.6278 9.23123 12.3455 9.30552 12.057 9.33828C11.5814 9.42793 11.1883 9.77401 10.6912 9.81346C10.3197 10.1147 9.82793 10.1864 9.44565 10.4662C9.40181 10.4917 9.35382 10.5093 9.30387 10.5182V10.8535L9.48334 10.9109V10.9683H9.07055L9.33259 11.3197L8.97364 11.6084L9.06697 11.6604C8.65956 12.1069 8.67213 12.7363 8.34907 13.1613C8.32459 13.424 8.27348 13.6835 8.19652 13.9359C8.1417 14.064 8.11361 14.2019 8.11396 14.3412C8.11396 14.5366 8.11396 14.7321 8.11396 14.9258C8.09945 14.9994 8.07468 15.0706 8.04038 15.1373C8.06518 15.1602 8.08497 15.1879 8.09851 15.2188C8.11205 15.2496 8.11904 15.283 8.11904 15.3167C8.11904 15.3504 8.11205 15.3837 8.09851 15.4146C8.08497 15.4454 8.06518 15.4731 8.04038 15.496C8.01525 15.5229 8.02243 15.5803 8.01705 15.6161L8.19652 15.7954C8.03679 15.9927 8.14089 16.2114 8.11038 16.389L8.33113 16.6239L8.22883 16.7817L8.37061 17.0578C8.3419 17.1511 8.29344 17.221 8.31139 17.264C8.39035 17.4595 8.49086 17.6442 8.57521 17.8378C8.65956 18.0315 8.7816 18.2054 8.86237 18.4027C8.96467 18.6537 9.14773 18.8689 9.26439 19.1199C9.40262 19.4552 9.64398 19.7377 9.95356 19.9269L9.87818 20.0219C10.0274 20.1159 10.1664 20.2253 10.2928 20.3483C10.3987 20.472 10.4471 20.6262 10.6356 20.6925C10.7878 20.7705 10.927 20.8715 11.0483 20.992C11.2098 21.0892 11.3571 21.2081 11.4863 21.3453C11.5904 21.4869 11.8829 21.3237 11.8632 21.6089C11.9437 21.6076 12.0234 21.6265 12.0948 21.6637C12.1663 21.701 12.2273 21.7555 12.2723 21.8222C12.3244 21.7684 12.3477 21.7469 12.3441 21.7487L12.9579 22.1073L13.0764 22.0213C13.1033 22.1056 13.1231 22.1629 13.1428 22.2221L13.2128 22.1593L14.3112 22.518L14.4117 22.4265L14.8298 22.5933C14.9573 22.3853 15.0847 22.6561 15.1888 22.5933C15.3377 22.5144 15.4634 22.7834 15.5998 22.5933C15.6949 22.7278 15.8708 22.5538 15.9731 22.726L16.1526 22.4839C16.5061 22.6256 16.8993 22.6332 17.2581 22.5054L17.4483 22.6309C17.5632 22.3064 17.8737 22.4516 18.0765 22.3297L18.1734 22.4212L18.3242 22.197L18.4444 22.292C18.7136 22.2257 18.9721 22.1845 19.2126 22.0984C19.4531 22.0123 19.7043 21.8707 19.9466 21.7559C19.9556 21.7164 19.9646 21.6716 19.9789 21.6035C20.2948 21.6913 20.4617 21.4367 20.6968 21.3219C20.9319 21.2072 21.1796 21.1139 21.2837 20.836L21.3626 20.9167L21.9011 20.5079C21.9037 20.4663 21.9091 20.425 21.9172 20.3841C21.9172 20.3411 21.9423 20.2998 21.9603 20.2425L22.0608 20.3429C22.2328 20.0332 22.4852 19.7755 22.7912 19.5969L22.9187 19.2939C23.0305 19.2529 23.124 19.1734 23.1825 19.0697C23.3287 18.7213 23.5353 18.4014 23.7927 18.1247V17.9383L23.956 17.8934C23.9183 17.8056 23.8878 17.741 23.8591 17.6747L24.1032 17.5689L23.9919 17.3896C24.0887 17.2761 24.1685 17.1493 24.2288 17.013C24.2632 16.8503 24.2789 16.6843 24.2755 16.5181L24.4729 16.1361L24.3742 16.0196C24.4191 15.9174 24.4765 15.8134 24.5357 15.7112ZM2.92182 18.6555C3.10129 18.8707 3.39921 18.9532 3.50331 19.2365C3.68278 19.2562 3.69714 19.4481 3.80841 19.5395C3.91969 19.631 4.05429 19.6238 4.11172 19.7996C4.15121 19.9197 4.33427 19.9914 4.45272 20.0865C4.63219 20.2353 4.81167 20.3949 5.00191 20.5312C5.11553 20.6023 5.23574 20.6623 5.36085 20.7105C5.29445 20.9848 5.64083 20.7445 5.66955 20.9597C5.68211 21.0566 5.85979 21.139 5.96568 21.2144C5.99006 21.2318 6.01845 21.2429 6.04823 21.2466C6.33718 21.2968 6.54178 21.5317 6.8415 21.5676L6.70151 21.7326H7.09276C7.12328 21.8222 7.14122 21.8796 7.16455 21.9442C7.37454 21.8814 7.53606 21.9854 7.70297 22.0715C7.66169 22.2705 7.8645 22.2508 7.94526 22.2956C8.16785 22.4106 8.39812 22.51 8.63444 22.5933L8.81391 22.4947C8.92159 22.6023 9.02569 22.7081 9.09748 22.778L9.34335 22.7063L9.40078 22.8748C9.54975 22.9143 9.66999 22.9412 9.78665 22.9788C9.99423 23.0675 10.2092 23.1377 10.4292 23.1886C10.5351 23.2048 10.6248 23.2819 10.7558 23.2514C10.8844 23.2354 11.015 23.2533 11.1345 23.3034C11.2476 23.341 11.3983 23.4827 11.445 23.4594C11.6101 23.3482 11.7716 23.6262 11.9116 23.4415C11.5832 23.2783 11.2547 23.1241 10.9389 22.9501C10.7682 22.8433 10.604 22.7266 10.4471 22.6005C10.2724 22.5014 10.1109 22.3809 9.96612 22.2418C9.8387 22.0912 9.59462 22.0625 9.54795 21.8402C8.83006 21.3686 8.36523 20.689 7.88783 20.0004C7.59754 19.5419 7.34198 19.0624 7.12327 18.5659C7.082 18.4816 7.05508 18.3991 7.02277 18.313C6.88403 17.9426 6.78243 17.5594 6.71946 17.169C6.70151 17.0542 6.60101 16.9484 6.59563 16.8355C6.58502 16.7372 6.56884 16.6396 6.54717 16.5432C6.52384 16.4015 6.60101 16.1846 6.52743 16.12C6.37487 15.9712 6.59742 15.9084 6.54717 15.7936C6.49691 15.6789 6.54717 15.5605 6.47538 15.435C6.40359 15.3095 6.47538 15.1373 6.49871 14.9831C6.51047 14.942 6.528 14.9028 6.55076 14.8666L6.43948 14.7106C6.48794 14.5097 6.67998 14.3519 6.54178 14.1332C6.69254 13.9234 6.61716 13.6759 6.64588 13.459L6.82535 13.2796L6.71228 13.1559C6.92765 12.8313 6.8774 12.401 7.1161 12.0675C7.14661 12.0244 7.10533 11.933 7.09815 11.8738C6.75536 12.1338 6.38026 12.3382 6.12182 12.6377C5.86338 12.9371 5.46495 13.1362 5.18138 13.4428C4.89781 13.7494 4.64296 14.0758 4.26068 14.2766C4.09377 14.6837 3.63073 14.854 3.46562 15.2647C3.04206 15.4117 2.91464 15.8528 2.61851 16.1325C2.33269 16.4428 2.07166 16.7749 1.8378 17.126C1.84264 17.2266 1.86863 17.325 1.91409 17.4149C1.95955 17.5048 2.02345 17.5842 2.10163 17.6478C2.32154 17.8432 2.49873 18.0819 2.6221 18.3489C2.6221 18.374 2.66697 18.3865 2.68312 18.4009L2.91464 18.4242L2.92182 18.6555ZM30.3165 17.9669L30.496 17.8845C30.417 17.628 30.0886 17.5258 30.1371 17.1672C30.085 17.1242 29.9809 17.0793 29.9397 17.0004C29.6866 16.536 29.2935 16.1756 29.0225 15.7219C28.8233 15.3884 28.4841 15.1427 28.2544 14.8253C28.0892 14.5861 27.8964 14.367 27.6801 14.1726C27.4737 13.9933 27.427 13.6508 27.1022 13.5881C26.9999 13.3711 26.7666 13.2886 26.6194 13.1129C26.4458 12.9185 26.2619 12.7335 26.0684 12.5588C26.0049 12.505 25.937 12.4564 25.8656 12.4135C25.7561 12.67 25.8872 12.8242 26.0128 13.0053C26.0075 13.0949 26.0075 13.1847 26.0128 13.2743C26.0236 13.3639 26.0559 13.4536 26.0738 13.5396C26.142 13.8606 26.0738 14.1995 26.2048 14.5115C26.2084 14.5185 26.2103 14.5261 26.2103 14.5339C26.2103 14.5418 26.2084 14.5494 26.2048 14.5564C26.0469 14.7213 26.1079 14.9042 26.16 15.0943C26.16 15.1266 26.1725 15.1858 26.16 15.1947C25.9679 15.2934 26.273 15.383 26.16 15.5121C26.0918 15.5874 26.1294 15.7542 26.1151 15.8707C26.1098 16.151 26.0688 16.4293 25.993 16.6992C25.9356 16.8391 25.9823 16.9951 25.9033 17.0991C25.6341 17.4577 25.7041 17.9293 25.4313 18.2736C25.469 18.5282 25.2123 18.6322 25.1459 18.8384C24.9359 19.4732 24.4855 19.9681 24.1445 20.5258C23.8699 20.5868 23.895 21.0028 23.5702 20.9705V21.1659C22.863 21.8007 22.1757 22.4212 21.3483 22.8892C21.7015 22.8157 22.0431 22.6951 22.3641 22.5305L22.4718 22.6256C23.1663 22.2669 23.9201 22.0356 24.5985 21.6178H24.9216L24.9557 21.4905C25.106 21.4136 25.2643 21.3535 25.4277 21.3112C25.6072 21.2807 25.7041 21.0745 25.8548 21.0691C26.0523 21.0691 26.0953 20.8342 26.3107 20.8432C26.4902 20.8432 26.6338 20.6854 26.7737 20.5563C26.9102 20.46 27.055 20.376 27.2063 20.3052C27.3624 20.2084 27.5132 20.0972 27.6837 19.9807H27.8632C27.8775 19.882 27.8901 19.8013 27.9062 19.6956L28.109 19.8121L28.3154 19.4893L28.4267 19.6023L28.7533 19.1971C28.8866 19.1686 29.0161 19.1246 29.1392 19.0662C29.2835 18.9646 29.418 18.8499 29.5412 18.7237L29.6866 18.4296L30.1227 18.2897L30.1514 18.1176L30.4422 18.1014L30.3165 17.9669Z"
              fill="currentColor"/>
        <path d="M18.1677 10.9456C18.1792 10.932 18.1918 10.9194 18.2054 10.9079C18.4211 11.0515 18.6546 11.1666 18.8999 11.2504C19.1081 11.2934 19.1297 11.4297 19.2104 11.557L19.3325 11.4459C19.6142 11.7704 19.905 12.0878 20.1724 12.4231C20.3139 12.6031 20.4344 12.7986 20.5313 13.0059C20.6211 13.196 20.657 13.4094 20.7341 13.6048C20.8113 13.8003 20.7736 14.0657 20.928 14.2575C20.7952 14.4566 21.0339 14.6879 20.8741 14.8851C20.8637 14.898 20.8523 14.91 20.84 14.921C21.0608 15.1398 20.8275 15.3514 20.84 15.5665C20.8526 15.7817 20.6749 15.9449 20.7018 16.187C20.6907 16.3967 20.5988 16.594 20.4452 16.7375C20.3142 16.8791 20.3931 17.1087 20.2065 17.2288C20.0593 17.3238 20.0521 17.5587 19.9463 17.6466C19.6609 17.8779 19.5012 18.2276 19.1584 18.4105C18.9639 18.5044 18.7955 18.6448 18.6684 18.8193C18.6415 18.8588 18.5733 18.8731 18.5194 18.8928C18.1605 19.0273 17.8195 19.2515 17.4247 19.3178C17.3618 19.3286 17.3152 19.429 17.2631 19.4971L17.1824 19.4164C17.0875 19.4491 16.9894 19.4719 16.8898 19.4846C16.4663 19.4846 16.0427 19.4846 15.6192 19.4846C15.3464 19.4846 15.1166 19.3555 14.8726 19.2784C14.3842 19.1398 13.935 18.8893 13.5606 18.5468C12.8068 17.8295 12.7243 17.5731 12.3743 16.8433C12.2943 16.6109 12.2408 16.3703 12.2146 16.126C12.1329 15.7188 12.1268 15.3 12.1966 14.8905C12.2657 14.4071 12.4022 13.9357 12.6022 13.4901C12.9414 12.7065 13.3201 12.2689 14.038 11.7489C14.1746 11.6331 14.3024 11.5072 14.4203 11.3723C14.4833 11.3821 14.5477 11.375 14.607 11.3517C14.6663 11.3284 14.7183 11.2897 14.7577 11.2397C14.8564 11.1699 14.9654 11.1161 15.0807 11.0801C15.2018 11.0205 15.3272 10.9702 15.4558 10.9294C15.5761 10.8972 15.7089 10.9115 15.8292 10.881C15.9494 10.8505 16.0409 10.7429 16.1881 10.786C16.2904 10.8165 16.3873 10.6479 16.495 10.7752C16.5139 10.7497 16.5377 10.7282 16.5651 10.7121C16.5925 10.696 16.6229 10.6856 16.6545 10.6816C16.686 10.6776 16.7181 10.68 16.7486 10.6887C16.7792 10.6974 16.8077 10.7122 16.8324 10.7322C16.9167 10.7681 17.0115 10.7713 17.098 10.7412C17.2488 10.6712 17.3331 10.8487 17.4803 10.7967C17.54 10.7724 17.6053 10.7654 17.6688 10.7765C17.7323 10.7876 17.7914 10.8164 17.8392 10.8595C17.9092 10.9241 18.051 10.9205 18.1677 10.9456Z"
              fill="currentColor"/>
    </g>
    <defs>
        <clipPath id="clip0_1121_6134">
            <rect width="32" height="18.5" fill="white" transform="translate(0 7)"/>
        </clipPath>
    </defs>
</svg>
