<svg width="76" height="76" viewBox="0 0 76 76" fill="none" xmlns="http://www.w3.org/2000/svg">
<path fill-rule="evenodd" clip-rule="evenodd" d="M36.1019 12.4369C32.5569 12.7617 29.1898 13.9683 26.1367 15.6117L20.5809 10.0563C19.84 9.315 18.6355 9.315 17.8946 10.0563C17.1533 10.7973 17.1533 12.0017 17.8946 12.7426L22.7986 17.6487C22.4372 17.8939 22.0839 18.1462 21.7345 18.399C15.1052 23.2423 10.8013 29.2974 10.8013 29.2974C10.3318 29.9565 10.3318 30.842 10.8013 31.5011C10.8013 31.5011 15.1048 37.5564 21.7345 42.3995C26.2885 45.7245 31.9258 48.449 38.0007 48.449C44.0755 48.449 49.7122 45.7245 54.2668 42.3995C60.8961 37.5562 65.2 31.5011 65.2 31.5011C65.6694 30.842 65.6694 29.9564 65.2 29.2974C65.2 29.2974 60.8965 23.242 54.2668 18.399C53.9173 18.1462 53.5641 17.8939 53.2027 17.6487L58.3441 12.5052C59.0855 11.7643 59.0855 10.5598 58.3441 9.8189C57.6032 9.07756 56.3987 9.07756 55.6579 9.8189L49.8646 15.6117C46.8115 13.9683 43.4444 12.7617 39.8994 12.4369C39.9011 12.4085 39.9011 12.3779 39.9011 12.3495V6.64951C39.9011 5.60069 39.0499 4.74951 38.0011 4.74951C36.9522 4.74951 36.1011 5.60069 36.1011 6.64951V12.3495C36.1011 12.3779 36.1011 12.4085 36.1028 12.4369H36.1019ZM38.0002 19.9495C32.2319 19.9495 27.5502 24.6312 27.5502 30.3995C27.5502 36.1678 32.2319 40.8495 38.0002 40.8495C43.7685 40.8495 48.4502 36.1678 48.4502 30.3995C48.4502 24.6312 43.7685 19.9495 38.0002 19.9495ZM38.0002 23.7495C41.6709 23.7495 44.6502 26.7288 44.6502 30.3995C44.6502 34.0702 41.6709 37.0495 38.0002 37.0495C34.3295 37.0495 31.3502 34.0702 31.3502 30.3995C31.3502 26.7288 34.3295 23.7495 38.0002 23.7495Z" fill="#8F8F8F"/>
</svg>
