<svg viewBox="0 0 32 32" fill="none" xmlns="http://www.w3.org/2000/svg">
    <path d="M27.2674 11.5922C27.2891 11.7351 27.3194 11.8777 27.3308 12.0216C27.361 12.4093 27.3896 12.7974 27.4065 13.1858C27.4189 13.4693 27.444 13.7578 27.4058 14.0361C27.3521 14.4256 27.2244 14.8044 27.167 15.1935C27.1257 15.4725 26.9911 15.7043 26.8789 15.9495C26.8015 16.1187 26.7089 16.2808 26.6195 16.4442C26.5379 16.5933 26.4608 16.7461 26.3645 16.8853C26.2248 17.0867 26.0702 17.2774 25.9209 17.472C25.8235 17.5988 25.7296 17.7291 25.6243 17.8495C25.456 18.042 25.2791 18.2273 25.1067 18.4167C24.9567 18.5818 24.8101 18.7501 24.658 18.9128C24.6012 18.9737 24.5313 19.0222 24.4701 19.079C24.2271 19.3043 24.0853 19.5901 24.0289 19.9067C23.9312 20.4548 23.8438 21.006 23.7811 21.5592C23.744 21.8874 23.7725 22.2225 23.7543 22.5535C23.733 22.9384 23.6975 23.3231 23.659 23.7067C23.6204 24.0903 23.4594 24.437 23.32 24.7913C23.2329 25.0121 23.1855 25.2484 23.0991 25.4699C23.0058 25.71 22.9016 25.9476 22.778 26.1736C22.6152 26.4707 22.437 26.7603 22.2498 27.0434C22.1218 27.2373 21.9827 27.4291 21.8193 27.5929C21.7037 27.7088 21.5344 27.7693 21.3981 27.8671C21.2198 27.9946 21.0495 28.1331 20.8781 28.2698C20.7756 28.3516 20.6771 28.4387 20.577 28.5242C20.5398 28.5557 20.5089 28.6018 20.4662 28.6182C20.2656 28.6959 20.0643 28.7731 19.8585 28.8354C19.7215 28.8767 19.578 28.9061 19.4355 28.9167C19.1991 28.9342 18.9775 28.8969 18.791 28.7215C18.5828 28.5256 18.4255 28.3013 18.3402 28.0308C18.312 27.9413 18.3023 27.8435 18.2999 27.7491C18.2917 27.4123 18.2924 27.0752 18.2855 26.7381C18.2796 26.4451 18.2683 26.1521 18.2604 25.859C18.259 25.8115 18.2834 25.7524 18.2631 25.7175C18.132 25.4939 18.2683 25.2562 18.2167 25.0275C18.1664 24.8053 18.1681 24.569 18.0986 24.3543C18.0222 24.1187 18.0171 23.877 17.9706 23.64C17.9328 23.4462 17.9169 23.2482 17.8832 23.0533C17.8288 22.7371 17.7666 22.4222 17.7098 22.1066C17.6771 21.9261 17.6623 21.7407 17.6141 21.5647C17.557 21.3564 17.4672 21.1574 17.4007 20.9513C17.3274 20.7225 17.2827 20.4832 17.1915 20.2623C17.1258 20.1033 17.0164 19.957 16.9042 19.8236C16.812 19.7142 16.6905 19.6274 16.5745 19.5405C16.5466 19.5197 16.4885 19.5426 16.4444 19.5395C16.4014 19.5364 16.3587 19.5187 16.3164 19.5204C16.2848 19.5214 16.2524 19.5402 16.2225 19.5556C16.017 19.6595 15.9141 19.8585 15.7858 20.0319C15.6512 20.2138 15.5315 20.4066 15.4072 20.596C15.3935 20.6172 15.3893 20.6453 15.3835 20.6709C15.3281 20.9065 15.2527 21.1318 15.1333 21.3472C15.0655 21.4693 15.0669 21.6279 15.026 21.7667C15.0118 21.8142 14.9489 21.8467 14.9327 21.8943C14.8253 22.2105 14.7145 22.5258 14.6251 22.8472C14.5576 23.0903 14.4912 23.3402 14.4785 23.5898C14.4668 23.8182 14.3191 23.9861 14.283 24.2018C14.2266 24.5365 14.1137 24.8613 14.0486 25.195C13.9815 25.5383 13.9371 25.8864 13.8938 26.2338C13.8532 26.5586 13.8222 26.8848 13.7978 27.2109C13.7912 27.3002 13.826 27.3918 13.838 27.4828C13.8435 27.5238 13.8497 27.5696 13.838 27.6076C13.7954 27.7447 13.751 27.8818 13.6939 28.0134C13.6749 28.0572 13.6113 28.0797 13.5762 28.1194C13.4516 28.2606 13.3532 28.4381 13.2018 28.5379C13.0682 28.6261 12.8762 28.6671 12.7128 28.6603C12.5094 28.6521 12.327 28.5475 12.157 28.4165C12.0039 28.2986 11.8087 28.2353 11.6412 28.1338C11.5613 28.0852 11.5111 27.9884 11.4312 27.9396C11.2348 27.8192 11.0241 27.7218 10.829 27.5994C10.7275 27.5358 10.636 27.4475 10.5603 27.3542C10.4164 27.1768 10.2929 26.9836 10.1508 26.8048C10.0475 26.6748 9.91641 26.5661 9.81868 26.4328C9.69033 26.2577 9.56369 26.0854 9.48489 25.8713C9.41778 25.6891 9.25157 25.5428 9.12803 25.3817C9.11874 25.3694 9.09224 25.3684 9.0857 25.3557C8.9835 25.1547 8.83002 24.9619 8.79389 24.7492C8.70923 24.2551 8.4649 23.8107 8.38782 23.319C8.35479 23.1087 8.33758 22.8954 8.32485 22.6827C8.30041 22.27 8.2839 21.857 8.26428 21.444C8.24707 21.0774 8.20406 20.7188 8.05815 20.3731C7.98795 20.2073 7.97109 20.0172 7.94356 19.836C7.89882 19.5405 7.70955 19.3392 7.5048 19.1484C7.45628 19.1032 7.373 19.0961 7.32207 19.0523C7.1562 18.9101 6.98242 18.7726 6.84064 18.6085C6.57945 18.3056 6.3365 17.9869 6.09149 17.6706C6.03677 17.6002 6.0003 17.5144 5.96279 17.432C5.81344 17.1031 5.65308 16.7779 5.52369 16.4411C5.41838 16.1669 5.33786 15.8814 5.27179 15.5953C5.20399 15.3026 5.15719 15.0044 5.11968 14.7063C5.08493 14.4314 5.06635 14.1534 5.05637 13.8761C5.04467 13.5493 5.04639 13.2217 5.04811 12.8945C5.04983 12.582 5.05327 12.2692 5.06703 11.957C5.07805 11.7091 5.0777 11.4558 5.13242 11.2161C5.21604 10.8506 5.32203 10.4868 5.45899 10.1377C5.55397 9.89562 5.73016 9.68603 5.84647 9.45045C5.98756 9.16496 6.18165 8.92049 6.38984 8.68458C6.62866 8.41378 6.84787 8.1194 7.11973 7.88588C7.38436 7.65851 7.70439 7.49405 8.00103 7.3036C8.16861 7.1959 8.33723 7.08957 8.50758 6.98563C8.59842 6.93024 8.69168 6.87827 8.787 6.83074C9.2144 6.6191 9.65385 6.44097 10.125 6.34421C10.3321 6.30147 10.5307 6.21599 10.7382 6.18043C11.1436 6.11068 11.552 6.06008 11.9653 6.12128C12.2513 6.16368 12.5417 6.18317 12.8236 6.243C13.0521 6.29155 13.2723 6.38181 13.4939 6.45977C13.655 6.51653 13.8164 6.57568 13.9702 6.64885C14.1904 6.75347 14.3979 6.88613 14.6223 6.9805C14.8666 7.08341 15.123 7.15898 15.3756 7.24138C15.5969 7.31352 15.8167 7.41712 16.0439 7.43866C16.3732 7.47011 16.7108 7.4643 17.0401 7.42943C17.3023 7.40173 17.5701 7.33643 17.813 7.23488C18.1671 7.08649 18.4995 6.88716 18.8443 6.7162C19.1399 6.56952 19.4294 6.39823 19.7411 6.29839C20.3623 6.0994 20.9889 5.90485 21.6586 5.94212C22.2095 5.97289 22.7484 6.05734 23.2691 6.24266C23.5688 6.34933 23.8961 6.41327 24.16 6.57705C24.6098 6.85673 25.0348 7.18223 25.4395 7.52448C25.6249 7.68107 25.7361 7.92349 25.8844 8.12453C26.0104 8.29514 26.1779 8.44558 26.2626 8.63363C26.4749 9.10342 26.6552 9.5879 26.8397 10.07C26.9746 10.4228 27.104 10.7784 27.2186 11.1385C27.264 11.2814 27.263 11.4387 27.2833 11.5894C27.2778 11.5901 27.2723 11.5908 27.2668 11.5918L27.2674 11.5922ZM20.6868 26.0047C20.725 25.9555 20.7652 25.9049 20.8045 25.8532C20.9156 25.7076 21.0515 25.5739 21.1307 25.4125C21.2443 25.1817 21.3134 24.9297 21.4067 24.689C21.4841 24.4893 21.597 24.2986 21.6417 24.0927C21.682 23.9071 21.8482 23.7505 21.7752 23.5399C21.971 23.4226 21.8472 23.2161 21.9005 23.0557C21.9607 22.8745 21.9277 22.6605 21.9239 22.4608C21.9174 22.1223 21.8902 21.7842 21.8943 21.446C21.8967 21.2309 21.9353 21.0159 21.9659 20.8022C22.0123 20.4784 22.0543 20.1532 22.1194 19.8332C22.1751 19.5597 22.2577 19.2913 22.3338 19.0222C22.3623 18.921 22.4005 18.8215 22.4463 18.7268C22.5048 18.6061 22.5846 18.4957 22.639 18.3736C22.7508 18.123 22.9181 17.9223 23.1345 17.753C23.3262 17.6033 23.5189 17.4501 23.6858 17.2747C23.9463 17.0012 24.1879 16.7099 24.4312 16.421C24.4907 16.3502 24.5258 16.2592 24.5747 16.1738C24.586 16.1721 24.6401 16.1786 24.6514 16.1597C24.7695 15.9649 24.8809 15.7665 24.9935 15.5686C25.0379 15.4906 25.083 15.4134 25.1232 15.3333C25.2285 15.1251 25.3369 14.9186 25.4312 14.7056C25.4577 14.6461 25.4174 14.5576 25.4443 14.4984C25.5991 14.1568 25.5609 13.7883 25.5978 13.4323C25.6236 13.1817 25.5864 12.9229 25.563 12.6692C25.5537 12.568 25.468 12.4637 25.4835 12.3717C25.5224 12.1368 25.5038 11.9143 25.4343 11.6906C25.3421 11.3946 25.2578 11.0957 25.1597 10.8017C25.0943 10.6058 24.9852 10.4215 24.9415 10.2218C24.8717 9.90177 24.7337 9.62688 24.5502 9.35609C24.309 9.00016 24.0206 8.68765 23.6937 8.42165C23.5065 8.2695 23.287 8.12077 23.0062 8.10948C22.8603 8.10367 22.7157 8.00725 22.5746 7.94332C22.1985 7.77236 21.79 7.74911 21.3967 7.76963C21.0103 7.7898 20.6107 7.86092 20.289 8.12521C20.278 8.13444 20.2518 8.12419 20.2329 8.12624C20.1644 8.13376 20.0859 8.12384 20.0298 8.15427C19.8564 8.24796 19.695 8.36387 19.5216 8.45823C19.3062 8.57585 19.0887 8.69244 18.8629 8.78749C18.6324 8.88494 18.3908 8.95742 18.1533 9.03811C18.0329 9.07914 17.91 9.11367 17.7882 9.15094C17.622 9.20223 17.4586 9.27676 17.2886 9.29762C17.1248 9.31779 16.9544 9.27745 16.7865 9.27369C16.5129 9.26719 16.2386 9.27642 15.9651 9.26445C15.7699 9.25591 15.5697 9.24668 15.3825 9.19676C15.0408 9.10547 14.707 8.98546 14.3711 8.87399C14.2651 8.83878 14.1625 8.79296 14.0583 8.75296C13.8931 8.6897 13.7462 8.59431 13.5934 8.50712C13.3704 8.37959 13.1309 8.27907 12.8927 8.1806C12.7021 8.10162 12.5056 8.03392 12.3067 7.97853C12.2141 7.95289 12.1095 7.97204 12.0107 7.96417C11.8697 7.95289 11.7189 7.89579 11.5902 7.92861C11.2458 8.0158 10.8817 7.96828 10.5444 8.12966C10.233 8.27873 9.88889 8.35942 9.563 8.48011C9.51069 8.4996 9.47904 8.5714 9.43533 8.61688C9.41228 8.64047 9.38681 8.66475 9.35756 8.67876C9.17277 8.76527 8.957 8.81484 8.80765 8.94169C8.56986 9.14376 8.28493 9.28702 8.09945 9.5626C7.94734 9.78894 7.68065 9.92502 7.57569 10.2078C7.51375 10.375 7.37369 10.5128 7.27321 10.6666C7.16274 10.8355 7.04505 11.0014 7.03301 11.2144C7.02613 11.3361 7.04437 11.4773 6.98896 11.5747C6.89192 11.7457 6.92564 11.9235 6.90259 12.0965C6.86542 12.3762 6.91119 12.6586 6.8785 12.9427C6.84718 13.2145 6.88469 13.4946 6.89674 13.7708C6.8988 13.8177 6.93734 13.8638 6.93631 13.9093C6.93287 14.0307 6.89605 14.1544 6.9105 14.2727C6.94285 14.5353 6.99825 14.7948 7.04437 15.0557C7.06914 15.1973 7.07189 15.347 7.12351 15.478C7.19303 15.6544 7.31932 15.8093 7.38608 15.9864C7.51444 16.3273 7.63557 16.6709 7.85753 16.9643C8.08155 17.26 8.31968 17.5455 8.55162 17.8354C8.6146 17.9141 8.66381 18.0129 8.74364 18.0676C8.92706 18.1934 9.00415 18.3955 8.89953 18.5989C8.95287 18.6129 9.01516 18.6509 9.04751 18.6338C9.19582 18.5555 9.20064 18.5459 9.28977 18.7124C9.40987 18.9367 9.53306 19.1617 9.62494 19.3976C9.7595 19.743 9.87306 20.0965 9.98317 20.4507C10.0207 20.5707 10.021 20.7024 10.0379 20.8285C10.0544 20.9523 10.072 21.0761 10.0857 21.1998C10.1009 21.3352 10.1201 21.4706 10.1243 21.6064C10.1367 22.0002 10.1084 22.3962 10.1879 22.7866C10.2117 22.9036 10.2117 23.026 10.2437 23.1402C10.3173 23.4048 10.3916 23.6705 10.489 23.9269C10.5551 24.1003 10.6539 24.263 10.7513 24.4227C10.8769 24.6278 11.0162 24.8248 11.1484 25.0261C11.1635 25.0491 11.168 25.0781 11.1811 25.1027C11.2561 25.2439 11.3256 25.3889 11.4099 25.5243C11.4657 25.6135 11.5383 25.6942 11.6129 25.7698C11.7623 25.9209 11.8728 26.1213 12.1188 26.1787C12.1487 25.979 12.1845 25.7883 12.2041 25.5961C12.2331 25.3137 12.241 25.0292 12.2754 24.7478C12.3053 24.5044 12.3445 24.2599 12.4061 24.0226C12.5166 23.5973 12.6488 23.1778 12.7671 22.7542C12.796 22.6509 12.7978 22.5405 12.8263 22.4372C12.9034 22.1606 12.9832 21.8843 13.072 21.6112C13.1278 21.4392 13.1993 21.272 13.2685 21.1044C13.348 20.9116 13.4389 20.7229 13.5135 20.528C13.6178 20.2555 13.676 19.959 13.8174 19.7084C14.0318 19.3292 14.2974 18.9781 14.5483 18.6198C14.7328 18.3565 14.9864 18.1637 15.2417 17.9729C15.4647 17.8067 15.7321 17.7636 15.9912 17.7192C16.3023 17.6659 16.6196 17.6559 16.9317 17.7503C17.1113 17.8047 17.2972 17.8119 17.4379 17.9811C17.5226 18.083 17.6905 18.1124 17.814 18.1866C18.2545 18.4509 18.5329 18.8581 18.7569 19.3002C18.8915 19.5658 18.9834 19.8534 19.0904 20.1324C19.1475 20.2811 19.2033 20.4309 19.247 20.5837C19.2972 20.7605 19.3351 20.941 19.3753 21.1209C19.4448 21.4323 19.5116 21.7442 19.5801 22.0556C19.683 22.5237 19.7029 23.0044 19.8175 23.4732C19.917 23.8804 19.9528 24.303 20.0099 24.7198C20.0264 24.8405 20.0168 24.9646 20.0243 25.0867C20.0498 25.5058 20.0753 25.9247 20.108 26.3435C20.1114 26.3887 20.1616 26.4304 20.1923 26.4772C20.3024 26.3804 20.3812 26.2929 20.4769 26.2321C20.5681 26.1739 20.6637 26.1329 20.6868 26.0043V26.0047Z"
          fill="currentColor"/>
    <path d="M7.23883 4.0215C7.26361 4.04065 7.29389 4.06424 7.32831 4.09125C7.28908 4.14493 7.26223 4.20545 7.21578 4.24203C7.00621 4.40751 6.78012 4.51419 6.49553 4.47145C6.36476 4.45196 6.22161 4.47145 6.09084 4.50291C5.85339 4.55966 5.65518 4.67694 5.4549 4.83388C5.16171 5.0633 4.92564 5.32417 4.77078 5.64796C4.6352 5.93175 4.49824 6.21827 4.50822 6.5571C4.51544 6.80259 4.45178 7.05219 4.4036 7.29699C4.36781 7.47786 4.20745 7.55411 4.05088 7.56847C3.76629 7.5948 3.49718 7.51547 3.25114 7.36469C3.06772 7.25254 3.10007 7.06791 3.1214 6.91371C3.19883 6.3564 3.13758 5.84285 2.78829 5.37307C2.4803 4.95936 2.07423 4.70805 1.58902 4.57232C1.39184 4.51727 1.18399 4.4988 0.980268 4.46974C0.776203 4.44034 0.569385 4.4294 0.367385 4.39076C0.0490711 4.3299 -0.0689631 4.10116 0.0390915 3.7996C0.0903658 3.656 0.113766 3.5018 0.173988 3.36264C0.235242 3.22143 0.350867 3.12741 0.519487 3.13117C0.773106 3.13664 1.02741 3.15852 1.28 3.14621C1.40457 3.14006 1.53362 3.08843 1.64752 3.03099C2.18676 2.75985 2.57734 2.34854 2.86159 1.81413C3.04879 1.46265 3.07873 1.09065 3.12519 0.715917C3.13723 0.618815 3.09318 0.515216 3.10385 0.417772C3.13241 0.15245 3.35403 -0.0311553 3.6221 0.00440327C3.76973 0.0238921 3.91013 0.096035 4.05432 0.142877C4.10353 0.158946 4.18302 0.19724 4.19988 0.179461C4.31826 0.054664 4.32446 0.162707 4.35267 0.241689C4.42322 0.439654 4.47243 0.638304 4.43733 0.852681C4.39569 1.10946 4.51682 1.33409 4.61386 1.55701C4.79556 1.97517 5.10252 2.2993 5.43907 2.60052C5.7123 2.84499 6.01789 3.02654 6.38266 3.07954C6.56814 3.10655 6.7605 3.09287 6.94908 3.08672C7.07537 3.08261 7.31076 3.19271 7.32486 3.30212C7.34517 3.45666 7.34345 3.61634 7.3314 3.77225C7.32521 3.85123 7.27531 3.92679 7.23849 4.02116L7.23883 4.0215ZM3.83993 4.58155C4.15136 4.27246 4.44834 3.97773 4.73396 3.69429C4.53575 3.52607 4.33512 3.37016 4.15308 3.19545C4.06877 3.11441 4.02369 2.9944 3.95487 2.89593C3.92218 2.84875 3.86884 2.77148 3.83787 2.77729C3.78625 2.78686 3.73566 2.84567 3.70159 2.89525C3.65514 2.9626 3.63965 3.05629 3.58356 3.11134C3.38431 3.30657 3.17164 3.48846 2.97033 3.68198C2.95313 3.69874 2.96689 3.78011 2.99236 3.80268C3.17543 3.96508 3.36883 4.11552 3.55087 4.27896C3.65823 4.37503 3.7508 4.48752 3.83993 4.58189V4.58155Z"
          fill="currentColor"/>
    <path d="M31.8867 28.4428C31.9125 28.4626 31.9428 28.4859 31.9751 28.5108C31.8482 28.732 31.6348 28.8274 31.4184 28.905C31.3392 28.9334 31.236 28.8907 31.1434 28.8883C30.8055 28.8794 30.4837 28.9447 30.2146 29.157C29.8512 29.4439 29.5584 29.7721 29.355 30.2115C29.1719 30.6067 29.1513 31.0071 29.1155 31.4095C29.0728 31.893 28.8061 32.1033 28.334 31.9501C28.1915 31.9039 28.0435 31.8632 27.9131 31.7928C27.7676 31.7145 27.7393 31.4909 27.7689 31.3011C27.8587 30.7281 27.7782 30.1951 27.3801 29.7318C27.2486 29.5786 27.1048 29.4541 26.9503 29.3273C26.6849 29.1092 26.3597 29.05 26.0583 28.9303C25.9396 28.8832 25.794 28.9064 25.6615 28.891C25.4344 28.8644 25.2038 28.8507 24.9826 28.798C24.7441 28.7413 24.509 28.517 24.6835 28.2178C24.7582 28.0896 24.7616 27.9224 24.8219 27.7832C24.8831 27.6413 24.9998 27.5487 25.1687 27.5528C25.4224 27.5586 25.6767 27.5805 25.9292 27.5682C26.0538 27.562 26.1829 27.5097 26.2968 27.4526C26.836 27.1811 27.2259 26.7691 27.5105 26.2351C27.6977 25.8836 27.7263 25.5112 27.7737 25.1369C27.7861 25.0398 27.7417 24.9362 27.7521 24.8387C27.7806 24.5737 28.0029 24.3905 28.2713 24.4264C28.419 24.4462 28.5597 24.517 28.7032 24.5665C28.7376 24.5785 28.7707 24.6103 28.8034 24.6089C28.8595 24.6066 28.9596 24.5659 28.9634 24.5748C29.0036 24.6681 29.0439 24.7662 29.0549 24.8661C29.0752 25.0517 29.0525 25.2446 29.0914 25.4247C29.1389 25.6453 29.2136 25.8644 29.3089 26.0696C29.483 26.445 29.771 26.7349 30.0759 27.0109C30.3526 27.2611 30.6616 27.4437 31.0319 27.5025C31.1785 27.5258 31.332 27.5135 31.482 27.5077C31.9899 27.4878 32.0285 27.749 31.9865 28.1795C31.9782 28.2643 31.9252 28.345 31.8867 28.4431V28.4428ZM29.3811 28.1156C29.1867 27.9501 28.9943 27.801 28.8209 27.6325C28.729 27.5429 28.6719 27.4184 28.5965 27.3117C28.5659 27.2687 28.5153 27.1917 28.4947 27.1982C28.4389 27.215 28.3828 27.2601 28.3484 27.309C28.302 27.3753 28.293 27.4731 28.238 27.5275C28.0435 27.7196 27.8371 27.8995 27.6337 28.0827C27.5707 28.1395 27.5528 28.1723 27.644 28.2308C27.7885 28.3238 27.9265 28.4308 28.0521 28.5481C28.2108 28.6961 28.3543 28.8606 28.4895 29.0025C28.7954 28.6982 29.0924 28.4028 29.3808 28.1156H29.3811Z"
          fill="currentColor"/>
    <path d="M31.0799 19.0156C31.1759 19.0567 31.358 19.1233 31.5283 19.2129C31.5909 19.2457 31.6467 19.3257 31.6684 19.3958C31.7661 19.7128 31.7885 20.0181 31.5352 20.2937C31.3366 20.5098 31.0995 20.6664 30.8149 20.6421C30.6398 20.627 30.4467 20.5115 30.3153 20.3857C30.1924 20.268 30.1422 20.0766 30.0575 19.9189C29.9859 19.7856 30.0255 19.6704 30.0937 19.5463C30.287 19.1934 30.582 19.0187 31.0799 19.0156Z"
          fill="currentColor"/>
    <path d="M4.61243 21.5861C4.94382 21.5813 5.22221 21.6989 5.40081 21.9574C5.72773 22.4316 5.55877 22.9164 5.09971 23.1944C4.91526 23.3062 4.67127 23.2973 4.47409 23.1606C4.29962 23.0395 4.10863 22.9428 4.03052 22.7092C3.9586 22.4938 3.98957 22.0723 4.15715 21.9061C4.26418 21.8001 4.39219 21.7146 4.51332 21.6233C4.54051 21.6032 4.57905 21.598 4.61243 21.5861Z"
          fill="currentColor"/>
    <path d="M13.5352 2.74724C13.5592 2.3537 13.9213 1.97863 14.2661 1.98444C14.678 1.99094 15.1904 2.31644 15.1549 2.86725C15.1381 3.12847 14.6659 3.57364 14.3824 3.56406C13.9264 3.54902 13.5489 3.14967 13.5352 2.74724Z"
          fill="currentColor"/>
    <path d="M12.5462 10.0115C12.5121 10.071 12.4584 10.1646 12.401 10.2655C12.425 10.271 12.4632 10.2792 12.5097 10.2898C12.4908 10.3055 12.4832 10.3171 12.4739 10.3185C12.2361 10.3534 11.9973 10.3835 11.7602 10.4228C11.6229 10.4457 11.4832 10.4392 11.3696 10.5688C11.3077 10.6392 11.1549 10.6228 11.0575 10.6727C10.9309 10.738 10.7987 10.8136 10.7082 10.9182C10.6659 10.9671 10.6411 10.9586 10.6008 10.9767C10.4931 11.0252 10.3954 11.1022 10.3059 11.1818C10.1552 11.3159 10.0083 11.455 9.87062 11.6024C9.79801 11.68 9.7488 11.7788 9.68995 11.8691C9.60151 12.0045 9.50791 12.1371 9.42808 12.2773C9.3245 12.4599 9.21541 12.6425 9.14142 12.837C9.09703 12.9536 9.08705 13.0996 9.11252 13.222C9.15243 13.4138 9.10047 13.5619 8.97452 13.6942C8.94699 13.7229 8.88987 13.7578 8.86303 13.7475C8.65483 13.6675 8.45214 13.7284 8.24567 13.7499C8.03403 13.7718 7.81689 13.808 7.60835 13.7229C7.57429 13.7089 7.52404 13.6955 7.51338 13.6689C7.42253 13.4432 7.25047 13.2446 7.3248 12.9659C7.3654 12.8134 7.32067 12.6387 7.3599 12.4852C7.44352 12.158 7.5502 11.8373 7.73946 11.5477C7.87643 11.3377 7.96418 11.0946 8.10871 10.8905C8.28903 10.6361 8.48449 10.3855 8.71024 10.1715C9.02683 9.87162 9.3596 9.58134 9.71886 9.33483C10.0272 9.12318 10.3765 8.96625 10.7178 8.80726C11.1549 8.60382 11.6232 8.56587 12.0961 8.63015C12.2506 8.65135 12.4065 8.7105 12.5438 8.78538C12.5957 8.81376 12.6157 8.93513 12.6157 9.01412C12.6157 9.1984 12.6009 9.38338 12.5806 9.56664C12.5696 9.66682 12.5307 9.76324 12.5142 9.86308C12.508 9.9 12.5303 9.94137 12.5469 10.0111L12.5462 10.0115Z"
          fill="currentColor"/>
</svg>
