<svg viewBox="0 0 32 32" fill="none" xmlns="http://www.w3.org/2000/svg">
    <path d="M0.256646 17.6008L0.382277 17.4664C0.306898 17.271 0.251262 17.0616 0 17.0128C0.0358946 16.8226 0.0735838 16.6325 0.120247 16.3882L0.466629 16.116L0.486371 15.9416C0.675893 15.7571 0.841627 15.5508 0.979921 15.3274C1.1335 15.1104 1.31437 14.9129 1.51834 14.7395C1.66914 14.5709 1.80711 14.3919 1.93113 14.2038C2.19316 14.1637 2.25059 13.8078 2.5198 13.6804L2.54672 13.4536H2.80875L2.8267 13.2512C3.00617 13.0768 3.2 12.9389 3.36511 12.7732C3.53023 12.6074 3.75278 12.4888 3.83354 12.2254C3.91794 12.2202 4.00095 12.2019 4.07942 12.1713C4.16872 12.1307 4.24051 12.0609 4.28222 11.9741C4.36657 11.6862 4.61604 11.5624 4.84397 11.4507C5.01289 11.3667 5.15084 11.2338 5.23881 11.0704L5.52058 10.9465L5.70006 10.6639L5.81133 10.7755L5.88491 10.6185L6.24386 10.444L6.28155 10.2905L6.39641 10.3847C6.53819 10.1422 6.53819 10.1422 6.80022 10.1003L6.89176 9.92585L6.99047 10.0218C7.04969 9.93981 7.10712 9.86304 7.20045 9.73742L7.61144 9.60134L7.64554 9.44257L7.77297 9.5333L7.84296 9.37104C8.08704 9.30997 8.29882 9.08665 8.59854 9.05874C8.62936 9.05666 8.65851 9.04434 8.6811 9.02384C8.93057 8.74993 9.27874 8.67491 9.61615 8.57546C9.73281 8.53882 9.91049 8.48997 9.89972 8.29107L10.0092 8.37656C10.1585 8.26632 10.3252 8.1803 10.5027 8.12184C10.6653 8.08139 10.8225 8.02285 10.9712 7.94737C11.1399 7.88456 11.3301 7.8863 11.5096 7.81826C11.8308 7.68392 12.1952 7.66822 12.4967 7.49898C12.5965 7.45418 12.7065 7.43496 12.8162 7.44315C12.9292 7.44315 13.0441 7.44315 13.1195 7.44315L13.4443 7.26868C13.6345 7.48677 13.8391 7.26868 14.0204 7.22855C14.2444 7.20218 14.4663 7.16079 14.6845 7.10468C14.9264 7.04717 15.1734 7.01212 15.4221 7L15.6572 7.11864L16.3141 7L16.4487 7.13434L16.8704 7C16.9933 7.02689 17.1108 7.07284 17.2186 7.13609C17.3443 7.23553 17.4609 6.98953 17.5632 7.15004C17.705 7.02443 17.8288 7.20238 17.9778 7.17272C18.0532 7.143 18.1356 7.13427 18.2158 7.14752C18.296 7.16077 18.3708 7.19548 18.4319 7.24775C18.4624 7.2809 18.5557 7.25647 18.6113 7.25647C18.7738 7.24422 18.937 7.24422 19.0995 7.25647C19.2287 7.27915 19.3436 7.38558 19.4728 7.40826C19.6806 7.43417 19.8897 7.44931 20.0992 7.45362L20.2661 7.61588C20.4455 7.54434 20.5873 7.68915 20.7363 7.68043C20.8852 7.67171 21.0252 7.75894 21.1886 7.73626C21.1993 7.77988 21.2083 7.82175 21.2227 7.8863L21.3932 7.8706C21.7359 7.96307 22.0913 8.20384 22.47 8.39401L22.8289 8.25443L22.6495 8.46031C22.7554 8.46269 22.8611 8.47319 22.9653 8.49171C23.043 8.51867 23.117 8.55439 23.1861 8.59814L23.4194 8.90346L23.5809 8.78831C23.7084 8.87206 23.8322 8.96278 23.9632 9.03955C24.0942 9.11631 24.2701 9.09538 24.3491 9.29776C24.385 9.39023 24.6093 9.4164 24.7942 9.48968L24.8408 9.62402H25.0634L25.4457 9.99738H25.6646C25.7382 10.2521 26.072 10.2085 26.1671 10.3969C26.2784 10.6185 26.5692 10.629 26.623 10.8854L26.7576 10.7563C26.7702 11.0145 27.0286 11.039 27.1453 11.2187C27.2955 11.3932 27.4701 11.5465 27.6639 11.674L27.7034 11.6444C27.8602 11.8272 28.0268 12.0019 28.2024 12.1678C28.456 12.4021 28.6879 12.6578 28.8951 12.932C29.0208 13.0837 29.1805 13.2286 29.3223 13.3769C29.464 13.5252 29.5646 13.6996 29.7099 13.8357C29.814 13.9317 29.8248 14.0939 30.0061 14.1515C30.1119 14.1846 30.173 14.3556 30.2519 14.4673C30.356 14.6121 30.4565 14.7604 30.5355 14.8703C30.6755 15.0116 30.8693 15.1146 30.8944 15.2437C30.925 15.4513 31.0506 15.5124 31.2031 15.5804L31.117 15.6641L31.4077 15.8473L31.2839 15.9834L31.5836 16.2225C31.6249 16.3393 31.5729 16.4109 31.6913 16.4911C31.9677 16.6761 32.0359 16.9256 32 17.2972C31.9731 17.5728 31.9587 17.5798 31.6411 17.4437L31.5352 17.7927C31.5717 17.7918 31.6078 17.8008 31.6393 17.8188C31.7613 17.9218 31.8762 18.0317 31.9982 18.1399C31.659 18.8238 31.659 18.8238 31.3198 19.0017L31.3898 19.0768C31.108 19.2722 30.8191 19.4711 30.5337 19.6717C30.3542 19.8043 30.1837 19.9718 29.9953 20.0974C29.8068 20.223 29.5807 20.3487 29.3761 20.4795C29.2343 20.5702 29.1015 20.6714 28.9597 20.7621C28.5505 21.0256 28.1413 21.2856 27.7268 21.5455C27.6128 21.6141 27.4927 21.6725 27.3678 21.72C27.0376 21.8456 26.7684 22.0689 26.4561 22.2242C26.3574 22.2658 26.2561 22.3013 26.1528 22.3306L25.9159 22.5627C25.5677 22.526 25.3128 22.7651 25.0185 22.8802C24.5303 23.0756 24.0906 23.3809 23.5432 23.435C23.2148 23.6636 22.8092 23.7002 22.4467 23.8415C21.7324 24.098 20.9983 24.194 20.3127 24.4469C20.0686 24.3475 19.8856 24.5551 19.6612 24.5691C19.4114 24.5709 19.1628 24.6044 18.9218 24.6685C18.6239 24.7697 18.3008 24.6685 18.037 24.7714C17.6547 24.9128 17.2635 24.7906 16.8812 24.9267C16.6084 25.0227 16.2692 24.9459 15.9587 24.9459C15.7325 24.9181 15.5033 24.9228 15.2785 24.9599C15.0739 25.0227 14.9052 24.8971 14.7186 24.9442C14.6199 24.9686 14.5158 24.9808 14.3794 25.0035C14.3794 25.0035 14.3488 24.9512 14.3112 24.9494C14.1155 24.9494 13.9181 24.9494 13.7243 24.9494C13.5305 24.9494 13.3653 24.8883 13.1859 24.8569C12.8162 24.7941 12.4375 24.8151 12.0695 24.6825C11.845 24.6222 11.6133 24.5905 11.3804 24.5883C10.7594 24.5377 10.1887 24.3213 9.60179 24.1591C9.31105 24.0805 9.0203 23.9846 8.73853 23.8904C8.45676 23.7962 8.11755 23.7613 7.85732 23.5414C7.69759 23.4054 7.43017 23.3984 7.23814 23.2885C6.87919 23.0861 6.48974 22.9674 6.13976 22.7651C5.78979 22.5627 5.47392 22.3341 5.14369 22.116C5.13113 22.116 5.10959 22.116 5.10062 22.1021C4.97678 21.9922 4.72013 22.0916 4.67706 21.8526C4.49759 21.8142 4.41144 21.6275 4.26248 21.563C4.17007 21.5191 4.09869 21.4422 4.06326 21.3484H3.85866C3.28794 20.825 2.71004 20.3015 2.14111 19.7781C1.75615 19.3756 1.39655 18.9509 1.06427 18.5063C0.796859 18.1835 0.65687 17.7822 0.256646 17.6008ZM24.5357 15.4757C24.5088 15.4461 24.4442 15.3885 24.4514 15.378C24.5465 15.2402 24.4352 15.1093 24.4514 14.9785C24.4675 14.8476 24.4065 14.729 24.5357 14.6295C24.5515 14.603 24.5598 14.5729 24.5598 14.5423C24.5598 14.5117 24.5515 14.4816 24.5357 14.4551C24.367 14.2597 24.4801 14.0329 24.4424 13.8252C24.4101 13.6508 24.5321 13.4466 24.3491 13.3018L24.4406 13.2041L24.2288 13.0925C24.2773 13.0017 24.3168 12.918 24.3563 12.8465C24.2827 12.7645 24.2199 12.6894 24.1606 12.6214L24.2737 12.501L24.0494 12.3597L24.1481 12.2341L23.9524 12.166L24.0386 12.0718C23.9722 11.9561 23.9158 11.8354 23.8699 11.7107C23.843 11.6234 23.8806 11.5118 23.7227 11.5362C23.6007 11.2379 23.3351 10.9919 23.3781 10.5958L22.8792 10.3149L22.8433 10.212H22.5938L21.5367 9.65368C21.5367 9.65368 21.5098 9.67985 21.4578 9.73045C21.2783 9.45827 20.9463 9.47398 20.6986 9.3344L20.555 9.45653L20.5084 9.2681C20.3576 9.19308 20.1494 9.33789 20.0166 9.17563C19.69 9.22274 19.4566 8.90346 19.1192 8.96452C19.071 8.9117 19.0068 8.87513 18.9359 8.86007C18.8649 8.84502 18.7908 8.85227 18.7244 8.88078C18.57 8.9401 18.4534 8.69235 18.3152 8.86159C18.2255 8.7255 18.0819 8.77435 17.9563 8.77959C17.8306 8.78482 17.7319 8.64176 17.6081 8.74993C17.5076 8.6278 17.3676 8.68886 17.2491 8.68188C17.1307 8.67491 16.9566 8.68188 16.8094 8.68188C16.5976 8.68188 16.3859 8.68188 16.1741 8.68188C16.1038 8.66459 16.0362 8.63818 15.9731 8.60337C15.9515 8.62256 15.9192 8.67142 15.878 8.68014C15.6626 8.72725 15.4275 8.59988 15.2265 8.75865C15.0201 8.55976 14.8298 8.78482 14.6306 8.78657C14.3162 8.77549 14.0018 8.80899 13.6974 8.88601C13.4317 8.96801 13.1446 8.94359 12.8951 9.06048C12.6278 9.17093 12.3455 9.24321 12.057 9.27508C11.5814 9.36232 11.1883 9.69904 10.6912 9.73742C10.3197 10.0305 9.82793 10.1003 9.44565 10.3725C9.40181 10.3973 9.35382 10.4144 9.30387 10.4231V10.7493L9.48334 10.8052V10.861H9.07055L9.33259 11.203L8.97364 11.4839L9.06697 11.5345C8.65956 11.9689 8.67213 12.5813 8.34907 12.9948C8.32459 13.2504 8.27348 13.5029 8.19652 13.7485C8.1417 13.8731 8.11361 14.0073 8.11396 14.1428C8.11396 14.3329 8.11396 14.5231 8.11396 14.7115C8.09945 14.7832 8.07468 14.8525 8.04038 14.9174C8.06518 14.9396 8.08497 14.9666 8.09851 14.9966C8.11205 15.0267 8.11904 15.0591 8.11904 15.0919C8.11904 15.1247 8.11205 15.1571 8.09851 15.1871C8.08497 15.2172 8.06518 15.2441 8.04038 15.2664C8.01525 15.2925 8.02243 15.3484 8.01705 15.3833L8.19652 15.5577C8.03679 15.7496 8.14089 15.9625 8.11038 16.1352L8.33113 16.3638L8.22883 16.5173L8.37061 16.786C8.3419 16.8767 8.29344 16.9448 8.31139 16.9866C8.39035 17.1768 8.49086 17.3565 8.57521 17.5449C8.65956 17.7334 8.7816 17.9026 8.86237 18.0945C8.96467 18.3388 9.14773 18.5481 9.26439 18.7924C9.40262 19.1185 9.64398 19.3935 9.95356 19.5775L9.87818 19.67C10.0274 19.7614 10.1664 19.8679 10.2928 19.9875C10.3987 20.1079 10.4471 20.2579 10.6356 20.3225C10.7878 20.3983 10.927 20.4966 11.0483 20.6138C11.2098 20.7084 11.3571 20.8241 11.4863 20.9575C11.5904 21.0954 11.8829 20.9366 11.8632 21.214C11.9437 21.2128 12.0234 21.2312 12.0948 21.2674C12.1663 21.3037 12.2273 21.3567 12.2723 21.4216C12.3244 21.3693 12.3477 21.3484 12.3441 21.3501L12.9579 21.699L13.0764 21.6153C13.1033 21.6973 13.1231 21.7531 13.1428 21.8107L13.2128 21.7496L14.3112 22.0986L14.4117 22.0096L14.8298 22.1719C14.9573 21.9695 15.0847 22.2329 15.1888 22.1719C15.3377 22.0951 15.4634 22.3568 15.5998 22.1719C15.6949 22.3027 15.8708 22.1335 15.9731 22.301L16.1526 22.0654C16.5061 22.2033 16.8993 22.2107 17.2581 22.0864L17.4483 22.2085C17.5632 21.8927 17.8737 22.034 18.0765 21.9154L18.1734 22.0044L18.3242 21.7863L18.4444 21.8787C18.7136 21.8142 18.9721 21.7741 19.2126 21.6903C19.4531 21.6066 19.7043 21.4687 19.9466 21.3571C19.9556 21.3187 19.9646 21.2751 19.9789 21.2088C20.2948 21.2943 20.4617 21.0465 20.6968 20.9349C20.9319 20.8232 21.1796 20.7325 21.2837 20.4621L21.3626 20.5406L21.9011 20.1428C21.9037 20.1023 21.9091 20.0621 21.9172 20.0224C21.9172 19.9805 21.9423 19.9404 21.9603 19.8846L22.0608 19.9823C22.2328 19.681 22.4852 19.4303 22.7912 19.2565L22.9187 18.9616C23.0305 18.9217 23.124 18.8444 23.1825 18.7435C23.3287 18.4045 23.5353 18.0933 23.7927 17.8241V17.6426L23.956 17.599C23.9183 17.5135 23.8878 17.4507 23.8591 17.3862L24.1032 17.2832L23.9919 17.1088C24.0887 16.9984 24.1685 16.875 24.2288 16.7424C24.2632 16.5841 24.2789 16.4226 24.2755 16.2608L24.4729 15.8892L24.3742 15.7758C24.4191 15.6764 24.4765 15.5752 24.5357 15.4757ZM2.92182 18.3405C3.10129 18.5499 3.39921 18.6301 3.50331 18.9058C3.68278 18.925 3.69714 19.1117 3.80841 19.2006C3.91969 19.2896 4.05429 19.2826 4.11172 19.4536C4.15121 19.5705 4.33427 19.6403 4.45272 19.7328C4.63219 19.8776 4.81167 20.0329 5.00191 20.1655C5.11553 20.2346 5.23574 20.2931 5.36085 20.3399C5.29445 20.6069 5.64083 20.3731 5.66955 20.5824C5.68211 20.6767 5.85979 20.7569 5.96568 20.8302C5.99006 20.8472 6.01845 20.858 6.04823 20.8616C6.33718 20.9104 6.54178 21.139 6.8415 21.1739L6.70151 21.3344H7.09276C7.12328 21.4216 7.14122 21.4775 7.16455 21.5403C7.37454 21.4792 7.53606 21.5804 7.70297 21.6641C7.66169 21.8578 7.8645 21.8386 7.94526 21.8822C8.16785 21.9941 8.39812 22.0909 8.63444 22.1719L8.81391 22.0759C8.92159 22.1806 9.02569 22.2835 9.09748 22.3516L9.34335 22.2818L9.40078 22.4458C9.54975 22.4842 9.66999 22.5103 9.78665 22.547C9.99423 22.6332 10.2092 22.7016 10.4292 22.7511C10.5351 22.7668 10.6248 22.8418 10.7558 22.8122C10.8844 22.7966 11.015 22.8141 11.1345 22.8628C11.2476 22.8994 11.3983 23.0372 11.445 23.0145C11.6101 22.9064 11.7716 23.1768 11.9116 22.9971C11.5832 22.8383 11.2547 22.6883 10.9389 22.519C10.7682 22.4151 10.604 22.3015 10.4471 22.1788C10.2724 22.0825 10.1109 21.9652 9.96612 21.8299C9.8387 21.6833 9.59462 21.6554 9.54795 21.4391C8.83006 20.9802 8.36523 20.319 7.88783 19.649C7.59754 19.203 7.34198 18.7364 7.12327 18.2533C7.082 18.1713 7.05508 18.091 7.02277 18.0073C6.88403 17.6469 6.78243 17.274 6.71946 16.8942C6.70151 16.7825 6.60101 16.6796 6.59563 16.5696C6.58502 16.474 6.56884 16.3791 6.54717 16.2853C6.52384 16.1474 6.60101 15.9363 6.52743 15.8735C6.37487 15.7287 6.59742 15.6676 6.54717 15.556C6.49691 15.4443 6.54717 15.3292 6.47538 15.207C6.40359 15.0849 6.47538 14.9174 6.49871 14.7674C6.51047 14.7274 6.528 14.6892 6.55076 14.654L6.43948 14.5022C6.48794 14.3068 6.67998 14.1532 6.54178 13.9404C6.69254 13.7363 6.61716 13.4955 6.64588 13.2844L6.82535 13.1099L6.71228 12.9895C6.92765 12.6737 6.8774 12.255 7.1161 11.9305C7.14661 11.8886 7.10533 11.7997 7.09815 11.7421C6.75536 11.9951 6.38026 12.194 6.12182 12.4853C5.86338 12.7767 5.46495 12.9703 5.18138 13.2687C4.89781 13.567 4.64296 13.8846 4.26068 14.08C4.09377 14.476 3.63073 14.6418 3.46562 15.0413C3.04206 15.1844 2.91464 15.6136 2.61851 15.8857C2.33269 16.1876 2.07166 16.5108 1.8378 16.8523C1.84264 16.9502 1.86863 17.046 1.91409 17.1335C1.95955 17.2209 2.02345 17.2981 2.10163 17.36C2.32154 17.5502 2.49873 17.7824 2.6221 18.0422C2.6221 18.0666 2.66697 18.0788 2.68312 18.0928L2.91464 18.1154L2.92182 18.3405ZM30.3165 17.6705L30.496 17.5903C30.417 17.3408 30.0886 17.2414 30.1371 16.8924C30.085 16.8505 29.9809 16.8069 29.9397 16.7302C29.6866 16.2783 29.2935 15.9276 29.0225 15.4862C28.8233 15.1617 28.4841 14.9227 28.2544 14.6138C28.0892 14.381 27.8964 14.1679 27.6801 13.9788C27.4737 13.8043 27.427 13.4711 27.1022 13.41C26.9999 13.1989 26.7666 13.1186 26.6194 12.9477C26.4458 12.7585 26.2619 12.5786 26.0684 12.4085C26.0049 12.3562 25.937 12.3089 25.8656 12.2672C25.7561 12.5167 25.8872 12.6668 26.0128 12.843C26.0075 12.9301 26.0075 13.0175 26.0128 13.1047C26.0236 13.1919 26.0559 13.2792 26.0738 13.3629C26.142 13.6752 26.0738 14.0049 26.2048 14.3085C26.2084 14.3153 26.2103 14.3227 26.2103 14.3303C26.2103 14.3379 26.2084 14.3454 26.2048 14.3521C26.0469 14.5127 26.1079 14.6906 26.16 14.8755C26.16 14.907 26.1725 14.9645 26.16 14.9732C25.9679 15.0692 26.273 15.1564 26.16 15.2821C26.0918 15.3553 26.1294 15.5176 26.1151 15.631C26.1098 15.9036 26.0688 16.1745 25.993 16.437C25.9356 16.5731 25.9823 16.7249 25.9033 16.8261C25.6341 17.1751 25.7041 17.6339 25.4313 17.9689C25.469 18.2166 25.2123 18.3178 25.1459 18.5185C24.9359 19.1361 24.4855 19.6176 24.1445 20.1602C23.8699 20.2195 23.895 20.6243 23.5702 20.5929V20.7831C22.863 21.4007 22.1757 22.0044 21.3483 22.4597C21.7015 22.3883 22.0431 22.2709 22.3641 22.1108L22.4718 22.2033C23.1663 21.8543 23.9201 21.6293 24.5985 21.2227H24.9216L24.9557 21.0989C25.106 21.024 25.2643 20.9655 25.4277 20.9244C25.6072 20.8947 25.7041 20.6941 25.8548 20.6889C26.0523 20.6889 26.0953 20.4603 26.3107 20.469C26.4902 20.469 26.6338 20.3155 26.7737 20.1899C26.9102 20.0962 27.055 20.0145 27.2063 19.9456C27.3624 19.8514 27.5132 19.7432 27.6837 19.6298H27.8632C27.8775 19.5339 27.8901 19.4554 27.9062 19.3524L28.109 19.4658L28.3154 19.1518L28.4267 19.2617L28.7533 18.8674C28.8866 18.8397 29.0161 18.7969 29.1392 18.74C29.2835 18.6412 29.418 18.5297 29.5412 18.4068L29.6866 18.1207L30.1227 17.9846L30.1514 17.8171L30.4422 17.8014L30.3165 17.6705Z"
          fill="currentColor"/>
    <path d="M18.1638 10.8368C18.1753 10.8236 18.1879 10.8113 18.2015 10.8002C18.4172 10.9399 18.6507 11.0519 18.896 11.1334C19.1042 11.1753 19.1257 11.3079 19.2065 11.4318L19.3286 11.3236C19.6103 11.6394 19.9011 11.9482 20.1685 12.2745C20.31 12.4495 20.4304 12.6398 20.5274 12.8415C20.6172 13.0264 20.6531 13.234 20.7302 13.4242C20.8074 13.6144 20.7697 13.8726 20.9241 14.0593C20.7913 14.2529 21.03 14.478 20.8702 14.6699C20.8598 14.6824 20.8484 14.6941 20.8361 14.7048C21.0569 14.9177 20.8236 15.1235 20.8361 15.3329C20.8487 15.5423 20.671 15.701 20.6979 15.9366C20.6868 16.1406 20.5949 16.3326 20.4413 16.4722C20.3103 16.61 20.3892 16.8333 20.2026 16.9502C20.0554 17.0427 20.0482 17.2713 19.9424 17.3567C19.657 17.5818 19.4973 17.922 19.1545 18.1C18.9599 18.1913 18.7916 18.328 18.6645 18.4978C18.6376 18.5362 18.5694 18.5501 18.5155 18.5693C18.1566 18.7002 17.8156 18.9182 17.4208 18.9828C17.3579 18.9933 17.3113 19.091 17.2592 19.1573L17.1785 19.0788C17.0835 19.1105 16.9855 19.1328 16.8859 19.1451C16.4624 19.1451 16.0388 19.1451 15.6153 19.1451C15.3425 19.1451 15.1127 19.0194 14.8687 18.9444C14.3803 18.8096 13.9311 18.5658 13.5567 18.2326C12.8029 17.5347 12.7204 17.2852 12.3704 16.5751C12.2904 16.349 12.2369 16.115 12.2107 15.8772C12.129 15.481 12.1229 15.0735 12.1927 14.6752C12.2618 14.2048 12.3983 13.7461 12.5983 13.3125C12.9375 12.5501 13.3162 12.1244 14.0341 11.6184C14.1707 11.5057 14.2985 11.3833 14.4164 11.2521C14.4794 11.2616 14.5438 11.2547 14.6031 11.232C14.6624 11.2093 14.7144 11.1717 14.7538 11.123C14.8525 11.0551 14.9615 11.0027 15.0768 10.9677C15.1979 10.9098 15.3233 10.8608 15.4519 10.8211C15.5722 10.7897 15.705 10.8037 15.8252 10.774C15.9455 10.7444 16.037 10.6397 16.1842 10.6815C16.2865 10.7112 16.3834 10.5472 16.4911 10.6711C16.51 10.6462 16.5338 10.6253 16.5612 10.6096C16.5886 10.594 16.619 10.5839 16.6506 10.58C16.6821 10.5761 16.7141 10.5784 16.7447 10.5869C16.7753 10.5953 16.8038 10.6097 16.8285 10.6292C16.9128 10.6642 17.0076 10.6673 17.0941 10.6379C17.2449 10.5699 17.3292 10.7426 17.4764 10.692C17.5361 10.6684 17.6014 10.6615 17.6649 10.6723C17.7284 10.6831 17.7875 10.7111 17.8353 10.7531C17.9053 10.8159 18.0471 10.8124 18.1638 10.8368Z"
          fill="currentColor"/>
</svg>
