<svg width="38" height="50" viewBox="0 0 38 50" fill="none" xmlns="http://www.w3.org/2000/svg">
<path d="M31.6875 7.69278C31.1251 5.88712 29.8501 4.38947 28.157 3.54674L21.2255 0.0804616C20.9555 -0.0528019 20.6327 -0.0186243 20.3966 0.168844L13.6398 5.57469V5.57434C13.2272 5.9075 12.94 6.37116 12.8264 6.88939C12.7128 7.40761 12.7788 7.94892 13.0142 8.42433L13.5835 9.56261C13.2172 9.76216 12.9117 10.0563 12.6987 10.415C12.4856 10.7734 12.3731 11.1825 12.3731 11.5995V12.0318C12.3738 12.5182 12.5274 12.9919 12.8119 13.3861C13.0967 13.7801 13.4979 14.0749 13.9591 14.2289L17.0656 15.2654C17.4598 15.3976 17.8728 15.4653 18.2884 15.4663H21.9139C22.1514 15.4646 22.3762 15.575 22.5195 15.7649C22.6693 15.9593 22.7194 16.213 22.6548 16.4499C21.6636 19.9756 21.2783 23.6441 21.5155 27.2989C18.2031 25.834 15.1129 25.9842 12.313 27.7328C8.02577 25.7522 4.01434 25.825 0.386674 27.9462C0.148112 28.084 0.000689385 28.3381 0 28.6136V48.7206C0 49.1446 0.34145 49.4898 0.765758 49.494H1.024C5.0402 49.5213 8.99126 48.4769 12.4696 46.4687C17.0361 47.8962 21.9734 47.3673 27.1588 44.8957H27.1584C28.5487 45.2437 29.9922 45.3224 31.4119 45.1277C33.0594 44.8387 34.5436 43.9563 35.5845 42.6472C36.6254 41.338 37.1509 39.6929 37.0615 38.023C36.5867 27.7237 34.7807 17.5288 31.688 7.69356L31.6875 7.69278ZM31.171 43.6027C29.8601 43.7722 28.5285 43.6793 27.2539 43.3296C27.0774 43.2851 26.891 43.3047 26.7281 43.3852C21.6464 45.8637 17.0448 46.3612 12.6628 44.9063L9.62502 43.3876C9.24284 43.1966 8.77814 43.3517 8.58723 43.7342C8.39631 44.1164 8.55133 44.5811 8.93386 44.772L10.7126 45.6613C7.87468 47.1207 4.73709 47.9029 1.54639 47.9464V29.0661C4.37808 27.5495 7.75077 27.4224 10.6887 28.7212L8.10801 30.2679C7.92849 30.3715 7.79764 30.5431 7.74585 30.744C7.69371 30.9449 7.72479 31.1583 7.83147 31.3361C7.93849 31.5139 8.1125 31.6413 8.31412 31.6896C8.51609 31.7383 8.72875 31.7034 8.90483 31.5933L12.7716 29.2733C12.7771 29.2733 12.7792 29.2646 12.7847 29.2615C12.7902 29.2584 12.8016 29.2539 12.8096 29.2484C15.5056 27.4048 18.4412 27.373 21.7742 29.141L23.2305 34.2359H23.2302C23.3241 34.569 23.6275 34.799 23.9735 34.7996C24.0453 34.7993 24.1167 34.7893 24.1861 34.7703C24.5966 34.6526 24.8338 34.2248 24.7168 33.8144L23.1894 28.4665V28.4668C22.7475 24.5684 23.0738 20.6208 24.1499 16.848C24.3401 16.1465 24.1906 15.3966 23.746 14.8218C23.3103 14.2511 22.6322 13.9169 21.914 13.9193H18.2886C18.0393 13.9193 17.7918 13.8793 17.5553 13.8009L14.4488 12.7655C14.1329 12.6602 13.9199 12.3646 13.9199 12.0315V11.5992C13.9199 11.1763 14.2596 10.8318 14.6825 10.8259H19.6986H19.6983C20.2959 10.8262 20.8607 10.5528 21.2319 10.0843C21.6027 9.61581 21.739 9.00339 21.6016 8.42192C21.4646 7.84019 21.0689 7.35337 20.5276 7.09998C19.9863 6.84691 19.3589 6.85486 18.8245 7.12242L15.0389 9.0147L14.3977 7.73244C14.2348 7.40653 14.3214 7.01087 14.6059 6.78268L20.9767 1.68618L27.4653 4.93424V4.93459C28.78 5.58607 29.7712 6.74749 30.2082 8.14845C33.2612 17.8573 35.0441 27.9197 35.5126 38.0863C35.5875 39.3772 35.187 40.6512 34.3875 41.6672C33.5876 42.6836 32.4434 43.3721 31.1712 43.6027L31.171 43.6027ZM17.9693 9.27925L19.516 8.5059C19.6423 8.44237 19.7928 8.44928 19.9133 8.52385C20.0345 8.59704 20.108 8.72927 20.1067 8.87082C20.1063 9.09627 19.9237 9.2789 19.6982 9.27925L17.9693 9.27925Z" fill="#8F8F8F"/>
<path d="M18.9875 36.428C15.3413 38.3931 10.9512 38.3931 7.30505 36.428C6.92286 36.2371 6.45816 36.3921 6.26726 36.7747C6.07633 37.1568 6.23135 37.6215 6.61389 37.8124C8.63361 38.86 10.8711 39.4175 13.1463 39.4403C15.4211 39.4189 17.6586 38.8623 19.6786 37.8162C20.0612 37.6253 20.2162 37.1606 20.0252 36.7785C19.8343 36.3963 19.3696 36.2409 18.9875 36.4318L18.9875 36.428Z" fill="#8F8F8F"/>
<path d="M7.73242 18.5597V21.6531C7.73242 21.8582 7.8139 22.055 7.9589 22.2C8.10391 22.345 8.3007 22.4264 8.50577 22.4264H10.0525V23.9731C10.0525 24.1782 10.1339 24.375 10.2789 24.52C10.424 24.665 10.6207 24.7465 10.8258 24.7465H13.9192C14.1243 24.7465 14.3211 24.665 14.4661 24.52C14.6111 24.375 14.6926 24.1782 14.6926 23.9731V22.4264H16.2393C16.4443 22.4264 16.6411 22.345 16.7861 22.2C16.9311 22.055 17.0126 21.8582 17.0126 21.6531V18.5597C17.0126 18.3546 16.9311 18.1578 16.7861 18.0128C16.6411 17.8678 16.4443 17.7864 16.2393 17.7864H14.6926V16.2397C14.6926 16.0346 14.6111 15.8378 14.4661 15.6928C14.3211 15.5478 14.1243 15.4663 13.9192 15.4663H10.8258C10.3988 15.4663 10.0525 15.8126 10.0525 16.2397V17.7864H8.50577C8.07871 17.7864 7.73242 18.1326 7.73242 18.5597ZM9.27912 19.3331H10.8258C11.0309 19.3331 11.2277 19.2516 11.3727 19.1066C11.5177 18.9616 11.5992 18.7648 11.5992 18.5597V17.013H13.1459V18.5597C13.1459 18.7648 13.2273 18.9616 13.3723 19.1066C13.5173 19.2516 13.7141 19.3331 13.9192 19.3331H15.4659V20.8798H13.9192C13.4921 20.8798 13.1459 21.226 13.1459 21.6531V23.1998H11.5992V21.6531C11.5992 21.448 11.5177 21.2512 11.3727 21.1062C11.2277 20.9612 11.0309 20.8798 10.8258 20.8798H9.27912V19.3331Z" fill="#8F8F8F"/>
<path d="M0.773349 13.1463H2.32005V14.693C2.32005 14.8981 2.40152 15.0949 2.54653 15.2399C2.69153 15.3849 2.88832 15.4663 3.0934 15.4663H6.18679C6.39187 15.4663 6.58866 15.3849 6.73366 15.2399C6.87866 15.0949 6.96014 14.8981 6.96014 14.693V13.1463H8.50684C8.71191 13.1463 8.9087 13.0648 9.05371 12.9198C9.19871 12.7748 9.28019 12.578 9.28019 12.3729V9.27955C9.28019 9.07448 9.19871 8.87769 9.05371 8.73268C8.9087 8.58768 8.71191 8.5062 8.50684 8.5062H6.96014V6.95951C6.96014 6.75443 6.87866 6.55764 6.73366 6.41264C6.58866 6.26764 6.39187 6.18616 6.18679 6.18616H3.0934C2.66633 6.18616 2.32005 6.53244 2.32005 6.95951V8.5062H0.773349C0.346284 8.5062 0 8.85249 0 9.27955V12.3729C0 12.578 0.0814783 12.7748 0.226481 12.9198C0.371483 13.0648 0.568274 13.1463 0.773349 13.1463ZM1.5467 10.0529H3.0934C3.29847 10.0529 3.49526 9.97142 3.64026 9.82642C3.78526 9.68142 3.86674 9.48463 3.86674 9.27955V7.73285H5.41344V9.27955C5.41344 9.48463 5.49492 9.68142 5.63992 9.82642C5.78493 9.97142 5.98172 10.0529 6.18679 10.0529H7.73349V11.5996H6.18679C5.75973 11.5996 5.41344 11.9459 5.41344 12.3729V13.9196H3.86674V12.3729C3.86674 12.1679 3.78527 11.9711 3.64026 11.8261C3.49526 11.6811 3.29847 11.5996 3.0934 11.5996H1.5467V10.0529Z" fill="#8F8F8F"/>
</svg>
