<svg width="77" height="77" viewBox="0 0 77 77" fill="none" xmlns="http://www.w3.org/2000/svg">
<path fill-rule="evenodd" clip-rule="evenodd" d="M36.5758 29.8372V21.1747C36.5758 20.1121 37.4382 19.2497 38.5008 19.2497C39.5634 19.2497 40.4258 20.1121 40.4258 21.1747V29.8372C40.4258 30.8999 39.5634 31.7622 38.5008 31.7622C37.4382 31.7622 36.5758 30.8999 36.5758 29.8372ZM49.6526 32.3264L54.8346 27.144C55.587 26.3916 56.8056 26.3916 57.5566 27.144C58.309 27.8951 58.309 29.1137 57.5566 29.8661L52.3742 35.048C51.6235 35.7991 50.4032 35.7991 49.6526 35.048C48.9015 34.2974 48.9015 33.0771 49.6526 32.3264ZM24.6276 35.048L19.4452 29.8661C18.6928 29.1137 18.6928 27.8951 19.4452 27.144C20.1962 26.3916 21.4148 26.3916 22.1672 27.144L27.3492 32.3264C28.1003 33.0771 28.1003 34.2974 27.3492 35.048C26.5985 35.7991 25.3782 35.7991 24.6276 35.048ZM38.5008 58.7124C31.5958 58.7124 25.9883 53.1049 25.9883 46.1999C25.9883 39.2948 31.5958 33.6874 38.5008 33.6874C45.4058 33.6874 51.0133 39.2948 51.0133 46.1999C51.0133 53.1049 45.4058 58.7124 38.5008 58.7124ZM22.1383 48.1249H13.4758C12.4132 48.1249 11.5508 47.2625 11.5508 46.1999C11.5508 45.1372 12.4132 44.2749 13.4758 44.2749H22.1383C23.2009 44.2749 24.0633 45.1372 24.0633 46.1999C24.0633 47.2625 23.2009 48.1249 22.1383 48.1249ZM63.5258 48.1249H54.8633C53.8007 48.1249 52.9383 47.2625 52.9383 46.1999C52.9383 45.1372 53.8007 44.2749 54.8633 44.2749H63.5258C64.5884 44.2749 65.4508 45.1372 65.4508 46.1999C65.4508 47.2625 64.5884 48.1249 63.5258 48.1249ZM54.8345 65.2552L50.2449 60.6656C49.4926 59.9132 49.4926 58.6946 50.2449 57.9436C50.996 57.1912 52.2146 57.1912 52.967 57.9436L57.5565 62.5331C58.3089 63.2855 58.3089 64.5041 57.5565 65.2552C56.8054 66.0075 55.5869 66.0075 54.8345 65.2552ZM19.4453 62.5331L24.0348 57.9436C24.7872 57.1912 26.0058 57.1912 26.7569 57.9436C27.5092 58.6947 27.5092 59.9132 26.7569 60.6656L22.1673 65.2552C21.4149 66.0075 20.1963 66.0075 19.4453 65.2552C18.6929 64.5041 18.6929 63.2855 19.4453 62.5331ZM36.5756 71.2244V62.5619C36.5756 61.4993 37.4379 60.6369 38.5006 60.6369C39.5632 60.6369 40.4256 61.4993 40.4256 62.5619V71.2244C40.4256 72.287 39.5632 73.1494 38.5006 73.1494C37.4379 73.1494 36.5756 72.287 36.5756 71.2244Z" fill="#8F8F8F"/>
</svg>
