<svg viewBox="0 0 36 45" fill="none" xmlns="http://www.w3.org/2000/svg">
    <path d="M24.6525 0.000790128C23.4662 -8.22994e-07 22.2879 0.196144 21.1629 0.581709C19.1127 1.29154 16.8927 1.29154 14.8425 0.581709C13.7179 0.195749 12.5392 -0.000789002 11.3529 0.00039545C5.09303 0.00039545 4.8166e-06 5.42357 4.8166e-06 12.0889C-0.00115109 13.4228 0.205748 14.7487 0.613782 16.0153C1.31039 19.364 2.05553 23.5727 2.05553 25.3416C2.05553 25.4954 2.05553 25.6817 2.05168 25.8964C2.01199 29.8711 1.89101 41.9665 9.69511 44.7181C10.1578 44.8893 10.6452 44.9807 11.1373 44.9886C11.7321 44.9973 12.3151 44.8146 12.804 44.4662C14.4905 43.2609 14.5544 40.5062 14.6268 37.3169C14.7578 31.6477 15.2775 29.084 18 28.9712C20.7225 29.0847 21.2422 31.6448 21.3732 37.3169C21.4472 40.5062 21.5111 43.2609 23.196 44.4662C24.1276 45.0748 25.2928 45.1689 26.3057 44.7181C34.1094 41.9689 33.9885 29.874 33.9487 25.8995C33.9487 25.6847 33.9448 25.4981 33.9448 25.3446C33.9448 23.5758 34.69 19.367 35.3866 16.0183V16.018C35.7942 14.7513 36.0015 13.4254 36 12.0915C36.0046 5.42348 30.9118 0 24.652 0L24.6525 0.000790128ZM25.4142 42.0357C24.9364 42.2057 24.78 42.1401 24.7789 42.1393C24.2414 41.7553 24.1763 38.9346 24.137 37.2484C24.0364 32.8969 23.8838 26.3201 18.0451 26.1368H17.9599C12.1208 26.3223 11.9686 32.8987 11.868 37.2484C11.8287 38.9346 11.7636 41.7554 11.2261 42.1393C11.2261 42.1393 11.0677 42.2034 10.5915 42.0357C6.66496 40.6524 4.72047 35.2328 4.81328 25.9271C4.81328 25.7005 4.81752 25.5052 4.81752 25.3431C4.81752 25.2359 4.81328 25.1165 4.80905 24.999H4.80943C5.41396 25.5111 6.12483 25.8734 6.88767 26.0576C7.24638 26.1403 7.62281 26.0727 7.93301 25.8694C8.24317 25.6662 8.46163 25.3446 8.53984 24.9753C8.61767 24.6063 8.54909 24.2208 8.34912 23.9036C8.14877 23.5869 7.83359 23.365 7.47373 23.2875C5.76153 22.9055 4.34473 19.7835 3.93865 18.6058C3.70401 17.3337 3.47244 16.1853 3.31409 15.4248L3.29907 15.3512C3.28866 15.3026 3.27595 15.2543 3.26092 15.2069C3.25823 15.1962 3.25514 15.1855 3.25091 15.1745C2.92495 14.1803 2.75927 13.1383 2.76081 12.0891C2.76081 6.98705 6.61448 2.83478 11.3517 2.83478C12.2402 2.83399 13.1229 2.9807 13.9656 3.26978C16.5836 4.17615 19.4194 4.17615 22.0375 3.26978C22.8801 2.9807 23.7628 2.83399 24.6513 2.83478C29.3884 2.83478 33.2422 6.98624 33.2422 12.0891C33.2438 13.1382 33.0781 14.1802 32.7521 15.1745C32.7479 15.1851 32.7448 15.1958 32.7421 15.2069H32.7425C32.7271 15.2543 32.7144 15.3026 32.7043 15.3512L32.6893 15.4248C32.531 16.1848 32.2994 17.3329 32.0648 18.605C31.6606 19.7818 30.2454 22.9052 28.5297 23.2871V23.2875C28.1694 23.365 27.8543 23.5869 27.6543 23.9036C27.4539 24.2208 27.3854 24.6063 27.4636 24.9753C27.5414 25.3446 27.7599 25.6661 28.07 25.8694C28.3802 26.0727 28.7566 26.1403 29.1157 26.0576C29.8782 25.8734 30.5895 25.5111 31.1936 24.999C31.1897 25.1169 31.1851 25.2359 31.1851 25.3431C31.1851 25.5052 31.1851 25.7009 31.1894 25.9271C31.2845 35.2329 29.3404 40.6518 25.4142 42.0357Z"
          fill="currentColor"/>
</svg>
