<svg viewBox="0 0 32 32" fill="none" xmlns="http://www.w3.org/2000/svg">
    <path d="M18.6924 0.894373C18.6849 0.962568 18.6774 1.0311 18.6685 1.10987C18.6865 1.11498 18.7163 1.12385 18.7533 1.13476C18.7605 1.09146 18.7664 1.05463 18.7733 1.01201C18.8054 1.02156 18.8395 1.02053 18.8549 1.03792C18.904 1.09248 18.9383 1.16647 18.995 1.20739C19.0219 1.22648 19.087 1.18795 19.1355 1.17499C19.1237 1.19988 19.109 1.23091 19.087 1.27797C19.1276 1.27217 19.1794 1.25887 19.1817 1.26501C19.2544 1.46653 19.4554 1.54188 19.57 1.69941C19.6103 1.75465 19.6231 1.83171 19.646 1.8924C19.7442 1.81602 19.7953 1.90604 19.8457 1.99981C19.8651 2.03595 19.886 2.07107 19.9063 2.10653C19.9345 2.07857 19.9594 2.04516 19.9915 2.02402C20.0386 1.99333 20.091 1.97151 20.1559 1.93843V2.0963C20.1693 2.10312 20.1827 2.10994 20.1961 2.11676C20.2266 2.06425 20.2567 2.01174 20.2872 1.95957C20.2996 1.96912 20.312 1.97833 20.3245 1.98787L20.298 2.06084C20.3045 2.06834 20.3111 2.07585 20.3176 2.08369C20.369 2.03493 20.4204 1.98651 20.4892 1.92138C20.4833 1.97083 20.4797 2.0022 20.4722 2.06868C20.5246 2.02981 20.5576 2.00526 20.6045 1.97048C20.6408 2.00049 20.7066 2.12085 20.7754 1.95003C20.8209 1.97764 20.8648 2.00424 20.9133 2.03391C20.9454 1.98753 20.9778 1.94014 21.0131 1.88899C21.056 1.98583 21.1088 2.08744 21.2483 1.9831V2.13688C21.392 2.04959 21.4513 2.07346 21.5112 2.21905C21.5734 2.37011 21.6481 2.51502 21.7119 2.66539C21.7414 2.73495 21.7486 2.8161 21.783 2.88191C21.8027 2.91907 21.8577 2.93578 21.8943 2.96033C21.8868 2.96544 21.8498 2.99102 21.8141 3.01557C21.8767 3.18708 22.0175 3.18162 22.1272 3.17276C22.1272 3.22186 22.1101 3.28289 22.1298 3.30096C22.2902 3.44894 22.2352 3.63205 22.2172 3.81447C22.4517 3.8605 22.3276 4.07361 22.3809 4.20591C22.396 4.24307 22.3698 4.29967 22.3868 4.33445C22.4301 4.42276 22.4618 4.49505 22.3682 4.49607C22.3734 4.58677 22.378 4.66383 22.3849 4.77942C22.4939 4.85512 22.4042 4.96491 22.34 5.06004C22.3348 5.15347 22.5417 5.1654 22.4009 5.30793C22.4353 5.45216 22.4739 5.61481 22.5172 5.79518C22.4327 5.90054 22.4333 5.91657 22.5476 6.03761C22.4294 6.11331 22.4166 6.27152 22.4782 6.41575C22.5093 6.48906 22.4756 6.59238 22.4717 6.67148C22.4779 6.73149 22.4838 6.78605 22.4923 6.86788C22.5853 6.89516 22.5971 6.99097 22.5646 7.1127C22.5552 7.1485 22.5777 7.19283 22.583 7.23375C22.5859 7.25557 22.5876 7.2958 22.5823 7.29751C22.3891 7.35036 22.547 7.48129 22.5345 7.56961C22.5218 7.66065 22.5738 7.75987 22.5882 7.85671C22.6023 7.95218 22.6436 8.07493 22.6043 8.14142C22.5172 8.28838 22.5394 8.42784 22.5545 8.57821C22.5637 8.66856 22.5391 8.76301 22.5529 8.85201C22.5692 8.95805 22.62 9.05795 22.6377 9.164C22.6491 9.23322 22.6197 9.30891 22.6239 9.38052C22.6351 9.56907 22.6606 9.75695 22.6691 9.94585C22.6793 10.1665 22.6793 10.3878 22.6799 10.6087C22.6799 10.6363 22.6662 10.6711 22.6472 10.6902C22.5987 10.74 22.5381 10.7761 22.6459 10.8344C22.6622 10.8433 22.6282 10.9476 22.622 11.0083C22.6131 11.0949 22.6089 11.1822 22.5905 11.2774C22.5846 11.3554 22.58 11.4335 22.5715 11.5116C22.5689 11.5348 22.5414 11.5706 22.5479 11.5774C22.6629 11.6967 22.6793 11.8369 22.673 12.0016C22.6658 12.1929 22.7153 12.3784 22.6642 12.5792C22.6367 12.6869 22.7369 12.8298 22.7818 12.9638C22.7749 12.9624 22.751 12.958 22.6822 12.9451C22.714 13.0415 22.7457 13.1169 22.7621 13.1957C22.7703 13.2349 22.7503 13.2802 22.7412 13.3331C22.8535 13.4197 22.8528 13.6843 22.7382 13.7859C22.7723 13.897 22.8243 13.9976 22.8302 14.1016C22.8381 14.2401 22.808 14.3809 22.8004 14.5207C22.7988 14.5521 22.8335 14.5845 22.8341 14.6168C22.8351 14.6683 22.8217 14.7202 22.803 14.7774C22.7772 14.8688 22.7513 14.9602 22.7218 15.0639C22.7585 15.0741 22.8204 15.0915 22.9075 15.1164C22.842 15.1798 22.7896 15.2309 22.7287 15.2899H22.8669C22.7935 15.397 22.6337 15.5061 22.8332 15.6043C22.8135 15.6684 22.7693 15.7363 22.7811 15.7912C22.8076 15.9139 22.9091 16.0196 22.8482 16.1621C22.8453 16.169 22.8839 16.1955 22.9091 16.2184C22.8738 16.2307 22.8492 16.2389 22.8119 16.2515C22.9078 16.4571 22.9484 16.661 22.8872 16.8956C22.8545 17.0214 22.9216 17.1755 22.9416 17.3034C22.9042 17.4193 22.8656 17.5386 22.8217 17.674C22.8505 17.6818 22.8915 17.6934 22.9422 17.7074C22.9573 17.8053 22.7454 17.9386 22.9684 18.0256C22.8607 18.2093 22.8748 18.3696 22.9897 18.5449C23.0257 18.5998 22.9648 18.7215 22.954 18.8132C22.9471 18.8729 22.9497 18.9342 22.9514 18.9946C22.9517 19.0103 22.9717 19.0263 22.9704 19.0406C22.9586 19.1501 22.9439 19.2592 22.9294 19.3734C23.0889 19.5101 23.0889 19.5156 22.9209 19.6114C23.0477 19.6898 22.9141 19.8498 23.0287 19.95C23.0572 19.9749 22.9759 20.1106 22.9822 20.1924C23.0012 20.4379 23.0434 20.6814 23.0666 20.9269C23.0824 21.0906 23.085 21.2559 23.086 21.4203C23.086 21.467 23.0588 21.5137 23.0575 21.5178C23.0496 21.6498 23.0437 21.7476 23.0359 21.8782C23.0974 21.9444 23.0804 22.1885 22.9694 22.2635C23.0061 22.3177 23.0424 22.3716 23.0729 22.4166C22.9118 22.5332 23.1027 22.581 23.0902 22.6819C23.0748 22.6921 23.0372 22.7167 22.991 22.747C23.0218 22.7855 23.0788 22.8254 23.0811 22.8684C23.0833 22.9137 23.0336 22.9622 22.9881 23.0423C23.0234 23.0788 23.0673 23.1245 23.1076 23.1661C23.0964 23.1705 23.0578 23.1862 22.9894 23.2141C23.0745 23.2718 23.1357 23.3134 23.1973 23.3546C23.1793 23.3587 23.1613 23.3628 23.1436 23.3666C23.157 23.5162 23.179 23.6659 23.1816 23.8163C23.1852 24.0113 23.1953 24.2115 23.156 24.399C23.1426 24.4631 23.1616 24.4468 23.1813 24.4747C23.2114 24.5173 23.233 24.5736 23.2366 24.6258C23.2382 24.6466 23.1832 24.6721 23.142 24.7052V25.2044L23.0997 25.2191C23.157 25.26 23.2143 25.3006 23.2857 25.3514C23.0519 25.4448 23.2189 25.6211 23.1986 25.7605C23.1816 25.8765 23.195 25.9968 23.195 26.1411C23.2566 26.1847 23.2756 26.2553 23.1836 26.3494C23.1557 26.378 23.158 26.4404 23.1498 26.4878C23.1272 26.6147 23.1063 26.7422 23.0827 26.8789C23.124 26.8956 23.1878 26.9212 23.2428 26.9434C23.2232 27.0593 23.1148 27.1715 23.2533 27.2772C23.1056 27.5176 23.0339 27.7675 23.1289 28.0539C23.1551 28.1334 23.1495 28.2292 23.1384 28.3148C23.1318 28.3649 23.085 28.4096 23.0431 28.4481C23.0303 28.5967 23.0624 28.7628 22.933 28.9077C22.9537 28.9326 22.9831 28.9677 23.0277 29.0209C22.9831 29.0322 22.9566 29.039 22.9154 29.0496C22.9504 29.0809 22.9782 29.1062 22.9727 29.101C22.917 29.2316 22.8653 29.3448 22.8214 29.4611C22.806 29.502 22.8247 29.5624 22.8024 29.5948C22.7113 29.7267 22.7614 29.8764 22.7359 30.0149C22.712 30.1448 22.6495 30.2692 22.5908 30.3892C22.5496 30.4735 22.4956 30.557 22.4294 30.6204C22.3724 30.6753 22.2932 30.7104 22.2185 30.7387C22.0872 30.7882 22.116 30.8748 22.157 30.9733C22.0515 30.9778 21.9929 31.0016 22.0165 31.1438C22.0266 31.2045 21.9376 31.2932 21.8793 31.3542C21.8092 31.4278 21.7372 31.4896 21.7159 31.6021C21.6952 31.7105 21.6533 31.8121 21.5086 31.7968C21.4284 31.7883 21.3478 31.9492 21.2935 31.8462C21.1739 31.8462 21.0862 31.8449 20.9981 31.8466C20.9395 31.8476 20.8808 31.8513 20.8222 31.8565C20.724 31.865 20.6258 31.8732 20.5282 31.8871C20.4944 31.8919 20.463 31.9134 20.4303 31.9274C20.4267 31.9516 20.4234 31.9758 20.4198 32C20.354 31.9465 20.2881 31.8926 20.2086 31.8278C20.129 31.8888 20.0265 31.8895 19.9008 31.8343C19.7685 31.776 19.6175 31.7623 19.4734 31.7368C19.4358 31.73 19.3932 31.7518 19.367 31.7576C19.3205 31.6658 19.2724 31.5615 19.2147 31.4633C19.1984 31.435 19.1558 31.4207 19.1227 31.4067C19.0513 31.3767 18.978 31.3511 18.8843 31.316C18.8585 31.3736 18.8116 31.4773 18.7566 31.5994C18.6099 31.4729 18.4792 31.4306 18.3971 31.6212C18.289 31.5537 18.1868 31.4899 18.0696 31.4166C18.068 31.4047 18.0732 31.3378 18.047 31.2894C18.0057 31.2134 17.9245 31.154 18.0021 31.0558C17.9904 31.0473 17.9792 31.0378 17.9668 31.0306C17.8643 30.973 17.7772 30.9423 17.6577 31.0299C17.5863 31.0821 17.4566 31.0483 17.3531 31.0531C17.3623 31.0323 17.3711 31.0115 17.3803 30.9907C17.3292 30.9208 17.2781 30.8509 17.227 30.7814C17.2467 30.7844 17.2663 30.7875 17.286 30.7906L17.284 30.794C17.2762 30.7783 17.2683 30.763 17.2604 30.7473C17.2509 30.7606 17.2411 30.7739 17.2316 30.7872H16.9359C16.9297 30.8281 16.9189 30.899 16.9084 30.9682C16.8619 30.9597 16.8161 30.9512 16.7575 30.9403C16.7761 30.9075 16.7971 30.87 16.8184 30.8325C16.8125 30.8236 16.8063 30.8148 16.8004 30.8059C16.6481 30.9304 16.4958 31.0548 16.3328 31.1881C16.2584 31.1142 16.1942 31.1523 16.1949 31.27C16.1955 31.3787 16.1245 31.375 16.0714 31.3716C16.0335 31.3692 15.9948 31.3201 15.9634 31.2853C15.9349 31.2536 15.9159 31.213 15.8992 31.1759L15.7751 30.9358L15.778 30.929C15.7558 30.8908 15.7332 30.8526 15.6981 30.793C15.726 30.6688 15.6913 30.5434 15.5534 30.4561C15.5337 30.4435 15.5229 30.3889 15.5308 30.3609C15.5681 30.2304 15.5308 30.1635 15.3936 30.1512C15.445 30.1431 15.4964 30.1345 15.5662 30.1233C15.5521 30.0377 15.5364 29.9443 15.5223 29.859C15.4909 29.856 15.4486 29.8635 15.4398 29.8491C15.4119 29.8024 15.3962 29.7479 15.3759 29.6964C15.4204 29.6858 15.4653 29.6756 15.5092 29.6654C15.501 29.6163 15.5033 29.546 15.4771 29.4904C15.4463 29.4257 15.391 29.3738 15.336 29.3032C15.4008 29.2838 15.4758 29.2616 15.5508 29.2391L15.5642 29.1863C15.499 29.1624 15.4335 29.1382 15.3419 29.1045C15.387 29.0687 15.4394 29.0339 15.4833 28.9899C15.5164 28.9568 15.5383 28.9118 15.5655 28.8723C15.5242 28.8525 15.483 28.833 15.4656 28.8249V27.8391C15.4761 27.8354 15.5089 27.8231 15.5468 27.8088C15.4149 27.6321 15.5645 27.5094 15.6156 27.3198C15.5806 27.3062 15.5203 27.283 15.4352 27.2502C15.5429 27.1783 15.6919 27.194 15.577 27.0641C15.577 27.0641 15.6287 27.0092 15.6759 26.9594C15.6713 26.7736 15.6615 26.5478 15.74 26.33C15.7417 26.3252 15.7476 26.3173 15.7476 26.3173C15.6729 26.2024 15.7355 26.0473 15.6844 25.9532C15.6248 25.8437 15.6353 25.8008 15.7243 25.7445C15.6883 25.723 15.6624 25.7073 15.6362 25.6917C15.7525 25.6013 15.6192 25.471 15.6827 25.3718C15.6909 25.3592 15.6952 25.3394 15.6929 25.3244C15.6595 25.1185 15.6238 24.9129 15.5901 24.7069C15.5793 24.6415 15.5721 24.5757 15.5586 24.474C15.573 24.4362 15.6051 24.3513 15.6376 24.2664C15.6166 24.2579 15.5956 24.2497 15.5747 24.2412C15.5488 24.3141 15.5229 24.3874 15.4971 24.4597C15.4313 24.3953 15.3825 24.3475 15.3238 24.2903C15.3566 24.2088 15.4846 24.1133 15.3448 23.9977C15.3965 23.9875 15.447 23.9772 15.4974 23.967C15.4892 24.0182 15.4814 24.0693 15.4712 24.1331C15.5229 24.1211 15.558 24.1133 15.6114 24.101C15.499 23.9721 15.6117 23.9435 15.7119 23.8838H15.5878C15.5655 23.788 15.5459 23.7038 15.5262 23.6196C15.5184 23.5971 15.5102 23.5746 15.5023 23.552C15.5275 23.5135 15.5527 23.4753 15.578 23.4368C15.5694 23.4361 15.5613 23.4358 15.5527 23.4351C15.5675 23.3151 15.5865 23.195 15.5953 23.0743C15.5996 23.0164 15.5979 22.9495 15.5743 22.8994C15.5351 22.8162 15.4817 22.7467 15.5793 22.6662C15.594 22.6543 15.5789 22.5977 15.5717 22.5632C15.5544 22.4817 15.5334 22.4009 15.5508 22.3198C15.4941 22.2714 15.4371 22.2226 15.3805 22.1742C15.388 22.1609 15.3956 22.1476 15.4028 22.1339C15.4296 22.1391 15.4568 22.1438 15.4977 22.1517C15.4866 22.0995 15.4774 22.0559 15.4666 22.0051C15.3762 22.0528 15.3346 22.0201 15.3291 21.9178C15.3265 21.87 15.3094 21.823 15.299 21.7749V21.5216C15.2868 21.5331 15.3094 21.5113 15.3324 21.4898C15.4093 21.5355 15.3474 21.7142 15.5079 21.6941C15.5033 21.6187 15.5023 21.5533 15.4925 21.4895C15.4905 21.4759 15.4555 21.4677 15.4358 21.4568C15.4525 21.3814 15.4692 21.3061 15.4882 21.2191H15.2698C15.3369 21.0534 15.4014 20.9218 15.4427 20.7827C15.4738 20.6787 15.5033 20.5682 15.427 20.4584C15.3864 20.4001 15.3337 20.3411 15.4073 20.2374C15.4538 20.172 15.5478 20.0318 15.4155 19.9292C15.3857 19.9064 15.3458 19.8978 15.2937 19.8753C15.3713 19.8392 15.5501 19.8685 15.4031 19.7089C15.5383 19.591 15.408 19.4512 15.4319 19.3243C15.4345 19.31 15.4447 19.2889 15.4391 19.2824C15.3726 19.2053 15.3753 19.1395 15.4129 19.0372C15.4358 18.9748 15.3487 18.8691 15.3173 18.7965C15.3422 18.7355 15.3841 18.6652 15.3956 18.5902C15.4018 18.5486 15.3566 18.4985 15.3284 18.4392C15.4643 18.3645 15.3861 18.2049 15.3949 18.0651C15.4034 17.9294 15.4175 17.794 15.429 17.6593C15.3602 17.6283 15.2701 17.5881 15.1801 17.5475C15.1935 17.527 15.2069 17.5069 15.2338 17.466C15.1781 17.4837 15.1408 17.496 15.1254 17.5008C15.1935 17.3576 15.2672 17.2035 15.3399 17.0487C15.3478 17.0316 15.3121 16.8407 15.3147 16.8178C15.3209 16.7595 15.3366 16.7026 15.3789 16.6565C15.3507 16.5341 15.3288 16.4097 15.2918 16.2903C15.278 16.2457 15.2289 16.2126 15.1879 16.1649C15.2361 16.1294 15.3337 16.0684 15.276 15.935C15.3062 15.9269 15.3363 15.9187 15.3317 15.9197C15.3143 15.7751 15.2914 15.6357 15.2826 15.4955C15.2747 15.3728 15.2839 15.249 15.2829 15.1256C15.2816 14.9551 15.2813 14.7846 15.2737 14.6141C15.2698 14.5255 15.243 14.4375 15.24 14.3488C15.2299 14.0399 15.2253 13.7303 15.22 13.4214C15.2181 13.3082 15.22 13.1946 15.22 13.0811C15.1464 13.0831 15.093 13.2584 14.9905 13.1053C15.057 13.076 15.1202 13.0484 15.2076 13.0098C15.1087 12.9389 15.0396 12.8891 14.9659 12.8363C14.9925 12.7749 15.018 12.7159 15.0458 12.6522C15.0737 12.6859 15.0985 12.7159 15.1323 12.7572C15.1775 12.6938 15.2158 12.6399 15.2547 12.5853C15.2171 12.558 15.1814 12.5318 15.1454 12.5059C15.3052 12.3579 15.0196 12.1823 15.1726 12.034C15.1002 11.9272 15.2158 11.7789 15.0982 11.6773C15.0786 11.6603 15.0956 11.5982 15.0956 11.5225C15.0308 11.5832 14.9879 11.6234 14.945 11.6637L14.9214 11.6453C14.9388 11.6033 14.9558 11.5617 14.98 11.5027C14.9178 11.5167 14.8674 11.528 14.8163 11.5396C14.8566 11.6456 14.8494 11.7029 14.7213 11.6804C14.6264 11.6637 14.5281 11.6661 14.4315 11.6599L14.426 11.6582C14.4027 11.6783 14.3791 11.6985 14.3559 11.7186C14.3513 11.7288 14.3464 11.7387 14.3418 11.7489C14.1895 11.8427 14.0369 11.9368 13.8847 12.0306L13.7373 12.272C13.7242 12.2791 13.7108 12.2856 13.698 12.2935C13.5074 12.4111 13.3015 12.5093 13.1315 12.6532C13.0074 12.7585 12.919 12.9171 12.8368 13.0654C12.75 13.2219 12.656 13.138 12.5296 13.0913C12.5503 13.1486 12.5637 13.1858 12.5814 13.2345C12.5021 13.2693 12.4167 13.3021 12.3354 13.344C12.2873 13.3689 12.2454 13.4067 12.2012 13.4398C12.0725 13.536 11.9438 13.6318 11.8164 13.7293C11.7319 13.7937 11.651 13.8633 11.5656 13.926C11.4143 14.0372 11.3105 14.206 11.1219 14.2766C11.0069 14.3195 10.9179 14.4337 10.8105 14.5043C10.6412 14.6151 10.4673 14.7181 10.2927 14.8197C10.2633 14.8368 10.2214 14.831 10.1726 14.8378C10.0851 14.9131 10.0282 15.0761 9.84019 15.0475C9.80745 15.0424 9.7675 15.0792 9.73246 15.0997C9.64273 15.1522 9.54646 15.1273 9.50619 15.039L9.5111 15.0393C9.41318 14.9916 9.3192 14.9309 9.21638 14.9019C9.16399 14.8872 9.09653 14.9299 9.03562 14.9466C9.06444 14.9977 9.09326 15.0489 9.12764 15.1095C9.04708 15.1095 8.95343 15.0976 8.86371 15.113C8.78348 15.1266 8.67771 15.1474 8.63711 15.2057C8.55328 15.3261 8.4963 15.1723 8.43048 15.2074C8.43572 15.1481 8.43244 15.0864 8.44816 15.0304C8.4665 14.966 8.50154 14.9067 8.52184 14.8613C8.43179 14.758 8.31685 14.6588 8.24841 14.5323C8.21631 14.4726 8.27035 14.3597 8.29163 14.2725C8.32405 14.1371 8.33911 14.012 8.21664 13.9076C8.18979 13.8848 8.19405 13.8224 8.1816 13.7685C8.12561 13.7982 8.07223 13.8265 8.00903 13.8602C7.95238 13.7528 7.899 13.6519 7.83679 13.5343H7.68255C7.67895 13.5233 7.67535 13.5124 7.67175 13.5012C7.69828 13.4855 7.72479 13.4698 7.76376 13.4466C7.62852 13.4081 7.52145 13.3774 7.416 13.3474V13.5104C7.3253 13.3938 7.26275 13.2976 7.18514 13.2178C7.1226 13.1537 7.01716 13.1251 6.97459 13.0528C6.90779 12.9389 6.87798 12.8018 6.82494 12.6528C6.78564 12.6453 6.70115 12.6293 6.60062 12.6106C6.60259 12.6273 6.60848 12.6794 6.617 12.7531C6.55085 12.7016 6.49616 12.659 6.46342 12.6337C6.47161 12.5154 6.47914 12.4101 6.48634 12.305C6.47619 12.3153 6.46571 12.3252 6.45556 12.3354C6.38581 12.2706 6.3177 12.2034 6.24501 12.1427C6.21783 12.1199 6.17558 12.1165 6.14709 12.0947C6.11697 12.0718 6.06752 12.0268 6.07374 12.0098C6.12974 11.8529 6.02528 11.8014 5.9254 11.7424C5.89921 11.7268 5.87825 11.7015 5.86613 11.691C5.90543 11.6569 5.97223 11.6183 5.96765 11.6003C5.95062 11.5361 5.91394 11.4751 5.87497 11.4209C5.85467 11.3926 5.81275 11.3817 5.7823 11.3599C5.73842 11.3282 5.69618 11.2937 5.65295 11.2603C5.63101 11.3234 5.60776 11.3858 5.58779 11.4495C5.58321 11.4642 5.58943 11.4823 5.55963 11.5153C5.52689 11.4509 5.49381 11.3865 5.45386 11.3077C5.28882 11.32 5.31928 11.1877 5.32943 11.0683C5.00983 11.0963 5.15816 10.755 5 10.6554C5.0036 10.6397 5.00753 10.6244 5.01114 10.6087C5.09398 10.5896 5.17683 10.5705 5.30781 10.5405C5.22463 10.5303 5.18829 10.5255 5.15031 10.5207C5.14867 10.4051 5.09431 10.2514 5.33302 10.2916C5.30585 10.2036 5.28522 10.1375 5.26492 10.0713C5.37462 9.95983 5.48956 9.85276 5.5914 9.7341C5.62218 9.69796 5.60384 9.6192 5.63167 9.57692C5.68472 9.49542 5.75545 9.42655 5.81734 9.35119C5.83109 9.33448 5.85074 9.30107 5.84518 9.29289C5.73843 9.14081 5.86875 9.0392 5.91459 8.91986C5.91754 8.91202 5.90772 8.89906 5.90412 8.88849C6.09339 8.90554 6.02332 8.70914 6.09896 8.63003C6.25483 8.46705 6.39694 8.2894 6.55413 8.12778C6.62518 8.05481 6.72572 8.01355 6.8007 7.94331C6.88257 7.86625 6.9497 7.77249 7.02403 7.6869C7.05383 7.6528 7.08035 7.60848 7.11801 7.59041C7.19922 7.55085 7.29354 7.53721 7.36852 7.4888C7.41142 7.46118 7.41469 7.36946 7.45694 7.33672C7.55714 7.25966 7.67895 7.21227 7.77588 7.13146C7.85611 7.06463 7.90981 6.96472 7.98153 6.88561C8.00216 6.86277 8.04473 6.86175 8.08042 6.873C8.13511 6.84538 8.19143 6.82083 8.24448 6.7898C8.29 6.7632 8.34436 6.76798 8.36662 6.68103C8.3807 6.62579 8.50972 6.60227 8.60469 6.55589C8.60469 6.55589 8.59683 6.52486 8.58864 6.49179C8.68884 6.47429 8.75106 6.41496 8.77529 6.3138C8.85094 6.30698 8.98323 6.39495 8.94918 6.19685C8.9459 6.17775 9.04021 6.14093 9.10996 6.10001C9.11192 6.06898 9.06935 5.95408 9.21507 6.00659C9.23013 6.01204 9.26157 5.9967 9.2727 5.98135C9.34343 5.88145 9.40336 5.772 9.48163 5.67925C9.54941 5.59878 9.63782 5.53775 9.71445 5.46512C9.78878 5.39454 9.85362 5.31168 9.93352 5.24928C10.0521 5.15688 10.1853 5.08493 10.3026 4.99083C10.3825 4.92672 10.4408 4.83432 10.5171 4.76442C10.6064 4.68225 10.703 4.60757 10.8013 4.53699C10.815 4.5271 10.8556 4.55813 10.8835 4.57007C10.9329 4.48482 10.913 4.34673 11.0819 4.3498C11.1173 4.35048 11.2902 4.27956 11.2876 4.25466C11.2725 4.10771 11.4064 4.13771 11.451 4.06952C11.4389 4.05417 11.4228 4.03371 11.4038 4.0095C11.4218 3.99484 11.433 3.98291 11.4461 3.97507C11.523 3.9304 11.6422 3.95324 11.6664 3.82163C11.6687 3.80901 11.7123 3.80901 11.731 3.79503C11.8023 3.74116 11.8898 3.69615 11.9359 3.62386C11.9726 3.56692 11.9641 3.49532 12.0591 3.55328C12.0722 3.56147 12.1265 3.496 12.1619 3.46497C12.2552 3.38314 12.3489 3.3013 12.4291 3.20174C12.5313 3.21708 12.5948 3.18196 12.5637 3.02784C12.6344 3.05478 12.6832 3.07353 12.6943 3.07763C12.8551 2.95317 13.0008 2.84679 13.139 2.73086C13.2291 2.6555 13.3083 2.56582 13.3925 2.48297C13.4017 2.47376 13.4115 2.46524 13.4216 2.45774C13.4956 2.4042 13.5732 2.35544 13.6436 2.29714C13.7344 2.22178 13.8195 2.13893 13.9108 2.05573C13.9036 2.05232 13.8765 2.04004 13.8388 2.02265C13.8601 2.00697 13.8784 1.98276 13.8915 1.98549C14.1162 2.02981 14.2003 1.87228 14.2838 1.70282C14.3009 1.66804 14.3601 1.65747 14.3965 1.63053C14.4823 1.56711 14.5612 1.49176 14.6519 1.43788C14.7541 1.37685 14.7282 1.17056 14.9345 1.20875C15.0118 1.22307 15.1156 1.06963 15.2099 0.996665C15.2443 0.970069 15.2862 0.954043 15.3245 0.933244C15.3347 0.947224 15.3445 0.961204 15.3546 0.975184V0.768554C15.4024 0.776737 15.4516 0.771282 15.4836 0.793104C15.5871 0.863685 15.6323 0.77776 15.6808 0.717408C15.7577 0.621594 15.8193 0.51146 15.9018 0.421784C15.9316 0.389391 16.005 0.405417 16.0547 0.388028C16.2021 0.336882 16.3478 0.279939 16.4965 0.22436C16.5659 0.348816 16.8138 0.366205 16.9274 0.270733C16.9965 0.212767 17.119 0.163667 17.1963 0.187194C17.4271 0.256412 17.5751 0.109793 17.7592 0C17.7664 0.0334154 17.7638 0.0705815 17.7798 0.0859253C17.8407 0.143891 17.8152 0.378821 17.9979 0.204925C18.0205 0.183444 18.0784 0.201856 18.0971 0.201856C18.1305 0.277552 18.1587 0.340973 18.1826 0.39587C18.2258 0.347111 18.2667 0.300738 18.3224 0.23834C18.3339 0.331767 18.3309 0.419397 18.3476 0.423489C18.4128 0.439856 18.4842 0.430308 18.5428 0.430308C18.5133 0.470202 18.5271 0.487933 18.5742 0.512824C18.6764 0.566698 18.7707 0.635915 18.8686 0.698654C18.8339 0.70411 18.7992 0.709906 18.7648 0.715703C18.754 0.716044 18.7435 0.716385 18.7327 0.716726C18.7206 0.757643 18.7081 0.798559 18.696 0.839476L18.6957 0.846296C18.6813 0.866413 18.6672 0.886531 18.6528 0.906648C18.6675 0.904602 18.6826 0.902556 18.6973 0.90051L18.6944 0.89676L18.6924 0.894373Z"
          fill="currentColor"/>
</svg>
