<svg viewBox="0 0 32 32" fill="none" xmlns="http://www.w3.org/2000/svg">
    <path d="M8.2664 31.8279C8.12883 31.8102 7.9916 31.7925 7.85404 31.7744C7.85136 31.7889 7.84902 31.8033 7.84634 31.8181C7.82358 31.7908 7.80082 31.7633 7.80517 31.7685C7.74492 31.7725 7.71647 31.7761 7.68802 31.7757C7.51263 31.7728 7.33725 31.7659 7.16186 31.7695C7.13809 31.7702 7.11533 31.8224 7.09358 31.8493C6.96438 31.7498 6.8315 31.7685 6.68255 31.7869C6.59452 31.7977 6.49311 31.7081 6.39872 31.6615C6.37161 31.648 6.34952 31.6257 6.32341 31.606C6.29697 31.668 6.27521 31.7636 6.25312 31.7636C6.15572 31.7642 6.05832 31.7373 5.94954 31.7186C5.95121 31.7157 5.93782 31.7396 5.9241 31.7636C5.88059 31.7298 5.83741 31.696 5.78888 31.6585C5.75775 31.694 5.71491 31.7423 5.68512 31.7761C5.61182 31.7186 5.54253 31.6648 5.46622 31.605C5.46856 31.5991 5.4786 31.5725 5.495 31.5308C5.41166 31.5827 5.34405 31.6247 5.27008 31.6707C5.27376 31.6766 5.28882 31.7015 5.31158 31.739C4.93436 31.6897 4.94708 31.3847 4.8952 31.1824C4.8055 31.1627 4.71814 31.169 4.69203 31.1328C4.62509 31.0396 4.52401 30.994 4.43297 30.9628C4.21909 30.8895 4.19365 30.8364 4.29071 30.6436C4.3349 30.5556 4.32519 30.4414 4.33992 30.3389C4.37305 30.3468 4.44602 30.3642 4.52535 30.3832C4.53137 30.3258 4.5374 30.27 4.54543 30.1964C4.4979 30.2036 4.46008 30.2095 4.40987 30.2174C4.39816 30.1606 4.3851 30.0982 4.36301 29.9896C4.40586 30.0444 4.42092 30.0634 4.44267 30.091C4.46476 30.0664 4.50426 30.0237 4.50359 30.023C4.35933 29.8901 4.51899 29.7811 4.56317 29.6993C4.60635 29.6198 4.59798 29.566 4.5625 29.5253C4.45472 29.4005 4.48317 29.2925 4.54342 29.1546C4.58024 29.0702 4.53539 28.952 4.52669 28.8427C4.44736 28.8499 4.39883 28.8541 4.34728 28.8587C4.32318 28.5915 4.29942 28.3245 4.27264 28.029C4.34193 27.9745 4.4333 27.8878 4.32519 27.7503L4.34494 27.8845C4.21976 27.7489 4.20402 27.5946 4.25122 27.4567C4.21574 27.4065 4.16888 27.369 4.17524 27.3438C4.18629 27.2991 4.22913 27.2617 4.26293 27.2157C4.25624 27.1257 4.2539 27.0203 4.2395 26.9166C4.21674 26.7524 4.18193 26.5902 4.16018 26.426C4.15214 26.3643 4.16587 26.3 4.17089 26.2136C4.13507 26.1873 3.98144 26.2527 4.00186 26.1092C4.00688 26.0737 4.11432 26.0521 4.17491 26.0235C4.13574 25.9979 4.04805 25.9683 4.04671 25.9348C4.04035 25.7966 4.03098 25.6531 4.14779 25.5372C4.18896 25.4962 4.21875 25.42 4.21373 25.3632C4.20269 25.2404 4.2713 25.156 4.36301 25.137C4.56451 25.0949 4.66894 24.9058 4.85972 24.853C4.89319 24.8438 4.91093 24.7742 4.93336 24.7311C4.99829 24.606 5.05854 24.4783 5.12883 24.3562C5.14155 24.3338 5.19945 24.3411 5.2269 24.3217C5.27008 24.2908 5.30455 24.2488 5.34271 24.2114C5.32664 24.2005 5.31058 24.1897 5.29418 24.1785C5.2838 24.2114 5.27342 24.2442 5.26305 24.2767C5.25267 24.2741 5.2423 24.2718 5.23225 24.2692C5.2443 24.192 5.25602 24.1145 5.26773 24.0387C5.32765 24.0442 5.38153 24.0492 5.43509 24.0544C5.44011 24.0403 5.44513 24.0262 5.45015 24.0121C5.47191 24.063 5.49366 24.1139 5.51575 24.1644C5.52479 24.1621 5.53383 24.1595 5.54286 24.1572C5.5268 24.0636 5.5104 23.9704 5.49065 23.8554C5.52747 23.8768 5.54956 23.8893 5.54956 23.8896C5.65667 23.8183 5.75775 23.7507 5.86921 23.6765C5.72696 23.5307 5.8846 23.4316 5.96326 23.4227C6.13564 23.4036 6.10752 23.2874 6.12995 23.1978C6.24107 23.1686 6.34182 23.142 6.44357 23.115C6.44558 23.0861 6.43018 23.0228 6.45528 22.9972C6.56808 22.8819 6.74314 22.7982 6.7987 22.6642C6.86095 22.5138 6.98714 22.4541 7.07282 22.3451C7.09257 22.3198 7.08354 22.2725 7.09123 22.2052C7.37339 22.1507 7.59832 21.977 7.73655 21.6726C7.73589 21.6726 7.78007 21.69 7.79145 21.6782C7.89989 21.5626 7.99997 21.4395 8.10842 21.3239C8.15226 21.277 8.20649 21.2166 8.26272 21.2087C8.3879 21.1913 8.42673 21.1351 8.38957 20.9788C8.46354 21.0284 8.50739 21.058 8.52982 21.0727C8.58973 20.9913 8.65968 20.8967 8.72964 20.8019C8.73801 20.7936 8.74637 20.7858 8.75508 20.7776C8.76646 20.7102 8.7775 20.6429 8.78888 20.5756C8.80328 20.5901 8.818 20.6045 8.83239 20.619C8.90335 20.5815 9.00276 20.5615 9.03925 20.5037C9.142 20.3415 9.29697 20.2427 9.43688 20.1228C9.49713 20.0713 9.53361 19.9882 9.56809 19.9137C9.5942 19.8566 9.59989 19.7902 9.61461 19.7282C9.63972 19.7282 9.66448 19.7285 9.68959 19.7288C9.7582 19.7085 9.82615 19.6861 9.89577 19.6687C9.96539 19.6517 10.0872 19.6865 10.0122 19.5312C10.1619 19.5693 10.2556 19.5088 10.3065 19.3752C10.3138 19.3555 10.3306 19.322 10.3396 19.323C10.5203 19.3434 10.5056 19.2245 10.4752 19.0758C10.5307 19.1266 10.5555 19.1496 10.5685 19.1618C10.6442 19.0948 10.7202 19.0278 10.7958 18.9608C10.9896 18.7343 11.1272 18.4457 11.5034 18.3757C11.4488 18.333 11.413 18.3048 11.3641 18.2664C11.4174 18.2263 11.4803 18.1961 11.5164 18.1469C11.5509 18.0999 11.7002 18.1167 11.6135 17.9968C11.6366 17.9896 11.6594 17.982 11.6818 17.9748C11.6644 17.9646 11.6473 17.9541 11.6299 17.944C11.7698 17.9945 11.8093 17.8858 11.8665 17.7946C11.9127 17.8031 11.9599 17.8116 12.0068 17.8202C12.0021 17.8097 11.9971 17.7992 11.9924 17.7886C12.055 17.7552 12.1142 17.7033 12.1808 17.6918C12.3211 17.6678 12.3602 17.6035 12.2906 17.4485C12.3425 17.4879 12.3689 17.5082 12.4094 17.5391C12.4402 17.39 12.5032 17.2751 12.6698 17.2429C12.7057 17.236 12.7341 17.1651 12.7559 17.1188C12.7954 17.0358 12.9232 16.9878 12.8707 16.8575C12.8834 16.8706 12.8958 16.8837 12.9085 16.8969C12.9631 16.7905 13.1769 16.888 13.1712 16.6989C13.1706 16.6752 13.2027 16.6398 13.2281 16.628C13.4122 16.5416 13.507 16.3853 13.5006 16.1909C13.4989 16.1397 13.5304 16.0875 13.5682 16.0369C13.5762 16.1042 13.5839 16.1716 13.5963 16.2773C13.6653 16.2257 13.7319 16.1755 13.7955 16.1279C13.7841 16.0645 13.7741 16.0097 13.76 15.9319C13.8316 15.9526 13.8761 15.9654 13.9213 15.9782C13.9752 15.8931 14.0288 15.8081 14.0803 15.7267C14.1211 15.7427 14.1864 15.7933 14.241 15.7838C14.2932 15.7746 14.3344 15.7037 14.3792 15.659C14.3862 15.6518 14.3852 15.6357 14.3929 15.6298C14.5228 15.5296 14.5519 15.4883 14.5516 15.3927C14.5877 15.4243 14.6199 15.4518 14.6503 15.4784C14.6661 15.4705 14.6771 15.4679 14.6831 15.4614C14.7153 15.4262 14.744 15.3878 14.7782 15.3546C14.813 15.3208 14.8652 15.2992 14.8876 15.2601C14.965 15.1255 14.9613 15.1235 15.058 15.1301C15.1122 15.0174 15.1457 14.9048 15.2136 14.8181C15.2789 14.7347 15.3626 14.6339 15.5289 14.7347C15.4941 14.6658 15.4761 14.63 15.4617 14.6014C15.4968 14.5561 15.5296 14.5134 15.5634 14.4694C15.6002 14.4845 15.6481 14.5042 15.6919 14.5223C15.7304 14.4602 15.7693 14.3982 15.8081 14.3361C15.8175 14.341 15.8268 14.346 15.8362 14.3512V14.1115C16.023 14.2806 15.9831 14.0528 16.0544 14.0196C16.1405 13.9792 16.2138 13.9126 16.2931 13.8567C16.2412 13.7845 16.2117 13.7438 16.1508 13.6597C16.2877 13.6719 16.3794 13.6801 16.4711 13.688L16.4792 13.667C16.4092 13.6443 16.3393 13.6216 16.2686 13.5987C16.267 13.5888 16.2613 13.5776 16.2643 13.5694C16.347 13.3301 16.3473 13.332 16.5983 13.3232C16.6526 13.3212 16.7061 13.3005 16.7597 13.2884C16.759 13.2736 16.758 13.2585 16.7573 13.2437C16.7841 13.2595 16.8112 13.2752 16.8259 13.2841C16.8855 13.1941 16.9438 13.1058 17.0023 13.0178C17.0181 13.0231 17.0341 13.028 17.0499 13.0333C17.0338 13.0076 17.0181 12.9824 16.9833 12.9265C17.0596 12.9574 17.1017 12.9745 17.1285 12.9853C17.1881 12.9239 17.2537 12.8734 17.2945 12.808C17.329 12.7532 17.5134 12.7926 17.403 12.6478C17.4448 12.6304 17.4863 12.613 17.5503 12.5864C17.5171 12.544 17.4816 12.5017 17.4512 12.456C17.4452 12.4468 17.4562 12.4232 17.4646 12.4094C17.4746 12.393 17.4954 12.3654 17.5027 12.368C17.5951 12.3992 17.6061 12.367 17.6008 12.28C17.5958 12.1996 17.6205 12.1159 17.6436 12.0371C17.649 12.019 17.7015 12.0144 17.7313 12.0039C17.7387 11.9343 17.7464 11.8594 17.7538 11.7862C17.662 11.7659 17.5807 11.7478 17.499 11.7297C17.4977 11.7222 17.4967 11.715 17.4954 11.7074C17.6466 11.6999 17.7976 11.6923 17.9392 11.6851C17.9054 11.6408 17.8632 11.5856 17.8388 11.5531C17.9897 11.4014 18.144 11.2832 18.2438 11.1305C18.2963 11.0504 18.2531 10.9102 18.2531 10.7969C18.2377 10.7933 18.2224 10.7894 18.2073 10.7857C18.2458 10.7572 18.2823 10.7253 18.3231 10.7007C18.3623 10.6771 18.4061 10.661 18.4714 10.6308C18.4081 10.6157 18.3726 10.6071 18.3362 10.5986C18.4356 10.4633 18.4041 10.2975 18.2682 10.1983C18.2381 10.1763 18.225 10.1314 18.2039 10.0969C18.2297 10.0995 18.2555 10.1018 18.2726 10.1034C18.2836 9.99936 18.2946 9.89528 18.306 9.7889C18.3305 9.78331 18.3603 9.77675 18.3897 9.77018C18.3897 9.75935 18.3897 9.74851 18.3897 9.73767C18.3415 9.73012 18.2936 9.72257 18.2384 9.71403V9.53148C18.2414 9.53049 18.2756 9.51965 18.2946 9.51374C18.2582 9.48387 18.213 9.44676 18.1353 9.38306C18.2264 9.3673 18.2632 9.36074 18.299 9.3545C18.2893 9.31641 18.2625 9.27176 18.2746 9.24188C18.2896 9.20445 18.3365 9.17916 18.3917 9.12794C18.3134 9.14272 18.2367 9.16373 18.2337 9.15651C18.2066 9.0892 18.1621 9.0081 18.1805 8.94834C18.2327 8.77793 18.1581 8.76906 18.0205 8.81339C17.9964 8.751 17.975 8.69519 17.9476 8.62426C17.9255 8.66334 17.9141 8.68402 17.9027 8.70438C17.892 8.70307 17.8813 8.70175 17.8706 8.70044C17.8826 8.58618 17.8943 8.47158 17.9077 8.3432C17.8816 8.32186 17.8301 8.27983 17.7628 8.225C17.7628 8.225 17.7343 8.24371 17.7096 8.26013C17.6758 8.203 17.6456 8.15211 17.6346 8.13339C17.4736 8.11205 17.3421 8.09465 17.254 8.08283C17.1744 7.9702 17.1202 7.88155 17.0519 7.80439C17.0318 7.78173 16.9725 7.79224 16.9314 7.78764C16.9374 7.808 16.9431 7.82869 16.9558 7.87301C16.9069 7.83493 16.8758 7.81063 16.8239 7.76991C16.8303 7.82212 16.8336 7.85101 16.8333 7.84642C16.7372 7.82278 16.6064 7.75021 16.5542 7.78666C16.4604 7.852 16.278 7.86119 16.2991 8.04408C16.1488 8.06674 16.1471 7.97874 16.1646 7.89009C15.8944 7.76368 15.6263 7.75941 15.3659 7.91242C15.3459 7.80373 15.3472 7.80636 15.2331 7.86283C15.215 7.8717 15.1785 7.84576 15.1507 7.83558C15.134 7.89534 15.1179 7.95346 15.0985 8.02372C14.9646 7.93573 14.8368 7.9377 14.7548 8.05393C14.6938 8.14061 14.6768 8.25718 14.6423 8.35436C14.5626 8.32941 14.5 8.30938 14.4374 8.29001L14.4271 8.28082C14.4164 8.29231 14.4057 8.3038 14.3953 8.31496C14.3538 8.35633 14.3163 8.40362 14.2691 8.43711C14.238 8.45943 14.1911 8.47552 14.154 8.47191C14.0053 8.45746 13.9752 8.48505 13.9946 8.62853C13.9615 8.63346 13.9113 8.62722 13.8989 8.64561C13.8648 8.69584 13.8467 8.75659 13.8045 8.8541C13.7503 8.88136 13.6472 8.93323 13.5086 9.00284C13.5732 9.05111 13.6469 9.1066 13.7319 9.1703C13.6787 9.16373 13.6315 9.15782 13.5759 9.15093V9.46121C13.4825 9.3985 13.4082 9.31674 13.3245 9.30525C13.2747 9.29835 13.2094 9.40309 13.1445 9.46384C13.1769 9.52228 13.2124 9.58697 13.2482 9.65165C13.2415 9.65625 13.2348 9.66051 13.2281 9.66511C13.1913 9.62571 13.1545 9.58598 13.1321 9.56201C13.0538 9.64935 12.9651 9.74818 12.8667 9.85785C12.9028 9.87394 12.9523 9.89594 13.0012 9.91761C12.943 10.0214 12.8924 10.1392 12.8168 10.2387C12.7375 10.3431 12.9236 10.5152 12.6645 10.5687C12.7498 10.6124 12.7907 10.6334 12.8717 10.6748C12.7602 10.6748 12.6916 10.6748 12.6233 10.6748L12.6237 10.6758C12.626 10.7135 12.6283 10.7513 12.6314 10.8002C12.4309 10.8028 12.5119 10.9269 12.5574 11.0363C12.3415 11.0993 12.0905 11.3584 12.0623 11.516C11.982 11.4628 11.889 11.4007 11.7959 11.339C11.7882 11.3508 11.7805 11.363 11.7725 11.3748C11.7799 11.403 11.7872 11.4313 11.7996 11.4799C11.6778 11.4444 11.5757 11.4145 11.4649 11.3823C11.3775 11.4835 11.0853 11.5524 10.9826 11.4831C10.9685 11.5711 10.9143 11.6059 10.854 11.535C10.7935 11.4641 10.7617 11.3787 10.6382 11.4007C10.6161 11.4047 10.5789 11.3269 10.5207 11.2494C10.4286 11.2806 10.3088 11.3216 10.1793 11.3656C10.1823 11.3321 10.1856 11.2983 10.1906 11.2435C10.0243 11.3058 9.89376 11.5275 9.69829 11.3761C9.56139 11.2704 9.29798 11.3922 9.27421 11.1453C9.19689 11.1683 9.11589 11.1689 9.07539 11.209C8.98235 11.3019 8.91038 11.4139 8.74805 11.3643C8.73834 11.3613 8.70521 11.4109 8.69316 11.4398C8.64429 11.5577 8.574 11.5935 8.45886 11.4841C8.44915 11.5393 8.44279 11.5748 8.4361 11.6112C8.43007 11.6112 8.41836 11.6151 8.40932 11.6119C8.27979 11.5639 8.15327 11.5005 8.01938 11.474C7.9665 11.4634 7.89688 11.5337 7.8276 11.5708C7.82525 11.5547 7.81856 11.512 7.80417 11.4172C7.73823 11.5291 7.69539 11.6017 7.64618 11.6854C7.63246 11.67 7.61472 11.6499 7.59631 11.6293C7.54845 11.6969 7.50125 11.7632 7.44937 11.8364C7.40787 11.8181 7.34996 11.7928 7.28737 11.7655C7.29139 11.7481 7.29842 11.7176 7.31147 11.6614C7.24185 11.714 7.19566 11.7488 7.13709 11.7931C7.11366 11.7507 7.09458 11.7163 7.07383 11.6792C7.04538 11.6979 7.01492 11.7176 6.9781 11.7419C6.86062 11.5452 6.66214 11.5403 6.46332 11.5078C6.50415 11.495 6.54499 11.4825 6.59854 11.4657C6.57712 11.4401 6.56206 11.4053 6.54532 11.4047C6.34115 11.3955 6.29328 11.2609 6.26115 11.0954C6.24977 11.0376 6.17245 10.9956 6.14066 10.9381C6.06401 10.8005 5.96025 10.6636 5.93648 10.5155C5.91573 10.3881 5.85548 10.3494 5.77984 10.3139C5.79356 10.1941 5.84143 10.066 5.80996 9.96029C5.78352 9.87164 5.6647 9.80958 5.60278 9.75081C5.59943 9.68284 5.62119 9.59977 5.58939 9.56661C5.48563 9.45826 5.57232 9.42378 5.67675 9.35713C5.5924 9.31346 5.52479 9.27865 5.44312 9.23662V8.87906C5.45484 8.8807 5.50069 8.88727 5.54621 8.8935C5.49232 8.78252 5.49701 8.78614 5.64428 8.59373C5.67608 8.55203 5.66169 8.47618 5.66939 8.40788C5.42337 8.44729 5.61115 8.25094 5.55692 8.17476C5.52144 8.12518 5.5181 8.05393 5.50002 7.99122C5.51743 7.97513 5.58872 7.93244 5.58236 7.91045C5.53717 7.74759 5.68679 7.5693 5.54822 7.40217C5.60311 7.32402 5.8759 7.33125 5.69449 7.106C5.73332 7.09812 5.77884 7.08926 5.82 7.08072C5.71959 6.85121 5.83005 6.73071 5.97899 6.66964C5.9964 6.57146 6.02217 6.50054 6.01815 6.43159C6.01347 6.35541 5.98167 6.28121 5.96527 6.21915C6.01045 6.20437 6.05865 6.19846 6.09447 6.17482C6.15237 6.13673 6.20961 6.09339 6.25312 6.04086C6.29429 5.99095 6.32374 5.92889 6.34684 5.86815C6.38767 5.7598 6.42449 5.64914 6.45328 5.53718C6.466 5.48826 6.45528 5.43375 6.45528 5.37498C6.60256 5.39074 6.68188 5.35199 6.67017 5.19176C6.66548 5.12708 6.69929 5.03317 6.74916 4.9964C6.93091 4.86145 6.99618 4.66247 7.08856 4.4763C7.1063 4.44019 7.14579 4.39455 7.1806 4.38962C7.36068 4.36434 7.43431 4.2399 7.50795 4.09871C7.57355 3.97328 7.66191 3.85902 7.74693 3.74443C7.75798 3.72932 7.80818 3.74246 7.84065 3.74246C7.85203 3.51787 7.87412 3.49718 8.05252 3.48372C8.31594 3.25782 8.53216 3.07231 8.75742 2.87891C8.72361 2.86315 8.68345 2.84477 8.68345 2.84477C8.80026 2.7525 8.9308 2.64973 9.04427 2.56009C9.13096 2.53185 9.21765 2.5243 9.27656 2.4803C9.40006 2.38804 9.51085 2.2787 9.62131 2.17101C9.63202 2.1605 9.60424 2.11158 9.5865 2.0574C9.63034 2.06823 9.68323 2.08137 9.75686 2.09975C9.78565 2.02227 9.80172 1.9323 9.85025 1.86433C9.88104 1.82132 9.97041 1.77732 10.0146 1.79144C10.2104 1.8535 10.349 1.70837 10.517 1.67685C10.5377 1.67291 10.5448 1.61972 10.5662 1.5964C10.6405 1.51629 10.7028 1.44077 10.844 1.44373C10.9247 1.44537 11.008 1.3311 11.0994 1.26182C11.1827 1.25164 11.2885 1.23917 11.3969 1.22603C11.3959 1.22078 11.3906 1.1955 11.3842 1.16299C11.4023 1.16628 11.418 1.16463 11.4267 1.17153C11.5365 1.2592 11.6199 1.1735 11.7109 1.13246C11.8863 1.053 12.0613 0.972553 12.2394 0.89966C12.2816 0.882587 12.3428 0.877661 12.3833 0.894735C12.5791 0.978134 12.4961 0.82644 12.5042 0.726624C12.6216 0.761756 12.7261 0.793934 12.8312 0.823485C12.8513 0.829067 12.8797 0.83432 12.8951 0.825127C13.0049 0.758145 13.1053 0.651105 13.2231 0.628777C13.3222 0.610062 13.3972 0.577884 13.4745 0.525677C13.509 0.502365 13.5555 0.478724 13.594 0.481679C13.6579 0.486933 13.7198 0.514185 13.8119 0.540125C13.9521 0.498425 14.1335 0.444248 14.316 0.393684C14.32 0.392699 14.3367 0.435383 14.3477 0.458367C14.3946 0.469859 14.3953 0.310941 14.4763 0.423234C14.4813 0.43013 14.5429 0.399265 14.577 0.383833C14.6075 0.370043 14.6463 0.331955 14.6647 0.340492C14.8033 0.403862 14.7839 0.295181 14.8006 0.230825H15.3248C15.3248 0.230825 15.3057 0.247899 15.2672 0.282047C15.5236 0.252496 15.7391 0.0656686 15.9985 0.179932C16.0012 0.150053 16.0039 0.1228 16.0066 0.0958762C16.0976 0.151038 16.195 -0.00295507 16.2934 0.104742C16.3065 0.119189 16.3958 0.0666536 16.4497 0.0453113L16.4383 0C16.527 0.0597585 16.6157 0.119845 16.7051 0.17829C16.7225 0.189454 16.7466 0.203244 16.764 0.199633C16.8758 0.175335 16.9869 0.147098 17.0977 0.118532C17.1128 0.114592 17.1329 0.0922645 17.1382 0.0962046C17.2979 0.205215 17.4853 0.132322 17.6483 0.173365C17.7752 0.205215 17.8194 0.191424 17.8394 0.0571317C17.8528 0.0643553 17.8662 0.0715788 17.8793 0.0788024C17.882 0.1228 17.8843 0.16647 17.887 0.21408C18.1012 0.23181 18.3335 0.251183 18.5658 0.270555C18.5818 0.463292 18.857 0.304374 18.8774 0.491201C18.9313 0.473143 18.9855 0.455084 19.0344 0.438667C19.1328 0.500723 19.2342 0.587734 19.3523 0.628449C19.4092 0.648149 19.4973 0.579854 19.5485 0.560154C19.6258 0.648478 19.6824 0.736802 19.761 0.797217C19.8437 0.860588 19.9474 0.89769 20.0445 0.947599C20.082 0.922973 20.1232 0.896377 20.1325 0.890138C20.2611 0.92757 20.3628 0.957449 20.4646 0.987C20.4659 0.976164 20.4669 0.965329 20.4683 0.954494C20.5315 1.00112 20.5948 1.04741 20.658 1.09404C20.6677 1.0832 20.6774 1.07237 20.6872 1.06153V1.16332C20.7608 1.14559 20.8257 1.12983 20.8967 1.11276C20.9071 1.15347 20.9178 1.19386 20.9261 1.22603C20.9419 1.23884 20.9499 1.24541 20.9499 1.24541C21.1159 1.06318 21.144 1.316 21.2441 1.34424C21.3582 1.37674 21.4486 1.48378 21.5554 1.54912C21.6474 1.60527 21.7512 1.6427 21.8429 1.6995C21.8998 1.73464 21.944 1.79013 22.0032 1.84496C22.0943 1.84201 22.1944 1.84726 22.271 1.96743C22.4002 2.17002 22.593 2.29151 22.8316 2.35619C22.8966 2.37392 22.9689 2.46323 22.9853 2.53185C23.0064 2.61887 23.0495 2.64415 23.1182 2.68979C23.2557 2.78172 23.3658 2.91208 23.4937 3.01944C23.5724 3.08511 23.6681 3.13108 23.7457 3.19773C23.8117 3.25421 23.8625 3.3271 23.8997 3.41017C24.1782 3.47518 24.1035 3.83406 24.3342 3.93421C24.3131 4.05373 24.2833 4.16865 24.4674 4.18309C24.5554 4.18999 24.6896 4.49994 24.6491 4.58137C24.6454 4.5886 24.6341 4.59254 24.6628 4.57251C24.6993 4.63424 24.7455 4.68316 24.7566 4.73865C24.7726 4.81942 24.7589 4.90545 24.7663 4.98852C24.7693 5.02135 24.794 5.05255 24.8031 5.07192C24.8717 5.07553 24.9453 5.07947 25.0233 5.08374C24.9801 5.13627 24.949 5.17436 24.9176 5.21245C24.9838 5.24857 25.0498 5.28501 25.1355 5.33197C25.1385 5.36217 25.1445 5.42062 25.1529 5.49942C25.178 5.47151 25.1934 5.45411 25.2088 5.43704C25.2208 5.43835 25.2332 5.43933 25.2452 5.44065C25.2372 5.50697 25.2292 5.57297 25.2211 5.63929C25.2416 5.7089 25.3691 5.74141 25.2921 5.88227C25.2663 5.92922 25.3175 6.02969 25.3567 6.09175C25.3758 6.12196 25.4477 6.12032 25.4923 6.13247C25.4477 6.32652 25.6271 6.43848 25.6656 6.62859C25.6492 6.64665 25.6081 6.69262 25.5572 6.74975C25.5933 6.7665 25.6355 6.77339 25.6405 6.79047C25.6733 6.90539 25.6937 7.02359 25.7286 7.13785C25.7399 7.17496 25.7962 7.19958 25.8065 7.23668C25.8434 7.36934 25.8685 7.50527 25.8996 7.63956C25.9056 7.66583 25.9123 7.69932 25.9314 7.7141C26.0084 7.77418 26.0305 7.82705 25.9595 7.91471C25.8668 8.02898 25.8634 8.13963 25.9943 8.18264C26.0074 8.26768 26.0177 8.32777 26.0261 8.38818C26.0439 8.51624 26.0626 8.64429 26.0777 8.77267C26.0877 8.85837 26.0971 8.94473 26.0954 9.03042C26.0947 9.05899 26.0589 9.08657 26.0318 9.12499C26.0559 9.14337 26.0977 9.17489 26.1406 9.20773C25.9301 9.33184 26.172 9.41064 26.1466 9.52786C26.1302 9.53804 26.0947 9.56004 26.0676 9.57711C26.1754 9.7357 26.2119 9.92023 26.1312 10.0769C26.0549 10.2253 26.1178 10.3438 26.1396 10.4705C26.1483 10.5218 26.163 10.5342 26.1218 10.5822C26.0887 10.6206 26.0961 10.7155 26.1185 10.7729C26.1884 10.9502 26.0917 11.0882 26.0331 11.2405H26.1021C26.0472 11.3718 25.9936 11.5009 25.9334 11.645C25.9458 11.6559 25.9736 11.6808 25.9873 11.6933C25.8494 11.9648 25.8333 12.2525 25.8039 12.5306C25.7426 12.632 25.6797 12.7364 25.6305 12.8179C25.668 12.8855 25.7095 12.9311 25.7145 12.9804C25.7178 13.0122 25.6676 13.049 25.6348 13.093C25.6553 13.0953 25.6958 13.0999 25.743 13.1055C25.679 13.2014 25.6151 13.2969 25.5498 13.3944C25.5592 13.398 25.5776 13.4053 25.5629 13.3997C25.5351 13.4654 25.5123 13.5304 25.4809 13.5911C25.4518 13.6476 25.4133 13.6998 25.3788 13.7536L25.3329 13.7389C25.347 13.7573 25.3738 13.7907 25.3731 13.7914C25.2432 13.8961 25.2613 14.0449 25.26 14.1821C25.2576 14.4418 25.0672 14.6382 25.0267 14.8835C25.0196 14.9258 25.0183 14.9688 25.0116 15.0115C25.0046 15.0555 25.0069 15.1071 24.9835 15.1412C24.9199 15.2335 24.862 15.3497 24.7699 15.3977C24.6471 15.4614 24.6906 15.5362 24.701 15.6176C24.4423 15.7578 24.4071 15.8301 24.5403 15.9933C24.4885 16.014 24.4403 16.052 24.3971 16.0474C24.2237 16.0291 24.2036 16.141 24.1712 16.2642C24.1517 16.3374 24.0935 16.4004 24.055 16.469C24.0343 16.5061 24.0215 16.5478 23.9981 16.583C23.9245 16.6926 23.8612 16.8135 23.7682 16.9051C23.6728 16.999 23.5473 17.0633 23.4097 17.1582C23.3612 17.3007 23.2966 17.4915 23.232 17.6806C23.1332 17.767 22.9736 17.8428 22.9244 17.9627C22.8266 18.2001 22.6278 18.3334 22.4658 18.5058C22.4457 18.5274 22.444 18.5649 22.426 18.5898C22.4052 18.6184 22.3754 18.6634 22.3507 18.663C22.2228 18.6601 22.1626 18.7346 22.1053 18.8305C22.0775 18.8768 22.0243 18.9086 21.9828 18.947C21.9721 18.9375 21.9614 18.9277 21.9507 18.9182C21.957 18.9963 21.9634 19.0741 21.9698 19.1526C21.8392 19.1572 21.7435 19.1496 21.6424 19.2905C21.5554 19.4116 21.5092 19.6431 21.2716 19.6287C21.2612 19.628 21.2421 19.633 21.2414 19.6375C21.215 19.8086 21.0336 19.8648 20.9596 20.0033C20.9258 20.0664 20.8471 20.1074 20.7862 20.155C20.7605 20.1754 20.7283 20.1879 20.7082 20.2315H20.7973C20.6781 20.3556 20.5653 20.4748 20.4492 20.5914C20.4398 20.6009 20.4097 20.5947 20.3906 20.5894C20.2801 20.5592 20.1985 20.6029 20.1205 20.6768C20.082 20.7135 20.0047 20.7204 19.9813 20.7611C19.9009 20.8997 19.681 20.9476 19.7135 21.1598C19.7178 21.1877 19.7004 21.2343 19.6777 21.2477C19.5378 21.3318 19.3938 21.409 19.2302 21.5002C19.2302 21.4993 19.2258 21.5344 19.2412 21.557C19.3025 21.6473 19.2824 21.6562 19.1746 21.6739C19.0879 21.6881 19.0072 21.7728 18.9373 21.8397C18.8322 21.9409 18.7368 22.0522 18.6427 22.1638C18.6223 22.1881 18.6274 22.2318 18.6176 22.2659C18.614 22.2791 18.6056 22.2961 18.5945 22.3007C18.4978 22.3428 18.3987 22.3802 18.303 22.4245C18.2659 22.4416 18.2257 22.4666 18.2039 22.4991C18.1655 22.5572 18.1524 22.6442 18.0493 22.5828C18.0406 22.6494 17.8662 22.589 17.9405 22.7194C17.9429 22.7233 17.9445 22.7276 17.9466 22.7319C17.7002 22.7378 17.7999 23.1265 17.5017 23.1111C17.4277 23.1072 17.3424 23.294 17.2641 23.3945C17.2463 23.4174 17.2313 23.471 17.2236 23.4693C17.0442 23.4319 17.0458 23.5859 16.9936 23.6824H16.839C16.8577 23.7405 16.8731 23.7885 16.8748 23.7944C16.8099 23.8876 16.7654 23.952 16.6864 24.0662C16.7744 24.0479 16.8223 24.0278 16.8691 24.0301C16.9802 24.0354 17.0944 24.038 17.2012 24.0656C17.3273 24.0978 17.4237 24.0593 17.5345 24.0078C17.6165 23.9697 17.7601 23.9402 17.8127 23.9825C17.9496 24.0935 18.0737 23.9477 18.1999 24.0006C18.2438 24.019 18.3054 23.9963 18.382 23.9907C18.3803 23.9953 18.391 23.9681 18.4011 23.9421C18.543 23.9556 18.6812 24.0968 18.8292 23.9599C18.8894 24.0712 19.0233 24.1033 19.1659 24.0475C19.1954 24.036 19.272 23.9779 19.3212 24.0669C19.3403 24.1014 19.4173 24.1047 19.4829 24.1276C19.4537 24.0961 19.4357 24.0768 19.4176 24.0571C19.5756 24.0321 19.7386 23.9605 19.8741 23.9943C20.1439 24.0616 20.3856 23.9014 20.647 23.9517C20.7313 23.9677 20.8264 23.9444 20.9144 23.927C21.0694 23.8968 21.218 23.8696 21.3763 23.9306C21.4439 23.9566 21.5346 23.9224 21.615 23.9205C21.6655 23.9191 21.7161 23.9283 21.7666 23.9306C21.8985 23.9369 22.0314 23.9365 22.1622 23.9507C22.2084 23.9556 22.2509 23.9953 22.3339 24.0403C22.3925 24.0055 22.4832 23.9372 22.5853 23.8955C22.6529 23.8679 22.7369 23.8784 22.8152 23.8715C22.8069 23.8991 22.7998 23.9237 22.7955 23.9379C22.8517 23.9507 22.907 23.9779 22.9588 23.9723C23.0459 23.9631 23.1238 23.8834 23.2199 23.9438C23.2601 23.8403 23.3635 23.9116 23.4107 23.8817C23.5071 23.8206 23.5697 23.8797 23.6477 23.8843C23.7518 23.8906 23.8528 23.9267 23.9566 23.9205C24.0968 23.9122 24.2368 23.9001 24.3773 23.8896C24.368 23.8751 24.3566 23.8574 24.3311 23.8177C24.6143 23.8761 24.8727 23.9474 25.1355 23.9707C25.1987 23.9763 25.3005 23.9352 25.3858 23.9379C25.4728 23.9405 25.5592 23.9602 25.663 23.9746C25.6342 24.0075 25.6124 24.0324 25.6027 24.0436C25.6643 24.1326 25.7229 24.2173 25.7804 24.301C25.7855 24.2925 25.8029 24.2623 25.828 24.2193C25.8514 24.2541 25.8715 24.2836 25.9063 24.3348C25.9354 24.2672 25.9568 24.2176 25.9977 24.1227C26.0137 24.2951 26.091 24.3197 26.2467 24.2432C26.1737 24.3072 26.1399 24.3368 26.0854 24.3844C26.2213 24.4048 26.3247 24.4202 26.408 24.433C26.4555 24.5128 26.4823 24.6208 26.5426 24.6438C26.6229 24.6747 26.7297 24.6392 26.8729 24.629C26.9174 24.6901 27.0005 24.7942 27.0728 24.9052C27.1236 24.983 27.1608 25.0697 27.2033 25.1527C27.2097 25.1649 27.2117 25.1888 27.218 25.1895C27.4406 25.2168 27.3522 25.3658 27.3429 25.4952C27.4262 25.5126 27.5156 25.5313 27.6146 25.5523C27.5939 25.5848 27.5748 25.6141 27.5675 25.6255C27.6136 25.6672 27.6511 25.7007 27.6946 25.7398C27.7566 25.6377 27.8369 25.6672 27.9169 25.746C27.9253 25.7625 27.934 25.7789 27.9423 25.7953C28.0016 25.8508 28.0608 25.9063 28.1442 25.9844C28.1462 26.0025 28.1532 26.0629 28.1663 26.1755C28.269 26.0173 28.3152 25.8367 28.5204 25.9706C28.5304 25.9276 28.5398 25.8879 28.5498 25.8449C28.6054 25.944 28.661 26.0429 28.7359 26.1765H28.2355C28.2784 26.2796 28.3075 26.3571 28.3433 26.4313C28.3537 26.4526 28.3878 26.4815 28.4042 26.4779C28.5987 26.4362 28.5388 26.6034 28.5903 26.6822C28.6221 26.7304 28.5883 26.8427 28.7202 26.8227C28.7587 26.8168 28.8109 26.8975 28.8889 26.9678H28.5605C28.6211 27.0243 28.5903 27.2236 28.7242 27.0798C28.7453 27.1491 28.7831 27.2298 28.7925 27.3136C28.8092 27.4616 28.7563 27.5887 28.6382 27.6895C28.594 27.7273 28.5612 27.7782 28.5234 27.8231C28.6007 27.8632 28.6774 27.9049 28.7563 27.9423C28.7741 27.9505 28.7992 27.9436 28.8223 27.9436C28.8236 28.0507 28.668 28.1288 28.7754 28.252C28.7871 28.2654 28.744 28.3383 28.7128 28.3715C28.6017 28.4894 28.5947 28.557 28.7001 28.6883C28.7142 28.6545 28.7259 28.6256 28.743 28.5839C28.7687 28.6138 28.7925 28.642 28.823 28.6778C28.7624 28.7199 28.7025 28.7612 28.6345 28.8082C28.6499 28.8367 28.6787 28.8899 28.7105 28.9487C28.6519 28.9737 28.6074 28.9927 28.5632 29.0117C28.5518 29.0259 28.5401 29.04 28.5287 29.0538C28.5756 29.0676 28.6221 29.081 28.669 29.0948C28.661 29.1083 28.6533 29.1217 28.6452 29.1349C28.5492 29.1401 28.4531 29.1451 28.3319 29.1516C28.3838 29.2137 28.4193 29.2557 28.4501 29.2925C28.3811 29.3227 28.3025 29.3572 28.2027 29.4008C28.2626 29.4222 28.3028 29.4366 28.3436 29.4511C28.3206 29.4882 28.2971 29.5249 28.2971 29.5256H28.0702C28.1104 29.5995 28.1308 29.6369 28.1509 29.674C28.0327 29.6773 28.0866 29.7758 28.0565 29.8277C28.0304 29.8727 27.9638 29.895 27.8955 29.9403C27.8951 29.936 27.8978 29.9685 27.8998 29.9912C27.8854 30.0066 27.8814 30.0139 27.8777 30.0139C27.8151 30.0139 27.7515 30.0053 27.6906 30.0145C27.6009 30.028 27.4921 30.029 27.4289 30.0798C27.3218 30.1662 27.4051 30.2361 27.4858 30.2703C27.3462 30.4102 27.2103 30.5468 27.0741 30.683C27.0841 30.6906 27.0942 30.6981 27.1042 30.706C27.0497 30.7264 26.9951 30.7467 26.9446 30.7654C26.9894 30.8429 27.0299 30.9125 27.0691 30.9802C26.9961 31.0288 26.9218 31.078 26.8569 31.1214C26.8505 31.0688 26.8398 30.9825 26.8267 30.8751C26.7498 30.9447 26.6821 31.0202 26.6011 31.0764C26.4468 31.1834 26.487 31.0018 26.4164 30.9555C26.3702 30.9877 26.3264 31.1223 26.2079 30.9976C26.2172 31.0636 26.2266 31.1299 26.2407 31.23H25.7848C25.671 31.408 25.5676 31.4251 25.3112 31.2967C25.2288 31.3545 25.1522 31.4087 25.0745 31.4632C24.9483 31.3574 24.6956 31.3423 24.6244 31.4395C24.4824 31.3545 24.3573 31.4244 24.2177 31.4612C24.0584 31.5032 23.884 31.4924 23.7113 31.5429C23.7739 31.5502 23.8368 31.5574 23.9094 31.5656C23.9111 31.5909 23.9138 31.6336 23.9158 31.6674C23.8575 31.6871 23.802 31.7058 23.7705 31.7163C23.7404 31.6877 23.7196 31.6539 23.6908 31.6441C23.6393 31.6263 23.5499 31.6401 23.5335 31.6106C23.479 31.5108 23.3919 31.4953 23.2989 31.493C23.1171 31.4881 22.9351 31.4917 22.7466 31.4917V31.3578C22.6988 31.4251 22.6706 31.4645 22.6465 31.498C22.4829 31.498 22.3082 31.5045 22.1338 31.4957C22.0036 31.4891 21.9112 31.5512 21.7997 31.5984C21.6488 31.6625 21.4858 31.7961 21.2759 31.674C21.1912 31.6247 21.0955 31.5584 20.9884 31.5406C20.9114 31.5278 20.8331 31.5193 20.7551 31.5196C20.6547 31.5203 20.5536 31.5275 20.4542 31.5397C20.3839 31.5485 20.3153 31.5705 20.246 31.5866C20.2818 31.6851 20.1396 31.6713 20.1553 31.761C20.0686 31.7173 19.999 31.6822 19.9294 31.647C19.9495 31.6424 19.9786 31.6355 20.009 31.6286C19.9461 31.5873 19.7814 31.5718 19.7192 31.5938C19.7018 31.6001 19.6763 31.5843 19.6546 31.5797C19.5033 31.5482 19.3604 31.5561 19.2037 31.5899C19.0601 31.6211 18.8958 31.561 18.7438 31.5416C18.7381 31.5873 18.7284 31.6697 18.7231 31.713C18.6243 31.7728 18.551 31.8171 18.4784 31.8614C18.4791 31.8575 18.4821 31.8329 18.4874 31.7938C18.3358 31.8105 18.2444 31.7626 18.2967 31.625C18.1032 31.6145 17.8963 31.6392 17.7183 31.58C17.6092 31.5439 17.5519 31.6063 17.4693 31.6024C17.3056 31.5942 17.1412 31.6001 16.9474 31.6001C16.9873 31.6634 17.0043 31.6904 17.0214 31.7173C17.0147 31.7285 17.008 31.7393 17.001 31.7505C16.923 31.7088 16.845 31.6671 16.7386 31.6103C16.7787 31.6976 16.8052 31.7551 16.839 31.8289H16.2298C16.2178 31.8621 16.2014 31.9064 16.1853 31.9507C16.1418 31.8949 16.0675 31.8424 16.0605 31.7826C16.0394 31.5991 15.9065 31.6204 15.7833 31.6073C15.6297 31.5909 15.4751 31.7038 15.3201 31.603C15.3131 31.5984 15.2655 31.6539 15.2444 31.6743C15.1343 31.6641 15.0061 31.6365 14.8806 31.646C14.7762 31.6539 14.6754 31.7058 14.578 31.7367C14.5382 31.7153 14.4913 31.6904 14.4428 31.6641C14.4093 31.7436 14.3856 31.8 14.3618 31.8562C14.3404 31.8545 14.3193 31.8526 14.2979 31.8509C14.2888 31.778 14.2798 31.7051 14.2704 31.6323C14.2657 31.647 14.2614 31.6618 14.2567 31.6766C14.1968 31.6628 14.1369 31.649 14.0468 31.628C14.0291 31.6887 14.0017 31.781 13.9752 31.8706C13.924 31.8542 13.8751 31.8381 13.8259 31.8224C13.8611 31.78 13.8959 31.7377 13.9454 31.6779C13.8162 31.668 13.7413 31.6769 13.688 31.7869C13.6659 31.8322 13.5608 31.8391 13.4936 31.8634C13.5033 31.8191 13.5126 31.7748 13.5224 31.7311C13.2747 31.7252 13.2807 31.7334 13.2466 31.7577C13.1836 31.8027 13.1127 31.8362 13.0457 31.8759C13.0186 31.892 12.9938 31.9123 12.9677 31.931C12.951 31.9179 12.9339 31.8933 12.9175 31.8939C12.8302 31.8962 12.6973 31.9639 12.7619 31.7734C12.7659 31.762 12.719 31.7176 12.6943 31.716C12.6012 31.7101 12.5075 31.7157 12.4141 31.7166C12.4121 31.7242 12.4091 31.7314 12.4048 31.7383C12.3489 31.7958 12.3274 31.9176 12.2033 31.8476C12.1674 31.8273 12.1447 31.7705 12.1102 31.7652C11.9874 31.7468 11.8685 31.6812 11.728 31.7281C11.7524 31.7695 11.7758 31.8096 11.7996 31.8493C11.7896 31.8568 11.7795 31.8647 11.7695 31.8723C11.7206 31.824 11.6721 31.7754 11.6148 31.7189C11.5563 31.7308 11.4743 31.7531 11.3909 31.7626C11.3046 31.7721 11.2165 31.7692 11.1355 31.7715C11.1503 31.8772 11.1586 31.9386 11.167 32H11.1335C11.0525 31.9238 10.7332 31.8923 10.6385 31.9534C10.6298 31.959 10.6338 31.9839 10.6321 32H10.4648C10.4514 31.9724 10.4454 31.9337 10.4229 31.9189C10.3667 31.8821 10.2957 31.8651 10.2445 31.8237C10.1973 31.7856 10.1682 31.7255 10.1267 31.6694C10.0524 31.8913 9.81276 31.6602 9.72272 31.8371C9.74749 31.8467 9.76657 31.8532 9.78498 31.8608C9.80573 31.8693 9.82648 31.8785 9.84724 31.887C9.83954 31.8936 9.83217 31.9002 9.82448 31.9068C9.62934 31.8444 9.43454 31.7823 9.23672 31.7189C9.21095 31.7646 9.18384 31.8125 9.15673 31.8605C9.07473 31.8582 8.99306 31.8559 8.91139 31.8536C8.83875 31.827 8.76646 31.8004 8.69383 31.7734C8.66504 31.7669 8.61316 31.7495 8.61048 31.7551C8.57768 31.8234 8.55224 31.8949 8.5248 31.9655C8.51275 31.9402 8.49434 31.9159 8.49032 31.8893C8.48463 31.8542 8.48999 31.8174 8.49032 31.7813C8.45551 31.7856 8.4207 31.7935 8.38623 31.7922C8.36213 31.7912 8.33401 31.7665 8.3156 31.7731C8.29418 31.7807 8.28146 31.8112 8.26473 31.8319L8.2664 31.8279Z"
          fill="currentColor"/>
</svg>
