<svg viewBox="0 0 32 32" fill="none" xmlns="http://www.w3.org/2000/svg">
    <path d="M15.9704 25.9803C16.0624 25.9839 16.1548 25.9849 16.2465 25.9933C16.2732 25.9956 16.298 26.019 16.3316 26.0372C16.3688 25.9754 16.4113 25.9052 16.4535 25.835C16.4583 25.8376 16.4633 25.8398 16.4681 25.8424C16.4475 25.9039 16.4265 25.965 16.3881 26.0791C16.529 26.0066 16.6284 25.9553 16.7408 25.8974C16.7439 25.94 16.7471 25.9868 16.75 26.0284C16.8138 25.978 16.875 25.8938 16.9461 25.8841C17.0125 25.875 17.0791 25.9273 17.1613 25.8733C17.2108 25.8408 17.2975 25.8675 17.3699 25.8675C17.3699 25.8668 17.373 25.8353 17.3772 25.7891C17.7105 25.9065 17.8123 25.6626 17.9314 25.3843C17.9403 25.4945 17.9457 25.5609 17.9511 25.6272C17.9631 25.6262 17.9752 25.6253 17.9876 25.6243V25.3889C18.1107 25.3473 18.2275 25.3209 18.3313 25.2683C18.4091 25.2286 18.4529 25.1002 18.5932 25.2474C18.5621 25.1506 18.5481 25.108 18.5389 25.079C18.617 25.0345 18.6871 24.9945 18.7608 24.9525C18.7636 24.9617 18.7703 24.9838 18.7773 25.0068C18.7858 25.0039 18.7989 25.0036 18.8024 24.9977C18.8665 24.8898 19.0296 24.8423 18.995 24.67C18.9928 24.6596 19.0595 24.6154 19.0801 24.6235C19.115 24.6375 19.1388 24.6811 19.1772 24.7233C19.2064 24.6407 19.2379 24.551 19.2744 24.4466C19.4147 24.4291 19.421 24.4125 19.3766 24.2385C19.3629 24.1859 19.3899 24.1222 19.4013 24.0418C19.4362 24.0487 19.4854 24.0584 19.5499 24.0714C19.6073 23.8539 19.7727 23.6497 19.6527 23.3799C19.7168 23.3682 19.7613 23.3597 19.793 23.3539C19.793 23.2482 19.786 23.1542 19.7949 23.0619C19.8041 22.9673 19.7581 22.8814 19.6441 22.8193C19.6765 22.7049 19.7721 22.608 19.6699 22.4659C19.6229 22.4006 19.6581 22.2728 19.6572 22.1733C19.6572 22.1648 19.673 22.1557 19.6724 22.1479C19.6657 22.0569 19.7019 21.8699 19.6978 21.8127C19.6959 21.7607 19.7089 21.7009 19.6879 21.6586C19.6616 21.605 19.613 21.5578 19.5645 21.5217C19.3966 21.3978 19.3848 21.3478 19.5013 21.1855C19.441 21.1475 19.3807 21.1094 19.3274 21.0756C19.3515 20.9999 19.375 20.927 19.3905 20.8783C19.3404 20.8354 19.3026 20.8032 19.2648 20.771C19.274 20.7589 19.2832 20.7469 19.2924 20.7346C19.255 20.729 19.2172 20.7238 19.1839 20.719C19.2026 20.6965 19.2178 20.6786 19.2271 20.6673C19.1674 20.6393 19.1074 20.6224 19.0665 20.5843C19.0541 20.5726 19.0941 20.5018 19.1147 20.4449C19.0779 20.4247 19.0309 20.399 18.9804 20.3717C18.988 20.3486 18.9973 20.3194 19.0125 20.2725C18.9217 20.2836 18.8389 20.2934 18.756 20.3034C18.7881 20.3353 18.8201 20.3675 18.8522 20.3993C18.8728 20.3532 18.8931 20.307 18.9138 20.2608C18.883 20.2504 18.8525 20.24 18.8217 20.2296C18.7214 20.1731 18.6198 20.1191 18.5221 20.0586C18.4932 20.0407 18.4659 20.0085 18.4535 19.9767C18.4304 19.9162 18.4218 19.8499 18.4005 19.7884C18.3805 19.7309 18.3659 19.6587 18.3243 19.6242C18.2526 19.565 18.0942 19.3943 18.0555 19.3118C18.0437 19.2867 17.9911 19.2578 17.9682 19.2653C17.7714 19.3313 17.7054 19.1775 17.5955 19.0614C17.6102 19.1209 17.6248 19.1804 17.6425 19.2516C17.5479 19.1629 17.3169 19.2584 17.347 18.9863C17.3331 19.0295 17.3194 19.0728 17.3127 19.0936C17.2188 19.0175 17.1582 18.9687 17.0769 18.9027C17.0769 18.9014 17.0817 18.8676 17.0899 18.8085C17.0344 18.8182 16.9836 18.8371 16.935 18.8328C16.8772 18.8276 16.8042 18.8205 16.7671 18.7834C16.544 18.5607 16.4865 18.5451 16.2069 18.6706C16.0542 18.4869 15.4333 18.3991 15.2864 18.5467C15.2772 18.5165 15.2692 18.4898 15.2537 18.4388C15.2346 18.4892 15.2238 18.5184 15.2067 18.564C15.1829 18.5259 15.1645 18.4963 15.1616 18.4921C15.0781 18.5314 14.9972 18.6043 14.9353 18.59C14.8461 18.5695 14.7703 18.4862 14.6823 18.4251C14.6754 18.4619 14.6696 18.4921 14.6696 18.4914H14.37C14.3186 18.5428 14.2741 18.6127 14.2113 18.6417C14.1653 18.6631 14.0958 18.6313 14.0367 18.6231C14.0361 18.6039 14.0354 18.5851 14.0348 18.5659C13.9202 18.6365 13.8053 18.7073 13.6907 18.7779C13.6834 18.7779 13.6761 18.7782 13.6688 18.7785C13.6012 18.7142 13.5269 18.7268 13.4406 18.7187C13.2476 18.7005 13.0467 18.8296 12.8578 18.6924C12.834 18.6751 12.7623 18.7278 12.7125 18.7473C12.661 18.7678 12.6096 18.7876 12.5506 18.8107C12.5547 18.7525 12.5715 18.6875 12.5582 18.6804C12.3944 18.5906 12.2805 18.4336 12.117 18.3448C12.0189 18.2915 12.0189 18.2193 12.0275 18.1068C12.0357 18.0015 11.95 17.8886 11.8891 17.7856C11.9062 17.731 12.0094 17.6571 11.8351 17.636C11.8627 17.5339 11.8862 17.4468 11.9158 17.3375C11.8348 17.2901 11.8532 17.2003 11.885 17.0794C11.9075 16.9929 11.8466 16.882 11.8155 16.7845C11.8135 16.7783 11.7491 16.7929 11.7002 16.7998C11.7202 16.7552 11.7453 16.7 11.7697 16.6453C11.5866 16.5826 11.586 16.5806 11.6336 16.2353C11.606 16.2714 11.5787 16.3075 11.5479 16.3478C11.4977 16.3189 11.4358 16.2828 11.3739 16.247C11.3539 16.2256 11.3339 16.2044 11.3136 16.183C11.3504 16.155 11.3876 16.1271 11.4244 16.0991C11.4374 16.1128 11.4507 16.1264 11.4638 16.1397C11.4469 16.1154 11.4203 16.0929 11.4149 16.0663C11.3892 15.9395 11.3698 15.8114 11.3473 15.6842C11.3222 15.5431 11.2714 15.4007 11.2784 15.2612C11.2831 15.165 11.2651 15.1048 11.206 15.0431C11.121 14.9543 11.0375 14.8636 10.9454 14.7654C10.9708 14.7491 11.0022 14.729 11.0565 14.6945C11.007 14.6981 10.9822 14.6997 10.947 14.7023C10.9353 14.5674 10.9197 14.4273 10.913 14.2861C10.9108 14.2393 10.9299 14.1906 10.9442 14.1441C10.9702 14.0602 10.9956 13.975 11.0305 13.895C11.0467 13.8576 11.0806 13.8101 11.1143 13.8023C11.2435 13.7728 11.3441 13.7311 11.3761 13.5741C11.3879 13.5165 11.4666 13.4593 11.5279 13.4297C11.6275 13.3813 11.7132 13.3397 11.7066 13.2031C11.7053 13.1804 11.7688 13.154 11.8028 13.1296C11.9167 13.0483 12.0281 12.9622 12.1468 12.889C12.1862 12.865 12.2465 12.8796 12.2951 12.8676C12.5312 12.8104 12.7655 12.7456 13.0026 12.693C13.0905 12.6735 13.1879 12.6949 13.2743 12.6718C13.4606 12.6221 13.6418 12.5522 13.8272 12.4966C13.9091 12.4719 13.9954 12.4618 14.1132 12.4384C14.1338 12.3714 14.2113 12.3704 14.3211 12.3652C14.4532 12.3591 14.582 12.2797 14.7207 12.229C14.7868 12.3422 14.9305 12.2693 15.0642 12.2765C15.0486 12.2427 15.034 12.2118 15.0197 12.1809C15.0337 12.1906 15.0477 12.2001 15.0616 12.2098C15.1321 12.1435 15.2029 12.0775 15.2734 12.0112C15.1546 12.1029 15.2035 12.1994 15.2445 12.2745C15.3651 12.2209 15.4832 12.1685 15.5987 12.1172C15.592 12.1932 15.5857 12.2625 15.5832 12.2924C15.7104 12.2768 15.8301 12.2716 15.9444 12.2433C15.9812 12.2342 16.0037 12.1637 16.0418 12.1077C16.4132 12.1617 16.7985 12.1565 17.149 11.8333C17.1369 11.9009 17.1324 11.9253 17.1232 11.9764C17.1756 11.9517 17.2175 11.9318 17.2721 11.9061C17.2308 11.8707 17.1994 11.8431 17.1626 11.8115C17.2588 11.7758 17.3416 11.7449 17.466 11.6987C17.421 11.6779 17.3981 11.6672 17.3521 11.646C17.4613 11.6171 17.5473 11.5943 17.6232 11.5742C17.6124 11.5683 17.5889 11.5557 17.5511 11.5355C17.5781 11.5222 17.5943 11.5079 17.6013 11.5114C17.7447 11.5869 17.7927 11.4666 17.8352 11.3772C17.8787 11.2858 17.8923 11.1795 17.9212 11.0722C17.9596 11.0969 17.9837 11.1122 18.0161 11.1333C18.0666 11.0091 18.0568 10.79 18.2996 10.9724C18.3062 10.8664 18.3116 10.7825 18.3167 10.6986C18.3024 10.6957 18.2881 10.6927 18.2735 10.6898C18.3688 10.6063 18.464 10.523 18.5592 10.4395C18.5535 10.431 18.5478 10.4229 18.5421 10.4144C18.4843 10.4232 18.4269 10.4317 18.3691 10.4404C18.3653 10.4261 18.3615 10.4118 18.3577 10.3975L18.5894 10.284C18.6068 10.2944 18.6246 10.3045 18.6421 10.3149C18.6303 10.2219 18.6186 10.129 18.6052 10.0226C18.6214 10.0178 18.657 10.0074 18.6922 9.99695L18.6906 9.97549C18.6586 9.97061 18.6262 9.96606 18.5941 9.96119C18.5897 9.94883 18.5852 9.9368 18.5808 9.92445C18.6367 9.90429 18.6925 9.88413 18.7659 9.85779C18.5583 9.62142 18.7211 9.3961 18.8198 9.14152C18.7601 9.05796 18.7071 8.96042 18.8646 8.87588C18.8912 8.86158 18.8608 8.73705 18.8585 8.66357C18.857 8.60667 18.8582 8.54945 18.8582 8.51075C18.7976 8.41581 18.7284 8.32933 18.6868 8.23081C18.6697 8.1905 18.7116 8.12417 18.7268 8.06955C18.737 8.03281 18.7655 7.98761 18.7538 7.96128C18.7376 7.92519 18.6909 7.87934 18.6576 7.87934C18.5475 7.87999 18.5068 7.84423 18.5116 7.72458C18.5145 7.65532 18.4678 7.58379 18.438 7.49763C18.4424 7.49341 18.4707 7.47552 18.4872 7.44984C18.5329 7.37831 18.5005 7.36433 18.4307 7.36888C18.4088 7.37018 18.3631 7.33474 18.3653 7.32531C18.4208 7.09056 18.1815 6.99335 18.1421 6.78461C18.0945 6.8246 18.0599 6.85354 18.0231 6.8841C17.9485 6.86654 17.8254 6.61814 17.8777 6.52255C17.772 6.49784 17.6692 6.48711 17.5784 6.44712C17.5226 6.42273 17.4908 6.34568 17.4381 6.30666C17.3569 6.24683 17.2667 6.19936 17.2061 6.1623C17.1096 6.20522 17.0283 6.24163 16.9471 6.27805C16.8852 6.10182 16.7252 5.99128 16.5398 5.98282C16.451 5.97892 16.3348 6.02542 16.3218 5.92332C16.2431 5.98217 16.1554 6.05078 16.0643 6.11418C16.0053 6.15515 15.9431 6.19221 15.8787 6.22375C15.8476 6.23871 15.8085 6.23643 15.7733 6.24196L15.7784 6.24683C15.7003 6.2335 15.6219 6.22017 15.5346 6.20522C15.5514 6.18506 15.5689 6.16425 15.5863 6.14312C15.5574 6.11483 15.5282 6.08687 15.507 6.06638C15.413 6.12621 15.3203 6.18213 15.2311 6.24358C15.1626 6.29073 15.0988 6.34438 15.0328 6.3951L15.0353 6.38307L15.0251 6.37689C14.8528 6.35478 14.7829 6.4094 14.7318 6.58075C14.7112 6.65033 14.662 6.7108 14.6293 6.769C14.5693 6.769 14.5182 6.769 14.4671 6.769C14.4614 6.73681 14.4554 6.70463 14.4493 6.67244C14.437 6.67504 14.4246 6.67764 14.4122 6.68024V6.78981C14.3744 6.83826 14.3363 6.8867 14.2951 6.9397C14.2665 6.92994 14.2227 6.91499 14.1665 6.89548C14.1761 7.05252 14.1396 7.16047 13.9732 7.20208C13.9275 7.21346 13.8764 7.34677 13.8859 7.41602C13.9113 7.60753 13.8494 7.72068 13.6863 7.81822C13.5479 7.9008 13.4314 8.02663 13.3828 8.20838C13.3581 8.1905 13.3235 8.16579 13.2886 8.14043C13.2848 8.14465 13.2778 8.14953 13.2784 8.15246C13.3171 8.35502 13.1432 8.4441 13.0784 8.58261C13.0162 8.71591 12.8242 8.78875 12.8702 8.99196C12.8877 9.06869 12.8204 9.18541 12.688 9.09242C12.6661 9.07682 12.6223 9.09405 12.5836 9.09632C12.6026 9.14542 12.6356 9.19614 12.6249 9.20947C12.603 9.23646 12.5582 9.24751 12.5211 9.25759C12.4455 9.27807 12.302 9.29726 12.3027 9.31091C12.3087 9.43609 12.2065 9.41561 12.1478 9.45007C12.1452 9.4517 12.1386 9.44617 12.1208 9.43739C12.136 9.41041 12.1506 9.38439 12.1722 9.34603C11.9989 9.36944 11.9348 9.27938 11.9475 9.13469C11.8916 9.12461 11.8161 9.13079 11.804 9.10575C11.7209 8.93018 11.6136 8.95131 11.4876 9.0469C11.4761 9.05568 11.4584 9.05568 11.4098 9.06901C11.4638 9.02772 11.4917 9.00659 11.5485 8.96334C11.4764 8.97342 11.4419 8.9783 11.3987 8.98415C11.3628 8.72079 11.1587 8.82614 11.0073 8.78517C11.0597 8.77346 11.1121 8.76176 11.1984 8.74258C11.1578 8.72079 11.147 8.71754 11.1397 8.71071C10.9981 8.58293 10.835 8.58976 10.6664 8.63008C10.6578 8.58781 10.6493 8.54554 10.6372 8.48604C10.5686 8.46979 10.4731 8.44703 10.3782 8.42427C10.4134 8.39728 10.4477 8.37062 10.4823 8.34396C10.4763 8.32705 10.4699 8.31015 10.4639 8.29324C10.3966 8.29649 10.329 8.29974 10.2617 8.30332C10.2643 8.34233 10.2668 8.38135 10.2696 8.42037C10.2097 8.40541 10.1497 8.39045 10.0963 8.37712C10.089 8.32478 10.0878 8.23602 10.0748 8.23406C9.98556 8.22171 9.89383 8.22756 9.78718 8.22756C9.77511 8.20188 9.76115 8.12612 9.71703 8.09393C9.69068 8.07475 9.618 8.13035 9.56404 8.13978C9.52087 8.14758 9.47453 8.13685 9.412 8.13327C9.43485 8.05654 9.45262 7.99672 9.47167 7.93266C9.41771 7.91901 9.36279 7.90535 9.25487 7.87837C9.31962 7.84032 9.34629 7.82439 9.3739 7.80846C9.31105 7.76847 9.25265 7.73108 9.18504 7.68751C9.14537 7.72425 9.10601 7.78343 9.05268 7.80358C9.00412 7.82212 8.94032 7.79838 8.88318 7.79318C8.90064 7.7701 8.9181 7.74669 8.93492 7.72458C8.64671 7.60135 8.35786 7.46382 8.15186 7.20696C8.11536 7.16144 8.15313 7.05122 8.15979 6.97124C8.17122 6.82818 8.18741 6.68544 8.19598 6.54206C8.19757 6.51637 8.17758 6.48386 8.15821 6.4637C8.11505 6.41883 8.02744 6.38827 8.13536 6.31576C8.14393 6.31024 8.11695 6.23871 8.09758 6.20262C8.03696 6.08849 8.05727 6.01826 8.16424 6.00851C8.21662 5.8053 8.28994 5.61575 8.30899 5.42066C8.32835 5.22071 8.46991 5.09163 8.54133 4.92516C8.57656 4.84322 8.5572 4.69399 8.70607 4.63774C8.77812 4.61043 8.80732 4.45241 8.84478 4.34934C8.8543 4.32333 8.8197 4.28074 8.80161 4.23619H8.98952C8.96984 4.15654 8.95523 4.09834 8.93905 4.03331C9.04094 4.04957 9.07776 4.00015 9.10728 3.89058C9.13235 3.79824 9.22853 3.72541 9.29455 3.6451C9.34184 3.58755 9.39072 3.5313 9.41358 3.44611C9.4631 3.42921 9.5123 3.4123 9.57642 3.39019C9.55991 3.33167 9.54404 3.27574 9.5269 3.21494C9.64275 3.23835 9.73004 3.24388 9.75607 3.08099C9.77004 2.99255 9.84875 2.89761 9.92366 2.84006C10.0503 2.74285 10.1366 2.61962 10.2163 2.48599C10.2195 2.48046 10.237 2.48599 10.2455 2.48144C10.3185 2.44242 10.403 2.41511 10.4607 2.35886C10.528 2.29351 10.6397 2.26587 10.6534 2.14687C10.6553 2.13029 10.6874 2.10038 10.694 2.10363C10.8 2.15077 10.8264 2.07762 10.8692 2.00284C10.8889 1.9687 10.9584 1.96512 11.0156 1.94366C11.0108 1.88839 11.0048 1.82109 10.9975 1.73948C11.0914 1.78435 11.1422 1.77784 11.2114 1.67738C11.2838 1.57268 11.4304 1.52034 11.5469 1.44946C11.6387 1.39353 11.7358 1.34736 11.8259 1.28949C11.85 1.27388 11.8564 1.23064 11.8732 1.2017C11.885 1.18154 11.9091 1.14545 11.9142 1.14773C12.0103 1.19097 12.1091 1.09018 12.1478 1.09961C12.3309 1.14415 12.3925 0.94517 12.5499 0.931189C12.7096 0.917208 12.8639 0.821618 13.0162 0.751389C13.0664 0.728304 13.1022 0.672706 13.153 0.648971C13.2203 0.601826 13.2829 0.542327 13.3565 0.510463C13.4489 0.470472 13.5492 0.439259 13.6482 0.430155C13.7523 0.420401 13.8618 0.446411 13.8742 0.318958C13.9421 0.304327 13.9958 0.293598 14.0491 0.280917C14.0938 0.270513 14.1376 0.253281 14.183 0.248079C14.2167 0.244177 14.2681 0.272789 14.2833 0.257182C14.442 0.0968905 14.65 0.222068 14.8175 0.156715C15.0108 0.081284 15.2029 0.0608004 15.4051 0.0738058C15.4441 0.0764069 15.486 0.0364152 15.5593 0C15.572 0.0328387 15.5895 0.0786829 15.6216 0.161918C15.685 -0.0117049 15.7565 -0.00780326 15.8593 0.0299125C15.9275 0.054948 16.0139 0.0266611 16.1116 0.021459C16.1992 0.14306 16.27 0.146636 16.3976 0.00975408C16.4754 0.0601501 16.5313 0.211989 16.6532 0.0676282C16.657 0.0630763 16.6916 0.0946145 16.7106 0.0929888C16.7792 0.0864861 16.8471 0.0712047 16.9153 0.0624261C16.9499 0.0581993 16.9861 0.0559234 17.0198 0.0617758C17.0594 0.0686037 17.1004 0.101768 17.1356 0.0952648C17.3197 0.0604753 17.486 0.11965 17.6628 0.156715C17.8603 0.198008 18.0621 0.305303 18.2456 0.286445C18.4716 0.26336 18.6465 0.456816 18.8668 0.380409C18.8884 0.372931 18.9303 0.415524 18.9579 0.439909C19.0252 0.499409 19.0887 0.512739 19.1829 0.490955C19.2404 0.47795 19.3175 0.555332 19.3858 0.591747C19.3715 0.611906 19.3575 0.632064 19.3432 0.652222C19.355 0.619059 19.3667 0.58622 19.387 0.529321C19.421 0.584269 19.4432 0.618083 19.4632 0.652873C19.5 0.71725 19.5467 0.744886 19.6232 0.771872C19.7625 0.820968 19.8806 0.930864 20.0111 1.0089C20.1428 1.0879 20.2771 1.21471 20.4129 1.21828C20.5561 1.22219 20.6011 1.31745 20.6951 1.37858C20.7325 1.35614 20.7713 1.33273 20.8192 1.30379C20.8278 1.33436 20.8395 1.36199 20.843 1.39093C20.8522 1.46246 20.8338 1.56065 20.9614 1.49693C20.9808 1.48717 21.0198 1.49595 21.0385 1.51058C21.2991 1.71542 21.562 1.91733 21.8143 2.13257C21.8889 2.19597 21.9292 2.30001 21.9908 2.38097C22.032 2.43527 22.1292 2.44177 22.113 2.55167C22.1108 2.56792 22.2326 2.60336 22.305 2.63295C22.2193 2.79617 22.3523 2.83746 22.4485 2.89956C22.4663 2.91094 22.4875 2.91679 22.5072 2.92525C22.4875 2.94443 22.4682 2.96329 22.4453 2.9854C22.5739 3.08781 22.7192 3.17918 22.8329 3.30143C22.9313 3.40775 22.9935 3.54951 23.0798 3.66265C23.129 3.71598 23.1868 3.76312 23.2255 3.82327C23.2982 3.93577 23.3566 4.05802 23.4299 4.17019C23.4417 4.1884 23.4988 4.17572 23.494 4.20726C23.5204 4.26903 23.5486 4.33048 23.5728 4.39323C23.589 4.43485 23.5931 4.48265 23.614 4.52101C23.6401 4.56881 23.6775 4.61043 23.7108 4.65399C23.7229 4.66993 23.7518 4.69106 23.7489 4.69789C23.6861 4.82989 23.8169 4.91053 23.8292 5.0227C23.8403 5.12316 23.8686 5.21648 23.9613 5.18819C24.0318 5.3784 24.0873 5.56015 24.1657 5.73052C24.2346 5.88008 24.1743 6.108 24.4241 6.15677C24.3393 6.27382 24.3571 6.36453 24.4165 6.48288C24.4895 6.62854 24.5091 6.80282 24.5494 6.96506C24.552 6.97481 24.5323 6.98912 24.525 7.00245C24.4526 7.13283 24.4669 7.16047 24.6034 7.1803C24.5761 7.24077 24.5164 7.31165 24.5279 7.36758C24.5367 7.41245 24.6313 7.43943 24.6977 7.4804C24.6047 7.56363 24.5879 7.64394 24.6631 7.76945C24.7123 7.85138 24.672 7.98566 24.6866 8.09426C24.7075 8.25097 24.6367 8.42459 24.7707 8.5709C24.6755 8.62098 24.598 8.67527 24.7034 8.79427C24.7212 8.81411 24.6742 8.89409 24.6548 8.95294C24.7123 8.99846 24.7897 9.05015 24.6764 9.14184C24.6583 9.15647 24.6602 9.2124 24.6694 9.24426C24.7142 9.40163 24.7421 9.55769 24.6837 9.71896C24.6745 9.74399 24.6717 9.78951 24.6863 9.80284C24.8021 9.91014 24.7256 9.96704 24.6285 10.0246C24.6567 10.0604 24.6824 10.0925 24.7091 10.1264C24.6751 10.1754 24.6374 10.2301 24.6009 10.2827C24.6393 10.3175 24.672 10.3471 24.7164 10.3878C24.5199 10.469 24.5352 10.643 24.5317 10.7919C24.5288 10.9109 24.5015 10.9867 24.3965 11.014C24.3669 11.1138 24.5663 11.236 24.353 11.2871C24.3688 11.3609 24.3825 11.423 24.3974 11.4926C24.3612 11.5072 24.3231 11.5225 24.2736 11.5423C24.2777 11.5596 24.2768 11.5833 24.2882 11.5956C24.3555 11.6694 24.3196 11.7351 24.2879 11.8119C24.2346 11.9409 24.2016 12.0788 24.1505 12.2092C24.0997 12.3389 24.0324 12.4621 23.9838 12.5925C23.9714 12.6253 24.0022 12.6754 24.0076 12.6969C23.9514 12.7437 23.8911 12.7756 23.8562 12.8503C23.7816 13.0103 23.7051 13.1696 23.6185 13.3228C23.5747 13.3998 23.5471 13.4479 23.6756 13.484C23.6407 13.4912 23.5991 13.4886 23.5718 13.5078C23.528 13.5387 23.4541 13.5978 23.462 13.6203C23.5125 13.7675 23.3842 13.7542 23.3173 13.8046C23.3661 13.8966 23.3633 13.9461 23.2509 14.0173C23.1452 14.0842 23.0963 14.2445 23.0189 14.3609C22.9941 14.3983 22.9564 14.4266 22.9265 14.4611C22.8814 14.5134 22.8386 14.568 22.7938 14.6207C22.764 14.6558 22.7329 14.6893 22.6951 14.7313C22.7291 14.7921 22.7811 14.8438 22.6428 14.8971C22.5444 14.9348 22.4837 15.0791 22.4104 15.179C22.3875 15.2099 22.378 15.2511 22.3621 15.2879C22.4044 15.3058 22.451 15.3171 22.4869 15.3438C22.5164 15.3659 22.5345 15.4053 22.5555 15.4381C22.5802 15.4771 22.6031 15.5174 22.6272 15.5568C22.6285 15.5587 22.6415 15.5545 22.6415 15.5548C22.6685 15.7135 22.8345 15.7148 22.9214 15.8091C23.0138 15.9092 23.057 16.0523 23.1976 16.1176C23.2477 16.141 23.2576 16.2555 23.2868 16.3303C23.3246 16.3205 23.3569 16.3121 23.3896 16.3039C23.3795 16.3371 23.3693 16.3706 23.3671 16.3784C23.4794 16.5484 23.5629 16.7409 23.7032 16.8671C23.8257 16.977 23.8724 17.1288 23.9826 17.2397C24.0432 17.3005 24.0727 17.3935 24.1136 17.479C24.1432 17.5414 24.1663 17.6084 24.2044 17.665C24.2311 17.7049 24.2781 17.7306 24.3327 17.7774C24.3815 17.8659 24.4815 17.9771 24.5012 18.1016C24.5187 18.2128 24.7415 18.2086 24.6209 18.377C24.6694 18.3832 24.7167 18.3894 24.7643 18.3955C24.7234 18.6378 24.8008 18.8205 24.9503 18.8387C24.8342 18.9831 24.8599 19.1768 25.0097 19.303C25.0354 19.3248 25.0643 19.3531 25.0735 19.3839C25.131 19.5823 25.1589 19.7946 25.2468 19.977C25.2941 20.0749 25.3262 20.1613 25.3325 20.266C25.3363 20.3275 25.3525 20.3883 25.3687 20.481C25.3668 20.4803 25.4036 20.4946 25.4601 20.517C25.4436 20.5938 25.4261 20.6754 25.4058 20.769C25.4407 20.783 25.4925 20.8038 25.5464 20.8259C25.4847 20.9391 25.51 21.0492 25.6226 21.1563C25.5868 21.1533 25.5693 21.152 25.5509 21.1504C25.6036 21.4369 25.6563 21.7243 25.7096 22.014C25.6867 22.0071 25.6686 22.0016 25.6287 21.9893C25.6623 22.0588 25.6867 22.1102 25.7137 22.1658C25.5499 22.3489 25.7347 22.5563 25.7071 22.7735C25.6858 22.7367 25.6744 22.7172 25.6629 22.6974L25.6306 22.6984C25.6306 22.768 25.6467 22.8431 25.6274 22.9065C25.5861 23.0411 25.7515 23.1975 25.5826 23.3171C25.5661 23.3288 25.5642 23.3747 25.5683 23.4029C25.5849 23.5174 25.6207 23.6312 25.621 23.7453C25.621 23.8282 25.5893 23.918 25.5493 23.9921C25.4817 24.1173 25.5982 24.2974 25.4322 24.3949C25.4265 24.3982 25.482 24.511 25.5026 24.5582C25.468 24.5851 25.3903 24.6141 25.3798 24.6596C25.3477 24.7971 25.2106 24.9353 25.3433 25.0706C25.2811 25.2582 25.1897 25.4188 25.2395 25.6327C25.2582 25.7124 25.1459 25.8242 25.0932 25.9215C25.0833 25.9397 25.0621 25.9601 25.0649 25.9761C25.0976 26.1526 24.9186 26.2251 24.8843 26.3675C24.8634 26.4553 24.8707 26.5922 24.8193 26.6215C24.7285 26.6728 24.6529 26.6982 24.6837 26.8224C24.5399 26.8663 24.5955 27.0435 24.493 27.1186C24.3768 27.2038 24.3311 27.329 24.3168 27.473C24.312 27.5208 24.2714 27.5657 24.2444 27.6102C24.1574 27.752 24.0692 27.8928 23.9673 28.0566C23.9749 28.0602 23.941 28.0439 23.8892 28.0186C23.8788 28.0498 23.8569 28.0947 23.8492 28.1425C23.8296 28.2673 23.7334 28.3489 23.6572 28.4178C23.5842 28.4842 23.5331 28.53 23.5496 28.6396C23.4937 28.6458 23.4379 28.6516 23.3728 28.6588C23.3693 28.7166 23.3658 28.7739 23.3617 28.8373C23.3052 28.8581 23.2496 28.8782 23.1912 28.8994C23.1954 29.0089 22.9668 29.2492 22.8034 29.3351C22.7719 29.3679 22.7376 29.3985 22.7094 29.4339C22.6761 29.4755 22.6475 29.5214 22.617 29.5652C22.6351 29.5757 22.6532 29.5861 22.6923 29.6085C22.6094 29.5958 22.5437 29.5857 22.5059 29.5799C22.3882 29.7041 22.2822 29.8163 22.1625 29.9427C22.1292 29.9359 22.0651 29.9222 21.9762 29.9037C22.0317 30.0354 22.0765 30.1414 21.8835 30.1492C21.8216 30.1518 21.7686 30.2536 21.7026 30.2942C21.5242 30.4038 21.3337 30.4938 21.1617 30.6128C21.0411 30.6964 21.0512 30.7117 20.9294 30.647V30.8024C20.8291 30.8219 20.6859 30.7572 20.6383 30.9266C20.6348 30.9386 20.6103 30.9458 20.5945 30.9529C20.5138 30.989 20.4329 31.0245 20.3688 31.0944C20.3313 31.0944 20.2831 31.0788 20.2586 31.097C20.1441 31.1812 20.1466 31.1844 20.0146 31.1253C19.9904 31.3571 19.786 31.1737 19.6895 31.2764C19.5911 31.3815 19.4657 31.2751 19.3791 31.2917C19.3531 31.3343 19.3385 31.3912 19.3045 31.4081C19.1664 31.478 19.0261 31.547 18.8798 31.5941C18.7795 31.6263 18.6671 31.6185 18.5611 31.6344C18.5116 31.6419 18.4643 31.663 18.4161 31.679C18.3494 31.7007 18.2637 31.7046 18.2209 31.7505C18.1501 31.8256 18.1009 31.8253 18.0076 31.7934C17.9352 31.7687 17.8381 31.8067 17.7552 31.8295C17.6356 31.863 17.5206 31.9179 17.3997 31.9426C17.353 31.9521 17.2953 31.9036 17.2061 31.8662C17.2051 31.8675 17.1772 31.9023 17.1677 31.914C17.0144 31.93 16.8506 31.9075 16.729 31.9703C16.5855 32.0441 16.4745 31.956 16.3488 31.9657C16.1764 31.9794 16.0025 31.9774 15.8295 31.9755C15.7901 31.9752 15.7507 31.9472 15.712 31.9309C15.6946 31.9238 15.6708 31.902 15.6619 31.9072C15.4917 32.0099 15.308 31.8874 15.1486 31.9332C15.027 31.968 14.9667 31.9228 14.8852 31.8744C14.8823 31.8727 14.8658 31.903 14.8515 31.9111C14.8287 31.9241 14.8023 31.9309 14.7772 31.9404C14.7366 31.7931 14.6274 31.8792 14.5449 31.8633C14.3906 31.8334 14.2405 31.7817 14.0818 31.7372C14.0764 31.7635 14.07 31.7941 14.0637 31.8253C14.0418 31.8191 14.0247 31.8181 14.0237 31.8136C13.997 31.6855 13.9377 31.6523 13.8025 31.6783C13.6926 31.6994 13.5619 31.6725 13.4558 31.6279C13.359 31.5873 13.2775 31.544 13.1641 31.5512C13.0842 31.5564 13.0013 31.4862 12.9166 31.4598C12.895 31.453 12.862 31.4855 12.8337 31.5005C12.768 31.3902 12.4493 31.2888 12.3792 31.3821C12.3678 31.2299 12.3033 31.1906 12.1598 31.1542C11.9922 31.1116 11.7907 31.0921 11.6542 30.9328C11.6136 30.8856 11.5142 30.8915 11.4415 30.8726C11.4365 30.8928 11.4314 30.9129 11.4361 30.8944C11.3371 30.8424 11.2308 30.7868 11.1241 30.7309L11.1267 30.7211C11.0562 30.6883 10.9838 30.659 10.9162 30.621C10.8737 30.5969 10.8423 30.5426 10.7988 30.5319C10.6166 30.486 10.5036 30.3248 10.3274 30.2581C10.1722 30.1993 10.0478 30.0552 9.90843 29.9512C9.81447 29.881 9.71481 29.8185 9.62307 29.7454C9.5634 29.6979 9.50404 29.6439 9.46214 29.5809C9.41453 29.5093 9.3847 29.4274 9.27741 29.4453C9.26377 29.4476 9.239 29.4394 9.23456 29.429C9.15521 29.2447 8.91048 29.2161 8.85906 28.9956C8.81652 29.0119 8.7797 29.0258 8.73114 29.0447C8.70416 28.9722 8.67877 28.9042 8.64989 28.8262C8.61338 28.8226 8.53276 28.9075 8.51658 28.7544C8.50927 28.6835 8.39437 28.6224 8.32422 28.5616C8.24138 28.4894 8.15155 28.425 8.07061 28.3505C8.04521 28.3271 8.03664 28.2819 8.02617 28.2449C8.02077 28.2267 8.03728 28.1955 8.02807 28.1854C7.87286 28.0196 7.74748 27.8362 7.69193 27.6096C7.55004 27.6034 7.57131 27.4606 7.50941 27.3888C7.47482 27.3485 7.39705 27.3468 7.35103 27.3322C7.33642 27.2899 7.33326 27.2282 7.30183 27.2002C7.22661 27.1336 7.22374 26.9879 7.08281 26.9889C7.06853 26.9889 7.03996 26.9255 7.04187 26.893C7.04567 26.8208 7.06218 26.7522 6.95109 26.7801C6.94315 26.7821 6.92347 26.7619 6.91903 26.7486C6.88792 26.6511 6.86919 26.548 6.82666 26.456C6.79333 26.3841 6.73715 26.3201 6.68129 26.2628C6.60955 26.189 6.72033 26.0336 6.56543 26.0021C6.58066 25.9689 6.59591 25.9358 6.61178 25.901C6.46831 25.792 6.39562 25.4328 6.49116 25.2419C6.45878 25.2445 6.43243 25.2465 6.39276 25.2497C6.40958 25.2052 6.42355 25.1678 6.43434 25.1392C6.38451 25.1141 6.33499 25.0891 6.28516 25.0644L6.29055 25.0595C6.30515 25.0533 6.32007 25.0475 6.33467 25.0416C6.34578 25.0491 6.35689 25.0566 6.368 25.0641C6.37181 25.0569 6.3753 25.0494 6.37911 25.0423C6.36387 25.0364 6.34832 25.0309 6.33309 25.0251C6.30357 24.9223 6.2623 24.8251 6.40546 24.7607C6.44609 24.7425 6.45275 24.644 6.47814 24.5734C6.43846 24.5634 6.39403 24.552 6.36324 24.5439C6.38165 24.3341 6.3953 24.1244 6.42069 23.9163C6.43244 23.8214 6.45751 23.6549 6.49464 23.6494C6.62796 23.6296 6.59749 23.48 6.72763 23.4524C6.77619 23.4664 6.86189 23.4927 6.94887 23.5145C6.95934 23.5171 6.97521 23.4943 6.9895 23.4852C7.05203 23.4455 7.11043 23.388 7.17835 23.3708C7.36245 23.3239 7.55164 23.297 7.73701 23.2547C7.76081 23.2492 7.77573 23.2007 7.79414 23.1715C7.8608 23.0642 8.00236 23.0333 8.11727 23.1123C8.10743 23.0538 8.09949 23.0056 8.09378 22.9728C8.1252 23.0034 8.1671 23.044 8.20931 23.0846C8.21884 23.0794 8.22836 23.0739 8.23789 23.0687C8.21979 23.0196 8.20138 22.9705 8.18996 22.9393C8.25598 22.9149 8.31343 22.8886 8.37342 22.8733C8.41532 22.8626 8.46166 22.872 8.50451 22.8639C8.58323 22.8489 8.66861 22.9351 8.74796 22.8288C8.77336 22.7949 8.87842 22.8236 8.97777 22.8236C8.99205 22.8158 9.04634 22.7611 9.0949 22.7657C9.21615 22.7771 9.27265 22.7114 9.32058 22.6187C9.32788 22.6155 9.3355 22.6122 9.3428 22.609C9.38469 22.5621 9.42628 22.5157 9.47897 22.4565C9.51007 22.5339 9.52976 22.5823 9.55229 22.6386C9.59324 22.6148 9.63164 22.593 9.66942 22.5713C9.60085 22.4217 9.60118 22.4275 9.74496 22.4168C9.80083 22.4126 9.85415 22.3749 9.92335 22.3466C9.91827 22.3365 9.90304 22.3066 9.8878 22.2764C9.9735 22.2178 10.064 22.1668 10.1405 22.0992C10.1817 22.0627 10.2709 22.0133 10.1757 21.9333C10.1674 21.9262 10.1798 21.8937 10.1824 21.8729C10.2087 21.8771 10.2351 21.8816 10.2363 21.8816C10.2871 21.8299 10.33 21.7867 10.3728 21.7431C10.3979 21.8101 10.4106 21.8868 10.4515 21.9411C10.5061 22.0136 10.5804 22.0722 10.6509 22.1304C10.6778 22.1528 10.7201 22.1736 10.7521 22.1691C10.9753 22.1382 11.0956 22.3567 11.3114 22.4012C11.2597 22.4126 11.2282 22.4194 11.2006 22.4253C11.1641 22.6327 11.3041 22.6616 11.4517 22.6795C11.414 22.8081 11.482 22.9639 11.6555 23.1471C11.6396 23.1754 11.6228 23.2056 11.6056 23.2362C11.6139 23.2401 11.6225 23.2479 11.6288 23.2462C11.7164 23.2248 11.7682 23.2349 11.7961 23.3461C11.8081 23.3935 11.8047 23.5138 11.9189 23.5011L11.9253 23.5158C11.9538 23.5681 11.9827 23.6208 12.0218 23.6923C12.0284 23.6829 12.0084 23.7109 11.9884 23.7385L12.0122 23.7652C12.0484 23.7499 12.0843 23.7343 12.1202 23.719C12.1335 23.7346 12.1471 23.7499 12.1605 23.7655C12.123 23.784 12.0856 23.8025 12.0234 23.8331C12.1364 23.9001 12.2297 23.955 12.3433 24.0223C12.3389 24.0516 12.3293 24.1134 12.3154 24.2044C12.3646 24.183 12.4062 24.1651 12.4646 24.1397C12.4963 24.2093 12.528 24.2795 12.5601 24.3497C12.5703 24.3426 12.5804 24.3358 12.5906 24.3286C12.6356 24.3894 12.689 24.4453 12.7239 24.5117C12.7778 24.6147 12.7791 24.6193 12.8731 24.55C12.9807 24.5842 12.7982 24.7402 12.9626 24.7536C12.9715 24.7552 12.9804 24.7565 12.9889 24.7581C13.054 24.843 13.1178 24.9291 13.1854 25.012C13.1962 25.0254 13.2337 25.0371 13.2406 25.0303C13.3917 24.88 13.4219 25.0254 13.4555 25.1154C13.532 25.1154 13.619 25.0898 13.6501 25.1213C13.7009 25.173 13.7152 25.2624 13.7571 25.3661C13.8818 25.4477 14.0459 25.5547 14.2103 25.662C14.2164 25.6503 14.2437 25.5996 14.276 25.5384C14.3124 25.6043 14.3964 25.6328 14.5281 25.624V25.7706C14.5782 25.7855 14.6201 25.7979 14.6785 25.8155C14.6798 25.8129 14.6957 25.7764 14.7179 25.727C14.7776 25.7771 14.8337 25.8298 14.8963 25.873C14.9175 25.8876 14.9617 25.8899 14.9842 25.8769C15.1343 25.792 15.1334 25.7904 15.2115 25.9159C15.2226 25.9338 15.2372 25.9494 15.2603 25.9787C15.441 25.7992 15.5692 25.9335 15.6882 26.0632C15.7415 26.0122 15.786 25.9699 15.8301 25.9276C15.8253 25.9413 15.8206 25.9549 15.8158 25.9686C15.8228 25.9748 15.8295 25.9813 15.8358 25.9881L15.918 26.0203C15.9269 26.0099 15.9358 25.9995 15.9444 25.9894L15.9456 25.9881C15.9539 25.9855 15.9615 25.9823 15.9694 25.9784L15.9704 25.9803Z"
          fill="currentColor"/>
</svg>
