<svg viewBox="0 0 32 32" fill="none" xmlns="http://www.w3.org/2000/svg">
    <path d="M17.2048 2.31981C17.2148 2.38811 17.2248 2.45672 17.237 2.53958C17.2797 2.56062 17.3466 2.59299 17.4469 2.64186C17.3395 2.66549 17.265 2.682 17.217 2.69268C17.2357 2.76971 17.2547 2.83671 17.2682 2.905C17.2813 2.97103 17.2788 3.04159 17.301 3.10373C17.3614 3.27236 17.2997 3.42966 17.2653 3.58858C17.2498 3.66044 17.209 3.72679 17.1801 3.79541C17.1649 3.79347 17.1498 3.79152 17.1347 3.78958C17.163 3.82972 17.1913 3.86953 17.1984 3.87988C17.1633 3.95433 17.1286 4.00967 17.11 4.0702C17.0579 4.23948 17.0167 4.41588 16.963 4.57933C16.9228 4.70167 16.8768 4.82887 16.8411 4.95705C16.7923 5.13215 16.7431 5.30693 16.6929 5.48138C16.6755 5.54094 16.654 5.59952 16.6212 5.65908C16.5894 5.73546 16.5514 5.80958 16.527 5.88823C16.4967 5.98533 16.4781 6.08567 16.454 6.18471C16.443 6.22938 16.444 6.30091 16.4173 6.31385C16.2752 6.38312 16.3344 6.50741 16.3173 6.61292C16.3086 6.66762 16.2742 6.71973 16.2443 6.76893C16.1768 6.88092 16.0823 6.98481 16.1614 7.14179C16.1205 7.15992 16.0736 7.18031 16.0266 7.20102C16.0588 7.39231 16.0266 7.48294 15.9028 7.54832C15.9588 7.6548 15.9109 7.80434 15.7781 7.90856H15.9003C15.836 8.01699 15.7758 8.0992 15.7363 8.19015C15.6961 8.28304 15.6726 8.38402 15.6488 8.48339C15.6147 8.62483 15.5893 8.76854 15.5539 8.90966C15.5501 8.92519 15.5054 8.93005 15.5131 8.92713C15.4954 9.00805 15.4903 9.06987 15.4681 9.12457C15.4057 9.27961 15.3035 9.42688 15.2793 9.58677C15.2565 9.73727 15.1559 9.83405 15.1189 9.96189C15.1054 10.0092 15.1665 10.0943 15.1359 10.1661C15.1189 10.2059 15.0877 10.2396 15.0443 10.2597C15.0173 10.3694 14.9928 10.4798 14.9623 10.5882C14.8928 10.8339 14.8263 11.0808 14.7443 11.3223C14.7205 11.3925 14.6478 11.4456 14.5896 11.5161C14.596 11.5249 14.6131 11.5475 14.6304 11.5712C14.5205 11.6527 14.479 11.8227 14.5433 11.8706C14.4317 12.2874 14.2725 12.6826 14.1195 13.0937C14.1269 13.0992 14.1468 13.1144 14.1745 13.1354C14.1192 13.16 14.0735 13.1801 14.0658 13.1833C14.0397 13.297 14.022 13.3814 14.0005 13.4649C13.9835 13.531 13.9471 13.5957 13.9458 13.6614C13.9442 13.752 13.8748 13.8349 13.8712 13.8851C13.8613 14.0291 13.7818 14.1343 13.7394 14.2566C13.6674 14.4631 13.6474 14.6842 13.531 14.881C13.4629 14.9962 13.4873 15.1655 13.4227 15.2843C13.3465 15.4234 13.3416 15.5811 13.2677 15.7167C13.1963 15.8478 13.1085 15.9769 13.0738 16.1184C13.0564 16.1892 13.1034 16.2701 13.0474 16.3608C12.9673 16.4906 12.9236 16.6427 12.8596 16.7968C12.9606 16.8411 12.905 16.9107 12.8606 16.9945C12.8223 17.0664 12.8156 17.1541 12.7911 17.234C12.767 17.312 12.7554 17.4017 12.7085 17.4629C12.5821 17.6273 12.5757 17.6224 12.6307 17.7474C12.3776 18.0147 12.3712 18.397 12.1753 18.6818C12.1747 18.6824 12.2181 18.7135 12.2493 18.7368C12.2165 18.7566 12.1876 18.7744 12.1622 18.7896C12.1718 18.898 12.1815 19.0058 12.1876 19.0715C12.0175 19.2861 11.9927 19.5007 11.9962 19.7327C12.0647 19.6916 12.1458 19.6004 12.203 19.7564C12.2072 19.7221 12.2114 19.6877 12.2171 19.6405C12.2991 19.7246 12.3705 19.7499 12.4908 19.6942C12.6101 19.6389 12.7509 19.6492 12.8992 19.6848C13.0796 19.7282 13.2818 19.6725 13.4751 19.6696C13.6272 19.6673 13.7796 19.68 13.9317 19.689C13.9356 19.689 13.9375 19.7253 13.9436 19.7664C13.9909 19.7156 14.0269 19.6767 14.0465 19.6554C14.1272 19.6644 14.2095 19.6845 14.2906 19.6796C14.388 19.6738 14.5217 19.5971 14.5735 19.6372C14.7407 19.767 14.8687 19.6745 15.0121 19.6169C15.0266 19.611 15.0533 19.6444 15.0768 19.6499C15.1375 19.6641 15.2115 19.7004 15.2584 19.6793C15.4054 19.6123 15.5366 19.6379 15.6864 19.6729C15.7964 19.6984 15.9266 19.6508 16.0446 19.6227C16.1083 19.6075 16.1649 19.5641 16.236 19.5279C16.1469 19.3472 16.2389 19.1728 16.2877 18.9919C16.2977 18.955 16.2697 18.9093 16.2652 18.8672C16.2527 18.7491 16.2823 18.6329 16.2212 18.5112C16.1803 18.4303 16.2135 18.3118 16.2019 18.2086C16.172 17.9464 16.1675 17.6865 16.2617 17.4295C16.1401 17.3298 16.1672 16.8398 16.3048 16.7657C16.2684 16.6997 16.2318 16.6336 16.2112 16.5961C16.3617 16.4333 16.3996 16.2569 16.4074 16.0601C16.4508 16.0876 16.4794 16.1054 16.5193 16.1306C16.535 16.0611 16.5479 16.0031 16.5688 15.9102C16.6283 15.9954 16.6678 16.0523 16.707 16.1083C16.7505 16.0504 16.7948 16.0034 16.8231 15.9484C16.8389 15.9177 16.8399 15.8682 16.8267 15.8351C16.7627 15.6714 16.8839 15.439 17.0672 15.3849C17.0932 15.5756 17.2048 15.6529 17.3839 15.6034C17.454 15.7202 17.5354 15.7636 17.6669 15.6775C17.736 15.6322 17.8351 15.5976 17.8508 15.6969C17.9965 15.6791 18.1335 15.6691 18.2676 15.6432C18.3232 15.6325 18.3724 15.5882 18.4187 15.548C18.4615 15.5396 18.4981 15.7011 18.5698 15.5251C18.6148 15.4147 18.7769 15.4234 18.9039 15.4535C18.9579 15.4665 19.0194 15.449 19.0727 15.4629C19.1313 15.4781 19.2158 15.5005 19.2338 15.5432C19.2763 15.6432 19.3129 15.5953 19.3615 15.562C19.4638 15.4917 19.5593 15.395 19.6724 15.3629C19.7535 15.3399 19.8586 15.4076 19.9541 15.4293C20.013 15.4425 20.0737 15.4458 20.1326 15.4755C20.2066 15.4691 20.2744 15.2626 20.3638 15.526C20.4156 15.4257 20.45 15.3587 20.4847 15.2914C20.5043 15.2904 20.5696 15.3043 20.5844 15.283C20.6593 15.1745 20.7384 15.2254 20.8342 15.2438C21.024 15.2807 21.1831 15.3487 21.2831 15.5235C21.2883 15.5325 21.2944 15.5474 21.3015 15.5487C21.5564 15.5875 21.4976 15.8529 21.6124 15.9934C21.6317 16.017 21.5944 16.0873 21.5867 16.12C21.7179 16.2996 21.8449 16.4734 21.9709 16.6462C21.895 16.698 21.9648 16.9431 22.1327 17.1382C21.9976 17.3014 22.1066 17.4794 22.1118 17.6545C22.1127 17.6885 22.1156 17.7221 22.1166 17.7558C22.1192 17.8399 22.114 17.9247 22.125 18.0076C22.1343 18.0778 22.2057 18.1451 22.1089 18.2121C22.0925 18.2235 22.1098 18.2927 22.1198 18.3332C22.1449 18.4377 22.1742 18.5413 22.1954 18.6213C22.1549 18.6378 22.0989 18.652 22.0999 18.6614C22.1189 18.8702 22.1436 19.0783 22.1681 19.2867C22.1693 19.2971 22.1774 19.3065 22.179 19.3168C22.1935 19.4149 22.1758 19.5712 22.2272 19.5994C22.3353 19.6583 22.4803 19.6686 22.6092 19.6651C22.797 19.6599 22.9835 19.6165 23.1716 19.6062C23.2565 19.6016 23.343 19.6408 23.4295 19.6544C23.545 19.6722 23.6633 19.7023 23.7787 19.6117C23.7897 19.6343 23.8022 19.6606 23.8147 19.6861C23.9601 19.6483 24.0964 19.5851 24.2604 19.6583C24.3534 19.6997 24.4903 19.6405 24.5839 19.6813C24.69 19.7276 24.7421 19.701 24.8087 19.5864V19.7279C24.9952 19.7952 25.2161 19.6819 25.3958 19.8039C25.418 19.7748 25.4528 19.7288 25.5039 19.6612C25.5553 19.7806 25.5968 19.8764 25.6434 19.9849C25.6508 19.9664 25.6621 19.9389 25.6791 19.8968C25.7274 20.0156 26.5753 20.3241 26.694 20.2849C26.6625 20.4552 26.7473 20.5668 26.8477 20.6882C26.8818 20.7296 26.8129 20.9397 26.7737 20.9452C26.601 20.9691 26.6895 21.0889 26.6904 21.151C26.6924 21.2624 26.7322 21.3731 26.7573 21.488C26.7901 21.4711 26.8113 21.4601 26.8162 21.4579C26.8162 21.6077 26.84 21.7673 26.8091 21.9152C26.7801 22.0531 26.6933 22.179 26.6293 22.3156C26.6271 22.3149 26.6647 22.324 26.7512 22.3444C26.6853 22.4027 26.6416 22.4418 26.5975 22.481C26.5885 22.4713 26.5795 22.4616 26.5702 22.4518C26.5686 22.4816 26.5666 22.5114 26.5657 22.5282C26.6448 22.5538 26.7213 22.5784 26.7792 22.5972C26.7792 22.7192 26.7747 22.8137 26.7805 22.9076C26.7866 23.0102 26.8055 23.1118 26.81 23.2141C26.8107 23.2286 26.7618 23.2578 26.7348 23.2591C26.6335 23.2646 26.5316 23.2613 26.4017 23.2613C26.4493 23.2905 26.4782 23.3063 26.5052 23.3251C26.5374 23.3474 26.5698 23.3701 26.5965 23.3983C26.6001 23.4018 26.5669 23.4381 26.5541 23.4607C26.5502 23.4672 26.5579 23.4801 26.5596 23.4902C26.5663 23.541 26.5731 23.5921 26.5792 23.64C26.6116 23.6242 26.6538 23.6038 26.6962 23.5831C26.6994 23.5895 26.7023 23.596 26.7055 23.6025C26.6223 23.675 26.5293 23.7394 26.4595 23.8232C26.4248 23.865 26.4194 23.9449 26.4264 24.0042C26.4322 24.0508 26.5078 24.0945 26.4097 24.1278C26.4026 24.1301 26.4007 24.1818 26.4068 24.1841C26.5348 24.2343 26.4522 24.3285 26.4628 24.4061C26.4756 24.501 26.5284 24.5913 26.5689 24.6813C26.5911 24.7305 26.6229 24.7751 26.665 24.8467C26.6917 24.8408 26.7454 24.8289 26.7991 24.8166C26.8049 24.8259 26.8107 24.8353 26.8165 24.8447C26.7769 24.8725 26.7403 24.9069 26.6969 24.9269C26.6332 24.9564 26.5647 24.9758 26.4882 25.003C26.4644 24.9836 26.421 24.948 26.3779 24.9124C26.338 24.9629 26.2978 25.013 26.2438 25.081C26.2341 25.0716 26.2062 25.0451 26.1692 25.0098C26.1582 25.0532 26.1473 25.0907 26.1406 25.1289C26.1386 25.1396 26.1502 25.2351 26.1457 25.2419C26.1155 25.2868 26.0853 25.3318 26.0563 25.3749C26.0203 25.3619 25.9563 25.339 25.891 25.3156C25.8132 25.4422 25.6737 25.4749 25.4939 25.4619C25.3479 25.4513 25.1881 25.4652 25.0534 25.5173C24.918 25.5701 24.8405 25.483 24.7299 25.4707V25.583C24.6617 25.5474 24.6048 25.5179 24.5456 25.4872C24.5907 25.6493 24.4466 25.5684 24.39 25.5804C24.2308 25.615 24.0665 25.6257 23.9051 25.6458C23.9138 25.6299 23.9299 25.6008 23.9382 25.5859C23.7543 25.5859 23.5659 25.5866 23.3774 25.5859C23.2999 25.5856 23.2212 25.5733 23.1449 25.582C23.0848 25.5888 23.0273 25.6199 22.997 25.6303C22.9134 25.6254 22.8517 25.6215 22.7829 25.6176C22.7842 25.6267 22.7816 25.582 22.7768 25.582C22.653 25.5768 22.5292 25.5736 22.4054 25.5752C22.2925 25.5768 22.1854 25.6299 22.0655 25.593C21.9999 25.5726 21.9523 25.6021 21.9452 25.7057C21.9385 25.8057 21.8458 25.8966 21.8979 26.0148C21.9021 26.0245 21.8407 26.0636 21.8021 26.0954C21.8349 26.1132 21.869 26.1313 21.9211 26.1594C21.8668 26.1866 21.8278 26.2064 21.8028 26.219V26.4491C21.8938 26.5346 21.9204 26.7174 21.8642 26.7598C21.8574 27.659 21.9314 28.53 21.8786 29.4262C21.9992 29.4906 21.9896 29.6369 21.9841 29.7787C21.9799 29.8871 21.7822 30.1221 21.6854 30.1622C21.6545 30.1748 21.6192 30.2334 21.624 30.2652C21.6375 30.3512 21.6696 30.4351 21.6989 30.5179C21.7037 30.5315 21.7317 30.5367 21.7667 30.5548C21.579 30.7358 21.3999 30.908 21.2031 31.0976C21.2571 31.1122 21.2828 31.119 21.3323 31.1323C21.2053 31.343 21.0828 31.5459 21.0101 31.6663C20.9484 31.6194 20.8992 31.5822 20.8497 31.5446L20.7754 31.6045V31.7294C20.7622 31.7424 20.749 31.7553 20.7362 31.7683C20.6632 31.6802 20.5905 31.5919 20.5175 31.5038L20.5162 31.5022L20.5191 31.4715C20.4165 31.5061 20.2879 31.5139 20.2178 31.5825C20.1368 31.6614 20.0869 31.6983 20.0162 31.6016C19.9217 31.4721 19.8094 31.441 19.6596 31.4915C19.5998 31.5116 19.5277 31.4938 19.4628 31.5022C19.4342 31.5058 19.4078 31.5313 19.3811 31.5482C19.3564 31.5643 19.3329 31.5825 19.3088 31.5996C19.2895 31.5715 19.2702 31.5433 19.258 31.5252C19.1371 31.5689 19.0152 31.6129 18.8624 31.6679C18.8878 31.586 18.8972 31.5569 18.9139 31.5035C18.8657 31.5346 18.8219 31.5465 18.8097 31.5731C18.7567 31.6919 18.6647 31.6129 18.6335 31.5857C18.4923 31.463 18.4058 31.4394 18.22 31.5174C18.2106 31.4863 18.2013 31.4559 18.1817 31.3918C18.1692 31.4313 18.1688 31.4423 18.164 31.4456C18.1174 31.4763 18.0647 31.5365 18.0235 31.5297C17.891 31.508 17.7717 31.5035 17.6486 31.5757C17.5798 31.6161 17.5376 31.6291 17.5711 31.7275C17.5862 31.7715 17.5267 31.8514 17.4855 31.9023C17.4527 31.9427 17.3961 31.9634 17.3392 32C17.3376 31.9958 17.3215 31.9576 17.3154 31.9437C17.2592 31.9019 17.2151 31.8443 17.1646 31.8382C17.1032 31.8307 16.9955 31.6977 16.9826 31.8754C16.9038 31.7841 16.8408 31.6763 16.7479 31.6132C16.6614 31.5546 16.5431 31.544 16.3955 31.499C16.4103 31.464 16.4408 31.3925 16.4775 31.3061C16.4202 31.2407 16.3849 31.0465 16.4041 30.9122C16.4099 30.8717 16.3643 30.8183 16.3308 30.7814C16.3221 30.7717 16.2704 30.8018 16.2128 30.8228C16.2263 30.774 16.2366 30.7371 16.2469 30.7005C16.2639 30.7028 16.281 30.7047 16.2977 30.707C16.227 30.5652 16.1102 30.4506 16.0745 30.3312C16.0954 30.2609 16.1344 30.1859 16.1192 30.1726C16.0019 30.0693 16.0363 29.9214 16.0067 29.7968C15.9871 29.7143 15.9925 29.6359 15.9437 29.5502C15.9064 29.4848 15.9594 29.3663 15.9733 29.2718C15.9781 29.2401 16.0028 29.1964 15.99 29.1796C15.8903 29.0475 15.9704 28.9132 15.9745 28.7798C15.981 28.5766 15.9868 28.3727 15.9797 28.1697C15.9771 28.095 15.9414 28.0254 15.8324 28.0552C15.762 28.0746 15.7568 28.0354 15.7778 27.9704C15.8006 27.9001 15.8019 27.8228 15.8128 27.7483C15.7961 27.7415 15.7794 27.7347 15.7626 27.7276C15.8276 27.704 15.8945 27.6836 15.9559 27.6532C15.9652 27.6486 15.9623 27.5813 15.9456 27.569C15.9089 27.5418 15.8601 27.5311 15.7839 27.501C15.8331 27.4172 15.881 27.336 15.9369 27.2408C15.9202 27.2263 15.8819 27.1926 15.862 27.1748C15.9003 27.0408 15.935 26.9191 15.97 26.7971L15.9202 26.7777C15.8993 26.8026 15.8781 26.8278 15.8572 26.8527C15.7926 26.7962 15.7982 26.7301 15.8739 26.6543C15.8961 26.5961 15.9192 26.5378 15.9408 26.4792C15.952 26.4488 15.9626 26.4177 15.9704 26.3863C15.98 26.3478 15.9903 26.3087 15.9932 26.2692C15.9974 26.2083 15.9884 26.1462 15.998 26.0866C16.0061 26.0387 16.0334 25.9937 16.0533 25.9445C15.9572 25.9173 15.8495 25.8588 15.8366 25.6872C15.834 25.6536 15.7179 25.6073 15.6523 25.6037C15.5138 25.5959 15.3739 25.6189 15.2343 25.6176C15.1231 25.6163 15.0112 25.583 14.9015 25.5911C14.8028 25.5985 14.7066 25.6426 14.6182 25.6681C14.6095 25.7105 14.6012 25.7532 14.5925 25.7956C14.578 25.7943 14.5639 25.7927 14.5494 25.7914C14.5465 25.7503 14.5439 25.7092 14.5391 25.6377C14.2809 25.6377 14.0224 25.6387 13.7642 25.6367C13.7249 25.6367 13.6844 25.627 13.6471 25.6144C13.5664 25.5869 13.4966 25.6448 13.4278 25.6448C13.1436 25.6448 12.8593 25.6176 12.5747 25.6112C12.3718 25.6066 12.1686 25.6244 11.9657 25.6228C11.7792 25.6215 11.5927 25.6079 11.4062 25.5982C11.3988 25.5979 11.3888 25.5749 11.3859 25.5762C11.2522 25.6345 11.1251 25.64 10.9769 25.6021C10.9232 25.5885 10.8258 25.6552 10.7328 25.6082C10.6988 25.5911 10.6338 25.6212 10.5897 25.6432C10.5402 25.6681 10.4865 25.7435 10.4553 25.7335C10.4068 25.7176 10.3756 25.6477 10.338 25.6021C10.2913 25.6134 10.2122 25.6607 10.1589 25.64C10.0241 25.5879 9.89615 25.6455 9.82895 25.7138C9.6955 25.8497 9.63826 25.7863 9.55723 25.6513C9.48231 25.6937 9.40899 25.7351 9.3315 25.7788C9.25304 25.7222 9.17329 25.6367 9.07683 25.6073C9.02891 25.5927 8.95013 25.6814 8.88196 25.7254C8.80382 25.6364 8.70125 25.5814 8.57102 25.6639C8.56266 25.6691 8.57809 25.7131 8.58549 25.7568C8.56748 25.7613 8.52632 25.7717 8.46555 25.7869C8.48773 25.7345 8.50413 25.6966 8.52021 25.6587L8.49867 25.6222C8.35332 25.6843 8.20766 25.7464 8.10894 25.7889C8.05556 25.7209 8.01279 25.6662 7.9697 25.6118L7.95748 25.6542C7.89575 25.6542 7.83369 25.6503 7.77259 25.6558C7.7414 25.6587 7.71214 25.6785 7.68191 25.6908C7.61053 25.6934 7.53914 25.696 7.46775 25.6982C7.39508 25.6879 7.30666 25.7002 7.25263 25.6626C7.15199 25.5927 7.09925 25.6196 7.07288 25.6798C6.96484 25.64 6.87223 25.606 6.7703 25.5684C6.73171 25.5807 6.66483 25.627 6.62238 25.6102C6.54553 25.5801 6.48315 25.5124 6.41626 25.4616C6.35324 25.4707 6.2661 25.483 6.18088 25.4953C6.14615 25.3856 6.11689 25.2927 6.08731 25.1998C6.09985 25.1939 6.11271 25.1881 6.12525 25.1823C6.08892 25.1661 6.05226 25.1503 6.02911 25.1399C5.99953 25.2299 5.97155 25.314 5.9484 25.3849C5.85161 25.2765 5.74839 25.1969 5.69533 25.0917C5.6471 24.9959 5.48825 24.9046 5.62909 24.7564C5.6516 24.7324 5.61366 24.6515 5.6053 24.5965C5.58729 24.4761 5.51526 24.3582 5.58504 24.2327C5.58922 24.2249 5.5889 24.2103 5.58472 24.2026C5.50562 24.0621 5.56189 23.9731 5.71077 23.9174C5.6606 23.8818 5.62491 23.8566 5.61141 23.8469C5.6307 23.6556 5.64806 23.484 5.66768 23.2918C5.59372 23.3355 5.53263 23.3717 5.46767 23.4105C5.49565 23.2681 5.52105 23.1383 5.55192 22.981C5.44002 22.8716 5.38342 23.0018 5.31718 23.093C5.29049 23.0212 5.26413 22.9493 5.23486 22.871C5.35802 22.8788 5.44741 22.7668 5.40561 22.6541C5.34419 22.4884 5.35834 22.3013 5.20753 22.1573C5.09306 22.0479 5.18181 21.8735 5.19177 21.7291C5.19724 21.6485 5.23004 21.5699 5.25448 21.4753C5.22039 21.5071 5.19692 21.5288 5.14258 21.5792C5.16284 21.5045 5.16573 21.4368 5.18534 21.4317C5.29017 21.4038 5.28117 21.3291 5.25416 21.2637C5.19081 21.1106 5.2995 20.985 5.30722 20.8439C5.31172 20.7588 5.32908 20.674 5.34291 20.5895C5.34612 20.5704 5.35673 20.5526 5.36509 20.5345C5.45256 20.3448 5.5516 20.1593 5.62459 19.9642C5.70659 19.7454 5.75064 19.512 5.8381 19.2961C5.90724 19.1255 5.98538 18.9404 6.02139 18.7789C6.05805 18.6161 6.2378 18.408 6.00982 18.2177L6.06866 18.2011C6.09503 18.2332 6.12172 18.2652 6.16384 18.3164C6.13458 18.1364 6.42076 17.9545 6.14358 17.8357C6.20532 17.6616 6.26578 17.49 6.32751 17.3149C6.30886 17.3059 6.28153 17.2926 6.24134 17.2735C6.36803 17.144 6.51305 17.0369 6.6018 16.8945C6.68862 16.755 6.7182 16.5796 6.77544 16.4122C6.76805 16.4087 6.73043 16.3906 6.67383 16.3637C6.742 16.3232 6.79345 16.2928 6.84458 16.2624C6.82882 16.2588 6.81306 16.2549 6.79731 16.2514C6.80117 16.186 6.80503 16.1209 6.80888 16.0556C6.82175 16.0569 6.83429 16.0585 6.84715 16.0598H6.84297C6.90953 16.0102 6.9523 15.8685 6.92304 15.7966L6.92561 15.8012C6.92561 15.7882 6.92561 15.7749 6.92529 15.762C6.92432 15.7497 6.92304 15.7377 6.92207 15.7254V15.3034C6.96066 15.3237 6.9851 15.3367 7.00954 15.3496C7.01211 15.2962 7.00857 15.2422 7.01918 15.1914C7.0298 15.1415 7.05487 15.0946 7.0687 15.0593C7.13398 15.0528 7.19025 15.047 7.23012 15.0431C7.18929 14.9933 7.15745 14.9541 7.1253 14.915C7.1851 14.8764 7.16967 14.6958 7.30633 14.8247C7.3372 14.7107 7.36486 14.6084 7.39283 14.5058C7.41566 14.501 7.43849 14.4965 7.46165 14.4916C7.41727 14.4712 7.37322 14.4508 7.3028 14.4188C7.40602 14.379 7.461 14.3579 7.48994 14.3469C7.53207 14.2223 7.54364 14.0941 7.61117 14.0129C7.67902 13.931 7.67033 13.8909 7.61117 13.8294C7.65715 13.7329 7.70313 13.6368 7.74944 13.5403C7.74043 13.5316 7.73143 13.5232 7.72243 13.5145L7.5922 13.6044C7.61085 13.5501 7.62917 13.496 7.65104 13.4329C7.6848 13.4491 7.71889 13.4659 7.75683 13.484C7.75105 13.2588 8.01697 13.1018 7.90539 12.8953C7.96038 12.7901 8.01311 12.714 8.04141 12.6299C8.11665 12.4069 8.18226 12.181 8.24914 11.9554C8.2575 11.9269 8.25042 11.8939 8.25042 11.8359C8.19126 11.9081 8.14688 11.9618 8.07968 12.0437C8.08965 11.9259 8.0755 11.8437 8.10701 11.7877C8.14367 11.7226 8.22084 11.6806 8.29866 11.642C8.27647 11.6825 8.2546 11.723 8.22566 11.7757H8.34335C8.41506 11.5168 8.48516 11.2624 8.5559 11.0086C8.57519 10.9397 8.63115 10.8662 8.51635 10.8219C8.50156 10.816 8.49834 10.762 8.50124 10.7313C8.51121 10.6286 8.50059 10.5121 8.54722 10.4283C8.58581 10.359 8.69224 10.3263 8.77167 10.2836C8.78775 10.2752 8.81829 10.294 8.86428 10.3063C8.84305 10.1771 8.8244 10.0655 8.80189 9.92759C8.83598 9.88065 9.00865 9.94377 8.98261 9.78129C8.97682 9.74504 8.97039 9.70879 8.96203 9.66056C9.00254 9.63693 9.063 9.60165 9.13052 9.56249C9.07811 9.49096 8.90994 9.45827 9.07136 9.35179L9.07393 9.34369C9.08197 9.29579 9.0958 9.24756 9.09708 9.19934C9.09966 9.08994 9.01155 8.94008 9.22731 8.93361C9.24178 8.93328 9.25497 8.88182 9.27362 8.84428C9.23278 8.81903 9.1958 8.79605 9.15303 8.76983C9.17426 8.69701 9.19419 8.62774 9.21702 8.54877H9.37748C9.43247 8.41509 9.47009 8.30181 9.52411 8.19759C9.609 8.03382 9.6 7.95031 9.46012 7.87975C9.52572 7.87457 9.57974 7.87036 9.64469 7.86551C9.63505 7.79333 9.62733 7.73378 9.61929 7.67422C9.63151 7.6302 9.7865 7.74284 9.70933 7.58392C9.68392 7.53149 9.71801 7.39619 9.76271 7.37321C9.86914 7.31819 9.78104 7.30557 9.75949 7.2745C9.69711 7.18484 9.77171 7.09518 9.76206 7.04793C9.82895 7.00553 9.89326 6.98805 9.91255 6.94824C10.036 6.69546 10.0328 6.69416 9.88136 6.60871C10.0116 6.47601 10.1441 6.33554 9.97686 6.15073C10.0791 6.041 10.2 5.94358 10.2782 5.81897C10.3579 5.69209 10.3959 5.53867 10.4521 5.39691C10.291 5.28362 10.5023 5.09201 10.3852 5.00365C10.5415 4.7499 10.6923 4.50974 10.8374 4.26602C10.8666 4.21682 10.8859 4.15565 10.8888 4.09901C10.8907 4.05661 10.8628 4.01032 10.8402 3.97019C10.8283 3.94882 10.7997 3.93685 10.7785 3.92067C10.7904 3.90578 10.8116 3.87697 10.8132 3.87827C10.8435 3.89801 10.8714 3.92164 10.9129 3.95497C10.9306 3.8815 10.9486 3.80771 10.9666 3.73391C10.9534 3.72711 10.9402 3.72032 10.9271 3.71352C10.9145 3.75074 10.9023 3.78829 10.8898 3.82551C10.8644 3.81094 10.839 3.79605 10.8136 3.78149C10.8309 3.69798 10.8483 3.6148 10.8714 3.50475C10.9287 3.55913 10.9534 3.58276 10.9779 3.60606C10.9981 3.57434 11.0232 3.54424 11.0383 3.51026C11.1277 3.30667 11.2165 3.10276 11.301 2.89723C11.3255 2.83768 11.3342 2.77197 11.3515 2.70951C11.3702 2.64218 11.3888 2.57486 11.411 2.50883C11.4692 2.33276 11.5117 2.14795 11.5959 1.98547C11.6403 1.89969 11.6351 1.7534 11.7847 1.73657C11.8062 1.73398 11.8232 1.69158 11.7956 1.66827C11.7908 1.62749 11.7695 1.57862 11.785 1.54852C11.8052 1.50903 11.8535 1.48346 11.8914 1.45368C11.9827 1.38215 11.9792 1.32939 11.8859 1.26045C12.0017 1.12095 12.1165 0.983072 12.2313 0.84519C12.2474 0.8549 12.2631 0.864934 12.2792 0.874644C12.2676 0.794051 12.2561 0.713458 12.2503 0.671381C12.2905 0.565866 12.3194 0.489481 12.357 0.390115C12.3728 0.388173 12.4178 0.377492 12.4628 0.377169C12.5496 0.376845 12.6213 0.358072 12.6857 0.28816C12.7757 0.190737 12.8779 0.104318 12.9786 0.0172517C13.0329 -0.0300035 13.1384 0.0263144 13.1477 0.107555C13.1583 0.198828 13.1632 0.29075 13.1712 0.390439C13.267 0.469737 13.5323 0.37814 13.4426 0.681091C13.4957 0.653903 13.5249 0.639015 13.5629 0.619595C13.5593 0.696303 13.5494 0.770423 13.5564 0.843248C13.5593 0.872702 13.5947 0.90701 13.624 0.922222C13.6404 0.930638 13.6905 0.91057 13.6979 0.892121C13.7545 0.75165 13.8378 0.808292 13.9285 0.849074C14.0066 0.884353 14.0899 0.916073 14.1738 0.927401C14.2105 0.932256 14.2542 0.882088 14.2899 0.880146C14.4507 0.867847 14.6111 0.855547 14.7658 0.843571C14.7989 0.882088 14.8398 0.938082 14.8912 0.98113C14.9002 0.988574 14.9552 0.939377 14.9935 0.913483C15.2362 1.09538 15.5002 1.11901 15.6006 0.958797C15.6353 1.07726 15.6613 1.20155 15.8324 1.18051C15.8646 1.17662 15.9125 1.20155 15.934 1.22873C16.0208 1.33749 16.1048 1.39672 16.1707 1.28958C16.3067 1.30382 16.4086 1.31127 16.5093 1.32681C16.5485 1.33295 16.5842 1.35852 16.6225 1.37341C16.698 1.40319 16.7743 1.43167 16.8505 1.4608C16.8797 1.47213 16.9109 1.48022 16.9376 1.49608C17.0209 1.54496 17.1048 1.59383 17.1839 1.6495C17.2048 1.66407 17.209 1.70291 17.2267 1.74336H17.1051C17.2907 1.93044 17.2916 1.93951 17.1579 2.00553C17.1672 2.06379 17.1717 2.11429 17.1846 2.16251C17.1942 2.19941 17.2145 2.23372 17.2302 2.26997C17.2305 2.27062 17.2286 2.269 17.2286 2.269C17.2212 2.28615 17.2138 2.30331 17.2064 2.32046L17.2048 2.31981Z"
          fill="currentColor"/>
</svg>
