<svg width="123" height="123" viewBox="0 0 123 123" fill="none" xmlns="http://www.w3.org/2000/svg">
<circle cx="61.5" cy="61.5" r="61.5" fill="#D9D9D9"/>
<path d="M90.0076 46.0498C87.9403 47.8994 84.7853 49.9667 80.6505 52.1429C78.3654 53.4483 75.537 54.8633 72.1643 56.3864C70.9678 53.9926 69.0093 51.9253 66.5066 50.8376C68.0297 47.4648 69.444 44.6357 70.6412 42.2425C72.9263 37.999 74.9936 34.9529 76.952 33.1033C79.3458 30.7095 81.739 29.4039 84.2416 28.8598C86.8532 28.4244 89.6816 28.8598 92.9454 30.274C94.2507 33.3201 94.6861 36.1494 94.1419 38.7602C93.7065 41.2629 92.2915 43.6568 90.0073 46.0498H90.0076ZM70.7493 30.3827C70.5316 33.2112 69.7705 36.9105 68.4642 41.3716C67.7023 43.8744 66.7234 46.9205 65.4181 50.2933C64.2216 49.8579 62.9154 49.6402 61.5012 49.6402C60.0869 49.6402 58.7808 49.8579 57.4753 50.2933C56.1699 46.9205 55.0815 43.8744 54.3203 41.2627C52.9061 36.5846 52.253 32.9942 52.253 30.3827C52.253 27.1188 53.0149 24.3985 54.4292 22.2223C55.9523 20.0461 58.3462 18.4142 61.6101 17C64.6562 18.1966 66.9413 19.9374 68.4644 22.1136C69.9875 24.3987 70.7495 27.119 70.7495 30.3829L70.7493 30.3827ZM52.253 92.6173C52.4707 89.7888 53.2319 86.0895 54.5381 81.6284C55.3001 79.1256 56.2789 76.0795 57.4755 72.7067C58.6721 73.1421 59.9782 73.3598 61.3925 73.3598C62.8067 73.3598 64.1128 73.1421 65.4183 72.7067C66.7237 76.0795 67.7034 79.1256 68.5733 81.7373C69.9876 86.4154 70.6406 90.0058 70.6406 92.6173C70.6406 95.8812 69.8787 98.6015 68.4644 100.778C66.9413 102.954 64.5475 104.586 61.2836 106C58.2375 104.803 55.9524 103.063 54.4292 100.886C53.015 98.6013 52.253 95.881 52.253 92.6171V92.6173ZM46.0517 32.9946C47.9014 35.1708 49.9687 38.2168 52.1449 42.3516C53.4503 44.6367 54.8652 47.4652 56.3884 50.8378C53.9946 52.0344 51.9273 53.9928 50.8396 56.4955C47.4668 54.9724 44.6377 53.5582 42.2445 52.361C38.001 50.0758 34.9549 48.0086 33.1052 46.0502C30.7114 43.6564 29.4059 41.2631 28.8617 38.7606C28.4263 36.149 28.8617 33.3205 30.276 30.0568C33.3221 28.7514 36.1513 28.316 38.7622 28.8602C41.2641 29.2956 43.6579 30.7106 46.0517 32.9948V32.9946ZM76.9502 90.0074C75.1006 87.8312 73.0333 84.7851 70.8571 80.6503C69.5517 78.3652 68.1367 75.5368 66.6136 72.1642C69.0074 70.9676 71.0747 69.0092 72.1624 66.5064C75.5352 68.0295 78.3643 69.4438 80.7575 70.641C85.001 72.9261 88.0471 74.9934 89.8967 76.9518C92.2905 79.3456 93.5961 81.7388 94.1402 84.2414C94.5756 86.853 94.1402 89.6815 92.726 92.9452C89.7886 94.2505 86.9593 94.686 84.3487 94.1417C81.7371 93.7063 79.3432 92.2921 76.9502 90.0071V90.0074ZM30.3827 52.2546C33.2112 52.4723 36.9105 53.2335 41.3716 54.5397C43.8744 55.3016 46.9205 56.2805 50.2933 57.5858C49.8579 58.7823 49.6402 60.0885 49.6402 61.5027C49.6402 62.917 49.8579 64.2231 50.2933 65.5286C46.9205 66.834 43.8744 67.8137 41.2627 68.6836C36.5846 70.0978 32.9942 70.7509 30.3827 70.7509C27.1188 70.7509 24.3985 69.989 22.2223 68.5747C20.0461 67.0516 18.4142 64.6577 17 61.3938C18.1966 58.3478 19.9374 56.0626 22.1136 54.5395C24.3987 53.0164 27.119 52.2544 30.3829 52.2544L30.3827 52.2546ZM92.6173 70.7509C89.7888 70.5332 86.0895 69.772 81.6283 68.4658C79.1256 67.7039 76.0795 66.725 72.7067 65.5284C73.1421 64.3319 73.3598 63.0257 73.3598 61.6115C73.3598 60.1972 73.1421 58.8911 72.7067 57.5856C76.0795 56.2802 79.1256 55.3005 81.7373 54.4306C86.4154 53.0164 90.0058 52.3633 92.6173 52.3633C95.8812 52.3633 98.6015 53.1252 100.778 54.5395C102.954 56.0626 104.586 58.4565 106 61.7204C104.803 64.7665 103.063 67.0516 100.886 68.5747C98.6013 69.9889 95.8812 70.7509 92.6173 70.7509ZM32.9946 76.9522C35.0618 75.1025 38.2168 73.0352 42.3516 70.859C44.6367 69.5536 47.4652 68.1387 50.8378 66.6155C52.0344 69.0093 53.9928 71.0766 56.4955 72.1643C54.9724 75.5372 53.5582 78.3662 52.361 80.7594C50.0758 85.0029 48.0086 88.049 46.0502 89.8987C43.6564 92.2925 41.2631 93.598 38.7606 94.1422C36.149 94.5776 33.3205 94.1422 30.0568 92.7279C28.7514 89.7906 28.316 86.9621 28.8602 84.3507C29.2956 81.7398 30.7099 79.346 32.9948 76.9522H32.9946Z" fill="#515151"/>
</svg>
