<svg width="123" height="123" viewBox="0 0 123 123" fill="none" xmlns="http://www.w3.org/2000/svg">
<circle cx="61.5" cy="61.5" r="61.5" fill="#D9D9D9"/>
<path d="M95.4017 89.4168H88.6456V87.1217L91.7633 84.3893C92.0703 84.1202 92.1475 83.6553 91.9091 83.3238C91.6349 82.9438 91.102 82.8901 90.7577 83.1908L88.6462 85.042V80.9198C91.7066 80.5337 94.0815 77.9167 94.0815 74.7536V68.769C93.8774 67.9281 93.1163 67.9895 92.9286 68.08L90.6877 69.1557L88.4171 66.8851C88.1117 66.5802 87.6166 66.5797 87.3112 66.8851L85.0406 69.1557L82.767 68.0641C82.2708 67.8079 81.6304 68.2109 81.6468 68.769V74.7536C81.6468 77.9167 84.0218 80.5342 87.0821 80.9198V85.0328L85.0007 83.1746C84.6959 82.9025 84.2253 82.8825 83.9255 83.1603C83.5818 83.4784 83.5931 84.0145 83.9342 84.3188L87.082 87.1285V89.416H69.881V87.1219L72.9987 84.3894C73.3056 84.1204 73.3828 83.6554 73.1445 83.324C72.8703 82.9439 72.3373 82.8902 71.9931 83.191L69.8816 85.0421V80.92C72.9419 80.5338 75.3169 77.9169 75.3169 74.7537V68.7691C75.1128 67.9282 74.3516 67.9896 74.1639 68.0801L71.9231 69.1558L69.6525 66.8852C69.3471 66.5804 68.8519 66.5798 68.5466 66.8852L66.276 69.1558L64.0024 68.0643C63.5062 67.808 62.8658 68.2111 62.8822 68.7691V74.7537C62.8822 77.9169 65.2571 80.5343 68.3175 80.92V85.033L66.2361 83.1747C65.9312 82.9026 65.4606 82.8827 65.1609 83.1604C64.8172 83.4786 64.8284 84.0146 65.1696 84.319L68.3174 87.1287V89.4162H52.6799V87.122L55.7975 84.3896C56.1044 84.1205 56.1817 83.6555 55.9433 83.3241C55.6691 82.944 55.1362 82.8903 54.7919 83.1911L52.6804 85.0423V80.9201C55.7407 80.5339 58.1157 77.917 58.1157 74.7539V68.7693C57.9116 67.9283 57.1505 67.9897 56.9628 68.0803L54.7219 69.1559L52.4513 66.8854C52.1459 66.5805 51.6508 66.58 51.3454 66.8854L49.0748 69.1559L46.8012 68.0644C46.305 67.8081 45.6646 68.2112 45.681 68.7693V74.7539C45.681 77.917 48.056 80.5345 51.1163 80.9201V85.0331L49.0349 83.1749C48.7301 82.9027 48.2595 82.8828 47.9597 83.1605C47.616 83.4787 47.6273 84.0148 47.9684 84.3191L51.1162 87.1288V89.4163L44.3602 89.4173C43.9285 89.4173 43.5781 89.7677 43.5781 90.1994V94.4214C43.5781 96.5769 45.3321 98.3308 47.4875 98.3308H92.2749C94.4304 98.3308 96.1843 96.5767 96.1843 94.4214V90.1994C96.1843 89.7672 95.8344 89.4173 95.4022 89.4173L95.4017 89.4168ZM64.4448 74.7535V70.0118L66.0974 70.8052C66.3967 70.9484 66.7537 70.888 66.9885 70.6533L69.0979 68.5439L71.2073 70.6533C71.4421 70.888 71.7991 70.9489 72.0983 70.8052L73.751 70.0118V74.7535C73.751 77.3193 71.6636 79.4067 69.0979 79.4067C66.5321 79.4067 64.4448 77.3193 64.4448 74.7535Z" fill="#515151"/>
<path d="M79.9845 62.2985C79.584 61.5292 79.1344 60.8064 78.6484 60.1492L79.9052 59.2188C80.4402 59.9415 80.9339 60.7348 81.3717 61.5763L79.9845 62.2985Z" fill="#515151"/>
<path d="M76.9821 58.2672C76.3719 57.6959 75.7049 57.1813 75 56.7383L75.8317 55.4141C76.6215 55.9102 77.3677 56.4862 78.0511 57.1255L76.9821 58.2672Z" fill="#515151"/>
<path d="M72.7597 55.6121C71.996 55.3113 71.1822 55.0679 70.3398 54.8893L70.6647 53.3594C71.5915 53.5563 72.4893 53.8248 73.3332 54.1573L72.7597 55.6121Z" fill="#515151"/>
<path d="M85.431 62.4522C85.206 61.62 84.9359 60.796 84.628 60.0047L86.0852 59.438C86.4136 60.2814 86.7011 61.1587 86.9405 62.0446L85.431 62.4522ZM83.5615 57.6692C83.1543 56.9024 82.7037 56.171 82.2209 55.4957L83.493 54.5868C84.0158 55.3182 84.5037 56.1085 84.9426 56.9361L83.5615 57.6692ZM80.5968 53.5438C80.005 52.9336 79.3656 52.373 78.697 51.8783L79.6274 50.6216C80.3645 51.1668 81.0684 51.7837 81.7196 52.4553L80.5968 53.5438ZM76.5508 50.5536C75.8107 50.1786 75.0229 49.8579 74.2112 49.5996L74.6843 48.109C75.5769 48.3924 76.4429 48.7454 77.2577 49.1581L76.5508 50.5536ZM71.7396 49.0139C70.9248 48.8809 70.0685 48.7975 69.1953 48.7658L69.2521 47.2031C70.1907 47.2374 71.1124 47.3274 71.9917 47.4706L71.7396 49.0139Z" fill="#515151"/>
<path d="M27.283 43.774C27.283 44.2922 26.863 44.7127 26.3449 44.7127C25.8267 44.7127 25.4062 44.2922 25.4062 43.774C25.4062 43.2559 25.8267 42.8359 26.3449 42.8359C26.863 42.8359 27.283 43.2559 27.283 43.774Z" fill="#515151"/>
<path d="M69.0694 54.9709L67.1052 47.6313C66.8714 46.6789 65.8131 46.0691 64.8714 46.3428L63.5378 46.7004C61.7778 47.1725 60.6243 48.7888 60.6632 50.5341L51.2479 51.8829L54.0162 45.6738C55.587 46.2001 57.38 45.5249 58.1952 44.0119C59.1696 42.4043 58.5645 40.1418 56.917 39.2365L41.2297 30.191C41.69 29.5143 42.2358 28.9245 42.8461 28.4289L46.5729 30.5777C47.4384 31.0984 48.243 29.7178 47.354 29.2232L44.3181 27.4723C46.7371 26.2426 49.7099 26.2166 52.2286 27.6687C55.0296 29.2835 56.6403 32.4078 56.3329 35.6277C56.292 36.0574 56.6071 36.4395 57.0368 36.4804C57.0623 36.483 57.0869 36.484 57.112 36.484C57.5104 36.484 57.8511 36.1812 57.8894 35.7766C58.2547 31.9485 56.3396 28.2344 53.0091 26.3142C48.4828 23.7044 42.7212 25.1075 39.8713 29.4072L39.8468 29.3929C38.1793 28.4313 36.0381 29.0057 35.0739 30.6732C34.1803 32.0671 34.4693 34.0477 35.7205 35.1224L35.191 35.8502C34.4488 35.3684 33.0514 34.6999 33.0514 34.6999C31.3067 33.8717 29.4646 33.128 27.8146 33.8983C26.056 34.7183 25.1946 36.9837 25.255 40.6318C25.2622 41.0594 25.611 41.4006 26.0366 41.4006H26.0499C26.4816 41.3935 26.8259 41.0374 26.8187 40.6057C26.7711 37.7147 27.3593 35.8359 28.4759 35.3153C29.5112 34.8314 30.9725 35.4437 32.3742 36.1091C32.4371 36.1398 33.6325 36.7107 34.2699 37.1168L23.1481 52.4073C22.8745 52.7664 22.9942 53.328 23.3901 53.5449L44.2105 65.55C44.5967 65.7838 45.1404 65.6063 45.3153 65.1909L46.8325 61.7879L62.0431 55.6796C62.8477 57.2182 64.7751 58.0443 66.4457 57.5614L67.7797 57.2038C68.7506 56.943 69.3296 55.9414 69.0698 54.9711L69.0694 54.9709ZM37.0387 35.9681L52.6239 44.9548L46.5043 58.6805L28.1967 48.1241L37.0387 35.9681ZM44.2386 63.7626L24.9228 52.6245L27.2712 49.3959L45.8642 60.1166L44.2386 63.7626ZM67.3741 55.6936L66.0401 56.0512C64.837 56.4016 63.4943 55.6154 63.2017 54.4001L62.3081 51.062C62.3045 51.0441 62.3004 51.0262 62.2963 51.0083C62.2958 51.0073 62.2953 51.0063 62.2953 51.0052C61.9915 49.7858 62.7224 48.5382 63.9428 48.2109L65.2764 47.8528C65.4559 47.8323 65.5224 47.8692 65.594 48.0354L67.5582 55.375C67.5956 55.5137 67.5127 55.6563 67.3741 55.6936Z" fill="#515151"/>
<path d="M50.4426 32.6893C50.3101 32.6893 50.1756 32.6555 50.0528 32.5844L49.3761 32.1941C49.0017 31.9783 48.8733 31.5005 49.0891 31.1261C49.3045 30.7517 49.7827 30.6233 50.1572 30.8391L50.8339 31.2294C51.2083 31.4453 51.3367 31.923 51.1208 32.2974C50.9761 32.5486 50.7132 32.6893 50.4426 32.6893Z" fill="#515151"/>
<path d="M84.7196 28.6724C84.2879 28.6724 83.9375 28.322 83.9375 27.8903V25.8837C83.9375 25.4519 84.2879 25.1016 84.7196 25.1016C85.1513 25.1016 85.5017 25.4519 85.5017 25.8837V27.8903C85.5017 28.322 85.1513 28.6724 84.7196 28.6724Z" fill="#515151"/>
<path d="M79.1749 30.9671C78.9749 30.9671 78.7749 30.8909 78.6224 30.7385L77.2019 29.3195C76.8966 29.0142 76.8961 28.519 77.2014 28.2137C77.5063 27.9083 78.0014 27.9078 78.3073 28.2131L79.7278 29.6321C80.2265 30.0965 79.8439 30.9907 79.1749 30.9671Z" fill="#515151"/>
<path d="M76.8762 36.5095H74.868C74.4363 36.5095 74.0859 36.1591 74.0859 35.7274C74.0859 35.2957 74.4363 34.9453 74.868 34.9453H76.8762C77.3079 34.9453 77.6583 35.2957 77.6583 35.7274C77.6578 36.1591 77.3079 36.5095 76.8762 36.5095Z" fill="#515151"/>
<path d="M77.7527 43.4671C77.0837 43.4906 76.7016 42.5965 77.2003 42.1321L78.6208 40.7131C78.9262 40.4078 79.4213 40.4083 79.7267 40.7137C80.0321 41.019 80.0315 41.5142 79.7262 41.8195L78.3057 43.2385C78.1522 43.3909 77.9522 43.4671 77.7527 43.4671Z" fill="#515151"/>
<path d="M84.7196 46.3443C84.2879 46.3443 83.9375 45.9939 83.9375 45.5622V43.5555C83.9375 43.1238 84.2879 42.7734 84.7196 42.7734C85.1513 42.7734 85.5017 43.1238 85.5017 43.5555V45.5622C85.5017 45.9944 85.1513 46.3443 84.7196 46.3443Z" fill="#515151"/>
<path d="M91.6822 43.4671C91.4822 43.4671 91.2822 43.3909 91.1297 43.2385L89.7097 41.8195C89.4044 41.5142 89.4039 41.019 89.7092 40.7137C90.0146 40.4083 90.5092 40.4078 90.8151 40.7131L92.2351 42.1321C92.7338 42.5965 92.3512 43.4907 91.6822 43.4671Z" fill="#515151"/>
<path d="M94.5676 36.5095H92.5594C92.1277 36.5095 91.7773 36.1591 91.7773 35.7274C91.7773 35.2957 92.1277 34.9453 92.5594 34.9453H94.5676C94.9993 34.9453 95.3497 35.2957 95.3497 35.7274C95.3497 36.1591 94.9999 36.5095 94.5676 36.5095Z" fill="#515151"/>
<path d="M88.6271 35.7204C88.6271 37.8784 86.8762 39.6284 84.7162 39.6284C82.5561 39.6284 80.8047 37.8786 80.8047 35.7204C80.8047 33.5623 82.5561 31.8125 84.7162 31.8125C86.8762 31.8125 88.6271 33.5623 88.6271 35.7204Z" fill="#515151"/>
<path d="M90.2645 30.9671C89.5954 30.9906 89.2133 30.0965 89.712 29.6321L91.132 28.2131C91.4374 27.9078 91.9325 27.9083 92.2379 28.2137C92.5432 28.519 92.5427 29.0142 92.2374 29.3195L90.8174 30.7385C90.6644 30.8909 90.4645 30.9671 90.2645 30.9671Z" fill="#515151"/>
<path d="M38.6145 86.5085C38.3731 86.5085 38.1347 86.397 37.9818 86.1868L31.099 76.7341C30.8448 76.3852 30.922 75.8962 31.2709 75.642C31.6197 75.3878 32.1087 75.465 32.3629 75.8139L39.2457 85.2666C39.6293 85.7597 39.2299 86.5269 38.6145 86.5085Z" fill="#515151"/>
<path d="M29.224 73.6082C28.9826 73.6082 28.7442 73.4967 28.5913 73.2865L27.3529 71.5858C27.0987 71.2369 27.1759 70.7474 27.5248 70.4937C27.8736 70.2395 28.3626 70.3162 28.6169 70.6656L29.8552 72.3663C30.2393 72.8594 29.8399 73.6266 29.224 73.6082Z" fill="#515151"/>
<path d="M30.997 88.8251C30.7555 88.8251 30.5172 88.7136 30.3642 88.5034L27.8021 84.9842C27.5479 84.6353 27.6252 84.1458 27.974 83.8921C28.3229 83.6379 28.8119 83.7146 29.0661 84.064L31.6282 87.5832C32.0118 88.0763 31.6128 88.8435 30.997 88.8251Z" fill="#515151"/>
<path d="M26.0164 81.9794C25.775 81.9794 25.5366 81.8679 25.3837 81.6577L24.4154 80.3278C24.1612 79.9789 24.2384 79.49 24.5873 79.2357C24.9361 78.9815 25.4251 79.0588 25.6794 79.4076L26.6476 80.7375C27.0313 81.2306 26.6323 81.9978 26.0164 81.9794Z" fill="#515151"/>
</svg>
